G04 #@! TF.GenerationSoftware,KiCad,Pcbnew,(5.1.10)-1*
G04 #@! TF.CreationDate,2021-09-08T12:00:49+09:00*
G04 #@! TF.ProjectId,driver_v0.3,64726976-6572-45f7-9630-2e332e6b6963,rev?*
G04 #@! TF.SameCoordinates,Original*
G04 #@! TF.FileFunction,Legend,Top*
G04 #@! TF.FilePolarity,Positive*
%FSLAX46Y46*%
G04 Gerber Fmt 4.6, Leading zero omitted, Abs format (unit mm)*
G04 Created by KiCad (PCBNEW (5.1.10)-1) date 2021-09-08 12:00:49*
%MOMM*%
%LPD*%
G01*
G04 APERTURE LIST*
%ADD10C,0.120000*%
%ADD11C,0.150000*%
G04 APERTURE END LIST*
D10*
X95522500Y-109762742D02*
X95522500Y-110237258D01*
X94477500Y-109762742D02*
X94477500Y-110237258D01*
X90522500Y-109762742D02*
X90522500Y-110237258D01*
X89477500Y-109762742D02*
X89477500Y-110237258D01*
X85522500Y-109762742D02*
X85522500Y-110237258D01*
X84477500Y-109762742D02*
X84477500Y-110237258D01*
X80522500Y-109762742D02*
X80522500Y-110237258D01*
X79477500Y-109762742D02*
X79477500Y-110237258D01*
X75522500Y-109762742D02*
X75522500Y-110237258D01*
X74477500Y-109762742D02*
X74477500Y-110237258D01*
X74262742Y-112977500D02*
X74737258Y-112977500D01*
X74262742Y-114022500D02*
X74737258Y-114022500D01*
X63670000Y-112870000D02*
X66330000Y-112870000D01*
X63670000Y-107730000D02*
X63670000Y-112870000D01*
X66330000Y-107730000D02*
X66330000Y-112870000D01*
X63670000Y-107730000D02*
X66330000Y-107730000D01*
X63670000Y-106460000D02*
X63670000Y-105130000D01*
X63670000Y-105130000D02*
X65000000Y-105130000D01*
X95960000Y-106000000D02*
X95960000Y-103315000D01*
X95960000Y-103315000D02*
X94040000Y-103315000D01*
X94040000Y-103315000D02*
X94040000Y-106000000D01*
X90960000Y-106000000D02*
X90960000Y-103315000D01*
X90960000Y-103315000D02*
X89040000Y-103315000D01*
X89040000Y-103315000D02*
X89040000Y-106000000D01*
X85960000Y-106000000D02*
X85960000Y-103315000D01*
X85960000Y-103315000D02*
X84040000Y-103315000D01*
X84040000Y-103315000D02*
X84040000Y-106000000D01*
X80960000Y-106000000D02*
X80960000Y-103315000D01*
X80960000Y-103315000D02*
X79040000Y-103315000D01*
X79040000Y-103315000D02*
X79040000Y-106000000D01*
X75960000Y-106000000D02*
X75960000Y-103315000D01*
X75960000Y-103315000D02*
X74040000Y-103315000D01*
X74040000Y-103315000D02*
X74040000Y-106000000D01*
X70850000Y-111000000D02*
X69150000Y-111000000D01*
X69150000Y-111000000D02*
X69150000Y-113550000D01*
X70850000Y-111000000D02*
X70850000Y-113550000D01*
X93350000Y-112900000D02*
X93350000Y-114100000D01*
X95200000Y-112900000D02*
X93350000Y-112900000D01*
X95200000Y-114100000D02*
X93350000Y-114100000D01*
X89350000Y-112900000D02*
X89350000Y-114100000D01*
X91200000Y-112900000D02*
X89350000Y-112900000D01*
X91200000Y-114100000D02*
X89350000Y-114100000D01*
X85350000Y-112900000D02*
X85350000Y-114100000D01*
X87200000Y-112900000D02*
X85350000Y-112900000D01*
X87200000Y-114100000D02*
X85350000Y-114100000D01*
X81350000Y-112900000D02*
X81350000Y-114100000D01*
X83200000Y-112900000D02*
X81350000Y-112900000D01*
X83200000Y-114100000D02*
X81350000Y-114100000D01*
X77350000Y-112900000D02*
X77350000Y-114100000D01*
X79200000Y-112900000D02*
X77350000Y-112900000D01*
X79200000Y-114100000D02*
X77350000Y-114100000D01*
X71000000Y-105250000D02*
X69000000Y-105250000D01*
X69000000Y-105250000D02*
X69000000Y-109150000D01*
X71000000Y-105250000D02*
X71000000Y-109150000D01*
D11*
X96882380Y-110642857D02*
X96406190Y-110976190D01*
X96882380Y-111214285D02*
X95882380Y-111214285D01*
X95882380Y-110833333D01*
X95930000Y-110738095D01*
X95977619Y-110690476D01*
X96072857Y-110642857D01*
X96215714Y-110642857D01*
X96310952Y-110690476D01*
X96358571Y-110738095D01*
X96406190Y-110833333D01*
X96406190Y-111214285D01*
X96882380Y-109690476D02*
X96882380Y-110261904D01*
X96882380Y-109976190D02*
X95882380Y-109976190D01*
X96025238Y-110071428D01*
X96120476Y-110166666D01*
X96168095Y-110261904D01*
X95977619Y-109309523D02*
X95930000Y-109261904D01*
X95882380Y-109166666D01*
X95882380Y-108928571D01*
X95930000Y-108833333D01*
X95977619Y-108785714D01*
X96072857Y-108738095D01*
X96168095Y-108738095D01*
X96310952Y-108785714D01*
X96882380Y-109357142D01*
X96882380Y-108738095D01*
X91882380Y-110642857D02*
X91406190Y-110976190D01*
X91882380Y-111214285D02*
X90882380Y-111214285D01*
X90882380Y-110833333D01*
X90930000Y-110738095D01*
X90977619Y-110690476D01*
X91072857Y-110642857D01*
X91215714Y-110642857D01*
X91310952Y-110690476D01*
X91358571Y-110738095D01*
X91406190Y-110833333D01*
X91406190Y-111214285D01*
X91882380Y-109690476D02*
X91882380Y-110261904D01*
X91882380Y-109976190D02*
X90882380Y-109976190D01*
X91025238Y-110071428D01*
X91120476Y-110166666D01*
X91168095Y-110261904D01*
X91882380Y-108738095D02*
X91882380Y-109309523D01*
X91882380Y-109023809D02*
X90882380Y-109023809D01*
X91025238Y-109119047D01*
X91120476Y-109214285D01*
X91168095Y-109309523D01*
X86882380Y-110642857D02*
X86406190Y-110976190D01*
X86882380Y-111214285D02*
X85882380Y-111214285D01*
X85882380Y-110833333D01*
X85930000Y-110738095D01*
X85977619Y-110690476D01*
X86072857Y-110642857D01*
X86215714Y-110642857D01*
X86310952Y-110690476D01*
X86358571Y-110738095D01*
X86406190Y-110833333D01*
X86406190Y-111214285D01*
X86882380Y-109690476D02*
X86882380Y-110261904D01*
X86882380Y-109976190D02*
X85882380Y-109976190D01*
X86025238Y-110071428D01*
X86120476Y-110166666D01*
X86168095Y-110261904D01*
X85882380Y-109071428D02*
X85882380Y-108976190D01*
X85930000Y-108880952D01*
X85977619Y-108833333D01*
X86072857Y-108785714D01*
X86263333Y-108738095D01*
X86501428Y-108738095D01*
X86691904Y-108785714D01*
X86787142Y-108833333D01*
X86834761Y-108880952D01*
X86882380Y-108976190D01*
X86882380Y-109071428D01*
X86834761Y-109166666D01*
X86787142Y-109214285D01*
X86691904Y-109261904D01*
X86501428Y-109309523D01*
X86263333Y-109309523D01*
X86072857Y-109261904D01*
X85977619Y-109214285D01*
X85930000Y-109166666D01*
X85882380Y-109071428D01*
X81882380Y-110166666D02*
X81406190Y-110500000D01*
X81882380Y-110738095D02*
X80882380Y-110738095D01*
X80882380Y-110357142D01*
X80930000Y-110261904D01*
X80977619Y-110214285D01*
X81072857Y-110166666D01*
X81215714Y-110166666D01*
X81310952Y-110214285D01*
X81358571Y-110261904D01*
X81406190Y-110357142D01*
X81406190Y-110738095D01*
X81882380Y-109690476D02*
X81882380Y-109500000D01*
X81834761Y-109404761D01*
X81787142Y-109357142D01*
X81644285Y-109261904D01*
X81453809Y-109214285D01*
X81072857Y-109214285D01*
X80977619Y-109261904D01*
X80930000Y-109309523D01*
X80882380Y-109404761D01*
X80882380Y-109595238D01*
X80930000Y-109690476D01*
X80977619Y-109738095D01*
X81072857Y-109785714D01*
X81310952Y-109785714D01*
X81406190Y-109738095D01*
X81453809Y-109690476D01*
X81501428Y-109595238D01*
X81501428Y-109404761D01*
X81453809Y-109309523D01*
X81406190Y-109261904D01*
X81310952Y-109214285D01*
X76882380Y-110166666D02*
X76406190Y-110500000D01*
X76882380Y-110738095D02*
X75882380Y-110738095D01*
X75882380Y-110357142D01*
X75930000Y-110261904D01*
X75977619Y-110214285D01*
X76072857Y-110166666D01*
X76215714Y-110166666D01*
X76310952Y-110214285D01*
X76358571Y-110261904D01*
X76406190Y-110357142D01*
X76406190Y-110738095D01*
X76310952Y-109595238D02*
X76263333Y-109690476D01*
X76215714Y-109738095D01*
X76120476Y-109785714D01*
X76072857Y-109785714D01*
X75977619Y-109738095D01*
X75930000Y-109690476D01*
X75882380Y-109595238D01*
X75882380Y-109404761D01*
X75930000Y-109309523D01*
X75977619Y-109261904D01*
X76072857Y-109214285D01*
X76120476Y-109214285D01*
X76215714Y-109261904D01*
X76263333Y-109309523D01*
X76310952Y-109404761D01*
X76310952Y-109595238D01*
X76358571Y-109690476D01*
X76406190Y-109738095D01*
X76501428Y-109785714D01*
X76691904Y-109785714D01*
X76787142Y-109738095D01*
X76834761Y-109690476D01*
X76882380Y-109595238D01*
X76882380Y-109404761D01*
X76834761Y-109309523D01*
X76787142Y-109261904D01*
X76691904Y-109214285D01*
X76501428Y-109214285D01*
X76406190Y-109261904D01*
X76358571Y-109309523D01*
X76310952Y-109404761D01*
X74333333Y-115452380D02*
X74000000Y-114976190D01*
X73761904Y-115452380D02*
X73761904Y-114452380D01*
X74142857Y-114452380D01*
X74238095Y-114500000D01*
X74285714Y-114547619D01*
X74333333Y-114642857D01*
X74333333Y-114785714D01*
X74285714Y-114880952D01*
X74238095Y-114928571D01*
X74142857Y-114976190D01*
X73761904Y-114976190D01*
X74666666Y-114452380D02*
X75333333Y-114452380D01*
X74904761Y-115452380D01*
X64666666Y-103582380D02*
X64666666Y-104296666D01*
X64619047Y-104439523D01*
X64523809Y-104534761D01*
X64380952Y-104582380D01*
X64285714Y-104582380D01*
X65095238Y-103677619D02*
X65142857Y-103630000D01*
X65238095Y-103582380D01*
X65476190Y-103582380D01*
X65571428Y-103630000D01*
X65619047Y-103677619D01*
X65666666Y-103772857D01*
X65666666Y-103868095D01*
X65619047Y-104010952D01*
X65047619Y-104582380D01*
X65666666Y-104582380D01*
X97102380Y-106214285D02*
X96102380Y-106214285D01*
X96102380Y-105976190D01*
X96150000Y-105833333D01*
X96245238Y-105738095D01*
X96340476Y-105690476D01*
X96530952Y-105642857D01*
X96673809Y-105642857D01*
X96864285Y-105690476D01*
X96959523Y-105738095D01*
X97054761Y-105833333D01*
X97102380Y-105976190D01*
X97102380Y-106214285D01*
X97102380Y-104690476D02*
X97102380Y-105261904D01*
X97102380Y-104976190D02*
X96102380Y-104976190D01*
X96245238Y-105071428D01*
X96340476Y-105166666D01*
X96388095Y-105261904D01*
X96102380Y-104357142D02*
X96102380Y-103738095D01*
X96483333Y-104071428D01*
X96483333Y-103928571D01*
X96530952Y-103833333D01*
X96578571Y-103785714D01*
X96673809Y-103738095D01*
X96911904Y-103738095D01*
X97007142Y-103785714D01*
X97054761Y-103833333D01*
X97102380Y-103928571D01*
X97102380Y-104214285D01*
X97054761Y-104309523D01*
X97007142Y-104357142D01*
X92102380Y-106214285D02*
X91102380Y-106214285D01*
X91102380Y-105976190D01*
X91150000Y-105833333D01*
X91245238Y-105738095D01*
X91340476Y-105690476D01*
X91530952Y-105642857D01*
X91673809Y-105642857D01*
X91864285Y-105690476D01*
X91959523Y-105738095D01*
X92054761Y-105833333D01*
X92102380Y-105976190D01*
X92102380Y-106214285D01*
X92102380Y-104690476D02*
X92102380Y-105261904D01*
X92102380Y-104976190D02*
X91102380Y-104976190D01*
X91245238Y-105071428D01*
X91340476Y-105166666D01*
X91388095Y-105261904D01*
X91197619Y-104309523D02*
X91150000Y-104261904D01*
X91102380Y-104166666D01*
X91102380Y-103928571D01*
X91150000Y-103833333D01*
X91197619Y-103785714D01*
X91292857Y-103738095D01*
X91388095Y-103738095D01*
X91530952Y-103785714D01*
X92102380Y-104357142D01*
X92102380Y-103738095D01*
X87102380Y-106214285D02*
X86102380Y-106214285D01*
X86102380Y-105976190D01*
X86150000Y-105833333D01*
X86245238Y-105738095D01*
X86340476Y-105690476D01*
X86530952Y-105642857D01*
X86673809Y-105642857D01*
X86864285Y-105690476D01*
X86959523Y-105738095D01*
X87054761Y-105833333D01*
X87102380Y-105976190D01*
X87102380Y-106214285D01*
X87102380Y-104690476D02*
X87102380Y-105261904D01*
X87102380Y-104976190D02*
X86102380Y-104976190D01*
X86245238Y-105071428D01*
X86340476Y-105166666D01*
X86388095Y-105261904D01*
X87102380Y-103738095D02*
X87102380Y-104309523D01*
X87102380Y-104023809D02*
X86102380Y-104023809D01*
X86245238Y-104119047D01*
X86340476Y-104214285D01*
X86388095Y-104309523D01*
X82102380Y-106214285D02*
X81102380Y-106214285D01*
X81102380Y-105976190D01*
X81150000Y-105833333D01*
X81245238Y-105738095D01*
X81340476Y-105690476D01*
X81530952Y-105642857D01*
X81673809Y-105642857D01*
X81864285Y-105690476D01*
X81959523Y-105738095D01*
X82054761Y-105833333D01*
X82102380Y-105976190D01*
X82102380Y-106214285D01*
X82102380Y-104690476D02*
X82102380Y-105261904D01*
X82102380Y-104976190D02*
X81102380Y-104976190D01*
X81245238Y-105071428D01*
X81340476Y-105166666D01*
X81388095Y-105261904D01*
X81102380Y-104071428D02*
X81102380Y-103976190D01*
X81150000Y-103880952D01*
X81197619Y-103833333D01*
X81292857Y-103785714D01*
X81483333Y-103738095D01*
X81721428Y-103738095D01*
X81911904Y-103785714D01*
X82007142Y-103833333D01*
X82054761Y-103880952D01*
X82102380Y-103976190D01*
X82102380Y-104071428D01*
X82054761Y-104166666D01*
X82007142Y-104214285D01*
X81911904Y-104261904D01*
X81721428Y-104309523D01*
X81483333Y-104309523D01*
X81292857Y-104261904D01*
X81197619Y-104214285D01*
X81150000Y-104166666D01*
X81102380Y-104071428D01*
X77102380Y-105738095D02*
X76102380Y-105738095D01*
X76102380Y-105500000D01*
X76150000Y-105357142D01*
X76245238Y-105261904D01*
X76340476Y-105214285D01*
X76530952Y-105166666D01*
X76673809Y-105166666D01*
X76864285Y-105214285D01*
X76959523Y-105261904D01*
X77054761Y-105357142D01*
X77102380Y-105500000D01*
X77102380Y-105738095D01*
X77102380Y-104690476D02*
X77102380Y-104500000D01*
X77054761Y-104404761D01*
X77007142Y-104357142D01*
X76864285Y-104261904D01*
X76673809Y-104214285D01*
X76292857Y-104214285D01*
X76197619Y-104261904D01*
X76150000Y-104309523D01*
X76102380Y-104404761D01*
X76102380Y-104595238D01*
X76150000Y-104690476D01*
X76197619Y-104738095D01*
X76292857Y-104785714D01*
X76530952Y-104785714D01*
X76626190Y-104738095D01*
X76673809Y-104690476D01*
X76721428Y-104595238D01*
X76721428Y-104404761D01*
X76673809Y-104309523D01*
X76626190Y-104261904D01*
X76530952Y-104214285D01*
X72302380Y-113238095D02*
X71302380Y-113238095D01*
X71302380Y-113000000D01*
X71350000Y-112857142D01*
X71445238Y-112761904D01*
X71540476Y-112714285D01*
X71730952Y-112666666D01*
X71873809Y-112666666D01*
X72064285Y-112714285D01*
X72159523Y-112761904D01*
X72254761Y-112857142D01*
X72302380Y-113000000D01*
X72302380Y-113238095D01*
X71730952Y-112095238D02*
X71683333Y-112190476D01*
X71635714Y-112238095D01*
X71540476Y-112285714D01*
X71492857Y-112285714D01*
X71397619Y-112238095D01*
X71350000Y-112190476D01*
X71302380Y-112095238D01*
X71302380Y-111904761D01*
X71350000Y-111809523D01*
X71397619Y-111761904D01*
X71492857Y-111714285D01*
X71540476Y-111714285D01*
X71635714Y-111761904D01*
X71683333Y-111809523D01*
X71730952Y-111904761D01*
X71730952Y-112095238D01*
X71778571Y-112190476D01*
X71826190Y-112238095D01*
X71921428Y-112285714D01*
X72111904Y-112285714D01*
X72207142Y-112238095D01*
X72254761Y-112190476D01*
X72302380Y-112095238D01*
X72302380Y-111904761D01*
X72254761Y-111809523D01*
X72207142Y-111761904D01*
X72111904Y-111714285D01*
X71921428Y-111714285D01*
X71826190Y-111761904D01*
X71778571Y-111809523D01*
X71730952Y-111904761D01*
X93761904Y-115452380D02*
X93761904Y-114452380D01*
X94000000Y-114452380D01*
X94142857Y-114500000D01*
X94238095Y-114595238D01*
X94285714Y-114690476D01*
X94333333Y-114880952D01*
X94333333Y-115023809D01*
X94285714Y-115214285D01*
X94238095Y-115309523D01*
X94142857Y-115404761D01*
X94000000Y-115452380D01*
X93761904Y-115452380D01*
X94666666Y-114452380D02*
X95333333Y-114452380D01*
X94904761Y-115452380D01*
X89761904Y-115452380D02*
X89761904Y-114452380D01*
X90000000Y-114452380D01*
X90142857Y-114500000D01*
X90238095Y-114595238D01*
X90285714Y-114690476D01*
X90333333Y-114880952D01*
X90333333Y-115023809D01*
X90285714Y-115214285D01*
X90238095Y-115309523D01*
X90142857Y-115404761D01*
X90000000Y-115452380D01*
X89761904Y-115452380D01*
X91190476Y-114452380D02*
X91000000Y-114452380D01*
X90904761Y-114500000D01*
X90857142Y-114547619D01*
X90761904Y-114690476D01*
X90714285Y-114880952D01*
X90714285Y-115261904D01*
X90761904Y-115357142D01*
X90809523Y-115404761D01*
X90904761Y-115452380D01*
X91095238Y-115452380D01*
X91190476Y-115404761D01*
X91238095Y-115357142D01*
X91285714Y-115261904D01*
X91285714Y-115023809D01*
X91238095Y-114928571D01*
X91190476Y-114880952D01*
X91095238Y-114833333D01*
X90904761Y-114833333D01*
X90809523Y-114880952D01*
X90761904Y-114928571D01*
X90714285Y-115023809D01*
X85761904Y-115452380D02*
X85761904Y-114452380D01*
X86000000Y-114452380D01*
X86142857Y-114500000D01*
X86238095Y-114595238D01*
X86285714Y-114690476D01*
X86333333Y-114880952D01*
X86333333Y-115023809D01*
X86285714Y-115214285D01*
X86238095Y-115309523D01*
X86142857Y-115404761D01*
X86000000Y-115452380D01*
X85761904Y-115452380D01*
X87238095Y-114452380D02*
X86761904Y-114452380D01*
X86714285Y-114928571D01*
X86761904Y-114880952D01*
X86857142Y-114833333D01*
X87095238Y-114833333D01*
X87190476Y-114880952D01*
X87238095Y-114928571D01*
X87285714Y-115023809D01*
X87285714Y-115261904D01*
X87238095Y-115357142D01*
X87190476Y-115404761D01*
X87095238Y-115452380D01*
X86857142Y-115452380D01*
X86761904Y-115404761D01*
X86714285Y-115357142D01*
X81761904Y-115452380D02*
X81761904Y-114452380D01*
X82000000Y-114452380D01*
X82142857Y-114500000D01*
X82238095Y-114595238D01*
X82285714Y-114690476D01*
X82333333Y-114880952D01*
X82333333Y-115023809D01*
X82285714Y-115214285D01*
X82238095Y-115309523D01*
X82142857Y-115404761D01*
X82000000Y-115452380D01*
X81761904Y-115452380D01*
X83190476Y-114785714D02*
X83190476Y-115452380D01*
X82952380Y-114404761D02*
X82714285Y-115119047D01*
X83333333Y-115119047D01*
X77761904Y-115452380D02*
X77761904Y-114452380D01*
X78000000Y-114452380D01*
X78142857Y-114500000D01*
X78238095Y-114595238D01*
X78285714Y-114690476D01*
X78333333Y-114880952D01*
X78333333Y-115023809D01*
X78285714Y-115214285D01*
X78238095Y-115309523D01*
X78142857Y-115404761D01*
X78000000Y-115452380D01*
X77761904Y-115452380D01*
X78666666Y-114452380D02*
X79285714Y-114452380D01*
X78952380Y-114833333D01*
X79095238Y-114833333D01*
X79190476Y-114880952D01*
X79238095Y-114928571D01*
X79285714Y-115023809D01*
X79285714Y-115261904D01*
X79238095Y-115357142D01*
X79190476Y-115404761D01*
X79095238Y-115452380D01*
X78809523Y-115452380D01*
X78714285Y-115404761D01*
X78666666Y-115357142D01*
X72452380Y-108238095D02*
X71452380Y-108238095D01*
X71452380Y-108000000D01*
X71500000Y-107857142D01*
X71595238Y-107761904D01*
X71690476Y-107714285D01*
X71880952Y-107666666D01*
X72023809Y-107666666D01*
X72214285Y-107714285D01*
X72309523Y-107761904D01*
X72404761Y-107857142D01*
X72452380Y-108000000D01*
X72452380Y-108238095D01*
X71547619Y-107285714D02*
X71500000Y-107238095D01*
X71452380Y-107142857D01*
X71452380Y-106904761D01*
X71500000Y-106809523D01*
X71547619Y-106761904D01*
X71642857Y-106714285D01*
X71738095Y-106714285D01*
X71880952Y-106761904D01*
X72452380Y-107333333D01*
X72452380Y-106714285D01*
M02*
