G04 #@! TF.GenerationSoftware,KiCad,Pcbnew,(5.1.10)-1*
G04 #@! TF.CreationDate,2021-08-19T14:27:16+09:00*
G04 #@! TF.ProjectId,driver,64726976-6572-42e6-9b69-6361645f7063,rev?*
G04 #@! TF.SameCoordinates,Original*
G04 #@! TF.FileFunction,Legend,Top*
G04 #@! TF.FilePolarity,Positive*
%FSLAX46Y46*%
G04 Gerber Fmt 4.6, Leading zero omitted, Abs format (unit mm)*
G04 Created by KiCad (PCBNEW (5.1.10)-1) date 2021-08-19 14:27:16*
%MOMM*%
%LPD*%
G01*
G04 APERTURE LIST*
%ADD10C,0.150000*%
%ADD11C,0.100000*%
%ADD12C,0.120000*%
G04 APERTURE END LIST*
D10*
X30619047Y-33071428D02*
X31380952Y-33071428D01*
X31000000Y-33452380D02*
X31000000Y-32690476D01*
X30619047Y-25571428D02*
X31380952Y-25571428D01*
D11*
X99383333Y-12866666D02*
X99383333Y-12533333D01*
X99050000Y-12500000D01*
X99083333Y-12533333D01*
X99116666Y-12600000D01*
X99116666Y-12766666D01*
X99083333Y-12833333D01*
X99050000Y-12866666D01*
X98983333Y-12900000D01*
X98816666Y-12900000D01*
X98750000Y-12866666D01*
X98716666Y-12833333D01*
X98683333Y-12766666D01*
X98683333Y-12600000D01*
X98716666Y-12533333D01*
X98750000Y-12500000D01*
X99383333Y-13100000D02*
X98683333Y-13333333D01*
X99383333Y-13566666D01*
X98683333Y-10600000D02*
X98683333Y-10200000D01*
X98683333Y-10400000D02*
X99383333Y-10400000D01*
X99283333Y-10333333D01*
X99216666Y-10266666D01*
X99183333Y-10200000D01*
X99050000Y-10900000D02*
X99050000Y-11133333D01*
X98683333Y-11233333D02*
X98683333Y-10900000D01*
X99383333Y-10900000D01*
X99383333Y-11233333D01*
X98683333Y-11866666D02*
X98683333Y-11533333D01*
X99383333Y-11533333D01*
X98683333Y-8800000D02*
X98683333Y-8400000D01*
X98683333Y-8600000D02*
X99383333Y-8600000D01*
X99283333Y-8533333D01*
X99216666Y-8466666D01*
X99183333Y-8400000D01*
X98683333Y-9100000D02*
X99383333Y-9100000D01*
X98883333Y-9333333D01*
X99383333Y-9566666D01*
X98683333Y-9566666D01*
X98683333Y-6566666D02*
X98683333Y-6166666D01*
X98683333Y-6366666D02*
X99383333Y-6366666D01*
X99283333Y-6300000D01*
X99216666Y-6233333D01*
X99183333Y-6166666D01*
X99383333Y-6800000D02*
X99383333Y-7266666D01*
X98683333Y-6800000D01*
X98683333Y-7266666D01*
X99050000Y-7766666D02*
X99050000Y-7533333D01*
X98683333Y-7533333D02*
X99383333Y-7533333D01*
X99383333Y-7866666D01*
X98683333Y-4550000D02*
X98683333Y-4150000D01*
X98683333Y-4350000D02*
X99383333Y-4350000D01*
X99283333Y-4283333D01*
X99216666Y-4216666D01*
X99183333Y-4150000D01*
X99383333Y-4750000D02*
X98683333Y-4983333D01*
X99383333Y-5216666D01*
X98683333Y-5850000D02*
X99016666Y-5616666D01*
X98683333Y-5450000D02*
X99383333Y-5450000D01*
X99383333Y-5716666D01*
X99350000Y-5783333D01*
X99316666Y-5816666D01*
X99250000Y-5850000D01*
X99150000Y-5850000D01*
X99083333Y-5816666D01*
X99050000Y-5783333D01*
X99016666Y-5716666D01*
X99016666Y-5450000D01*
X99350000Y-3183333D02*
X99383333Y-3116666D01*
X99383333Y-3016666D01*
X99350000Y-2916666D01*
X99283333Y-2850000D01*
X99216666Y-2816666D01*
X99083333Y-2783333D01*
X98983333Y-2783333D01*
X98850000Y-2816666D01*
X98783333Y-2850000D01*
X98716666Y-2916666D01*
X98683333Y-3016666D01*
X98683333Y-3083333D01*
X98716666Y-3183333D01*
X98750000Y-3216666D01*
X98983333Y-3216666D01*
X98983333Y-3083333D01*
X650000Y-12816666D02*
X616666Y-12883333D01*
X616666Y-12983333D01*
X650000Y-13083333D01*
X716666Y-13150000D01*
X783333Y-13183333D01*
X916666Y-13216666D01*
X1016666Y-13216666D01*
X1150000Y-13183333D01*
X1216666Y-13150000D01*
X1283333Y-13083333D01*
X1316666Y-12983333D01*
X1316666Y-12916666D01*
X1283333Y-12816666D01*
X1250000Y-12783333D01*
X1016666Y-12783333D01*
X1016666Y-12916666D01*
X616666Y-3133333D02*
X616666Y-3466666D01*
X950000Y-3500000D01*
X916666Y-3466666D01*
X883333Y-3400000D01*
X883333Y-3233333D01*
X916666Y-3166666D01*
X950000Y-3133333D01*
X1016666Y-3100000D01*
X1183333Y-3100000D01*
X1250000Y-3133333D01*
X1283333Y-3166666D01*
X1316666Y-3233333D01*
X1316666Y-3400000D01*
X1283333Y-3466666D01*
X1250000Y-3500000D01*
X616666Y-2900000D02*
X1316666Y-2666666D01*
X616666Y-2433333D01*
X683333Y-11850000D02*
X650000Y-11816666D01*
X616666Y-11750000D01*
X616666Y-11583333D01*
X650000Y-11516666D01*
X683333Y-11483333D01*
X750000Y-11450000D01*
X816666Y-11450000D01*
X916666Y-11483333D01*
X1316666Y-11883333D01*
X1316666Y-11450000D01*
X616666Y-11250000D02*
X1316666Y-11016666D01*
X616666Y-10783333D01*
X1316666Y-10150000D02*
X983333Y-10383333D01*
X1316666Y-10550000D02*
X616666Y-10550000D01*
X616666Y-10283333D01*
X650000Y-10216666D01*
X683333Y-10183333D01*
X750000Y-10150000D01*
X850000Y-10150000D01*
X916666Y-10183333D01*
X950000Y-10216666D01*
X983333Y-10283333D01*
X983333Y-10550000D01*
X683333Y-9833333D02*
X650000Y-9800000D01*
X616666Y-9733333D01*
X616666Y-9566666D01*
X650000Y-9500000D01*
X683333Y-9466666D01*
X750000Y-9433333D01*
X816666Y-9433333D01*
X916666Y-9466666D01*
X1316666Y-9866666D01*
X1316666Y-9433333D01*
X616666Y-9200000D02*
X616666Y-8733333D01*
X1316666Y-9200000D01*
X1316666Y-8733333D01*
X950000Y-8233333D02*
X950000Y-8466666D01*
X1316666Y-8466666D02*
X616666Y-8466666D01*
X616666Y-8133333D01*
X683333Y-7600000D02*
X650000Y-7566666D01*
X616666Y-7500000D01*
X616666Y-7333333D01*
X650000Y-7266666D01*
X683333Y-7233333D01*
X750000Y-7200000D01*
X816666Y-7200000D01*
X916666Y-7233333D01*
X1316666Y-7633333D01*
X1316666Y-7200000D01*
X1316666Y-6900000D02*
X616666Y-6900000D01*
X1116666Y-6666666D01*
X616666Y-6433333D01*
X1316666Y-6433333D01*
X683333Y-5800000D02*
X650000Y-5766666D01*
X616666Y-5700000D01*
X616666Y-5533333D01*
X650000Y-5466666D01*
X683333Y-5433333D01*
X750000Y-5400000D01*
X816666Y-5400000D01*
X916666Y-5433333D01*
X1316666Y-5833333D01*
X1316666Y-5400000D01*
X950000Y-5100000D02*
X950000Y-4866666D01*
X1316666Y-4766666D02*
X1316666Y-5100000D01*
X616666Y-5100000D01*
X616666Y-4766666D01*
X1316666Y-4133333D02*
X1316666Y-4466666D01*
X616666Y-4466666D01*
D10*
X87833333Y-33452380D02*
X87833333Y-32452380D01*
X88071428Y-32452380D01*
X88214285Y-32500000D01*
X88309523Y-32595238D01*
X88357142Y-32690476D01*
X88404761Y-32880952D01*
X88404761Y-33023809D01*
X88357142Y-33214285D01*
X88309523Y-33309523D01*
X88214285Y-33404761D01*
X88071428Y-33452380D01*
X87833333Y-33452380D01*
X88833333Y-33452380D02*
X88833333Y-32785714D01*
X88833333Y-32976190D02*
X88880952Y-32880952D01*
X88928571Y-32833333D01*
X89023809Y-32785714D01*
X89119047Y-32785714D01*
X89452380Y-33452380D02*
X89452380Y-32785714D01*
X89452380Y-32452380D02*
X89404761Y-32500000D01*
X89452380Y-32547619D01*
X89500000Y-32500000D01*
X89452380Y-32452380D01*
X89452380Y-32547619D01*
X89833333Y-32785714D02*
X90071428Y-33452380D01*
X90309523Y-32785714D01*
X91071428Y-33404761D02*
X90976190Y-33452380D01*
X90785714Y-33452380D01*
X90690476Y-33404761D01*
X90642857Y-33309523D01*
X90642857Y-32928571D01*
X90690476Y-32833333D01*
X90785714Y-32785714D01*
X90976190Y-32785714D01*
X91071428Y-32833333D01*
X91119047Y-32928571D01*
X91119047Y-33023809D01*
X90642857Y-33119047D01*
X91547619Y-33452380D02*
X91547619Y-32785714D01*
X91547619Y-32976190D02*
X91595238Y-32880952D01*
X91642857Y-32833333D01*
X91738095Y-32785714D01*
X91833333Y-32785714D01*
X92833333Y-32785714D02*
X93071428Y-33452380D01*
X93309523Y-32785714D01*
X93642857Y-32547619D02*
X93690476Y-32500000D01*
X93785714Y-32452380D01*
X94023809Y-32452380D01*
X94119047Y-32500000D01*
X94166666Y-32547619D01*
X94214285Y-32642857D01*
X94214285Y-32738095D01*
X94166666Y-32880952D01*
X93595238Y-33452380D01*
X94214285Y-33452380D01*
X79047619Y-31190476D02*
X79000000Y-31142857D01*
X78952380Y-31047619D01*
X78952380Y-30809523D01*
X79000000Y-30714285D01*
X79047619Y-30666666D01*
X79142857Y-30619047D01*
X79238095Y-30619047D01*
X79380952Y-30666666D01*
X79952380Y-31238095D01*
X79952380Y-30619047D01*
X79285714Y-29761904D02*
X79952380Y-29761904D01*
X78904761Y-30000000D02*
X79619047Y-30238095D01*
X79619047Y-29619047D01*
X78952380Y-29380952D02*
X79952380Y-29047619D01*
X78952380Y-28714285D01*
X76500000Y-30238095D02*
X76452380Y-30333333D01*
X76452380Y-30476190D01*
X76500000Y-30619047D01*
X76595238Y-30714285D01*
X76690476Y-30761904D01*
X76880952Y-30809523D01*
X77023809Y-30809523D01*
X77214285Y-30761904D01*
X77309523Y-30714285D01*
X77404761Y-30619047D01*
X77452380Y-30476190D01*
X77452380Y-30380952D01*
X77404761Y-30238095D01*
X77357142Y-30190476D01*
X77023809Y-30190476D01*
X77023809Y-30380952D01*
X18452380Y-30690476D02*
X18452380Y-31166666D01*
X18928571Y-31214285D01*
X18880952Y-31166666D01*
X18833333Y-31071428D01*
X18833333Y-30833333D01*
X18880952Y-30738095D01*
X18928571Y-30690476D01*
X19023809Y-30642857D01*
X19261904Y-30642857D01*
X19357142Y-30690476D01*
X19404761Y-30738095D01*
X19452380Y-30833333D01*
X19452380Y-31071428D01*
X19404761Y-31166666D01*
X19357142Y-31214285D01*
X18452380Y-30357142D02*
X19452380Y-30023809D01*
X18452380Y-29690476D01*
X16000000Y-30238095D02*
X15952380Y-30333333D01*
X15952380Y-30476190D01*
X16000000Y-30619047D01*
X16095238Y-30714285D01*
X16190476Y-30761904D01*
X16380952Y-30809523D01*
X16523809Y-30809523D01*
X16714285Y-30761904D01*
X16809523Y-30714285D01*
X16904761Y-30619047D01*
X16952380Y-30476190D01*
X16952380Y-30380952D01*
X16904761Y-30238095D01*
X16857142Y-30190476D01*
X16523809Y-30190476D01*
X16523809Y-30380952D01*
D12*
X79565000Y-3690000D02*
X79565000Y-7600000D01*
X81435000Y-3690000D02*
X79565000Y-3690000D01*
X81435000Y-7600000D02*
X81435000Y-3690000D01*
X66565000Y-4250000D02*
X66565000Y-8160000D01*
X66565000Y-8160000D02*
X68435000Y-8160000D01*
X68435000Y-8160000D02*
X68435000Y-4250000D01*
X6853733Y-21990000D02*
X7146267Y-21990000D01*
X6853733Y-23010000D02*
X7146267Y-23010000D01*
X29545000Y-26710000D02*
X26455000Y-26710000D01*
X30500000Y-29270000D02*
G75*
G03*
X30500000Y-29270000I-2500000J0D01*
G01*
X28000462Y-32260000D02*
G75*
G02*
X26455170Y-26710000I-462J2990000D01*
G01*
X27999538Y-32260000D02*
G75*
G03*
X29544830Y-26710000I462J2990000D01*
G01*
X37000000Y-29270000D02*
G75*
G03*
X37000000Y-29270000I-2500000J0D01*
G01*
X36045000Y-26710000D02*
X32955000Y-26710000D01*
X34499538Y-32260000D02*
G75*
G03*
X36044830Y-26710000I462J2990000D01*
G01*
X34500462Y-32260000D02*
G75*
G02*
X32955170Y-26710000I-462J2990000D01*
G01*
X71000000Y-14960000D02*
X73860000Y-14960000D01*
X73860000Y-14960000D02*
X73860000Y-13040000D01*
X73860000Y-13040000D02*
X71000000Y-13040000D01*
X78160000Y-25910000D02*
X78030000Y-25910000D01*
X78030000Y-25910000D02*
X78030000Y-20470000D01*
X78030000Y-20470000D02*
X78160000Y-20470000D01*
X80840000Y-25910000D02*
X80970000Y-25910000D01*
X80970000Y-25910000D02*
X80970000Y-20470000D01*
X80970000Y-20470000D02*
X80840000Y-20470000D01*
X78030000Y-25010000D02*
X80970000Y-25010000D01*
X78030000Y-24890000D02*
X80970000Y-24890000D01*
X78030000Y-25130000D02*
X80970000Y-25130000D01*
X73530000Y-25130000D02*
X76470000Y-25130000D01*
X73530000Y-24890000D02*
X76470000Y-24890000D01*
X73530000Y-25010000D02*
X76470000Y-25010000D01*
X76470000Y-20470000D02*
X76340000Y-20470000D01*
X76470000Y-25910000D02*
X76470000Y-20470000D01*
X76340000Y-25910000D02*
X76470000Y-25910000D01*
X73530000Y-20470000D02*
X73660000Y-20470000D01*
X73530000Y-25910000D02*
X73530000Y-20470000D01*
X73660000Y-25910000D02*
X73530000Y-25910000D01*
X20330000Y-31670000D02*
X20330000Y-33000000D01*
X19000000Y-31670000D02*
X20330000Y-31670000D01*
X17730000Y-31670000D02*
X17730000Y-34330000D01*
X17730000Y-34330000D02*
X15130000Y-34330000D01*
X17730000Y-31670000D02*
X15130000Y-31670000D01*
X15130000Y-31670000D02*
X15130000Y-34330000D01*
X75630000Y-31670000D02*
X75630000Y-34330000D01*
X78230000Y-31670000D02*
X75630000Y-31670000D01*
X78230000Y-34330000D02*
X75630000Y-34330000D01*
X78230000Y-31670000D02*
X78230000Y-34330000D01*
X79500000Y-31670000D02*
X80830000Y-31670000D01*
X80830000Y-31670000D02*
X80830000Y-33000000D01*
X42330000Y-23050000D02*
X39670000Y-23050000D01*
X42330000Y-30730000D02*
X42330000Y-23050000D01*
X39670000Y-30730000D02*
X39670000Y-23050000D01*
X42330000Y-30730000D02*
X39670000Y-30730000D01*
X42330000Y-32000000D02*
X42330000Y-33330000D01*
X42330000Y-33330000D02*
X41000000Y-33330000D01*
X1390000Y-15360000D02*
X2640000Y-15360000D01*
X1390000Y-14110000D02*
X1390000Y-15360000D01*
X5800000Y-4000000D02*
X5300000Y-4000000D01*
X5300000Y-3900000D02*
X5800000Y-3900000D01*
X5300000Y-4100000D02*
X5300000Y-3900000D01*
X5800000Y-4100000D02*
X5300000Y-4100000D01*
X5800000Y-6000000D02*
X5300000Y-6000000D01*
X5300000Y-5900000D02*
X5800000Y-5900000D01*
X5300000Y-6100000D02*
X5300000Y-5900000D01*
X5800000Y-6100000D02*
X5300000Y-6100000D01*
X5800000Y-8000000D02*
X5300000Y-8000000D01*
X5300000Y-7900000D02*
X5800000Y-7900000D01*
X5300000Y-8100000D02*
X5300000Y-7900000D01*
X5800000Y-8100000D02*
X5300000Y-8100000D01*
X5800000Y-10000000D02*
X5300000Y-10000000D01*
X5300000Y-9900000D02*
X5800000Y-9900000D01*
X5300000Y-10100000D02*
X5300000Y-9900000D01*
X5800000Y-10100000D02*
X5300000Y-10100000D01*
X5800000Y-12000000D02*
X5300000Y-12000000D01*
X5300000Y-11900000D02*
X5800000Y-11900000D01*
X5300000Y-12100000D02*
X5300000Y-11900000D01*
X5800000Y-12100000D02*
X5300000Y-12100000D01*
X4300000Y-940000D02*
X4300000Y-1550000D01*
X3000000Y-940000D02*
X3000000Y-1550000D01*
X4300000Y-15060000D02*
X4300000Y-14450000D01*
X3000000Y-15060000D02*
X3000000Y-14450000D01*
X2300000Y-3500000D02*
X1690000Y-3500000D01*
X2300000Y-1550000D02*
X2300000Y-3500000D01*
X5800000Y-1550000D02*
X2300000Y-1550000D01*
X5800000Y-14450000D02*
X5800000Y-1550000D01*
X2300000Y-14450000D02*
X5800000Y-14450000D01*
X2300000Y-12500000D02*
X2300000Y-14450000D01*
X1690000Y-12500000D02*
X2300000Y-12500000D01*
X1590000Y-13300000D02*
X1590000Y-13600000D01*
X1490000Y-13600000D02*
X1690000Y-13600000D01*
X1490000Y-13300000D02*
X1490000Y-13600000D01*
X1690000Y-13300000D02*
X1490000Y-13300000D01*
X1690000Y-940000D02*
X1690000Y-15060000D01*
X6410000Y-940000D02*
X1690000Y-940000D01*
X6410000Y-15060000D02*
X6410000Y-940000D01*
X1690000Y-15060000D02*
X6410000Y-15060000D01*
X98310000Y-940000D02*
X93590000Y-940000D01*
X93590000Y-940000D02*
X93590000Y-15060000D01*
X93590000Y-15060000D02*
X98310000Y-15060000D01*
X98310000Y-15060000D02*
X98310000Y-940000D01*
X98310000Y-2700000D02*
X98510000Y-2700000D01*
X98510000Y-2700000D02*
X98510000Y-2400000D01*
X98510000Y-2400000D02*
X98310000Y-2400000D01*
X98410000Y-2700000D02*
X98410000Y-2400000D01*
X98310000Y-3500000D02*
X97700000Y-3500000D01*
X97700000Y-3500000D02*
X97700000Y-1550000D01*
X97700000Y-1550000D02*
X94200000Y-1550000D01*
X94200000Y-1550000D02*
X94200000Y-14450000D01*
X94200000Y-14450000D02*
X97700000Y-14450000D01*
X97700000Y-14450000D02*
X97700000Y-12500000D01*
X97700000Y-12500000D02*
X98310000Y-12500000D01*
X97000000Y-940000D02*
X97000000Y-1550000D01*
X95700000Y-940000D02*
X95700000Y-1550000D01*
X97000000Y-15060000D02*
X97000000Y-14450000D01*
X95700000Y-15060000D02*
X95700000Y-14450000D01*
X94200000Y-3900000D02*
X94700000Y-3900000D01*
X94700000Y-3900000D02*
X94700000Y-4100000D01*
X94700000Y-4100000D02*
X94200000Y-4100000D01*
X94200000Y-4000000D02*
X94700000Y-4000000D01*
X94200000Y-5900000D02*
X94700000Y-5900000D01*
X94700000Y-5900000D02*
X94700000Y-6100000D01*
X94700000Y-6100000D02*
X94200000Y-6100000D01*
X94200000Y-6000000D02*
X94700000Y-6000000D01*
X94200000Y-7900000D02*
X94700000Y-7900000D01*
X94700000Y-7900000D02*
X94700000Y-8100000D01*
X94700000Y-8100000D02*
X94200000Y-8100000D01*
X94200000Y-8000000D02*
X94700000Y-8000000D01*
X94200000Y-9900000D02*
X94700000Y-9900000D01*
X94700000Y-9900000D02*
X94700000Y-10100000D01*
X94700000Y-10100000D02*
X94200000Y-10100000D01*
X94200000Y-10000000D02*
X94700000Y-10000000D01*
X94200000Y-11900000D02*
X94700000Y-11900000D01*
X94700000Y-11900000D02*
X94700000Y-12100000D01*
X94700000Y-12100000D02*
X94200000Y-12100000D01*
X94200000Y-12000000D02*
X94700000Y-12000000D01*
X98610000Y-1890000D02*
X98610000Y-640000D01*
X98610000Y-640000D02*
X97360000Y-640000D01*
X88670000Y-31490000D02*
X93870000Y-31490000D01*
X88670000Y-21270000D02*
X88670000Y-31490000D01*
X93870000Y-18670000D02*
X93870000Y-31490000D01*
X88670000Y-21270000D02*
X91270000Y-21270000D01*
X91270000Y-21270000D02*
X91270000Y-18670000D01*
X91270000Y-18670000D02*
X93870000Y-18670000D01*
X88670000Y-20000000D02*
X88670000Y-18670000D01*
X88670000Y-18670000D02*
X90000000Y-18670000D01*
X12920000Y-24230000D02*
X23160000Y-24230000D01*
X12920000Y-28871000D02*
X23160000Y-28871000D01*
X12920000Y-24230000D02*
X12920000Y-28871000D01*
X23160000Y-24230000D02*
X23160000Y-28871000D01*
X12920000Y-25740000D02*
X23160000Y-25740000D01*
X16190000Y-24230000D02*
X16190000Y-25740000D01*
X19891000Y-24230000D02*
X19891000Y-25740000D01*
X45580000Y-8240000D02*
X44650000Y-8240000D01*
X42420000Y-8240000D02*
X43350000Y-8240000D01*
X42420000Y-8240000D02*
X42420000Y-10400000D01*
X45580000Y-8240000D02*
X45580000Y-9700000D01*
X49240000Y-5420000D02*
X50700000Y-5420000D01*
X49240000Y-8580000D02*
X51400000Y-8580000D01*
X49240000Y-8580000D02*
X49240000Y-7650000D01*
X49240000Y-5420000D02*
X49240000Y-6350000D01*
X37420000Y-4760000D02*
X37420000Y-3300000D01*
X40580000Y-4760000D02*
X40580000Y-2600000D01*
X40580000Y-4760000D02*
X39650000Y-4760000D01*
X37420000Y-4760000D02*
X38350000Y-4760000D01*
X40580000Y-8240000D02*
X40580000Y-9700000D01*
X37420000Y-8240000D02*
X37420000Y-10400000D01*
X37420000Y-8240000D02*
X38350000Y-8240000D01*
X40580000Y-8240000D02*
X39650000Y-8240000D01*
X53740000Y-5420000D02*
X53740000Y-6350000D01*
X53740000Y-8580000D02*
X53740000Y-7650000D01*
X53740000Y-8580000D02*
X55900000Y-8580000D01*
X53740000Y-5420000D02*
X55200000Y-5420000D01*
X26420000Y-9760000D02*
X27350000Y-9760000D01*
X29580000Y-9760000D02*
X28650000Y-9760000D01*
X29580000Y-9760000D02*
X29580000Y-7600000D01*
X26420000Y-9760000D02*
X26420000Y-8300000D01*
X22760000Y-8580000D02*
X22760000Y-7650000D01*
X22760000Y-5420000D02*
X22760000Y-6350000D01*
X22760000Y-5420000D02*
X20600000Y-5420000D01*
X22760000Y-8580000D02*
X21300000Y-8580000D01*
X34580000Y-3240000D02*
X34580000Y-4700000D01*
X31420000Y-3240000D02*
X31420000Y-5400000D01*
X31420000Y-3240000D02*
X32350000Y-3240000D01*
X34580000Y-3240000D02*
X33650000Y-3240000D01*
X34580000Y-8240000D02*
X33650000Y-8240000D01*
X31420000Y-8240000D02*
X32350000Y-8240000D01*
X31420000Y-8240000D02*
X31420000Y-10400000D01*
X34580000Y-8240000D02*
X34580000Y-9700000D01*
X18260000Y-8580000D02*
X16800000Y-8580000D01*
X18260000Y-5420000D02*
X16100000Y-5420000D01*
X18260000Y-5420000D02*
X18260000Y-6350000D01*
X18260000Y-8580000D02*
X18260000Y-7650000D01*
X15745276Y-22522500D02*
X16254724Y-22522500D01*
X15745276Y-21477500D02*
X16254724Y-21477500D01*
X76245276Y-14522500D02*
X76754724Y-14522500D01*
X76245276Y-13477500D02*
X76754724Y-13477500D01*
X20254724Y-22522500D02*
X19745276Y-22522500D01*
X20254724Y-21477500D02*
X19745276Y-21477500D01*
X83522500Y-22745276D02*
X83522500Y-23254724D01*
X82477500Y-22745276D02*
X82477500Y-23254724D01*
X2745276Y-21977500D02*
X3254724Y-21977500D01*
X2745276Y-23022500D02*
X3254724Y-23022500D01*
X82477500Y-18745276D02*
X82477500Y-19254724D01*
X83522500Y-18745276D02*
X83522500Y-19254724D01*
X43022500Y-3745276D02*
X43022500Y-4254724D01*
X41977500Y-3745276D02*
X41977500Y-4254724D01*
X44254724Y-11477500D02*
X43745276Y-11477500D01*
X44254724Y-12522500D02*
X43745276Y-12522500D01*
X54245276Y-9977500D02*
X54754724Y-9977500D01*
X54245276Y-11022500D02*
X54754724Y-11022500D01*
X91245276Y-7522500D02*
X91754724Y-7522500D01*
X91245276Y-6477500D02*
X91754724Y-6477500D01*
X38745276Y-11477500D02*
X39254724Y-11477500D01*
X38745276Y-12522500D02*
X39254724Y-12522500D01*
X91245276Y-9522500D02*
X91754724Y-9522500D01*
X91245276Y-8477500D02*
X91754724Y-8477500D01*
X91245276Y-4477500D02*
X91754724Y-4477500D01*
X91245276Y-5522500D02*
X91754724Y-5522500D01*
X50254724Y-9977500D02*
X49745276Y-9977500D01*
X50254724Y-11022500D02*
X49745276Y-11022500D01*
X30022500Y-4254724D02*
X30022500Y-3745276D01*
X28977500Y-4254724D02*
X28977500Y-3745276D01*
X27745276Y-11477500D02*
X28254724Y-11477500D01*
X27745276Y-12522500D02*
X28254724Y-12522500D01*
X17754724Y-9477500D02*
X17245276Y-9477500D01*
X17754724Y-10522500D02*
X17245276Y-10522500D01*
X71167224Y-31022500D02*
X70657776Y-31022500D01*
X71167224Y-29977500D02*
X70657776Y-29977500D01*
X64254724Y-11477500D02*
X63745276Y-11477500D01*
X64254724Y-12522500D02*
X63745276Y-12522500D01*
X8754724Y-9522500D02*
X8245276Y-9522500D01*
X8754724Y-8477500D02*
X8245276Y-8477500D01*
X32745276Y-12522500D02*
X33254724Y-12522500D01*
X32745276Y-11477500D02*
X33254724Y-11477500D01*
X8754724Y-7522500D02*
X8245276Y-7522500D01*
X8754724Y-6477500D02*
X8245276Y-6477500D01*
X8754724Y-10477500D02*
X8245276Y-10477500D01*
X8754724Y-11522500D02*
X8245276Y-11522500D01*
X22254724Y-10522500D02*
X21745276Y-10522500D01*
X22254724Y-9477500D02*
X21745276Y-9477500D01*
X91245276Y-10477500D02*
X91754724Y-10477500D01*
X91245276Y-11522500D02*
X91754724Y-11522500D01*
X8754724Y-4477500D02*
X8245276Y-4477500D01*
X8754724Y-5522500D02*
X8245276Y-5522500D01*
X1500000Y-27000000D02*
X1500000Y-31500000D01*
X5500000Y-25750000D02*
X4000000Y-25750000D01*
X8000000Y-31500000D02*
X8000000Y-27000000D01*
X4000000Y-32750000D02*
X5500000Y-32750000D01*
X72090000Y-3590000D02*
X72090000Y-4850000D01*
X72090000Y-10410000D02*
X72090000Y-9150000D01*
X75850000Y-3590000D02*
X72090000Y-3590000D01*
X78100000Y-10410000D02*
X72090000Y-10410000D01*
X64620000Y-15900000D02*
X64620000Y-15120000D01*
X64620000Y-15120000D02*
X63620000Y-15120000D01*
X46380000Y-15900000D02*
X46380000Y-15120000D01*
X46380000Y-15120000D02*
X47380000Y-15120000D01*
X64620000Y-40865000D02*
X46380000Y-40865000D01*
X46380000Y-40865000D02*
X46380000Y-34445000D01*
X64620000Y-40865000D02*
X64620000Y-34445000D01*
X64620000Y-34445000D02*
X65000000Y-34445000D01*
D10*
X82607142Y-6166666D02*
X82654761Y-6214285D01*
X82702380Y-6357142D01*
X82702380Y-6452380D01*
X82654761Y-6595238D01*
X82559523Y-6690476D01*
X82464285Y-6738095D01*
X82273809Y-6785714D01*
X82130952Y-6785714D01*
X81940476Y-6738095D01*
X81845238Y-6690476D01*
X81750000Y-6595238D01*
X81702380Y-6452380D01*
X81702380Y-6357142D01*
X81750000Y-6214285D01*
X81797619Y-6166666D01*
X82702380Y-5214285D02*
X82702380Y-5785714D01*
X82702380Y-5500000D02*
X81702380Y-5500000D01*
X81845238Y-5595238D01*
X81940476Y-5690476D01*
X81988095Y-5785714D01*
X66107142Y-6016666D02*
X66154761Y-6064285D01*
X66202380Y-6207142D01*
X66202380Y-6302380D01*
X66154761Y-6445238D01*
X66059523Y-6540476D01*
X65964285Y-6588095D01*
X65773809Y-6635714D01*
X65630952Y-6635714D01*
X65440476Y-6588095D01*
X65345238Y-6540476D01*
X65250000Y-6445238D01*
X65202380Y-6302380D01*
X65202380Y-6207142D01*
X65250000Y-6064285D01*
X65297619Y-6016666D01*
X65297619Y-5635714D02*
X65250000Y-5588095D01*
X65202380Y-5492857D01*
X65202380Y-5254761D01*
X65250000Y-5159523D01*
X65297619Y-5111904D01*
X65392857Y-5064285D01*
X65488095Y-5064285D01*
X65630952Y-5111904D01*
X66202380Y-5683333D01*
X66202380Y-5064285D01*
X6833333Y-21427142D02*
X6785714Y-21474761D01*
X6642857Y-21522380D01*
X6547619Y-21522380D01*
X6404761Y-21474761D01*
X6309523Y-21379523D01*
X6261904Y-21284285D01*
X6214285Y-21093809D01*
X6214285Y-20950952D01*
X6261904Y-20760476D01*
X6309523Y-20665238D01*
X6404761Y-20570000D01*
X6547619Y-20522380D01*
X6642857Y-20522380D01*
X6785714Y-20570000D01*
X6833333Y-20617619D01*
X7166666Y-20522380D02*
X7785714Y-20522380D01*
X7452380Y-20903333D01*
X7595238Y-20903333D01*
X7690476Y-20950952D01*
X7738095Y-20998571D01*
X7785714Y-21093809D01*
X7785714Y-21331904D01*
X7738095Y-21427142D01*
X7690476Y-21474761D01*
X7595238Y-21522380D01*
X7309523Y-21522380D01*
X7214285Y-21474761D01*
X7166666Y-21427142D01*
X27261904Y-25952380D02*
X27261904Y-24952380D01*
X27500000Y-24952380D01*
X27642857Y-25000000D01*
X27738095Y-25095238D01*
X27785714Y-25190476D01*
X27833333Y-25380952D01*
X27833333Y-25523809D01*
X27785714Y-25714285D01*
X27738095Y-25809523D01*
X27642857Y-25904761D01*
X27500000Y-25952380D01*
X27261904Y-25952380D01*
X28785714Y-25952380D02*
X28214285Y-25952380D01*
X28500000Y-25952380D02*
X28500000Y-24952380D01*
X28404761Y-25095238D01*
X28309523Y-25190476D01*
X28214285Y-25238095D01*
X33761904Y-25952380D02*
X33761904Y-24952380D01*
X34000000Y-24952380D01*
X34142857Y-25000000D01*
X34238095Y-25095238D01*
X34285714Y-25190476D01*
X34333333Y-25380952D01*
X34333333Y-25523809D01*
X34285714Y-25714285D01*
X34238095Y-25809523D01*
X34142857Y-25904761D01*
X34000000Y-25952380D01*
X33761904Y-25952380D01*
X34714285Y-25047619D02*
X34761904Y-25000000D01*
X34857142Y-24952380D01*
X35095238Y-24952380D01*
X35190476Y-25000000D01*
X35238095Y-25047619D01*
X35285714Y-25142857D01*
X35285714Y-25238095D01*
X35238095Y-25380952D01*
X34666666Y-25952380D01*
X35285714Y-25952380D01*
X71261904Y-16102380D02*
X71261904Y-15102380D01*
X71500000Y-15102380D01*
X71642857Y-15150000D01*
X71738095Y-15245238D01*
X71785714Y-15340476D01*
X71833333Y-15530952D01*
X71833333Y-15673809D01*
X71785714Y-15864285D01*
X71738095Y-15959523D01*
X71642857Y-16054761D01*
X71500000Y-16102380D01*
X71261904Y-16102380D01*
X72166666Y-15102380D02*
X72785714Y-15102380D01*
X72452380Y-15483333D01*
X72595238Y-15483333D01*
X72690476Y-15530952D01*
X72738095Y-15578571D01*
X72785714Y-15673809D01*
X72785714Y-15911904D01*
X72738095Y-16007142D01*
X72690476Y-16054761D01*
X72595238Y-16102380D01*
X72309523Y-16102380D01*
X72214285Y-16054761D01*
X72166666Y-16007142D01*
X77482380Y-23928095D02*
X76482380Y-23928095D01*
X76482380Y-23690000D01*
X76530000Y-23547142D01*
X76625238Y-23451904D01*
X76720476Y-23404285D01*
X76910952Y-23356666D01*
X77053809Y-23356666D01*
X77244285Y-23404285D01*
X77339523Y-23451904D01*
X77434761Y-23547142D01*
X77482380Y-23690000D01*
X77482380Y-23928095D01*
X76815714Y-22499523D02*
X77482380Y-22499523D01*
X76434761Y-22737619D02*
X77149047Y-22975714D01*
X77149047Y-22356666D01*
X77852380Y-27261904D02*
X76852380Y-27261904D01*
X77852380Y-26690476D02*
X77280952Y-27119047D01*
X76852380Y-26690476D02*
X77423809Y-27261904D01*
X72982380Y-23928095D02*
X71982380Y-23928095D01*
X71982380Y-23690000D01*
X72030000Y-23547142D01*
X72125238Y-23451904D01*
X72220476Y-23404285D01*
X72410952Y-23356666D01*
X72553809Y-23356666D01*
X72744285Y-23404285D01*
X72839523Y-23451904D01*
X72934761Y-23547142D01*
X72982380Y-23690000D01*
X72982380Y-23928095D01*
X71982380Y-22451904D02*
X71982380Y-22928095D01*
X72458571Y-22975714D01*
X72410952Y-22928095D01*
X72363333Y-22832857D01*
X72363333Y-22594761D01*
X72410952Y-22499523D01*
X72458571Y-22451904D01*
X72553809Y-22404285D01*
X72791904Y-22404285D01*
X72887142Y-22451904D01*
X72934761Y-22499523D01*
X72982380Y-22594761D01*
X72982380Y-22832857D01*
X72934761Y-22928095D01*
X72887142Y-22975714D01*
X73352380Y-27261904D02*
X72352380Y-27261904D01*
X73352380Y-26690476D02*
X72780952Y-27119047D01*
X72352380Y-26690476D02*
X72923809Y-27261904D01*
X20782380Y-33333333D02*
X21496666Y-33333333D01*
X21639523Y-33380952D01*
X21734761Y-33476190D01*
X21782380Y-33619047D01*
X21782380Y-33714285D01*
X21782380Y-32333333D02*
X21782380Y-32904761D01*
X21782380Y-32619047D02*
X20782380Y-32619047D01*
X20925238Y-32714285D01*
X21020476Y-32809523D01*
X21068095Y-32904761D01*
X81282380Y-33333333D02*
X81996666Y-33333333D01*
X82139523Y-33380952D01*
X82234761Y-33476190D01*
X82282380Y-33619047D01*
X82282380Y-33714285D01*
X81377619Y-32904761D02*
X81330000Y-32857142D01*
X81282380Y-32761904D01*
X81282380Y-32523809D01*
X81330000Y-32428571D01*
X81377619Y-32380952D01*
X81472857Y-32333333D01*
X81568095Y-32333333D01*
X81710952Y-32380952D01*
X82282380Y-32952380D01*
X82282380Y-32333333D01*
X40666666Y-21452380D02*
X40666666Y-22166666D01*
X40619047Y-22309523D01*
X40523809Y-22404761D01*
X40380952Y-22452380D01*
X40285714Y-22452380D01*
X41047619Y-21452380D02*
X41666666Y-21452380D01*
X41333333Y-21833333D01*
X41476190Y-21833333D01*
X41571428Y-21880952D01*
X41619047Y-21928571D01*
X41666666Y-22023809D01*
X41666666Y-22261904D01*
X41619047Y-22357142D01*
X41571428Y-22404761D01*
X41476190Y-22452380D01*
X41190476Y-22452380D01*
X41095238Y-22404761D01*
X41047619Y-22357142D01*
X3166666Y-15952380D02*
X3166666Y-16666666D01*
X3119047Y-16809523D01*
X3023809Y-16904761D01*
X2880952Y-16952380D01*
X2785714Y-16952380D01*
X4071428Y-16285714D02*
X4071428Y-16952380D01*
X3833333Y-15904761D02*
X3595238Y-16619047D01*
X4214285Y-16619047D01*
X96166666Y-15952380D02*
X96166666Y-16666666D01*
X96119047Y-16809523D01*
X96023809Y-16904761D01*
X95880952Y-16952380D01*
X95785714Y-16952380D01*
X97119047Y-15952380D02*
X96642857Y-15952380D01*
X96595238Y-16428571D01*
X96642857Y-16380952D01*
X96738095Y-16333333D01*
X96976190Y-16333333D01*
X97071428Y-16380952D01*
X97119047Y-16428571D01*
X97166666Y-16523809D01*
X97166666Y-16761904D01*
X97119047Y-16857142D01*
X97071428Y-16904761D01*
X96976190Y-16952380D01*
X96738095Y-16952380D01*
X96642857Y-16904761D01*
X96595238Y-16857142D01*
X90936666Y-17122380D02*
X90936666Y-17836666D01*
X90889047Y-17979523D01*
X90793809Y-18074761D01*
X90650952Y-18122380D01*
X90555714Y-18122380D01*
X91841428Y-17122380D02*
X91650952Y-17122380D01*
X91555714Y-17170000D01*
X91508095Y-17217619D01*
X91412857Y-17360476D01*
X91365238Y-17550952D01*
X91365238Y-17931904D01*
X91412857Y-18027142D01*
X91460476Y-18074761D01*
X91555714Y-18122380D01*
X91746190Y-18122380D01*
X91841428Y-18074761D01*
X91889047Y-18027142D01*
X91936666Y-17931904D01*
X91936666Y-17693809D01*
X91889047Y-17598571D01*
X91841428Y-17550952D01*
X91746190Y-17503333D01*
X91555714Y-17503333D01*
X91460476Y-17550952D01*
X91412857Y-17598571D01*
X91365238Y-17693809D01*
X12547619Y-27095238D02*
X12500000Y-27190476D01*
X12404761Y-27285714D01*
X12261904Y-27428571D01*
X12214285Y-27523809D01*
X12214285Y-27619047D01*
X12452380Y-27571428D02*
X12404761Y-27666666D01*
X12309523Y-27761904D01*
X12119047Y-27809523D01*
X11785714Y-27809523D01*
X11595238Y-27761904D01*
X11500000Y-27666666D01*
X11452380Y-27571428D01*
X11452380Y-27380952D01*
X11500000Y-27285714D01*
X11595238Y-27190476D01*
X11785714Y-27142857D01*
X12119047Y-27142857D01*
X12309523Y-27190476D01*
X12404761Y-27285714D01*
X12452380Y-27380952D01*
X12452380Y-27571428D01*
X12452380Y-26190476D02*
X12452380Y-26761904D01*
X12452380Y-26476190D02*
X11452380Y-26476190D01*
X11595238Y-26571428D01*
X11690476Y-26666666D01*
X11738095Y-26761904D01*
X43904761Y-7047619D02*
X43809523Y-7000000D01*
X43714285Y-6904761D01*
X43571428Y-6761904D01*
X43476190Y-6714285D01*
X43380952Y-6714285D01*
X43428571Y-6952380D02*
X43333333Y-6904761D01*
X43238095Y-6809523D01*
X43190476Y-6619047D01*
X43190476Y-6285714D01*
X43238095Y-6095238D01*
X43333333Y-6000000D01*
X43428571Y-5952380D01*
X43619047Y-5952380D01*
X43714285Y-6000000D01*
X43809523Y-6095238D01*
X43857142Y-6285714D01*
X43857142Y-6619047D01*
X43809523Y-6809523D01*
X43714285Y-6904761D01*
X43619047Y-6952380D01*
X43428571Y-6952380D01*
X44238095Y-6047619D02*
X44285714Y-6000000D01*
X44380952Y-5952380D01*
X44619047Y-5952380D01*
X44714285Y-6000000D01*
X44761904Y-6047619D01*
X44809523Y-6142857D01*
X44809523Y-6238095D01*
X44761904Y-6380952D01*
X44190476Y-6952380D01*
X44809523Y-6952380D01*
X49904761Y-5047619D02*
X49809523Y-5000000D01*
X49714285Y-4904761D01*
X49571428Y-4761904D01*
X49476190Y-4714285D01*
X49380952Y-4714285D01*
X49428571Y-4952380D02*
X49333333Y-4904761D01*
X49238095Y-4809523D01*
X49190476Y-4619047D01*
X49190476Y-4285714D01*
X49238095Y-4095238D01*
X49333333Y-4000000D01*
X49428571Y-3952380D01*
X49619047Y-3952380D01*
X49714285Y-4000000D01*
X49809523Y-4095238D01*
X49857142Y-4285714D01*
X49857142Y-4619047D01*
X49809523Y-4809523D01*
X49714285Y-4904761D01*
X49619047Y-4952380D01*
X49428571Y-4952380D01*
X50190476Y-3952380D02*
X50809523Y-3952380D01*
X50476190Y-4333333D01*
X50619047Y-4333333D01*
X50714285Y-4380952D01*
X50761904Y-4428571D01*
X50809523Y-4523809D01*
X50809523Y-4761904D01*
X50761904Y-4857142D01*
X50714285Y-4904761D01*
X50619047Y-4952380D01*
X50333333Y-4952380D01*
X50238095Y-4904761D01*
X50190476Y-4857142D01*
X38904761Y-2047619D02*
X38809523Y-2000000D01*
X38714285Y-1904761D01*
X38571428Y-1761904D01*
X38476190Y-1714285D01*
X38380952Y-1714285D01*
X38428571Y-1952380D02*
X38333333Y-1904761D01*
X38238095Y-1809523D01*
X38190476Y-1619047D01*
X38190476Y-1285714D01*
X38238095Y-1095238D01*
X38333333Y-1000000D01*
X38428571Y-952380D01*
X38619047Y-952380D01*
X38714285Y-1000000D01*
X38809523Y-1095238D01*
X38857142Y-1285714D01*
X38857142Y-1619047D01*
X38809523Y-1809523D01*
X38714285Y-1904761D01*
X38619047Y-1952380D01*
X38428571Y-1952380D01*
X39714285Y-1285714D02*
X39714285Y-1952380D01*
X39476190Y-904761D02*
X39238095Y-1619047D01*
X39857142Y-1619047D01*
X38904761Y-7047619D02*
X38809523Y-7000000D01*
X38714285Y-6904761D01*
X38571428Y-6761904D01*
X38476190Y-6714285D01*
X38380952Y-6714285D01*
X38428571Y-6952380D02*
X38333333Y-6904761D01*
X38238095Y-6809523D01*
X38190476Y-6619047D01*
X38190476Y-6285714D01*
X38238095Y-6095238D01*
X38333333Y-6000000D01*
X38428571Y-5952380D01*
X38619047Y-5952380D01*
X38714285Y-6000000D01*
X38809523Y-6095238D01*
X38857142Y-6285714D01*
X38857142Y-6619047D01*
X38809523Y-6809523D01*
X38714285Y-6904761D01*
X38619047Y-6952380D01*
X38428571Y-6952380D01*
X39761904Y-5952380D02*
X39285714Y-5952380D01*
X39238095Y-6428571D01*
X39285714Y-6380952D01*
X39380952Y-6333333D01*
X39619047Y-6333333D01*
X39714285Y-6380952D01*
X39761904Y-6428571D01*
X39809523Y-6523809D01*
X39809523Y-6761904D01*
X39761904Y-6857142D01*
X39714285Y-6904761D01*
X39619047Y-6952380D01*
X39380952Y-6952380D01*
X39285714Y-6904761D01*
X39238095Y-6857142D01*
X54404761Y-5047619D02*
X54309523Y-5000000D01*
X54214285Y-4904761D01*
X54071428Y-4761904D01*
X53976190Y-4714285D01*
X53880952Y-4714285D01*
X53928571Y-4952380D02*
X53833333Y-4904761D01*
X53738095Y-4809523D01*
X53690476Y-4619047D01*
X53690476Y-4285714D01*
X53738095Y-4095238D01*
X53833333Y-4000000D01*
X53928571Y-3952380D01*
X54119047Y-3952380D01*
X54214285Y-4000000D01*
X54309523Y-4095238D01*
X54357142Y-4285714D01*
X54357142Y-4619047D01*
X54309523Y-4809523D01*
X54214285Y-4904761D01*
X54119047Y-4952380D01*
X53928571Y-4952380D01*
X55214285Y-3952380D02*
X55023809Y-3952380D01*
X54928571Y-4000000D01*
X54880952Y-4047619D01*
X54785714Y-4190476D01*
X54738095Y-4380952D01*
X54738095Y-4761904D01*
X54785714Y-4857142D01*
X54833333Y-4904761D01*
X54928571Y-4952380D01*
X55119047Y-4952380D01*
X55214285Y-4904761D01*
X55261904Y-4857142D01*
X55309523Y-4761904D01*
X55309523Y-4523809D01*
X55261904Y-4428571D01*
X55214285Y-4380952D01*
X55119047Y-4333333D01*
X54928571Y-4333333D01*
X54833333Y-4380952D01*
X54785714Y-4428571D01*
X54738095Y-4523809D01*
X27904761Y-7047619D02*
X27809523Y-7000000D01*
X27714285Y-6904761D01*
X27571428Y-6761904D01*
X27476190Y-6714285D01*
X27380952Y-6714285D01*
X27428571Y-6952380D02*
X27333333Y-6904761D01*
X27238095Y-6809523D01*
X27190476Y-6619047D01*
X27190476Y-6285714D01*
X27238095Y-6095238D01*
X27333333Y-6000000D01*
X27428571Y-5952380D01*
X27619047Y-5952380D01*
X27714285Y-6000000D01*
X27809523Y-6095238D01*
X27857142Y-6285714D01*
X27857142Y-6619047D01*
X27809523Y-6809523D01*
X27714285Y-6904761D01*
X27619047Y-6952380D01*
X27428571Y-6952380D01*
X28190476Y-5952380D02*
X28857142Y-5952380D01*
X28428571Y-6952380D01*
X21904761Y-5047619D02*
X21809523Y-5000000D01*
X21714285Y-4904761D01*
X21571428Y-4761904D01*
X21476190Y-4714285D01*
X21380952Y-4714285D01*
X21428571Y-4952380D02*
X21333333Y-4904761D01*
X21238095Y-4809523D01*
X21190476Y-4619047D01*
X21190476Y-4285714D01*
X21238095Y-4095238D01*
X21333333Y-4000000D01*
X21428571Y-3952380D01*
X21619047Y-3952380D01*
X21714285Y-4000000D01*
X21809523Y-4095238D01*
X21857142Y-4285714D01*
X21857142Y-4619047D01*
X21809523Y-4809523D01*
X21714285Y-4904761D01*
X21619047Y-4952380D01*
X21428571Y-4952380D01*
X22428571Y-4380952D02*
X22333333Y-4333333D01*
X22285714Y-4285714D01*
X22238095Y-4190476D01*
X22238095Y-4142857D01*
X22285714Y-4047619D01*
X22333333Y-4000000D01*
X22428571Y-3952380D01*
X22619047Y-3952380D01*
X22714285Y-4000000D01*
X22761904Y-4047619D01*
X22809523Y-4142857D01*
X22809523Y-4190476D01*
X22761904Y-4285714D01*
X22714285Y-4333333D01*
X22619047Y-4380952D01*
X22428571Y-4380952D01*
X22333333Y-4428571D01*
X22285714Y-4476190D01*
X22238095Y-4571428D01*
X22238095Y-4761904D01*
X22285714Y-4857142D01*
X22333333Y-4904761D01*
X22428571Y-4952380D01*
X22619047Y-4952380D01*
X22714285Y-4904761D01*
X22761904Y-4857142D01*
X22809523Y-4761904D01*
X22809523Y-4571428D01*
X22761904Y-4476190D01*
X22714285Y-4428571D01*
X22619047Y-4380952D01*
X32904761Y-2047619D02*
X32809523Y-2000000D01*
X32714285Y-1904761D01*
X32571428Y-1761904D01*
X32476190Y-1714285D01*
X32380952Y-1714285D01*
X32428571Y-1952380D02*
X32333333Y-1904761D01*
X32238095Y-1809523D01*
X32190476Y-1619047D01*
X32190476Y-1285714D01*
X32238095Y-1095238D01*
X32333333Y-1000000D01*
X32428571Y-952380D01*
X32619047Y-952380D01*
X32714285Y-1000000D01*
X32809523Y-1095238D01*
X32857142Y-1285714D01*
X32857142Y-1619047D01*
X32809523Y-1809523D01*
X32714285Y-1904761D01*
X32619047Y-1952380D01*
X32428571Y-1952380D01*
X33333333Y-1952380D02*
X33523809Y-1952380D01*
X33619047Y-1904761D01*
X33666666Y-1857142D01*
X33761904Y-1714285D01*
X33809523Y-1523809D01*
X33809523Y-1142857D01*
X33761904Y-1047619D01*
X33714285Y-1000000D01*
X33619047Y-952380D01*
X33428571Y-952380D01*
X33333333Y-1000000D01*
X33285714Y-1047619D01*
X33238095Y-1142857D01*
X33238095Y-1380952D01*
X33285714Y-1476190D01*
X33333333Y-1523809D01*
X33428571Y-1571428D01*
X33619047Y-1571428D01*
X33714285Y-1523809D01*
X33761904Y-1476190D01*
X33809523Y-1380952D01*
X32428571Y-7047619D02*
X32333333Y-7000000D01*
X32238095Y-6904761D01*
X32095238Y-6761904D01*
X32000000Y-6714285D01*
X31904761Y-6714285D01*
X31952380Y-6952380D02*
X31857142Y-6904761D01*
X31761904Y-6809523D01*
X31714285Y-6619047D01*
X31714285Y-6285714D01*
X31761904Y-6095238D01*
X31857142Y-6000000D01*
X31952380Y-5952380D01*
X32142857Y-5952380D01*
X32238095Y-6000000D01*
X32333333Y-6095238D01*
X32380952Y-6285714D01*
X32380952Y-6619047D01*
X32333333Y-6809523D01*
X32238095Y-6904761D01*
X32142857Y-6952380D01*
X31952380Y-6952380D01*
X33333333Y-6952380D02*
X32761904Y-6952380D01*
X33047619Y-6952380D02*
X33047619Y-5952380D01*
X32952380Y-6095238D01*
X32857142Y-6190476D01*
X32761904Y-6238095D01*
X33952380Y-5952380D02*
X34047619Y-5952380D01*
X34142857Y-6000000D01*
X34190476Y-6047619D01*
X34238095Y-6142857D01*
X34285714Y-6333333D01*
X34285714Y-6571428D01*
X34238095Y-6761904D01*
X34190476Y-6857142D01*
X34142857Y-6904761D01*
X34047619Y-6952380D01*
X33952380Y-6952380D01*
X33857142Y-6904761D01*
X33809523Y-6857142D01*
X33761904Y-6761904D01*
X33714285Y-6571428D01*
X33714285Y-6333333D01*
X33761904Y-6142857D01*
X33809523Y-6047619D01*
X33857142Y-6000000D01*
X33952380Y-5952380D01*
X16928571Y-5047619D02*
X16833333Y-5000000D01*
X16738095Y-4904761D01*
X16595238Y-4761904D01*
X16500000Y-4714285D01*
X16404761Y-4714285D01*
X16452380Y-4952380D02*
X16357142Y-4904761D01*
X16261904Y-4809523D01*
X16214285Y-4619047D01*
X16214285Y-4285714D01*
X16261904Y-4095238D01*
X16357142Y-4000000D01*
X16452380Y-3952380D01*
X16642857Y-3952380D01*
X16738095Y-4000000D01*
X16833333Y-4095238D01*
X16880952Y-4285714D01*
X16880952Y-4619047D01*
X16833333Y-4809523D01*
X16738095Y-4904761D01*
X16642857Y-4952380D01*
X16452380Y-4952380D01*
X17833333Y-4952380D02*
X17261904Y-4952380D01*
X17547619Y-4952380D02*
X17547619Y-3952380D01*
X17452380Y-4095238D01*
X17357142Y-4190476D01*
X17261904Y-4238095D01*
X18785714Y-4952380D02*
X18214285Y-4952380D01*
X18500000Y-4952380D02*
X18500000Y-3952380D01*
X18404761Y-4095238D01*
X18309523Y-4190476D01*
X18214285Y-4238095D01*
X15833333Y-21022380D02*
X15500000Y-20546190D01*
X15261904Y-21022380D02*
X15261904Y-20022380D01*
X15642857Y-20022380D01*
X15738095Y-20070000D01*
X15785714Y-20117619D01*
X15833333Y-20212857D01*
X15833333Y-20355714D01*
X15785714Y-20450952D01*
X15738095Y-20498571D01*
X15642857Y-20546190D01*
X15261904Y-20546190D01*
X16785714Y-21022380D02*
X16214285Y-21022380D01*
X16500000Y-21022380D02*
X16500000Y-20022380D01*
X16404761Y-20165238D01*
X16309523Y-20260476D01*
X16214285Y-20308095D01*
X76333333Y-15952380D02*
X76000000Y-15476190D01*
X75761904Y-15952380D02*
X75761904Y-14952380D01*
X76142857Y-14952380D01*
X76238095Y-15000000D01*
X76285714Y-15047619D01*
X76333333Y-15142857D01*
X76333333Y-15285714D01*
X76285714Y-15380952D01*
X76238095Y-15428571D01*
X76142857Y-15476190D01*
X75761904Y-15476190D01*
X76714285Y-15047619D02*
X76761904Y-15000000D01*
X76857142Y-14952380D01*
X77095238Y-14952380D01*
X77190476Y-15000000D01*
X77238095Y-15047619D01*
X77285714Y-15142857D01*
X77285714Y-15238095D01*
X77238095Y-15380952D01*
X76666666Y-15952380D01*
X77285714Y-15952380D01*
X19833333Y-20952380D02*
X19500000Y-20476190D01*
X19261904Y-20952380D02*
X19261904Y-19952380D01*
X19642857Y-19952380D01*
X19738095Y-20000000D01*
X19785714Y-20047619D01*
X19833333Y-20142857D01*
X19833333Y-20285714D01*
X19785714Y-20380952D01*
X19738095Y-20428571D01*
X19642857Y-20476190D01*
X19261904Y-20476190D01*
X20166666Y-19952380D02*
X20785714Y-19952380D01*
X20452380Y-20333333D01*
X20595238Y-20333333D01*
X20690476Y-20380952D01*
X20738095Y-20428571D01*
X20785714Y-20523809D01*
X20785714Y-20761904D01*
X20738095Y-20857142D01*
X20690476Y-20904761D01*
X20595238Y-20952380D01*
X20309523Y-20952380D01*
X20214285Y-20904761D01*
X20166666Y-20857142D01*
X84882380Y-23166666D02*
X84406190Y-23500000D01*
X84882380Y-23738095D02*
X83882380Y-23738095D01*
X83882380Y-23357142D01*
X83930000Y-23261904D01*
X83977619Y-23214285D01*
X84072857Y-23166666D01*
X84215714Y-23166666D01*
X84310952Y-23214285D01*
X84358571Y-23261904D01*
X84406190Y-23357142D01*
X84406190Y-23738095D01*
X84215714Y-22309523D02*
X84882380Y-22309523D01*
X83834761Y-22547619D02*
X84549047Y-22785714D01*
X84549047Y-22166666D01*
X2833333Y-21522380D02*
X2500000Y-21046190D01*
X2261904Y-21522380D02*
X2261904Y-20522380D01*
X2642857Y-20522380D01*
X2738095Y-20570000D01*
X2785714Y-20617619D01*
X2833333Y-20712857D01*
X2833333Y-20855714D01*
X2785714Y-20950952D01*
X2738095Y-20998571D01*
X2642857Y-21046190D01*
X2261904Y-21046190D01*
X3738095Y-20522380D02*
X3261904Y-20522380D01*
X3214285Y-20998571D01*
X3261904Y-20950952D01*
X3357142Y-20903333D01*
X3595238Y-20903333D01*
X3690476Y-20950952D01*
X3738095Y-20998571D01*
X3785714Y-21093809D01*
X3785714Y-21331904D01*
X3738095Y-21427142D01*
X3690476Y-21474761D01*
X3595238Y-21522380D01*
X3357142Y-21522380D01*
X3261904Y-21474761D01*
X3214285Y-21427142D01*
X84882380Y-19166666D02*
X84406190Y-19500000D01*
X84882380Y-19738095D02*
X83882380Y-19738095D01*
X83882380Y-19357142D01*
X83930000Y-19261904D01*
X83977619Y-19214285D01*
X84072857Y-19166666D01*
X84215714Y-19166666D01*
X84310952Y-19214285D01*
X84358571Y-19261904D01*
X84406190Y-19357142D01*
X84406190Y-19738095D01*
X83882380Y-18309523D02*
X83882380Y-18500000D01*
X83930000Y-18595238D01*
X83977619Y-18642857D01*
X84120476Y-18738095D01*
X84310952Y-18785714D01*
X84691904Y-18785714D01*
X84787142Y-18738095D01*
X84834761Y-18690476D01*
X84882380Y-18595238D01*
X84882380Y-18404761D01*
X84834761Y-18309523D01*
X84787142Y-18261904D01*
X84691904Y-18214285D01*
X84453809Y-18214285D01*
X84358571Y-18261904D01*
X84310952Y-18309523D01*
X84263333Y-18404761D01*
X84263333Y-18595238D01*
X84310952Y-18690476D01*
X84358571Y-18738095D01*
X84453809Y-18785714D01*
X44452380Y-4166666D02*
X43976190Y-4500000D01*
X44452380Y-4738095D02*
X43452380Y-4738095D01*
X43452380Y-4357142D01*
X43500000Y-4261904D01*
X43547619Y-4214285D01*
X43642857Y-4166666D01*
X43785714Y-4166666D01*
X43880952Y-4214285D01*
X43928571Y-4261904D01*
X43976190Y-4357142D01*
X43976190Y-4738095D01*
X43452380Y-3833333D02*
X43452380Y-3166666D01*
X44452380Y-3595238D01*
X43833333Y-13952380D02*
X43500000Y-13476190D01*
X43261904Y-13952380D02*
X43261904Y-12952380D01*
X43642857Y-12952380D01*
X43738095Y-13000000D01*
X43785714Y-13047619D01*
X43833333Y-13142857D01*
X43833333Y-13285714D01*
X43785714Y-13380952D01*
X43738095Y-13428571D01*
X43642857Y-13476190D01*
X43261904Y-13476190D01*
X44404761Y-13380952D02*
X44309523Y-13333333D01*
X44261904Y-13285714D01*
X44214285Y-13190476D01*
X44214285Y-13142857D01*
X44261904Y-13047619D01*
X44309523Y-13000000D01*
X44404761Y-12952380D01*
X44595238Y-12952380D01*
X44690476Y-13000000D01*
X44738095Y-13047619D01*
X44785714Y-13142857D01*
X44785714Y-13190476D01*
X44738095Y-13285714D01*
X44690476Y-13333333D01*
X44595238Y-13380952D01*
X44404761Y-13380952D01*
X44309523Y-13428571D01*
X44261904Y-13476190D01*
X44214285Y-13571428D01*
X44214285Y-13761904D01*
X44261904Y-13857142D01*
X44309523Y-13904761D01*
X44404761Y-13952380D01*
X44595238Y-13952380D01*
X44690476Y-13904761D01*
X44738095Y-13857142D01*
X44785714Y-13761904D01*
X44785714Y-13571428D01*
X44738095Y-13476190D01*
X44690476Y-13428571D01*
X44595238Y-13380952D01*
X54333333Y-12452380D02*
X54000000Y-11976190D01*
X53761904Y-12452380D02*
X53761904Y-11452380D01*
X54142857Y-11452380D01*
X54238095Y-11500000D01*
X54285714Y-11547619D01*
X54333333Y-11642857D01*
X54333333Y-11785714D01*
X54285714Y-11880952D01*
X54238095Y-11928571D01*
X54142857Y-11976190D01*
X53761904Y-11976190D01*
X54809523Y-12452380D02*
X55000000Y-12452380D01*
X55095238Y-12404761D01*
X55142857Y-12357142D01*
X55238095Y-12214285D01*
X55285714Y-12023809D01*
X55285714Y-11642857D01*
X55238095Y-11547619D01*
X55190476Y-11500000D01*
X55095238Y-11452380D01*
X54904761Y-11452380D01*
X54809523Y-11500000D01*
X54761904Y-11547619D01*
X54714285Y-11642857D01*
X54714285Y-11880952D01*
X54761904Y-11976190D01*
X54809523Y-12023809D01*
X54904761Y-12071428D01*
X55095238Y-12071428D01*
X55190476Y-12023809D01*
X55238095Y-11976190D01*
X55285714Y-11880952D01*
X87857142Y-7452380D02*
X87523809Y-6976190D01*
X87285714Y-7452380D02*
X87285714Y-6452380D01*
X87666666Y-6452380D01*
X87761904Y-6500000D01*
X87809523Y-6547619D01*
X87857142Y-6642857D01*
X87857142Y-6785714D01*
X87809523Y-6880952D01*
X87761904Y-6928571D01*
X87666666Y-6976190D01*
X87285714Y-6976190D01*
X88809523Y-7452380D02*
X88238095Y-7452380D01*
X88523809Y-7452380D02*
X88523809Y-6452380D01*
X88428571Y-6595238D01*
X88333333Y-6690476D01*
X88238095Y-6738095D01*
X89428571Y-6452380D02*
X89523809Y-6452380D01*
X89619047Y-6500000D01*
X89666666Y-6547619D01*
X89714285Y-6642857D01*
X89761904Y-6833333D01*
X89761904Y-7071428D01*
X89714285Y-7261904D01*
X89666666Y-7357142D01*
X89619047Y-7404761D01*
X89523809Y-7452380D01*
X89428571Y-7452380D01*
X89333333Y-7404761D01*
X89285714Y-7357142D01*
X89238095Y-7261904D01*
X89190476Y-7071428D01*
X89190476Y-6833333D01*
X89238095Y-6642857D01*
X89285714Y-6547619D01*
X89333333Y-6500000D01*
X89428571Y-6452380D01*
X38357142Y-13952380D02*
X38023809Y-13476190D01*
X37785714Y-13952380D02*
X37785714Y-12952380D01*
X38166666Y-12952380D01*
X38261904Y-13000000D01*
X38309523Y-13047619D01*
X38357142Y-13142857D01*
X38357142Y-13285714D01*
X38309523Y-13380952D01*
X38261904Y-13428571D01*
X38166666Y-13476190D01*
X37785714Y-13476190D01*
X39309523Y-13952380D02*
X38738095Y-13952380D01*
X39023809Y-13952380D02*
X39023809Y-12952380D01*
X38928571Y-13095238D01*
X38833333Y-13190476D01*
X38738095Y-13238095D01*
X40261904Y-13952380D02*
X39690476Y-13952380D01*
X39976190Y-13952380D02*
X39976190Y-12952380D01*
X39880952Y-13095238D01*
X39785714Y-13190476D01*
X39690476Y-13238095D01*
X87857142Y-9452380D02*
X87523809Y-8976190D01*
X87285714Y-9452380D02*
X87285714Y-8452380D01*
X87666666Y-8452380D01*
X87761904Y-8500000D01*
X87809523Y-8547619D01*
X87857142Y-8642857D01*
X87857142Y-8785714D01*
X87809523Y-8880952D01*
X87761904Y-8928571D01*
X87666666Y-8976190D01*
X87285714Y-8976190D01*
X88809523Y-9452380D02*
X88238095Y-9452380D01*
X88523809Y-9452380D02*
X88523809Y-8452380D01*
X88428571Y-8595238D01*
X88333333Y-8690476D01*
X88238095Y-8738095D01*
X89190476Y-8547619D02*
X89238095Y-8500000D01*
X89333333Y-8452380D01*
X89571428Y-8452380D01*
X89666666Y-8500000D01*
X89714285Y-8547619D01*
X89761904Y-8642857D01*
X89761904Y-8738095D01*
X89714285Y-8880952D01*
X89142857Y-9452380D01*
X89761904Y-9452380D01*
X87857142Y-5452380D02*
X87523809Y-4976190D01*
X87285714Y-5452380D02*
X87285714Y-4452380D01*
X87666666Y-4452380D01*
X87761904Y-4500000D01*
X87809523Y-4547619D01*
X87857142Y-4642857D01*
X87857142Y-4785714D01*
X87809523Y-4880952D01*
X87761904Y-4928571D01*
X87666666Y-4976190D01*
X87285714Y-4976190D01*
X88809523Y-5452380D02*
X88238095Y-5452380D01*
X88523809Y-5452380D02*
X88523809Y-4452380D01*
X88428571Y-4595238D01*
X88333333Y-4690476D01*
X88238095Y-4738095D01*
X89142857Y-4452380D02*
X89761904Y-4452380D01*
X89428571Y-4833333D01*
X89571428Y-4833333D01*
X89666666Y-4880952D01*
X89714285Y-4928571D01*
X89761904Y-5023809D01*
X89761904Y-5261904D01*
X89714285Y-5357142D01*
X89666666Y-5404761D01*
X89571428Y-5452380D01*
X89285714Y-5452380D01*
X89190476Y-5404761D01*
X89142857Y-5357142D01*
X49357142Y-12452380D02*
X49023809Y-11976190D01*
X48785714Y-12452380D02*
X48785714Y-11452380D01*
X49166666Y-11452380D01*
X49261904Y-11500000D01*
X49309523Y-11547619D01*
X49357142Y-11642857D01*
X49357142Y-11785714D01*
X49309523Y-11880952D01*
X49261904Y-11928571D01*
X49166666Y-11976190D01*
X48785714Y-11976190D01*
X50309523Y-12452380D02*
X49738095Y-12452380D01*
X50023809Y-12452380D02*
X50023809Y-11452380D01*
X49928571Y-11595238D01*
X49833333Y-11690476D01*
X49738095Y-11738095D01*
X51166666Y-11785714D02*
X51166666Y-12452380D01*
X50928571Y-11404761D02*
X50690476Y-12119047D01*
X51309523Y-12119047D01*
X28452380Y-4642857D02*
X27976190Y-4976190D01*
X28452380Y-5214285D02*
X27452380Y-5214285D01*
X27452380Y-4833333D01*
X27500000Y-4738095D01*
X27547619Y-4690476D01*
X27642857Y-4642857D01*
X27785714Y-4642857D01*
X27880952Y-4690476D01*
X27928571Y-4738095D01*
X27976190Y-4833333D01*
X27976190Y-5214285D01*
X28452380Y-3690476D02*
X28452380Y-4261904D01*
X28452380Y-3976190D02*
X27452380Y-3976190D01*
X27595238Y-4071428D01*
X27690476Y-4166666D01*
X27738095Y-4261904D01*
X27452380Y-2785714D02*
X27452380Y-3261904D01*
X27928571Y-3309523D01*
X27880952Y-3261904D01*
X27833333Y-3166666D01*
X27833333Y-2928571D01*
X27880952Y-2833333D01*
X27928571Y-2785714D01*
X28023809Y-2738095D01*
X28261904Y-2738095D01*
X28357142Y-2785714D01*
X28404761Y-2833333D01*
X28452380Y-2928571D01*
X28452380Y-3166666D01*
X28404761Y-3261904D01*
X28357142Y-3309523D01*
X27357142Y-13952380D02*
X27023809Y-13476190D01*
X26785714Y-13952380D02*
X26785714Y-12952380D01*
X27166666Y-12952380D01*
X27261904Y-13000000D01*
X27309523Y-13047619D01*
X27357142Y-13142857D01*
X27357142Y-13285714D01*
X27309523Y-13380952D01*
X27261904Y-13428571D01*
X27166666Y-13476190D01*
X26785714Y-13476190D01*
X28309523Y-13952380D02*
X27738095Y-13952380D01*
X28023809Y-13952380D02*
X28023809Y-12952380D01*
X27928571Y-13095238D01*
X27833333Y-13190476D01*
X27738095Y-13238095D01*
X29166666Y-12952380D02*
X28976190Y-12952380D01*
X28880952Y-13000000D01*
X28833333Y-13047619D01*
X28738095Y-13190476D01*
X28690476Y-13380952D01*
X28690476Y-13761904D01*
X28738095Y-13857142D01*
X28785714Y-13904761D01*
X28880952Y-13952380D01*
X29071428Y-13952380D01*
X29166666Y-13904761D01*
X29214285Y-13857142D01*
X29261904Y-13761904D01*
X29261904Y-13523809D01*
X29214285Y-13428571D01*
X29166666Y-13380952D01*
X29071428Y-13333333D01*
X28880952Y-13333333D01*
X28785714Y-13380952D01*
X28738095Y-13428571D01*
X28690476Y-13523809D01*
X16857142Y-11952380D02*
X16523809Y-11476190D01*
X16285714Y-11952380D02*
X16285714Y-10952380D01*
X16666666Y-10952380D01*
X16761904Y-11000000D01*
X16809523Y-11047619D01*
X16857142Y-11142857D01*
X16857142Y-11285714D01*
X16809523Y-11380952D01*
X16761904Y-11428571D01*
X16666666Y-11476190D01*
X16285714Y-11476190D01*
X17809523Y-11952380D02*
X17238095Y-11952380D01*
X17523809Y-11952380D02*
X17523809Y-10952380D01*
X17428571Y-11095238D01*
X17333333Y-11190476D01*
X17238095Y-11238095D01*
X18142857Y-10952380D02*
X18809523Y-10952380D01*
X18380952Y-11952380D01*
X72857142Y-31452380D02*
X72523809Y-30976190D01*
X72285714Y-31452380D02*
X72285714Y-30452380D01*
X72666666Y-30452380D01*
X72761904Y-30500000D01*
X72809523Y-30547619D01*
X72857142Y-30642857D01*
X72857142Y-30785714D01*
X72809523Y-30880952D01*
X72761904Y-30928571D01*
X72666666Y-30976190D01*
X72285714Y-30976190D01*
X73809523Y-31452380D02*
X73238095Y-31452380D01*
X73523809Y-31452380D02*
X73523809Y-30452380D01*
X73428571Y-30595238D01*
X73333333Y-30690476D01*
X73238095Y-30738095D01*
X74380952Y-30880952D02*
X74285714Y-30833333D01*
X74238095Y-30785714D01*
X74190476Y-30690476D01*
X74190476Y-30642857D01*
X74238095Y-30547619D01*
X74285714Y-30500000D01*
X74380952Y-30452380D01*
X74571428Y-30452380D01*
X74666666Y-30500000D01*
X74714285Y-30547619D01*
X74761904Y-30642857D01*
X74761904Y-30690476D01*
X74714285Y-30785714D01*
X74666666Y-30833333D01*
X74571428Y-30880952D01*
X74380952Y-30880952D01*
X74285714Y-30928571D01*
X74238095Y-30976190D01*
X74190476Y-31071428D01*
X74190476Y-31261904D01*
X74238095Y-31357142D01*
X74285714Y-31404761D01*
X74380952Y-31452380D01*
X74571428Y-31452380D01*
X74666666Y-31404761D01*
X74714285Y-31357142D01*
X74761904Y-31261904D01*
X74761904Y-31071428D01*
X74714285Y-30976190D01*
X74666666Y-30928571D01*
X74571428Y-30880952D01*
X66357142Y-13452380D02*
X66023809Y-12976190D01*
X65785714Y-13452380D02*
X65785714Y-12452380D01*
X66166666Y-12452380D01*
X66261904Y-12500000D01*
X66309523Y-12547619D01*
X66357142Y-12642857D01*
X66357142Y-12785714D01*
X66309523Y-12880952D01*
X66261904Y-12928571D01*
X66166666Y-12976190D01*
X65785714Y-12976190D01*
X67309523Y-13452380D02*
X66738095Y-13452380D01*
X67023809Y-13452380D02*
X67023809Y-12452380D01*
X66928571Y-12595238D01*
X66833333Y-12690476D01*
X66738095Y-12738095D01*
X67785714Y-13452380D02*
X67976190Y-13452380D01*
X68071428Y-13404761D01*
X68119047Y-13357142D01*
X68214285Y-13214285D01*
X68261904Y-13023809D01*
X68261904Y-12642857D01*
X68214285Y-12547619D01*
X68166666Y-12500000D01*
X68071428Y-12452380D01*
X67880952Y-12452380D01*
X67785714Y-12500000D01*
X67738095Y-12547619D01*
X67690476Y-12642857D01*
X67690476Y-12880952D01*
X67738095Y-12976190D01*
X67785714Y-13023809D01*
X67880952Y-13071428D01*
X68071428Y-13071428D01*
X68166666Y-13023809D01*
X68214285Y-12976190D01*
X68261904Y-12880952D01*
X10857142Y-9452380D02*
X10523809Y-8976190D01*
X10285714Y-9452380D02*
X10285714Y-8452380D01*
X10666666Y-8452380D01*
X10761904Y-8500000D01*
X10809523Y-8547619D01*
X10857142Y-8642857D01*
X10857142Y-8785714D01*
X10809523Y-8880952D01*
X10761904Y-8928571D01*
X10666666Y-8976190D01*
X10285714Y-8976190D01*
X11238095Y-8547619D02*
X11285714Y-8500000D01*
X11380952Y-8452380D01*
X11619047Y-8452380D01*
X11714285Y-8500000D01*
X11761904Y-8547619D01*
X11809523Y-8642857D01*
X11809523Y-8738095D01*
X11761904Y-8880952D01*
X11190476Y-9452380D01*
X11809523Y-9452380D01*
X12428571Y-8452380D02*
X12523809Y-8452380D01*
X12619047Y-8500000D01*
X12666666Y-8547619D01*
X12714285Y-8642857D01*
X12761904Y-8833333D01*
X12761904Y-9071428D01*
X12714285Y-9261904D01*
X12666666Y-9357142D01*
X12619047Y-9404761D01*
X12523809Y-9452380D01*
X12428571Y-9452380D01*
X12333333Y-9404761D01*
X12285714Y-9357142D01*
X12238095Y-9261904D01*
X12190476Y-9071428D01*
X12190476Y-8833333D01*
X12238095Y-8642857D01*
X12285714Y-8547619D01*
X12333333Y-8500000D01*
X12428571Y-8452380D01*
X32357142Y-13952380D02*
X32023809Y-13476190D01*
X31785714Y-13952380D02*
X31785714Y-12952380D01*
X32166666Y-12952380D01*
X32261904Y-13000000D01*
X32309523Y-13047619D01*
X32357142Y-13142857D01*
X32357142Y-13285714D01*
X32309523Y-13380952D01*
X32261904Y-13428571D01*
X32166666Y-13476190D01*
X31785714Y-13476190D01*
X32738095Y-13047619D02*
X32785714Y-13000000D01*
X32880952Y-12952380D01*
X33119047Y-12952380D01*
X33214285Y-13000000D01*
X33261904Y-13047619D01*
X33309523Y-13142857D01*
X33309523Y-13238095D01*
X33261904Y-13380952D01*
X32690476Y-13952380D01*
X33309523Y-13952380D01*
X34261904Y-13952380D02*
X33690476Y-13952380D01*
X33976190Y-13952380D02*
X33976190Y-12952380D01*
X33880952Y-13095238D01*
X33785714Y-13190476D01*
X33690476Y-13238095D01*
X10857142Y-7452380D02*
X10523809Y-6976190D01*
X10285714Y-7452380D02*
X10285714Y-6452380D01*
X10666666Y-6452380D01*
X10761904Y-6500000D01*
X10809523Y-6547619D01*
X10857142Y-6642857D01*
X10857142Y-6785714D01*
X10809523Y-6880952D01*
X10761904Y-6928571D01*
X10666666Y-6976190D01*
X10285714Y-6976190D01*
X11238095Y-6547619D02*
X11285714Y-6500000D01*
X11380952Y-6452380D01*
X11619047Y-6452380D01*
X11714285Y-6500000D01*
X11761904Y-6547619D01*
X11809523Y-6642857D01*
X11809523Y-6738095D01*
X11761904Y-6880952D01*
X11190476Y-7452380D01*
X11809523Y-7452380D01*
X12190476Y-6547619D02*
X12238095Y-6500000D01*
X12333333Y-6452380D01*
X12571428Y-6452380D01*
X12666666Y-6500000D01*
X12714285Y-6547619D01*
X12761904Y-6642857D01*
X12761904Y-6738095D01*
X12714285Y-6880952D01*
X12142857Y-7452380D01*
X12761904Y-7452380D01*
X10857142Y-11452380D02*
X10523809Y-10976190D01*
X10285714Y-11452380D02*
X10285714Y-10452380D01*
X10666666Y-10452380D01*
X10761904Y-10500000D01*
X10809523Y-10547619D01*
X10857142Y-10642857D01*
X10857142Y-10785714D01*
X10809523Y-10880952D01*
X10761904Y-10928571D01*
X10666666Y-10976190D01*
X10285714Y-10976190D01*
X11238095Y-10547619D02*
X11285714Y-10500000D01*
X11380952Y-10452380D01*
X11619047Y-10452380D01*
X11714285Y-10500000D01*
X11761904Y-10547619D01*
X11809523Y-10642857D01*
X11809523Y-10738095D01*
X11761904Y-10880952D01*
X11190476Y-11452380D01*
X11809523Y-11452380D01*
X12142857Y-10452380D02*
X12761904Y-10452380D01*
X12428571Y-10833333D01*
X12571428Y-10833333D01*
X12666666Y-10880952D01*
X12714285Y-10928571D01*
X12761904Y-11023809D01*
X12761904Y-11261904D01*
X12714285Y-11357142D01*
X12666666Y-11404761D01*
X12571428Y-11452380D01*
X12285714Y-11452380D01*
X12190476Y-11404761D01*
X12142857Y-11357142D01*
X21357142Y-11882380D02*
X21023809Y-11406190D01*
X20785714Y-11882380D02*
X20785714Y-10882380D01*
X21166666Y-10882380D01*
X21261904Y-10930000D01*
X21309523Y-10977619D01*
X21357142Y-11072857D01*
X21357142Y-11215714D01*
X21309523Y-11310952D01*
X21261904Y-11358571D01*
X21166666Y-11406190D01*
X20785714Y-11406190D01*
X21738095Y-10977619D02*
X21785714Y-10930000D01*
X21880952Y-10882380D01*
X22119047Y-10882380D01*
X22214285Y-10930000D01*
X22261904Y-10977619D01*
X22309523Y-11072857D01*
X22309523Y-11168095D01*
X22261904Y-11310952D01*
X21690476Y-11882380D01*
X22309523Y-11882380D01*
X23166666Y-11215714D02*
X23166666Y-11882380D01*
X22928571Y-10834761D02*
X22690476Y-11549047D01*
X23309523Y-11549047D01*
X87857142Y-11452380D02*
X87523809Y-10976190D01*
X87285714Y-11452380D02*
X87285714Y-10452380D01*
X87666666Y-10452380D01*
X87761904Y-10500000D01*
X87809523Y-10547619D01*
X87857142Y-10642857D01*
X87857142Y-10785714D01*
X87809523Y-10880952D01*
X87761904Y-10928571D01*
X87666666Y-10976190D01*
X87285714Y-10976190D01*
X88238095Y-10547619D02*
X88285714Y-10500000D01*
X88380952Y-10452380D01*
X88619047Y-10452380D01*
X88714285Y-10500000D01*
X88761904Y-10547619D01*
X88809523Y-10642857D01*
X88809523Y-10738095D01*
X88761904Y-10880952D01*
X88190476Y-11452380D01*
X88809523Y-11452380D01*
X89714285Y-10452380D02*
X89238095Y-10452380D01*
X89190476Y-10928571D01*
X89238095Y-10880952D01*
X89333333Y-10833333D01*
X89571428Y-10833333D01*
X89666666Y-10880952D01*
X89714285Y-10928571D01*
X89761904Y-11023809D01*
X89761904Y-11261904D01*
X89714285Y-11357142D01*
X89666666Y-11404761D01*
X89571428Y-11452380D01*
X89333333Y-11452380D01*
X89238095Y-11404761D01*
X89190476Y-11357142D01*
X10857142Y-5452380D02*
X10523809Y-4976190D01*
X10285714Y-5452380D02*
X10285714Y-4452380D01*
X10666666Y-4452380D01*
X10761904Y-4500000D01*
X10809523Y-4547619D01*
X10857142Y-4642857D01*
X10857142Y-4785714D01*
X10809523Y-4880952D01*
X10761904Y-4928571D01*
X10666666Y-4976190D01*
X10285714Y-4976190D01*
X11238095Y-4547619D02*
X11285714Y-4500000D01*
X11380952Y-4452380D01*
X11619047Y-4452380D01*
X11714285Y-4500000D01*
X11761904Y-4547619D01*
X11809523Y-4642857D01*
X11809523Y-4738095D01*
X11761904Y-4880952D01*
X11190476Y-5452380D01*
X11809523Y-5452380D01*
X12666666Y-4452380D02*
X12476190Y-4452380D01*
X12380952Y-4500000D01*
X12333333Y-4547619D01*
X12238095Y-4690476D01*
X12190476Y-4880952D01*
X12190476Y-5261904D01*
X12238095Y-5357142D01*
X12285714Y-5404761D01*
X12380952Y-5452380D01*
X12571428Y-5452380D01*
X12666666Y-5404761D01*
X12714285Y-5357142D01*
X12761904Y-5261904D01*
X12761904Y-5023809D01*
X12714285Y-4928571D01*
X12666666Y-4880952D01*
X12571428Y-4833333D01*
X12380952Y-4833333D01*
X12285714Y-4880952D01*
X12238095Y-4928571D01*
X12190476Y-5023809D01*
X404761Y-30333333D02*
X452380Y-30190476D01*
X452380Y-29952380D01*
X404761Y-29857142D01*
X357142Y-29809523D01*
X261904Y-29761904D01*
X166666Y-29761904D01*
X71428Y-29809523D01*
X23809Y-29857142D01*
X-23809Y-29952380D01*
X-71428Y-30142857D01*
X-119047Y-30238095D01*
X-166666Y-30285714D01*
X-261904Y-30333333D01*
X-357142Y-30333333D01*
X-452380Y-30285714D01*
X-500000Y-30238095D01*
X-547619Y-30142857D01*
X-547619Y-29904761D01*
X-500000Y-29761904D01*
X-547619Y-29428571D02*
X452380Y-29190476D01*
X-261904Y-29000000D01*
X452380Y-28809523D01*
X-547619Y-28571428D01*
X452380Y-27666666D02*
X452380Y-28238095D01*
X452380Y-27952380D02*
X-547619Y-27952380D01*
X-404761Y-28047619D01*
X-309523Y-28142857D01*
X-261904Y-28238095D01*
X73238095Y-10952380D02*
X73238095Y-11761904D01*
X73285714Y-11857142D01*
X73333333Y-11904761D01*
X73428571Y-11952380D01*
X73619047Y-11952380D01*
X73714285Y-11904761D01*
X73761904Y-11857142D01*
X73809523Y-11761904D01*
X73809523Y-10952380D01*
X74809523Y-11952380D02*
X74238095Y-11952380D01*
X74523809Y-11952380D02*
X74523809Y-10952380D01*
X74428571Y-11095238D01*
X74333333Y-11190476D01*
X74238095Y-11238095D01*
X65562380Y-17331904D02*
X66371904Y-17331904D01*
X66467142Y-17284285D01*
X66514761Y-17236666D01*
X66562380Y-17141428D01*
X66562380Y-16950952D01*
X66514761Y-16855714D01*
X66467142Y-16808095D01*
X66371904Y-16760476D01*
X65562380Y-16760476D01*
X65657619Y-16331904D02*
X65610000Y-16284285D01*
X65562380Y-16189047D01*
X65562380Y-15950952D01*
X65610000Y-15855714D01*
X65657619Y-15808095D01*
X65752857Y-15760476D01*
X65848095Y-15760476D01*
X65990952Y-15808095D01*
X66562380Y-16379523D01*
X66562380Y-15760476D01*
M02*
