G04 #@! TF.GenerationSoftware,KiCad,Pcbnew,(5.1.10)-1*
G04 #@! TF.CreationDate,2021-08-19T14:27:16+09:00*
G04 #@! TF.ProjectId,driver,64726976-6572-42e6-9b69-6361645f7063,rev?*
G04 #@! TF.SameCoordinates,Original*
G04 #@! TF.FileFunction,Soldermask,Top*
G04 #@! TF.FilePolarity,Negative*
%FSLAX46Y46*%
G04 Gerber Fmt 4.6, Leading zero omitted, Abs format (unit mm)*
G04 Created by KiCad (PCBNEW (5.1.10)-1) date 2021-08-19 14:27:16*
%MOMM*%
%LPD*%
G01*
G04 APERTURE LIST*
%ADD10C,1.800000*%
%ADD11R,1.800000X1.800000*%
%ADD12R,2.200000X2.200000*%
%ADD13O,2.200000X2.200000*%
%ADD14O,1.700000X1.700000*%
%ADD15R,1.700000X1.700000*%
%ADD16O,1.750000X1.200000*%
%ADD17R,1.905000X2.000000*%
%ADD18O,1.905000X2.000000*%
%ADD19R,0.800000X0.900000*%
%ADD20R,0.900000X0.800000*%
%ADD21C,2.000000*%
%ADD22R,2.000000X3.800000*%
%ADD23R,2.000000X1.500000*%
%ADD24R,5.000000X5.000000*%
%ADD25R,2.000000X0.900000*%
%ADD26R,0.900000X2.000000*%
G04 APERTURE END LIST*
G36*
G01*
X80074999Y-6650000D02*
X80925001Y-6650000D01*
G75*
G02*
X81175000Y-6899999I0J-249999D01*
G01*
X81175000Y-7800001D01*
G75*
G02*
X80925001Y-8050000I-249999J0D01*
G01*
X80074999Y-8050000D01*
G75*
G02*
X79825000Y-7800001I0J249999D01*
G01*
X79825000Y-6899999D01*
G75*
G02*
X80074999Y-6650000I249999J0D01*
G01*
G37*
G36*
G01*
X80074999Y-3950000D02*
X80925001Y-3950000D01*
G75*
G02*
X81175000Y-4199999I0J-249999D01*
G01*
X81175000Y-5100001D01*
G75*
G02*
X80925001Y-5350000I-249999J0D01*
G01*
X80074999Y-5350000D01*
G75*
G02*
X79825000Y-5100001I0J249999D01*
G01*
X79825000Y-4199999D01*
G75*
G02*
X80074999Y-3950000I249999J0D01*
G01*
G37*
G36*
G01*
X67925001Y-7900000D02*
X67074999Y-7900000D01*
G75*
G02*
X66825000Y-7650001I0J249999D01*
G01*
X66825000Y-6749999D01*
G75*
G02*
X67074999Y-6500000I249999J0D01*
G01*
X67925001Y-6500000D01*
G75*
G02*
X68175000Y-6749999I0J-249999D01*
G01*
X68175000Y-7650001D01*
G75*
G02*
X67925001Y-7900000I-249999J0D01*
G01*
G37*
G36*
G01*
X67925001Y-5200000D02*
X67074999Y-5200000D01*
G75*
G02*
X66825000Y-4950001I0J249999D01*
G01*
X66825000Y-4049999D01*
G75*
G02*
X67074999Y-3800000I249999J0D01*
G01*
X67925001Y-3800000D01*
G75*
G02*
X68175000Y-4049999I0J-249999D01*
G01*
X68175000Y-4950001D01*
G75*
G02*
X67925001Y-5200000I-249999J0D01*
G01*
G37*
G36*
G01*
X5600000Y-22737500D02*
X5600000Y-22262500D01*
G75*
G02*
X5837500Y-22025000I237500J0D01*
G01*
X6437500Y-22025000D01*
G75*
G02*
X6675000Y-22262500I0J-237500D01*
G01*
X6675000Y-22737500D01*
G75*
G02*
X6437500Y-22975000I-237500J0D01*
G01*
X5837500Y-22975000D01*
G75*
G02*
X5600000Y-22737500I0J237500D01*
G01*
G37*
G36*
G01*
X7325000Y-22737500D02*
X7325000Y-22262500D01*
G75*
G02*
X7562500Y-22025000I237500J0D01*
G01*
X8162500Y-22025000D01*
G75*
G02*
X8400000Y-22262500I0J-237500D01*
G01*
X8400000Y-22737500D01*
G75*
G02*
X8162500Y-22975000I-237500J0D01*
G01*
X7562500Y-22975000D01*
G75*
G02*
X7325000Y-22737500I0J237500D01*
G01*
G37*
D10*
X28000000Y-30540000D03*
D11*
X28000000Y-28000000D03*
X34500000Y-28000000D03*
D10*
X34500000Y-30540000D03*
G36*
G01*
X73600000Y-13549999D02*
X73600000Y-14450001D01*
G75*
G02*
X73350001Y-14700000I-249999J0D01*
G01*
X72699999Y-14700000D01*
G75*
G02*
X72450000Y-14450001I0J249999D01*
G01*
X72450000Y-13549999D01*
G75*
G02*
X72699999Y-13300000I249999J0D01*
G01*
X73350001Y-13300000D01*
G75*
G02*
X73600000Y-13549999I0J-249999D01*
G01*
G37*
G36*
G01*
X71550000Y-13549999D02*
X71550000Y-14450001D01*
G75*
G02*
X71300001Y-14700000I-249999J0D01*
G01*
X70649999Y-14700000D01*
G75*
G02*
X70400000Y-14450001I0J249999D01*
G01*
X70400000Y-13549999D01*
G75*
G02*
X70649999Y-13300000I249999J0D01*
G01*
X71300001Y-13300000D01*
G75*
G02*
X71550000Y-13549999I0J-249999D01*
G01*
G37*
D12*
X79500000Y-27000000D03*
D13*
X79500000Y-19380000D03*
X75000000Y-19380000D03*
D12*
X75000000Y-27000000D03*
D14*
X16460000Y-33000000D03*
D15*
X19000000Y-33000000D03*
X79500000Y-33000000D03*
D14*
X76960000Y-33000000D03*
D15*
X41000000Y-32000000D03*
D14*
X41000000Y-29460000D03*
X41000000Y-26920000D03*
X41000000Y-24380000D03*
D16*
X3500000Y-3000000D03*
X3500000Y-5000000D03*
X3500000Y-7000000D03*
X3500000Y-9000000D03*
X3500000Y-11000000D03*
G36*
G01*
X4125001Y-13600000D02*
X2874999Y-13600000D01*
G75*
G02*
X2625000Y-13350001I0J249999D01*
G01*
X2625000Y-12649999D01*
G75*
G02*
X2874999Y-12400000I249999J0D01*
G01*
X4125001Y-12400000D01*
G75*
G02*
X4375000Y-12649999I0J-249999D01*
G01*
X4375000Y-13350001D01*
G75*
G02*
X4125001Y-13600000I-249999J0D01*
G01*
G37*
G36*
G01*
X95874999Y-2400000D02*
X97125001Y-2400000D01*
G75*
G02*
X97375000Y-2649999I0J-249999D01*
G01*
X97375000Y-3350001D01*
G75*
G02*
X97125001Y-3600000I-249999J0D01*
G01*
X95874999Y-3600000D01*
G75*
G02*
X95625000Y-3350001I0J249999D01*
G01*
X95625000Y-2649999D01*
G75*
G02*
X95874999Y-2400000I249999J0D01*
G01*
G37*
X96500000Y-5000000D03*
X96500000Y-7000000D03*
X96500000Y-9000000D03*
X96500000Y-11000000D03*
X96500000Y-13000000D03*
D15*
X90000000Y-20000000D03*
D14*
X92540000Y-20000000D03*
X90000000Y-22540000D03*
X92540000Y-22540000D03*
X90000000Y-25080000D03*
X92540000Y-25080000D03*
X90000000Y-27620000D03*
X92540000Y-27620000D03*
X90000000Y-30160000D03*
X92540000Y-30160000D03*
D17*
X15500000Y-27500000D03*
D18*
X18040000Y-27500000D03*
X20580000Y-27500000D03*
D19*
X43050000Y-10000000D03*
X44950000Y-10000000D03*
X44000000Y-8000000D03*
D20*
X49000000Y-7000000D03*
X51000000Y-6050000D03*
X51000000Y-7950000D03*
D19*
X39000000Y-5000000D03*
X38050000Y-3000000D03*
X39950000Y-3000000D03*
X39000000Y-8000000D03*
X39950000Y-10000000D03*
X38050000Y-10000000D03*
D20*
X55500000Y-7950000D03*
X55500000Y-6050000D03*
X53500000Y-7000000D03*
D19*
X28950000Y-8000000D03*
X27050000Y-8000000D03*
X28000000Y-10000000D03*
D20*
X21000000Y-6050000D03*
X21000000Y-7950000D03*
X23000000Y-7000000D03*
D19*
X33000000Y-3000000D03*
X33950000Y-5000000D03*
X32050000Y-5000000D03*
X32050000Y-10000000D03*
X33950000Y-10000000D03*
X33000000Y-8000000D03*
D20*
X18500000Y-7000000D03*
X16500000Y-7950000D03*
X16500000Y-6050000D03*
G36*
G01*
X16425000Y-22237500D02*
X16425000Y-21762500D01*
G75*
G02*
X16662500Y-21525000I237500J0D01*
G01*
X17162500Y-21525000D01*
G75*
G02*
X17400000Y-21762500I0J-237500D01*
G01*
X17400000Y-22237500D01*
G75*
G02*
X17162500Y-22475000I-237500J0D01*
G01*
X16662500Y-22475000D01*
G75*
G02*
X16425000Y-22237500I0J237500D01*
G01*
G37*
G36*
G01*
X14600000Y-22237500D02*
X14600000Y-21762500D01*
G75*
G02*
X14837500Y-21525000I237500J0D01*
G01*
X15337500Y-21525000D01*
G75*
G02*
X15575000Y-21762500I0J-237500D01*
G01*
X15575000Y-22237500D01*
G75*
G02*
X15337500Y-22475000I-237500J0D01*
G01*
X14837500Y-22475000D01*
G75*
G02*
X14600000Y-22237500I0J237500D01*
G01*
G37*
G36*
G01*
X76925000Y-14237500D02*
X76925000Y-13762500D01*
G75*
G02*
X77162500Y-13525000I237500J0D01*
G01*
X77662500Y-13525000D01*
G75*
G02*
X77900000Y-13762500I0J-237500D01*
G01*
X77900000Y-14237500D01*
G75*
G02*
X77662500Y-14475000I-237500J0D01*
G01*
X77162500Y-14475000D01*
G75*
G02*
X76925000Y-14237500I0J237500D01*
G01*
G37*
G36*
G01*
X75100000Y-14237500D02*
X75100000Y-13762500D01*
G75*
G02*
X75337500Y-13525000I237500J0D01*
G01*
X75837500Y-13525000D01*
G75*
G02*
X76075000Y-13762500I0J-237500D01*
G01*
X76075000Y-14237500D01*
G75*
G02*
X75837500Y-14475000I-237500J0D01*
G01*
X75337500Y-14475000D01*
G75*
G02*
X75100000Y-14237500I0J237500D01*
G01*
G37*
G36*
G01*
X21400000Y-21762500D02*
X21400000Y-22237500D01*
G75*
G02*
X21162500Y-22475000I-237500J0D01*
G01*
X20662500Y-22475000D01*
G75*
G02*
X20425000Y-22237500I0J237500D01*
G01*
X20425000Y-21762500D01*
G75*
G02*
X20662500Y-21525000I237500J0D01*
G01*
X21162500Y-21525000D01*
G75*
G02*
X21400000Y-21762500I0J-237500D01*
G01*
G37*
G36*
G01*
X19575000Y-21762500D02*
X19575000Y-22237500D01*
G75*
G02*
X19337500Y-22475000I-237500J0D01*
G01*
X18837500Y-22475000D01*
G75*
G02*
X18600000Y-22237500I0J237500D01*
G01*
X18600000Y-21762500D01*
G75*
G02*
X18837500Y-21525000I237500J0D01*
G01*
X19337500Y-21525000D01*
G75*
G02*
X19575000Y-21762500I0J-237500D01*
G01*
G37*
G36*
G01*
X82762500Y-21600000D02*
X83237500Y-21600000D01*
G75*
G02*
X83475000Y-21837500I0J-237500D01*
G01*
X83475000Y-22337500D01*
G75*
G02*
X83237500Y-22575000I-237500J0D01*
G01*
X82762500Y-22575000D01*
G75*
G02*
X82525000Y-22337500I0J237500D01*
G01*
X82525000Y-21837500D01*
G75*
G02*
X82762500Y-21600000I237500J0D01*
G01*
G37*
G36*
G01*
X82762500Y-23425000D02*
X83237500Y-23425000D01*
G75*
G02*
X83475000Y-23662500I0J-237500D01*
G01*
X83475000Y-24162500D01*
G75*
G02*
X83237500Y-24400000I-237500J0D01*
G01*
X82762500Y-24400000D01*
G75*
G02*
X82525000Y-24162500I0J237500D01*
G01*
X82525000Y-23662500D01*
G75*
G02*
X82762500Y-23425000I237500J0D01*
G01*
G37*
G36*
G01*
X1600000Y-22737500D02*
X1600000Y-22262500D01*
G75*
G02*
X1837500Y-22025000I237500J0D01*
G01*
X2337500Y-22025000D01*
G75*
G02*
X2575000Y-22262500I0J-237500D01*
G01*
X2575000Y-22737500D01*
G75*
G02*
X2337500Y-22975000I-237500J0D01*
G01*
X1837500Y-22975000D01*
G75*
G02*
X1600000Y-22737500I0J237500D01*
G01*
G37*
G36*
G01*
X3425000Y-22737500D02*
X3425000Y-22262500D01*
G75*
G02*
X3662500Y-22025000I237500J0D01*
G01*
X4162500Y-22025000D01*
G75*
G02*
X4400000Y-22262500I0J-237500D01*
G01*
X4400000Y-22737500D01*
G75*
G02*
X4162500Y-22975000I-237500J0D01*
G01*
X3662500Y-22975000D01*
G75*
G02*
X3425000Y-22737500I0J237500D01*
G01*
G37*
G36*
G01*
X82762500Y-19425000D02*
X83237500Y-19425000D01*
G75*
G02*
X83475000Y-19662500I0J-237500D01*
G01*
X83475000Y-20162500D01*
G75*
G02*
X83237500Y-20400000I-237500J0D01*
G01*
X82762500Y-20400000D01*
G75*
G02*
X82525000Y-20162500I0J237500D01*
G01*
X82525000Y-19662500D01*
G75*
G02*
X82762500Y-19425000I237500J0D01*
G01*
G37*
G36*
G01*
X82762500Y-17600000D02*
X83237500Y-17600000D01*
G75*
G02*
X83475000Y-17837500I0J-237500D01*
G01*
X83475000Y-18337500D01*
G75*
G02*
X83237500Y-18575000I-237500J0D01*
G01*
X82762500Y-18575000D01*
G75*
G02*
X82525000Y-18337500I0J237500D01*
G01*
X82525000Y-17837500D01*
G75*
G02*
X82762500Y-17600000I237500J0D01*
G01*
G37*
G36*
G01*
X42262500Y-2600000D02*
X42737500Y-2600000D01*
G75*
G02*
X42975000Y-2837500I0J-237500D01*
G01*
X42975000Y-3337500D01*
G75*
G02*
X42737500Y-3575000I-237500J0D01*
G01*
X42262500Y-3575000D01*
G75*
G02*
X42025000Y-3337500I0J237500D01*
G01*
X42025000Y-2837500D01*
G75*
G02*
X42262500Y-2600000I237500J0D01*
G01*
G37*
G36*
G01*
X42262500Y-4425000D02*
X42737500Y-4425000D01*
G75*
G02*
X42975000Y-4662500I0J-237500D01*
G01*
X42975000Y-5162500D01*
G75*
G02*
X42737500Y-5400000I-237500J0D01*
G01*
X42262500Y-5400000D01*
G75*
G02*
X42025000Y-5162500I0J237500D01*
G01*
X42025000Y-4662500D01*
G75*
G02*
X42262500Y-4425000I237500J0D01*
G01*
G37*
G36*
G01*
X43575000Y-11762500D02*
X43575000Y-12237500D01*
G75*
G02*
X43337500Y-12475000I-237500J0D01*
G01*
X42837500Y-12475000D01*
G75*
G02*
X42600000Y-12237500I0J237500D01*
G01*
X42600000Y-11762500D01*
G75*
G02*
X42837500Y-11525000I237500J0D01*
G01*
X43337500Y-11525000D01*
G75*
G02*
X43575000Y-11762500I0J-237500D01*
G01*
G37*
G36*
G01*
X45400000Y-11762500D02*
X45400000Y-12237500D01*
G75*
G02*
X45162500Y-12475000I-237500J0D01*
G01*
X44662500Y-12475000D01*
G75*
G02*
X44425000Y-12237500I0J237500D01*
G01*
X44425000Y-11762500D01*
G75*
G02*
X44662500Y-11525000I237500J0D01*
G01*
X45162500Y-11525000D01*
G75*
G02*
X45400000Y-11762500I0J-237500D01*
G01*
G37*
G36*
G01*
X53100000Y-10737500D02*
X53100000Y-10262500D01*
G75*
G02*
X53337500Y-10025000I237500J0D01*
G01*
X53837500Y-10025000D01*
G75*
G02*
X54075000Y-10262500I0J-237500D01*
G01*
X54075000Y-10737500D01*
G75*
G02*
X53837500Y-10975000I-237500J0D01*
G01*
X53337500Y-10975000D01*
G75*
G02*
X53100000Y-10737500I0J237500D01*
G01*
G37*
G36*
G01*
X54925000Y-10737500D02*
X54925000Y-10262500D01*
G75*
G02*
X55162500Y-10025000I237500J0D01*
G01*
X55662500Y-10025000D01*
G75*
G02*
X55900000Y-10262500I0J-237500D01*
G01*
X55900000Y-10737500D01*
G75*
G02*
X55662500Y-10975000I-237500J0D01*
G01*
X55162500Y-10975000D01*
G75*
G02*
X54925000Y-10737500I0J237500D01*
G01*
G37*
G36*
G01*
X91925000Y-7237500D02*
X91925000Y-6762500D01*
G75*
G02*
X92162500Y-6525000I237500J0D01*
G01*
X92662500Y-6525000D01*
G75*
G02*
X92900000Y-6762500I0J-237500D01*
G01*
X92900000Y-7237500D01*
G75*
G02*
X92662500Y-7475000I-237500J0D01*
G01*
X92162500Y-7475000D01*
G75*
G02*
X91925000Y-7237500I0J237500D01*
G01*
G37*
G36*
G01*
X90100000Y-7237500D02*
X90100000Y-6762500D01*
G75*
G02*
X90337500Y-6525000I237500J0D01*
G01*
X90837500Y-6525000D01*
G75*
G02*
X91075000Y-6762500I0J-237500D01*
G01*
X91075000Y-7237500D01*
G75*
G02*
X90837500Y-7475000I-237500J0D01*
G01*
X90337500Y-7475000D01*
G75*
G02*
X90100000Y-7237500I0J237500D01*
G01*
G37*
G36*
G01*
X37600000Y-12237500D02*
X37600000Y-11762500D01*
G75*
G02*
X37837500Y-11525000I237500J0D01*
G01*
X38337500Y-11525000D01*
G75*
G02*
X38575000Y-11762500I0J-237500D01*
G01*
X38575000Y-12237500D01*
G75*
G02*
X38337500Y-12475000I-237500J0D01*
G01*
X37837500Y-12475000D01*
G75*
G02*
X37600000Y-12237500I0J237500D01*
G01*
G37*
G36*
G01*
X39425000Y-12237500D02*
X39425000Y-11762500D01*
G75*
G02*
X39662500Y-11525000I237500J0D01*
G01*
X40162500Y-11525000D01*
G75*
G02*
X40400000Y-11762500I0J-237500D01*
G01*
X40400000Y-12237500D01*
G75*
G02*
X40162500Y-12475000I-237500J0D01*
G01*
X39662500Y-12475000D01*
G75*
G02*
X39425000Y-12237500I0J237500D01*
G01*
G37*
G36*
G01*
X91925000Y-9237500D02*
X91925000Y-8762500D01*
G75*
G02*
X92162500Y-8525000I237500J0D01*
G01*
X92662500Y-8525000D01*
G75*
G02*
X92900000Y-8762500I0J-237500D01*
G01*
X92900000Y-9237500D01*
G75*
G02*
X92662500Y-9475000I-237500J0D01*
G01*
X92162500Y-9475000D01*
G75*
G02*
X91925000Y-9237500I0J237500D01*
G01*
G37*
G36*
G01*
X90100000Y-9237500D02*
X90100000Y-8762500D01*
G75*
G02*
X90337500Y-8525000I237500J0D01*
G01*
X90837500Y-8525000D01*
G75*
G02*
X91075000Y-8762500I0J-237500D01*
G01*
X91075000Y-9237500D01*
G75*
G02*
X90837500Y-9475000I-237500J0D01*
G01*
X90337500Y-9475000D01*
G75*
G02*
X90100000Y-9237500I0J237500D01*
G01*
G37*
G36*
G01*
X90100000Y-5237500D02*
X90100000Y-4762500D01*
G75*
G02*
X90337500Y-4525000I237500J0D01*
G01*
X90837500Y-4525000D01*
G75*
G02*
X91075000Y-4762500I0J-237500D01*
G01*
X91075000Y-5237500D01*
G75*
G02*
X90837500Y-5475000I-237500J0D01*
G01*
X90337500Y-5475000D01*
G75*
G02*
X90100000Y-5237500I0J237500D01*
G01*
G37*
G36*
G01*
X91925000Y-5237500D02*
X91925000Y-4762500D01*
G75*
G02*
X92162500Y-4525000I237500J0D01*
G01*
X92662500Y-4525000D01*
G75*
G02*
X92900000Y-4762500I0J-237500D01*
G01*
X92900000Y-5237500D01*
G75*
G02*
X92662500Y-5475000I-237500J0D01*
G01*
X92162500Y-5475000D01*
G75*
G02*
X91925000Y-5237500I0J237500D01*
G01*
G37*
G36*
G01*
X49575000Y-10262500D02*
X49575000Y-10737500D01*
G75*
G02*
X49337500Y-10975000I-237500J0D01*
G01*
X48837500Y-10975000D01*
G75*
G02*
X48600000Y-10737500I0J237500D01*
G01*
X48600000Y-10262500D01*
G75*
G02*
X48837500Y-10025000I237500J0D01*
G01*
X49337500Y-10025000D01*
G75*
G02*
X49575000Y-10262500I0J-237500D01*
G01*
G37*
G36*
G01*
X51400000Y-10262500D02*
X51400000Y-10737500D01*
G75*
G02*
X51162500Y-10975000I-237500J0D01*
G01*
X50662500Y-10975000D01*
G75*
G02*
X50425000Y-10737500I0J237500D01*
G01*
X50425000Y-10262500D01*
G75*
G02*
X50662500Y-10025000I237500J0D01*
G01*
X51162500Y-10025000D01*
G75*
G02*
X51400000Y-10262500I0J-237500D01*
G01*
G37*
G36*
G01*
X29737500Y-3575000D02*
X29262500Y-3575000D01*
G75*
G02*
X29025000Y-3337500I0J237500D01*
G01*
X29025000Y-2837500D01*
G75*
G02*
X29262500Y-2600000I237500J0D01*
G01*
X29737500Y-2600000D01*
G75*
G02*
X29975000Y-2837500I0J-237500D01*
G01*
X29975000Y-3337500D01*
G75*
G02*
X29737500Y-3575000I-237500J0D01*
G01*
G37*
G36*
G01*
X29737500Y-5400000D02*
X29262500Y-5400000D01*
G75*
G02*
X29025000Y-5162500I0J237500D01*
G01*
X29025000Y-4662500D01*
G75*
G02*
X29262500Y-4425000I237500J0D01*
G01*
X29737500Y-4425000D01*
G75*
G02*
X29975000Y-4662500I0J-237500D01*
G01*
X29975000Y-5162500D01*
G75*
G02*
X29737500Y-5400000I-237500J0D01*
G01*
G37*
G36*
G01*
X26600000Y-12237500D02*
X26600000Y-11762500D01*
G75*
G02*
X26837500Y-11525000I237500J0D01*
G01*
X27337500Y-11525000D01*
G75*
G02*
X27575000Y-11762500I0J-237500D01*
G01*
X27575000Y-12237500D01*
G75*
G02*
X27337500Y-12475000I-237500J0D01*
G01*
X26837500Y-12475000D01*
G75*
G02*
X26600000Y-12237500I0J237500D01*
G01*
G37*
G36*
G01*
X28425000Y-12237500D02*
X28425000Y-11762500D01*
G75*
G02*
X28662500Y-11525000I237500J0D01*
G01*
X29162500Y-11525000D01*
G75*
G02*
X29400000Y-11762500I0J-237500D01*
G01*
X29400000Y-12237500D01*
G75*
G02*
X29162500Y-12475000I-237500J0D01*
G01*
X28662500Y-12475000D01*
G75*
G02*
X28425000Y-12237500I0J237500D01*
G01*
G37*
G36*
G01*
X17075000Y-9762500D02*
X17075000Y-10237500D01*
G75*
G02*
X16837500Y-10475000I-237500J0D01*
G01*
X16337500Y-10475000D01*
G75*
G02*
X16100000Y-10237500I0J237500D01*
G01*
X16100000Y-9762500D01*
G75*
G02*
X16337500Y-9525000I237500J0D01*
G01*
X16837500Y-9525000D01*
G75*
G02*
X17075000Y-9762500I0J-237500D01*
G01*
G37*
G36*
G01*
X18900000Y-9762500D02*
X18900000Y-10237500D01*
G75*
G02*
X18662500Y-10475000I-237500J0D01*
G01*
X18162500Y-10475000D01*
G75*
G02*
X17925000Y-10237500I0J237500D01*
G01*
X17925000Y-9762500D01*
G75*
G02*
X18162500Y-9525000I237500J0D01*
G01*
X18662500Y-9525000D01*
G75*
G02*
X18900000Y-9762500I0J-237500D01*
G01*
G37*
G36*
G01*
X72312500Y-30262500D02*
X72312500Y-30737500D01*
G75*
G02*
X72075000Y-30975000I-237500J0D01*
G01*
X71575000Y-30975000D01*
G75*
G02*
X71337500Y-30737500I0J237500D01*
G01*
X71337500Y-30262500D01*
G75*
G02*
X71575000Y-30025000I237500J0D01*
G01*
X72075000Y-30025000D01*
G75*
G02*
X72312500Y-30262500I0J-237500D01*
G01*
G37*
G36*
G01*
X70487500Y-30262500D02*
X70487500Y-30737500D01*
G75*
G02*
X70250000Y-30975000I-237500J0D01*
G01*
X69750000Y-30975000D01*
G75*
G02*
X69512500Y-30737500I0J237500D01*
G01*
X69512500Y-30262500D01*
G75*
G02*
X69750000Y-30025000I237500J0D01*
G01*
X70250000Y-30025000D01*
G75*
G02*
X70487500Y-30262500I0J-237500D01*
G01*
G37*
G36*
G01*
X63575000Y-11762500D02*
X63575000Y-12237500D01*
G75*
G02*
X63337500Y-12475000I-237500J0D01*
G01*
X62837500Y-12475000D01*
G75*
G02*
X62600000Y-12237500I0J237500D01*
G01*
X62600000Y-11762500D01*
G75*
G02*
X62837500Y-11525000I237500J0D01*
G01*
X63337500Y-11525000D01*
G75*
G02*
X63575000Y-11762500I0J-237500D01*
G01*
G37*
G36*
G01*
X65400000Y-11762500D02*
X65400000Y-12237500D01*
G75*
G02*
X65162500Y-12475000I-237500J0D01*
G01*
X64662500Y-12475000D01*
G75*
G02*
X64425000Y-12237500I0J237500D01*
G01*
X64425000Y-11762500D01*
G75*
G02*
X64662500Y-11525000I237500J0D01*
G01*
X65162500Y-11525000D01*
G75*
G02*
X65400000Y-11762500I0J-237500D01*
G01*
G37*
G36*
G01*
X9900000Y-8762500D02*
X9900000Y-9237500D01*
G75*
G02*
X9662500Y-9475000I-237500J0D01*
G01*
X9162500Y-9475000D01*
G75*
G02*
X8925000Y-9237500I0J237500D01*
G01*
X8925000Y-8762500D01*
G75*
G02*
X9162500Y-8525000I237500J0D01*
G01*
X9662500Y-8525000D01*
G75*
G02*
X9900000Y-8762500I0J-237500D01*
G01*
G37*
G36*
G01*
X8075000Y-8762500D02*
X8075000Y-9237500D01*
G75*
G02*
X7837500Y-9475000I-237500J0D01*
G01*
X7337500Y-9475000D01*
G75*
G02*
X7100000Y-9237500I0J237500D01*
G01*
X7100000Y-8762500D01*
G75*
G02*
X7337500Y-8525000I237500J0D01*
G01*
X7837500Y-8525000D01*
G75*
G02*
X8075000Y-8762500I0J-237500D01*
G01*
G37*
G36*
G01*
X33425000Y-12237500D02*
X33425000Y-11762500D01*
G75*
G02*
X33662500Y-11525000I237500J0D01*
G01*
X34162500Y-11525000D01*
G75*
G02*
X34400000Y-11762500I0J-237500D01*
G01*
X34400000Y-12237500D01*
G75*
G02*
X34162500Y-12475000I-237500J0D01*
G01*
X33662500Y-12475000D01*
G75*
G02*
X33425000Y-12237500I0J237500D01*
G01*
G37*
G36*
G01*
X31600000Y-12237500D02*
X31600000Y-11762500D01*
G75*
G02*
X31837500Y-11525000I237500J0D01*
G01*
X32337500Y-11525000D01*
G75*
G02*
X32575000Y-11762500I0J-237500D01*
G01*
X32575000Y-12237500D01*
G75*
G02*
X32337500Y-12475000I-237500J0D01*
G01*
X31837500Y-12475000D01*
G75*
G02*
X31600000Y-12237500I0J237500D01*
G01*
G37*
G36*
G01*
X9900000Y-6762500D02*
X9900000Y-7237500D01*
G75*
G02*
X9662500Y-7475000I-237500J0D01*
G01*
X9162500Y-7475000D01*
G75*
G02*
X8925000Y-7237500I0J237500D01*
G01*
X8925000Y-6762500D01*
G75*
G02*
X9162500Y-6525000I237500J0D01*
G01*
X9662500Y-6525000D01*
G75*
G02*
X9900000Y-6762500I0J-237500D01*
G01*
G37*
G36*
G01*
X8075000Y-6762500D02*
X8075000Y-7237500D01*
G75*
G02*
X7837500Y-7475000I-237500J0D01*
G01*
X7337500Y-7475000D01*
G75*
G02*
X7100000Y-7237500I0J237500D01*
G01*
X7100000Y-6762500D01*
G75*
G02*
X7337500Y-6525000I237500J0D01*
G01*
X7837500Y-6525000D01*
G75*
G02*
X8075000Y-6762500I0J-237500D01*
G01*
G37*
G36*
G01*
X8075000Y-10762500D02*
X8075000Y-11237500D01*
G75*
G02*
X7837500Y-11475000I-237500J0D01*
G01*
X7337500Y-11475000D01*
G75*
G02*
X7100000Y-11237500I0J237500D01*
G01*
X7100000Y-10762500D01*
G75*
G02*
X7337500Y-10525000I237500J0D01*
G01*
X7837500Y-10525000D01*
G75*
G02*
X8075000Y-10762500I0J-237500D01*
G01*
G37*
G36*
G01*
X9900000Y-10762500D02*
X9900000Y-11237500D01*
G75*
G02*
X9662500Y-11475000I-237500J0D01*
G01*
X9162500Y-11475000D01*
G75*
G02*
X8925000Y-11237500I0J237500D01*
G01*
X8925000Y-10762500D01*
G75*
G02*
X9162500Y-10525000I237500J0D01*
G01*
X9662500Y-10525000D01*
G75*
G02*
X9900000Y-10762500I0J-237500D01*
G01*
G37*
G36*
G01*
X23400000Y-9762500D02*
X23400000Y-10237500D01*
G75*
G02*
X23162500Y-10475000I-237500J0D01*
G01*
X22662500Y-10475000D01*
G75*
G02*
X22425000Y-10237500I0J237500D01*
G01*
X22425000Y-9762500D01*
G75*
G02*
X22662500Y-9525000I237500J0D01*
G01*
X23162500Y-9525000D01*
G75*
G02*
X23400000Y-9762500I0J-237500D01*
G01*
G37*
G36*
G01*
X21575000Y-9762500D02*
X21575000Y-10237500D01*
G75*
G02*
X21337500Y-10475000I-237500J0D01*
G01*
X20837500Y-10475000D01*
G75*
G02*
X20600000Y-10237500I0J237500D01*
G01*
X20600000Y-9762500D01*
G75*
G02*
X20837500Y-9525000I237500J0D01*
G01*
X21337500Y-9525000D01*
G75*
G02*
X21575000Y-9762500I0J-237500D01*
G01*
G37*
G36*
G01*
X90100000Y-11237500D02*
X90100000Y-10762500D01*
G75*
G02*
X90337500Y-10525000I237500J0D01*
G01*
X90837500Y-10525000D01*
G75*
G02*
X91075000Y-10762500I0J-237500D01*
G01*
X91075000Y-11237500D01*
G75*
G02*
X90837500Y-11475000I-237500J0D01*
G01*
X90337500Y-11475000D01*
G75*
G02*
X90100000Y-11237500I0J237500D01*
G01*
G37*
G36*
G01*
X91925000Y-11237500D02*
X91925000Y-10762500D01*
G75*
G02*
X92162500Y-10525000I237500J0D01*
G01*
X92662500Y-10525000D01*
G75*
G02*
X92900000Y-10762500I0J-237500D01*
G01*
X92900000Y-11237500D01*
G75*
G02*
X92662500Y-11475000I-237500J0D01*
G01*
X92162500Y-11475000D01*
G75*
G02*
X91925000Y-11237500I0J237500D01*
G01*
G37*
G36*
G01*
X8075000Y-4762500D02*
X8075000Y-5237500D01*
G75*
G02*
X7837500Y-5475000I-237500J0D01*
G01*
X7337500Y-5475000D01*
G75*
G02*
X7100000Y-5237500I0J237500D01*
G01*
X7100000Y-4762500D01*
G75*
G02*
X7337500Y-4525000I237500J0D01*
G01*
X7837500Y-4525000D01*
G75*
G02*
X8075000Y-4762500I0J-237500D01*
G01*
G37*
G36*
G01*
X9900000Y-4762500D02*
X9900000Y-5237500D01*
G75*
G02*
X9662500Y-5475000I-237500J0D01*
G01*
X9162500Y-5475000D01*
G75*
G02*
X8925000Y-5237500I0J237500D01*
G01*
X8925000Y-4762500D01*
G75*
G02*
X9162500Y-4525000I237500J0D01*
G01*
X9662500Y-4525000D01*
G75*
G02*
X9900000Y-4762500I0J-237500D01*
G01*
G37*
D21*
X2500000Y-26000000D03*
X7000000Y-26000000D03*
X2500000Y-32500000D03*
X7000000Y-32500000D03*
D22*
X70850000Y-7000000D03*
D23*
X77150000Y-7000000D03*
X77150000Y-4700000D03*
X77150000Y-9300000D03*
D24*
X56500000Y-25755000D03*
D25*
X64000000Y-33255000D03*
X64000000Y-31985000D03*
X64000000Y-30715000D03*
X64000000Y-29445000D03*
X64000000Y-28175000D03*
X64000000Y-26905000D03*
X64000000Y-25635000D03*
X64000000Y-24365000D03*
X64000000Y-23095000D03*
X64000000Y-21825000D03*
X64000000Y-20555000D03*
X64000000Y-19285000D03*
X64000000Y-18015000D03*
X64000000Y-16745000D03*
D26*
X61215000Y-15745000D03*
X59945000Y-15745000D03*
X58675000Y-15745000D03*
X57405000Y-15745000D03*
X56135000Y-15745000D03*
X54865000Y-15745000D03*
X53595000Y-15745000D03*
X52325000Y-15745000D03*
X51055000Y-15745000D03*
X49785000Y-15745000D03*
D25*
X47000000Y-16745000D03*
X47000000Y-18015000D03*
X47000000Y-19285000D03*
X47000000Y-20555000D03*
X47000000Y-21825000D03*
X47000000Y-23095000D03*
X47000000Y-24365000D03*
X47000000Y-25635000D03*
X47000000Y-26905000D03*
X47000000Y-28175000D03*
X47000000Y-29445000D03*
X47000000Y-30715000D03*
X47000000Y-31985000D03*
X47000000Y-33255000D03*
M02*
