M48
; DRILL file {KiCad (5.1.10)-1} date 08/19/21 14:27:17
; FORMAT={-:-/ absolute / inch / decimal}
; #@! TF.CreationDate,2021-08-19T14:27:17+09:00
; #@! TF.GenerationSoftware,Kicad,Pcbnew,(5.1.10)-1
; #@! TF.FileFunction,Plated,1,2,PTH
FMAT,2
INCH
T1C0.0118
T2C0.0295
T3C0.0354
T4C0.0394
T5C0.0433
%
G90
G05
T1
X0.374Y-0.1378
X0.4921Y-0.2362
X0.5906Y-0.3346
X0.7874Y-0.3937
X0.8661Y-0.1575
X0.8858Y-0.3346
X0.8858Y-0.8661
X1.0433Y-0.2559
X1.1024Y-0.1575
X1.1417Y-0.2559
X1.2205Y-1.1614
X1.378Y-0.2362
X1.4567Y-0.1575
X1.4764Y-0.7087
X1.4764Y-0.748
X1.5157Y-0.5512
X1.5157Y-1.0433
X1.5354Y-0.6496
X1.6102Y-0.5315
X1.6142Y-0.1575
X1.6142Y-0.2362
X1.6339Y-0.5315
X1.6732Y-0.315
X1.7126Y-1.2598
X1.7323Y-0.748
X1.752Y-1.2008
X1.7717Y-0.3543
X1.7717Y-0.6496
X1.8307Y-0.2362
X1.8307Y-0.3543
X1.8504Y-0.4724
X1.8898Y-0.315
X1.8898Y-0.3543
X1.9291Y-0.8071
X1.9882Y-0.4724
X2.2835Y-0.4528
X2.3031Y-0.374
X2.3819Y-0.1378
X2.3819Y-0.2362
X2.4016Y-0.5118
X2.4409Y-0.8071
X2.4606Y-1.2598
X2.5984Y-0.7087
X2.5984Y-0.7677
X2.5984Y-1.122
X2.5984Y-1.1614
X2.6575Y-0.6693
X2.6969Y-0.9252
X2.6969Y-1.1024
X2.7362Y-0.5512
X2.7756Y-0.8071
X2.7756Y-0.9055
X2.7953Y-0.374
X2.7953Y-0.4528
X2.815Y-1.1024
X2.9528Y-0.9449
X3.0315Y-0.0787
X3.0906Y-0.6102
X3.1102Y-0.4528
X3.1181Y-0.3661
X3.2283Y-0.6102
X3.3465Y-0.2559
X3.3661Y-1.063
X3.3661Y-1.1024
X3.4055Y-0.9449
X3.6811Y-0.2756
T2
X0.1378Y-0.1181
X0.1378Y-0.1969
X0.1378Y-0.2756
X0.1378Y-0.3543
X0.1378Y-0.4331
X0.1378Y-0.5118
X3.7992Y-0.1181
X3.7992Y-0.1969
X3.7992Y-0.2756
X3.7992Y-0.3543
X3.7992Y-0.4331
X3.7992Y-0.5118
T3
X1.1024Y-1.1024
X1.1024Y-1.2024
X1.3583Y-1.1024
X1.3583Y-1.2024
T4
X0.648Y-1.2992
X0.748Y-1.2992
X1.6142Y-0.9598
X1.6142Y-1.0598
X1.6142Y-1.1598
X1.6142Y-1.2598
X3.0299Y-1.2992
X3.1299Y-1.2992
X3.5433Y-0.7874
X3.5433Y-0.8874
X3.5433Y-0.9874
X3.5433Y-1.0874
X3.5433Y-1.1874
X3.6433Y-0.7874
X3.6433Y-0.8874
X3.6433Y-0.9874
X3.6433Y-1.0874
X3.6433Y-1.1874
T5
X0.0984Y-1.0236
X0.0984Y-1.2795
X0.2756Y-1.0236
X0.2756Y-1.2795
X0.6102Y-1.0827
X0.7102Y-1.0827
X0.8102Y-1.0827
X2.9528Y-0.763
X2.9528Y-1.063
X3.1299Y-0.763
X3.1299Y-1.063
T0
M30
