G04 #@! TF.GenerationSoftware,KiCad,Pcbnew,(5.1.10)-1*
G04 #@! TF.CreationDate,2021-08-19T14:27:16+09:00*
G04 #@! TF.ProjectId,driver,64726976-6572-42e6-9b69-6361645f7063,rev?*
G04 #@! TF.SameCoordinates,Original*
G04 #@! TF.FileFunction,Copper,L2,Bot*
G04 #@! TF.FilePolarity,Positive*
%FSLAX46Y46*%
G04 Gerber Fmt 4.6, Leading zero omitted, Abs format (unit mm)*
G04 Created by KiCad (PCBNEW (5.1.10)-1) date 2021-08-19 14:27:16*
%MOMM*%
%LPD*%
G01*
G04 APERTURE LIST*
G04 #@! TA.AperFunction,ComponentPad*
%ADD10C,1.800000*%
G04 #@! TD*
G04 #@! TA.AperFunction,ComponentPad*
%ADD11R,1.800000X1.800000*%
G04 #@! TD*
G04 #@! TA.AperFunction,ComponentPad*
%ADD12R,2.200000X2.200000*%
G04 #@! TD*
G04 #@! TA.AperFunction,ComponentPad*
%ADD13O,2.200000X2.200000*%
G04 #@! TD*
G04 #@! TA.AperFunction,ComponentPad*
%ADD14O,1.700000X1.700000*%
G04 #@! TD*
G04 #@! TA.AperFunction,ComponentPad*
%ADD15R,1.700000X1.700000*%
G04 #@! TD*
G04 #@! TA.AperFunction,ComponentPad*
%ADD16O,1.750000X1.200000*%
G04 #@! TD*
G04 #@! TA.AperFunction,ComponentPad*
%ADD17R,1.905000X2.000000*%
G04 #@! TD*
G04 #@! TA.AperFunction,ComponentPad*
%ADD18O,1.905000X2.000000*%
G04 #@! TD*
G04 #@! TA.AperFunction,ComponentPad*
%ADD19C,2.000000*%
G04 #@! TD*
G04 #@! TA.AperFunction,ViaPad*
%ADD20C,0.400000*%
G04 #@! TD*
G04 #@! TA.AperFunction,Conductor*
%ADD21C,0.250000*%
G04 #@! TD*
G04 #@! TA.AperFunction,Conductor*
%ADD22C,0.400000*%
G04 #@! TD*
G04 #@! TA.AperFunction,Conductor*
%ADD23C,0.254000*%
G04 #@! TD*
G04 #@! TA.AperFunction,Conductor*
%ADD24C,0.100000*%
G04 #@! TD*
G04 APERTURE END LIST*
D10*
X28000000Y-30540000D03*
D11*
X28000000Y-28000000D03*
X34500000Y-28000000D03*
D10*
X34500000Y-30540000D03*
D12*
X79500000Y-27000000D03*
D13*
X79500000Y-19380000D03*
X75000000Y-19380000D03*
D12*
X75000000Y-27000000D03*
D14*
X16460000Y-33000000D03*
D15*
X19000000Y-33000000D03*
X79500000Y-33000000D03*
D14*
X76960000Y-33000000D03*
D15*
X41000000Y-32000000D03*
D14*
X41000000Y-29460000D03*
X41000000Y-26920000D03*
X41000000Y-24380000D03*
D16*
X3500000Y-3000000D03*
X3500000Y-5000000D03*
X3500000Y-7000000D03*
X3500000Y-9000000D03*
X3500000Y-11000000D03*
G04 #@! TA.AperFunction,ComponentPad*
G36*
G01*
X4125001Y-13600000D02*
X2874999Y-13600000D01*
G75*
G02*
X2625000Y-13350001I0J249999D01*
G01*
X2625000Y-12649999D01*
G75*
G02*
X2874999Y-12400000I249999J0D01*
G01*
X4125001Y-12400000D01*
G75*
G02*
X4375000Y-12649999I0J-249999D01*
G01*
X4375000Y-13350001D01*
G75*
G02*
X4125001Y-13600000I-249999J0D01*
G01*
G37*
G04 #@! TD.AperFunction*
G04 #@! TA.AperFunction,ComponentPad*
G36*
G01*
X95874999Y-2400000D02*
X97125001Y-2400000D01*
G75*
G02*
X97375000Y-2649999I0J-249999D01*
G01*
X97375000Y-3350001D01*
G75*
G02*
X97125001Y-3600000I-249999J0D01*
G01*
X95874999Y-3600000D01*
G75*
G02*
X95625000Y-3350001I0J249999D01*
G01*
X95625000Y-2649999D01*
G75*
G02*
X95874999Y-2400000I249999J0D01*
G01*
G37*
G04 #@! TD.AperFunction*
X96500000Y-5000000D03*
X96500000Y-7000000D03*
X96500000Y-9000000D03*
X96500000Y-11000000D03*
X96500000Y-13000000D03*
D15*
X90000000Y-20000000D03*
D14*
X92540000Y-20000000D03*
X90000000Y-22540000D03*
X92540000Y-22540000D03*
X90000000Y-25080000D03*
X92540000Y-25080000D03*
X90000000Y-27620000D03*
X92540000Y-27620000D03*
X90000000Y-30160000D03*
X92540000Y-30160000D03*
D17*
X15500000Y-27500000D03*
D18*
X18040000Y-27500000D03*
X20580000Y-27500000D03*
D19*
X2500000Y-26000000D03*
X7000000Y-26000000D03*
X2500000Y-32500000D03*
X7000000Y-32500000D03*
D20*
X85000000Y-6500000D03*
X79000000Y-11500000D03*
X79200000Y-9300000D03*
X60500000Y-3500000D03*
X60500000Y-6000000D03*
X58000000Y-11500000D03*
X58500000Y-9500000D03*
X22500000Y-8500000D03*
X15000000Y-8500000D03*
X22500000Y-22000000D03*
X38500000Y-26500000D03*
X38500000Y-14000000D03*
X50500000Y-12000000D03*
X39000000Y-16500000D03*
X37500000Y-18000000D03*
X61000000Y-13000000D03*
X26500000Y-6500000D03*
X29000000Y-6500000D03*
X47000000Y-12000000D03*
X67500000Y-17000000D03*
X68500000Y-23500000D03*
X68500000Y-28000000D03*
X86500000Y-24000000D03*
X22000000Y-4000000D03*
X46500000Y-6000000D03*
X46500000Y-9000000D03*
X42500000Y-8000000D03*
X31000000Y-29500000D03*
X77000000Y-2000000D03*
X28000000Y-4000000D03*
X45000000Y-9000000D03*
X37000000Y-4000000D03*
X41000000Y-4000000D03*
X71000000Y-11500000D03*
X71000000Y-9500000D03*
X69500000Y-14000000D03*
X70500000Y-20500000D03*
X70500000Y-23000000D03*
X71500000Y-28000000D03*
X62500000Y-32000000D03*
X44000000Y-19000000D03*
X37500000Y-19000000D03*
X75000000Y-24000000D03*
X9500000Y-3500000D03*
X48000000Y-8000000D03*
X93500000Y-7000000D03*
X48000000Y-9000000D03*
X66000000Y-29500000D03*
X66000000Y-28500000D03*
X85500000Y-27000000D03*
X66000000Y-19500000D03*
X82000000Y-15500000D03*
X78500000Y-15500000D03*
X49000000Y-20500000D03*
X85500000Y-28000000D03*
X66000000Y-18000000D03*
X44500000Y-30500000D03*
X45000000Y-16500000D03*
X41500000Y-13500000D03*
X41000000Y-6000000D03*
X20000000Y-10000000D03*
X43500000Y-32000000D03*
X40899997Y-13500000D03*
X35000000Y-6000000D03*
X12500000Y-6000000D03*
X62000000Y-20500000D03*
D21*
X85000000Y-6500000D02*
X88500000Y-3000000D01*
X79000000Y-9500000D02*
X79200000Y-9300000D01*
X79000000Y-11500000D02*
X79000000Y-9500000D01*
X79000000Y-11500000D02*
X81500000Y-11500000D01*
X75000000Y-15500000D02*
X79000000Y-11500000D01*
X75000000Y-19380000D02*
X75000000Y-15500000D01*
X60500000Y-3500000D02*
X60500000Y-6000000D01*
X58000000Y-10000000D02*
X58500000Y-9500000D01*
X58000000Y-11500000D02*
X58000000Y-10000000D01*
X22500000Y-8500000D02*
X15000000Y-8500000D01*
X8000000Y-8500000D02*
X3500000Y-13000000D01*
X15000000Y-8500000D02*
X8000000Y-8500000D01*
X22500000Y-25580000D02*
X20580000Y-27500000D01*
X22500000Y-22000000D02*
X22500000Y-25580000D01*
X38880000Y-26500000D02*
X41000000Y-24380000D01*
X38500000Y-26500000D02*
X38880000Y-26500000D01*
X38699999Y-14199999D02*
X45800001Y-14199999D01*
X38500000Y-14000000D02*
X38699999Y-14199999D01*
X45800001Y-14199999D02*
X48000000Y-12000000D01*
X48000000Y-12000000D02*
X50500000Y-12000000D01*
X39000000Y-16500000D02*
X37500000Y-18000000D01*
X59500000Y-11500000D02*
X58000000Y-11500000D01*
X61000000Y-13000000D02*
X59500000Y-11500000D01*
X26500000Y-6500000D02*
X29000000Y-6500000D01*
X90000000Y-18500000D02*
X90000000Y-20000000D01*
X90500000Y-18000000D02*
X90000000Y-18500000D01*
X94000000Y-18000000D02*
X90500000Y-18000000D01*
X96000000Y-20000000D02*
X94000000Y-18000000D01*
X96000000Y-30000000D02*
X96000000Y-20000000D01*
X93500000Y-32500000D02*
X96000000Y-30000000D01*
X88500000Y-32500000D02*
X93500000Y-32500000D01*
X87000000Y-31000000D02*
X88500000Y-32500000D01*
X78000000Y-31000000D02*
X87000000Y-31000000D01*
X76960000Y-32040000D02*
X78000000Y-31000000D01*
X76960000Y-33000000D02*
X76960000Y-32040000D01*
X88500000Y-18500000D02*
X87500000Y-17500000D01*
X90000000Y-18500000D02*
X88500000Y-18500000D01*
X81500000Y-11500000D02*
X87500000Y-17500000D01*
X88500000Y-3000000D02*
X96500000Y-3000000D01*
D22*
X3500000Y-3000000D02*
X4500000Y-2000000D01*
X28000000Y-4000000D02*
X28000000Y-2000000D01*
X4500000Y-2000000D02*
X28000000Y-2000000D01*
X38500000Y-2000000D02*
X39000000Y-2000000D01*
X28000000Y-2000000D02*
X38500000Y-2000000D01*
X39000000Y-2000000D02*
X40000000Y-3000000D01*
X59500000Y-3000000D02*
X60500000Y-2000000D01*
X60500000Y-2000000D02*
X77000000Y-2000000D01*
X44000000Y-7000000D02*
X44000000Y-3000000D01*
X44000000Y-3000000D02*
X59500000Y-3000000D01*
X40000000Y-3000000D02*
X44000000Y-3000000D01*
X44000000Y-7000000D02*
X44000000Y-8000000D01*
X44000000Y-8000000D02*
X45000000Y-9000000D01*
X37000000Y-4000000D02*
X41000000Y-4000000D01*
X71000000Y-11500000D02*
X71000000Y-9500000D01*
X69500000Y-14000000D02*
X69500000Y-19500000D01*
X69500000Y-19500000D02*
X70500000Y-20500000D01*
X70500000Y-27000000D02*
X71500000Y-28000000D01*
X70500000Y-23000000D02*
X70500000Y-27000000D01*
X41000000Y-32000000D02*
X42500000Y-33500000D01*
X42500000Y-33500000D02*
X45500000Y-33500000D01*
X45500000Y-33500000D02*
X46000000Y-33500000D01*
X47500000Y-32000000D02*
X62500000Y-32000000D01*
X46000000Y-33500000D02*
X47500000Y-32000000D01*
D21*
X39500000Y-19000000D02*
X37500000Y-19000000D01*
X44000000Y-19000000D02*
X39500000Y-19000000D01*
X75000000Y-24000000D02*
X75000000Y-27000000D01*
X4000000Y-9000000D02*
X3500000Y-9000000D01*
X9500000Y-3500000D02*
X4000000Y-9000000D01*
X48000000Y-8000000D02*
X90000000Y-8000000D01*
X90000000Y-8000000D02*
X91000000Y-7000000D01*
X91500000Y-7000000D02*
X93500000Y-7000000D01*
X91000000Y-7000000D02*
X91500000Y-7000000D01*
X95500000Y-5000000D02*
X96500000Y-5000000D01*
X94500000Y-7500000D02*
X94500000Y-6000000D01*
X94000000Y-8000000D02*
X94500000Y-7500000D01*
X48000000Y-9000000D02*
X48549990Y-8450010D01*
X48549990Y-8450010D02*
X93549990Y-8450010D01*
X93549990Y-8450010D02*
X94000000Y-8000000D01*
X94500000Y-6000000D02*
X95500000Y-5000000D01*
X94000000Y-28500000D02*
X94000000Y-21460000D01*
X94000000Y-21460000D02*
X92540000Y-20000000D01*
X93515001Y-28984999D02*
X94000000Y-28500000D01*
X89435999Y-28984999D02*
X93515001Y-28984999D01*
X88500000Y-29000000D02*
X89420998Y-29000000D01*
X88000000Y-29500000D02*
X88500000Y-29000000D01*
X89420998Y-29000000D02*
X89435999Y-28984999D01*
X66000000Y-29500000D02*
X88000000Y-29500000D01*
X91175001Y-23904999D02*
X92540000Y-22540000D01*
X91175001Y-25644001D02*
X91175001Y-23904999D01*
X90374003Y-26444999D02*
X91175001Y-25644001D01*
X88555001Y-26444999D02*
X90374003Y-26444999D01*
X86000000Y-29000000D02*
X88555001Y-26444999D01*
X66500000Y-29000000D02*
X86000000Y-29000000D01*
X66000000Y-28500000D02*
X66500000Y-29000000D01*
X85500000Y-27000000D02*
X80500000Y-22000000D01*
X68500000Y-22000000D02*
X66000000Y-19500000D01*
X80500000Y-22000000D02*
X68500000Y-22000000D01*
X82000000Y-15500000D02*
X78500000Y-15500000D01*
X58660000Y-30160000D02*
X90000000Y-30160000D01*
X49000000Y-20500000D02*
X58660000Y-30160000D01*
X86025001Y-26747999D02*
X80777002Y-21500000D01*
X86025001Y-27474999D02*
X86025001Y-26747999D01*
X85500000Y-28000000D02*
X86025001Y-27474999D01*
X69500000Y-21500000D02*
X66000000Y-18000000D01*
X80777002Y-21500000D02*
X69500000Y-21500000D01*
X44699999Y-16800001D02*
X45000000Y-16500000D01*
X44699999Y-30300001D02*
X44699999Y-16800001D01*
X44500000Y-30500000D02*
X44699999Y-30300001D01*
X41500000Y-6500000D02*
X41000000Y-6000000D01*
X41500000Y-13500000D02*
X41500000Y-6500000D01*
X20000000Y-10000000D02*
X27500000Y-10000000D01*
X27500000Y-10000000D02*
X37500000Y-20000000D01*
X37500000Y-20000000D02*
X41500000Y-20000000D01*
X43500000Y-22000000D02*
X43500000Y-32000000D01*
X41500000Y-20000000D02*
X43500000Y-22000000D01*
X40899997Y-13500000D02*
X40899997Y-7899997D01*
X39000000Y-6000000D02*
X35000000Y-6000000D01*
X40899997Y-7899997D02*
X39000000Y-6000000D01*
X12500000Y-6000000D02*
X24500000Y-6000000D01*
X24500000Y-6000000D02*
X34000000Y-15500000D01*
X34000000Y-15500000D02*
X44777002Y-15500000D01*
X44777002Y-15500000D02*
X46000000Y-15500000D01*
X51000000Y-20500000D02*
X62000000Y-20500000D01*
X46000000Y-15500000D02*
X51000000Y-20500000D01*
D23*
X39848001Y-1678447D02*
X39613505Y-1443952D01*
X39587606Y-1412394D01*
X39461679Y-1309048D01*
X39318010Y-1232255D01*
X39162120Y-1184966D01*
X39040624Y-1173000D01*
X39040614Y-1173000D01*
X39000000Y-1169000D01*
X38959386Y-1173000D01*
X28040624Y-1173000D01*
X28000000Y-1168999D01*
X27959376Y-1173000D01*
X4540614Y-1173000D01*
X4500000Y-1169000D01*
X4459386Y-1173000D01*
X4459376Y-1173000D01*
X4337880Y-1184966D01*
X4229278Y-1217910D01*
X4181989Y-1232255D01*
X4038320Y-1309048D01*
X3943948Y-1386497D01*
X3943941Y-1386504D01*
X3912394Y-1412394D01*
X3886503Y-1443942D01*
X3557446Y-1773000D01*
X3164732Y-1773000D01*
X2984466Y-1790755D01*
X2753176Y-1860916D01*
X2540017Y-1974851D01*
X2353183Y-2128183D01*
X2199851Y-2315017D01*
X2085916Y-2528176D01*
X2015755Y-2759466D01*
X1992064Y-3000000D01*
X2015755Y-3240534D01*
X2085916Y-3471824D01*
X2199851Y-3684983D01*
X2353183Y-3871817D01*
X2509373Y-4000000D01*
X2353183Y-4128183D01*
X2199851Y-4315017D01*
X2085916Y-4528176D01*
X2015755Y-4759466D01*
X1992064Y-5000000D01*
X2015755Y-5240534D01*
X2085916Y-5471824D01*
X2199851Y-5684983D01*
X2353183Y-5871817D01*
X2509373Y-6000000D01*
X2353183Y-6128183D01*
X2199851Y-6315017D01*
X2085916Y-6528176D01*
X2015755Y-6759466D01*
X1992064Y-7000000D01*
X2015755Y-7240534D01*
X2085916Y-7471824D01*
X2199851Y-7684983D01*
X2353183Y-7871817D01*
X2509373Y-8000000D01*
X2353183Y-8128183D01*
X2199851Y-8315017D01*
X2085916Y-8528176D01*
X2015755Y-8759466D01*
X1992064Y-9000000D01*
X2015755Y-9240534D01*
X2085916Y-9471824D01*
X2199851Y-9684983D01*
X2353183Y-9871817D01*
X2509373Y-10000000D01*
X2353183Y-10128183D01*
X2199851Y-10315017D01*
X2085916Y-10528176D01*
X2015755Y-10759466D01*
X1992064Y-11000000D01*
X2015755Y-11240534D01*
X2085916Y-11471824D01*
X2199851Y-11684983D01*
X2331805Y-11845768D01*
X2274972Y-11876146D01*
X2179499Y-11954499D01*
X2101146Y-12049972D01*
X2042924Y-12158896D01*
X2007072Y-12277086D01*
X1994966Y-12400000D01*
X1998000Y-12716250D01*
X2154750Y-12873000D01*
X3373000Y-12873000D01*
X3373000Y-12853000D01*
X3627000Y-12853000D01*
X3627000Y-12873000D01*
X4845250Y-12873000D01*
X5002000Y-12716250D01*
X5005034Y-12400000D01*
X4992928Y-12277086D01*
X4957076Y-12158896D01*
X4898854Y-12049972D01*
X4820501Y-11954499D01*
X4725028Y-11876146D01*
X4668195Y-11845768D01*
X4800149Y-11684983D01*
X4914084Y-11471824D01*
X4984245Y-11240534D01*
X5007936Y-11000000D01*
X4984245Y-10759466D01*
X4914084Y-10528176D01*
X4800149Y-10315017D01*
X4646817Y-10128183D01*
X4490627Y-10000000D01*
X4646817Y-9871817D01*
X4800149Y-9684983D01*
X4914084Y-9471824D01*
X4984245Y-9240534D01*
X5001867Y-9061621D01*
X9787392Y-4276096D01*
X9891731Y-4232877D01*
X10027181Y-4142372D01*
X10142372Y-4027181D01*
X10232877Y-3891731D01*
X10295218Y-3741227D01*
X10327000Y-3581452D01*
X10327000Y-3418548D01*
X10295218Y-3258773D01*
X10232877Y-3108269D01*
X10142372Y-2972819D01*
X10027181Y-2857628D01*
X9981343Y-2827000D01*
X27173001Y-2827000D01*
X27173000Y-3918548D01*
X27173000Y-4081452D01*
X27180965Y-4121492D01*
X27184966Y-4162119D01*
X27196818Y-4201188D01*
X27204782Y-4241227D01*
X27220404Y-4278942D01*
X27232255Y-4318009D01*
X27251500Y-4354013D01*
X27267123Y-4391731D01*
X27289805Y-4425677D01*
X27309048Y-4461678D01*
X27334946Y-4493234D01*
X27357628Y-4527181D01*
X27386496Y-4556049D01*
X27412394Y-4587606D01*
X27443952Y-4613505D01*
X27472819Y-4642372D01*
X27506762Y-4665052D01*
X27538321Y-4690952D01*
X27574327Y-4710198D01*
X27608269Y-4732877D01*
X27645982Y-4748498D01*
X27681990Y-4767745D01*
X27721061Y-4779597D01*
X27758773Y-4795218D01*
X27798809Y-4803182D01*
X27837880Y-4815034D01*
X27878508Y-4819035D01*
X27918548Y-4827000D01*
X27959376Y-4827000D01*
X28000000Y-4831001D01*
X28040624Y-4827000D01*
X28081452Y-4827000D01*
X28121492Y-4819035D01*
X28162119Y-4815034D01*
X28201188Y-4803182D01*
X28241227Y-4795218D01*
X28278942Y-4779596D01*
X28318009Y-4767745D01*
X28354013Y-4748500D01*
X28391731Y-4732877D01*
X28425677Y-4710195D01*
X28461678Y-4690952D01*
X28493234Y-4665054D01*
X28527181Y-4642372D01*
X28556049Y-4613504D01*
X28587606Y-4587606D01*
X28613505Y-4556048D01*
X28642372Y-4527181D01*
X28665052Y-4493238D01*
X28690952Y-4461679D01*
X28710198Y-4425673D01*
X28732877Y-4391731D01*
X28748498Y-4354018D01*
X28767745Y-4318010D01*
X28779597Y-4278939D01*
X28795218Y-4241227D01*
X28803182Y-4201191D01*
X28815034Y-4162120D01*
X28819035Y-4121491D01*
X28827000Y-4081452D01*
X28827000Y-2827000D01*
X38657446Y-2827000D01*
X39003446Y-3173000D01*
X36918548Y-3173000D01*
X36878509Y-3180965D01*
X36837880Y-3184966D01*
X36798809Y-3196818D01*
X36758773Y-3204782D01*
X36721061Y-3220403D01*
X36681990Y-3232255D01*
X36645982Y-3251502D01*
X36608269Y-3267123D01*
X36574327Y-3289802D01*
X36538321Y-3309048D01*
X36506762Y-3334948D01*
X36472819Y-3357628D01*
X36443952Y-3386495D01*
X36412394Y-3412394D01*
X36386495Y-3443952D01*
X36357628Y-3472819D01*
X36334948Y-3506762D01*
X36309048Y-3538321D01*
X36289802Y-3574327D01*
X36267123Y-3608269D01*
X36251502Y-3645982D01*
X36232255Y-3681990D01*
X36220403Y-3721061D01*
X36204782Y-3758773D01*
X36196818Y-3798809D01*
X36184966Y-3837880D01*
X36180965Y-3878508D01*
X36173000Y-3918548D01*
X36173000Y-3959376D01*
X36168999Y-4000000D01*
X36173000Y-4040623D01*
X36173000Y-4081452D01*
X36180965Y-4121492D01*
X36184966Y-4162120D01*
X36196818Y-4201191D01*
X36204782Y-4241227D01*
X36220403Y-4278939D01*
X36232255Y-4318010D01*
X36251502Y-4354018D01*
X36267123Y-4391731D01*
X36289802Y-4425673D01*
X36309048Y-4461679D01*
X36334948Y-4493238D01*
X36357628Y-4527181D01*
X36386495Y-4556048D01*
X36412394Y-4587606D01*
X36443952Y-4613505D01*
X36472819Y-4642372D01*
X36506762Y-4665052D01*
X36538321Y-4690952D01*
X36574327Y-4710198D01*
X36608269Y-4732877D01*
X36645982Y-4748498D01*
X36681990Y-4767745D01*
X36721061Y-4779597D01*
X36758773Y-4795218D01*
X36798809Y-4803182D01*
X36837880Y-4815034D01*
X36878509Y-4819035D01*
X36918548Y-4827000D01*
X41081452Y-4827000D01*
X41121491Y-4819035D01*
X41162120Y-4815034D01*
X41201191Y-4803182D01*
X41241227Y-4795218D01*
X41278939Y-4779597D01*
X41318010Y-4767745D01*
X41354018Y-4748498D01*
X41391731Y-4732877D01*
X41425673Y-4710198D01*
X41461679Y-4690952D01*
X41493238Y-4665052D01*
X41527181Y-4642372D01*
X41556048Y-4613505D01*
X41587606Y-4587606D01*
X41613505Y-4556048D01*
X41642372Y-4527181D01*
X41665052Y-4493238D01*
X41690952Y-4461679D01*
X41710198Y-4425673D01*
X41732877Y-4391731D01*
X41748498Y-4354018D01*
X41767745Y-4318010D01*
X41779597Y-4278939D01*
X41795218Y-4241227D01*
X41803182Y-4201191D01*
X41815034Y-4162120D01*
X41819035Y-4121492D01*
X41827000Y-4081452D01*
X41827000Y-4040623D01*
X41831001Y-4000000D01*
X41827000Y-3959376D01*
X41827000Y-3918548D01*
X41819035Y-3878508D01*
X41815034Y-3837880D01*
X41811734Y-3827000D01*
X43173001Y-3827000D01*
X43173000Y-6959376D01*
X43173000Y-6959377D01*
X43173001Y-7959377D01*
X43169000Y-8000000D01*
X43184967Y-8162120D01*
X43232256Y-8318010D01*
X43309048Y-8461679D01*
X43386498Y-8556051D01*
X43412395Y-8587606D01*
X43443947Y-8613500D01*
X44443948Y-9613503D01*
X44443959Y-9613512D01*
X44472819Y-9642372D01*
X44506755Y-9665048D01*
X44538320Y-9690952D01*
X44574331Y-9710201D01*
X44608269Y-9732877D01*
X44645978Y-9748497D01*
X44681989Y-9767745D01*
X44721061Y-9779597D01*
X44758773Y-9795218D01*
X44798813Y-9803183D01*
X44837879Y-9815033D01*
X44878499Y-9819034D01*
X44918548Y-9827000D01*
X44959386Y-9827000D01*
X45000000Y-9831000D01*
X45040614Y-9827000D01*
X45081452Y-9827000D01*
X45121501Y-9819033D01*
X45162120Y-9815033D01*
X45201184Y-9803183D01*
X45241227Y-9795218D01*
X45278941Y-9779596D01*
X45318010Y-9767745D01*
X45354019Y-9748498D01*
X45391731Y-9732877D01*
X45425670Y-9710200D01*
X45461680Y-9690952D01*
X45493242Y-9665049D01*
X45527181Y-9642372D01*
X45556046Y-9613507D01*
X45587606Y-9587606D01*
X45613507Y-9556046D01*
X45642372Y-9527181D01*
X45665049Y-9493242D01*
X45690952Y-9461680D01*
X45710200Y-9425670D01*
X45732877Y-9391731D01*
X45748498Y-9354019D01*
X45767745Y-9318010D01*
X45779596Y-9278941D01*
X45795218Y-9241227D01*
X45803183Y-9201184D01*
X45815033Y-9162120D01*
X45819033Y-9121501D01*
X45827000Y-9081452D01*
X45827000Y-9040614D01*
X45831000Y-9000000D01*
X45827000Y-8959386D01*
X45827000Y-8918548D01*
X45819034Y-8878499D01*
X45815033Y-8837879D01*
X45803183Y-8798813D01*
X45795218Y-8758773D01*
X45779597Y-8721061D01*
X45767745Y-8681989D01*
X45748497Y-8645978D01*
X45732877Y-8608269D01*
X45710201Y-8574331D01*
X45690952Y-8538320D01*
X45665048Y-8506755D01*
X45642372Y-8472819D01*
X45613512Y-8443959D01*
X45613503Y-8443948D01*
X45088103Y-7918548D01*
X47173000Y-7918548D01*
X47173000Y-8081452D01*
X47204782Y-8241227D01*
X47267123Y-8391731D01*
X47339466Y-8500000D01*
X47267123Y-8608269D01*
X47204782Y-8758773D01*
X47173000Y-8918548D01*
X47173000Y-9081452D01*
X47204782Y-9241227D01*
X47267123Y-9391731D01*
X47357628Y-9527181D01*
X47472819Y-9642372D01*
X47608269Y-9732877D01*
X47758773Y-9795218D01*
X47918548Y-9827000D01*
X48081452Y-9827000D01*
X48241227Y-9795218D01*
X48391731Y-9732877D01*
X48527181Y-9642372D01*
X48642372Y-9527181D01*
X48732877Y-9391731D01*
X48776095Y-9287393D01*
X48861479Y-9202010D01*
X70226183Y-9202010D01*
X70220407Y-9221052D01*
X70204782Y-9258773D01*
X70196816Y-9298818D01*
X70184967Y-9337880D01*
X70180967Y-9378499D01*
X70173000Y-9418548D01*
X70173000Y-9581452D01*
X70173001Y-9581457D01*
X70173000Y-11418548D01*
X70173000Y-11581452D01*
X70180965Y-11621492D01*
X70184966Y-11662119D01*
X70196818Y-11701188D01*
X70204782Y-11741227D01*
X70220404Y-11778942D01*
X70232255Y-11818009D01*
X70251500Y-11854013D01*
X70267123Y-11891731D01*
X70289805Y-11925677D01*
X70309048Y-11961678D01*
X70334946Y-11993234D01*
X70357628Y-12027181D01*
X70386496Y-12056049D01*
X70412394Y-12087606D01*
X70443952Y-12113505D01*
X70472819Y-12142372D01*
X70506762Y-12165052D01*
X70538321Y-12190952D01*
X70574327Y-12210198D01*
X70608269Y-12232877D01*
X70645982Y-12248498D01*
X70681990Y-12267745D01*
X70721061Y-12279597D01*
X70758773Y-12295218D01*
X70798809Y-12303182D01*
X70837880Y-12315034D01*
X70878508Y-12319035D01*
X70918548Y-12327000D01*
X70959376Y-12327000D01*
X71000000Y-12331001D01*
X71040624Y-12327000D01*
X71081452Y-12327000D01*
X71121492Y-12319035D01*
X71162119Y-12315034D01*
X71201188Y-12303182D01*
X71241227Y-12295218D01*
X71278942Y-12279596D01*
X71318009Y-12267745D01*
X71354013Y-12248500D01*
X71391731Y-12232877D01*
X71425677Y-12210195D01*
X71461678Y-12190952D01*
X71493234Y-12165054D01*
X71527181Y-12142372D01*
X71556049Y-12113504D01*
X71587606Y-12087606D01*
X71613505Y-12056048D01*
X71642372Y-12027181D01*
X71665052Y-11993238D01*
X71690952Y-11961679D01*
X71710198Y-11925673D01*
X71732877Y-11891731D01*
X71748498Y-11854018D01*
X71767745Y-11818010D01*
X71779597Y-11778939D01*
X71795218Y-11741227D01*
X71803182Y-11701191D01*
X71815034Y-11662120D01*
X71819035Y-11621491D01*
X71827000Y-11581452D01*
X71827000Y-9418548D01*
X71819035Y-9378509D01*
X71815034Y-9337880D01*
X71803182Y-9298809D01*
X71795218Y-9258773D01*
X71779597Y-9221061D01*
X71773818Y-9202010D01*
X93513055Y-9202010D01*
X93549990Y-9205648D01*
X93586925Y-9202010D01*
X93586928Y-9202010D01*
X93697408Y-9191129D01*
X93839160Y-9148128D01*
X93969800Y-9078300D01*
X94084307Y-8984327D01*
X94107857Y-8955631D01*
X95005622Y-8057866D01*
X95034317Y-8034317D01*
X95128290Y-7919810D01*
X95198118Y-7789170D01*
X95221662Y-7711559D01*
X95353183Y-7871817D01*
X95509373Y-8000000D01*
X95353183Y-8128183D01*
X95199851Y-8315017D01*
X95085916Y-8528176D01*
X95015755Y-8759466D01*
X94992064Y-9000000D01*
X95015755Y-9240534D01*
X95085916Y-9471824D01*
X95199851Y-9684983D01*
X95353183Y-9871817D01*
X95509373Y-10000000D01*
X95353183Y-10128183D01*
X95199851Y-10315017D01*
X95085916Y-10528176D01*
X95015755Y-10759466D01*
X94992064Y-11000000D01*
X95015755Y-11240534D01*
X95085916Y-11471824D01*
X95199851Y-11684983D01*
X95353183Y-11871817D01*
X95509373Y-12000000D01*
X95353183Y-12128183D01*
X95199851Y-12315017D01*
X95085916Y-12528176D01*
X95015755Y-12759466D01*
X94992064Y-13000000D01*
X95015755Y-13240534D01*
X95085916Y-13471824D01*
X95199851Y-13684983D01*
X95353183Y-13871817D01*
X95540017Y-14025149D01*
X95753176Y-14139084D01*
X95984466Y-14209245D01*
X96164732Y-14227000D01*
X96835268Y-14227000D01*
X97015534Y-14209245D01*
X97246824Y-14139084D01*
X97459983Y-14025149D01*
X97646817Y-13871817D01*
X97800149Y-13684983D01*
X97914084Y-13471824D01*
X97984245Y-13240534D01*
X98007936Y-13000000D01*
X97984245Y-12759466D01*
X97914084Y-12528176D01*
X97800149Y-12315017D01*
X97646817Y-12128183D01*
X97490627Y-12000000D01*
X97646817Y-11871817D01*
X97800149Y-11684983D01*
X97914084Y-11471824D01*
X97984245Y-11240534D01*
X98007936Y-11000000D01*
X97984245Y-10759466D01*
X97914084Y-10528176D01*
X97800149Y-10315017D01*
X97646817Y-10128183D01*
X97490627Y-10000000D01*
X97646817Y-9871817D01*
X97800149Y-9684983D01*
X97914084Y-9471824D01*
X97984245Y-9240534D01*
X98007936Y-9000000D01*
X97984245Y-8759466D01*
X97914084Y-8528176D01*
X97800149Y-8315017D01*
X97646817Y-8128183D01*
X97490627Y-8000000D01*
X97646817Y-7871817D01*
X97800149Y-7684983D01*
X97914084Y-7471824D01*
X97984245Y-7240534D01*
X98007936Y-7000000D01*
X97984245Y-6759466D01*
X97914084Y-6528176D01*
X97800149Y-6315017D01*
X97646817Y-6128183D01*
X97490627Y-6000000D01*
X97646817Y-5871817D01*
X97800149Y-5684983D01*
X97914084Y-5471824D01*
X97984245Y-5240534D01*
X98007936Y-5000000D01*
X97984245Y-4759466D01*
X97914084Y-4528176D01*
X97800149Y-4315017D01*
X97668195Y-4154232D01*
X97725028Y-4123854D01*
X97820501Y-4045501D01*
X97898854Y-3950028D01*
X97957076Y-3841104D01*
X97992928Y-3722914D01*
X98005034Y-3600000D01*
X98002000Y-3283750D01*
X97845250Y-3127000D01*
X96627000Y-3127000D01*
X96627000Y-3147000D01*
X96373000Y-3147000D01*
X96373000Y-3127000D01*
X95154750Y-3127000D01*
X94998000Y-3283750D01*
X94994966Y-3600000D01*
X95007072Y-3722914D01*
X95042924Y-3841104D01*
X95101146Y-3950028D01*
X95179499Y-4045501D01*
X95274972Y-4123854D01*
X95331805Y-4154232D01*
X95210475Y-4302072D01*
X95080190Y-4371710D01*
X94965683Y-4465683D01*
X94942133Y-4494379D01*
X93994375Y-5442137D01*
X93965684Y-5465683D01*
X93942138Y-5494374D01*
X93942137Y-5494375D01*
X93871710Y-5580190D01*
X93801882Y-5710831D01*
X93758882Y-5852583D01*
X93744362Y-6000000D01*
X93748001Y-6036945D01*
X93748001Y-6207588D01*
X93741227Y-6204782D01*
X93581452Y-6173000D01*
X93418548Y-6173000D01*
X93258773Y-6204782D01*
X93154436Y-6248000D01*
X91036935Y-6248000D01*
X91000000Y-6244362D01*
X90963064Y-6248000D01*
X90963062Y-6248000D01*
X90852582Y-6258881D01*
X90710830Y-6301882D01*
X90580190Y-6371710D01*
X90465683Y-6465683D01*
X90442133Y-6494379D01*
X89688512Y-7248000D01*
X48345564Y-7248000D01*
X48241227Y-7204782D01*
X48081452Y-7173000D01*
X47918548Y-7173000D01*
X47758773Y-7204782D01*
X47608269Y-7267123D01*
X47472819Y-7357628D01*
X47357628Y-7472819D01*
X47267123Y-7608269D01*
X47204782Y-7758773D01*
X47173000Y-7918548D01*
X45088103Y-7918548D01*
X44827000Y-7657446D01*
X44827000Y-3827000D01*
X59459386Y-3827000D01*
X59500000Y-3831000D01*
X59540614Y-3827000D01*
X59540624Y-3827000D01*
X59662120Y-3815034D01*
X59818010Y-3767745D01*
X59961679Y-3690952D01*
X60087606Y-3587606D01*
X60113505Y-3556048D01*
X60842554Y-2827000D01*
X77081452Y-2827000D01*
X77121491Y-2819035D01*
X77162120Y-2815034D01*
X77201191Y-2803182D01*
X77241227Y-2795218D01*
X77278939Y-2779597D01*
X77318010Y-2767745D01*
X77354018Y-2748498D01*
X77391731Y-2732877D01*
X77425673Y-2710198D01*
X77461679Y-2690952D01*
X77493238Y-2665052D01*
X77527181Y-2642372D01*
X77556048Y-2613505D01*
X77587606Y-2587606D01*
X77613505Y-2556048D01*
X77642372Y-2527181D01*
X77665052Y-2493238D01*
X77690952Y-2461679D01*
X77710198Y-2425673D01*
X77727351Y-2400000D01*
X94994966Y-2400000D01*
X94998000Y-2716250D01*
X95154750Y-2873000D01*
X96373000Y-2873000D01*
X96373000Y-1929750D01*
X96627000Y-1929750D01*
X96627000Y-2873000D01*
X97845250Y-2873000D01*
X98002000Y-2716250D01*
X98005034Y-2400000D01*
X97992928Y-2277086D01*
X97957076Y-2158896D01*
X97898854Y-2049972D01*
X97820501Y-1954499D01*
X97725028Y-1876146D01*
X97616104Y-1817924D01*
X97497914Y-1782072D01*
X97375000Y-1769966D01*
X96783750Y-1773000D01*
X96627000Y-1929750D01*
X96373000Y-1929750D01*
X96216250Y-1773000D01*
X95625000Y-1769966D01*
X95502086Y-1782072D01*
X95383896Y-1817924D01*
X95274972Y-1876146D01*
X95179499Y-1954499D01*
X95101146Y-2049972D01*
X95042924Y-2158896D01*
X95007072Y-2277086D01*
X94994966Y-2400000D01*
X77727351Y-2400000D01*
X77732877Y-2391731D01*
X77748498Y-2354018D01*
X77767745Y-2318010D01*
X77779597Y-2278939D01*
X77795218Y-2241227D01*
X77803182Y-2201191D01*
X77815034Y-2162120D01*
X77819035Y-2121492D01*
X77827000Y-2081452D01*
X77827000Y-2040624D01*
X77831001Y-2000000D01*
X77827000Y-1959376D01*
X77827000Y-1918548D01*
X77819035Y-1878508D01*
X77815034Y-1837880D01*
X77803182Y-1798809D01*
X77795218Y-1758773D01*
X77779597Y-1721061D01*
X77767745Y-1681990D01*
X77748498Y-1645982D01*
X77732877Y-1608269D01*
X77710198Y-1574327D01*
X77690952Y-1538321D01*
X77665052Y-1506762D01*
X77642372Y-1472819D01*
X77613505Y-1443952D01*
X77587606Y-1412394D01*
X77556048Y-1386495D01*
X77527181Y-1357628D01*
X77493238Y-1334948D01*
X77461679Y-1309048D01*
X77425673Y-1289802D01*
X77391731Y-1267123D01*
X77354018Y-1251502D01*
X77318010Y-1232255D01*
X77278939Y-1220403D01*
X77241227Y-1204782D01*
X77201191Y-1196818D01*
X77162120Y-1184966D01*
X77121491Y-1180965D01*
X77081452Y-1173000D01*
X60540614Y-1173000D01*
X60500000Y-1169000D01*
X60459386Y-1173000D01*
X60459376Y-1173000D01*
X60337880Y-1184966D01*
X60229278Y-1217910D01*
X60181989Y-1232255D01*
X60038320Y-1309048D01*
X59943948Y-1386497D01*
X59943941Y-1386504D01*
X59912394Y-1412394D01*
X59886503Y-1443942D01*
X59157446Y-2173000D01*
X59128858Y-2173000D01*
X59142565Y-2127814D01*
X59155154Y-2000000D01*
X59152000Y-1967978D01*
X59152000Y-652000D01*
X99348000Y-652000D01*
X99348001Y-34348000D01*
X80731530Y-34348000D01*
X80795501Y-34295501D01*
X80873853Y-34200028D01*
X80932075Y-34091103D01*
X80967927Y-33972913D01*
X80980033Y-33850000D01*
X80980033Y-32150000D01*
X80967927Y-32027087D01*
X80932075Y-31908897D01*
X80873853Y-31799972D01*
X80795501Y-31704499D01*
X80700028Y-31626147D01*
X80591103Y-31567925D01*
X80472913Y-31532073D01*
X80350000Y-31519967D01*
X78650000Y-31519967D01*
X78527087Y-31532073D01*
X78408897Y-31567925D01*
X78299972Y-31626147D01*
X78204499Y-31704499D01*
X78126147Y-31799972D01*
X78067925Y-31908897D01*
X78039589Y-32002311D01*
X77954374Y-31907862D01*
X77722202Y-31734854D01*
X77460739Y-31610465D01*
X77315634Y-31566454D01*
X77087000Y-31685873D01*
X77087000Y-32873000D01*
X77107000Y-32873000D01*
X77107000Y-33127000D01*
X77087000Y-33127000D01*
X77087000Y-33147000D01*
X76833000Y-33147000D01*
X76833000Y-33127000D01*
X75645215Y-33127000D01*
X75526449Y-33355635D01*
X75623375Y-33628473D01*
X75771667Y-33877160D01*
X75965626Y-34092138D01*
X76197798Y-34265146D01*
X76371955Y-34348000D01*
X65627000Y-34348000D01*
X65627000Y-34000000D01*
X65624560Y-33975224D01*
X65617333Y-33951399D01*
X65605597Y-33929443D01*
X65589803Y-33910197D01*
X65570557Y-33894403D01*
X65548601Y-33882667D01*
X65524776Y-33875440D01*
X65500000Y-33873000D01*
X46796553Y-33873000D01*
X47842555Y-32827000D01*
X62581452Y-32827000D01*
X62621491Y-32819035D01*
X62662120Y-32815034D01*
X62701191Y-32803182D01*
X62741227Y-32795218D01*
X62778939Y-32779597D01*
X62818010Y-32767745D01*
X62854018Y-32748498D01*
X62891731Y-32732877D01*
X62925673Y-32710198D01*
X62961679Y-32690952D01*
X62993238Y-32665052D01*
X63024198Y-32644365D01*
X75526449Y-32644365D01*
X75645215Y-32873000D01*
X76833000Y-32873000D01*
X76833000Y-31685873D01*
X76604366Y-31566454D01*
X76459261Y-31610465D01*
X76197798Y-31734854D01*
X75965626Y-31907862D01*
X75771667Y-32122840D01*
X75623375Y-32371527D01*
X75526449Y-32644365D01*
X63024198Y-32644365D01*
X63027181Y-32642372D01*
X63056048Y-32613505D01*
X63087606Y-32587606D01*
X63113505Y-32556048D01*
X63142372Y-32527181D01*
X63165052Y-32493238D01*
X63190952Y-32461679D01*
X63210198Y-32425673D01*
X63232877Y-32391731D01*
X63248498Y-32354018D01*
X63267745Y-32318010D01*
X63279597Y-32278939D01*
X63295218Y-32241227D01*
X63303182Y-32201191D01*
X63315034Y-32162120D01*
X63319035Y-32121492D01*
X63327000Y-32081452D01*
X63327000Y-32040624D01*
X63331001Y-32000000D01*
X63327000Y-31959376D01*
X63327000Y-31918548D01*
X63319035Y-31878508D01*
X63315034Y-31837880D01*
X63303182Y-31798809D01*
X63295218Y-31758773D01*
X63279597Y-31721061D01*
X63267745Y-31681990D01*
X63248498Y-31645982D01*
X63232877Y-31608269D01*
X63210198Y-31574327D01*
X63190952Y-31538321D01*
X63165052Y-31506762D01*
X63142372Y-31472819D01*
X63113505Y-31443952D01*
X63087606Y-31412394D01*
X63056048Y-31386495D01*
X63027181Y-31357628D01*
X62993238Y-31334948D01*
X62961679Y-31309048D01*
X62925673Y-31289802D01*
X62891731Y-31267123D01*
X62854018Y-31251502D01*
X62818010Y-31232255D01*
X62778939Y-31220403D01*
X62741227Y-31204782D01*
X62701191Y-31196818D01*
X62662120Y-31184966D01*
X62621491Y-31180965D01*
X62581452Y-31173000D01*
X47540610Y-31173000D01*
X47499999Y-31169000D01*
X47459388Y-31173000D01*
X47459376Y-31173000D01*
X47337880Y-31184966D01*
X47181990Y-31232255D01*
X47165409Y-31241118D01*
X47038319Y-31309049D01*
X46943947Y-31386498D01*
X46943941Y-31386504D01*
X46912394Y-31412394D01*
X46886503Y-31443942D01*
X45657447Y-32673000D01*
X43981343Y-32673000D01*
X44027181Y-32642372D01*
X44142372Y-32527181D01*
X44232877Y-32391731D01*
X44295218Y-32241227D01*
X44327000Y-32081452D01*
X44327000Y-31918548D01*
X44295218Y-31758773D01*
X44252000Y-31654436D01*
X44252000Y-31292413D01*
X44258773Y-31295218D01*
X44418548Y-31327000D01*
X44581452Y-31327000D01*
X44741227Y-31295218D01*
X44891731Y-31232877D01*
X45027181Y-31142372D01*
X45142372Y-31027181D01*
X45232877Y-30891731D01*
X45279427Y-30779350D01*
X45328289Y-30719811D01*
X45398117Y-30589171D01*
X45441118Y-30447419D01*
X45451999Y-30336939D01*
X45451999Y-30336937D01*
X45455637Y-30300002D01*
X45451999Y-30263066D01*
X45451999Y-17192607D01*
X45527181Y-17142372D01*
X45642372Y-17027181D01*
X45732877Y-16891731D01*
X45795218Y-16741227D01*
X45827000Y-16581452D01*
X45827000Y-16418548D01*
X45820032Y-16383521D01*
X49116479Y-19679967D01*
X49081452Y-19673000D01*
X48918548Y-19673000D01*
X48758773Y-19704782D01*
X48608269Y-19767123D01*
X48472819Y-19857628D01*
X48357628Y-19972819D01*
X48267123Y-20108269D01*
X48204782Y-20258773D01*
X48173000Y-20418548D01*
X48173000Y-20581452D01*
X48204782Y-20741227D01*
X48267123Y-20891731D01*
X48357628Y-21027181D01*
X48472819Y-21142372D01*
X48608269Y-21232877D01*
X48712608Y-21276096D01*
X58102137Y-30665626D01*
X58125683Y-30694317D01*
X58154374Y-30717863D01*
X58240189Y-30788290D01*
X58326303Y-30834318D01*
X58370830Y-30858118D01*
X58512582Y-30901119D01*
X58623062Y-30912000D01*
X58623064Y-30912000D01*
X58659999Y-30915638D01*
X58696935Y-30912000D01*
X88726097Y-30912000D01*
X88852739Y-31101533D01*
X89058467Y-31307261D01*
X89300378Y-31468901D01*
X89569175Y-31580240D01*
X89854528Y-31637000D01*
X90145472Y-31637000D01*
X90430825Y-31580240D01*
X90699622Y-31468901D01*
X90941533Y-31307261D01*
X91147261Y-31101533D01*
X91270000Y-30917841D01*
X91392739Y-31101533D01*
X91598467Y-31307261D01*
X91840378Y-31468901D01*
X92109175Y-31580240D01*
X92394528Y-31637000D01*
X92685472Y-31637000D01*
X92970825Y-31580240D01*
X93239622Y-31468901D01*
X93481533Y-31307261D01*
X93687261Y-31101533D01*
X93848901Y-30859622D01*
X93960240Y-30590825D01*
X94017000Y-30305472D01*
X94017000Y-30014528D01*
X93960240Y-29729175D01*
X93916330Y-29623167D01*
X93934811Y-29613289D01*
X94049318Y-29519316D01*
X94072868Y-29490620D01*
X94505622Y-29057866D01*
X94534317Y-29034317D01*
X94607206Y-28945501D01*
X94628290Y-28919811D01*
X94672242Y-28837581D01*
X94698118Y-28789170D01*
X94741119Y-28647418D01*
X94752000Y-28536938D01*
X94752000Y-28536936D01*
X94755638Y-28500001D01*
X94752000Y-28463065D01*
X94752000Y-21496935D01*
X94755638Y-21460000D01*
X94751722Y-21420240D01*
X94741119Y-21312582D01*
X94698118Y-21170830D01*
X94628290Y-21040190D01*
X94534317Y-20925683D01*
X94505626Y-20902137D01*
X93972530Y-20369041D01*
X94017000Y-20145472D01*
X94017000Y-19854528D01*
X93960240Y-19569175D01*
X93848901Y-19300378D01*
X93687261Y-19058467D01*
X93481533Y-18852739D01*
X93239622Y-18691099D01*
X92970825Y-18579760D01*
X92685472Y-18523000D01*
X92394528Y-18523000D01*
X92109175Y-18579760D01*
X91840378Y-18691099D01*
X91598467Y-18852739D01*
X91457732Y-18993474D01*
X91432076Y-18908896D01*
X91373854Y-18799972D01*
X91295501Y-18704499D01*
X91200028Y-18626146D01*
X91091104Y-18567924D01*
X90972914Y-18532072D01*
X90850000Y-18519966D01*
X90283750Y-18523000D01*
X90127000Y-18679750D01*
X90127000Y-19873000D01*
X90147000Y-19873000D01*
X90147000Y-20127000D01*
X90127000Y-20127000D01*
X90127000Y-20147000D01*
X89873000Y-20147000D01*
X89873000Y-20127000D01*
X88679750Y-20127000D01*
X88523000Y-20283750D01*
X88519966Y-20850000D01*
X88532072Y-20972914D01*
X88567924Y-21091104D01*
X88626146Y-21200028D01*
X88704499Y-21295501D01*
X88799972Y-21373854D01*
X88908896Y-21432076D01*
X88993474Y-21457732D01*
X88852739Y-21598467D01*
X88691099Y-21840378D01*
X88579760Y-22109175D01*
X88523000Y-22394528D01*
X88523000Y-22685472D01*
X88579760Y-22970825D01*
X88691099Y-23239622D01*
X88852739Y-23481533D01*
X89058467Y-23687261D01*
X89242159Y-23810000D01*
X89058467Y-23932739D01*
X88852739Y-24138467D01*
X88691099Y-24380378D01*
X88579760Y-24649175D01*
X88523000Y-24934528D01*
X88523000Y-25225472D01*
X88579760Y-25510825D01*
X88655219Y-25692999D01*
X88591936Y-25692999D01*
X88555000Y-25689361D01*
X88518065Y-25692999D01*
X88518063Y-25692999D01*
X88407583Y-25703880D01*
X88265831Y-25746881D01*
X88182506Y-25791419D01*
X88135190Y-25816709D01*
X88055544Y-25882073D01*
X88020684Y-25910682D01*
X87997138Y-25939373D01*
X86777001Y-27159510D01*
X86777001Y-26784934D01*
X86780639Y-26747998D01*
X86776978Y-26710830D01*
X86766120Y-26600581D01*
X86723119Y-26458829D01*
X86679427Y-26377087D01*
X86653291Y-26328188D01*
X86582864Y-26242373D01*
X86559318Y-26213682D01*
X86530627Y-26190136D01*
X81334869Y-20994379D01*
X81311319Y-20965683D01*
X81196812Y-20871710D01*
X81066172Y-20801882D01*
X80924420Y-20758881D01*
X80813940Y-20748000D01*
X80813937Y-20748000D01*
X80777002Y-20744362D01*
X80740067Y-20748000D01*
X80561160Y-20748000D01*
X80600898Y-20721448D01*
X80841448Y-20480898D01*
X81030447Y-20198041D01*
X81160632Y-19883747D01*
X81227000Y-19550095D01*
X81227000Y-19209905D01*
X81215085Y-19150000D01*
X88519966Y-19150000D01*
X88523000Y-19716250D01*
X88679750Y-19873000D01*
X89873000Y-19873000D01*
X89873000Y-18679750D01*
X89716250Y-18523000D01*
X89150000Y-18519966D01*
X89027086Y-18532072D01*
X88908896Y-18567924D01*
X88799972Y-18626146D01*
X88704499Y-18704499D01*
X88626146Y-18799972D01*
X88567924Y-18908896D01*
X88532072Y-19027086D01*
X88519966Y-19150000D01*
X81215085Y-19150000D01*
X81160632Y-18876253D01*
X81030447Y-18561959D01*
X80841448Y-18279102D01*
X80600898Y-18038552D01*
X80318041Y-17849553D01*
X80003747Y-17719368D01*
X79670095Y-17653000D01*
X79329905Y-17653000D01*
X78996253Y-17719368D01*
X78681959Y-17849553D01*
X78399102Y-18038552D01*
X78158552Y-18279102D01*
X77969553Y-18561959D01*
X77839368Y-18876253D01*
X77773000Y-19209905D01*
X77773000Y-19550095D01*
X77839368Y-19883747D01*
X77969553Y-20198041D01*
X78158552Y-20480898D01*
X78399102Y-20721448D01*
X78438840Y-20748000D01*
X76040424Y-20748000D01*
X76178536Y-20642376D01*
X76402168Y-20388199D01*
X76571916Y-20095277D01*
X76681256Y-19774868D01*
X76565578Y-19507000D01*
X75127000Y-19507000D01*
X75127000Y-19527000D01*
X74873000Y-19527000D01*
X74873000Y-19507000D01*
X73434422Y-19507000D01*
X73318744Y-19774868D01*
X73428084Y-20095277D01*
X73597832Y-20388199D01*
X73821464Y-20642376D01*
X73959576Y-20748000D01*
X71292413Y-20748000D01*
X71295218Y-20741227D01*
X71303183Y-20701184D01*
X71315033Y-20662120D01*
X71319033Y-20621501D01*
X71327000Y-20581452D01*
X71327000Y-20540614D01*
X71331000Y-20500000D01*
X71327000Y-20459386D01*
X71327000Y-20418548D01*
X71319034Y-20378499D01*
X71315033Y-20337879D01*
X71303183Y-20298813D01*
X71295218Y-20258773D01*
X71279597Y-20221061D01*
X71267745Y-20181989D01*
X71248497Y-20145978D01*
X71232877Y-20108269D01*
X71210201Y-20074331D01*
X71190952Y-20038320D01*
X71165048Y-20006755D01*
X71142372Y-19972819D01*
X71113512Y-19943959D01*
X71113503Y-19943948D01*
X70327000Y-19157446D01*
X70327000Y-18985132D01*
X73318744Y-18985132D01*
X73434422Y-19253000D01*
X74873000Y-19253000D01*
X74873000Y-17814894D01*
X75127000Y-17814894D01*
X75127000Y-19253000D01*
X76565578Y-19253000D01*
X76681256Y-18985132D01*
X76571916Y-18664723D01*
X76402168Y-18371801D01*
X76178536Y-18117624D01*
X75909613Y-17911959D01*
X75605734Y-17762710D01*
X75394867Y-17698748D01*
X75127000Y-17814894D01*
X74873000Y-17814894D01*
X74605133Y-17698748D01*
X74394266Y-17762710D01*
X74090387Y-17911959D01*
X73821464Y-18117624D01*
X73597832Y-18371801D01*
X73428084Y-18664723D01*
X73318744Y-18985132D01*
X70327000Y-18985132D01*
X70327000Y-15418548D01*
X77673000Y-15418548D01*
X77673000Y-15581452D01*
X77704782Y-15741227D01*
X77767123Y-15891731D01*
X77857628Y-16027181D01*
X77972819Y-16142372D01*
X78108269Y-16232877D01*
X78258773Y-16295218D01*
X78418548Y-16327000D01*
X78581452Y-16327000D01*
X78741227Y-16295218D01*
X78845564Y-16252000D01*
X81654436Y-16252000D01*
X81758773Y-16295218D01*
X81918548Y-16327000D01*
X82081452Y-16327000D01*
X82241227Y-16295218D01*
X82391731Y-16232877D01*
X82527181Y-16142372D01*
X82642372Y-16027181D01*
X82732877Y-15891731D01*
X82795218Y-15741227D01*
X82827000Y-15581452D01*
X82827000Y-15418548D01*
X82795218Y-15258773D01*
X82732877Y-15108269D01*
X82642372Y-14972819D01*
X82527181Y-14857628D01*
X82391731Y-14767123D01*
X82241227Y-14704782D01*
X82081452Y-14673000D01*
X81918548Y-14673000D01*
X81758773Y-14704782D01*
X81654436Y-14748000D01*
X78845564Y-14748000D01*
X78741227Y-14704782D01*
X78581452Y-14673000D01*
X78418548Y-14673000D01*
X78258773Y-14704782D01*
X78108269Y-14767123D01*
X77972819Y-14857628D01*
X77857628Y-14972819D01*
X77767123Y-15108269D01*
X77704782Y-15258773D01*
X77673000Y-15418548D01*
X70327000Y-15418548D01*
X70327000Y-13918548D01*
X70319035Y-13878509D01*
X70315034Y-13837880D01*
X70303182Y-13798809D01*
X70295218Y-13758773D01*
X70279597Y-13721061D01*
X70267745Y-13681990D01*
X70248498Y-13645982D01*
X70232877Y-13608269D01*
X70210198Y-13574327D01*
X70190952Y-13538321D01*
X70165052Y-13506762D01*
X70142372Y-13472819D01*
X70113505Y-13443952D01*
X70087606Y-13412394D01*
X70056049Y-13386496D01*
X70027181Y-13357628D01*
X69993234Y-13334946D01*
X69961678Y-13309048D01*
X69925677Y-13289805D01*
X69891731Y-13267123D01*
X69854013Y-13251500D01*
X69818009Y-13232255D01*
X69778942Y-13220404D01*
X69741227Y-13204782D01*
X69701188Y-13196818D01*
X69662119Y-13184966D01*
X69621492Y-13180965D01*
X69581452Y-13173000D01*
X69540624Y-13173000D01*
X69500000Y-13168999D01*
X69459376Y-13173000D01*
X69418548Y-13173000D01*
X69378508Y-13180965D01*
X69337880Y-13184966D01*
X69298809Y-13196818D01*
X69258773Y-13204782D01*
X69221061Y-13220403D01*
X69181990Y-13232255D01*
X69145982Y-13251502D01*
X69108269Y-13267123D01*
X69074327Y-13289802D01*
X69038321Y-13309048D01*
X69006762Y-13334948D01*
X68972819Y-13357628D01*
X68943952Y-13386495D01*
X68912394Y-13412394D01*
X68886496Y-13443951D01*
X68857628Y-13472819D01*
X68834946Y-13506766D01*
X68809048Y-13538322D01*
X68789805Y-13574323D01*
X68767123Y-13608269D01*
X68751500Y-13645987D01*
X68732255Y-13681991D01*
X68720404Y-13721058D01*
X68704782Y-13758773D01*
X68696818Y-13798812D01*
X68684966Y-13837881D01*
X68680965Y-13878508D01*
X68673000Y-13918548D01*
X68673000Y-13959377D01*
X68673001Y-19459376D01*
X68669000Y-19500000D01*
X68680527Y-19617038D01*
X66776096Y-17712607D01*
X66732877Y-17608269D01*
X66642372Y-17472819D01*
X66527181Y-17357628D01*
X66391731Y-17267123D01*
X66241227Y-17204782D01*
X66081452Y-17173000D01*
X65918548Y-17173000D01*
X65758773Y-17204782D01*
X65608269Y-17267123D01*
X65472819Y-17357628D01*
X65357628Y-17472819D01*
X65267123Y-17608269D01*
X65204782Y-17758773D01*
X65173000Y-17918548D01*
X65173000Y-18081452D01*
X65204782Y-18241227D01*
X65267123Y-18391731D01*
X65357628Y-18527181D01*
X65472819Y-18642372D01*
X65608269Y-18732877D01*
X65649607Y-18750000D01*
X65608269Y-18767123D01*
X65472819Y-18857628D01*
X65357628Y-18972819D01*
X65267123Y-19108269D01*
X65204782Y-19258773D01*
X65173000Y-19418548D01*
X65173000Y-19581452D01*
X65204782Y-19741227D01*
X65267123Y-19891731D01*
X65357628Y-20027181D01*
X65472819Y-20142372D01*
X65608269Y-20232877D01*
X65712607Y-20276096D01*
X67942136Y-22505625D01*
X67965683Y-22534317D01*
X68080190Y-22628290D01*
X68210830Y-22698118D01*
X68352582Y-22741119D01*
X68463062Y-22752000D01*
X68463064Y-22752000D01*
X68500000Y-22755638D01*
X68536935Y-22752000D01*
X69707587Y-22752000D01*
X69704782Y-22758773D01*
X69696818Y-22798812D01*
X69684966Y-22837881D01*
X69680965Y-22878508D01*
X69673000Y-22918548D01*
X69673000Y-22959377D01*
X69673001Y-26959376D01*
X69669000Y-27000000D01*
X69673001Y-27040624D01*
X69683071Y-27142865D01*
X69684967Y-27162120D01*
X69732256Y-27318010D01*
X69809048Y-27461679D01*
X69886498Y-27556051D01*
X69912395Y-27587606D01*
X69943947Y-27613500D01*
X70578446Y-28248000D01*
X66811488Y-28248000D01*
X66776096Y-28212608D01*
X66732877Y-28108269D01*
X66642372Y-27972819D01*
X66527181Y-27857628D01*
X66391731Y-27767123D01*
X66241227Y-27704782D01*
X66081452Y-27673000D01*
X65918548Y-27673000D01*
X65758773Y-27704782D01*
X65608269Y-27767123D01*
X65472819Y-27857628D01*
X65357628Y-27972819D01*
X65267123Y-28108269D01*
X65204782Y-28258773D01*
X65173000Y-28418548D01*
X65173000Y-28581452D01*
X65204782Y-28741227D01*
X65267123Y-28891731D01*
X65339466Y-29000000D01*
X65267123Y-29108269D01*
X65204782Y-29258773D01*
X65175098Y-29408000D01*
X58971489Y-29408000D01*
X50783717Y-21220228D01*
X50852582Y-21241119D01*
X50963062Y-21252000D01*
X50963064Y-21252000D01*
X51000000Y-21255638D01*
X51036935Y-21252000D01*
X61654436Y-21252000D01*
X61758773Y-21295218D01*
X61918548Y-21327000D01*
X62081452Y-21327000D01*
X62241227Y-21295218D01*
X62391731Y-21232877D01*
X62527181Y-21142372D01*
X62642372Y-21027181D01*
X62732877Y-20891731D01*
X62795218Y-20741227D01*
X62827000Y-20581452D01*
X62827000Y-20418548D01*
X62795218Y-20258773D01*
X62732877Y-20108269D01*
X62642372Y-19972819D01*
X62527181Y-19857628D01*
X62391731Y-19767123D01*
X62241227Y-19704782D01*
X62081452Y-19673000D01*
X61918548Y-19673000D01*
X61758773Y-19704782D01*
X61654436Y-19748000D01*
X51311489Y-19748000D01*
X46557867Y-14994379D01*
X46534317Y-14965683D01*
X46419810Y-14871710D01*
X46289170Y-14801882D01*
X46147418Y-14758881D01*
X46036938Y-14748000D01*
X46036935Y-14748000D01*
X46000000Y-14744362D01*
X45963065Y-14748000D01*
X34311489Y-14748000D01*
X25482037Y-5918548D01*
X34173000Y-5918548D01*
X34173000Y-6081452D01*
X34204782Y-6241227D01*
X34267123Y-6391731D01*
X34357628Y-6527181D01*
X34472819Y-6642372D01*
X34608269Y-6732877D01*
X34758773Y-6795218D01*
X34918548Y-6827000D01*
X35081452Y-6827000D01*
X35241227Y-6795218D01*
X35345564Y-6752000D01*
X38688512Y-6752000D01*
X40147998Y-8211486D01*
X40147997Y-13154436D01*
X40104779Y-13258773D01*
X40072997Y-13418548D01*
X40072997Y-13581452D01*
X40104779Y-13741227D01*
X40167120Y-13891731D01*
X40257625Y-14027181D01*
X40372816Y-14142372D01*
X40508266Y-14232877D01*
X40658770Y-14295218D01*
X40818545Y-14327000D01*
X40981449Y-14327000D01*
X41141224Y-14295218D01*
X41199999Y-14270873D01*
X41258773Y-14295218D01*
X41418548Y-14327000D01*
X41581452Y-14327000D01*
X41741227Y-14295218D01*
X41891731Y-14232877D01*
X42027181Y-14142372D01*
X42142372Y-14027181D01*
X42232877Y-13891731D01*
X42295218Y-13741227D01*
X42327000Y-13581452D01*
X42327000Y-13418548D01*
X42295218Y-13258773D01*
X42252000Y-13154436D01*
X42252000Y-6536935D01*
X42255638Y-6500000D01*
X42247740Y-6419810D01*
X42241119Y-6352582D01*
X42198118Y-6210830D01*
X42128290Y-6080190D01*
X42034317Y-5965683D01*
X42005621Y-5942133D01*
X41776096Y-5712608D01*
X41732877Y-5608269D01*
X41642372Y-5472819D01*
X41527181Y-5357628D01*
X41391731Y-5267123D01*
X41241227Y-5204782D01*
X41081452Y-5173000D01*
X40918548Y-5173000D01*
X40758773Y-5204782D01*
X40608269Y-5267123D01*
X40472819Y-5357628D01*
X40357628Y-5472819D01*
X40267123Y-5608269D01*
X40204782Y-5758773D01*
X40173000Y-5918548D01*
X40173000Y-6081452D01*
X40179968Y-6116480D01*
X39557867Y-5494379D01*
X39534317Y-5465683D01*
X39419810Y-5371710D01*
X39289170Y-5301882D01*
X39147418Y-5258881D01*
X39036938Y-5248000D01*
X39036935Y-5248000D01*
X39000000Y-5244362D01*
X38963065Y-5248000D01*
X35345564Y-5248000D01*
X35241227Y-5204782D01*
X35081452Y-5173000D01*
X34918548Y-5173000D01*
X34758773Y-5204782D01*
X34608269Y-5267123D01*
X34472819Y-5357628D01*
X34357628Y-5472819D01*
X34267123Y-5608269D01*
X34204782Y-5758773D01*
X34173000Y-5918548D01*
X25482037Y-5918548D01*
X25057867Y-5494379D01*
X25034317Y-5465683D01*
X24919810Y-5371710D01*
X24789170Y-5301882D01*
X24647418Y-5258881D01*
X24536938Y-5248000D01*
X24536935Y-5248000D01*
X24500000Y-5244362D01*
X24463065Y-5248000D01*
X12845564Y-5248000D01*
X12741227Y-5204782D01*
X12581452Y-5173000D01*
X12418548Y-5173000D01*
X12258773Y-5204782D01*
X12108269Y-5267123D01*
X11972819Y-5357628D01*
X11857628Y-5472819D01*
X11767123Y-5608269D01*
X11704782Y-5758773D01*
X11673000Y-5918548D01*
X11673000Y-6081452D01*
X11704782Y-6241227D01*
X11767123Y-6391731D01*
X11857628Y-6527181D01*
X11972819Y-6642372D01*
X12108269Y-6732877D01*
X12258773Y-6795218D01*
X12418548Y-6827000D01*
X12581452Y-6827000D01*
X12741227Y-6795218D01*
X12845564Y-6752000D01*
X24188512Y-6752000D01*
X26684512Y-9248000D01*
X20345564Y-9248000D01*
X20241227Y-9204782D01*
X20081452Y-9173000D01*
X19918548Y-9173000D01*
X19758773Y-9204782D01*
X19608269Y-9267123D01*
X19472819Y-9357628D01*
X19357628Y-9472819D01*
X19267123Y-9608269D01*
X19204782Y-9758773D01*
X19173000Y-9918548D01*
X19173000Y-10081452D01*
X19204782Y-10241227D01*
X19267123Y-10391731D01*
X19357628Y-10527181D01*
X19472819Y-10642372D01*
X19608269Y-10732877D01*
X19758773Y-10795218D01*
X19918548Y-10827000D01*
X20081452Y-10827000D01*
X20241227Y-10795218D01*
X20345564Y-10752000D01*
X27188512Y-10752000D01*
X36942133Y-20505621D01*
X36965683Y-20534317D01*
X37080190Y-20628290D01*
X37210830Y-20698118D01*
X37352582Y-20741119D01*
X37463062Y-20752000D01*
X37463064Y-20752000D01*
X37500000Y-20755638D01*
X37536935Y-20752000D01*
X41188512Y-20752000D01*
X42748000Y-22311489D01*
X42748001Y-31654434D01*
X42704782Y-31758773D01*
X42673000Y-31918548D01*
X42673000Y-32081452D01*
X42704782Y-32241227D01*
X42767123Y-32391731D01*
X42857628Y-32527181D01*
X42972819Y-32642372D01*
X43018657Y-32673000D01*
X42842555Y-32673000D01*
X42480033Y-32310479D01*
X42480033Y-31150000D01*
X42467927Y-31027087D01*
X42432075Y-30908897D01*
X42373853Y-30799972D01*
X42295501Y-30704499D01*
X42200028Y-30626147D01*
X42091103Y-30567925D01*
X42006525Y-30542269D01*
X42147261Y-30401533D01*
X42308901Y-30159622D01*
X42420240Y-29890825D01*
X42477000Y-29605472D01*
X42477000Y-29314528D01*
X42420240Y-29029175D01*
X42308901Y-28760378D01*
X42147261Y-28518467D01*
X41941533Y-28312739D01*
X41757841Y-28190000D01*
X41941533Y-28067261D01*
X42147261Y-27861533D01*
X42308901Y-27619622D01*
X42420240Y-27350825D01*
X42477000Y-27065472D01*
X42477000Y-26774528D01*
X42420240Y-26489175D01*
X42308901Y-26220378D01*
X42147261Y-25978467D01*
X41941533Y-25772739D01*
X41749524Y-25644442D01*
X41877160Y-25568333D01*
X42092138Y-25374374D01*
X42265146Y-25142202D01*
X42389535Y-24880739D01*
X42433546Y-24735634D01*
X42314127Y-24507000D01*
X41127000Y-24507000D01*
X41127000Y-24527000D01*
X40873000Y-24527000D01*
X40873000Y-24507000D01*
X39685873Y-24507000D01*
X39566454Y-24735634D01*
X39610465Y-24880739D01*
X39734854Y-25142202D01*
X39907862Y-25374374D01*
X40122840Y-25568333D01*
X40250476Y-25644442D01*
X40058467Y-25772739D01*
X39852739Y-25978467D01*
X39691099Y-26220378D01*
X39579760Y-26489175D01*
X39523000Y-26774528D01*
X39523000Y-27065472D01*
X39579760Y-27350825D01*
X39691099Y-27619622D01*
X39852739Y-27861533D01*
X40058467Y-28067261D01*
X40242159Y-28190000D01*
X40058467Y-28312739D01*
X39852739Y-28518467D01*
X39691099Y-28760378D01*
X39579760Y-29029175D01*
X39523000Y-29314528D01*
X39523000Y-29605472D01*
X39579760Y-29890825D01*
X39691099Y-30159622D01*
X39852739Y-30401533D01*
X39993475Y-30542269D01*
X39908897Y-30567925D01*
X39799972Y-30626147D01*
X39704499Y-30704499D01*
X39626147Y-30799972D01*
X39567925Y-30908897D01*
X39532073Y-31027087D01*
X39519967Y-31150000D01*
X39519967Y-32850000D01*
X39532073Y-32972913D01*
X39567925Y-33091103D01*
X39626147Y-33200028D01*
X39704499Y-33295501D01*
X39799972Y-33373853D01*
X39908897Y-33432075D01*
X40027087Y-33467927D01*
X40150000Y-33480033D01*
X41310479Y-33480033D01*
X41886503Y-34056058D01*
X41912394Y-34087606D01*
X41943941Y-34113496D01*
X41943947Y-34113502D01*
X42038319Y-34190951D01*
X42038321Y-34190952D01*
X42181990Y-34267745D01*
X42337880Y-34315034D01*
X42459376Y-34327000D01*
X42459388Y-34327000D01*
X42499999Y-34331000D01*
X42540610Y-34327000D01*
X45373000Y-34327000D01*
X45373000Y-34348000D01*
X20231530Y-34348000D01*
X20295501Y-34295501D01*
X20373853Y-34200028D01*
X20432075Y-34091103D01*
X20467927Y-33972913D01*
X20480033Y-33850000D01*
X20480033Y-32150000D01*
X20467927Y-32027087D01*
X20432075Y-31908897D01*
X20373853Y-31799972D01*
X20295501Y-31704499D01*
X20200028Y-31626147D01*
X20091103Y-31567925D01*
X19972913Y-31532073D01*
X19850000Y-31519967D01*
X18150000Y-31519967D01*
X18027087Y-31532073D01*
X17908897Y-31567925D01*
X17799972Y-31626147D01*
X17704499Y-31704499D01*
X17626147Y-31799972D01*
X17567925Y-31908897D01*
X17539589Y-32002311D01*
X17454374Y-31907862D01*
X17222202Y-31734854D01*
X16960739Y-31610465D01*
X16815634Y-31566454D01*
X16587000Y-31685873D01*
X16587000Y-32873000D01*
X16607000Y-32873000D01*
X16607000Y-33127000D01*
X16587000Y-33127000D01*
X16587000Y-33147000D01*
X16333000Y-33147000D01*
X16333000Y-33127000D01*
X15145215Y-33127000D01*
X15026449Y-33355635D01*
X15123375Y-33628473D01*
X15271667Y-33877160D01*
X15465626Y-34092138D01*
X15697798Y-34265146D01*
X15871955Y-34348000D01*
X652000Y-34348000D01*
X652000Y-32339755D01*
X873000Y-32339755D01*
X873000Y-32660245D01*
X935525Y-32974578D01*
X1058172Y-33270673D01*
X1236227Y-33537152D01*
X1462848Y-33763773D01*
X1729327Y-33941828D01*
X2025422Y-34064475D01*
X2339755Y-34127000D01*
X2660245Y-34127000D01*
X2974578Y-34064475D01*
X3270673Y-33941828D01*
X3537152Y-33763773D01*
X3669797Y-33631128D01*
X6048478Y-33631128D01*
X6144695Y-33893292D01*
X6432947Y-34033382D01*
X6742991Y-34114545D01*
X7062911Y-34133663D01*
X7380414Y-34090000D01*
X7683298Y-33985233D01*
X7855305Y-33893292D01*
X7951522Y-33631128D01*
X7000000Y-32679605D01*
X6048478Y-33631128D01*
X3669797Y-33631128D01*
X3763773Y-33537152D01*
X3941828Y-33270673D01*
X4064475Y-32974578D01*
X4127000Y-32660245D01*
X4127000Y-32562911D01*
X5366337Y-32562911D01*
X5410000Y-32880414D01*
X5514767Y-33183298D01*
X5606708Y-33355305D01*
X5868872Y-33451522D01*
X6820395Y-32500000D01*
X7179605Y-32500000D01*
X8131128Y-33451522D01*
X8393292Y-33355305D01*
X8533382Y-33067053D01*
X8614545Y-32757009D01*
X8621276Y-32644365D01*
X15026449Y-32644365D01*
X15145215Y-32873000D01*
X16333000Y-32873000D01*
X16333000Y-31685873D01*
X16104366Y-31566454D01*
X15959261Y-31610465D01*
X15697798Y-31734854D01*
X15465626Y-31907862D01*
X15271667Y-32122840D01*
X15123375Y-32371527D01*
X15026449Y-32644365D01*
X8621276Y-32644365D01*
X8633663Y-32437089D01*
X8590000Y-32119586D01*
X8485233Y-31816702D01*
X8393292Y-31644695D01*
X8131128Y-31548478D01*
X7179605Y-32500000D01*
X6820395Y-32500000D01*
X5868872Y-31548478D01*
X5606708Y-31644695D01*
X5466618Y-31932947D01*
X5385455Y-32242991D01*
X5366337Y-32562911D01*
X4127000Y-32562911D01*
X4127000Y-32339755D01*
X4064475Y-32025422D01*
X3941828Y-31729327D01*
X3763773Y-31462848D01*
X3669797Y-31368872D01*
X6048478Y-31368872D01*
X7000000Y-32320395D01*
X7951522Y-31368872D01*
X7855305Y-31106708D01*
X7567053Y-30966618D01*
X7257009Y-30885455D01*
X6937089Y-30866337D01*
X6619586Y-30910000D01*
X6316702Y-31014767D01*
X6144695Y-31106708D01*
X6048478Y-31368872D01*
X3669797Y-31368872D01*
X3537152Y-31236227D01*
X3270673Y-31058172D01*
X2974578Y-30935525D01*
X2660245Y-30873000D01*
X2339755Y-30873000D01*
X2025422Y-30935525D01*
X1729327Y-31058172D01*
X1462848Y-31236227D01*
X1236227Y-31462848D01*
X1058172Y-31729327D01*
X935525Y-32025422D01*
X873000Y-32339755D01*
X652000Y-32339755D01*
X652000Y-25839755D01*
X873000Y-25839755D01*
X873000Y-26160245D01*
X935525Y-26474578D01*
X1058172Y-26770673D01*
X1236227Y-27037152D01*
X1462848Y-27263773D01*
X1729327Y-27441828D01*
X2025422Y-27564475D01*
X2339755Y-27627000D01*
X2660245Y-27627000D01*
X2974578Y-27564475D01*
X3270673Y-27441828D01*
X3537152Y-27263773D01*
X3669797Y-27131128D01*
X6048478Y-27131128D01*
X6144695Y-27393292D01*
X6432947Y-27533382D01*
X6742991Y-27614545D01*
X7062911Y-27633663D01*
X7380414Y-27590000D01*
X7683298Y-27485233D01*
X7855305Y-27393292D01*
X7951522Y-27131128D01*
X7000000Y-26179605D01*
X6048478Y-27131128D01*
X3669797Y-27131128D01*
X3763773Y-27037152D01*
X3941828Y-26770673D01*
X4064475Y-26474578D01*
X4127000Y-26160245D01*
X4127000Y-26062911D01*
X5366337Y-26062911D01*
X5410000Y-26380414D01*
X5514767Y-26683298D01*
X5606708Y-26855305D01*
X5868872Y-26951522D01*
X6820395Y-26000000D01*
X7179605Y-26000000D01*
X8131128Y-26951522D01*
X8393292Y-26855305D01*
X8533382Y-26567053D01*
X8550935Y-26500000D01*
X13917467Y-26500000D01*
X13917467Y-28500000D01*
X13929573Y-28622913D01*
X13965425Y-28741103D01*
X14023647Y-28850028D01*
X14101999Y-28945501D01*
X14197472Y-29023853D01*
X14306397Y-29082075D01*
X14424587Y-29117927D01*
X14547500Y-29130033D01*
X16452500Y-29130033D01*
X16575413Y-29117927D01*
X16693603Y-29082075D01*
X16802528Y-29023853D01*
X16898001Y-28945501D01*
X16976353Y-28850028D01*
X17025445Y-28758185D01*
X17158232Y-28867160D01*
X17432628Y-29013828D01*
X17730365Y-29104146D01*
X18040000Y-29134642D01*
X18349636Y-29104146D01*
X18647373Y-29013828D01*
X18921769Y-28867160D01*
X19162279Y-28669779D01*
X19315057Y-28483617D01*
X19476449Y-28675873D01*
X19717788Y-28869484D01*
X19992261Y-29012292D01*
X20208275Y-29082636D01*
X20453000Y-28964570D01*
X20453000Y-27627000D01*
X20707000Y-27627000D01*
X20707000Y-28964570D01*
X20951725Y-29082636D01*
X21167739Y-29012292D01*
X21442212Y-28869484D01*
X21683551Y-28675873D01*
X21882481Y-28438900D01*
X22031358Y-28167671D01*
X22124460Y-27872609D01*
X21999553Y-27627000D01*
X20707000Y-27627000D01*
X20453000Y-27627000D01*
X20433000Y-27627000D01*
X20433000Y-27373000D01*
X20453000Y-27373000D01*
X20453000Y-26035430D01*
X20707000Y-26035430D01*
X20707000Y-27373000D01*
X21999553Y-27373000D01*
X22124460Y-27127391D01*
X22115818Y-27100000D01*
X26469967Y-27100000D01*
X26469967Y-28900000D01*
X26482073Y-29022913D01*
X26517925Y-29141103D01*
X26576147Y-29250028D01*
X26654499Y-29345501D01*
X26749972Y-29423853D01*
X26858897Y-29482075D01*
X26889221Y-29491274D01*
X26813901Y-29566594D01*
X26646790Y-29816694D01*
X26531681Y-30094590D01*
X26473000Y-30389604D01*
X26473000Y-30690396D01*
X26531681Y-30985410D01*
X26646790Y-31263306D01*
X26813901Y-31513406D01*
X27026594Y-31726099D01*
X27276694Y-31893210D01*
X27554590Y-32008319D01*
X27849604Y-32067000D01*
X28150396Y-32067000D01*
X28445410Y-32008319D01*
X28723306Y-31893210D01*
X28973406Y-31726099D01*
X29186099Y-31513406D01*
X29353210Y-31263306D01*
X29468319Y-30985410D01*
X29527000Y-30690396D01*
X29527000Y-30389604D01*
X29468319Y-30094590D01*
X29353210Y-29816694D01*
X29186099Y-29566594D01*
X29110779Y-29491274D01*
X29141103Y-29482075D01*
X29250028Y-29423853D01*
X29345501Y-29345501D01*
X29423853Y-29250028D01*
X29482075Y-29141103D01*
X29517927Y-29022913D01*
X29530033Y-28900000D01*
X29530033Y-27100000D01*
X32969967Y-27100000D01*
X32969967Y-28900000D01*
X32982073Y-29022913D01*
X33017925Y-29141103D01*
X33076147Y-29250028D01*
X33154499Y-29345501D01*
X33249972Y-29423853D01*
X33358897Y-29482075D01*
X33389221Y-29491274D01*
X33313901Y-29566594D01*
X33146790Y-29816694D01*
X33031681Y-30094590D01*
X32973000Y-30389604D01*
X32973000Y-30690396D01*
X33031681Y-30985410D01*
X33146790Y-31263306D01*
X33313901Y-31513406D01*
X33526594Y-31726099D01*
X33776694Y-31893210D01*
X34054590Y-32008319D01*
X34349604Y-32067000D01*
X34650396Y-32067000D01*
X34945410Y-32008319D01*
X35223306Y-31893210D01*
X35473406Y-31726099D01*
X35686099Y-31513406D01*
X35853210Y-31263306D01*
X35968319Y-30985410D01*
X36027000Y-30690396D01*
X36027000Y-30389604D01*
X35968319Y-30094590D01*
X35853210Y-29816694D01*
X35686099Y-29566594D01*
X35610779Y-29491274D01*
X35641103Y-29482075D01*
X35750028Y-29423853D01*
X35845501Y-29345501D01*
X35923853Y-29250028D01*
X35982075Y-29141103D01*
X36017927Y-29022913D01*
X36030033Y-28900000D01*
X36030033Y-27100000D01*
X36017927Y-26977087D01*
X35982075Y-26858897D01*
X35923853Y-26749972D01*
X35845501Y-26654499D01*
X35750028Y-26576147D01*
X35641103Y-26517925D01*
X35522913Y-26482073D01*
X35400000Y-26469967D01*
X33600000Y-26469967D01*
X33477087Y-26482073D01*
X33358897Y-26517925D01*
X33249972Y-26576147D01*
X33154499Y-26654499D01*
X33076147Y-26749972D01*
X33017925Y-26858897D01*
X32982073Y-26977087D01*
X32969967Y-27100000D01*
X29530033Y-27100000D01*
X29517927Y-26977087D01*
X29482075Y-26858897D01*
X29423853Y-26749972D01*
X29345501Y-26654499D01*
X29250028Y-26576147D01*
X29141103Y-26517925D01*
X29022913Y-26482073D01*
X28900000Y-26469967D01*
X27100000Y-26469967D01*
X26977087Y-26482073D01*
X26858897Y-26517925D01*
X26749972Y-26576147D01*
X26654499Y-26654499D01*
X26576147Y-26749972D01*
X26517925Y-26858897D01*
X26482073Y-26977087D01*
X26469967Y-27100000D01*
X22115818Y-27100000D01*
X22031358Y-26832329D01*
X21882481Y-26561100D01*
X21683551Y-26324127D01*
X21442212Y-26130516D01*
X21167739Y-25987708D01*
X20951725Y-25917364D01*
X20707000Y-26035430D01*
X20453000Y-26035430D01*
X20208275Y-25917364D01*
X19992261Y-25987708D01*
X19717788Y-26130516D01*
X19476449Y-26324127D01*
X19315058Y-26516383D01*
X19162279Y-26330221D01*
X18921768Y-26132840D01*
X18647372Y-25986172D01*
X18349635Y-25895854D01*
X18040000Y-25865358D01*
X17730364Y-25895854D01*
X17432627Y-25986172D01*
X17158231Y-26132840D01*
X17025444Y-26241815D01*
X16976353Y-26149972D01*
X16898001Y-26054499D01*
X16802528Y-25976147D01*
X16693603Y-25917925D01*
X16575413Y-25882073D01*
X16452500Y-25869967D01*
X14547500Y-25869967D01*
X14424587Y-25882073D01*
X14306397Y-25917925D01*
X14197472Y-25976147D01*
X14101999Y-26054499D01*
X14023647Y-26149972D01*
X13965425Y-26258897D01*
X13929573Y-26377087D01*
X13917467Y-26500000D01*
X8550935Y-26500000D01*
X8614545Y-26257009D01*
X8633663Y-25937089D01*
X8590000Y-25619586D01*
X8485233Y-25316702D01*
X8393292Y-25144695D01*
X8131128Y-25048478D01*
X7179605Y-26000000D01*
X6820395Y-26000000D01*
X5868872Y-25048478D01*
X5606708Y-25144695D01*
X5466618Y-25432947D01*
X5385455Y-25742991D01*
X5366337Y-26062911D01*
X4127000Y-26062911D01*
X4127000Y-25839755D01*
X4064475Y-25525422D01*
X3941828Y-25229327D01*
X3763773Y-24962848D01*
X3669797Y-24868872D01*
X6048478Y-24868872D01*
X7000000Y-25820395D01*
X7951522Y-24868872D01*
X7855305Y-24606708D01*
X7567053Y-24466618D01*
X7257009Y-24385455D01*
X6937089Y-24366337D01*
X6619586Y-24410000D01*
X6316702Y-24514767D01*
X6144695Y-24606708D01*
X6048478Y-24868872D01*
X3669797Y-24868872D01*
X3537152Y-24736227D01*
X3270673Y-24558172D01*
X2974578Y-24435525D01*
X2660245Y-24373000D01*
X2339755Y-24373000D01*
X2025422Y-24435525D01*
X1729327Y-24558172D01*
X1462848Y-24736227D01*
X1236227Y-24962848D01*
X1058172Y-25229327D01*
X935525Y-25525422D01*
X873000Y-25839755D01*
X652000Y-25839755D01*
X652000Y-24024366D01*
X39566454Y-24024366D01*
X39685873Y-24253000D01*
X40873000Y-24253000D01*
X40873000Y-23065215D01*
X41127000Y-23065215D01*
X41127000Y-24253000D01*
X42314127Y-24253000D01*
X42433546Y-24024366D01*
X42389535Y-23879261D01*
X42265146Y-23617798D01*
X42092138Y-23385626D01*
X41877160Y-23191667D01*
X41628473Y-23043375D01*
X41355635Y-22946449D01*
X41127000Y-23065215D01*
X40873000Y-23065215D01*
X40644365Y-22946449D01*
X40371527Y-23043375D01*
X40122840Y-23191667D01*
X39907862Y-23385626D01*
X39734854Y-23617798D01*
X39610465Y-23879261D01*
X39566454Y-24024366D01*
X652000Y-24024366D01*
X652000Y-13600000D01*
X1994966Y-13600000D01*
X2007072Y-13722914D01*
X2042924Y-13841104D01*
X2101146Y-13950028D01*
X2179499Y-14045501D01*
X2274972Y-14123854D01*
X2383896Y-14182076D01*
X2502086Y-14217928D01*
X2625000Y-14230034D01*
X3216250Y-14227000D01*
X3373000Y-14070250D01*
X3373000Y-13127000D01*
X3627000Y-13127000D01*
X3627000Y-14070250D01*
X3783750Y-14227000D01*
X4375000Y-14230034D01*
X4497914Y-14217928D01*
X4616104Y-14182076D01*
X4725028Y-14123854D01*
X4820501Y-14045501D01*
X4898854Y-13950028D01*
X4957076Y-13841104D01*
X4992928Y-13722914D01*
X5005034Y-13600000D01*
X5002000Y-13283750D01*
X4845250Y-13127000D01*
X3627000Y-13127000D01*
X3373000Y-13127000D01*
X2154750Y-13127000D01*
X1998000Y-13283750D01*
X1994966Y-13600000D01*
X652000Y-13600000D01*
X652000Y-652000D01*
X39848000Y-652000D01*
X39848001Y-1678447D01*
G04 #@! TA.AperFunction,Conductor*
D24*
G36*
X39848001Y-1678447D02*
G01*
X39613505Y-1443952D01*
X39587606Y-1412394D01*
X39461679Y-1309048D01*
X39318010Y-1232255D01*
X39162120Y-1184966D01*
X39040624Y-1173000D01*
X39040614Y-1173000D01*
X39000000Y-1169000D01*
X38959386Y-1173000D01*
X28040624Y-1173000D01*
X28000000Y-1168999D01*
X27959376Y-1173000D01*
X4540614Y-1173000D01*
X4500000Y-1169000D01*
X4459386Y-1173000D01*
X4459376Y-1173000D01*
X4337880Y-1184966D01*
X4229278Y-1217910D01*
X4181989Y-1232255D01*
X4038320Y-1309048D01*
X3943948Y-1386497D01*
X3943941Y-1386504D01*
X3912394Y-1412394D01*
X3886503Y-1443942D01*
X3557446Y-1773000D01*
X3164732Y-1773000D01*
X2984466Y-1790755D01*
X2753176Y-1860916D01*
X2540017Y-1974851D01*
X2353183Y-2128183D01*
X2199851Y-2315017D01*
X2085916Y-2528176D01*
X2015755Y-2759466D01*
X1992064Y-3000000D01*
X2015755Y-3240534D01*
X2085916Y-3471824D01*
X2199851Y-3684983D01*
X2353183Y-3871817D01*
X2509373Y-4000000D01*
X2353183Y-4128183D01*
X2199851Y-4315017D01*
X2085916Y-4528176D01*
X2015755Y-4759466D01*
X1992064Y-5000000D01*
X2015755Y-5240534D01*
X2085916Y-5471824D01*
X2199851Y-5684983D01*
X2353183Y-5871817D01*
X2509373Y-6000000D01*
X2353183Y-6128183D01*
X2199851Y-6315017D01*
X2085916Y-6528176D01*
X2015755Y-6759466D01*
X1992064Y-7000000D01*
X2015755Y-7240534D01*
X2085916Y-7471824D01*
X2199851Y-7684983D01*
X2353183Y-7871817D01*
X2509373Y-8000000D01*
X2353183Y-8128183D01*
X2199851Y-8315017D01*
X2085916Y-8528176D01*
X2015755Y-8759466D01*
X1992064Y-9000000D01*
X2015755Y-9240534D01*
X2085916Y-9471824D01*
X2199851Y-9684983D01*
X2353183Y-9871817D01*
X2509373Y-10000000D01*
X2353183Y-10128183D01*
X2199851Y-10315017D01*
X2085916Y-10528176D01*
X2015755Y-10759466D01*
X1992064Y-11000000D01*
X2015755Y-11240534D01*
X2085916Y-11471824D01*
X2199851Y-11684983D01*
X2331805Y-11845768D01*
X2274972Y-11876146D01*
X2179499Y-11954499D01*
X2101146Y-12049972D01*
X2042924Y-12158896D01*
X2007072Y-12277086D01*
X1994966Y-12400000D01*
X1998000Y-12716250D01*
X2154750Y-12873000D01*
X3373000Y-12873000D01*
X3373000Y-12853000D01*
X3627000Y-12853000D01*
X3627000Y-12873000D01*
X4845250Y-12873000D01*
X5002000Y-12716250D01*
X5005034Y-12400000D01*
X4992928Y-12277086D01*
X4957076Y-12158896D01*
X4898854Y-12049972D01*
X4820501Y-11954499D01*
X4725028Y-11876146D01*
X4668195Y-11845768D01*
X4800149Y-11684983D01*
X4914084Y-11471824D01*
X4984245Y-11240534D01*
X5007936Y-11000000D01*
X4984245Y-10759466D01*
X4914084Y-10528176D01*
X4800149Y-10315017D01*
X4646817Y-10128183D01*
X4490627Y-10000000D01*
X4646817Y-9871817D01*
X4800149Y-9684983D01*
X4914084Y-9471824D01*
X4984245Y-9240534D01*
X5001867Y-9061621D01*
X9787392Y-4276096D01*
X9891731Y-4232877D01*
X10027181Y-4142372D01*
X10142372Y-4027181D01*
X10232877Y-3891731D01*
X10295218Y-3741227D01*
X10327000Y-3581452D01*
X10327000Y-3418548D01*
X10295218Y-3258773D01*
X10232877Y-3108269D01*
X10142372Y-2972819D01*
X10027181Y-2857628D01*
X9981343Y-2827000D01*
X27173001Y-2827000D01*
X27173000Y-3918548D01*
X27173000Y-4081452D01*
X27180965Y-4121492D01*
X27184966Y-4162119D01*
X27196818Y-4201188D01*
X27204782Y-4241227D01*
X27220404Y-4278942D01*
X27232255Y-4318009D01*
X27251500Y-4354013D01*
X27267123Y-4391731D01*
X27289805Y-4425677D01*
X27309048Y-4461678D01*
X27334946Y-4493234D01*
X27357628Y-4527181D01*
X27386496Y-4556049D01*
X27412394Y-4587606D01*
X27443952Y-4613505D01*
X27472819Y-4642372D01*
X27506762Y-4665052D01*
X27538321Y-4690952D01*
X27574327Y-4710198D01*
X27608269Y-4732877D01*
X27645982Y-4748498D01*
X27681990Y-4767745D01*
X27721061Y-4779597D01*
X27758773Y-4795218D01*
X27798809Y-4803182D01*
X27837880Y-4815034D01*
X27878508Y-4819035D01*
X27918548Y-4827000D01*
X27959376Y-4827000D01*
X28000000Y-4831001D01*
X28040624Y-4827000D01*
X28081452Y-4827000D01*
X28121492Y-4819035D01*
X28162119Y-4815034D01*
X28201188Y-4803182D01*
X28241227Y-4795218D01*
X28278942Y-4779596D01*
X28318009Y-4767745D01*
X28354013Y-4748500D01*
X28391731Y-4732877D01*
X28425677Y-4710195D01*
X28461678Y-4690952D01*
X28493234Y-4665054D01*
X28527181Y-4642372D01*
X28556049Y-4613504D01*
X28587606Y-4587606D01*
X28613505Y-4556048D01*
X28642372Y-4527181D01*
X28665052Y-4493238D01*
X28690952Y-4461679D01*
X28710198Y-4425673D01*
X28732877Y-4391731D01*
X28748498Y-4354018D01*
X28767745Y-4318010D01*
X28779597Y-4278939D01*
X28795218Y-4241227D01*
X28803182Y-4201191D01*
X28815034Y-4162120D01*
X28819035Y-4121491D01*
X28827000Y-4081452D01*
X28827000Y-2827000D01*
X38657446Y-2827000D01*
X39003446Y-3173000D01*
X36918548Y-3173000D01*
X36878509Y-3180965D01*
X36837880Y-3184966D01*
X36798809Y-3196818D01*
X36758773Y-3204782D01*
X36721061Y-3220403D01*
X36681990Y-3232255D01*
X36645982Y-3251502D01*
X36608269Y-3267123D01*
X36574327Y-3289802D01*
X36538321Y-3309048D01*
X36506762Y-3334948D01*
X36472819Y-3357628D01*
X36443952Y-3386495D01*
X36412394Y-3412394D01*
X36386495Y-3443952D01*
X36357628Y-3472819D01*
X36334948Y-3506762D01*
X36309048Y-3538321D01*
X36289802Y-3574327D01*
X36267123Y-3608269D01*
X36251502Y-3645982D01*
X36232255Y-3681990D01*
X36220403Y-3721061D01*
X36204782Y-3758773D01*
X36196818Y-3798809D01*
X36184966Y-3837880D01*
X36180965Y-3878508D01*
X36173000Y-3918548D01*
X36173000Y-3959376D01*
X36168999Y-4000000D01*
X36173000Y-4040623D01*
X36173000Y-4081452D01*
X36180965Y-4121492D01*
X36184966Y-4162120D01*
X36196818Y-4201191D01*
X36204782Y-4241227D01*
X36220403Y-4278939D01*
X36232255Y-4318010D01*
X36251502Y-4354018D01*
X36267123Y-4391731D01*
X36289802Y-4425673D01*
X36309048Y-4461679D01*
X36334948Y-4493238D01*
X36357628Y-4527181D01*
X36386495Y-4556048D01*
X36412394Y-4587606D01*
X36443952Y-4613505D01*
X36472819Y-4642372D01*
X36506762Y-4665052D01*
X36538321Y-4690952D01*
X36574327Y-4710198D01*
X36608269Y-4732877D01*
X36645982Y-4748498D01*
X36681990Y-4767745D01*
X36721061Y-4779597D01*
X36758773Y-4795218D01*
X36798809Y-4803182D01*
X36837880Y-4815034D01*
X36878509Y-4819035D01*
X36918548Y-4827000D01*
X41081452Y-4827000D01*
X41121491Y-4819035D01*
X41162120Y-4815034D01*
X41201191Y-4803182D01*
X41241227Y-4795218D01*
X41278939Y-4779597D01*
X41318010Y-4767745D01*
X41354018Y-4748498D01*
X41391731Y-4732877D01*
X41425673Y-4710198D01*
X41461679Y-4690952D01*
X41493238Y-4665052D01*
X41527181Y-4642372D01*
X41556048Y-4613505D01*
X41587606Y-4587606D01*
X41613505Y-4556048D01*
X41642372Y-4527181D01*
X41665052Y-4493238D01*
X41690952Y-4461679D01*
X41710198Y-4425673D01*
X41732877Y-4391731D01*
X41748498Y-4354018D01*
X41767745Y-4318010D01*
X41779597Y-4278939D01*
X41795218Y-4241227D01*
X41803182Y-4201191D01*
X41815034Y-4162120D01*
X41819035Y-4121492D01*
X41827000Y-4081452D01*
X41827000Y-4040623D01*
X41831001Y-4000000D01*
X41827000Y-3959376D01*
X41827000Y-3918548D01*
X41819035Y-3878508D01*
X41815034Y-3837880D01*
X41811734Y-3827000D01*
X43173001Y-3827000D01*
X43173000Y-6959376D01*
X43173000Y-6959377D01*
X43173001Y-7959377D01*
X43169000Y-8000000D01*
X43184967Y-8162120D01*
X43232256Y-8318010D01*
X43309048Y-8461679D01*
X43386498Y-8556051D01*
X43412395Y-8587606D01*
X43443947Y-8613500D01*
X44443948Y-9613503D01*
X44443959Y-9613512D01*
X44472819Y-9642372D01*
X44506755Y-9665048D01*
X44538320Y-9690952D01*
X44574331Y-9710201D01*
X44608269Y-9732877D01*
X44645978Y-9748497D01*
X44681989Y-9767745D01*
X44721061Y-9779597D01*
X44758773Y-9795218D01*
X44798813Y-9803183D01*
X44837879Y-9815033D01*
X44878499Y-9819034D01*
X44918548Y-9827000D01*
X44959386Y-9827000D01*
X45000000Y-9831000D01*
X45040614Y-9827000D01*
X45081452Y-9827000D01*
X45121501Y-9819033D01*
X45162120Y-9815033D01*
X45201184Y-9803183D01*
X45241227Y-9795218D01*
X45278941Y-9779596D01*
X45318010Y-9767745D01*
X45354019Y-9748498D01*
X45391731Y-9732877D01*
X45425670Y-9710200D01*
X45461680Y-9690952D01*
X45493242Y-9665049D01*
X45527181Y-9642372D01*
X45556046Y-9613507D01*
X45587606Y-9587606D01*
X45613507Y-9556046D01*
X45642372Y-9527181D01*
X45665049Y-9493242D01*
X45690952Y-9461680D01*
X45710200Y-9425670D01*
X45732877Y-9391731D01*
X45748498Y-9354019D01*
X45767745Y-9318010D01*
X45779596Y-9278941D01*
X45795218Y-9241227D01*
X45803183Y-9201184D01*
X45815033Y-9162120D01*
X45819033Y-9121501D01*
X45827000Y-9081452D01*
X45827000Y-9040614D01*
X45831000Y-9000000D01*
X45827000Y-8959386D01*
X45827000Y-8918548D01*
X45819034Y-8878499D01*
X45815033Y-8837879D01*
X45803183Y-8798813D01*
X45795218Y-8758773D01*
X45779597Y-8721061D01*
X45767745Y-8681989D01*
X45748497Y-8645978D01*
X45732877Y-8608269D01*
X45710201Y-8574331D01*
X45690952Y-8538320D01*
X45665048Y-8506755D01*
X45642372Y-8472819D01*
X45613512Y-8443959D01*
X45613503Y-8443948D01*
X45088103Y-7918548D01*
X47173000Y-7918548D01*
X47173000Y-8081452D01*
X47204782Y-8241227D01*
X47267123Y-8391731D01*
X47339466Y-8500000D01*
X47267123Y-8608269D01*
X47204782Y-8758773D01*
X47173000Y-8918548D01*
X47173000Y-9081452D01*
X47204782Y-9241227D01*
X47267123Y-9391731D01*
X47357628Y-9527181D01*
X47472819Y-9642372D01*
X47608269Y-9732877D01*
X47758773Y-9795218D01*
X47918548Y-9827000D01*
X48081452Y-9827000D01*
X48241227Y-9795218D01*
X48391731Y-9732877D01*
X48527181Y-9642372D01*
X48642372Y-9527181D01*
X48732877Y-9391731D01*
X48776095Y-9287393D01*
X48861479Y-9202010D01*
X70226183Y-9202010D01*
X70220407Y-9221052D01*
X70204782Y-9258773D01*
X70196816Y-9298818D01*
X70184967Y-9337880D01*
X70180967Y-9378499D01*
X70173000Y-9418548D01*
X70173000Y-9581452D01*
X70173001Y-9581457D01*
X70173000Y-11418548D01*
X70173000Y-11581452D01*
X70180965Y-11621492D01*
X70184966Y-11662119D01*
X70196818Y-11701188D01*
X70204782Y-11741227D01*
X70220404Y-11778942D01*
X70232255Y-11818009D01*
X70251500Y-11854013D01*
X70267123Y-11891731D01*
X70289805Y-11925677D01*
X70309048Y-11961678D01*
X70334946Y-11993234D01*
X70357628Y-12027181D01*
X70386496Y-12056049D01*
X70412394Y-12087606D01*
X70443952Y-12113505D01*
X70472819Y-12142372D01*
X70506762Y-12165052D01*
X70538321Y-12190952D01*
X70574327Y-12210198D01*
X70608269Y-12232877D01*
X70645982Y-12248498D01*
X70681990Y-12267745D01*
X70721061Y-12279597D01*
X70758773Y-12295218D01*
X70798809Y-12303182D01*
X70837880Y-12315034D01*
X70878508Y-12319035D01*
X70918548Y-12327000D01*
X70959376Y-12327000D01*
X71000000Y-12331001D01*
X71040624Y-12327000D01*
X71081452Y-12327000D01*
X71121492Y-12319035D01*
X71162119Y-12315034D01*
X71201188Y-12303182D01*
X71241227Y-12295218D01*
X71278942Y-12279596D01*
X71318009Y-12267745D01*
X71354013Y-12248500D01*
X71391731Y-12232877D01*
X71425677Y-12210195D01*
X71461678Y-12190952D01*
X71493234Y-12165054D01*
X71527181Y-12142372D01*
X71556049Y-12113504D01*
X71587606Y-12087606D01*
X71613505Y-12056048D01*
X71642372Y-12027181D01*
X71665052Y-11993238D01*
X71690952Y-11961679D01*
X71710198Y-11925673D01*
X71732877Y-11891731D01*
X71748498Y-11854018D01*
X71767745Y-11818010D01*
X71779597Y-11778939D01*
X71795218Y-11741227D01*
X71803182Y-11701191D01*
X71815034Y-11662120D01*
X71819035Y-11621491D01*
X71827000Y-11581452D01*
X71827000Y-9418548D01*
X71819035Y-9378509D01*
X71815034Y-9337880D01*
X71803182Y-9298809D01*
X71795218Y-9258773D01*
X71779597Y-9221061D01*
X71773818Y-9202010D01*
X93513055Y-9202010D01*
X93549990Y-9205648D01*
X93586925Y-9202010D01*
X93586928Y-9202010D01*
X93697408Y-9191129D01*
X93839160Y-9148128D01*
X93969800Y-9078300D01*
X94084307Y-8984327D01*
X94107857Y-8955631D01*
X95005622Y-8057866D01*
X95034317Y-8034317D01*
X95128290Y-7919810D01*
X95198118Y-7789170D01*
X95221662Y-7711559D01*
X95353183Y-7871817D01*
X95509373Y-8000000D01*
X95353183Y-8128183D01*
X95199851Y-8315017D01*
X95085916Y-8528176D01*
X95015755Y-8759466D01*
X94992064Y-9000000D01*
X95015755Y-9240534D01*
X95085916Y-9471824D01*
X95199851Y-9684983D01*
X95353183Y-9871817D01*
X95509373Y-10000000D01*
X95353183Y-10128183D01*
X95199851Y-10315017D01*
X95085916Y-10528176D01*
X95015755Y-10759466D01*
X94992064Y-11000000D01*
X95015755Y-11240534D01*
X95085916Y-11471824D01*
X95199851Y-11684983D01*
X95353183Y-11871817D01*
X95509373Y-12000000D01*
X95353183Y-12128183D01*
X95199851Y-12315017D01*
X95085916Y-12528176D01*
X95015755Y-12759466D01*
X94992064Y-13000000D01*
X95015755Y-13240534D01*
X95085916Y-13471824D01*
X95199851Y-13684983D01*
X95353183Y-13871817D01*
X95540017Y-14025149D01*
X95753176Y-14139084D01*
X95984466Y-14209245D01*
X96164732Y-14227000D01*
X96835268Y-14227000D01*
X97015534Y-14209245D01*
X97246824Y-14139084D01*
X97459983Y-14025149D01*
X97646817Y-13871817D01*
X97800149Y-13684983D01*
X97914084Y-13471824D01*
X97984245Y-13240534D01*
X98007936Y-13000000D01*
X97984245Y-12759466D01*
X97914084Y-12528176D01*
X97800149Y-12315017D01*
X97646817Y-12128183D01*
X97490627Y-12000000D01*
X97646817Y-11871817D01*
X97800149Y-11684983D01*
X97914084Y-11471824D01*
X97984245Y-11240534D01*
X98007936Y-11000000D01*
X97984245Y-10759466D01*
X97914084Y-10528176D01*
X97800149Y-10315017D01*
X97646817Y-10128183D01*
X97490627Y-10000000D01*
X97646817Y-9871817D01*
X97800149Y-9684983D01*
X97914084Y-9471824D01*
X97984245Y-9240534D01*
X98007936Y-9000000D01*
X97984245Y-8759466D01*
X97914084Y-8528176D01*
X97800149Y-8315017D01*
X97646817Y-8128183D01*
X97490627Y-8000000D01*
X97646817Y-7871817D01*
X97800149Y-7684983D01*
X97914084Y-7471824D01*
X97984245Y-7240534D01*
X98007936Y-7000000D01*
X97984245Y-6759466D01*
X97914084Y-6528176D01*
X97800149Y-6315017D01*
X97646817Y-6128183D01*
X97490627Y-6000000D01*
X97646817Y-5871817D01*
X97800149Y-5684983D01*
X97914084Y-5471824D01*
X97984245Y-5240534D01*
X98007936Y-5000000D01*
X97984245Y-4759466D01*
X97914084Y-4528176D01*
X97800149Y-4315017D01*
X97668195Y-4154232D01*
X97725028Y-4123854D01*
X97820501Y-4045501D01*
X97898854Y-3950028D01*
X97957076Y-3841104D01*
X97992928Y-3722914D01*
X98005034Y-3600000D01*
X98002000Y-3283750D01*
X97845250Y-3127000D01*
X96627000Y-3127000D01*
X96627000Y-3147000D01*
X96373000Y-3147000D01*
X96373000Y-3127000D01*
X95154750Y-3127000D01*
X94998000Y-3283750D01*
X94994966Y-3600000D01*
X95007072Y-3722914D01*
X95042924Y-3841104D01*
X95101146Y-3950028D01*
X95179499Y-4045501D01*
X95274972Y-4123854D01*
X95331805Y-4154232D01*
X95210475Y-4302072D01*
X95080190Y-4371710D01*
X94965683Y-4465683D01*
X94942133Y-4494379D01*
X93994375Y-5442137D01*
X93965684Y-5465683D01*
X93942138Y-5494374D01*
X93942137Y-5494375D01*
X93871710Y-5580190D01*
X93801882Y-5710831D01*
X93758882Y-5852583D01*
X93744362Y-6000000D01*
X93748001Y-6036945D01*
X93748001Y-6207588D01*
X93741227Y-6204782D01*
X93581452Y-6173000D01*
X93418548Y-6173000D01*
X93258773Y-6204782D01*
X93154436Y-6248000D01*
X91036935Y-6248000D01*
X91000000Y-6244362D01*
X90963064Y-6248000D01*
X90963062Y-6248000D01*
X90852582Y-6258881D01*
X90710830Y-6301882D01*
X90580190Y-6371710D01*
X90465683Y-6465683D01*
X90442133Y-6494379D01*
X89688512Y-7248000D01*
X48345564Y-7248000D01*
X48241227Y-7204782D01*
X48081452Y-7173000D01*
X47918548Y-7173000D01*
X47758773Y-7204782D01*
X47608269Y-7267123D01*
X47472819Y-7357628D01*
X47357628Y-7472819D01*
X47267123Y-7608269D01*
X47204782Y-7758773D01*
X47173000Y-7918548D01*
X45088103Y-7918548D01*
X44827000Y-7657446D01*
X44827000Y-3827000D01*
X59459386Y-3827000D01*
X59500000Y-3831000D01*
X59540614Y-3827000D01*
X59540624Y-3827000D01*
X59662120Y-3815034D01*
X59818010Y-3767745D01*
X59961679Y-3690952D01*
X60087606Y-3587606D01*
X60113505Y-3556048D01*
X60842554Y-2827000D01*
X77081452Y-2827000D01*
X77121491Y-2819035D01*
X77162120Y-2815034D01*
X77201191Y-2803182D01*
X77241227Y-2795218D01*
X77278939Y-2779597D01*
X77318010Y-2767745D01*
X77354018Y-2748498D01*
X77391731Y-2732877D01*
X77425673Y-2710198D01*
X77461679Y-2690952D01*
X77493238Y-2665052D01*
X77527181Y-2642372D01*
X77556048Y-2613505D01*
X77587606Y-2587606D01*
X77613505Y-2556048D01*
X77642372Y-2527181D01*
X77665052Y-2493238D01*
X77690952Y-2461679D01*
X77710198Y-2425673D01*
X77727351Y-2400000D01*
X94994966Y-2400000D01*
X94998000Y-2716250D01*
X95154750Y-2873000D01*
X96373000Y-2873000D01*
X96373000Y-1929750D01*
X96627000Y-1929750D01*
X96627000Y-2873000D01*
X97845250Y-2873000D01*
X98002000Y-2716250D01*
X98005034Y-2400000D01*
X97992928Y-2277086D01*
X97957076Y-2158896D01*
X97898854Y-2049972D01*
X97820501Y-1954499D01*
X97725028Y-1876146D01*
X97616104Y-1817924D01*
X97497914Y-1782072D01*
X97375000Y-1769966D01*
X96783750Y-1773000D01*
X96627000Y-1929750D01*
X96373000Y-1929750D01*
X96216250Y-1773000D01*
X95625000Y-1769966D01*
X95502086Y-1782072D01*
X95383896Y-1817924D01*
X95274972Y-1876146D01*
X95179499Y-1954499D01*
X95101146Y-2049972D01*
X95042924Y-2158896D01*
X95007072Y-2277086D01*
X94994966Y-2400000D01*
X77727351Y-2400000D01*
X77732877Y-2391731D01*
X77748498Y-2354018D01*
X77767745Y-2318010D01*
X77779597Y-2278939D01*
X77795218Y-2241227D01*
X77803182Y-2201191D01*
X77815034Y-2162120D01*
X77819035Y-2121492D01*
X77827000Y-2081452D01*
X77827000Y-2040624D01*
X77831001Y-2000000D01*
X77827000Y-1959376D01*
X77827000Y-1918548D01*
X77819035Y-1878508D01*
X77815034Y-1837880D01*
X77803182Y-1798809D01*
X77795218Y-1758773D01*
X77779597Y-1721061D01*
X77767745Y-1681990D01*
X77748498Y-1645982D01*
X77732877Y-1608269D01*
X77710198Y-1574327D01*
X77690952Y-1538321D01*
X77665052Y-1506762D01*
X77642372Y-1472819D01*
X77613505Y-1443952D01*
X77587606Y-1412394D01*
X77556048Y-1386495D01*
X77527181Y-1357628D01*
X77493238Y-1334948D01*
X77461679Y-1309048D01*
X77425673Y-1289802D01*
X77391731Y-1267123D01*
X77354018Y-1251502D01*
X77318010Y-1232255D01*
X77278939Y-1220403D01*
X77241227Y-1204782D01*
X77201191Y-1196818D01*
X77162120Y-1184966D01*
X77121491Y-1180965D01*
X77081452Y-1173000D01*
X60540614Y-1173000D01*
X60500000Y-1169000D01*
X60459386Y-1173000D01*
X60459376Y-1173000D01*
X60337880Y-1184966D01*
X60229278Y-1217910D01*
X60181989Y-1232255D01*
X60038320Y-1309048D01*
X59943948Y-1386497D01*
X59943941Y-1386504D01*
X59912394Y-1412394D01*
X59886503Y-1443942D01*
X59157446Y-2173000D01*
X59128858Y-2173000D01*
X59142565Y-2127814D01*
X59155154Y-2000000D01*
X59152000Y-1967978D01*
X59152000Y-652000D01*
X99348000Y-652000D01*
X99348001Y-34348000D01*
X80731530Y-34348000D01*
X80795501Y-34295501D01*
X80873853Y-34200028D01*
X80932075Y-34091103D01*
X80967927Y-33972913D01*
X80980033Y-33850000D01*
X80980033Y-32150000D01*
X80967927Y-32027087D01*
X80932075Y-31908897D01*
X80873853Y-31799972D01*
X80795501Y-31704499D01*
X80700028Y-31626147D01*
X80591103Y-31567925D01*
X80472913Y-31532073D01*
X80350000Y-31519967D01*
X78650000Y-31519967D01*
X78527087Y-31532073D01*
X78408897Y-31567925D01*
X78299972Y-31626147D01*
X78204499Y-31704499D01*
X78126147Y-31799972D01*
X78067925Y-31908897D01*
X78039589Y-32002311D01*
X77954374Y-31907862D01*
X77722202Y-31734854D01*
X77460739Y-31610465D01*
X77315634Y-31566454D01*
X77087000Y-31685873D01*
X77087000Y-32873000D01*
X77107000Y-32873000D01*
X77107000Y-33127000D01*
X77087000Y-33127000D01*
X77087000Y-33147000D01*
X76833000Y-33147000D01*
X76833000Y-33127000D01*
X75645215Y-33127000D01*
X75526449Y-33355635D01*
X75623375Y-33628473D01*
X75771667Y-33877160D01*
X75965626Y-34092138D01*
X76197798Y-34265146D01*
X76371955Y-34348000D01*
X65627000Y-34348000D01*
X65627000Y-34000000D01*
X65624560Y-33975224D01*
X65617333Y-33951399D01*
X65605597Y-33929443D01*
X65589803Y-33910197D01*
X65570557Y-33894403D01*
X65548601Y-33882667D01*
X65524776Y-33875440D01*
X65500000Y-33873000D01*
X46796553Y-33873000D01*
X47842555Y-32827000D01*
X62581452Y-32827000D01*
X62621491Y-32819035D01*
X62662120Y-32815034D01*
X62701191Y-32803182D01*
X62741227Y-32795218D01*
X62778939Y-32779597D01*
X62818010Y-32767745D01*
X62854018Y-32748498D01*
X62891731Y-32732877D01*
X62925673Y-32710198D01*
X62961679Y-32690952D01*
X62993238Y-32665052D01*
X63024198Y-32644365D01*
X75526449Y-32644365D01*
X75645215Y-32873000D01*
X76833000Y-32873000D01*
X76833000Y-31685873D01*
X76604366Y-31566454D01*
X76459261Y-31610465D01*
X76197798Y-31734854D01*
X75965626Y-31907862D01*
X75771667Y-32122840D01*
X75623375Y-32371527D01*
X75526449Y-32644365D01*
X63024198Y-32644365D01*
X63027181Y-32642372D01*
X63056048Y-32613505D01*
X63087606Y-32587606D01*
X63113505Y-32556048D01*
X63142372Y-32527181D01*
X63165052Y-32493238D01*
X63190952Y-32461679D01*
X63210198Y-32425673D01*
X63232877Y-32391731D01*
X63248498Y-32354018D01*
X63267745Y-32318010D01*
X63279597Y-32278939D01*
X63295218Y-32241227D01*
X63303182Y-32201191D01*
X63315034Y-32162120D01*
X63319035Y-32121492D01*
X63327000Y-32081452D01*
X63327000Y-32040624D01*
X63331001Y-32000000D01*
X63327000Y-31959376D01*
X63327000Y-31918548D01*
X63319035Y-31878508D01*
X63315034Y-31837880D01*
X63303182Y-31798809D01*
X63295218Y-31758773D01*
X63279597Y-31721061D01*
X63267745Y-31681990D01*
X63248498Y-31645982D01*
X63232877Y-31608269D01*
X63210198Y-31574327D01*
X63190952Y-31538321D01*
X63165052Y-31506762D01*
X63142372Y-31472819D01*
X63113505Y-31443952D01*
X63087606Y-31412394D01*
X63056048Y-31386495D01*
X63027181Y-31357628D01*
X62993238Y-31334948D01*
X62961679Y-31309048D01*
X62925673Y-31289802D01*
X62891731Y-31267123D01*
X62854018Y-31251502D01*
X62818010Y-31232255D01*
X62778939Y-31220403D01*
X62741227Y-31204782D01*
X62701191Y-31196818D01*
X62662120Y-31184966D01*
X62621491Y-31180965D01*
X62581452Y-31173000D01*
X47540610Y-31173000D01*
X47499999Y-31169000D01*
X47459388Y-31173000D01*
X47459376Y-31173000D01*
X47337880Y-31184966D01*
X47181990Y-31232255D01*
X47165409Y-31241118D01*
X47038319Y-31309049D01*
X46943947Y-31386498D01*
X46943941Y-31386504D01*
X46912394Y-31412394D01*
X46886503Y-31443942D01*
X45657447Y-32673000D01*
X43981343Y-32673000D01*
X44027181Y-32642372D01*
X44142372Y-32527181D01*
X44232877Y-32391731D01*
X44295218Y-32241227D01*
X44327000Y-32081452D01*
X44327000Y-31918548D01*
X44295218Y-31758773D01*
X44252000Y-31654436D01*
X44252000Y-31292413D01*
X44258773Y-31295218D01*
X44418548Y-31327000D01*
X44581452Y-31327000D01*
X44741227Y-31295218D01*
X44891731Y-31232877D01*
X45027181Y-31142372D01*
X45142372Y-31027181D01*
X45232877Y-30891731D01*
X45279427Y-30779350D01*
X45328289Y-30719811D01*
X45398117Y-30589171D01*
X45441118Y-30447419D01*
X45451999Y-30336939D01*
X45451999Y-30336937D01*
X45455637Y-30300002D01*
X45451999Y-30263066D01*
X45451999Y-17192607D01*
X45527181Y-17142372D01*
X45642372Y-17027181D01*
X45732877Y-16891731D01*
X45795218Y-16741227D01*
X45827000Y-16581452D01*
X45827000Y-16418548D01*
X45820032Y-16383521D01*
X49116479Y-19679967D01*
X49081452Y-19673000D01*
X48918548Y-19673000D01*
X48758773Y-19704782D01*
X48608269Y-19767123D01*
X48472819Y-19857628D01*
X48357628Y-19972819D01*
X48267123Y-20108269D01*
X48204782Y-20258773D01*
X48173000Y-20418548D01*
X48173000Y-20581452D01*
X48204782Y-20741227D01*
X48267123Y-20891731D01*
X48357628Y-21027181D01*
X48472819Y-21142372D01*
X48608269Y-21232877D01*
X48712608Y-21276096D01*
X58102137Y-30665626D01*
X58125683Y-30694317D01*
X58154374Y-30717863D01*
X58240189Y-30788290D01*
X58326303Y-30834318D01*
X58370830Y-30858118D01*
X58512582Y-30901119D01*
X58623062Y-30912000D01*
X58623064Y-30912000D01*
X58659999Y-30915638D01*
X58696935Y-30912000D01*
X88726097Y-30912000D01*
X88852739Y-31101533D01*
X89058467Y-31307261D01*
X89300378Y-31468901D01*
X89569175Y-31580240D01*
X89854528Y-31637000D01*
X90145472Y-31637000D01*
X90430825Y-31580240D01*
X90699622Y-31468901D01*
X90941533Y-31307261D01*
X91147261Y-31101533D01*
X91270000Y-30917841D01*
X91392739Y-31101533D01*
X91598467Y-31307261D01*
X91840378Y-31468901D01*
X92109175Y-31580240D01*
X92394528Y-31637000D01*
X92685472Y-31637000D01*
X92970825Y-31580240D01*
X93239622Y-31468901D01*
X93481533Y-31307261D01*
X93687261Y-31101533D01*
X93848901Y-30859622D01*
X93960240Y-30590825D01*
X94017000Y-30305472D01*
X94017000Y-30014528D01*
X93960240Y-29729175D01*
X93916330Y-29623167D01*
X93934811Y-29613289D01*
X94049318Y-29519316D01*
X94072868Y-29490620D01*
X94505622Y-29057866D01*
X94534317Y-29034317D01*
X94607206Y-28945501D01*
X94628290Y-28919811D01*
X94672242Y-28837581D01*
X94698118Y-28789170D01*
X94741119Y-28647418D01*
X94752000Y-28536938D01*
X94752000Y-28536936D01*
X94755638Y-28500001D01*
X94752000Y-28463065D01*
X94752000Y-21496935D01*
X94755638Y-21460000D01*
X94751722Y-21420240D01*
X94741119Y-21312582D01*
X94698118Y-21170830D01*
X94628290Y-21040190D01*
X94534317Y-20925683D01*
X94505626Y-20902137D01*
X93972530Y-20369041D01*
X94017000Y-20145472D01*
X94017000Y-19854528D01*
X93960240Y-19569175D01*
X93848901Y-19300378D01*
X93687261Y-19058467D01*
X93481533Y-18852739D01*
X93239622Y-18691099D01*
X92970825Y-18579760D01*
X92685472Y-18523000D01*
X92394528Y-18523000D01*
X92109175Y-18579760D01*
X91840378Y-18691099D01*
X91598467Y-18852739D01*
X91457732Y-18993474D01*
X91432076Y-18908896D01*
X91373854Y-18799972D01*
X91295501Y-18704499D01*
X91200028Y-18626146D01*
X91091104Y-18567924D01*
X90972914Y-18532072D01*
X90850000Y-18519966D01*
X90283750Y-18523000D01*
X90127000Y-18679750D01*
X90127000Y-19873000D01*
X90147000Y-19873000D01*
X90147000Y-20127000D01*
X90127000Y-20127000D01*
X90127000Y-20147000D01*
X89873000Y-20147000D01*
X89873000Y-20127000D01*
X88679750Y-20127000D01*
X88523000Y-20283750D01*
X88519966Y-20850000D01*
X88532072Y-20972914D01*
X88567924Y-21091104D01*
X88626146Y-21200028D01*
X88704499Y-21295501D01*
X88799972Y-21373854D01*
X88908896Y-21432076D01*
X88993474Y-21457732D01*
X88852739Y-21598467D01*
X88691099Y-21840378D01*
X88579760Y-22109175D01*
X88523000Y-22394528D01*
X88523000Y-22685472D01*
X88579760Y-22970825D01*
X88691099Y-23239622D01*
X88852739Y-23481533D01*
X89058467Y-23687261D01*
X89242159Y-23810000D01*
X89058467Y-23932739D01*
X88852739Y-24138467D01*
X88691099Y-24380378D01*
X88579760Y-24649175D01*
X88523000Y-24934528D01*
X88523000Y-25225472D01*
X88579760Y-25510825D01*
X88655219Y-25692999D01*
X88591936Y-25692999D01*
X88555000Y-25689361D01*
X88518065Y-25692999D01*
X88518063Y-25692999D01*
X88407583Y-25703880D01*
X88265831Y-25746881D01*
X88182506Y-25791419D01*
X88135190Y-25816709D01*
X88055544Y-25882073D01*
X88020684Y-25910682D01*
X87997138Y-25939373D01*
X86777001Y-27159510D01*
X86777001Y-26784934D01*
X86780639Y-26747998D01*
X86776978Y-26710830D01*
X86766120Y-26600581D01*
X86723119Y-26458829D01*
X86679427Y-26377087D01*
X86653291Y-26328188D01*
X86582864Y-26242373D01*
X86559318Y-26213682D01*
X86530627Y-26190136D01*
X81334869Y-20994379D01*
X81311319Y-20965683D01*
X81196812Y-20871710D01*
X81066172Y-20801882D01*
X80924420Y-20758881D01*
X80813940Y-20748000D01*
X80813937Y-20748000D01*
X80777002Y-20744362D01*
X80740067Y-20748000D01*
X80561160Y-20748000D01*
X80600898Y-20721448D01*
X80841448Y-20480898D01*
X81030447Y-20198041D01*
X81160632Y-19883747D01*
X81227000Y-19550095D01*
X81227000Y-19209905D01*
X81215085Y-19150000D01*
X88519966Y-19150000D01*
X88523000Y-19716250D01*
X88679750Y-19873000D01*
X89873000Y-19873000D01*
X89873000Y-18679750D01*
X89716250Y-18523000D01*
X89150000Y-18519966D01*
X89027086Y-18532072D01*
X88908896Y-18567924D01*
X88799972Y-18626146D01*
X88704499Y-18704499D01*
X88626146Y-18799972D01*
X88567924Y-18908896D01*
X88532072Y-19027086D01*
X88519966Y-19150000D01*
X81215085Y-19150000D01*
X81160632Y-18876253D01*
X81030447Y-18561959D01*
X80841448Y-18279102D01*
X80600898Y-18038552D01*
X80318041Y-17849553D01*
X80003747Y-17719368D01*
X79670095Y-17653000D01*
X79329905Y-17653000D01*
X78996253Y-17719368D01*
X78681959Y-17849553D01*
X78399102Y-18038552D01*
X78158552Y-18279102D01*
X77969553Y-18561959D01*
X77839368Y-18876253D01*
X77773000Y-19209905D01*
X77773000Y-19550095D01*
X77839368Y-19883747D01*
X77969553Y-20198041D01*
X78158552Y-20480898D01*
X78399102Y-20721448D01*
X78438840Y-20748000D01*
X76040424Y-20748000D01*
X76178536Y-20642376D01*
X76402168Y-20388199D01*
X76571916Y-20095277D01*
X76681256Y-19774868D01*
X76565578Y-19507000D01*
X75127000Y-19507000D01*
X75127000Y-19527000D01*
X74873000Y-19527000D01*
X74873000Y-19507000D01*
X73434422Y-19507000D01*
X73318744Y-19774868D01*
X73428084Y-20095277D01*
X73597832Y-20388199D01*
X73821464Y-20642376D01*
X73959576Y-20748000D01*
X71292413Y-20748000D01*
X71295218Y-20741227D01*
X71303183Y-20701184D01*
X71315033Y-20662120D01*
X71319033Y-20621501D01*
X71327000Y-20581452D01*
X71327000Y-20540614D01*
X71331000Y-20500000D01*
X71327000Y-20459386D01*
X71327000Y-20418548D01*
X71319034Y-20378499D01*
X71315033Y-20337879D01*
X71303183Y-20298813D01*
X71295218Y-20258773D01*
X71279597Y-20221061D01*
X71267745Y-20181989D01*
X71248497Y-20145978D01*
X71232877Y-20108269D01*
X71210201Y-20074331D01*
X71190952Y-20038320D01*
X71165048Y-20006755D01*
X71142372Y-19972819D01*
X71113512Y-19943959D01*
X71113503Y-19943948D01*
X70327000Y-19157446D01*
X70327000Y-18985132D01*
X73318744Y-18985132D01*
X73434422Y-19253000D01*
X74873000Y-19253000D01*
X74873000Y-17814894D01*
X75127000Y-17814894D01*
X75127000Y-19253000D01*
X76565578Y-19253000D01*
X76681256Y-18985132D01*
X76571916Y-18664723D01*
X76402168Y-18371801D01*
X76178536Y-18117624D01*
X75909613Y-17911959D01*
X75605734Y-17762710D01*
X75394867Y-17698748D01*
X75127000Y-17814894D01*
X74873000Y-17814894D01*
X74605133Y-17698748D01*
X74394266Y-17762710D01*
X74090387Y-17911959D01*
X73821464Y-18117624D01*
X73597832Y-18371801D01*
X73428084Y-18664723D01*
X73318744Y-18985132D01*
X70327000Y-18985132D01*
X70327000Y-15418548D01*
X77673000Y-15418548D01*
X77673000Y-15581452D01*
X77704782Y-15741227D01*
X77767123Y-15891731D01*
X77857628Y-16027181D01*
X77972819Y-16142372D01*
X78108269Y-16232877D01*
X78258773Y-16295218D01*
X78418548Y-16327000D01*
X78581452Y-16327000D01*
X78741227Y-16295218D01*
X78845564Y-16252000D01*
X81654436Y-16252000D01*
X81758773Y-16295218D01*
X81918548Y-16327000D01*
X82081452Y-16327000D01*
X82241227Y-16295218D01*
X82391731Y-16232877D01*
X82527181Y-16142372D01*
X82642372Y-16027181D01*
X82732877Y-15891731D01*
X82795218Y-15741227D01*
X82827000Y-15581452D01*
X82827000Y-15418548D01*
X82795218Y-15258773D01*
X82732877Y-15108269D01*
X82642372Y-14972819D01*
X82527181Y-14857628D01*
X82391731Y-14767123D01*
X82241227Y-14704782D01*
X82081452Y-14673000D01*
X81918548Y-14673000D01*
X81758773Y-14704782D01*
X81654436Y-14748000D01*
X78845564Y-14748000D01*
X78741227Y-14704782D01*
X78581452Y-14673000D01*
X78418548Y-14673000D01*
X78258773Y-14704782D01*
X78108269Y-14767123D01*
X77972819Y-14857628D01*
X77857628Y-14972819D01*
X77767123Y-15108269D01*
X77704782Y-15258773D01*
X77673000Y-15418548D01*
X70327000Y-15418548D01*
X70327000Y-13918548D01*
X70319035Y-13878509D01*
X70315034Y-13837880D01*
X70303182Y-13798809D01*
X70295218Y-13758773D01*
X70279597Y-13721061D01*
X70267745Y-13681990D01*
X70248498Y-13645982D01*
X70232877Y-13608269D01*
X70210198Y-13574327D01*
X70190952Y-13538321D01*
X70165052Y-13506762D01*
X70142372Y-13472819D01*
X70113505Y-13443952D01*
X70087606Y-13412394D01*
X70056049Y-13386496D01*
X70027181Y-13357628D01*
X69993234Y-13334946D01*
X69961678Y-13309048D01*
X69925677Y-13289805D01*
X69891731Y-13267123D01*
X69854013Y-13251500D01*
X69818009Y-13232255D01*
X69778942Y-13220404D01*
X69741227Y-13204782D01*
X69701188Y-13196818D01*
X69662119Y-13184966D01*
X69621492Y-13180965D01*
X69581452Y-13173000D01*
X69540624Y-13173000D01*
X69500000Y-13168999D01*
X69459376Y-13173000D01*
X69418548Y-13173000D01*
X69378508Y-13180965D01*
X69337880Y-13184966D01*
X69298809Y-13196818D01*
X69258773Y-13204782D01*
X69221061Y-13220403D01*
X69181990Y-13232255D01*
X69145982Y-13251502D01*
X69108269Y-13267123D01*
X69074327Y-13289802D01*
X69038321Y-13309048D01*
X69006762Y-13334948D01*
X68972819Y-13357628D01*
X68943952Y-13386495D01*
X68912394Y-13412394D01*
X68886496Y-13443951D01*
X68857628Y-13472819D01*
X68834946Y-13506766D01*
X68809048Y-13538322D01*
X68789805Y-13574323D01*
X68767123Y-13608269D01*
X68751500Y-13645987D01*
X68732255Y-13681991D01*
X68720404Y-13721058D01*
X68704782Y-13758773D01*
X68696818Y-13798812D01*
X68684966Y-13837881D01*
X68680965Y-13878508D01*
X68673000Y-13918548D01*
X68673000Y-13959377D01*
X68673001Y-19459376D01*
X68669000Y-19500000D01*
X68680527Y-19617038D01*
X66776096Y-17712607D01*
X66732877Y-17608269D01*
X66642372Y-17472819D01*
X66527181Y-17357628D01*
X66391731Y-17267123D01*
X66241227Y-17204782D01*
X66081452Y-17173000D01*
X65918548Y-17173000D01*
X65758773Y-17204782D01*
X65608269Y-17267123D01*
X65472819Y-17357628D01*
X65357628Y-17472819D01*
X65267123Y-17608269D01*
X65204782Y-17758773D01*
X65173000Y-17918548D01*
X65173000Y-18081452D01*
X65204782Y-18241227D01*
X65267123Y-18391731D01*
X65357628Y-18527181D01*
X65472819Y-18642372D01*
X65608269Y-18732877D01*
X65649607Y-18750000D01*
X65608269Y-18767123D01*
X65472819Y-18857628D01*
X65357628Y-18972819D01*
X65267123Y-19108269D01*
X65204782Y-19258773D01*
X65173000Y-19418548D01*
X65173000Y-19581452D01*
X65204782Y-19741227D01*
X65267123Y-19891731D01*
X65357628Y-20027181D01*
X65472819Y-20142372D01*
X65608269Y-20232877D01*
X65712607Y-20276096D01*
X67942136Y-22505625D01*
X67965683Y-22534317D01*
X68080190Y-22628290D01*
X68210830Y-22698118D01*
X68352582Y-22741119D01*
X68463062Y-22752000D01*
X68463064Y-22752000D01*
X68500000Y-22755638D01*
X68536935Y-22752000D01*
X69707587Y-22752000D01*
X69704782Y-22758773D01*
X69696818Y-22798812D01*
X69684966Y-22837881D01*
X69680965Y-22878508D01*
X69673000Y-22918548D01*
X69673000Y-22959377D01*
X69673001Y-26959376D01*
X69669000Y-27000000D01*
X69673001Y-27040624D01*
X69683071Y-27142865D01*
X69684967Y-27162120D01*
X69732256Y-27318010D01*
X69809048Y-27461679D01*
X69886498Y-27556051D01*
X69912395Y-27587606D01*
X69943947Y-27613500D01*
X70578446Y-28248000D01*
X66811488Y-28248000D01*
X66776096Y-28212608D01*
X66732877Y-28108269D01*
X66642372Y-27972819D01*
X66527181Y-27857628D01*
X66391731Y-27767123D01*
X66241227Y-27704782D01*
X66081452Y-27673000D01*
X65918548Y-27673000D01*
X65758773Y-27704782D01*
X65608269Y-27767123D01*
X65472819Y-27857628D01*
X65357628Y-27972819D01*
X65267123Y-28108269D01*
X65204782Y-28258773D01*
X65173000Y-28418548D01*
X65173000Y-28581452D01*
X65204782Y-28741227D01*
X65267123Y-28891731D01*
X65339466Y-29000000D01*
X65267123Y-29108269D01*
X65204782Y-29258773D01*
X65175098Y-29408000D01*
X58971489Y-29408000D01*
X50783717Y-21220228D01*
X50852582Y-21241119D01*
X50963062Y-21252000D01*
X50963064Y-21252000D01*
X51000000Y-21255638D01*
X51036935Y-21252000D01*
X61654436Y-21252000D01*
X61758773Y-21295218D01*
X61918548Y-21327000D01*
X62081452Y-21327000D01*
X62241227Y-21295218D01*
X62391731Y-21232877D01*
X62527181Y-21142372D01*
X62642372Y-21027181D01*
X62732877Y-20891731D01*
X62795218Y-20741227D01*
X62827000Y-20581452D01*
X62827000Y-20418548D01*
X62795218Y-20258773D01*
X62732877Y-20108269D01*
X62642372Y-19972819D01*
X62527181Y-19857628D01*
X62391731Y-19767123D01*
X62241227Y-19704782D01*
X62081452Y-19673000D01*
X61918548Y-19673000D01*
X61758773Y-19704782D01*
X61654436Y-19748000D01*
X51311489Y-19748000D01*
X46557867Y-14994379D01*
X46534317Y-14965683D01*
X46419810Y-14871710D01*
X46289170Y-14801882D01*
X46147418Y-14758881D01*
X46036938Y-14748000D01*
X46036935Y-14748000D01*
X46000000Y-14744362D01*
X45963065Y-14748000D01*
X34311489Y-14748000D01*
X25482037Y-5918548D01*
X34173000Y-5918548D01*
X34173000Y-6081452D01*
X34204782Y-6241227D01*
X34267123Y-6391731D01*
X34357628Y-6527181D01*
X34472819Y-6642372D01*
X34608269Y-6732877D01*
X34758773Y-6795218D01*
X34918548Y-6827000D01*
X35081452Y-6827000D01*
X35241227Y-6795218D01*
X35345564Y-6752000D01*
X38688512Y-6752000D01*
X40147998Y-8211486D01*
X40147997Y-13154436D01*
X40104779Y-13258773D01*
X40072997Y-13418548D01*
X40072997Y-13581452D01*
X40104779Y-13741227D01*
X40167120Y-13891731D01*
X40257625Y-14027181D01*
X40372816Y-14142372D01*
X40508266Y-14232877D01*
X40658770Y-14295218D01*
X40818545Y-14327000D01*
X40981449Y-14327000D01*
X41141224Y-14295218D01*
X41199999Y-14270873D01*
X41258773Y-14295218D01*
X41418548Y-14327000D01*
X41581452Y-14327000D01*
X41741227Y-14295218D01*
X41891731Y-14232877D01*
X42027181Y-14142372D01*
X42142372Y-14027181D01*
X42232877Y-13891731D01*
X42295218Y-13741227D01*
X42327000Y-13581452D01*
X42327000Y-13418548D01*
X42295218Y-13258773D01*
X42252000Y-13154436D01*
X42252000Y-6536935D01*
X42255638Y-6500000D01*
X42247740Y-6419810D01*
X42241119Y-6352582D01*
X42198118Y-6210830D01*
X42128290Y-6080190D01*
X42034317Y-5965683D01*
X42005621Y-5942133D01*
X41776096Y-5712608D01*
X41732877Y-5608269D01*
X41642372Y-5472819D01*
X41527181Y-5357628D01*
X41391731Y-5267123D01*
X41241227Y-5204782D01*
X41081452Y-5173000D01*
X40918548Y-5173000D01*
X40758773Y-5204782D01*
X40608269Y-5267123D01*
X40472819Y-5357628D01*
X40357628Y-5472819D01*
X40267123Y-5608269D01*
X40204782Y-5758773D01*
X40173000Y-5918548D01*
X40173000Y-6081452D01*
X40179968Y-6116480D01*
X39557867Y-5494379D01*
X39534317Y-5465683D01*
X39419810Y-5371710D01*
X39289170Y-5301882D01*
X39147418Y-5258881D01*
X39036938Y-5248000D01*
X39036935Y-5248000D01*
X39000000Y-5244362D01*
X38963065Y-5248000D01*
X35345564Y-5248000D01*
X35241227Y-5204782D01*
X35081452Y-5173000D01*
X34918548Y-5173000D01*
X34758773Y-5204782D01*
X34608269Y-5267123D01*
X34472819Y-5357628D01*
X34357628Y-5472819D01*
X34267123Y-5608269D01*
X34204782Y-5758773D01*
X34173000Y-5918548D01*
X25482037Y-5918548D01*
X25057867Y-5494379D01*
X25034317Y-5465683D01*
X24919810Y-5371710D01*
X24789170Y-5301882D01*
X24647418Y-5258881D01*
X24536938Y-5248000D01*
X24536935Y-5248000D01*
X24500000Y-5244362D01*
X24463065Y-5248000D01*
X12845564Y-5248000D01*
X12741227Y-5204782D01*
X12581452Y-5173000D01*
X12418548Y-5173000D01*
X12258773Y-5204782D01*
X12108269Y-5267123D01*
X11972819Y-5357628D01*
X11857628Y-5472819D01*
X11767123Y-5608269D01*
X11704782Y-5758773D01*
X11673000Y-5918548D01*
X11673000Y-6081452D01*
X11704782Y-6241227D01*
X11767123Y-6391731D01*
X11857628Y-6527181D01*
X11972819Y-6642372D01*
X12108269Y-6732877D01*
X12258773Y-6795218D01*
X12418548Y-6827000D01*
X12581452Y-6827000D01*
X12741227Y-6795218D01*
X12845564Y-6752000D01*
X24188512Y-6752000D01*
X26684512Y-9248000D01*
X20345564Y-9248000D01*
X20241227Y-9204782D01*
X20081452Y-9173000D01*
X19918548Y-9173000D01*
X19758773Y-9204782D01*
X19608269Y-9267123D01*
X19472819Y-9357628D01*
X19357628Y-9472819D01*
X19267123Y-9608269D01*
X19204782Y-9758773D01*
X19173000Y-9918548D01*
X19173000Y-10081452D01*
X19204782Y-10241227D01*
X19267123Y-10391731D01*
X19357628Y-10527181D01*
X19472819Y-10642372D01*
X19608269Y-10732877D01*
X19758773Y-10795218D01*
X19918548Y-10827000D01*
X20081452Y-10827000D01*
X20241227Y-10795218D01*
X20345564Y-10752000D01*
X27188512Y-10752000D01*
X36942133Y-20505621D01*
X36965683Y-20534317D01*
X37080190Y-20628290D01*
X37210830Y-20698118D01*
X37352582Y-20741119D01*
X37463062Y-20752000D01*
X37463064Y-20752000D01*
X37500000Y-20755638D01*
X37536935Y-20752000D01*
X41188512Y-20752000D01*
X42748000Y-22311489D01*
X42748001Y-31654434D01*
X42704782Y-31758773D01*
X42673000Y-31918548D01*
X42673000Y-32081452D01*
X42704782Y-32241227D01*
X42767123Y-32391731D01*
X42857628Y-32527181D01*
X42972819Y-32642372D01*
X43018657Y-32673000D01*
X42842555Y-32673000D01*
X42480033Y-32310479D01*
X42480033Y-31150000D01*
X42467927Y-31027087D01*
X42432075Y-30908897D01*
X42373853Y-30799972D01*
X42295501Y-30704499D01*
X42200028Y-30626147D01*
X42091103Y-30567925D01*
X42006525Y-30542269D01*
X42147261Y-30401533D01*
X42308901Y-30159622D01*
X42420240Y-29890825D01*
X42477000Y-29605472D01*
X42477000Y-29314528D01*
X42420240Y-29029175D01*
X42308901Y-28760378D01*
X42147261Y-28518467D01*
X41941533Y-28312739D01*
X41757841Y-28190000D01*
X41941533Y-28067261D01*
X42147261Y-27861533D01*
X42308901Y-27619622D01*
X42420240Y-27350825D01*
X42477000Y-27065472D01*
X42477000Y-26774528D01*
X42420240Y-26489175D01*
X42308901Y-26220378D01*
X42147261Y-25978467D01*
X41941533Y-25772739D01*
X41749524Y-25644442D01*
X41877160Y-25568333D01*
X42092138Y-25374374D01*
X42265146Y-25142202D01*
X42389535Y-24880739D01*
X42433546Y-24735634D01*
X42314127Y-24507000D01*
X41127000Y-24507000D01*
X41127000Y-24527000D01*
X40873000Y-24527000D01*
X40873000Y-24507000D01*
X39685873Y-24507000D01*
X39566454Y-24735634D01*
X39610465Y-24880739D01*
X39734854Y-25142202D01*
X39907862Y-25374374D01*
X40122840Y-25568333D01*
X40250476Y-25644442D01*
X40058467Y-25772739D01*
X39852739Y-25978467D01*
X39691099Y-26220378D01*
X39579760Y-26489175D01*
X39523000Y-26774528D01*
X39523000Y-27065472D01*
X39579760Y-27350825D01*
X39691099Y-27619622D01*
X39852739Y-27861533D01*
X40058467Y-28067261D01*
X40242159Y-28190000D01*
X40058467Y-28312739D01*
X39852739Y-28518467D01*
X39691099Y-28760378D01*
X39579760Y-29029175D01*
X39523000Y-29314528D01*
X39523000Y-29605472D01*
X39579760Y-29890825D01*
X39691099Y-30159622D01*
X39852739Y-30401533D01*
X39993475Y-30542269D01*
X39908897Y-30567925D01*
X39799972Y-30626147D01*
X39704499Y-30704499D01*
X39626147Y-30799972D01*
X39567925Y-30908897D01*
X39532073Y-31027087D01*
X39519967Y-31150000D01*
X39519967Y-32850000D01*
X39532073Y-32972913D01*
X39567925Y-33091103D01*
X39626147Y-33200028D01*
X39704499Y-33295501D01*
X39799972Y-33373853D01*
X39908897Y-33432075D01*
X40027087Y-33467927D01*
X40150000Y-33480033D01*
X41310479Y-33480033D01*
X41886503Y-34056058D01*
X41912394Y-34087606D01*
X41943941Y-34113496D01*
X41943947Y-34113502D01*
X42038319Y-34190951D01*
X42038321Y-34190952D01*
X42181990Y-34267745D01*
X42337880Y-34315034D01*
X42459376Y-34327000D01*
X42459388Y-34327000D01*
X42499999Y-34331000D01*
X42540610Y-34327000D01*
X45373000Y-34327000D01*
X45373000Y-34348000D01*
X20231530Y-34348000D01*
X20295501Y-34295501D01*
X20373853Y-34200028D01*
X20432075Y-34091103D01*
X20467927Y-33972913D01*
X20480033Y-33850000D01*
X20480033Y-32150000D01*
X20467927Y-32027087D01*
X20432075Y-31908897D01*
X20373853Y-31799972D01*
X20295501Y-31704499D01*
X20200028Y-31626147D01*
X20091103Y-31567925D01*
X19972913Y-31532073D01*
X19850000Y-31519967D01*
X18150000Y-31519967D01*
X18027087Y-31532073D01*
X17908897Y-31567925D01*
X17799972Y-31626147D01*
X17704499Y-31704499D01*
X17626147Y-31799972D01*
X17567925Y-31908897D01*
X17539589Y-32002311D01*
X17454374Y-31907862D01*
X17222202Y-31734854D01*
X16960739Y-31610465D01*
X16815634Y-31566454D01*
X16587000Y-31685873D01*
X16587000Y-32873000D01*
X16607000Y-32873000D01*
X16607000Y-33127000D01*
X16587000Y-33127000D01*
X16587000Y-33147000D01*
X16333000Y-33147000D01*
X16333000Y-33127000D01*
X15145215Y-33127000D01*
X15026449Y-33355635D01*
X15123375Y-33628473D01*
X15271667Y-33877160D01*
X15465626Y-34092138D01*
X15697798Y-34265146D01*
X15871955Y-34348000D01*
X652000Y-34348000D01*
X652000Y-32339755D01*
X873000Y-32339755D01*
X873000Y-32660245D01*
X935525Y-32974578D01*
X1058172Y-33270673D01*
X1236227Y-33537152D01*
X1462848Y-33763773D01*
X1729327Y-33941828D01*
X2025422Y-34064475D01*
X2339755Y-34127000D01*
X2660245Y-34127000D01*
X2974578Y-34064475D01*
X3270673Y-33941828D01*
X3537152Y-33763773D01*
X3669797Y-33631128D01*
X6048478Y-33631128D01*
X6144695Y-33893292D01*
X6432947Y-34033382D01*
X6742991Y-34114545D01*
X7062911Y-34133663D01*
X7380414Y-34090000D01*
X7683298Y-33985233D01*
X7855305Y-33893292D01*
X7951522Y-33631128D01*
X7000000Y-32679605D01*
X6048478Y-33631128D01*
X3669797Y-33631128D01*
X3763773Y-33537152D01*
X3941828Y-33270673D01*
X4064475Y-32974578D01*
X4127000Y-32660245D01*
X4127000Y-32562911D01*
X5366337Y-32562911D01*
X5410000Y-32880414D01*
X5514767Y-33183298D01*
X5606708Y-33355305D01*
X5868872Y-33451522D01*
X6820395Y-32500000D01*
X7179605Y-32500000D01*
X8131128Y-33451522D01*
X8393292Y-33355305D01*
X8533382Y-33067053D01*
X8614545Y-32757009D01*
X8621276Y-32644365D01*
X15026449Y-32644365D01*
X15145215Y-32873000D01*
X16333000Y-32873000D01*
X16333000Y-31685873D01*
X16104366Y-31566454D01*
X15959261Y-31610465D01*
X15697798Y-31734854D01*
X15465626Y-31907862D01*
X15271667Y-32122840D01*
X15123375Y-32371527D01*
X15026449Y-32644365D01*
X8621276Y-32644365D01*
X8633663Y-32437089D01*
X8590000Y-32119586D01*
X8485233Y-31816702D01*
X8393292Y-31644695D01*
X8131128Y-31548478D01*
X7179605Y-32500000D01*
X6820395Y-32500000D01*
X5868872Y-31548478D01*
X5606708Y-31644695D01*
X5466618Y-31932947D01*
X5385455Y-32242991D01*
X5366337Y-32562911D01*
X4127000Y-32562911D01*
X4127000Y-32339755D01*
X4064475Y-32025422D01*
X3941828Y-31729327D01*
X3763773Y-31462848D01*
X3669797Y-31368872D01*
X6048478Y-31368872D01*
X7000000Y-32320395D01*
X7951522Y-31368872D01*
X7855305Y-31106708D01*
X7567053Y-30966618D01*
X7257009Y-30885455D01*
X6937089Y-30866337D01*
X6619586Y-30910000D01*
X6316702Y-31014767D01*
X6144695Y-31106708D01*
X6048478Y-31368872D01*
X3669797Y-31368872D01*
X3537152Y-31236227D01*
X3270673Y-31058172D01*
X2974578Y-30935525D01*
X2660245Y-30873000D01*
X2339755Y-30873000D01*
X2025422Y-30935525D01*
X1729327Y-31058172D01*
X1462848Y-31236227D01*
X1236227Y-31462848D01*
X1058172Y-31729327D01*
X935525Y-32025422D01*
X873000Y-32339755D01*
X652000Y-32339755D01*
X652000Y-25839755D01*
X873000Y-25839755D01*
X873000Y-26160245D01*
X935525Y-26474578D01*
X1058172Y-26770673D01*
X1236227Y-27037152D01*
X1462848Y-27263773D01*
X1729327Y-27441828D01*
X2025422Y-27564475D01*
X2339755Y-27627000D01*
X2660245Y-27627000D01*
X2974578Y-27564475D01*
X3270673Y-27441828D01*
X3537152Y-27263773D01*
X3669797Y-27131128D01*
X6048478Y-27131128D01*
X6144695Y-27393292D01*
X6432947Y-27533382D01*
X6742991Y-27614545D01*
X7062911Y-27633663D01*
X7380414Y-27590000D01*
X7683298Y-27485233D01*
X7855305Y-27393292D01*
X7951522Y-27131128D01*
X7000000Y-26179605D01*
X6048478Y-27131128D01*
X3669797Y-27131128D01*
X3763773Y-27037152D01*
X3941828Y-26770673D01*
X4064475Y-26474578D01*
X4127000Y-26160245D01*
X4127000Y-26062911D01*
X5366337Y-26062911D01*
X5410000Y-26380414D01*
X5514767Y-26683298D01*
X5606708Y-26855305D01*
X5868872Y-26951522D01*
X6820395Y-26000000D01*
X7179605Y-26000000D01*
X8131128Y-26951522D01*
X8393292Y-26855305D01*
X8533382Y-26567053D01*
X8550935Y-26500000D01*
X13917467Y-26500000D01*
X13917467Y-28500000D01*
X13929573Y-28622913D01*
X13965425Y-28741103D01*
X14023647Y-28850028D01*
X14101999Y-28945501D01*
X14197472Y-29023853D01*
X14306397Y-29082075D01*
X14424587Y-29117927D01*
X14547500Y-29130033D01*
X16452500Y-29130033D01*
X16575413Y-29117927D01*
X16693603Y-29082075D01*
X16802528Y-29023853D01*
X16898001Y-28945501D01*
X16976353Y-28850028D01*
X17025445Y-28758185D01*
X17158232Y-28867160D01*
X17432628Y-29013828D01*
X17730365Y-29104146D01*
X18040000Y-29134642D01*
X18349636Y-29104146D01*
X18647373Y-29013828D01*
X18921769Y-28867160D01*
X19162279Y-28669779D01*
X19315057Y-28483617D01*
X19476449Y-28675873D01*
X19717788Y-28869484D01*
X19992261Y-29012292D01*
X20208275Y-29082636D01*
X20453000Y-28964570D01*
X20453000Y-27627000D01*
X20707000Y-27627000D01*
X20707000Y-28964570D01*
X20951725Y-29082636D01*
X21167739Y-29012292D01*
X21442212Y-28869484D01*
X21683551Y-28675873D01*
X21882481Y-28438900D01*
X22031358Y-28167671D01*
X22124460Y-27872609D01*
X21999553Y-27627000D01*
X20707000Y-27627000D01*
X20453000Y-27627000D01*
X20433000Y-27627000D01*
X20433000Y-27373000D01*
X20453000Y-27373000D01*
X20453000Y-26035430D01*
X20707000Y-26035430D01*
X20707000Y-27373000D01*
X21999553Y-27373000D01*
X22124460Y-27127391D01*
X22115818Y-27100000D01*
X26469967Y-27100000D01*
X26469967Y-28900000D01*
X26482073Y-29022913D01*
X26517925Y-29141103D01*
X26576147Y-29250028D01*
X26654499Y-29345501D01*
X26749972Y-29423853D01*
X26858897Y-29482075D01*
X26889221Y-29491274D01*
X26813901Y-29566594D01*
X26646790Y-29816694D01*
X26531681Y-30094590D01*
X26473000Y-30389604D01*
X26473000Y-30690396D01*
X26531681Y-30985410D01*
X26646790Y-31263306D01*
X26813901Y-31513406D01*
X27026594Y-31726099D01*
X27276694Y-31893210D01*
X27554590Y-32008319D01*
X27849604Y-32067000D01*
X28150396Y-32067000D01*
X28445410Y-32008319D01*
X28723306Y-31893210D01*
X28973406Y-31726099D01*
X29186099Y-31513406D01*
X29353210Y-31263306D01*
X29468319Y-30985410D01*
X29527000Y-30690396D01*
X29527000Y-30389604D01*
X29468319Y-30094590D01*
X29353210Y-29816694D01*
X29186099Y-29566594D01*
X29110779Y-29491274D01*
X29141103Y-29482075D01*
X29250028Y-29423853D01*
X29345501Y-29345501D01*
X29423853Y-29250028D01*
X29482075Y-29141103D01*
X29517927Y-29022913D01*
X29530033Y-28900000D01*
X29530033Y-27100000D01*
X32969967Y-27100000D01*
X32969967Y-28900000D01*
X32982073Y-29022913D01*
X33017925Y-29141103D01*
X33076147Y-29250028D01*
X33154499Y-29345501D01*
X33249972Y-29423853D01*
X33358897Y-29482075D01*
X33389221Y-29491274D01*
X33313901Y-29566594D01*
X33146790Y-29816694D01*
X33031681Y-30094590D01*
X32973000Y-30389604D01*
X32973000Y-30690396D01*
X33031681Y-30985410D01*
X33146790Y-31263306D01*
X33313901Y-31513406D01*
X33526594Y-31726099D01*
X33776694Y-31893210D01*
X34054590Y-32008319D01*
X34349604Y-32067000D01*
X34650396Y-32067000D01*
X34945410Y-32008319D01*
X35223306Y-31893210D01*
X35473406Y-31726099D01*
X35686099Y-31513406D01*
X35853210Y-31263306D01*
X35968319Y-30985410D01*
X36027000Y-30690396D01*
X36027000Y-30389604D01*
X35968319Y-30094590D01*
X35853210Y-29816694D01*
X35686099Y-29566594D01*
X35610779Y-29491274D01*
X35641103Y-29482075D01*
X35750028Y-29423853D01*
X35845501Y-29345501D01*
X35923853Y-29250028D01*
X35982075Y-29141103D01*
X36017927Y-29022913D01*
X36030033Y-28900000D01*
X36030033Y-27100000D01*
X36017927Y-26977087D01*
X35982075Y-26858897D01*
X35923853Y-26749972D01*
X35845501Y-26654499D01*
X35750028Y-26576147D01*
X35641103Y-26517925D01*
X35522913Y-26482073D01*
X35400000Y-26469967D01*
X33600000Y-26469967D01*
X33477087Y-26482073D01*
X33358897Y-26517925D01*
X33249972Y-26576147D01*
X33154499Y-26654499D01*
X33076147Y-26749972D01*
X33017925Y-26858897D01*
X32982073Y-26977087D01*
X32969967Y-27100000D01*
X29530033Y-27100000D01*
X29517927Y-26977087D01*
X29482075Y-26858897D01*
X29423853Y-26749972D01*
X29345501Y-26654499D01*
X29250028Y-26576147D01*
X29141103Y-26517925D01*
X29022913Y-26482073D01*
X28900000Y-26469967D01*
X27100000Y-26469967D01*
X26977087Y-26482073D01*
X26858897Y-26517925D01*
X26749972Y-26576147D01*
X26654499Y-26654499D01*
X26576147Y-26749972D01*
X26517925Y-26858897D01*
X26482073Y-26977087D01*
X26469967Y-27100000D01*
X22115818Y-27100000D01*
X22031358Y-26832329D01*
X21882481Y-26561100D01*
X21683551Y-26324127D01*
X21442212Y-26130516D01*
X21167739Y-25987708D01*
X20951725Y-25917364D01*
X20707000Y-26035430D01*
X20453000Y-26035430D01*
X20208275Y-25917364D01*
X19992261Y-25987708D01*
X19717788Y-26130516D01*
X19476449Y-26324127D01*
X19315058Y-26516383D01*
X19162279Y-26330221D01*
X18921768Y-26132840D01*
X18647372Y-25986172D01*
X18349635Y-25895854D01*
X18040000Y-25865358D01*
X17730364Y-25895854D01*
X17432627Y-25986172D01*
X17158231Y-26132840D01*
X17025444Y-26241815D01*
X16976353Y-26149972D01*
X16898001Y-26054499D01*
X16802528Y-25976147D01*
X16693603Y-25917925D01*
X16575413Y-25882073D01*
X16452500Y-25869967D01*
X14547500Y-25869967D01*
X14424587Y-25882073D01*
X14306397Y-25917925D01*
X14197472Y-25976147D01*
X14101999Y-26054499D01*
X14023647Y-26149972D01*
X13965425Y-26258897D01*
X13929573Y-26377087D01*
X13917467Y-26500000D01*
X8550935Y-26500000D01*
X8614545Y-26257009D01*
X8633663Y-25937089D01*
X8590000Y-25619586D01*
X8485233Y-25316702D01*
X8393292Y-25144695D01*
X8131128Y-25048478D01*
X7179605Y-26000000D01*
X6820395Y-26000000D01*
X5868872Y-25048478D01*
X5606708Y-25144695D01*
X5466618Y-25432947D01*
X5385455Y-25742991D01*
X5366337Y-26062911D01*
X4127000Y-26062911D01*
X4127000Y-25839755D01*
X4064475Y-25525422D01*
X3941828Y-25229327D01*
X3763773Y-24962848D01*
X3669797Y-24868872D01*
X6048478Y-24868872D01*
X7000000Y-25820395D01*
X7951522Y-24868872D01*
X7855305Y-24606708D01*
X7567053Y-24466618D01*
X7257009Y-24385455D01*
X6937089Y-24366337D01*
X6619586Y-24410000D01*
X6316702Y-24514767D01*
X6144695Y-24606708D01*
X6048478Y-24868872D01*
X3669797Y-24868872D01*
X3537152Y-24736227D01*
X3270673Y-24558172D01*
X2974578Y-24435525D01*
X2660245Y-24373000D01*
X2339755Y-24373000D01*
X2025422Y-24435525D01*
X1729327Y-24558172D01*
X1462848Y-24736227D01*
X1236227Y-24962848D01*
X1058172Y-25229327D01*
X935525Y-25525422D01*
X873000Y-25839755D01*
X652000Y-25839755D01*
X652000Y-24024366D01*
X39566454Y-24024366D01*
X39685873Y-24253000D01*
X40873000Y-24253000D01*
X40873000Y-23065215D01*
X41127000Y-23065215D01*
X41127000Y-24253000D01*
X42314127Y-24253000D01*
X42433546Y-24024366D01*
X42389535Y-23879261D01*
X42265146Y-23617798D01*
X42092138Y-23385626D01*
X41877160Y-23191667D01*
X41628473Y-23043375D01*
X41355635Y-22946449D01*
X41127000Y-23065215D01*
X40873000Y-23065215D01*
X40644365Y-22946449D01*
X40371527Y-23043375D01*
X40122840Y-23191667D01*
X39907862Y-23385626D01*
X39734854Y-23617798D01*
X39610465Y-23879261D01*
X39566454Y-24024366D01*
X652000Y-24024366D01*
X652000Y-13600000D01*
X1994966Y-13600000D01*
X2007072Y-13722914D01*
X2042924Y-13841104D01*
X2101146Y-13950028D01*
X2179499Y-14045501D01*
X2274972Y-14123854D01*
X2383896Y-14182076D01*
X2502086Y-14217928D01*
X2625000Y-14230034D01*
X3216250Y-14227000D01*
X3373000Y-14070250D01*
X3373000Y-13127000D01*
X3627000Y-13127000D01*
X3627000Y-14070250D01*
X3783750Y-14227000D01*
X4375000Y-14230034D01*
X4497914Y-14217928D01*
X4616104Y-14182076D01*
X4725028Y-14123854D01*
X4820501Y-14045501D01*
X4898854Y-13950028D01*
X4957076Y-13841104D01*
X4992928Y-13722914D01*
X5005034Y-13600000D01*
X5002000Y-13283750D01*
X4845250Y-13127000D01*
X3627000Y-13127000D01*
X3373000Y-13127000D01*
X2154750Y-13127000D01*
X1998000Y-13283750D01*
X1994966Y-13600000D01*
X652000Y-13600000D01*
X652000Y-652000D01*
X39848000Y-652000D01*
X39848001Y-1678447D01*
G37*
G04 #@! TD.AperFunction*
D23*
X44165683Y-16265684D02*
X44142137Y-16294375D01*
X44142136Y-16294376D01*
X44071709Y-16380191D01*
X44001881Y-16510832D01*
X43958881Y-16652584D01*
X43944361Y-16800001D01*
X43948000Y-16836947D01*
X43948000Y-18173000D01*
X43918548Y-18173000D01*
X43758773Y-18204782D01*
X43654436Y-18248000D01*
X37845564Y-18248000D01*
X37741227Y-18204782D01*
X37581452Y-18173000D01*
X37418548Y-18173000D01*
X37258773Y-18204782D01*
X37108269Y-18267123D01*
X36972819Y-18357628D01*
X36946968Y-18383480D01*
X34815488Y-16252000D01*
X44182357Y-16252000D01*
X44165683Y-16265684D01*
G04 #@! TA.AperFunction,Conductor*
D24*
G36*
X44165683Y-16265684D02*
G01*
X44142137Y-16294375D01*
X44142136Y-16294376D01*
X44071709Y-16380191D01*
X44001881Y-16510832D01*
X43958881Y-16652584D01*
X43944361Y-16800001D01*
X43948000Y-16836947D01*
X43948000Y-18173000D01*
X43918548Y-18173000D01*
X43758773Y-18204782D01*
X43654436Y-18248000D01*
X37845564Y-18248000D01*
X37741227Y-18204782D01*
X37581452Y-18173000D01*
X37418548Y-18173000D01*
X37258773Y-18204782D01*
X37108269Y-18267123D01*
X36972819Y-18357628D01*
X36946968Y-18383480D01*
X34815488Y-16252000D01*
X44182357Y-16252000D01*
X44165683Y-16265684D01*
G37*
G04 #@! TD.AperFunction*
M02*
