M48
; DRILL file {KiCad (5.1.10)-1} date 09/08/21 13:47:19
; FORMAT={-:-/ absolute / metric / decimal}
; #@! TF.CreationDate,2021-09-08T13:47:19+09:00
; #@! TF.GenerationSoftware,Kicad,Pcbnew,(5.1.10)-1
; #@! TF.FileFunction,Plated,1,2,PTH
FMAT,2
METRIC
T1C0.400
T2C0.600
T3C0.750
T4C1.000
T5C1.100
T6C1.600
T7C1.800
T8C2.700
%
G90
G05
T1
X26.5Y-49.5
X28.0Y-52.5
X34.0Y-55.0
X36.5Y-49.5
X38.0Y-49.5
X39.0Y-34.5
X58.0Y-37.5
X61.0Y-51.0
X61.5Y-56.0
T2
X25.5Y-28.0
X28.5Y-13.5
T3
X6.0Y-60.0
X8.0Y-60.0
X10.0Y-43.0
X10.0Y-45.0
X10.0Y-50.5
X10.0Y-52.5
X10.0Y-60.0
X12.0Y-60.0
X14.0Y-60.0
X21.0Y-60.0
X23.0Y-60.0
X25.0Y-60.0
X27.0Y-60.0
X29.0Y-60.0
T4
X23.0Y-43.0
X23.0Y-45.54
X23.0Y-48.08
T5
X23.0Y-30.92
X23.0Y-33.46
X23.0Y-36.0
X31.5Y-3.7
X31.5Y-5.4
X31.5Y-7.1
X31.5Y-8.8
X31.5Y-10.5
T6
X41.5Y-5.0
X54.2Y-5.0
T7
X49.0Y-11.0
X49.0Y-22.44
T8
X6.0Y-13.5
X6.0Y-18.5
T0
M30
