G04 #@! TF.GenerationSoftware,KiCad,Pcbnew,(5.1.10)-1*
G04 #@! TF.CreationDate,2021-09-08T13:47:50+09:00*
G04 #@! TF.ProjectId,driver_v0.3,64726976-6572-45f7-9630-2e332e6b6963,rev?*
G04 #@! TF.SameCoordinates,Original*
G04 #@! TF.FileFunction,Copper,L2,Bot*
G04 #@! TF.FilePolarity,Positive*
%FSLAX46Y46*%
G04 Gerber Fmt 4.6, Leading zero omitted, Abs format (unit mm)*
G04 Created by KiCad (PCBNEW (5.1.10)-1) date 2021-09-08 13:47:50*
%MOMM*%
%LPD*%
G01*
G04 APERTURE LIST*
G04 #@! TA.AperFunction,ComponentPad*
%ADD10O,1.800000X1.275000*%
G04 #@! TD*
G04 #@! TA.AperFunction,ComponentPad*
%ADD11R,1.800000X1.275000*%
G04 #@! TD*
G04 #@! TA.AperFunction,ComponentPad*
%ADD12O,2.000000X1.905000*%
G04 #@! TD*
G04 #@! TA.AperFunction,ComponentPad*
%ADD13R,2.000000X1.905000*%
G04 #@! TD*
G04 #@! TA.AperFunction,ComponentPad*
%ADD14C,3.600000*%
G04 #@! TD*
G04 #@! TA.AperFunction,ComponentPad*
%ADD15O,1.750000X1.200000*%
G04 #@! TD*
G04 #@! TA.AperFunction,ComponentPad*
%ADD16O,1.200000X1.750000*%
G04 #@! TD*
G04 #@! TA.AperFunction,ComponentPad*
%ADD17C,4.000000*%
G04 #@! TD*
G04 #@! TA.AperFunction,ComponentPad*
%ADD18R,3.800000X3.800000*%
G04 #@! TD*
G04 #@! TA.AperFunction,ComponentPad*
%ADD19O,1.700000X1.700000*%
G04 #@! TD*
G04 #@! TA.AperFunction,ComponentPad*
%ADD20R,1.700000X1.700000*%
G04 #@! TD*
G04 #@! TA.AperFunction,ComponentPad*
%ADD21O,3.200000X3.200000*%
G04 #@! TD*
G04 #@! TA.AperFunction,ComponentPad*
%ADD22R,3.200000X3.200000*%
G04 #@! TD*
G04 #@! TA.AperFunction,ViaPad*
%ADD23C,0.800000*%
G04 #@! TD*
G04 #@! TA.AperFunction,ViaPad*
%ADD24C,1.300000*%
G04 #@! TD*
G04 #@! TA.AperFunction,Conductor*
%ADD25C,0.400000*%
G04 #@! TD*
G04 #@! TA.AperFunction,Conductor*
%ADD26C,1.300000*%
G04 #@! TD*
G04 #@! TA.AperFunction,Conductor*
%ADD27C,0.250000*%
G04 #@! TD*
G04 #@! TA.AperFunction,Conductor*
%ADD28C,0.150000*%
G04 #@! TD*
G04 APERTURE END LIST*
D10*
X31500000Y-3700000D03*
X31500000Y-5400000D03*
X31500000Y-7100000D03*
X31500000Y-8800000D03*
D11*
X31500000Y-10500000D03*
D12*
X23000000Y-30920000D03*
X23000000Y-33460000D03*
D13*
X23000000Y-36000000D03*
D14*
X49000000Y-22440000D03*
X49000000Y-11000000D03*
D15*
X10000000Y-45000000D03*
G04 #@! TA.AperFunction,ComponentPad*
G36*
G01*
X9374999Y-42400000D02*
X10625001Y-42400000D01*
G75*
G02*
X10875000Y-42649999I0J-249999D01*
G01*
X10875000Y-43350001D01*
G75*
G02*
X10625001Y-43600000I-249999J0D01*
G01*
X9374999Y-43600000D01*
G75*
G02*
X9125000Y-43350001I0J249999D01*
G01*
X9125000Y-42649999D01*
G75*
G02*
X9374999Y-42400000I249999J0D01*
G01*
G37*
G04 #@! TD.AperFunction*
D16*
X14000000Y-60000000D03*
X12000000Y-60000000D03*
X10000000Y-60000000D03*
X8000000Y-60000000D03*
G04 #@! TA.AperFunction,ComponentPad*
G36*
G01*
X5400000Y-60625001D02*
X5400000Y-59374999D01*
G75*
G02*
X5649999Y-59125000I249999J0D01*
G01*
X6350001Y-59125000D01*
G75*
G02*
X6600000Y-59374999I0J-249999D01*
G01*
X6600000Y-60625001D01*
G75*
G02*
X6350001Y-60875000I-249999J0D01*
G01*
X5649999Y-60875000D01*
G75*
G02*
X5400000Y-60625001I0J249999D01*
G01*
G37*
G04 #@! TD.AperFunction*
D15*
X10000000Y-52500000D03*
G04 #@! TA.AperFunction,ComponentPad*
G36*
G01*
X9374999Y-49900000D02*
X10625001Y-49900000D01*
G75*
G02*
X10875000Y-50149999I0J-249999D01*
G01*
X10875000Y-50850001D01*
G75*
G02*
X10625001Y-51100000I-249999J0D01*
G01*
X9374999Y-51100000D01*
G75*
G02*
X9125000Y-50850001I0J249999D01*
G01*
X9125000Y-50149999D01*
G75*
G02*
X9374999Y-49900000I249999J0D01*
G01*
G37*
G04 #@! TD.AperFunction*
D16*
X29000000Y-60000000D03*
X27000000Y-60000000D03*
X25000000Y-60000000D03*
X23000000Y-60000000D03*
G04 #@! TA.AperFunction,ComponentPad*
G36*
G01*
X20400000Y-60625001D02*
X20400000Y-59374999D01*
G75*
G02*
X20649999Y-59125000I249999J0D01*
G01*
X21350001Y-59125000D01*
G75*
G02*
X21600000Y-59374999I0J-249999D01*
G01*
X21600000Y-60625001D01*
G75*
G02*
X21350001Y-60875000I-249999J0D01*
G01*
X20649999Y-60875000D01*
G75*
G02*
X20400000Y-60625001I0J249999D01*
G01*
G37*
G04 #@! TD.AperFunction*
D17*
X6000000Y-13500000D03*
D18*
X6000000Y-18500000D03*
D19*
X23000000Y-48080000D03*
X23000000Y-45540000D03*
D20*
X23000000Y-43000000D03*
D21*
X54200000Y-5000000D03*
D22*
X41500000Y-5000000D03*
D23*
X36500000Y-49500000D03*
X26500000Y-49500000D03*
D24*
X28500000Y-13500000D03*
X25500000Y-28000000D03*
D23*
X39000000Y-34500000D03*
X58000000Y-37500000D03*
X61500000Y-56000000D03*
X34000000Y-55000000D03*
X28000000Y-52500000D03*
X61000000Y-51000000D03*
X38000000Y-49500000D03*
D25*
X36500000Y-49500000D02*
X26500000Y-49500000D01*
D26*
X31500000Y-5400000D02*
X30600000Y-5400000D01*
X28500000Y-7500000D02*
X28500000Y-13500000D01*
X30600000Y-5400000D02*
X28500000Y-7500000D01*
X10000000Y-45000000D02*
X12000000Y-45000000D01*
X12000000Y-45000000D02*
X15500000Y-41500000D01*
X15500000Y-41500000D02*
X15500000Y-34000000D01*
X15500000Y-34000000D02*
X21500000Y-28000000D01*
X21500000Y-28000000D02*
X25500000Y-28000000D01*
X25500000Y-28000000D02*
X25500000Y-28000000D01*
D25*
X39000000Y-34500000D02*
X42000000Y-37500000D01*
X42000000Y-37500000D02*
X58000000Y-37500000D01*
X58000000Y-37500000D02*
X61500000Y-41000000D01*
X61900001Y-55599999D02*
X61500000Y-56000000D01*
X61900001Y-41400001D02*
X61900001Y-55599999D01*
X61500000Y-41000000D02*
X61900001Y-41400001D01*
X30500000Y-55000000D02*
X28000000Y-52500000D01*
X34000000Y-55000000D02*
X30500000Y-55000000D01*
X23000000Y-48080000D02*
X25920000Y-51000000D01*
X61000000Y-51000000D02*
X25920000Y-51000000D01*
X23000000Y-36000000D02*
X23000000Y-39000000D01*
X32250000Y-48250000D02*
X36750000Y-48250000D01*
X23000000Y-39000000D02*
X32250000Y-48250000D01*
X38000000Y-49500000D02*
X36750000Y-48250000D01*
D27*
X64342001Y-57875000D02*
X35000000Y-57875000D01*
X34975614Y-57877402D01*
X34952165Y-57884515D01*
X34930554Y-57896066D01*
X34911612Y-57911612D01*
X34896066Y-57930554D01*
X34884515Y-57952165D01*
X34877402Y-57975614D01*
X34875000Y-58000000D01*
X34875000Y-64342000D01*
X658000Y-64342000D01*
X658000Y-59374999D01*
X4763938Y-59374999D01*
X4763938Y-60625001D01*
X4780963Y-60797863D01*
X4831385Y-60964082D01*
X4913266Y-61117270D01*
X5023459Y-61251541D01*
X5157730Y-61361734D01*
X5310918Y-61443615D01*
X5477137Y-61494037D01*
X5649999Y-61511062D01*
X6350001Y-61511062D01*
X6522863Y-61494037D01*
X6689082Y-61443615D01*
X6842270Y-61361734D01*
X6976541Y-61251541D01*
X7086734Y-61117270D01*
X7093538Y-61104540D01*
X7129551Y-61148277D01*
X7316644Y-61301313D01*
X7529998Y-61414909D01*
X7761414Y-61484699D01*
X7805141Y-61492505D01*
X7998000Y-61349748D01*
X7998000Y-60002000D01*
X7978000Y-60002000D01*
X7978000Y-59998000D01*
X7998000Y-59998000D01*
X7998000Y-58650252D01*
X8002000Y-58650252D01*
X8002000Y-59998000D01*
X8022000Y-59998000D01*
X8022000Y-60002000D01*
X8002000Y-60002000D01*
X8002000Y-61349748D01*
X8194859Y-61492505D01*
X8238586Y-61484699D01*
X8470002Y-61414909D01*
X8683356Y-61301313D01*
X8870449Y-61148277D01*
X8996242Y-60995504D01*
X9123920Y-61151081D01*
X9311669Y-61305162D01*
X9525870Y-61419654D01*
X9758291Y-61490159D01*
X10000000Y-61513965D01*
X10241710Y-61490159D01*
X10474131Y-61419654D01*
X10688332Y-61305162D01*
X10876081Y-61151081D01*
X11000001Y-61000084D01*
X11123920Y-61151081D01*
X11311669Y-61305162D01*
X11525870Y-61419654D01*
X11758291Y-61490159D01*
X12000000Y-61513965D01*
X12241710Y-61490159D01*
X12474131Y-61419654D01*
X12688332Y-61305162D01*
X12876081Y-61151081D01*
X13000001Y-61000084D01*
X13123920Y-61151081D01*
X13311669Y-61305162D01*
X13525870Y-61419654D01*
X13758291Y-61490159D01*
X14000000Y-61513965D01*
X14241710Y-61490159D01*
X14474131Y-61419654D01*
X14688332Y-61305162D01*
X14876081Y-61151081D01*
X15030162Y-60963332D01*
X15144654Y-60749130D01*
X15215159Y-60516709D01*
X15233000Y-60335564D01*
X15233000Y-59664435D01*
X15215159Y-59483290D01*
X15182309Y-59374999D01*
X19763938Y-59374999D01*
X19763938Y-60625001D01*
X19780963Y-60797863D01*
X19831385Y-60964082D01*
X19913266Y-61117270D01*
X20023459Y-61251541D01*
X20157730Y-61361734D01*
X20310918Y-61443615D01*
X20477137Y-61494037D01*
X20649999Y-61511062D01*
X21350001Y-61511062D01*
X21522863Y-61494037D01*
X21689082Y-61443615D01*
X21842270Y-61361734D01*
X21976541Y-61251541D01*
X22086734Y-61117270D01*
X22093538Y-61104540D01*
X22129551Y-61148277D01*
X22316644Y-61301313D01*
X22529998Y-61414909D01*
X22761414Y-61484699D01*
X22805141Y-61492505D01*
X22998000Y-61349748D01*
X22998000Y-60002000D01*
X22978000Y-60002000D01*
X22978000Y-59998000D01*
X22998000Y-59998000D01*
X22998000Y-58650252D01*
X23002000Y-58650252D01*
X23002000Y-59998000D01*
X23022000Y-59998000D01*
X23022000Y-60002000D01*
X23002000Y-60002000D01*
X23002000Y-61349748D01*
X23194859Y-61492505D01*
X23238586Y-61484699D01*
X23470002Y-61414909D01*
X23683356Y-61301313D01*
X23870449Y-61148277D01*
X23996242Y-60995504D01*
X24123920Y-61151081D01*
X24311669Y-61305162D01*
X24525870Y-61419654D01*
X24758291Y-61490159D01*
X25000000Y-61513965D01*
X25241710Y-61490159D01*
X25474131Y-61419654D01*
X25688332Y-61305162D01*
X25876081Y-61151081D01*
X26000001Y-61000084D01*
X26123920Y-61151081D01*
X26311669Y-61305162D01*
X26525870Y-61419654D01*
X26758291Y-61490159D01*
X27000000Y-61513965D01*
X27241710Y-61490159D01*
X27474131Y-61419654D01*
X27688332Y-61305162D01*
X27876081Y-61151081D01*
X28000001Y-61000084D01*
X28123920Y-61151081D01*
X28311669Y-61305162D01*
X28525870Y-61419654D01*
X28758291Y-61490159D01*
X29000000Y-61513965D01*
X29241710Y-61490159D01*
X29474131Y-61419654D01*
X29688332Y-61305162D01*
X29876081Y-61151081D01*
X30030162Y-60963332D01*
X30144654Y-60749130D01*
X30215159Y-60516709D01*
X30233000Y-60335564D01*
X30233000Y-59664435D01*
X30215159Y-59483290D01*
X30144654Y-59250869D01*
X30030162Y-59036668D01*
X29876081Y-58848919D01*
X29688331Y-58694838D01*
X29474130Y-58580346D01*
X29241709Y-58509841D01*
X29000000Y-58486035D01*
X28758290Y-58509841D01*
X28525869Y-58580346D01*
X28311668Y-58694838D01*
X28123919Y-58848919D01*
X28000000Y-58999916D01*
X27876081Y-58848919D01*
X27688331Y-58694838D01*
X27474130Y-58580346D01*
X27241709Y-58509841D01*
X27000000Y-58486035D01*
X26758290Y-58509841D01*
X26525869Y-58580346D01*
X26311668Y-58694838D01*
X26123919Y-58848919D01*
X26000000Y-58999916D01*
X25876081Y-58848919D01*
X25688331Y-58694838D01*
X25474130Y-58580346D01*
X25241709Y-58509841D01*
X25000000Y-58486035D01*
X24758290Y-58509841D01*
X24525869Y-58580346D01*
X24311668Y-58694838D01*
X24123919Y-58848919D01*
X23996241Y-59004496D01*
X23870449Y-58851723D01*
X23683356Y-58698687D01*
X23470002Y-58585091D01*
X23238586Y-58515301D01*
X23194859Y-58507495D01*
X23002000Y-58650252D01*
X22998000Y-58650252D01*
X22805141Y-58507495D01*
X22761414Y-58515301D01*
X22529998Y-58585091D01*
X22316644Y-58698687D01*
X22129551Y-58851723D01*
X22093538Y-58895460D01*
X22086734Y-58882730D01*
X21976541Y-58748459D01*
X21842270Y-58638266D01*
X21689082Y-58556385D01*
X21522863Y-58505963D01*
X21350001Y-58488938D01*
X20649999Y-58488938D01*
X20477137Y-58505963D01*
X20310918Y-58556385D01*
X20157730Y-58638266D01*
X20023459Y-58748459D01*
X19913266Y-58882730D01*
X19831385Y-59035918D01*
X19780963Y-59202137D01*
X19763938Y-59374999D01*
X15182309Y-59374999D01*
X15144654Y-59250869D01*
X15030162Y-59036668D01*
X14876081Y-58848919D01*
X14688331Y-58694838D01*
X14474130Y-58580346D01*
X14241709Y-58509841D01*
X14000000Y-58486035D01*
X13758290Y-58509841D01*
X13525869Y-58580346D01*
X13311668Y-58694838D01*
X13123919Y-58848919D01*
X13000000Y-58999916D01*
X12876081Y-58848919D01*
X12688331Y-58694838D01*
X12474130Y-58580346D01*
X12241709Y-58509841D01*
X12000000Y-58486035D01*
X11758290Y-58509841D01*
X11525869Y-58580346D01*
X11311668Y-58694838D01*
X11123919Y-58848919D01*
X11000000Y-58999916D01*
X10876081Y-58848919D01*
X10688331Y-58694838D01*
X10474130Y-58580346D01*
X10241709Y-58509841D01*
X10000000Y-58486035D01*
X9758290Y-58509841D01*
X9525869Y-58580346D01*
X9311668Y-58694838D01*
X9123919Y-58848919D01*
X8996241Y-59004496D01*
X8870449Y-58851723D01*
X8683356Y-58698687D01*
X8470002Y-58585091D01*
X8238586Y-58515301D01*
X8194859Y-58507495D01*
X8002000Y-58650252D01*
X7998000Y-58650252D01*
X7805141Y-58507495D01*
X7761414Y-58515301D01*
X7529998Y-58585091D01*
X7316644Y-58698687D01*
X7129551Y-58851723D01*
X7093538Y-58895460D01*
X7086734Y-58882730D01*
X6976541Y-58748459D01*
X6842270Y-58638266D01*
X6689082Y-58556385D01*
X6522863Y-58505963D01*
X6350001Y-58488938D01*
X5649999Y-58488938D01*
X5477137Y-58505963D01*
X5310918Y-58556385D01*
X5157730Y-58638266D01*
X5023459Y-58748459D01*
X4913266Y-58882730D01*
X4831385Y-59035918D01*
X4780963Y-59202137D01*
X4763938Y-59374999D01*
X658000Y-59374999D01*
X658000Y-52500000D01*
X8486035Y-52500000D01*
X8509841Y-52741710D01*
X8580346Y-52974131D01*
X8694838Y-53188332D01*
X8848919Y-53376081D01*
X9036668Y-53530162D01*
X9250869Y-53644654D01*
X9483290Y-53715159D01*
X9664435Y-53733000D01*
X10335565Y-53733000D01*
X10516710Y-53715159D01*
X10749131Y-53644654D01*
X10963332Y-53530162D01*
X11151081Y-53376081D01*
X11305162Y-53188332D01*
X11419654Y-52974131D01*
X11490159Y-52741710D01*
X11513965Y-52500000D01*
X11490159Y-52258290D01*
X11419654Y-52025869D01*
X11305162Y-51811668D01*
X11177472Y-51656077D01*
X11228378Y-51628867D01*
X11324764Y-51549764D01*
X11403867Y-51453378D01*
X11462646Y-51343411D01*
X11498841Y-51224090D01*
X11511063Y-51100000D01*
X11508000Y-50660250D01*
X11349750Y-50502000D01*
X10002000Y-50502000D01*
X10002000Y-50522000D01*
X9998000Y-50522000D01*
X9998000Y-50502000D01*
X8650250Y-50502000D01*
X8492000Y-50660250D01*
X8488937Y-51100000D01*
X8501159Y-51224090D01*
X8537354Y-51343411D01*
X8596133Y-51453378D01*
X8675236Y-51549764D01*
X8771622Y-51628867D01*
X8822528Y-51656077D01*
X8694838Y-51811668D01*
X8580346Y-52025869D01*
X8509841Y-52258290D01*
X8486035Y-52500000D01*
X658000Y-52500000D01*
X658000Y-49900000D01*
X8488937Y-49900000D01*
X8492000Y-50339750D01*
X8650250Y-50498000D01*
X9998000Y-50498000D01*
X9998000Y-49425250D01*
X10002000Y-49425250D01*
X10002000Y-50498000D01*
X11349750Y-50498000D01*
X11508000Y-50339750D01*
X11511063Y-49900000D01*
X11498841Y-49775910D01*
X11462646Y-49656589D01*
X11403867Y-49546622D01*
X11324764Y-49450236D01*
X11228378Y-49371133D01*
X11118411Y-49312354D01*
X10999090Y-49276159D01*
X10875000Y-49263937D01*
X10160250Y-49267000D01*
X10002000Y-49425250D01*
X9998000Y-49425250D01*
X9839750Y-49267000D01*
X9125000Y-49263937D01*
X9000910Y-49276159D01*
X8881589Y-49312354D01*
X8771622Y-49371133D01*
X8675236Y-49450236D01*
X8596133Y-49546622D01*
X8537354Y-49656589D01*
X8501159Y-49775910D01*
X8488937Y-49900000D01*
X658000Y-49900000D01*
X658000Y-45000000D01*
X8486035Y-45000000D01*
X8509841Y-45241710D01*
X8580346Y-45474131D01*
X8694838Y-45688332D01*
X8848919Y-45876081D01*
X9036668Y-46030162D01*
X9250869Y-46144654D01*
X9483290Y-46215159D01*
X9635449Y-46230145D01*
X9748488Y-46264435D01*
X9936980Y-46283000D01*
X11936990Y-46283000D01*
X12000000Y-46289206D01*
X12063010Y-46283000D01*
X12063020Y-46283000D01*
X12251512Y-46264435D01*
X12493358Y-46191072D01*
X12716245Y-46071936D01*
X12911607Y-45911607D01*
X12951784Y-45862651D01*
X16362657Y-42451779D01*
X16411607Y-42411607D01*
X16494240Y-42310918D01*
X16571936Y-42216246D01*
X16607345Y-42150000D01*
X21513937Y-42150000D01*
X21517000Y-42839750D01*
X21675250Y-42998000D01*
X22998000Y-42998000D01*
X22998000Y-41675250D01*
X23002000Y-41675250D01*
X23002000Y-42998000D01*
X24324750Y-42998000D01*
X24483000Y-42839750D01*
X24486063Y-42150000D01*
X24473841Y-42025910D01*
X24437646Y-41906589D01*
X24378867Y-41796622D01*
X24299764Y-41700236D01*
X24203378Y-41621133D01*
X24093411Y-41562354D01*
X23974090Y-41526159D01*
X23850000Y-41513937D01*
X23160250Y-41517000D01*
X23002000Y-41675250D01*
X22998000Y-41675250D01*
X22839750Y-41517000D01*
X22150000Y-41513937D01*
X22025910Y-41526159D01*
X21906589Y-41562354D01*
X21796622Y-41621133D01*
X21700236Y-41700236D01*
X21621133Y-41796622D01*
X21562354Y-41906589D01*
X21526159Y-42025910D01*
X21513937Y-42150000D01*
X16607345Y-42150000D01*
X16636227Y-42095966D01*
X16691072Y-41993358D01*
X16764435Y-41751512D01*
X16783000Y-41563020D01*
X16783000Y-41563011D01*
X16789206Y-41500001D01*
X16783000Y-41436991D01*
X16783000Y-34531435D01*
X17854435Y-33460000D01*
X21359329Y-33460000D01*
X21389941Y-33770812D01*
X21480602Y-34069680D01*
X21627827Y-34345118D01*
X21732539Y-34472711D01*
X21646623Y-34518634D01*
X21550236Y-34597736D01*
X21471134Y-34694123D01*
X21412355Y-34804090D01*
X21376160Y-34923410D01*
X21363938Y-35047500D01*
X21363938Y-36952500D01*
X21376160Y-37076590D01*
X21412355Y-37195910D01*
X21471134Y-37305877D01*
X21550236Y-37402264D01*
X21646623Y-37481366D01*
X21756590Y-37540145D01*
X21875910Y-37576340D01*
X22000000Y-37588562D01*
X22167001Y-37588562D01*
X22167001Y-38959075D01*
X22162970Y-39000000D01*
X22179054Y-39163296D01*
X22226685Y-39320317D01*
X22226686Y-39320318D01*
X22304036Y-39465029D01*
X22408131Y-39591870D01*
X22439916Y-39617956D01*
X31488960Y-48667000D01*
X27112678Y-48667000D01*
X26989309Y-48584567D01*
X26801315Y-48506698D01*
X26601742Y-48467000D01*
X26398258Y-48467000D01*
X26198685Y-48506698D01*
X26010691Y-48584567D01*
X25841501Y-48697617D01*
X25697617Y-48841501D01*
X25584567Y-49010691D01*
X25506698Y-49198685D01*
X25471861Y-49373821D01*
X24456637Y-48358598D01*
X24483000Y-48226063D01*
X24483000Y-47933937D01*
X24426010Y-47647425D01*
X24314218Y-47377536D01*
X24151922Y-47134642D01*
X23945358Y-46928078D01*
X23768641Y-46810000D01*
X23945358Y-46691922D01*
X24151922Y-46485358D01*
X24314218Y-46242464D01*
X24426010Y-45972575D01*
X24483000Y-45686063D01*
X24483000Y-45393937D01*
X24426010Y-45107425D01*
X24314218Y-44837536D01*
X24151922Y-44594642D01*
X24017848Y-44460568D01*
X24093411Y-44437646D01*
X24203378Y-44378867D01*
X24299764Y-44299764D01*
X24378867Y-44203378D01*
X24437646Y-44093411D01*
X24473841Y-43974090D01*
X24486063Y-43850000D01*
X24483000Y-43160250D01*
X24324750Y-43002000D01*
X23002000Y-43002000D01*
X23002000Y-43022000D01*
X22998000Y-43022000D01*
X22998000Y-43002000D01*
X21675250Y-43002000D01*
X21517000Y-43160250D01*
X21513937Y-43850000D01*
X21526159Y-43974090D01*
X21562354Y-44093411D01*
X21621133Y-44203378D01*
X21700236Y-44299764D01*
X21796622Y-44378867D01*
X21906589Y-44437646D01*
X21982152Y-44460568D01*
X21848078Y-44594642D01*
X21685782Y-44837536D01*
X21573990Y-45107425D01*
X21517000Y-45393937D01*
X21517000Y-45686063D01*
X21573990Y-45972575D01*
X21685782Y-46242464D01*
X21848078Y-46485358D01*
X22054642Y-46691922D01*
X22231359Y-46810000D01*
X22054642Y-46928078D01*
X21848078Y-47134642D01*
X21685782Y-47377536D01*
X21573990Y-47647425D01*
X21517000Y-47933937D01*
X21517000Y-48226063D01*
X21573990Y-48512575D01*
X21685782Y-48782464D01*
X21848078Y-49025358D01*
X22054642Y-49231922D01*
X22297536Y-49394218D01*
X22567425Y-49506010D01*
X22853937Y-49563000D01*
X23146063Y-49563000D01*
X23278598Y-49536637D01*
X25302044Y-51560084D01*
X25328130Y-51591870D01*
X25393768Y-51645737D01*
X25454970Y-51695965D01*
X25507123Y-51723841D01*
X25599682Y-51773315D01*
X25678193Y-51797131D01*
X25756703Y-51820947D01*
X25920000Y-51837030D01*
X25960918Y-51833000D01*
X27206118Y-51833000D01*
X27197617Y-51841501D01*
X27084567Y-52010691D01*
X27006698Y-52198685D01*
X26967000Y-52398258D01*
X26967000Y-52601742D01*
X27006698Y-52801315D01*
X27084567Y-52989309D01*
X27197617Y-53158499D01*
X27341501Y-53302383D01*
X27510691Y-53415433D01*
X27698685Y-53493302D01*
X27844210Y-53522249D01*
X29882044Y-55560084D01*
X29908130Y-55591870D01*
X30034971Y-55695965D01*
X30179682Y-55773315D01*
X30336704Y-55820947D01*
X30459082Y-55833000D01*
X30459084Y-55833000D01*
X30500000Y-55837030D01*
X30540915Y-55833000D01*
X33387322Y-55833000D01*
X33510691Y-55915433D01*
X33698685Y-55993302D01*
X33898258Y-56033000D01*
X34101742Y-56033000D01*
X34301315Y-55993302D01*
X34489309Y-55915433D01*
X34658499Y-55802383D01*
X34802383Y-55658499D01*
X34915433Y-55489309D01*
X34993302Y-55301315D01*
X35033000Y-55101742D01*
X35033000Y-54898258D01*
X34993302Y-54698685D01*
X34915433Y-54510691D01*
X34802383Y-54341501D01*
X34658499Y-54197617D01*
X34489309Y-54084567D01*
X34301315Y-54006698D01*
X34101742Y-53967000D01*
X33898258Y-53967000D01*
X33698685Y-54006698D01*
X33510691Y-54084567D01*
X33387322Y-54167000D01*
X30845040Y-54167000D01*
X29022249Y-52344210D01*
X28993302Y-52198685D01*
X28915433Y-52010691D01*
X28802383Y-51841501D01*
X28793882Y-51833000D01*
X60387322Y-51833000D01*
X60510691Y-51915433D01*
X60698685Y-51993302D01*
X60898258Y-52033000D01*
X61067002Y-52033000D01*
X61067002Y-55061242D01*
X61010691Y-55084567D01*
X60841501Y-55197617D01*
X60697617Y-55341501D01*
X60584567Y-55510691D01*
X60506698Y-55698685D01*
X60467000Y-55898258D01*
X60467000Y-56101742D01*
X60506698Y-56301315D01*
X60584567Y-56489309D01*
X60697617Y-56658499D01*
X60841501Y-56802383D01*
X61010691Y-56915433D01*
X61198685Y-56993302D01*
X61398258Y-57033000D01*
X61601742Y-57033000D01*
X61801315Y-56993302D01*
X61989309Y-56915433D01*
X62158499Y-56802383D01*
X62302383Y-56658499D01*
X62415433Y-56489309D01*
X62493302Y-56301315D01*
X62522495Y-56154553D01*
X62595966Y-56065028D01*
X62673316Y-55920317D01*
X62720948Y-55763295D01*
X62733001Y-55640917D01*
X62733001Y-55640915D01*
X62737031Y-55599999D01*
X62733001Y-55559084D01*
X62733001Y-41440916D01*
X62737031Y-41400001D01*
X62733001Y-41359083D01*
X62720948Y-41236705D01*
X62673316Y-41079683D01*
X62595966Y-40934972D01*
X62491871Y-40808131D01*
X62460081Y-40782042D01*
X62117958Y-40439919D01*
X62117953Y-40439913D01*
X59022249Y-37344210D01*
X58993302Y-37198685D01*
X58915433Y-37010691D01*
X58802383Y-36841501D01*
X58658499Y-36697617D01*
X58489309Y-36584567D01*
X58301315Y-36506698D01*
X58101742Y-36467000D01*
X57898258Y-36467000D01*
X57698685Y-36506698D01*
X57510691Y-36584567D01*
X57387322Y-36667000D01*
X42345040Y-36667000D01*
X40022249Y-34344210D01*
X39993302Y-34198685D01*
X39915433Y-34010691D01*
X39802383Y-33841501D01*
X39658499Y-33697617D01*
X39489309Y-33584567D01*
X39301315Y-33506698D01*
X39101742Y-33467000D01*
X38898258Y-33467000D01*
X38698685Y-33506698D01*
X38510691Y-33584567D01*
X38341501Y-33697617D01*
X38197617Y-33841501D01*
X38084567Y-34010691D01*
X38006698Y-34198685D01*
X37967000Y-34398258D01*
X37967000Y-34601742D01*
X38006698Y-34801315D01*
X38084567Y-34989309D01*
X38197617Y-35158499D01*
X38341501Y-35302383D01*
X38510691Y-35415433D01*
X38698685Y-35493302D01*
X38844210Y-35522249D01*
X41382044Y-38060084D01*
X41408130Y-38091870D01*
X41473768Y-38145737D01*
X41534970Y-38195965D01*
X41679682Y-38273315D01*
X41836704Y-38320947D01*
X41959082Y-38333000D01*
X41959084Y-38333000D01*
X42000000Y-38337030D01*
X42040915Y-38333000D01*
X57387322Y-38333000D01*
X57510691Y-38415433D01*
X57698685Y-38493302D01*
X57844210Y-38522249D01*
X60939913Y-41617953D01*
X60939919Y-41617958D01*
X61067001Y-41745040D01*
X61067002Y-49967000D01*
X60898258Y-49967000D01*
X60698685Y-50006698D01*
X60510691Y-50084567D01*
X60387322Y-50167000D01*
X38793882Y-50167000D01*
X38802383Y-50158499D01*
X38915433Y-49989309D01*
X38993302Y-49801315D01*
X39033000Y-49601742D01*
X39033000Y-49398258D01*
X38993302Y-49198685D01*
X38915433Y-49010691D01*
X38802383Y-48841501D01*
X38658499Y-48697617D01*
X38489309Y-48584567D01*
X38301315Y-48506698D01*
X38155791Y-48477751D01*
X37367960Y-47689921D01*
X37341870Y-47658130D01*
X37215029Y-47554035D01*
X37070318Y-47476685D01*
X36913296Y-47429053D01*
X36790918Y-47417000D01*
X36790915Y-47417000D01*
X36750000Y-47412970D01*
X36709085Y-47417000D01*
X32595040Y-47417000D01*
X27958109Y-42780069D01*
X31767000Y-42780069D01*
X31767000Y-43219931D01*
X31852812Y-43651342D01*
X32021141Y-44057722D01*
X32265515Y-44423455D01*
X32576545Y-44734485D01*
X32942278Y-44978859D01*
X33348658Y-45147188D01*
X33780069Y-45233000D01*
X34219931Y-45233000D01*
X34651342Y-45147188D01*
X35057722Y-44978859D01*
X35423455Y-44734485D01*
X35734485Y-44423455D01*
X35978859Y-44057722D01*
X36147188Y-43651342D01*
X36233000Y-43219931D01*
X36233000Y-42780069D01*
X36147188Y-42348658D01*
X35978859Y-41942278D01*
X35734485Y-41576545D01*
X35423455Y-41265515D01*
X35057722Y-41021141D01*
X34651342Y-40852812D01*
X34219931Y-40767000D01*
X33780069Y-40767000D01*
X33348658Y-40852812D01*
X32942278Y-41021141D01*
X32576545Y-41265515D01*
X32265515Y-41576545D01*
X32021141Y-41942278D01*
X31852812Y-42348658D01*
X31767000Y-42780069D01*
X27958109Y-42780069D01*
X23833000Y-38654961D01*
X23833000Y-37588562D01*
X24000000Y-37588562D01*
X24124090Y-37576340D01*
X24243410Y-37540145D01*
X24353377Y-37481366D01*
X24449764Y-37402264D01*
X24528866Y-37305877D01*
X24587645Y-37195910D01*
X24623840Y-37076590D01*
X24636062Y-36952500D01*
X24636062Y-35047500D01*
X24623840Y-34923410D01*
X24587645Y-34804090D01*
X24528866Y-34694123D01*
X24449764Y-34597736D01*
X24353377Y-34518634D01*
X24267461Y-34472711D01*
X24372173Y-34345118D01*
X24519398Y-34069680D01*
X24610059Y-33770812D01*
X24640671Y-33460000D01*
X24610059Y-33149188D01*
X24519398Y-32850320D01*
X24372173Y-32574882D01*
X24174042Y-32333458D01*
X23993294Y-32185122D01*
X24170031Y-32039704D01*
X24366905Y-31799194D01*
X24513075Y-31524897D01*
X24602924Y-31227355D01*
X24613166Y-31170002D01*
X24474749Y-30922000D01*
X23002000Y-30922000D01*
X23002000Y-30942000D01*
X22998000Y-30942000D01*
X22998000Y-30922000D01*
X21525251Y-30922000D01*
X21386834Y-31170002D01*
X21397076Y-31227355D01*
X21486925Y-31524897D01*
X21633095Y-31799194D01*
X21829969Y-32039704D01*
X22006706Y-32185122D01*
X21825958Y-32333458D01*
X21627827Y-32574882D01*
X21480602Y-32850320D01*
X21389941Y-33149188D01*
X21359329Y-33460000D01*
X17854435Y-33460000D01*
X20644437Y-30669998D01*
X21386834Y-30669998D01*
X21525251Y-30918000D01*
X22998000Y-30918000D01*
X22998000Y-29334500D01*
X23002000Y-29334500D01*
X23002000Y-30918000D01*
X24474749Y-30918000D01*
X24613166Y-30669998D01*
X24602924Y-30612645D01*
X24513075Y-30315103D01*
X24366905Y-30040806D01*
X24170031Y-29800296D01*
X23930019Y-29602816D01*
X23656092Y-29455954D01*
X23358777Y-29365355D01*
X23049500Y-29334500D01*
X23002000Y-29334500D01*
X22998000Y-29334500D01*
X22950500Y-29334500D01*
X22641223Y-29365355D01*
X22343908Y-29455954D01*
X22069981Y-29602816D01*
X21829969Y-29800296D01*
X21633095Y-30040806D01*
X21486925Y-30315103D01*
X21397076Y-30612645D01*
X21386834Y-30669998D01*
X20644437Y-30669998D01*
X22031436Y-29283000D01*
X25626364Y-29283000D01*
X25688492Y-29270642D01*
X25751512Y-29264435D01*
X25812110Y-29246053D01*
X25874237Y-29233695D01*
X25932759Y-29209455D01*
X25993358Y-29191072D01*
X26049206Y-29161221D01*
X26107728Y-29136980D01*
X26160399Y-29101787D01*
X26216245Y-29071936D01*
X26265195Y-29031764D01*
X26317865Y-28996571D01*
X26362656Y-28951780D01*
X26411607Y-28911607D01*
X26451780Y-28862656D01*
X26496571Y-28817865D01*
X26521825Y-28780069D01*
X57767000Y-28780069D01*
X57767000Y-29219931D01*
X57852812Y-29651342D01*
X58021141Y-30057722D01*
X58265515Y-30423455D01*
X58576545Y-30734485D01*
X58942278Y-30978859D01*
X59348658Y-31147188D01*
X59780069Y-31233000D01*
X60219931Y-31233000D01*
X60651342Y-31147188D01*
X61057722Y-30978859D01*
X61423455Y-30734485D01*
X61734485Y-30423455D01*
X61978859Y-30057722D01*
X62147188Y-29651342D01*
X62233000Y-29219931D01*
X62233000Y-28780069D01*
X62147188Y-28348658D01*
X61978859Y-27942278D01*
X61734485Y-27576545D01*
X61423455Y-27265515D01*
X61057722Y-27021141D01*
X60651342Y-26852812D01*
X60219931Y-26767000D01*
X59780069Y-26767000D01*
X59348658Y-26852812D01*
X58942278Y-27021141D01*
X58576545Y-27265515D01*
X58265515Y-27576545D01*
X58021141Y-27942278D01*
X57852812Y-28348658D01*
X57767000Y-28780069D01*
X26521825Y-28780069D01*
X26531764Y-28765195D01*
X26571936Y-28716245D01*
X26601787Y-28660399D01*
X26636980Y-28607728D01*
X26661221Y-28549206D01*
X26691072Y-28493358D01*
X26709455Y-28432759D01*
X26733695Y-28374237D01*
X26746053Y-28312110D01*
X26764435Y-28251512D01*
X26770642Y-28188492D01*
X26783000Y-28126364D01*
X26783000Y-28063020D01*
X26789207Y-28000000D01*
X26783000Y-27936980D01*
X26783000Y-27873636D01*
X26770642Y-27811508D01*
X26764435Y-27748488D01*
X26746053Y-27687890D01*
X26733695Y-27625763D01*
X26709455Y-27567241D01*
X26691072Y-27506642D01*
X26661221Y-27450794D01*
X26636980Y-27392272D01*
X26601787Y-27339601D01*
X26571936Y-27283755D01*
X26531764Y-27234805D01*
X26496571Y-27182135D01*
X26451780Y-27137344D01*
X26411607Y-27088393D01*
X26362656Y-27048220D01*
X26317865Y-27003429D01*
X26265195Y-26968236D01*
X26216245Y-26928064D01*
X26160399Y-26898213D01*
X26107728Y-26863020D01*
X26049206Y-26838779D01*
X25993358Y-26808928D01*
X25932759Y-26790545D01*
X25874237Y-26766305D01*
X25812110Y-26753947D01*
X25751512Y-26735565D01*
X25688492Y-26729358D01*
X25626364Y-26717000D01*
X21563009Y-26717000D01*
X21499999Y-26710794D01*
X21436989Y-26717000D01*
X21436980Y-26717000D01*
X21248488Y-26735565D01*
X21006642Y-26808928D01*
X20783755Y-26928064D01*
X20588393Y-27088393D01*
X20548220Y-27137344D01*
X14637345Y-33048220D01*
X14588394Y-33088393D01*
X14428065Y-33283755D01*
X14308929Y-33506642D01*
X14235566Y-33748488D01*
X14219842Y-33908131D01*
X14210794Y-34000000D01*
X14217001Y-34063020D01*
X14217000Y-40968564D01*
X11468565Y-43717000D01*
X11428692Y-43717000D01*
X11443615Y-43689082D01*
X11494037Y-43522863D01*
X11511062Y-43350001D01*
X11511062Y-42649999D01*
X11494037Y-42477137D01*
X11443615Y-42310918D01*
X11361734Y-42157730D01*
X11251541Y-42023459D01*
X11117270Y-41913266D01*
X10964082Y-41831385D01*
X10797863Y-41780963D01*
X10625001Y-41763938D01*
X9374999Y-41763938D01*
X9202137Y-41780963D01*
X9035918Y-41831385D01*
X8882730Y-41913266D01*
X8748459Y-42023459D01*
X8638266Y-42157730D01*
X8556385Y-42310918D01*
X8505963Y-42477137D01*
X8488938Y-42649999D01*
X8488938Y-43350001D01*
X8505963Y-43522863D01*
X8556385Y-43689082D01*
X8638266Y-43842270D01*
X8748459Y-43976541D01*
X8882730Y-44086734D01*
X8889694Y-44090456D01*
X8848919Y-44123919D01*
X8694838Y-44311668D01*
X8580346Y-44525869D01*
X8509841Y-44758290D01*
X8486035Y-45000000D01*
X658000Y-45000000D01*
X658000Y-33225295D01*
X3957000Y-33225295D01*
X3957000Y-33694705D01*
X4048578Y-34155095D01*
X4228213Y-34588774D01*
X4489003Y-34979074D01*
X4820926Y-35310997D01*
X5211226Y-35571787D01*
X5644905Y-35751422D01*
X6105295Y-35843000D01*
X6574705Y-35843000D01*
X7035095Y-35751422D01*
X7468774Y-35571787D01*
X7859074Y-35310997D01*
X8190997Y-34979074D01*
X8451787Y-34588774D01*
X8631422Y-34155095D01*
X8723000Y-33694705D01*
X8723000Y-33225295D01*
X8631422Y-32764905D01*
X8451787Y-32331226D01*
X8190997Y-31940926D01*
X7859074Y-31609003D01*
X7468774Y-31348213D01*
X7035095Y-31168578D01*
X6574705Y-31077000D01*
X6105295Y-31077000D01*
X5644905Y-31168578D01*
X5211226Y-31348213D01*
X4820926Y-31609003D01*
X4489003Y-31940926D01*
X4228213Y-32331226D01*
X4048578Y-32764905D01*
X3957000Y-33225295D01*
X658000Y-33225295D01*
X658000Y-22200370D01*
X46567000Y-22200370D01*
X46567000Y-22679630D01*
X46660499Y-23149680D01*
X46843904Y-23592458D01*
X47110166Y-23990947D01*
X47449053Y-24329834D01*
X47847542Y-24596096D01*
X48290320Y-24779501D01*
X48760370Y-24873000D01*
X49239630Y-24873000D01*
X49709680Y-24779501D01*
X50152458Y-24596096D01*
X50550947Y-24329834D01*
X50889834Y-23990947D01*
X51156096Y-23592458D01*
X51339501Y-23149680D01*
X51433000Y-22679630D01*
X51433000Y-22200370D01*
X51339501Y-21730320D01*
X51156096Y-21287542D01*
X50889834Y-20889053D01*
X50550947Y-20550166D01*
X50152458Y-20283904D01*
X49709680Y-20100499D01*
X49239630Y-20007000D01*
X48760370Y-20007000D01*
X48290320Y-20100499D01*
X47847542Y-20283904D01*
X47449053Y-20550166D01*
X47110166Y-20889053D01*
X46843904Y-21287542D01*
X46660499Y-21730320D01*
X46567000Y-22200370D01*
X658000Y-22200370D01*
X658000Y-20400000D01*
X3463937Y-20400000D01*
X3476159Y-20524090D01*
X3512354Y-20643411D01*
X3571133Y-20753378D01*
X3650236Y-20849764D01*
X3746622Y-20928867D01*
X3856589Y-20987646D01*
X3975910Y-21023841D01*
X4100000Y-21036063D01*
X5839750Y-21033000D01*
X5998000Y-20874750D01*
X5998000Y-18502000D01*
X6002000Y-18502000D01*
X6002000Y-20874750D01*
X6160250Y-21033000D01*
X7900000Y-21036063D01*
X8024090Y-21023841D01*
X8143411Y-20987646D01*
X8253378Y-20928867D01*
X8349764Y-20849764D01*
X8428867Y-20753378D01*
X8487646Y-20643411D01*
X8523841Y-20524090D01*
X8536063Y-20400000D01*
X8533000Y-18660250D01*
X8374750Y-18502000D01*
X6002000Y-18502000D01*
X5998000Y-18502000D01*
X3625250Y-18502000D01*
X3467000Y-18660250D01*
X3463937Y-20400000D01*
X658000Y-20400000D01*
X658000Y-13240672D01*
X3367000Y-13240672D01*
X3367000Y-13759328D01*
X3468185Y-14268018D01*
X3666666Y-14747193D01*
X3954815Y-15178440D01*
X4321560Y-15545185D01*
X4752807Y-15833334D01*
X5072243Y-15965649D01*
X4100000Y-15963937D01*
X3975910Y-15976159D01*
X3856589Y-16012354D01*
X3746622Y-16071133D01*
X3650236Y-16150236D01*
X3571133Y-16246622D01*
X3512354Y-16356589D01*
X3476159Y-16475910D01*
X3463937Y-16600000D01*
X3467000Y-18339750D01*
X3625250Y-18498000D01*
X5998000Y-18498000D01*
X5998000Y-18478000D01*
X6002000Y-18478000D01*
X6002000Y-18498000D01*
X8374750Y-18498000D01*
X8533000Y-18339750D01*
X8536063Y-16600000D01*
X8523841Y-16475910D01*
X8487646Y-16356589D01*
X8428867Y-16246622D01*
X8349764Y-16150236D01*
X8253378Y-16071133D01*
X8143411Y-16012354D01*
X8024090Y-15976159D01*
X7900000Y-15963937D01*
X6927757Y-15965649D01*
X7247193Y-15833334D01*
X7678440Y-15545185D01*
X8045185Y-15178440D01*
X8333334Y-14747193D01*
X8531815Y-14268018D01*
X8633000Y-13759328D01*
X8633000Y-13240672D01*
X8531815Y-12731982D01*
X8333334Y-12252807D01*
X8045185Y-11821560D01*
X7678440Y-11454815D01*
X7247193Y-11166666D01*
X6768018Y-10968185D01*
X6259328Y-10867000D01*
X5740672Y-10867000D01*
X5231982Y-10968185D01*
X4752807Y-11166666D01*
X4321560Y-11454815D01*
X3954815Y-11821560D01*
X3666666Y-12252807D01*
X3468185Y-12731982D01*
X3367000Y-13240672D01*
X658000Y-13240672D01*
X658000Y-4780069D01*
X2767000Y-4780069D01*
X2767000Y-5219931D01*
X2852812Y-5651342D01*
X3021141Y-6057722D01*
X3265515Y-6423455D01*
X3576545Y-6734485D01*
X3942278Y-6978859D01*
X4348658Y-7147188D01*
X4780069Y-7233000D01*
X5219931Y-7233000D01*
X5651342Y-7147188D01*
X6057722Y-6978859D01*
X6227683Y-6865295D01*
X12457000Y-6865295D01*
X12457000Y-7334705D01*
X12548578Y-7795095D01*
X12728213Y-8228774D01*
X12989003Y-8619074D01*
X13320926Y-8950997D01*
X13711226Y-9211787D01*
X14144905Y-9391422D01*
X14605295Y-9483000D01*
X15074705Y-9483000D01*
X15535095Y-9391422D01*
X15968774Y-9211787D01*
X16359074Y-8950997D01*
X16690997Y-8619074D01*
X16951787Y-8228774D01*
X17131422Y-7795095D01*
X17190120Y-7500000D01*
X27210794Y-7500000D01*
X27217000Y-7563010D01*
X27217001Y-13373631D01*
X27217000Y-13373636D01*
X27217000Y-13626364D01*
X27229360Y-13688502D01*
X27235566Y-13751512D01*
X27253945Y-13812101D01*
X27266305Y-13874237D01*
X27290549Y-13932768D01*
X27308929Y-13993358D01*
X27338776Y-14049197D01*
X27363020Y-14107728D01*
X27398218Y-14160406D01*
X27428065Y-14216245D01*
X27468231Y-14265188D01*
X27503429Y-14317865D01*
X27548226Y-14362662D01*
X27588394Y-14411607D01*
X27637339Y-14451775D01*
X27682135Y-14496571D01*
X27734811Y-14531768D01*
X27783756Y-14571936D01*
X27839597Y-14601784D01*
X27892272Y-14636980D01*
X27950799Y-14661223D01*
X28006643Y-14691072D01*
X28067239Y-14709453D01*
X28125763Y-14733695D01*
X28187893Y-14746053D01*
X28248489Y-14764435D01*
X28311507Y-14770642D01*
X28373636Y-14783000D01*
X28436980Y-14783000D01*
X28500000Y-14789207D01*
X28563020Y-14783000D01*
X28626364Y-14783000D01*
X28688492Y-14770642D01*
X28751512Y-14764435D01*
X28812110Y-14746053D01*
X28874237Y-14733695D01*
X28932759Y-14709455D01*
X28993358Y-14691072D01*
X29049206Y-14661221D01*
X29107728Y-14636980D01*
X29160399Y-14601787D01*
X29216245Y-14571936D01*
X29265195Y-14531764D01*
X29317865Y-14496571D01*
X29362656Y-14451780D01*
X29411607Y-14411607D01*
X29451780Y-14362656D01*
X29496571Y-14317865D01*
X29531764Y-14265195D01*
X29571936Y-14216245D01*
X29601787Y-14160399D01*
X29636980Y-14107728D01*
X29661221Y-14049206D01*
X29691072Y-13993358D01*
X29709455Y-13932759D01*
X29733695Y-13874237D01*
X29746053Y-13812110D01*
X29764435Y-13751512D01*
X29770642Y-13688492D01*
X29783000Y-13626364D01*
X29783000Y-8031435D01*
X30121021Y-7693415D01*
X30180007Y-7804189D01*
X30295401Y-7945250D01*
X30176007Y-8090733D01*
X30058032Y-8311448D01*
X29985383Y-8550939D01*
X29960853Y-8800000D01*
X29985383Y-9049061D01*
X30058032Y-9288552D01*
X30134596Y-9431793D01*
X30071134Y-9509123D01*
X30012355Y-9619090D01*
X29976160Y-9738410D01*
X29963938Y-9862500D01*
X29963938Y-11137500D01*
X29976160Y-11261590D01*
X30012355Y-11380910D01*
X30071134Y-11490877D01*
X30150236Y-11587264D01*
X30246623Y-11666366D01*
X30356590Y-11725145D01*
X30475910Y-11761340D01*
X30600000Y-11773562D01*
X32400000Y-11773562D01*
X32524090Y-11761340D01*
X32643410Y-11725145D01*
X32753377Y-11666366D01*
X32849764Y-11587264D01*
X32928866Y-11490877D01*
X32987645Y-11380910D01*
X33023840Y-11261590D01*
X33036062Y-11137500D01*
X33036062Y-10760370D01*
X46567000Y-10760370D01*
X46567000Y-11239630D01*
X46660499Y-11709680D01*
X46843904Y-12152458D01*
X47110166Y-12550947D01*
X47449053Y-12889834D01*
X47847542Y-13156096D01*
X48290320Y-13339501D01*
X48760370Y-13433000D01*
X49239630Y-13433000D01*
X49709680Y-13339501D01*
X50152458Y-13156096D01*
X50550947Y-12889834D01*
X50889834Y-12550947D01*
X51156096Y-12152458D01*
X51339501Y-11709680D01*
X51433000Y-11239630D01*
X51433000Y-10760370D01*
X51339501Y-10290320D01*
X51156096Y-9847542D01*
X50889834Y-9449053D01*
X50550947Y-9110166D01*
X50152458Y-8843904D01*
X49709680Y-8660499D01*
X49239630Y-8567000D01*
X48760370Y-8567000D01*
X48290320Y-8660499D01*
X47847542Y-8843904D01*
X47449053Y-9110166D01*
X47110166Y-9449053D01*
X46843904Y-9847542D01*
X46660499Y-10290320D01*
X46567000Y-10760370D01*
X33036062Y-10760370D01*
X33036062Y-9862500D01*
X33023840Y-9738410D01*
X32987645Y-9619090D01*
X32928866Y-9509123D01*
X32865404Y-9431793D01*
X32941968Y-9288552D01*
X33014617Y-9049061D01*
X33039147Y-8800000D01*
X33014617Y-8550939D01*
X32941968Y-8311448D01*
X32823993Y-8090733D01*
X32704599Y-7945250D01*
X32819993Y-7804189D01*
X32937054Y-7584352D01*
X33008978Y-7345901D01*
X33017043Y-7300725D01*
X32874748Y-7102000D01*
X31502000Y-7102000D01*
X31502000Y-7122000D01*
X31498000Y-7122000D01*
X31498000Y-7102000D01*
X31478000Y-7102000D01*
X31478000Y-7098000D01*
X31498000Y-7098000D01*
X31498000Y-7078000D01*
X31502000Y-7078000D01*
X31502000Y-7098000D01*
X32874748Y-7098000D01*
X33017043Y-6899275D01*
X33008978Y-6854099D01*
X32937054Y-6615648D01*
X32819993Y-6395811D01*
X32704599Y-6254750D01*
X32823993Y-6109267D01*
X32941968Y-5888552D01*
X33014617Y-5649061D01*
X33039147Y-5400000D01*
X33014617Y-5150939D01*
X32941968Y-4911448D01*
X32823993Y-4690733D01*
X32704599Y-4545250D01*
X32819993Y-4404189D01*
X32937054Y-4184352D01*
X33008978Y-3945901D01*
X33017043Y-3900725D01*
X32874748Y-3702000D01*
X31502000Y-3702000D01*
X31502000Y-3722000D01*
X31498000Y-3722000D01*
X31498000Y-3702000D01*
X30125252Y-3702000D01*
X29982957Y-3900725D01*
X29991022Y-3945901D01*
X30062946Y-4184352D01*
X30082815Y-4221664D01*
X29883754Y-4328064D01*
X29790996Y-4404189D01*
X29688393Y-4488393D01*
X29648220Y-4537344D01*
X27637349Y-6548216D01*
X27588393Y-6588393D01*
X27428064Y-6783756D01*
X27308928Y-7006643D01*
X27235565Y-7248489D01*
X27217000Y-7436981D01*
X27217000Y-7436990D01*
X27210794Y-7500000D01*
X17190120Y-7500000D01*
X17223000Y-7334705D01*
X17223000Y-6865295D01*
X17131422Y-6404905D01*
X16951787Y-5971226D01*
X16690997Y-5580926D01*
X16359074Y-5249003D01*
X15968774Y-4988213D01*
X15535095Y-4808578D01*
X15074705Y-4717000D01*
X14605295Y-4717000D01*
X14144905Y-4808578D01*
X13711226Y-4988213D01*
X13320926Y-5249003D01*
X12989003Y-5580926D01*
X12728213Y-5971226D01*
X12548578Y-6404905D01*
X12457000Y-6865295D01*
X6227683Y-6865295D01*
X6423455Y-6734485D01*
X6734485Y-6423455D01*
X6978859Y-6057722D01*
X7147188Y-5651342D01*
X7233000Y-5219931D01*
X7233000Y-4780069D01*
X7147188Y-4348658D01*
X6978859Y-3942278D01*
X6734485Y-3576545D01*
X6657215Y-3499275D01*
X29982957Y-3499275D01*
X30125252Y-3698000D01*
X31498000Y-3698000D01*
X31498000Y-2429500D01*
X31502000Y-2429500D01*
X31502000Y-3698000D01*
X32874748Y-3698000D01*
X33017043Y-3499275D01*
X33008978Y-3454099D01*
X32992661Y-3400000D01*
X39263938Y-3400000D01*
X39263938Y-6600000D01*
X39276160Y-6724090D01*
X39312355Y-6843410D01*
X39371134Y-6953377D01*
X39450236Y-7049764D01*
X39546623Y-7128866D01*
X39656590Y-7187645D01*
X39775910Y-7223840D01*
X39900000Y-7236062D01*
X43100000Y-7236062D01*
X43224090Y-7223840D01*
X43343410Y-7187645D01*
X43453377Y-7128866D01*
X43549764Y-7049764D01*
X43628866Y-6953377D01*
X43687645Y-6843410D01*
X43723840Y-6724090D01*
X43736062Y-6600000D01*
X43736062Y-5351293D01*
X51994806Y-5351293D01*
X52028232Y-5519339D01*
X52171280Y-5933051D01*
X52392290Y-6310906D01*
X52682770Y-6638384D01*
X53031556Y-6902900D01*
X53425245Y-7094288D01*
X53848707Y-7205194D01*
X54198000Y-7074749D01*
X54198000Y-5002000D01*
X54202000Y-5002000D01*
X54202000Y-7074749D01*
X54551293Y-7205194D01*
X54974755Y-7094288D01*
X55368444Y-6902900D01*
X55717230Y-6638384D01*
X56007710Y-6310906D01*
X56228720Y-5933051D01*
X56371768Y-5519339D01*
X56405194Y-5351293D01*
X56274749Y-5002000D01*
X54202000Y-5002000D01*
X54198000Y-5002000D01*
X52125251Y-5002000D01*
X51994806Y-5351293D01*
X43736062Y-5351293D01*
X43736062Y-4648707D01*
X51994806Y-4648707D01*
X52125251Y-4998000D01*
X54198000Y-4998000D01*
X54198000Y-2925251D01*
X54202000Y-2925251D01*
X54202000Y-4998000D01*
X56274749Y-4998000D01*
X56405194Y-4648707D01*
X56371768Y-4480661D01*
X56228720Y-4066949D01*
X56007710Y-3689094D01*
X55717230Y-3361616D01*
X55368444Y-3097100D01*
X54974755Y-2905712D01*
X54551293Y-2794806D01*
X54202000Y-2925251D01*
X54198000Y-2925251D01*
X53848707Y-2794806D01*
X53425245Y-2905712D01*
X53031556Y-3097100D01*
X52682770Y-3361616D01*
X52392290Y-3689094D01*
X52171280Y-4066949D01*
X52028232Y-4480661D01*
X51994806Y-4648707D01*
X43736062Y-4648707D01*
X43736062Y-3400000D01*
X43723840Y-3275910D01*
X43687645Y-3156590D01*
X43628866Y-3046623D01*
X43549764Y-2950236D01*
X43453377Y-2871134D01*
X43343410Y-2812355D01*
X43224090Y-2776160D01*
X43100000Y-2763938D01*
X39900000Y-2763938D01*
X39775910Y-2776160D01*
X39656590Y-2812355D01*
X39546623Y-2871134D01*
X39450236Y-2950236D01*
X39371134Y-3046623D01*
X39312355Y-3156590D01*
X39276160Y-3275910D01*
X39263938Y-3400000D01*
X32992661Y-3400000D01*
X32937054Y-3215648D01*
X32819993Y-2995811D01*
X32662293Y-2803035D01*
X32470015Y-2644729D01*
X32250547Y-2526976D01*
X32012324Y-2454302D01*
X31764500Y-2429500D01*
X31502000Y-2429500D01*
X31498000Y-2429500D01*
X31235500Y-2429500D01*
X30987676Y-2454302D01*
X30749453Y-2526976D01*
X30529985Y-2644729D01*
X30337707Y-2803035D01*
X30180007Y-2995811D01*
X30062946Y-3215648D01*
X29991022Y-3454099D01*
X29982957Y-3499275D01*
X6657215Y-3499275D01*
X6423455Y-3265515D01*
X6057722Y-3021141D01*
X5651342Y-2852812D01*
X5219931Y-2767000D01*
X4780069Y-2767000D01*
X4348658Y-2852812D01*
X3942278Y-3021141D01*
X3576545Y-3265515D01*
X3265515Y-3576545D01*
X3021141Y-3942278D01*
X2852812Y-4348658D01*
X2767000Y-4780069D01*
X658000Y-4780069D01*
X658000Y-658000D01*
X64342000Y-658000D01*
X64342001Y-57875000D01*
G04 #@! TA.AperFunction,Conductor*
D28*
G36*
X64342001Y-57875000D02*
G01*
X35000000Y-57875000D01*
X34975614Y-57877402D01*
X34952165Y-57884515D01*
X34930554Y-57896066D01*
X34911612Y-57911612D01*
X34896066Y-57930554D01*
X34884515Y-57952165D01*
X34877402Y-57975614D01*
X34875000Y-58000000D01*
X34875000Y-64342000D01*
X658000Y-64342000D01*
X658000Y-59374999D01*
X4763938Y-59374999D01*
X4763938Y-60625001D01*
X4780963Y-60797863D01*
X4831385Y-60964082D01*
X4913266Y-61117270D01*
X5023459Y-61251541D01*
X5157730Y-61361734D01*
X5310918Y-61443615D01*
X5477137Y-61494037D01*
X5649999Y-61511062D01*
X6350001Y-61511062D01*
X6522863Y-61494037D01*
X6689082Y-61443615D01*
X6842270Y-61361734D01*
X6976541Y-61251541D01*
X7086734Y-61117270D01*
X7093538Y-61104540D01*
X7129551Y-61148277D01*
X7316644Y-61301313D01*
X7529998Y-61414909D01*
X7761414Y-61484699D01*
X7805141Y-61492505D01*
X7998000Y-61349748D01*
X7998000Y-60002000D01*
X7978000Y-60002000D01*
X7978000Y-59998000D01*
X7998000Y-59998000D01*
X7998000Y-58650252D01*
X8002000Y-58650252D01*
X8002000Y-59998000D01*
X8022000Y-59998000D01*
X8022000Y-60002000D01*
X8002000Y-60002000D01*
X8002000Y-61349748D01*
X8194859Y-61492505D01*
X8238586Y-61484699D01*
X8470002Y-61414909D01*
X8683356Y-61301313D01*
X8870449Y-61148277D01*
X8996242Y-60995504D01*
X9123920Y-61151081D01*
X9311669Y-61305162D01*
X9525870Y-61419654D01*
X9758291Y-61490159D01*
X10000000Y-61513965D01*
X10241710Y-61490159D01*
X10474131Y-61419654D01*
X10688332Y-61305162D01*
X10876081Y-61151081D01*
X11000001Y-61000084D01*
X11123920Y-61151081D01*
X11311669Y-61305162D01*
X11525870Y-61419654D01*
X11758291Y-61490159D01*
X12000000Y-61513965D01*
X12241710Y-61490159D01*
X12474131Y-61419654D01*
X12688332Y-61305162D01*
X12876081Y-61151081D01*
X13000001Y-61000084D01*
X13123920Y-61151081D01*
X13311669Y-61305162D01*
X13525870Y-61419654D01*
X13758291Y-61490159D01*
X14000000Y-61513965D01*
X14241710Y-61490159D01*
X14474131Y-61419654D01*
X14688332Y-61305162D01*
X14876081Y-61151081D01*
X15030162Y-60963332D01*
X15144654Y-60749130D01*
X15215159Y-60516709D01*
X15233000Y-60335564D01*
X15233000Y-59664435D01*
X15215159Y-59483290D01*
X15182309Y-59374999D01*
X19763938Y-59374999D01*
X19763938Y-60625001D01*
X19780963Y-60797863D01*
X19831385Y-60964082D01*
X19913266Y-61117270D01*
X20023459Y-61251541D01*
X20157730Y-61361734D01*
X20310918Y-61443615D01*
X20477137Y-61494037D01*
X20649999Y-61511062D01*
X21350001Y-61511062D01*
X21522863Y-61494037D01*
X21689082Y-61443615D01*
X21842270Y-61361734D01*
X21976541Y-61251541D01*
X22086734Y-61117270D01*
X22093538Y-61104540D01*
X22129551Y-61148277D01*
X22316644Y-61301313D01*
X22529998Y-61414909D01*
X22761414Y-61484699D01*
X22805141Y-61492505D01*
X22998000Y-61349748D01*
X22998000Y-60002000D01*
X22978000Y-60002000D01*
X22978000Y-59998000D01*
X22998000Y-59998000D01*
X22998000Y-58650252D01*
X23002000Y-58650252D01*
X23002000Y-59998000D01*
X23022000Y-59998000D01*
X23022000Y-60002000D01*
X23002000Y-60002000D01*
X23002000Y-61349748D01*
X23194859Y-61492505D01*
X23238586Y-61484699D01*
X23470002Y-61414909D01*
X23683356Y-61301313D01*
X23870449Y-61148277D01*
X23996242Y-60995504D01*
X24123920Y-61151081D01*
X24311669Y-61305162D01*
X24525870Y-61419654D01*
X24758291Y-61490159D01*
X25000000Y-61513965D01*
X25241710Y-61490159D01*
X25474131Y-61419654D01*
X25688332Y-61305162D01*
X25876081Y-61151081D01*
X26000001Y-61000084D01*
X26123920Y-61151081D01*
X26311669Y-61305162D01*
X26525870Y-61419654D01*
X26758291Y-61490159D01*
X27000000Y-61513965D01*
X27241710Y-61490159D01*
X27474131Y-61419654D01*
X27688332Y-61305162D01*
X27876081Y-61151081D01*
X28000001Y-61000084D01*
X28123920Y-61151081D01*
X28311669Y-61305162D01*
X28525870Y-61419654D01*
X28758291Y-61490159D01*
X29000000Y-61513965D01*
X29241710Y-61490159D01*
X29474131Y-61419654D01*
X29688332Y-61305162D01*
X29876081Y-61151081D01*
X30030162Y-60963332D01*
X30144654Y-60749130D01*
X30215159Y-60516709D01*
X30233000Y-60335564D01*
X30233000Y-59664435D01*
X30215159Y-59483290D01*
X30144654Y-59250869D01*
X30030162Y-59036668D01*
X29876081Y-58848919D01*
X29688331Y-58694838D01*
X29474130Y-58580346D01*
X29241709Y-58509841D01*
X29000000Y-58486035D01*
X28758290Y-58509841D01*
X28525869Y-58580346D01*
X28311668Y-58694838D01*
X28123919Y-58848919D01*
X28000000Y-58999916D01*
X27876081Y-58848919D01*
X27688331Y-58694838D01*
X27474130Y-58580346D01*
X27241709Y-58509841D01*
X27000000Y-58486035D01*
X26758290Y-58509841D01*
X26525869Y-58580346D01*
X26311668Y-58694838D01*
X26123919Y-58848919D01*
X26000000Y-58999916D01*
X25876081Y-58848919D01*
X25688331Y-58694838D01*
X25474130Y-58580346D01*
X25241709Y-58509841D01*
X25000000Y-58486035D01*
X24758290Y-58509841D01*
X24525869Y-58580346D01*
X24311668Y-58694838D01*
X24123919Y-58848919D01*
X23996241Y-59004496D01*
X23870449Y-58851723D01*
X23683356Y-58698687D01*
X23470002Y-58585091D01*
X23238586Y-58515301D01*
X23194859Y-58507495D01*
X23002000Y-58650252D01*
X22998000Y-58650252D01*
X22805141Y-58507495D01*
X22761414Y-58515301D01*
X22529998Y-58585091D01*
X22316644Y-58698687D01*
X22129551Y-58851723D01*
X22093538Y-58895460D01*
X22086734Y-58882730D01*
X21976541Y-58748459D01*
X21842270Y-58638266D01*
X21689082Y-58556385D01*
X21522863Y-58505963D01*
X21350001Y-58488938D01*
X20649999Y-58488938D01*
X20477137Y-58505963D01*
X20310918Y-58556385D01*
X20157730Y-58638266D01*
X20023459Y-58748459D01*
X19913266Y-58882730D01*
X19831385Y-59035918D01*
X19780963Y-59202137D01*
X19763938Y-59374999D01*
X15182309Y-59374999D01*
X15144654Y-59250869D01*
X15030162Y-59036668D01*
X14876081Y-58848919D01*
X14688331Y-58694838D01*
X14474130Y-58580346D01*
X14241709Y-58509841D01*
X14000000Y-58486035D01*
X13758290Y-58509841D01*
X13525869Y-58580346D01*
X13311668Y-58694838D01*
X13123919Y-58848919D01*
X13000000Y-58999916D01*
X12876081Y-58848919D01*
X12688331Y-58694838D01*
X12474130Y-58580346D01*
X12241709Y-58509841D01*
X12000000Y-58486035D01*
X11758290Y-58509841D01*
X11525869Y-58580346D01*
X11311668Y-58694838D01*
X11123919Y-58848919D01*
X11000000Y-58999916D01*
X10876081Y-58848919D01*
X10688331Y-58694838D01*
X10474130Y-58580346D01*
X10241709Y-58509841D01*
X10000000Y-58486035D01*
X9758290Y-58509841D01*
X9525869Y-58580346D01*
X9311668Y-58694838D01*
X9123919Y-58848919D01*
X8996241Y-59004496D01*
X8870449Y-58851723D01*
X8683356Y-58698687D01*
X8470002Y-58585091D01*
X8238586Y-58515301D01*
X8194859Y-58507495D01*
X8002000Y-58650252D01*
X7998000Y-58650252D01*
X7805141Y-58507495D01*
X7761414Y-58515301D01*
X7529998Y-58585091D01*
X7316644Y-58698687D01*
X7129551Y-58851723D01*
X7093538Y-58895460D01*
X7086734Y-58882730D01*
X6976541Y-58748459D01*
X6842270Y-58638266D01*
X6689082Y-58556385D01*
X6522863Y-58505963D01*
X6350001Y-58488938D01*
X5649999Y-58488938D01*
X5477137Y-58505963D01*
X5310918Y-58556385D01*
X5157730Y-58638266D01*
X5023459Y-58748459D01*
X4913266Y-58882730D01*
X4831385Y-59035918D01*
X4780963Y-59202137D01*
X4763938Y-59374999D01*
X658000Y-59374999D01*
X658000Y-52500000D01*
X8486035Y-52500000D01*
X8509841Y-52741710D01*
X8580346Y-52974131D01*
X8694838Y-53188332D01*
X8848919Y-53376081D01*
X9036668Y-53530162D01*
X9250869Y-53644654D01*
X9483290Y-53715159D01*
X9664435Y-53733000D01*
X10335565Y-53733000D01*
X10516710Y-53715159D01*
X10749131Y-53644654D01*
X10963332Y-53530162D01*
X11151081Y-53376081D01*
X11305162Y-53188332D01*
X11419654Y-52974131D01*
X11490159Y-52741710D01*
X11513965Y-52500000D01*
X11490159Y-52258290D01*
X11419654Y-52025869D01*
X11305162Y-51811668D01*
X11177472Y-51656077D01*
X11228378Y-51628867D01*
X11324764Y-51549764D01*
X11403867Y-51453378D01*
X11462646Y-51343411D01*
X11498841Y-51224090D01*
X11511063Y-51100000D01*
X11508000Y-50660250D01*
X11349750Y-50502000D01*
X10002000Y-50502000D01*
X10002000Y-50522000D01*
X9998000Y-50522000D01*
X9998000Y-50502000D01*
X8650250Y-50502000D01*
X8492000Y-50660250D01*
X8488937Y-51100000D01*
X8501159Y-51224090D01*
X8537354Y-51343411D01*
X8596133Y-51453378D01*
X8675236Y-51549764D01*
X8771622Y-51628867D01*
X8822528Y-51656077D01*
X8694838Y-51811668D01*
X8580346Y-52025869D01*
X8509841Y-52258290D01*
X8486035Y-52500000D01*
X658000Y-52500000D01*
X658000Y-49900000D01*
X8488937Y-49900000D01*
X8492000Y-50339750D01*
X8650250Y-50498000D01*
X9998000Y-50498000D01*
X9998000Y-49425250D01*
X10002000Y-49425250D01*
X10002000Y-50498000D01*
X11349750Y-50498000D01*
X11508000Y-50339750D01*
X11511063Y-49900000D01*
X11498841Y-49775910D01*
X11462646Y-49656589D01*
X11403867Y-49546622D01*
X11324764Y-49450236D01*
X11228378Y-49371133D01*
X11118411Y-49312354D01*
X10999090Y-49276159D01*
X10875000Y-49263937D01*
X10160250Y-49267000D01*
X10002000Y-49425250D01*
X9998000Y-49425250D01*
X9839750Y-49267000D01*
X9125000Y-49263937D01*
X9000910Y-49276159D01*
X8881589Y-49312354D01*
X8771622Y-49371133D01*
X8675236Y-49450236D01*
X8596133Y-49546622D01*
X8537354Y-49656589D01*
X8501159Y-49775910D01*
X8488937Y-49900000D01*
X658000Y-49900000D01*
X658000Y-45000000D01*
X8486035Y-45000000D01*
X8509841Y-45241710D01*
X8580346Y-45474131D01*
X8694838Y-45688332D01*
X8848919Y-45876081D01*
X9036668Y-46030162D01*
X9250869Y-46144654D01*
X9483290Y-46215159D01*
X9635449Y-46230145D01*
X9748488Y-46264435D01*
X9936980Y-46283000D01*
X11936990Y-46283000D01*
X12000000Y-46289206D01*
X12063010Y-46283000D01*
X12063020Y-46283000D01*
X12251512Y-46264435D01*
X12493358Y-46191072D01*
X12716245Y-46071936D01*
X12911607Y-45911607D01*
X12951784Y-45862651D01*
X16362657Y-42451779D01*
X16411607Y-42411607D01*
X16494240Y-42310918D01*
X16571936Y-42216246D01*
X16607345Y-42150000D01*
X21513937Y-42150000D01*
X21517000Y-42839750D01*
X21675250Y-42998000D01*
X22998000Y-42998000D01*
X22998000Y-41675250D01*
X23002000Y-41675250D01*
X23002000Y-42998000D01*
X24324750Y-42998000D01*
X24483000Y-42839750D01*
X24486063Y-42150000D01*
X24473841Y-42025910D01*
X24437646Y-41906589D01*
X24378867Y-41796622D01*
X24299764Y-41700236D01*
X24203378Y-41621133D01*
X24093411Y-41562354D01*
X23974090Y-41526159D01*
X23850000Y-41513937D01*
X23160250Y-41517000D01*
X23002000Y-41675250D01*
X22998000Y-41675250D01*
X22839750Y-41517000D01*
X22150000Y-41513937D01*
X22025910Y-41526159D01*
X21906589Y-41562354D01*
X21796622Y-41621133D01*
X21700236Y-41700236D01*
X21621133Y-41796622D01*
X21562354Y-41906589D01*
X21526159Y-42025910D01*
X21513937Y-42150000D01*
X16607345Y-42150000D01*
X16636227Y-42095966D01*
X16691072Y-41993358D01*
X16764435Y-41751512D01*
X16783000Y-41563020D01*
X16783000Y-41563011D01*
X16789206Y-41500001D01*
X16783000Y-41436991D01*
X16783000Y-34531435D01*
X17854435Y-33460000D01*
X21359329Y-33460000D01*
X21389941Y-33770812D01*
X21480602Y-34069680D01*
X21627827Y-34345118D01*
X21732539Y-34472711D01*
X21646623Y-34518634D01*
X21550236Y-34597736D01*
X21471134Y-34694123D01*
X21412355Y-34804090D01*
X21376160Y-34923410D01*
X21363938Y-35047500D01*
X21363938Y-36952500D01*
X21376160Y-37076590D01*
X21412355Y-37195910D01*
X21471134Y-37305877D01*
X21550236Y-37402264D01*
X21646623Y-37481366D01*
X21756590Y-37540145D01*
X21875910Y-37576340D01*
X22000000Y-37588562D01*
X22167001Y-37588562D01*
X22167001Y-38959075D01*
X22162970Y-39000000D01*
X22179054Y-39163296D01*
X22226685Y-39320317D01*
X22226686Y-39320318D01*
X22304036Y-39465029D01*
X22408131Y-39591870D01*
X22439916Y-39617956D01*
X31488960Y-48667000D01*
X27112678Y-48667000D01*
X26989309Y-48584567D01*
X26801315Y-48506698D01*
X26601742Y-48467000D01*
X26398258Y-48467000D01*
X26198685Y-48506698D01*
X26010691Y-48584567D01*
X25841501Y-48697617D01*
X25697617Y-48841501D01*
X25584567Y-49010691D01*
X25506698Y-49198685D01*
X25471861Y-49373821D01*
X24456637Y-48358598D01*
X24483000Y-48226063D01*
X24483000Y-47933937D01*
X24426010Y-47647425D01*
X24314218Y-47377536D01*
X24151922Y-47134642D01*
X23945358Y-46928078D01*
X23768641Y-46810000D01*
X23945358Y-46691922D01*
X24151922Y-46485358D01*
X24314218Y-46242464D01*
X24426010Y-45972575D01*
X24483000Y-45686063D01*
X24483000Y-45393937D01*
X24426010Y-45107425D01*
X24314218Y-44837536D01*
X24151922Y-44594642D01*
X24017848Y-44460568D01*
X24093411Y-44437646D01*
X24203378Y-44378867D01*
X24299764Y-44299764D01*
X24378867Y-44203378D01*
X24437646Y-44093411D01*
X24473841Y-43974090D01*
X24486063Y-43850000D01*
X24483000Y-43160250D01*
X24324750Y-43002000D01*
X23002000Y-43002000D01*
X23002000Y-43022000D01*
X22998000Y-43022000D01*
X22998000Y-43002000D01*
X21675250Y-43002000D01*
X21517000Y-43160250D01*
X21513937Y-43850000D01*
X21526159Y-43974090D01*
X21562354Y-44093411D01*
X21621133Y-44203378D01*
X21700236Y-44299764D01*
X21796622Y-44378867D01*
X21906589Y-44437646D01*
X21982152Y-44460568D01*
X21848078Y-44594642D01*
X21685782Y-44837536D01*
X21573990Y-45107425D01*
X21517000Y-45393937D01*
X21517000Y-45686063D01*
X21573990Y-45972575D01*
X21685782Y-46242464D01*
X21848078Y-46485358D01*
X22054642Y-46691922D01*
X22231359Y-46810000D01*
X22054642Y-46928078D01*
X21848078Y-47134642D01*
X21685782Y-47377536D01*
X21573990Y-47647425D01*
X21517000Y-47933937D01*
X21517000Y-48226063D01*
X21573990Y-48512575D01*
X21685782Y-48782464D01*
X21848078Y-49025358D01*
X22054642Y-49231922D01*
X22297536Y-49394218D01*
X22567425Y-49506010D01*
X22853937Y-49563000D01*
X23146063Y-49563000D01*
X23278598Y-49536637D01*
X25302044Y-51560084D01*
X25328130Y-51591870D01*
X25393768Y-51645737D01*
X25454970Y-51695965D01*
X25507123Y-51723841D01*
X25599682Y-51773315D01*
X25678193Y-51797131D01*
X25756703Y-51820947D01*
X25920000Y-51837030D01*
X25960918Y-51833000D01*
X27206118Y-51833000D01*
X27197617Y-51841501D01*
X27084567Y-52010691D01*
X27006698Y-52198685D01*
X26967000Y-52398258D01*
X26967000Y-52601742D01*
X27006698Y-52801315D01*
X27084567Y-52989309D01*
X27197617Y-53158499D01*
X27341501Y-53302383D01*
X27510691Y-53415433D01*
X27698685Y-53493302D01*
X27844210Y-53522249D01*
X29882044Y-55560084D01*
X29908130Y-55591870D01*
X30034971Y-55695965D01*
X30179682Y-55773315D01*
X30336704Y-55820947D01*
X30459082Y-55833000D01*
X30459084Y-55833000D01*
X30500000Y-55837030D01*
X30540915Y-55833000D01*
X33387322Y-55833000D01*
X33510691Y-55915433D01*
X33698685Y-55993302D01*
X33898258Y-56033000D01*
X34101742Y-56033000D01*
X34301315Y-55993302D01*
X34489309Y-55915433D01*
X34658499Y-55802383D01*
X34802383Y-55658499D01*
X34915433Y-55489309D01*
X34993302Y-55301315D01*
X35033000Y-55101742D01*
X35033000Y-54898258D01*
X34993302Y-54698685D01*
X34915433Y-54510691D01*
X34802383Y-54341501D01*
X34658499Y-54197617D01*
X34489309Y-54084567D01*
X34301315Y-54006698D01*
X34101742Y-53967000D01*
X33898258Y-53967000D01*
X33698685Y-54006698D01*
X33510691Y-54084567D01*
X33387322Y-54167000D01*
X30845040Y-54167000D01*
X29022249Y-52344210D01*
X28993302Y-52198685D01*
X28915433Y-52010691D01*
X28802383Y-51841501D01*
X28793882Y-51833000D01*
X60387322Y-51833000D01*
X60510691Y-51915433D01*
X60698685Y-51993302D01*
X60898258Y-52033000D01*
X61067002Y-52033000D01*
X61067002Y-55061242D01*
X61010691Y-55084567D01*
X60841501Y-55197617D01*
X60697617Y-55341501D01*
X60584567Y-55510691D01*
X60506698Y-55698685D01*
X60467000Y-55898258D01*
X60467000Y-56101742D01*
X60506698Y-56301315D01*
X60584567Y-56489309D01*
X60697617Y-56658499D01*
X60841501Y-56802383D01*
X61010691Y-56915433D01*
X61198685Y-56993302D01*
X61398258Y-57033000D01*
X61601742Y-57033000D01*
X61801315Y-56993302D01*
X61989309Y-56915433D01*
X62158499Y-56802383D01*
X62302383Y-56658499D01*
X62415433Y-56489309D01*
X62493302Y-56301315D01*
X62522495Y-56154553D01*
X62595966Y-56065028D01*
X62673316Y-55920317D01*
X62720948Y-55763295D01*
X62733001Y-55640917D01*
X62733001Y-55640915D01*
X62737031Y-55599999D01*
X62733001Y-55559084D01*
X62733001Y-41440916D01*
X62737031Y-41400001D01*
X62733001Y-41359083D01*
X62720948Y-41236705D01*
X62673316Y-41079683D01*
X62595966Y-40934972D01*
X62491871Y-40808131D01*
X62460081Y-40782042D01*
X62117958Y-40439919D01*
X62117953Y-40439913D01*
X59022249Y-37344210D01*
X58993302Y-37198685D01*
X58915433Y-37010691D01*
X58802383Y-36841501D01*
X58658499Y-36697617D01*
X58489309Y-36584567D01*
X58301315Y-36506698D01*
X58101742Y-36467000D01*
X57898258Y-36467000D01*
X57698685Y-36506698D01*
X57510691Y-36584567D01*
X57387322Y-36667000D01*
X42345040Y-36667000D01*
X40022249Y-34344210D01*
X39993302Y-34198685D01*
X39915433Y-34010691D01*
X39802383Y-33841501D01*
X39658499Y-33697617D01*
X39489309Y-33584567D01*
X39301315Y-33506698D01*
X39101742Y-33467000D01*
X38898258Y-33467000D01*
X38698685Y-33506698D01*
X38510691Y-33584567D01*
X38341501Y-33697617D01*
X38197617Y-33841501D01*
X38084567Y-34010691D01*
X38006698Y-34198685D01*
X37967000Y-34398258D01*
X37967000Y-34601742D01*
X38006698Y-34801315D01*
X38084567Y-34989309D01*
X38197617Y-35158499D01*
X38341501Y-35302383D01*
X38510691Y-35415433D01*
X38698685Y-35493302D01*
X38844210Y-35522249D01*
X41382044Y-38060084D01*
X41408130Y-38091870D01*
X41473768Y-38145737D01*
X41534970Y-38195965D01*
X41679682Y-38273315D01*
X41836704Y-38320947D01*
X41959082Y-38333000D01*
X41959084Y-38333000D01*
X42000000Y-38337030D01*
X42040915Y-38333000D01*
X57387322Y-38333000D01*
X57510691Y-38415433D01*
X57698685Y-38493302D01*
X57844210Y-38522249D01*
X60939913Y-41617953D01*
X60939919Y-41617958D01*
X61067001Y-41745040D01*
X61067002Y-49967000D01*
X60898258Y-49967000D01*
X60698685Y-50006698D01*
X60510691Y-50084567D01*
X60387322Y-50167000D01*
X38793882Y-50167000D01*
X38802383Y-50158499D01*
X38915433Y-49989309D01*
X38993302Y-49801315D01*
X39033000Y-49601742D01*
X39033000Y-49398258D01*
X38993302Y-49198685D01*
X38915433Y-49010691D01*
X38802383Y-48841501D01*
X38658499Y-48697617D01*
X38489309Y-48584567D01*
X38301315Y-48506698D01*
X38155791Y-48477751D01*
X37367960Y-47689921D01*
X37341870Y-47658130D01*
X37215029Y-47554035D01*
X37070318Y-47476685D01*
X36913296Y-47429053D01*
X36790918Y-47417000D01*
X36790915Y-47417000D01*
X36750000Y-47412970D01*
X36709085Y-47417000D01*
X32595040Y-47417000D01*
X27958109Y-42780069D01*
X31767000Y-42780069D01*
X31767000Y-43219931D01*
X31852812Y-43651342D01*
X32021141Y-44057722D01*
X32265515Y-44423455D01*
X32576545Y-44734485D01*
X32942278Y-44978859D01*
X33348658Y-45147188D01*
X33780069Y-45233000D01*
X34219931Y-45233000D01*
X34651342Y-45147188D01*
X35057722Y-44978859D01*
X35423455Y-44734485D01*
X35734485Y-44423455D01*
X35978859Y-44057722D01*
X36147188Y-43651342D01*
X36233000Y-43219931D01*
X36233000Y-42780069D01*
X36147188Y-42348658D01*
X35978859Y-41942278D01*
X35734485Y-41576545D01*
X35423455Y-41265515D01*
X35057722Y-41021141D01*
X34651342Y-40852812D01*
X34219931Y-40767000D01*
X33780069Y-40767000D01*
X33348658Y-40852812D01*
X32942278Y-41021141D01*
X32576545Y-41265515D01*
X32265515Y-41576545D01*
X32021141Y-41942278D01*
X31852812Y-42348658D01*
X31767000Y-42780069D01*
X27958109Y-42780069D01*
X23833000Y-38654961D01*
X23833000Y-37588562D01*
X24000000Y-37588562D01*
X24124090Y-37576340D01*
X24243410Y-37540145D01*
X24353377Y-37481366D01*
X24449764Y-37402264D01*
X24528866Y-37305877D01*
X24587645Y-37195910D01*
X24623840Y-37076590D01*
X24636062Y-36952500D01*
X24636062Y-35047500D01*
X24623840Y-34923410D01*
X24587645Y-34804090D01*
X24528866Y-34694123D01*
X24449764Y-34597736D01*
X24353377Y-34518634D01*
X24267461Y-34472711D01*
X24372173Y-34345118D01*
X24519398Y-34069680D01*
X24610059Y-33770812D01*
X24640671Y-33460000D01*
X24610059Y-33149188D01*
X24519398Y-32850320D01*
X24372173Y-32574882D01*
X24174042Y-32333458D01*
X23993294Y-32185122D01*
X24170031Y-32039704D01*
X24366905Y-31799194D01*
X24513075Y-31524897D01*
X24602924Y-31227355D01*
X24613166Y-31170002D01*
X24474749Y-30922000D01*
X23002000Y-30922000D01*
X23002000Y-30942000D01*
X22998000Y-30942000D01*
X22998000Y-30922000D01*
X21525251Y-30922000D01*
X21386834Y-31170002D01*
X21397076Y-31227355D01*
X21486925Y-31524897D01*
X21633095Y-31799194D01*
X21829969Y-32039704D01*
X22006706Y-32185122D01*
X21825958Y-32333458D01*
X21627827Y-32574882D01*
X21480602Y-32850320D01*
X21389941Y-33149188D01*
X21359329Y-33460000D01*
X17854435Y-33460000D01*
X20644437Y-30669998D01*
X21386834Y-30669998D01*
X21525251Y-30918000D01*
X22998000Y-30918000D01*
X22998000Y-29334500D01*
X23002000Y-29334500D01*
X23002000Y-30918000D01*
X24474749Y-30918000D01*
X24613166Y-30669998D01*
X24602924Y-30612645D01*
X24513075Y-30315103D01*
X24366905Y-30040806D01*
X24170031Y-29800296D01*
X23930019Y-29602816D01*
X23656092Y-29455954D01*
X23358777Y-29365355D01*
X23049500Y-29334500D01*
X23002000Y-29334500D01*
X22998000Y-29334500D01*
X22950500Y-29334500D01*
X22641223Y-29365355D01*
X22343908Y-29455954D01*
X22069981Y-29602816D01*
X21829969Y-29800296D01*
X21633095Y-30040806D01*
X21486925Y-30315103D01*
X21397076Y-30612645D01*
X21386834Y-30669998D01*
X20644437Y-30669998D01*
X22031436Y-29283000D01*
X25626364Y-29283000D01*
X25688492Y-29270642D01*
X25751512Y-29264435D01*
X25812110Y-29246053D01*
X25874237Y-29233695D01*
X25932759Y-29209455D01*
X25993358Y-29191072D01*
X26049206Y-29161221D01*
X26107728Y-29136980D01*
X26160399Y-29101787D01*
X26216245Y-29071936D01*
X26265195Y-29031764D01*
X26317865Y-28996571D01*
X26362656Y-28951780D01*
X26411607Y-28911607D01*
X26451780Y-28862656D01*
X26496571Y-28817865D01*
X26521825Y-28780069D01*
X57767000Y-28780069D01*
X57767000Y-29219931D01*
X57852812Y-29651342D01*
X58021141Y-30057722D01*
X58265515Y-30423455D01*
X58576545Y-30734485D01*
X58942278Y-30978859D01*
X59348658Y-31147188D01*
X59780069Y-31233000D01*
X60219931Y-31233000D01*
X60651342Y-31147188D01*
X61057722Y-30978859D01*
X61423455Y-30734485D01*
X61734485Y-30423455D01*
X61978859Y-30057722D01*
X62147188Y-29651342D01*
X62233000Y-29219931D01*
X62233000Y-28780069D01*
X62147188Y-28348658D01*
X61978859Y-27942278D01*
X61734485Y-27576545D01*
X61423455Y-27265515D01*
X61057722Y-27021141D01*
X60651342Y-26852812D01*
X60219931Y-26767000D01*
X59780069Y-26767000D01*
X59348658Y-26852812D01*
X58942278Y-27021141D01*
X58576545Y-27265515D01*
X58265515Y-27576545D01*
X58021141Y-27942278D01*
X57852812Y-28348658D01*
X57767000Y-28780069D01*
X26521825Y-28780069D01*
X26531764Y-28765195D01*
X26571936Y-28716245D01*
X26601787Y-28660399D01*
X26636980Y-28607728D01*
X26661221Y-28549206D01*
X26691072Y-28493358D01*
X26709455Y-28432759D01*
X26733695Y-28374237D01*
X26746053Y-28312110D01*
X26764435Y-28251512D01*
X26770642Y-28188492D01*
X26783000Y-28126364D01*
X26783000Y-28063020D01*
X26789207Y-28000000D01*
X26783000Y-27936980D01*
X26783000Y-27873636D01*
X26770642Y-27811508D01*
X26764435Y-27748488D01*
X26746053Y-27687890D01*
X26733695Y-27625763D01*
X26709455Y-27567241D01*
X26691072Y-27506642D01*
X26661221Y-27450794D01*
X26636980Y-27392272D01*
X26601787Y-27339601D01*
X26571936Y-27283755D01*
X26531764Y-27234805D01*
X26496571Y-27182135D01*
X26451780Y-27137344D01*
X26411607Y-27088393D01*
X26362656Y-27048220D01*
X26317865Y-27003429D01*
X26265195Y-26968236D01*
X26216245Y-26928064D01*
X26160399Y-26898213D01*
X26107728Y-26863020D01*
X26049206Y-26838779D01*
X25993358Y-26808928D01*
X25932759Y-26790545D01*
X25874237Y-26766305D01*
X25812110Y-26753947D01*
X25751512Y-26735565D01*
X25688492Y-26729358D01*
X25626364Y-26717000D01*
X21563009Y-26717000D01*
X21499999Y-26710794D01*
X21436989Y-26717000D01*
X21436980Y-26717000D01*
X21248488Y-26735565D01*
X21006642Y-26808928D01*
X20783755Y-26928064D01*
X20588393Y-27088393D01*
X20548220Y-27137344D01*
X14637345Y-33048220D01*
X14588394Y-33088393D01*
X14428065Y-33283755D01*
X14308929Y-33506642D01*
X14235566Y-33748488D01*
X14219842Y-33908131D01*
X14210794Y-34000000D01*
X14217001Y-34063020D01*
X14217000Y-40968564D01*
X11468565Y-43717000D01*
X11428692Y-43717000D01*
X11443615Y-43689082D01*
X11494037Y-43522863D01*
X11511062Y-43350001D01*
X11511062Y-42649999D01*
X11494037Y-42477137D01*
X11443615Y-42310918D01*
X11361734Y-42157730D01*
X11251541Y-42023459D01*
X11117270Y-41913266D01*
X10964082Y-41831385D01*
X10797863Y-41780963D01*
X10625001Y-41763938D01*
X9374999Y-41763938D01*
X9202137Y-41780963D01*
X9035918Y-41831385D01*
X8882730Y-41913266D01*
X8748459Y-42023459D01*
X8638266Y-42157730D01*
X8556385Y-42310918D01*
X8505963Y-42477137D01*
X8488938Y-42649999D01*
X8488938Y-43350001D01*
X8505963Y-43522863D01*
X8556385Y-43689082D01*
X8638266Y-43842270D01*
X8748459Y-43976541D01*
X8882730Y-44086734D01*
X8889694Y-44090456D01*
X8848919Y-44123919D01*
X8694838Y-44311668D01*
X8580346Y-44525869D01*
X8509841Y-44758290D01*
X8486035Y-45000000D01*
X658000Y-45000000D01*
X658000Y-33225295D01*
X3957000Y-33225295D01*
X3957000Y-33694705D01*
X4048578Y-34155095D01*
X4228213Y-34588774D01*
X4489003Y-34979074D01*
X4820926Y-35310997D01*
X5211226Y-35571787D01*
X5644905Y-35751422D01*
X6105295Y-35843000D01*
X6574705Y-35843000D01*
X7035095Y-35751422D01*
X7468774Y-35571787D01*
X7859074Y-35310997D01*
X8190997Y-34979074D01*
X8451787Y-34588774D01*
X8631422Y-34155095D01*
X8723000Y-33694705D01*
X8723000Y-33225295D01*
X8631422Y-32764905D01*
X8451787Y-32331226D01*
X8190997Y-31940926D01*
X7859074Y-31609003D01*
X7468774Y-31348213D01*
X7035095Y-31168578D01*
X6574705Y-31077000D01*
X6105295Y-31077000D01*
X5644905Y-31168578D01*
X5211226Y-31348213D01*
X4820926Y-31609003D01*
X4489003Y-31940926D01*
X4228213Y-32331226D01*
X4048578Y-32764905D01*
X3957000Y-33225295D01*
X658000Y-33225295D01*
X658000Y-22200370D01*
X46567000Y-22200370D01*
X46567000Y-22679630D01*
X46660499Y-23149680D01*
X46843904Y-23592458D01*
X47110166Y-23990947D01*
X47449053Y-24329834D01*
X47847542Y-24596096D01*
X48290320Y-24779501D01*
X48760370Y-24873000D01*
X49239630Y-24873000D01*
X49709680Y-24779501D01*
X50152458Y-24596096D01*
X50550947Y-24329834D01*
X50889834Y-23990947D01*
X51156096Y-23592458D01*
X51339501Y-23149680D01*
X51433000Y-22679630D01*
X51433000Y-22200370D01*
X51339501Y-21730320D01*
X51156096Y-21287542D01*
X50889834Y-20889053D01*
X50550947Y-20550166D01*
X50152458Y-20283904D01*
X49709680Y-20100499D01*
X49239630Y-20007000D01*
X48760370Y-20007000D01*
X48290320Y-20100499D01*
X47847542Y-20283904D01*
X47449053Y-20550166D01*
X47110166Y-20889053D01*
X46843904Y-21287542D01*
X46660499Y-21730320D01*
X46567000Y-22200370D01*
X658000Y-22200370D01*
X658000Y-20400000D01*
X3463937Y-20400000D01*
X3476159Y-20524090D01*
X3512354Y-20643411D01*
X3571133Y-20753378D01*
X3650236Y-20849764D01*
X3746622Y-20928867D01*
X3856589Y-20987646D01*
X3975910Y-21023841D01*
X4100000Y-21036063D01*
X5839750Y-21033000D01*
X5998000Y-20874750D01*
X5998000Y-18502000D01*
X6002000Y-18502000D01*
X6002000Y-20874750D01*
X6160250Y-21033000D01*
X7900000Y-21036063D01*
X8024090Y-21023841D01*
X8143411Y-20987646D01*
X8253378Y-20928867D01*
X8349764Y-20849764D01*
X8428867Y-20753378D01*
X8487646Y-20643411D01*
X8523841Y-20524090D01*
X8536063Y-20400000D01*
X8533000Y-18660250D01*
X8374750Y-18502000D01*
X6002000Y-18502000D01*
X5998000Y-18502000D01*
X3625250Y-18502000D01*
X3467000Y-18660250D01*
X3463937Y-20400000D01*
X658000Y-20400000D01*
X658000Y-13240672D01*
X3367000Y-13240672D01*
X3367000Y-13759328D01*
X3468185Y-14268018D01*
X3666666Y-14747193D01*
X3954815Y-15178440D01*
X4321560Y-15545185D01*
X4752807Y-15833334D01*
X5072243Y-15965649D01*
X4100000Y-15963937D01*
X3975910Y-15976159D01*
X3856589Y-16012354D01*
X3746622Y-16071133D01*
X3650236Y-16150236D01*
X3571133Y-16246622D01*
X3512354Y-16356589D01*
X3476159Y-16475910D01*
X3463937Y-16600000D01*
X3467000Y-18339750D01*
X3625250Y-18498000D01*
X5998000Y-18498000D01*
X5998000Y-18478000D01*
X6002000Y-18478000D01*
X6002000Y-18498000D01*
X8374750Y-18498000D01*
X8533000Y-18339750D01*
X8536063Y-16600000D01*
X8523841Y-16475910D01*
X8487646Y-16356589D01*
X8428867Y-16246622D01*
X8349764Y-16150236D01*
X8253378Y-16071133D01*
X8143411Y-16012354D01*
X8024090Y-15976159D01*
X7900000Y-15963937D01*
X6927757Y-15965649D01*
X7247193Y-15833334D01*
X7678440Y-15545185D01*
X8045185Y-15178440D01*
X8333334Y-14747193D01*
X8531815Y-14268018D01*
X8633000Y-13759328D01*
X8633000Y-13240672D01*
X8531815Y-12731982D01*
X8333334Y-12252807D01*
X8045185Y-11821560D01*
X7678440Y-11454815D01*
X7247193Y-11166666D01*
X6768018Y-10968185D01*
X6259328Y-10867000D01*
X5740672Y-10867000D01*
X5231982Y-10968185D01*
X4752807Y-11166666D01*
X4321560Y-11454815D01*
X3954815Y-11821560D01*
X3666666Y-12252807D01*
X3468185Y-12731982D01*
X3367000Y-13240672D01*
X658000Y-13240672D01*
X658000Y-4780069D01*
X2767000Y-4780069D01*
X2767000Y-5219931D01*
X2852812Y-5651342D01*
X3021141Y-6057722D01*
X3265515Y-6423455D01*
X3576545Y-6734485D01*
X3942278Y-6978859D01*
X4348658Y-7147188D01*
X4780069Y-7233000D01*
X5219931Y-7233000D01*
X5651342Y-7147188D01*
X6057722Y-6978859D01*
X6227683Y-6865295D01*
X12457000Y-6865295D01*
X12457000Y-7334705D01*
X12548578Y-7795095D01*
X12728213Y-8228774D01*
X12989003Y-8619074D01*
X13320926Y-8950997D01*
X13711226Y-9211787D01*
X14144905Y-9391422D01*
X14605295Y-9483000D01*
X15074705Y-9483000D01*
X15535095Y-9391422D01*
X15968774Y-9211787D01*
X16359074Y-8950997D01*
X16690997Y-8619074D01*
X16951787Y-8228774D01*
X17131422Y-7795095D01*
X17190120Y-7500000D01*
X27210794Y-7500000D01*
X27217000Y-7563010D01*
X27217001Y-13373631D01*
X27217000Y-13373636D01*
X27217000Y-13626364D01*
X27229360Y-13688502D01*
X27235566Y-13751512D01*
X27253945Y-13812101D01*
X27266305Y-13874237D01*
X27290549Y-13932768D01*
X27308929Y-13993358D01*
X27338776Y-14049197D01*
X27363020Y-14107728D01*
X27398218Y-14160406D01*
X27428065Y-14216245D01*
X27468231Y-14265188D01*
X27503429Y-14317865D01*
X27548226Y-14362662D01*
X27588394Y-14411607D01*
X27637339Y-14451775D01*
X27682135Y-14496571D01*
X27734811Y-14531768D01*
X27783756Y-14571936D01*
X27839597Y-14601784D01*
X27892272Y-14636980D01*
X27950799Y-14661223D01*
X28006643Y-14691072D01*
X28067239Y-14709453D01*
X28125763Y-14733695D01*
X28187893Y-14746053D01*
X28248489Y-14764435D01*
X28311507Y-14770642D01*
X28373636Y-14783000D01*
X28436980Y-14783000D01*
X28500000Y-14789207D01*
X28563020Y-14783000D01*
X28626364Y-14783000D01*
X28688492Y-14770642D01*
X28751512Y-14764435D01*
X28812110Y-14746053D01*
X28874237Y-14733695D01*
X28932759Y-14709455D01*
X28993358Y-14691072D01*
X29049206Y-14661221D01*
X29107728Y-14636980D01*
X29160399Y-14601787D01*
X29216245Y-14571936D01*
X29265195Y-14531764D01*
X29317865Y-14496571D01*
X29362656Y-14451780D01*
X29411607Y-14411607D01*
X29451780Y-14362656D01*
X29496571Y-14317865D01*
X29531764Y-14265195D01*
X29571936Y-14216245D01*
X29601787Y-14160399D01*
X29636980Y-14107728D01*
X29661221Y-14049206D01*
X29691072Y-13993358D01*
X29709455Y-13932759D01*
X29733695Y-13874237D01*
X29746053Y-13812110D01*
X29764435Y-13751512D01*
X29770642Y-13688492D01*
X29783000Y-13626364D01*
X29783000Y-8031435D01*
X30121021Y-7693415D01*
X30180007Y-7804189D01*
X30295401Y-7945250D01*
X30176007Y-8090733D01*
X30058032Y-8311448D01*
X29985383Y-8550939D01*
X29960853Y-8800000D01*
X29985383Y-9049061D01*
X30058032Y-9288552D01*
X30134596Y-9431793D01*
X30071134Y-9509123D01*
X30012355Y-9619090D01*
X29976160Y-9738410D01*
X29963938Y-9862500D01*
X29963938Y-11137500D01*
X29976160Y-11261590D01*
X30012355Y-11380910D01*
X30071134Y-11490877D01*
X30150236Y-11587264D01*
X30246623Y-11666366D01*
X30356590Y-11725145D01*
X30475910Y-11761340D01*
X30600000Y-11773562D01*
X32400000Y-11773562D01*
X32524090Y-11761340D01*
X32643410Y-11725145D01*
X32753377Y-11666366D01*
X32849764Y-11587264D01*
X32928866Y-11490877D01*
X32987645Y-11380910D01*
X33023840Y-11261590D01*
X33036062Y-11137500D01*
X33036062Y-10760370D01*
X46567000Y-10760370D01*
X46567000Y-11239630D01*
X46660499Y-11709680D01*
X46843904Y-12152458D01*
X47110166Y-12550947D01*
X47449053Y-12889834D01*
X47847542Y-13156096D01*
X48290320Y-13339501D01*
X48760370Y-13433000D01*
X49239630Y-13433000D01*
X49709680Y-13339501D01*
X50152458Y-13156096D01*
X50550947Y-12889834D01*
X50889834Y-12550947D01*
X51156096Y-12152458D01*
X51339501Y-11709680D01*
X51433000Y-11239630D01*
X51433000Y-10760370D01*
X51339501Y-10290320D01*
X51156096Y-9847542D01*
X50889834Y-9449053D01*
X50550947Y-9110166D01*
X50152458Y-8843904D01*
X49709680Y-8660499D01*
X49239630Y-8567000D01*
X48760370Y-8567000D01*
X48290320Y-8660499D01*
X47847542Y-8843904D01*
X47449053Y-9110166D01*
X47110166Y-9449053D01*
X46843904Y-9847542D01*
X46660499Y-10290320D01*
X46567000Y-10760370D01*
X33036062Y-10760370D01*
X33036062Y-9862500D01*
X33023840Y-9738410D01*
X32987645Y-9619090D01*
X32928866Y-9509123D01*
X32865404Y-9431793D01*
X32941968Y-9288552D01*
X33014617Y-9049061D01*
X33039147Y-8800000D01*
X33014617Y-8550939D01*
X32941968Y-8311448D01*
X32823993Y-8090733D01*
X32704599Y-7945250D01*
X32819993Y-7804189D01*
X32937054Y-7584352D01*
X33008978Y-7345901D01*
X33017043Y-7300725D01*
X32874748Y-7102000D01*
X31502000Y-7102000D01*
X31502000Y-7122000D01*
X31498000Y-7122000D01*
X31498000Y-7102000D01*
X31478000Y-7102000D01*
X31478000Y-7098000D01*
X31498000Y-7098000D01*
X31498000Y-7078000D01*
X31502000Y-7078000D01*
X31502000Y-7098000D01*
X32874748Y-7098000D01*
X33017043Y-6899275D01*
X33008978Y-6854099D01*
X32937054Y-6615648D01*
X32819993Y-6395811D01*
X32704599Y-6254750D01*
X32823993Y-6109267D01*
X32941968Y-5888552D01*
X33014617Y-5649061D01*
X33039147Y-5400000D01*
X33014617Y-5150939D01*
X32941968Y-4911448D01*
X32823993Y-4690733D01*
X32704599Y-4545250D01*
X32819993Y-4404189D01*
X32937054Y-4184352D01*
X33008978Y-3945901D01*
X33017043Y-3900725D01*
X32874748Y-3702000D01*
X31502000Y-3702000D01*
X31502000Y-3722000D01*
X31498000Y-3722000D01*
X31498000Y-3702000D01*
X30125252Y-3702000D01*
X29982957Y-3900725D01*
X29991022Y-3945901D01*
X30062946Y-4184352D01*
X30082815Y-4221664D01*
X29883754Y-4328064D01*
X29790996Y-4404189D01*
X29688393Y-4488393D01*
X29648220Y-4537344D01*
X27637349Y-6548216D01*
X27588393Y-6588393D01*
X27428064Y-6783756D01*
X27308928Y-7006643D01*
X27235565Y-7248489D01*
X27217000Y-7436981D01*
X27217000Y-7436990D01*
X27210794Y-7500000D01*
X17190120Y-7500000D01*
X17223000Y-7334705D01*
X17223000Y-6865295D01*
X17131422Y-6404905D01*
X16951787Y-5971226D01*
X16690997Y-5580926D01*
X16359074Y-5249003D01*
X15968774Y-4988213D01*
X15535095Y-4808578D01*
X15074705Y-4717000D01*
X14605295Y-4717000D01*
X14144905Y-4808578D01*
X13711226Y-4988213D01*
X13320926Y-5249003D01*
X12989003Y-5580926D01*
X12728213Y-5971226D01*
X12548578Y-6404905D01*
X12457000Y-6865295D01*
X6227683Y-6865295D01*
X6423455Y-6734485D01*
X6734485Y-6423455D01*
X6978859Y-6057722D01*
X7147188Y-5651342D01*
X7233000Y-5219931D01*
X7233000Y-4780069D01*
X7147188Y-4348658D01*
X6978859Y-3942278D01*
X6734485Y-3576545D01*
X6657215Y-3499275D01*
X29982957Y-3499275D01*
X30125252Y-3698000D01*
X31498000Y-3698000D01*
X31498000Y-2429500D01*
X31502000Y-2429500D01*
X31502000Y-3698000D01*
X32874748Y-3698000D01*
X33017043Y-3499275D01*
X33008978Y-3454099D01*
X32992661Y-3400000D01*
X39263938Y-3400000D01*
X39263938Y-6600000D01*
X39276160Y-6724090D01*
X39312355Y-6843410D01*
X39371134Y-6953377D01*
X39450236Y-7049764D01*
X39546623Y-7128866D01*
X39656590Y-7187645D01*
X39775910Y-7223840D01*
X39900000Y-7236062D01*
X43100000Y-7236062D01*
X43224090Y-7223840D01*
X43343410Y-7187645D01*
X43453377Y-7128866D01*
X43549764Y-7049764D01*
X43628866Y-6953377D01*
X43687645Y-6843410D01*
X43723840Y-6724090D01*
X43736062Y-6600000D01*
X43736062Y-5351293D01*
X51994806Y-5351293D01*
X52028232Y-5519339D01*
X52171280Y-5933051D01*
X52392290Y-6310906D01*
X52682770Y-6638384D01*
X53031556Y-6902900D01*
X53425245Y-7094288D01*
X53848707Y-7205194D01*
X54198000Y-7074749D01*
X54198000Y-5002000D01*
X54202000Y-5002000D01*
X54202000Y-7074749D01*
X54551293Y-7205194D01*
X54974755Y-7094288D01*
X55368444Y-6902900D01*
X55717230Y-6638384D01*
X56007710Y-6310906D01*
X56228720Y-5933051D01*
X56371768Y-5519339D01*
X56405194Y-5351293D01*
X56274749Y-5002000D01*
X54202000Y-5002000D01*
X54198000Y-5002000D01*
X52125251Y-5002000D01*
X51994806Y-5351293D01*
X43736062Y-5351293D01*
X43736062Y-4648707D01*
X51994806Y-4648707D01*
X52125251Y-4998000D01*
X54198000Y-4998000D01*
X54198000Y-2925251D01*
X54202000Y-2925251D01*
X54202000Y-4998000D01*
X56274749Y-4998000D01*
X56405194Y-4648707D01*
X56371768Y-4480661D01*
X56228720Y-4066949D01*
X56007710Y-3689094D01*
X55717230Y-3361616D01*
X55368444Y-3097100D01*
X54974755Y-2905712D01*
X54551293Y-2794806D01*
X54202000Y-2925251D01*
X54198000Y-2925251D01*
X53848707Y-2794806D01*
X53425245Y-2905712D01*
X53031556Y-3097100D01*
X52682770Y-3361616D01*
X52392290Y-3689094D01*
X52171280Y-4066949D01*
X52028232Y-4480661D01*
X51994806Y-4648707D01*
X43736062Y-4648707D01*
X43736062Y-3400000D01*
X43723840Y-3275910D01*
X43687645Y-3156590D01*
X43628866Y-3046623D01*
X43549764Y-2950236D01*
X43453377Y-2871134D01*
X43343410Y-2812355D01*
X43224090Y-2776160D01*
X43100000Y-2763938D01*
X39900000Y-2763938D01*
X39775910Y-2776160D01*
X39656590Y-2812355D01*
X39546623Y-2871134D01*
X39450236Y-2950236D01*
X39371134Y-3046623D01*
X39312355Y-3156590D01*
X39276160Y-3275910D01*
X39263938Y-3400000D01*
X32992661Y-3400000D01*
X32937054Y-3215648D01*
X32819993Y-2995811D01*
X32662293Y-2803035D01*
X32470015Y-2644729D01*
X32250547Y-2526976D01*
X32012324Y-2454302D01*
X31764500Y-2429500D01*
X31502000Y-2429500D01*
X31498000Y-2429500D01*
X31235500Y-2429500D01*
X30987676Y-2454302D01*
X30749453Y-2526976D01*
X30529985Y-2644729D01*
X30337707Y-2803035D01*
X30180007Y-2995811D01*
X30062946Y-3215648D01*
X29991022Y-3454099D01*
X29982957Y-3499275D01*
X6657215Y-3499275D01*
X6423455Y-3265515D01*
X6057722Y-3021141D01*
X5651342Y-2852812D01*
X5219931Y-2767000D01*
X4780069Y-2767000D01*
X4348658Y-2852812D01*
X3942278Y-3021141D01*
X3576545Y-3265515D01*
X3265515Y-3576545D01*
X3021141Y-3942278D01*
X2852812Y-4348658D01*
X2767000Y-4780069D01*
X658000Y-4780069D01*
X658000Y-658000D01*
X64342000Y-658000D01*
X64342001Y-57875000D01*
G37*
G04 #@! TD.AperFunction*
M02*
