G04 #@! TF.GenerationSoftware,KiCad,Pcbnew,(5.1.10)-1*
G04 #@! TF.CreationDate,2021-09-08T13:47:50+09:00*
G04 #@! TF.ProjectId,driver_v0.3,64726976-6572-45f7-9630-2e332e6b6963,rev?*
G04 #@! TF.SameCoordinates,Original*
G04 #@! TF.FileFunction,Legend,Top*
G04 #@! TF.FilePolarity,Positive*
%FSLAX46Y46*%
G04 Gerber Fmt 4.6, Leading zero omitted, Abs format (unit mm)*
G04 Created by KiCad (PCBNEW (5.1.10)-1) date 2021-09-08 13:47:50*
%MOMM*%
%LPD*%
G01*
G04 APERTURE LIST*
%ADD10C,0.150000*%
%ADD11C,0.120000*%
G04 APERTURE END LIST*
D10*
X62452380Y-52642857D02*
X61452380Y-52642857D01*
X61452380Y-52404761D01*
X61500000Y-52261904D01*
X61595238Y-52166666D01*
X61690476Y-52119047D01*
X61880952Y-52071428D01*
X62023809Y-52071428D01*
X62214285Y-52119047D01*
X62309523Y-52166666D01*
X62404761Y-52261904D01*
X62452380Y-52404761D01*
X62452380Y-52642857D01*
X62452380Y-51642857D02*
X61785714Y-51642857D01*
X61976190Y-51642857D02*
X61880952Y-51595238D01*
X61833333Y-51547619D01*
X61785714Y-51452380D01*
X61785714Y-51357142D01*
X62452380Y-51023809D02*
X61785714Y-51023809D01*
X61452380Y-51023809D02*
X61500000Y-51071428D01*
X61547619Y-51023809D01*
X61500000Y-50976190D01*
X61452380Y-51023809D01*
X61547619Y-51023809D01*
X61785714Y-50642857D02*
X62452380Y-50404761D01*
X61785714Y-50166666D01*
X62404761Y-49404761D02*
X62452380Y-49500000D01*
X62452380Y-49690476D01*
X62404761Y-49785714D01*
X62309523Y-49833333D01*
X61928571Y-49833333D01*
X61833333Y-49785714D01*
X61785714Y-49690476D01*
X61785714Y-49500000D01*
X61833333Y-49404761D01*
X61928571Y-49357142D01*
X62023809Y-49357142D01*
X62119047Y-49833333D01*
X62452380Y-48928571D02*
X61785714Y-48928571D01*
X61976190Y-48928571D02*
X61880952Y-48880952D01*
X61833333Y-48833333D01*
X61785714Y-48738095D01*
X61785714Y-48642857D01*
X61785714Y-47642857D02*
X62452380Y-47404761D01*
X61785714Y-47166666D01*
X61452380Y-46595238D02*
X61452380Y-46500000D01*
X61500000Y-46404761D01*
X61547619Y-46357142D01*
X61642857Y-46309523D01*
X61833333Y-46261904D01*
X62071428Y-46261904D01*
X62261904Y-46309523D01*
X62357142Y-46357142D01*
X62404761Y-46404761D01*
X62452380Y-46500000D01*
X62452380Y-46595238D01*
X62404761Y-46690476D01*
X62357142Y-46738095D01*
X62261904Y-46785714D01*
X62071428Y-46833333D01*
X61833333Y-46833333D01*
X61642857Y-46785714D01*
X61547619Y-46738095D01*
X61500000Y-46690476D01*
X61452380Y-46595238D01*
X61452380Y-45928571D02*
X61452380Y-45309523D01*
X61833333Y-45642857D01*
X61833333Y-45500000D01*
X61880952Y-45404761D01*
X61928571Y-45357142D01*
X62023809Y-45309523D01*
X62261904Y-45309523D01*
X62357142Y-45357142D01*
X62404761Y-45404761D01*
X62452380Y-45500000D01*
X62452380Y-45785714D01*
X62404761Y-45880952D01*
X62357142Y-45928571D01*
X19595238Y-47714285D02*
X19547619Y-47857142D01*
X19547619Y-48095238D01*
X19595238Y-48190476D01*
X19642857Y-48238095D01*
X19738095Y-48285714D01*
X19833333Y-48285714D01*
X19928571Y-48238095D01*
X19976190Y-48190476D01*
X20023809Y-48095238D01*
X20071428Y-47904761D01*
X20119047Y-47809523D01*
X20166666Y-47761904D01*
X20261904Y-47714285D01*
X20357142Y-47714285D01*
X20452380Y-47761904D01*
X20500000Y-47809523D01*
X20547619Y-47904761D01*
X20547619Y-48142857D01*
X20500000Y-48285714D01*
X20547619Y-45166666D02*
X19547619Y-45500000D01*
X20547619Y-45833333D01*
X20500000Y-43261904D02*
X20547619Y-43166666D01*
X20547619Y-43023809D01*
X20500000Y-42880952D01*
X20404761Y-42785714D01*
X20309523Y-42738095D01*
X20119047Y-42690476D01*
X19976190Y-42690476D01*
X19785714Y-42738095D01*
X19690476Y-42785714D01*
X19595238Y-42880952D01*
X19547619Y-43023809D01*
X19547619Y-43119047D01*
X19595238Y-43261904D01*
X19642857Y-43309523D01*
X19976190Y-43309523D01*
X19976190Y-43119047D01*
X13071428Y-43380952D02*
X13071428Y-42619047D01*
X13071428Y-45380952D02*
X13071428Y-44619047D01*
X13452380Y-45000000D02*
X12690476Y-45000000D01*
X1928571Y-53976190D02*
X1976190Y-53833333D01*
X2023809Y-53785714D01*
X2119047Y-53738095D01*
X2261904Y-53738095D01*
X2357142Y-53785714D01*
X2404761Y-53833333D01*
X2452380Y-53928571D01*
X2452380Y-54309523D01*
X1452380Y-54309523D01*
X1452380Y-53976190D01*
X1499999Y-53880952D01*
X1547619Y-53833333D01*
X1642857Y-53785714D01*
X1738095Y-53785714D01*
X1833333Y-53833333D01*
X1880952Y-53880952D01*
X1928571Y-53976190D01*
X1928571Y-54309523D01*
X2452380Y-52738095D02*
X1976190Y-53071428D01*
X2452380Y-53309523D02*
X1452380Y-53309523D01*
X1452380Y-52928571D01*
X1500000Y-52833333D01*
X1547619Y-52785714D01*
X1642857Y-52738095D01*
X1785714Y-52738095D01*
X1880952Y-52785714D01*
X1928571Y-52833333D01*
X1976190Y-52928571D01*
X1976190Y-53309523D01*
X2452380Y-52309523D02*
X1452380Y-52309523D01*
X2166666Y-51976190D01*
X1452380Y-51642857D01*
X2452380Y-51642857D01*
X1452380Y-50976190D02*
X1452380Y-50785714D01*
X1500000Y-50690476D01*
X1595238Y-50595238D01*
X1785714Y-50547619D01*
X2119047Y-50547619D01*
X2309523Y-50595238D01*
X2404761Y-50690476D01*
X2452380Y-50785714D01*
X2452380Y-50976190D01*
X2404761Y-51071428D01*
X2309523Y-51166666D01*
X2119047Y-51214285D01*
X1785714Y-51214285D01*
X1595238Y-51166666D01*
X1500000Y-51071428D01*
X1452380Y-50976190D01*
X2452380Y-50119047D02*
X1452380Y-50119047D01*
X1452380Y-49880952D01*
X1500000Y-49738095D01*
X1595238Y-49642857D01*
X1690476Y-49595238D01*
X1880952Y-49547619D01*
X2023809Y-49547619D01*
X2214285Y-49595238D01*
X2309523Y-49642857D01*
X2404761Y-49738095D01*
X2452380Y-49880952D01*
X2452380Y-50119047D01*
X1928571Y-49119047D02*
X1928571Y-48785714D01*
X2452380Y-48642857D02*
X2452380Y-49119047D01*
X1452380Y-49119047D01*
X1452380Y-48642857D01*
X2452380Y-46071428D02*
X2452380Y-46547619D01*
X1452380Y-46547619D01*
X1928571Y-45738095D02*
X1928571Y-45404761D01*
X2452380Y-45261904D02*
X2452380Y-45738095D01*
X1452380Y-45738095D01*
X1452380Y-45261904D01*
X2452380Y-44833333D02*
X1452380Y-44833333D01*
X1452380Y-44595238D01*
X1500000Y-44452380D01*
X1595238Y-44357142D01*
X1690476Y-44309523D01*
X1880952Y-44261904D01*
X2023809Y-44261904D01*
X2214285Y-44309523D01*
X2309523Y-44357142D01*
X2404761Y-44452380D01*
X2452380Y-44595238D01*
X2452380Y-44833333D01*
X1928571Y-43500000D02*
X1976190Y-43357142D01*
X2023809Y-43309523D01*
X2119047Y-43261904D01*
X2261904Y-43261904D01*
X2357142Y-43309523D01*
X2404761Y-43357142D01*
X2452380Y-43452380D01*
X2452380Y-43833333D01*
X1452380Y-43833333D01*
X1452380Y-43500000D01*
X1500000Y-43404761D01*
X1547619Y-43357142D01*
X1642857Y-43309523D01*
X1738095Y-43309523D01*
X1833333Y-43357142D01*
X1880952Y-43404761D01*
X1928571Y-43500000D01*
X1928571Y-43833333D01*
X2166666Y-42880952D02*
X2166666Y-42404761D01*
X2452380Y-42976190D02*
X1452380Y-42642857D01*
X2452380Y-42309523D01*
X2452380Y-41404761D02*
X1976190Y-41738095D01*
X2452380Y-41976190D02*
X1452380Y-41976190D01*
X1452380Y-41595238D01*
X1500000Y-41500000D01*
X1547619Y-41452380D01*
X1642857Y-41404761D01*
X1785714Y-41404761D01*
X1880952Y-41452380D01*
X1928571Y-41500000D01*
X1976190Y-41595238D01*
X1976190Y-41976190D01*
X28452380Y-57738095D02*
X28452380Y-57166666D01*
X29452380Y-57452380D02*
X28452380Y-57452380D01*
X28452380Y-56928571D02*
X29452380Y-56261904D01*
X28452380Y-56261904D02*
X29452380Y-56928571D01*
X28452380Y-55690476D02*
X28452380Y-55595238D01*
X28500000Y-55500000D01*
X28547619Y-55452380D01*
X28642857Y-55404761D01*
X28833333Y-55357142D01*
X29071428Y-55357142D01*
X29261904Y-55404761D01*
X29357142Y-55452380D01*
X29404761Y-55500000D01*
X29452380Y-55595238D01*
X29452380Y-55690476D01*
X29404761Y-55785714D01*
X29357142Y-55833333D01*
X29261904Y-55880952D01*
X29071428Y-55928571D01*
X28833333Y-55928571D01*
X28642857Y-55880952D01*
X28547619Y-55833333D01*
X28500000Y-55785714D01*
X28452380Y-55690476D01*
X27452380Y-57142857D02*
X26976190Y-57476190D01*
X27452380Y-57714285D02*
X26452380Y-57714285D01*
X26452380Y-57333333D01*
X26500000Y-57238095D01*
X26547619Y-57190476D01*
X26642857Y-57142857D01*
X26785714Y-57142857D01*
X26880952Y-57190476D01*
X26928571Y-57238095D01*
X26976190Y-57333333D01*
X26976190Y-57714285D01*
X26452380Y-56809523D02*
X27452380Y-56142857D01*
X26452380Y-56142857D02*
X27452380Y-56809523D01*
X26452380Y-55571428D02*
X26452380Y-55476190D01*
X26500000Y-55380952D01*
X26547619Y-55333333D01*
X26642857Y-55285714D01*
X26833333Y-55238095D01*
X27071428Y-55238095D01*
X27261904Y-55285714D01*
X27357142Y-55333333D01*
X27404761Y-55380952D01*
X27452380Y-55476190D01*
X27452380Y-55571428D01*
X27404761Y-55666666D01*
X27357142Y-55714285D01*
X27261904Y-55761904D01*
X27071428Y-55809523D01*
X26833333Y-55809523D01*
X26642857Y-55761904D01*
X26547619Y-55714285D01*
X26500000Y-55666666D01*
X26452380Y-55571428D01*
X13452380Y-57738095D02*
X13452380Y-57166666D01*
X14452380Y-57452380D02*
X13452380Y-57452380D01*
X13452380Y-56928571D02*
X14452380Y-56261904D01*
X13452380Y-56261904D02*
X14452380Y-56928571D01*
X13547619Y-55928571D02*
X13500000Y-55880952D01*
X13452380Y-55785714D01*
X13452380Y-55547619D01*
X13500000Y-55452380D01*
X13547619Y-55404761D01*
X13642857Y-55357142D01*
X13738095Y-55357142D01*
X13880952Y-55404761D01*
X14452380Y-55976190D01*
X14452380Y-55357142D01*
X12452380Y-57142857D02*
X11976190Y-57476190D01*
X12452380Y-57714285D02*
X11452380Y-57714285D01*
X11452380Y-57333333D01*
X11500000Y-57238095D01*
X11547619Y-57190476D01*
X11642857Y-57142857D01*
X11785714Y-57142857D01*
X11880952Y-57190476D01*
X11928571Y-57238095D01*
X11976190Y-57333333D01*
X11976190Y-57714285D01*
X11452380Y-56809523D02*
X12452380Y-56142857D01*
X11452380Y-56142857D02*
X12452380Y-56809523D01*
X11547619Y-55809523D02*
X11500000Y-55761904D01*
X11452380Y-55666666D01*
X11452380Y-55428571D01*
X11500000Y-55333333D01*
X11547619Y-55285714D01*
X11642857Y-55238095D01*
X11738095Y-55238095D01*
X11880952Y-55285714D01*
X12452380Y-55857142D01*
X12452380Y-55238095D01*
D11*
X27810000Y-12221000D02*
X27810000Y-1980000D01*
X11920000Y-12221000D02*
X11920000Y-1980000D01*
X11920000Y-12221000D02*
X27810000Y-12221000D01*
X11920000Y-1980000D02*
X27810000Y-1980000D01*
X27810000Y-10500000D02*
X30450000Y-10500000D01*
X27810000Y-8800000D02*
X30450000Y-8800000D01*
X27810000Y-7100000D02*
X30450000Y-7100000D01*
X27810000Y-5400000D02*
X30450000Y-5400000D01*
X27810000Y-3700000D02*
X30450000Y-3700000D01*
X31090000Y-34910000D02*
X32350000Y-34910000D01*
X37910000Y-34910000D02*
X36650000Y-34910000D01*
X31090000Y-31150000D02*
X31090000Y-34910000D01*
X37910000Y-28900000D02*
X37910000Y-34910000D01*
X59120000Y-39900000D02*
X59120000Y-39120000D01*
X59120000Y-39120000D02*
X58120000Y-39120000D01*
X40880000Y-39900000D02*
X40880000Y-39120000D01*
X40880000Y-39120000D02*
X41880000Y-39120000D01*
X59120000Y-64865000D02*
X40880000Y-64865000D01*
X40880000Y-64865000D02*
X40880000Y-58445000D01*
X59120000Y-64865000D02*
X59120000Y-58445000D01*
X59120000Y-58445000D02*
X59500000Y-58445000D01*
X48500000Y-33500000D02*
X48500000Y-29500000D01*
X48500000Y-29500000D02*
X49000000Y-29500000D01*
X48500000Y-33500000D02*
X49000000Y-33500000D01*
X51000000Y-33500000D02*
X51500000Y-33500000D01*
X51500000Y-33500000D02*
X51500000Y-29500000D01*
X51500000Y-29500000D02*
X51000000Y-29500000D01*
X50500000Y-31500000D02*
G75*
G03*
X50500000Y-31500000I-500000J0D01*
G01*
X54500000Y-33500000D02*
X54500000Y-29500000D01*
X54500000Y-29500000D02*
X55000000Y-29500000D01*
X54500000Y-33500000D02*
X55000000Y-33500000D01*
X57000000Y-33500000D02*
X57500000Y-33500000D01*
X57500000Y-33500000D02*
X57500000Y-29500000D01*
X57500000Y-29500000D02*
X57000000Y-29500000D01*
X56500000Y-31500000D02*
G75*
G03*
X56500000Y-31500000I-500000J0D01*
G01*
X27977500Y-42237258D02*
X27977500Y-41762742D01*
X29022500Y-42237258D02*
X29022500Y-41762742D01*
X15737258Y-53022500D02*
X15262742Y-53022500D01*
X15737258Y-51977500D02*
X15262742Y-51977500D01*
X42977500Y-34737258D02*
X42977500Y-34262742D01*
X44022500Y-34737258D02*
X44022500Y-34262742D01*
X61237258Y-36022500D02*
X60762742Y-36022500D01*
X61237258Y-34977500D02*
X60762742Y-34977500D01*
X41522500Y-34262742D02*
X41522500Y-34737258D01*
X40477500Y-34262742D02*
X40477500Y-34737258D01*
X60762742Y-36977500D02*
X61237258Y-36977500D01*
X60762742Y-38022500D02*
X61237258Y-38022500D01*
X19310000Y-38580000D02*
X19310000Y-28340000D01*
X3420000Y-38580000D02*
X3420000Y-28340000D01*
X3420000Y-38580000D02*
X19310000Y-38580000D01*
X3420000Y-28340000D02*
X19310000Y-28340000D01*
X19310000Y-36000000D02*
X21850000Y-36000000D01*
X19310000Y-33460000D02*
X21850000Y-33460000D01*
X19310000Y-30920000D02*
X21850000Y-30920000D01*
X36560000Y-8850000D02*
X48984000Y-8850000D01*
X49016000Y-8850000D02*
X61440000Y-8850000D01*
X36560000Y-24590000D02*
X48984000Y-24590000D01*
X49016000Y-24590000D02*
X61440000Y-24590000D01*
X36560000Y-8850000D02*
X36560000Y-24590000D01*
X61440000Y-8850000D02*
X61440000Y-24590000D01*
X9860000Y-42140000D02*
X9860000Y-41860000D01*
X9860000Y-41860000D02*
X11460000Y-41860000D01*
X11460000Y-41860000D02*
X11460000Y-40940000D01*
X11460000Y-40940000D02*
X3640000Y-40940000D01*
X3640000Y-40940000D02*
X3640000Y-47060000D01*
X3640000Y-47060000D02*
X11460000Y-47060000D01*
X11460000Y-47060000D02*
X11460000Y-46140000D01*
X11460000Y-46140000D02*
X9860000Y-46140000D01*
X9860000Y-46140000D02*
X9860000Y-45860000D01*
X3640000Y-43500000D02*
X8000000Y-43500000D01*
X8000000Y-43500000D02*
X8000000Y-44500000D01*
X8000000Y-44500000D02*
X3640000Y-44500000D01*
X9860000Y-40940000D02*
X9860000Y-41860000D01*
X9860000Y-47060000D02*
X9860000Y-46140000D01*
X7500000Y-41700000D02*
X5900000Y-41700000D01*
X5900000Y-41700000D02*
X5900000Y-42700000D01*
X5900000Y-42700000D02*
X7500000Y-42700000D01*
X7500000Y-42700000D02*
X7500000Y-41700000D01*
X7500000Y-46300000D02*
X5900000Y-46300000D01*
X5900000Y-46300000D02*
X5900000Y-45300000D01*
X5900000Y-45300000D02*
X7500000Y-45300000D01*
X7500000Y-45300000D02*
X7500000Y-46300000D01*
X5900000Y-42700000D02*
X3640000Y-42700000D01*
X5900000Y-42200000D02*
X3640000Y-42200000D01*
X9860000Y-42140000D02*
X11075000Y-42140000D01*
X3940000Y-58190000D02*
X3940000Y-62910000D01*
X3940000Y-62910000D02*
X16060000Y-62910000D01*
X16060000Y-62910000D02*
X16060000Y-58190000D01*
X16060000Y-58190000D02*
X3940000Y-58190000D01*
X5700000Y-58190000D02*
X5700000Y-57990000D01*
X5700000Y-57990000D02*
X5400000Y-57990000D01*
X5400000Y-57990000D02*
X5400000Y-58190000D01*
X5700000Y-58090000D02*
X5400000Y-58090000D01*
X6500000Y-58190000D02*
X6500000Y-58800000D01*
X6500000Y-58800000D02*
X4550000Y-58800000D01*
X4550000Y-58800000D02*
X4550000Y-62300000D01*
X4550000Y-62300000D02*
X15450000Y-62300000D01*
X15450000Y-62300000D02*
X15450000Y-58800000D01*
X15450000Y-58800000D02*
X13500000Y-58800000D01*
X13500000Y-58800000D02*
X13500000Y-58190000D01*
X3940000Y-59500000D02*
X4550000Y-59500000D01*
X3940000Y-60800000D02*
X4550000Y-60800000D01*
X16060000Y-59500000D02*
X15450000Y-59500000D01*
X16060000Y-60800000D02*
X15450000Y-60800000D01*
X6900000Y-62300000D02*
X6900000Y-61800000D01*
X6900000Y-61800000D02*
X7100000Y-61800000D01*
X7100000Y-61800000D02*
X7100000Y-62300000D01*
X7000000Y-62300000D02*
X7000000Y-61800000D01*
X8900000Y-62300000D02*
X8900000Y-61800000D01*
X8900000Y-61800000D02*
X9100000Y-61800000D01*
X9100000Y-61800000D02*
X9100000Y-62300000D01*
X9000000Y-62300000D02*
X9000000Y-61800000D01*
X10900000Y-62300000D02*
X10900000Y-61800000D01*
X10900000Y-61800000D02*
X11100000Y-61800000D01*
X11100000Y-61800000D02*
X11100000Y-62300000D01*
X11000000Y-62300000D02*
X11000000Y-61800000D01*
X12900000Y-62300000D02*
X12900000Y-61800000D01*
X12900000Y-61800000D02*
X13100000Y-61800000D01*
X13100000Y-61800000D02*
X13100000Y-62300000D01*
X13000000Y-62300000D02*
X13000000Y-61800000D01*
X4890000Y-57890000D02*
X3640000Y-57890000D01*
X3640000Y-57890000D02*
X3640000Y-59140000D01*
X9860000Y-49640000D02*
X9860000Y-49360000D01*
X9860000Y-49360000D02*
X11460000Y-49360000D01*
X11460000Y-49360000D02*
X11460000Y-48440000D01*
X11460000Y-48440000D02*
X3640000Y-48440000D01*
X3640000Y-48440000D02*
X3640000Y-54560000D01*
X3640000Y-54560000D02*
X11460000Y-54560000D01*
X11460000Y-54560000D02*
X11460000Y-53640000D01*
X11460000Y-53640000D02*
X9860000Y-53640000D01*
X9860000Y-53640000D02*
X9860000Y-53360000D01*
X3640000Y-51000000D02*
X8000000Y-51000000D01*
X8000000Y-51000000D02*
X8000000Y-52000000D01*
X8000000Y-52000000D02*
X3640000Y-52000000D01*
X9860000Y-48440000D02*
X9860000Y-49360000D01*
X9860000Y-54560000D02*
X9860000Y-53640000D01*
X7500000Y-49200000D02*
X5900000Y-49200000D01*
X5900000Y-49200000D02*
X5900000Y-50200000D01*
X5900000Y-50200000D02*
X7500000Y-50200000D01*
X7500000Y-50200000D02*
X7500000Y-49200000D01*
X7500000Y-53800000D02*
X5900000Y-53800000D01*
X5900000Y-53800000D02*
X5900000Y-52800000D01*
X5900000Y-52800000D02*
X7500000Y-52800000D01*
X7500000Y-52800000D02*
X7500000Y-53800000D01*
X5900000Y-50200000D02*
X3640000Y-50200000D01*
X5900000Y-49700000D02*
X3640000Y-49700000D01*
X9860000Y-49640000D02*
X11075000Y-49640000D01*
X18940000Y-58190000D02*
X18940000Y-62910000D01*
X18940000Y-62910000D02*
X31060000Y-62910000D01*
X31060000Y-62910000D02*
X31060000Y-58190000D01*
X31060000Y-58190000D02*
X18940000Y-58190000D01*
X20700000Y-58190000D02*
X20700000Y-57990000D01*
X20700000Y-57990000D02*
X20400000Y-57990000D01*
X20400000Y-57990000D02*
X20400000Y-58190000D01*
X20700000Y-58090000D02*
X20400000Y-58090000D01*
X21500000Y-58190000D02*
X21500000Y-58800000D01*
X21500000Y-58800000D02*
X19550000Y-58800000D01*
X19550000Y-58800000D02*
X19550000Y-62300000D01*
X19550000Y-62300000D02*
X30450000Y-62300000D01*
X30450000Y-62300000D02*
X30450000Y-58800000D01*
X30450000Y-58800000D02*
X28500000Y-58800000D01*
X28500000Y-58800000D02*
X28500000Y-58190000D01*
X18940000Y-59500000D02*
X19550000Y-59500000D01*
X18940000Y-60800000D02*
X19550000Y-60800000D01*
X31060000Y-59500000D02*
X30450000Y-59500000D01*
X31060000Y-60800000D02*
X30450000Y-60800000D01*
X21900000Y-62300000D02*
X21900000Y-61800000D01*
X21900000Y-61800000D02*
X22100000Y-61800000D01*
X22100000Y-61800000D02*
X22100000Y-62300000D01*
X22000000Y-62300000D02*
X22000000Y-61800000D01*
X23900000Y-62300000D02*
X23900000Y-61800000D01*
X23900000Y-61800000D02*
X24100000Y-61800000D01*
X24100000Y-61800000D02*
X24100000Y-62300000D01*
X24000000Y-62300000D02*
X24000000Y-61800000D01*
X25900000Y-62300000D02*
X25900000Y-61800000D01*
X25900000Y-61800000D02*
X26100000Y-61800000D01*
X26100000Y-61800000D02*
X26100000Y-62300000D01*
X26000000Y-62300000D02*
X26000000Y-61800000D01*
X27900000Y-62300000D02*
X27900000Y-61800000D01*
X27900000Y-61800000D02*
X28100000Y-61800000D01*
X28100000Y-61800000D02*
X28100000Y-62300000D01*
X28000000Y-62300000D02*
X28000000Y-61800000D01*
X19890000Y-57890000D02*
X18640000Y-57890000D01*
X18640000Y-57890000D02*
X18640000Y-59140000D01*
X3290000Y-19510000D02*
X3290000Y-10790000D01*
X3290000Y-10790000D02*
X8710000Y-10790000D01*
X8710000Y-19510000D02*
X8710000Y-10790000D01*
X4590000Y-21210000D02*
X3290000Y-19510000D01*
X7410000Y-21210000D02*
X8710000Y-19510000D01*
X4590000Y-21210000D02*
X7410000Y-21210000D01*
X21670000Y-49410000D02*
X24330000Y-49410000D01*
X21670000Y-44270000D02*
X21670000Y-49410000D01*
X24330000Y-44270000D02*
X24330000Y-49410000D01*
X21670000Y-44270000D02*
X24330000Y-44270000D01*
X21670000Y-43000000D02*
X21670000Y-41670000D01*
X21670000Y-41670000D02*
X23000000Y-41670000D01*
X42980000Y-3160000D02*
X42980000Y-2280000D01*
X42980000Y-2280000D02*
X52720000Y-2280000D01*
X52720000Y-2280000D02*
X52720000Y-3160000D01*
X42980000Y-6840000D02*
X42980000Y-7720000D01*
X42980000Y-7720000D02*
X52720000Y-7720000D01*
X52720000Y-7720000D02*
X52720000Y-6840000D01*
X44525000Y-2280000D02*
X44525000Y-7720000D01*
X44645000Y-2280000D02*
X44645000Y-7720000D01*
X44405000Y-2280000D02*
X44405000Y-7720000D01*
X29460000Y-47000000D02*
X29460000Y-44140000D01*
X29460000Y-44140000D02*
X27540000Y-44140000D01*
X27540000Y-44140000D02*
X27540000Y-47000000D01*
X27590000Y-37711252D02*
X27590000Y-36288748D01*
X29410000Y-37711252D02*
X29410000Y-36288748D01*
X29410000Y-30788748D02*
X29410000Y-32211252D01*
X27590000Y-30788748D02*
X27590000Y-32211252D01*
X24240000Y-24760000D02*
X27290000Y-24760000D01*
X32760000Y-24760000D02*
X29710000Y-24760000D01*
X32760000Y-17304437D02*
X32760000Y-24760000D01*
X24240000Y-17304437D02*
X24240000Y-24760000D01*
X25304437Y-16240000D02*
X27290000Y-16240000D01*
X31695563Y-16240000D02*
X29710000Y-16240000D01*
X31695563Y-16240000D02*
X32760000Y-17304437D01*
X25304437Y-16240000D02*
X24240000Y-17304437D01*
X30710000Y-15000000D02*
X30710000Y-16000000D01*
X31210000Y-15500000D02*
X30210000Y-15500000D01*
X12140000Y-24860000D02*
X14990000Y-24860000D01*
X20860000Y-24860000D02*
X18010000Y-24860000D01*
X20860000Y-17204437D02*
X20860000Y-24860000D01*
X12140000Y-17204437D02*
X12140000Y-24860000D01*
X13204437Y-16140000D02*
X14990000Y-16140000D01*
X19795563Y-16140000D02*
X18010000Y-16140000D01*
X19795563Y-16140000D02*
X20860000Y-17204437D01*
X13204437Y-16140000D02*
X12140000Y-17204437D01*
X19010000Y-14900000D02*
X19010000Y-15900000D01*
X19510000Y-15400000D02*
X18510000Y-15400000D01*
X46510000Y-34359420D02*
X46510000Y-34640580D01*
X45490000Y-34359420D02*
X45490000Y-34640580D01*
X60859420Y-32990000D02*
X61140580Y-32990000D01*
X60859420Y-34010000D02*
X61140580Y-34010000D01*
X15640580Y-51010000D02*
X15359420Y-51010000D01*
X15640580Y-49990000D02*
X15359420Y-49990000D01*
D10*
X10372380Y-7861904D02*
X11181904Y-7861904D01*
X11277142Y-7814285D01*
X11324761Y-7766666D01*
X11372380Y-7671428D01*
X11372380Y-7480952D01*
X11324761Y-7385714D01*
X11277142Y-7338095D01*
X11181904Y-7290476D01*
X10372380Y-7290476D01*
X10467619Y-6861904D02*
X10420000Y-6814285D01*
X10372380Y-6719047D01*
X10372380Y-6480952D01*
X10420000Y-6385714D01*
X10467619Y-6338095D01*
X10562857Y-6290476D01*
X10658095Y-6290476D01*
X10800952Y-6338095D01*
X11372380Y-6909523D01*
X11372380Y-6290476D01*
X36952380Y-37261904D02*
X37761904Y-37261904D01*
X37857142Y-37214285D01*
X37904761Y-37166666D01*
X37952380Y-37071428D01*
X37952380Y-36880952D01*
X37904761Y-36785714D01*
X37857142Y-36738095D01*
X37761904Y-36690476D01*
X36952380Y-36690476D01*
X36952380Y-36309523D02*
X36952380Y-35690476D01*
X37333333Y-36023809D01*
X37333333Y-35880952D01*
X37380952Y-35785714D01*
X37428571Y-35738095D01*
X37523809Y-35690476D01*
X37761904Y-35690476D01*
X37857142Y-35738095D01*
X37904761Y-35785714D01*
X37952380Y-35880952D01*
X37952380Y-36166666D01*
X37904761Y-36261904D01*
X37857142Y-36309523D01*
X60062380Y-58261904D02*
X60871904Y-58261904D01*
X60967142Y-58214285D01*
X61014761Y-58166666D01*
X61062380Y-58071428D01*
X61062380Y-57880952D01*
X61014761Y-57785714D01*
X60967142Y-57738095D01*
X60871904Y-57690476D01*
X60062380Y-57690476D01*
X61062380Y-56690476D02*
X61062380Y-57261904D01*
X61062380Y-56976190D02*
X60062380Y-56976190D01*
X60205238Y-57071428D01*
X60300476Y-57166666D01*
X60348095Y-57261904D01*
X48666666Y-35904761D02*
X48809523Y-35952380D01*
X49047619Y-35952380D01*
X49142857Y-35904761D01*
X49190476Y-35857142D01*
X49238095Y-35761904D01*
X49238095Y-35666666D01*
X49190476Y-35571428D01*
X49142857Y-35523809D01*
X49047619Y-35476190D01*
X48857142Y-35428571D01*
X48761904Y-35380952D01*
X48714285Y-35333333D01*
X48666666Y-35238095D01*
X48666666Y-35142857D01*
X48714285Y-35047619D01*
X48761904Y-35000000D01*
X48857142Y-34952380D01*
X49095238Y-34952380D01*
X49238095Y-35000000D01*
X49571428Y-34952380D02*
X49809523Y-35952380D01*
X50000000Y-35238095D01*
X50190476Y-35952380D01*
X50428571Y-34952380D01*
X50761904Y-35047619D02*
X50809523Y-35000000D01*
X50904761Y-34952380D01*
X51142857Y-34952380D01*
X51238095Y-35000000D01*
X51285714Y-35047619D01*
X51333333Y-35142857D01*
X51333333Y-35238095D01*
X51285714Y-35380952D01*
X50714285Y-35952380D01*
X51333333Y-35952380D01*
X54666666Y-35904761D02*
X54809523Y-35952380D01*
X55047619Y-35952380D01*
X55142857Y-35904761D01*
X55190476Y-35857142D01*
X55238095Y-35761904D01*
X55238095Y-35666666D01*
X55190476Y-35571428D01*
X55142857Y-35523809D01*
X55047619Y-35476190D01*
X54857142Y-35428571D01*
X54761904Y-35380952D01*
X54714285Y-35333333D01*
X54666666Y-35238095D01*
X54666666Y-35142857D01*
X54714285Y-35047619D01*
X54761904Y-35000000D01*
X54857142Y-34952380D01*
X55095238Y-34952380D01*
X55238095Y-35000000D01*
X55571428Y-34952380D02*
X55809523Y-35952380D01*
X56000000Y-35238095D01*
X56190476Y-35952380D01*
X56428571Y-34952380D01*
X57333333Y-35952380D02*
X56761904Y-35952380D01*
X57047619Y-35952380D02*
X57047619Y-34952380D01*
X56952380Y-35095238D01*
X56857142Y-35190476D01*
X56761904Y-35238095D01*
X27452380Y-42166666D02*
X26976190Y-42500000D01*
X27452380Y-42738095D02*
X26452380Y-42738095D01*
X26452380Y-42357142D01*
X26500000Y-42261904D01*
X26547619Y-42214285D01*
X26642857Y-42166666D01*
X26785714Y-42166666D01*
X26880952Y-42214285D01*
X26928571Y-42261904D01*
X26976190Y-42357142D01*
X26976190Y-42738095D01*
X26452380Y-41309523D02*
X26452380Y-41500000D01*
X26500000Y-41595238D01*
X26547619Y-41642857D01*
X26690476Y-41738095D01*
X26880952Y-41785714D01*
X27261904Y-41785714D01*
X27357142Y-41738095D01*
X27404761Y-41690476D01*
X27452380Y-41595238D01*
X27452380Y-41404761D01*
X27404761Y-41309523D01*
X27357142Y-41261904D01*
X27261904Y-41214285D01*
X27023809Y-41214285D01*
X26928571Y-41261904D01*
X26880952Y-41309523D01*
X26833333Y-41404761D01*
X26833333Y-41595238D01*
X26880952Y-41690476D01*
X26928571Y-41738095D01*
X27023809Y-41785714D01*
X18333333Y-52952380D02*
X18000000Y-52476190D01*
X17761904Y-52952380D02*
X17761904Y-51952380D01*
X18142857Y-51952380D01*
X18238095Y-52000000D01*
X18285714Y-52047619D01*
X18333333Y-52142857D01*
X18333333Y-52285714D01*
X18285714Y-52380952D01*
X18238095Y-52428571D01*
X18142857Y-52476190D01*
X17761904Y-52476190D01*
X19238095Y-51952380D02*
X18761904Y-51952380D01*
X18714285Y-52428571D01*
X18761904Y-52380952D01*
X18857142Y-52333333D01*
X19095238Y-52333333D01*
X19190476Y-52380952D01*
X19238095Y-52428571D01*
X19285714Y-52523809D01*
X19285714Y-52761904D01*
X19238095Y-52857142D01*
X19190476Y-52904761D01*
X19095238Y-52952380D01*
X18857142Y-52952380D01*
X18761904Y-52904761D01*
X18714285Y-52857142D01*
X43952380Y-31666666D02*
X43476190Y-32000000D01*
X43952380Y-32238095D02*
X42952380Y-32238095D01*
X42952380Y-31857142D01*
X43000000Y-31761904D01*
X43047619Y-31714285D01*
X43142857Y-31666666D01*
X43285714Y-31666666D01*
X43380952Y-31714285D01*
X43428571Y-31761904D01*
X43476190Y-31857142D01*
X43476190Y-32238095D01*
X43285714Y-30809523D02*
X43952380Y-30809523D01*
X42904761Y-31047619D02*
X43619047Y-31285714D01*
X43619047Y-30666666D01*
X63333333Y-35952380D02*
X63000000Y-35476190D01*
X62761904Y-35952380D02*
X62761904Y-34952380D01*
X63142857Y-34952380D01*
X63238095Y-35000000D01*
X63285714Y-35047619D01*
X63333333Y-35142857D01*
X63333333Y-35285714D01*
X63285714Y-35380952D01*
X63238095Y-35428571D01*
X63142857Y-35476190D01*
X62761904Y-35476190D01*
X63666666Y-34952380D02*
X64285714Y-34952380D01*
X63952380Y-35333333D01*
X64095238Y-35333333D01*
X64190476Y-35380952D01*
X64238095Y-35428571D01*
X64285714Y-35523809D01*
X64285714Y-35761904D01*
X64238095Y-35857142D01*
X64190476Y-35904761D01*
X64095238Y-35952380D01*
X63809523Y-35952380D01*
X63714285Y-35904761D01*
X63666666Y-35857142D01*
X41452380Y-31666666D02*
X40976190Y-32000000D01*
X41452380Y-32238095D02*
X40452380Y-32238095D01*
X40452380Y-31857142D01*
X40500000Y-31761904D01*
X40547619Y-31714285D01*
X40642857Y-31666666D01*
X40785714Y-31666666D01*
X40880952Y-31714285D01*
X40928571Y-31761904D01*
X40976190Y-31857142D01*
X40976190Y-32238095D01*
X40547619Y-31285714D02*
X40500000Y-31238095D01*
X40452380Y-31142857D01*
X40452380Y-30904761D01*
X40500000Y-30809523D01*
X40547619Y-30761904D01*
X40642857Y-30714285D01*
X40738095Y-30714285D01*
X40880952Y-30761904D01*
X41452380Y-31333333D01*
X41452380Y-30714285D01*
X63333333Y-37952380D02*
X63000000Y-37476190D01*
X62761904Y-37952380D02*
X62761904Y-36952380D01*
X63142857Y-36952380D01*
X63238095Y-37000000D01*
X63285714Y-37047619D01*
X63333333Y-37142857D01*
X63333333Y-37285714D01*
X63285714Y-37380952D01*
X63238095Y-37428571D01*
X63142857Y-37476190D01*
X62761904Y-37476190D01*
X64285714Y-37952380D02*
X63714285Y-37952380D01*
X64000000Y-37952380D02*
X64000000Y-36952380D01*
X63904761Y-37095238D01*
X63809523Y-37190476D01*
X63714285Y-37238095D01*
X2967619Y-33555238D02*
X2920000Y-33650476D01*
X2824761Y-33745714D01*
X2681904Y-33888571D01*
X2634285Y-33983809D01*
X2634285Y-34079047D01*
X2872380Y-34031428D02*
X2824761Y-34126666D01*
X2729523Y-34221904D01*
X2539047Y-34269523D01*
X2205714Y-34269523D01*
X2015238Y-34221904D01*
X1920000Y-34126666D01*
X1872380Y-34031428D01*
X1872380Y-33840952D01*
X1920000Y-33745714D01*
X2015238Y-33650476D01*
X2205714Y-33602857D01*
X2539047Y-33602857D01*
X2729523Y-33650476D01*
X2824761Y-33745714D01*
X2872380Y-33840952D01*
X2872380Y-34031428D01*
X2872380Y-32650476D02*
X2872380Y-33221904D01*
X2872380Y-32936190D02*
X1872380Y-32936190D01*
X2015238Y-33031428D01*
X2110476Y-33126666D01*
X2158095Y-33221904D01*
X38452380Y-17166666D02*
X38452380Y-17642857D01*
X37452380Y-17642857D01*
X38452380Y-16309523D02*
X38452380Y-16880952D01*
X38452380Y-16595238D02*
X37452380Y-16595238D01*
X37595238Y-16690476D01*
X37690476Y-16785714D01*
X37738095Y-16880952D01*
X7166666Y-39452380D02*
X7166666Y-40166666D01*
X7119047Y-40309523D01*
X7023809Y-40404761D01*
X6880952Y-40452380D01*
X6785714Y-40452380D01*
X7547619Y-39452380D02*
X8214285Y-39452380D01*
X7785714Y-40452380D01*
X2452380Y-60333333D02*
X3166666Y-60333333D01*
X3309523Y-60380952D01*
X3404761Y-60476190D01*
X3452380Y-60619047D01*
X3452380Y-60714285D01*
X2452380Y-59428571D02*
X2452380Y-59619047D01*
X2500000Y-59714285D01*
X2547619Y-59761904D01*
X2690476Y-59857142D01*
X2880952Y-59904761D01*
X3261904Y-59904761D01*
X3357142Y-59857142D01*
X3404761Y-59809523D01*
X3452380Y-59714285D01*
X3452380Y-59523809D01*
X3404761Y-59428571D01*
X3357142Y-59380952D01*
X3261904Y-59333333D01*
X3023809Y-59333333D01*
X2928571Y-59380952D01*
X2880952Y-59428571D01*
X2833333Y-59523809D01*
X2833333Y-59714285D01*
X2880952Y-59809523D01*
X2928571Y-59857142D01*
X3023809Y-59904761D01*
X7166666Y-54952380D02*
X7166666Y-55666666D01*
X7119047Y-55809523D01*
X7023809Y-55904761D01*
X6880952Y-55952380D01*
X6785714Y-55952380D01*
X8119047Y-54952380D02*
X7642857Y-54952380D01*
X7595238Y-55428571D01*
X7642857Y-55380952D01*
X7738095Y-55333333D01*
X7976190Y-55333333D01*
X8071428Y-55380952D01*
X8119047Y-55428571D01*
X8166666Y-55523809D01*
X8166666Y-55761904D01*
X8119047Y-55857142D01*
X8071428Y-55904761D01*
X7976190Y-55952380D01*
X7738095Y-55952380D01*
X7642857Y-55904761D01*
X7595238Y-55857142D01*
X17452380Y-60333333D02*
X18166666Y-60333333D01*
X18309523Y-60380952D01*
X18404761Y-60476190D01*
X18452380Y-60619047D01*
X18452380Y-60714285D01*
X17785714Y-59428571D02*
X18452380Y-59428571D01*
X17404761Y-59666666D02*
X18119047Y-59904761D01*
X18119047Y-59285714D01*
X1452380Y-16333333D02*
X2166666Y-16333333D01*
X2309523Y-16380952D01*
X2404761Y-16476190D01*
X2452380Y-16619047D01*
X2452380Y-16714285D01*
X1452380Y-15952380D02*
X1452380Y-15333333D01*
X1833333Y-15666666D01*
X1833333Y-15523809D01*
X1880952Y-15428571D01*
X1928571Y-15380952D01*
X2023809Y-15333333D01*
X2261904Y-15333333D01*
X2357142Y-15380952D01*
X2404761Y-15428571D01*
X2452380Y-15523809D01*
X2452380Y-15809523D01*
X2404761Y-15904761D01*
X2357142Y-15952380D01*
X6107142Y-23071428D02*
X6107142Y-21928571D01*
X6107142Y-10071428D02*
X6107142Y-8928571D01*
X6678571Y-9500000D02*
X5535714Y-9500000D01*
X22666666Y-40122380D02*
X22666666Y-40836666D01*
X22619047Y-40979523D01*
X22523809Y-41074761D01*
X22380952Y-41122380D01*
X22285714Y-41122380D01*
X23666666Y-41122380D02*
X23095238Y-41122380D01*
X23380952Y-41122380D02*
X23380952Y-40122380D01*
X23285714Y-40265238D01*
X23190476Y-40360476D01*
X23095238Y-40408095D01*
X46635714Y-1732380D02*
X46635714Y-732380D01*
X46873809Y-732380D01*
X47016666Y-780000D01*
X47111904Y-875238D01*
X47159523Y-970476D01*
X47207142Y-1160952D01*
X47207142Y-1303809D01*
X47159523Y-1494285D01*
X47111904Y-1589523D01*
X47016666Y-1684761D01*
X46873809Y-1732380D01*
X46635714Y-1732380D01*
X48159523Y-1732380D02*
X47588095Y-1732380D01*
X47873809Y-1732380D02*
X47873809Y-732380D01*
X47778571Y-875238D01*
X47683333Y-970476D01*
X47588095Y-1018095D01*
X49016666Y-1065714D02*
X49016666Y-1732380D01*
X48778571Y-684761D02*
X48540476Y-1399047D01*
X49159523Y-1399047D01*
X41238095Y-2852380D02*
X41238095Y-1852380D01*
X41809523Y-2852380D02*
X41380952Y-2280952D01*
X41809523Y-1852380D02*
X41238095Y-2423809D01*
X27452380Y-46738095D02*
X26452380Y-46738095D01*
X26452380Y-46500000D01*
X26500000Y-46357142D01*
X26595238Y-46261904D01*
X26690476Y-46214285D01*
X26880952Y-46166666D01*
X27023809Y-46166666D01*
X27214285Y-46214285D01*
X27309523Y-46261904D01*
X27404761Y-46357142D01*
X27452380Y-46500000D01*
X27452380Y-46738095D01*
X27452380Y-45214285D02*
X27452380Y-45785714D01*
X27452380Y-45500000D02*
X26452380Y-45500000D01*
X26595238Y-45595238D01*
X26690476Y-45690476D01*
X26738095Y-45785714D01*
X26857142Y-36666666D02*
X26904761Y-36714285D01*
X26952380Y-36857142D01*
X26952380Y-36952380D01*
X26904761Y-37095238D01*
X26809523Y-37190476D01*
X26714285Y-37238095D01*
X26523809Y-37285714D01*
X26380952Y-37285714D01*
X26190476Y-37238095D01*
X26095238Y-37190476D01*
X26000000Y-37095238D01*
X25952380Y-36952380D01*
X25952380Y-36857142D01*
X26000000Y-36714285D01*
X26047619Y-36666666D01*
X25952380Y-36333333D02*
X25952380Y-35666666D01*
X26952380Y-36095238D01*
X26857142Y-31666666D02*
X26904761Y-31714285D01*
X26952380Y-31857142D01*
X26952380Y-31952380D01*
X26904761Y-32095238D01*
X26809523Y-32190476D01*
X26714285Y-32238095D01*
X26523809Y-32285714D01*
X26380952Y-32285714D01*
X26190476Y-32238095D01*
X26095238Y-32190476D01*
X26000000Y-32095238D01*
X25952380Y-31952380D01*
X25952380Y-31857142D01*
X26000000Y-31714285D01*
X26047619Y-31666666D01*
X25952380Y-30809523D02*
X25952380Y-31000000D01*
X26000000Y-31095238D01*
X26047619Y-31142857D01*
X26190476Y-31238095D01*
X26380952Y-31285714D01*
X26761904Y-31285714D01*
X26857142Y-31238095D01*
X26904761Y-31190476D01*
X26952380Y-31095238D01*
X26952380Y-30904761D01*
X26904761Y-30809523D01*
X26857142Y-30761904D01*
X26761904Y-30714285D01*
X26523809Y-30714285D01*
X26428571Y-30761904D01*
X26380952Y-30809523D01*
X26333333Y-30904761D01*
X26333333Y-31095238D01*
X26380952Y-31190476D01*
X26428571Y-31238095D01*
X26523809Y-31285714D01*
X34057142Y-20666666D02*
X34104761Y-20714285D01*
X34152380Y-20857142D01*
X34152380Y-20952380D01*
X34104761Y-21095238D01*
X34009523Y-21190476D01*
X33914285Y-21238095D01*
X33723809Y-21285714D01*
X33580952Y-21285714D01*
X33390476Y-21238095D01*
X33295238Y-21190476D01*
X33200000Y-21095238D01*
X33152380Y-20952380D01*
X33152380Y-20857142D01*
X33200000Y-20714285D01*
X33247619Y-20666666D01*
X33152380Y-19761904D02*
X33152380Y-20238095D01*
X33628571Y-20285714D01*
X33580952Y-20238095D01*
X33533333Y-20142857D01*
X33533333Y-19904761D01*
X33580952Y-19809523D01*
X33628571Y-19761904D01*
X33723809Y-19714285D01*
X33961904Y-19714285D01*
X34057142Y-19761904D01*
X34104761Y-19809523D01*
X34152380Y-19904761D01*
X34152380Y-20142857D01*
X34104761Y-20238095D01*
X34057142Y-20285714D01*
X22157142Y-20666666D02*
X22204761Y-20714285D01*
X22252380Y-20857142D01*
X22252380Y-20952380D01*
X22204761Y-21095238D01*
X22109523Y-21190476D01*
X22014285Y-21238095D01*
X21823809Y-21285714D01*
X21680952Y-21285714D01*
X21490476Y-21238095D01*
X21395238Y-21190476D01*
X21300000Y-21095238D01*
X21252380Y-20952380D01*
X21252380Y-20857142D01*
X21300000Y-20714285D01*
X21347619Y-20666666D01*
X21585714Y-19809523D02*
X22252380Y-19809523D01*
X21204761Y-20047619D02*
X21919047Y-20285714D01*
X21919047Y-19666666D01*
X46357142Y-31666666D02*
X46404761Y-31714285D01*
X46452380Y-31857142D01*
X46452380Y-31952380D01*
X46404761Y-32095238D01*
X46309523Y-32190476D01*
X46214285Y-32238095D01*
X46023809Y-32285714D01*
X45880952Y-32285714D01*
X45690476Y-32238095D01*
X45595238Y-32190476D01*
X45500000Y-32095238D01*
X45452380Y-31952380D01*
X45452380Y-31857142D01*
X45500000Y-31714285D01*
X45547619Y-31666666D01*
X45452380Y-31333333D02*
X45452380Y-30714285D01*
X45833333Y-31047619D01*
X45833333Y-30904761D01*
X45880952Y-30809523D01*
X45928571Y-30761904D01*
X46023809Y-30714285D01*
X46261904Y-30714285D01*
X46357142Y-30761904D01*
X46404761Y-30809523D01*
X46452380Y-30904761D01*
X46452380Y-31190476D01*
X46404761Y-31285714D01*
X46357142Y-31333333D01*
X63333333Y-33857142D02*
X63285714Y-33904761D01*
X63142857Y-33952380D01*
X63047619Y-33952380D01*
X62904761Y-33904761D01*
X62809523Y-33809523D01*
X62761904Y-33714285D01*
X62714285Y-33523809D01*
X62714285Y-33380952D01*
X62761904Y-33190476D01*
X62809523Y-33095238D01*
X62904761Y-33000000D01*
X63047619Y-32952380D01*
X63142857Y-32952380D01*
X63285714Y-33000000D01*
X63333333Y-33047619D01*
X63714285Y-33047619D02*
X63761904Y-33000000D01*
X63857142Y-32952380D01*
X64095238Y-32952380D01*
X64190476Y-33000000D01*
X64238095Y-33047619D01*
X64285714Y-33142857D01*
X64285714Y-33238095D01*
X64238095Y-33380952D01*
X63666666Y-33952380D01*
X64285714Y-33952380D01*
X18333333Y-50857142D02*
X18285714Y-50904761D01*
X18142857Y-50952380D01*
X18047619Y-50952380D01*
X17904761Y-50904761D01*
X17809523Y-50809523D01*
X17761904Y-50714285D01*
X17714285Y-50523809D01*
X17714285Y-50380952D01*
X17761904Y-50190476D01*
X17809523Y-50095238D01*
X17904761Y-50000000D01*
X18047619Y-49952380D01*
X18142857Y-49952380D01*
X18285714Y-50000000D01*
X18333333Y-50047619D01*
X19285714Y-50952380D02*
X18714285Y-50952380D01*
X19000000Y-50952380D02*
X19000000Y-49952380D01*
X18904761Y-50095238D01*
X18809523Y-50190476D01*
X18714285Y-50238095D01*
M02*
