G04 #@! TF.GenerationSoftware,KiCad,Pcbnew,(5.1.10)-1*
G04 #@! TF.CreationDate,2021-09-08T13:47:50+09:00*
G04 #@! TF.ProjectId,driver_v0.3,64726976-6572-45f7-9630-2e332e6b6963,rev?*
G04 #@! TF.SameCoordinates,Original*
G04 #@! TF.FileFunction,Soldermask,Top*
G04 #@! TF.FilePolarity,Negative*
%FSLAX46Y46*%
G04 Gerber Fmt 4.6, Leading zero omitted, Abs format (unit mm)*
G04 Created by KiCad (PCBNEW (5.1.10)-1) date 2021-09-08 13:47:50*
%MOMM*%
%LPD*%
G01*
G04 APERTURE LIST*
%ADD10C,3.200000*%
%ADD11O,1.800000X1.275000*%
%ADD12R,1.800000X1.275000*%
%ADD13O,3.500000X3.500000*%
%ADD14R,1.500000X2.000000*%
%ADD15R,3.800000X2.000000*%
%ADD16R,2.000000X0.900000*%
%ADD17R,0.900000X2.000000*%
%ADD18R,5.000000X5.000000*%
%ADD19R,2.000000X1.300000*%
%ADD20O,2.000000X1.905000*%
%ADD21R,2.000000X1.905000*%
%ADD22C,3.600000*%
%ADD23O,1.750000X1.200000*%
%ADD24O,1.200000X1.750000*%
%ADD25C,4.000000*%
%ADD26R,3.800000X3.800000*%
%ADD27O,1.700000X1.700000*%
%ADD28R,1.700000X1.700000*%
%ADD29O,3.200000X3.200000*%
%ADD30R,3.200000X3.200000*%
G04 APERTURE END LIST*
D10*
X34000000Y-43000000D03*
X60000000Y-29000000D03*
X5000000Y-5000000D03*
D11*
X31500000Y-3700000D03*
X31500000Y-5400000D03*
X31500000Y-7100000D03*
X31500000Y-8800000D03*
D12*
X31500000Y-10500000D03*
D13*
X14840000Y-7100000D03*
D14*
X36800000Y-29850000D03*
X32200000Y-29850000D03*
X34500000Y-29850000D03*
D15*
X34500000Y-36150000D03*
D16*
X41500000Y-57255000D03*
X41500000Y-55985000D03*
X41500000Y-54715000D03*
X41500000Y-53445000D03*
X41500000Y-52175000D03*
X41500000Y-50905000D03*
X41500000Y-49635000D03*
X41500000Y-48365000D03*
X41500000Y-47095000D03*
X41500000Y-45825000D03*
X41500000Y-44555000D03*
X41500000Y-43285000D03*
X41500000Y-42015000D03*
X41500000Y-40745000D03*
D17*
X44285000Y-39745000D03*
X45555000Y-39745000D03*
X46825000Y-39745000D03*
X48095000Y-39745000D03*
X49365000Y-39745000D03*
X50635000Y-39745000D03*
X51905000Y-39745000D03*
X53175000Y-39745000D03*
X54445000Y-39745000D03*
X55715000Y-39745000D03*
D16*
X58500000Y-40745000D03*
X58500000Y-42015000D03*
X58500000Y-43285000D03*
X58500000Y-44555000D03*
X58500000Y-45825000D03*
X58500000Y-47095000D03*
X58500000Y-48365000D03*
X58500000Y-49635000D03*
X58500000Y-50905000D03*
X58500000Y-52175000D03*
X58500000Y-53445000D03*
X58500000Y-54715000D03*
X58500000Y-55985000D03*
X58500000Y-57255000D03*
D18*
X51000000Y-49755000D03*
D19*
X50000000Y-33550000D03*
X50000000Y-29450000D03*
X56000000Y-33550000D03*
X56000000Y-29450000D03*
G36*
G01*
X28775000Y-41575000D02*
X28225000Y-41575000D01*
G75*
G02*
X28025000Y-41375000I0J200000D01*
G01*
X28025000Y-40975000D01*
G75*
G02*
X28225000Y-40775000I200000J0D01*
G01*
X28775000Y-40775000D01*
G75*
G02*
X28975000Y-40975000I0J-200000D01*
G01*
X28975000Y-41375000D01*
G75*
G02*
X28775000Y-41575000I-200000J0D01*
G01*
G37*
G36*
G01*
X28775000Y-43225000D02*
X28225000Y-43225000D01*
G75*
G02*
X28025000Y-43025000I0J200000D01*
G01*
X28025000Y-42625000D01*
G75*
G02*
X28225000Y-42425000I200000J0D01*
G01*
X28775000Y-42425000D01*
G75*
G02*
X28975000Y-42625000I0J-200000D01*
G01*
X28975000Y-43025000D01*
G75*
G02*
X28775000Y-43225000I-200000J0D01*
G01*
G37*
G36*
G01*
X15075000Y-52225000D02*
X15075000Y-52775000D01*
G75*
G02*
X14875000Y-52975000I-200000J0D01*
G01*
X14475000Y-52975000D01*
G75*
G02*
X14275000Y-52775000I0J200000D01*
G01*
X14275000Y-52225000D01*
G75*
G02*
X14475000Y-52025000I200000J0D01*
G01*
X14875000Y-52025000D01*
G75*
G02*
X15075000Y-52225000I0J-200000D01*
G01*
G37*
G36*
G01*
X16725000Y-52225000D02*
X16725000Y-52775000D01*
G75*
G02*
X16525000Y-52975000I-200000J0D01*
G01*
X16125000Y-52975000D01*
G75*
G02*
X15925000Y-52775000I0J200000D01*
G01*
X15925000Y-52225000D01*
G75*
G02*
X16125000Y-52025000I200000J0D01*
G01*
X16525000Y-52025000D01*
G75*
G02*
X16725000Y-52225000I0J-200000D01*
G01*
G37*
G36*
G01*
X43775000Y-34075000D02*
X43225000Y-34075000D01*
G75*
G02*
X43025000Y-33875000I0J200000D01*
G01*
X43025000Y-33475000D01*
G75*
G02*
X43225000Y-33275000I200000J0D01*
G01*
X43775000Y-33275000D01*
G75*
G02*
X43975000Y-33475000I0J-200000D01*
G01*
X43975000Y-33875000D01*
G75*
G02*
X43775000Y-34075000I-200000J0D01*
G01*
G37*
G36*
G01*
X43775000Y-35725000D02*
X43225000Y-35725000D01*
G75*
G02*
X43025000Y-35525000I0J200000D01*
G01*
X43025000Y-35125000D01*
G75*
G02*
X43225000Y-34925000I200000J0D01*
G01*
X43775000Y-34925000D01*
G75*
G02*
X43975000Y-35125000I0J-200000D01*
G01*
X43975000Y-35525000D01*
G75*
G02*
X43775000Y-35725000I-200000J0D01*
G01*
G37*
G36*
G01*
X60575000Y-35225000D02*
X60575000Y-35775000D01*
G75*
G02*
X60375000Y-35975000I-200000J0D01*
G01*
X59975000Y-35975000D01*
G75*
G02*
X59775000Y-35775000I0J200000D01*
G01*
X59775000Y-35225000D01*
G75*
G02*
X59975000Y-35025000I200000J0D01*
G01*
X60375000Y-35025000D01*
G75*
G02*
X60575000Y-35225000I0J-200000D01*
G01*
G37*
G36*
G01*
X62225000Y-35225000D02*
X62225000Y-35775000D01*
G75*
G02*
X62025000Y-35975000I-200000J0D01*
G01*
X61625000Y-35975000D01*
G75*
G02*
X61425000Y-35775000I0J200000D01*
G01*
X61425000Y-35225000D01*
G75*
G02*
X61625000Y-35025000I200000J0D01*
G01*
X62025000Y-35025000D01*
G75*
G02*
X62225000Y-35225000I0J-200000D01*
G01*
G37*
G36*
G01*
X40725000Y-34925000D02*
X41275000Y-34925000D01*
G75*
G02*
X41475000Y-35125000I0J-200000D01*
G01*
X41475000Y-35525000D01*
G75*
G02*
X41275000Y-35725000I-200000J0D01*
G01*
X40725000Y-35725000D01*
G75*
G02*
X40525000Y-35525000I0J200000D01*
G01*
X40525000Y-35125000D01*
G75*
G02*
X40725000Y-34925000I200000J0D01*
G01*
G37*
G36*
G01*
X40725000Y-33275000D02*
X41275000Y-33275000D01*
G75*
G02*
X41475000Y-33475000I0J-200000D01*
G01*
X41475000Y-33875000D01*
G75*
G02*
X41275000Y-34075000I-200000J0D01*
G01*
X40725000Y-34075000D01*
G75*
G02*
X40525000Y-33875000I0J200000D01*
G01*
X40525000Y-33475000D01*
G75*
G02*
X40725000Y-33275000I200000J0D01*
G01*
G37*
G36*
G01*
X61425000Y-37775000D02*
X61425000Y-37225000D01*
G75*
G02*
X61625000Y-37025000I200000J0D01*
G01*
X62025000Y-37025000D01*
G75*
G02*
X62225000Y-37225000I0J-200000D01*
G01*
X62225000Y-37775000D01*
G75*
G02*
X62025000Y-37975000I-200000J0D01*
G01*
X61625000Y-37975000D01*
G75*
G02*
X61425000Y-37775000I0J200000D01*
G01*
G37*
G36*
G01*
X59775000Y-37775000D02*
X59775000Y-37225000D01*
G75*
G02*
X59975000Y-37025000I200000J0D01*
G01*
X60375000Y-37025000D01*
G75*
G02*
X60575000Y-37225000I0J-200000D01*
G01*
X60575000Y-37775000D01*
G75*
G02*
X60375000Y-37975000I-200000J0D01*
G01*
X59975000Y-37975000D01*
G75*
G02*
X59775000Y-37775000I0J200000D01*
G01*
G37*
D20*
X23000000Y-30920000D03*
X23000000Y-33460000D03*
D21*
X23000000Y-36000000D03*
D13*
X6340000Y-33460000D03*
D22*
X49000000Y-22440000D03*
X49000000Y-11000000D03*
D23*
X10000000Y-45000000D03*
G36*
G01*
X9374999Y-42400000D02*
X10625001Y-42400000D01*
G75*
G02*
X10875000Y-42649999I0J-249999D01*
G01*
X10875000Y-43350001D01*
G75*
G02*
X10625001Y-43600000I-249999J0D01*
G01*
X9374999Y-43600000D01*
G75*
G02*
X9125000Y-43350001I0J249999D01*
G01*
X9125000Y-42649999D01*
G75*
G02*
X9374999Y-42400000I249999J0D01*
G01*
G37*
D24*
X14000000Y-60000000D03*
X12000000Y-60000000D03*
X10000000Y-60000000D03*
X8000000Y-60000000D03*
G36*
G01*
X5400000Y-60625001D02*
X5400000Y-59374999D01*
G75*
G02*
X5649999Y-59125000I249999J0D01*
G01*
X6350001Y-59125000D01*
G75*
G02*
X6600000Y-59374999I0J-249999D01*
G01*
X6600000Y-60625001D01*
G75*
G02*
X6350001Y-60875000I-249999J0D01*
G01*
X5649999Y-60875000D01*
G75*
G02*
X5400000Y-60625001I0J249999D01*
G01*
G37*
D23*
X10000000Y-52500000D03*
G36*
G01*
X9374999Y-49900000D02*
X10625001Y-49900000D01*
G75*
G02*
X10875000Y-50149999I0J-249999D01*
G01*
X10875000Y-50850001D01*
G75*
G02*
X10625001Y-51100000I-249999J0D01*
G01*
X9374999Y-51100000D01*
G75*
G02*
X9125000Y-50850001I0J249999D01*
G01*
X9125000Y-50149999D01*
G75*
G02*
X9374999Y-49900000I249999J0D01*
G01*
G37*
D24*
X29000000Y-60000000D03*
X27000000Y-60000000D03*
X25000000Y-60000000D03*
X23000000Y-60000000D03*
G36*
G01*
X20400000Y-60625001D02*
X20400000Y-59374999D01*
G75*
G02*
X20649999Y-59125000I249999J0D01*
G01*
X21350001Y-59125000D01*
G75*
G02*
X21600000Y-59374999I0J-249999D01*
G01*
X21600000Y-60625001D01*
G75*
G02*
X21350001Y-60875000I-249999J0D01*
G01*
X20649999Y-60875000D01*
G75*
G02*
X20400000Y-60625001I0J249999D01*
G01*
G37*
D25*
X6000000Y-13500000D03*
D26*
X6000000Y-18500000D03*
D27*
X23000000Y-48080000D03*
X23000000Y-45540000D03*
D28*
X23000000Y-43000000D03*
D29*
X54200000Y-5000000D03*
D30*
X41500000Y-5000000D03*
G36*
G01*
X28049999Y-46450000D02*
X28950001Y-46450000D01*
G75*
G02*
X29200000Y-46699999I0J-249999D01*
G01*
X29200000Y-47350001D01*
G75*
G02*
X28950001Y-47600000I-249999J0D01*
G01*
X28049999Y-47600000D01*
G75*
G02*
X27800000Y-47350001I0J249999D01*
G01*
X27800000Y-46699999D01*
G75*
G02*
X28049999Y-46450000I249999J0D01*
G01*
G37*
G36*
G01*
X28049999Y-44400000D02*
X28950001Y-44400000D01*
G75*
G02*
X29200000Y-44649999I0J-249999D01*
G01*
X29200000Y-45300001D01*
G75*
G02*
X28950001Y-45550000I-249999J0D01*
G01*
X28049999Y-45550000D01*
G75*
G02*
X27800000Y-45300001I0J249999D01*
G01*
X27800000Y-44649999D01*
G75*
G02*
X28049999Y-44400000I249999J0D01*
G01*
G37*
G36*
G01*
X29150001Y-36100000D02*
X27849999Y-36100000D01*
G75*
G02*
X27600000Y-35850001I0J249999D01*
G01*
X27600000Y-35024999D01*
G75*
G02*
X27849999Y-34775000I249999J0D01*
G01*
X29150001Y-34775000D01*
G75*
G02*
X29400000Y-35024999I0J-249999D01*
G01*
X29400000Y-35850001D01*
G75*
G02*
X29150001Y-36100000I-249999J0D01*
G01*
G37*
G36*
G01*
X29150001Y-39225000D02*
X27849999Y-39225000D01*
G75*
G02*
X27600000Y-38975001I0J249999D01*
G01*
X27600000Y-38149999D01*
G75*
G02*
X27849999Y-37900000I249999J0D01*
G01*
X29150001Y-37900000D01*
G75*
G02*
X29400000Y-38149999I0J-249999D01*
G01*
X29400000Y-38975001D01*
G75*
G02*
X29150001Y-39225000I-249999J0D01*
G01*
G37*
G36*
G01*
X27849999Y-32400000D02*
X29150001Y-32400000D01*
G75*
G02*
X29400000Y-32649999I0J-249999D01*
G01*
X29400000Y-33475001D01*
G75*
G02*
X29150001Y-33725000I-249999J0D01*
G01*
X27849999Y-33725000D01*
G75*
G02*
X27600000Y-33475001I0J249999D01*
G01*
X27600000Y-32649999D01*
G75*
G02*
X27849999Y-32400000I249999J0D01*
G01*
G37*
G36*
G01*
X27849999Y-29275000D02*
X29150001Y-29275000D01*
G75*
G02*
X29400000Y-29524999I0J-249999D01*
G01*
X29400000Y-30350001D01*
G75*
G02*
X29150001Y-30600000I-249999J0D01*
G01*
X27849999Y-30600000D01*
G75*
G02*
X27600000Y-30350001I0J249999D01*
G01*
X27600000Y-29524999D01*
G75*
G02*
X27849999Y-29275000I249999J0D01*
G01*
G37*
G36*
G01*
X27800000Y-21900000D02*
X29200000Y-21900000D01*
G75*
G02*
X29450000Y-22150000I0J-250000D01*
G01*
X29450000Y-25800000D01*
G75*
G02*
X29200000Y-26050000I-250000J0D01*
G01*
X27800000Y-26050000D01*
G75*
G02*
X27550000Y-25800000I0J250000D01*
G01*
X27550000Y-22150000D01*
G75*
G02*
X27800000Y-21900000I250000J0D01*
G01*
G37*
G36*
G01*
X27800000Y-14950000D02*
X29200000Y-14950000D01*
G75*
G02*
X29450000Y-15200000I0J-250000D01*
G01*
X29450000Y-18850000D01*
G75*
G02*
X29200000Y-19100000I-250000J0D01*
G01*
X27800000Y-19100000D01*
G75*
G02*
X27550000Y-18850000I0J250000D01*
G01*
X27550000Y-15200000D01*
G75*
G02*
X27800000Y-14950000I250000J0D01*
G01*
G37*
G36*
G01*
X15500000Y-22000000D02*
X17500000Y-22000000D01*
G75*
G02*
X17750000Y-22250000I0J-250000D01*
G01*
X17750000Y-26150000D01*
G75*
G02*
X17500000Y-26400000I-250000J0D01*
G01*
X15500000Y-26400000D01*
G75*
G02*
X15250000Y-26150000I0J250000D01*
G01*
X15250000Y-22250000D01*
G75*
G02*
X15500000Y-22000000I250000J0D01*
G01*
G37*
G36*
G01*
X15500000Y-14600000D02*
X17500000Y-14600000D01*
G75*
G02*
X17750000Y-14850000I0J-250000D01*
G01*
X17750000Y-18750000D01*
G75*
G02*
X17500000Y-19000000I-250000J0D01*
G01*
X15500000Y-19000000D01*
G75*
G02*
X15250000Y-18750000I0J250000D01*
G01*
X15250000Y-14850000D01*
G75*
G02*
X15500000Y-14600000I250000J0D01*
G01*
G37*
G36*
G01*
X45750000Y-34825000D02*
X46250000Y-34825000D01*
G75*
G02*
X46475000Y-35050000I0J-225000D01*
G01*
X46475000Y-35500000D01*
G75*
G02*
X46250000Y-35725000I-225000J0D01*
G01*
X45750000Y-35725000D01*
G75*
G02*
X45525000Y-35500000I0J225000D01*
G01*
X45525000Y-35050000D01*
G75*
G02*
X45750000Y-34825000I225000J0D01*
G01*
G37*
G36*
G01*
X45750000Y-33275000D02*
X46250000Y-33275000D01*
G75*
G02*
X46475000Y-33500000I0J-225000D01*
G01*
X46475000Y-33950000D01*
G75*
G02*
X46250000Y-34175000I-225000J0D01*
G01*
X45750000Y-34175000D01*
G75*
G02*
X45525000Y-33950000I0J225000D01*
G01*
X45525000Y-33500000D01*
G75*
G02*
X45750000Y-33275000I225000J0D01*
G01*
G37*
G36*
G01*
X61325000Y-33750000D02*
X61325000Y-33250000D01*
G75*
G02*
X61550000Y-33025000I225000J0D01*
G01*
X62000000Y-33025000D01*
G75*
G02*
X62225000Y-33250000I0J-225000D01*
G01*
X62225000Y-33750000D01*
G75*
G02*
X62000000Y-33975000I-225000J0D01*
G01*
X61550000Y-33975000D01*
G75*
G02*
X61325000Y-33750000I0J225000D01*
G01*
G37*
G36*
G01*
X59775000Y-33750000D02*
X59775000Y-33250000D01*
G75*
G02*
X60000000Y-33025000I225000J0D01*
G01*
X60450000Y-33025000D01*
G75*
G02*
X60675000Y-33250000I0J-225000D01*
G01*
X60675000Y-33750000D01*
G75*
G02*
X60450000Y-33975000I-225000J0D01*
G01*
X60000000Y-33975000D01*
G75*
G02*
X59775000Y-33750000I0J225000D01*
G01*
G37*
G36*
G01*
X15175000Y-50250000D02*
X15175000Y-50750000D01*
G75*
G02*
X14950000Y-50975000I-225000J0D01*
G01*
X14500000Y-50975000D01*
G75*
G02*
X14275000Y-50750000I0J225000D01*
G01*
X14275000Y-50250000D01*
G75*
G02*
X14500000Y-50025000I225000J0D01*
G01*
X14950000Y-50025000D01*
G75*
G02*
X15175000Y-50250000I0J-225000D01*
G01*
G37*
G36*
G01*
X16725000Y-50250000D02*
X16725000Y-50750000D01*
G75*
G02*
X16500000Y-50975000I-225000J0D01*
G01*
X16050000Y-50975000D01*
G75*
G02*
X15825000Y-50750000I0J225000D01*
G01*
X15825000Y-50250000D01*
G75*
G02*
X16050000Y-50025000I225000J0D01*
G01*
X16500000Y-50025000D01*
G75*
G02*
X16725000Y-50250000I0J-225000D01*
G01*
G37*
M02*
