G04 #@! TF.GenerationSoftware,KiCad,Pcbnew,(5.1.10)-1*
G04 #@! TF.CreationDate,2021-07-07T16:36:37+09:00*
G04 #@! TF.ProjectId,driver,64726976-6572-42e6-9b69-6361645f7063,rev?*
G04 #@! TF.SameCoordinates,Original*
G04 #@! TF.FileFunction,Legend,Top*
G04 #@! TF.FilePolarity,Positive*
%FSLAX46Y46*%
G04 Gerber Fmt 4.6, Leading zero omitted, Abs format (unit mm)*
G04 Created by KiCad (PCBNEW (5.1.10)-1) date 2021-07-07 16:36:37*
%MOMM*%
%LPD*%
G01*
G04 APERTURE LIST*
%ADD10C,0.150000*%
%ADD11C,0.120000*%
%ADD12C,0.200000*%
%ADD13C,0.127000*%
%ADD14C,0.066040*%
%ADD15C,0.152400*%
%ADD16C,0.100000*%
%ADD17C,0.101600*%
G04 APERTURE END LIST*
D10*
X79047619Y-31190476D02*
X79000000Y-31142857D01*
X78952380Y-31047619D01*
X78952380Y-30809523D01*
X79000000Y-30714285D01*
X79047619Y-30666666D01*
X79142857Y-30619047D01*
X79238095Y-30619047D01*
X79380952Y-30666666D01*
X79952380Y-31238095D01*
X79952380Y-30619047D01*
X79285714Y-29761904D02*
X79952380Y-29761904D01*
X78904761Y-30000000D02*
X79619047Y-30238095D01*
X79619047Y-29619047D01*
X78952380Y-29380952D02*
X79952380Y-29047619D01*
X78952380Y-28714285D01*
X76000000Y-29738095D02*
X75952380Y-29833333D01*
X75952380Y-29976190D01*
X76000000Y-30119047D01*
X76095238Y-30214285D01*
X76190476Y-30261904D01*
X76380952Y-30309523D01*
X76523809Y-30309523D01*
X76714285Y-30261904D01*
X76809523Y-30214285D01*
X76904761Y-30119047D01*
X76952380Y-29976190D01*
X76952380Y-29880952D01*
X76904761Y-29738095D01*
X76857142Y-29690476D01*
X76523809Y-29690476D01*
X76523809Y-29880952D01*
X18761904Y-29500000D02*
X18666666Y-29452380D01*
X18523809Y-29452380D01*
X18380952Y-29500000D01*
X18285714Y-29595238D01*
X18238095Y-29690476D01*
X18190476Y-29880952D01*
X18190476Y-30023809D01*
X18238095Y-30214285D01*
X18285714Y-30309523D01*
X18380952Y-30404761D01*
X18523809Y-30452380D01*
X18619047Y-30452380D01*
X18761904Y-30404761D01*
X18809523Y-30357142D01*
X18809523Y-30023809D01*
X18619047Y-30023809D01*
X14952380Y-30190476D02*
X14952380Y-30666666D01*
X15428571Y-30714285D01*
X15380952Y-30666666D01*
X15333333Y-30571428D01*
X15333333Y-30333333D01*
X15380952Y-30238095D01*
X15428571Y-30190476D01*
X15523809Y-30142857D01*
X15761904Y-30142857D01*
X15857142Y-30190476D01*
X15904761Y-30238095D01*
X15952380Y-30333333D01*
X15952380Y-30571428D01*
X15904761Y-30666666D01*
X15857142Y-30714285D01*
X14952380Y-29857142D02*
X15952380Y-29523809D01*
X14952380Y-29190476D01*
D11*
X92830000Y-32330000D02*
X91500000Y-32330000D01*
X92830000Y-31000000D02*
X92830000Y-32330000D01*
X90230000Y-32330000D02*
X87630000Y-32330000D01*
X90230000Y-29730000D02*
X90230000Y-32330000D01*
X92830000Y-29730000D02*
X90230000Y-29730000D01*
X87630000Y-32330000D02*
X87630000Y-19510000D01*
X92830000Y-29730000D02*
X92830000Y-19510000D01*
X92830000Y-19510000D02*
X87630000Y-19510000D01*
D12*
X65600000Y-33250000D02*
G75*
G03*
X65600000Y-33250000I-100000J0D01*
G01*
D13*
X64500000Y-15900000D02*
X64500000Y-15250000D01*
X64500000Y-15250000D02*
X62050000Y-15250000D01*
X48950000Y-15250000D02*
X46500000Y-15250000D01*
X46500000Y-15250000D02*
X46500000Y-15900000D01*
X64500000Y-34250000D02*
X64500000Y-40750000D01*
X64500000Y-40750000D02*
X46500000Y-40750000D01*
X46500000Y-40750000D02*
X46500000Y-34250000D01*
D11*
X10190000Y-26935000D02*
X14100000Y-26935000D01*
X10190000Y-25065000D02*
X10190000Y-26935000D01*
X14100000Y-25065000D02*
X10190000Y-25065000D01*
X15900000Y-26935000D02*
X19810000Y-26935000D01*
X19810000Y-26935000D02*
X19810000Y-25065000D01*
X19810000Y-25065000D02*
X15900000Y-25065000D01*
X10353733Y-30490000D02*
X10646267Y-30490000D01*
X10353733Y-31510000D02*
X10646267Y-31510000D01*
X27045000Y-26710000D02*
X23955000Y-26710000D01*
X28000000Y-29270000D02*
G75*
G03*
X28000000Y-29270000I-2500000J0D01*
G01*
X25500462Y-32260000D02*
G75*
G02*
X23955170Y-26710000I-462J2990000D01*
G01*
X25499538Y-32260000D02*
G75*
G03*
X27044830Y-26710000I462J2990000D01*
G01*
X35000000Y-29270000D02*
G75*
G03*
X35000000Y-29270000I-2500000J0D01*
G01*
X34045000Y-26710000D02*
X30955000Y-26710000D01*
X32499538Y-32260000D02*
G75*
G03*
X34044830Y-26710000I462J2990000D01*
G01*
X32500462Y-32260000D02*
G75*
G02*
X30955170Y-26710000I-462J2990000D01*
G01*
X8475000Y-19040000D02*
X5615000Y-19040000D01*
X5615000Y-19040000D02*
X5615000Y-20960000D01*
X5615000Y-20960000D02*
X8475000Y-20960000D01*
X77160000Y-25910000D02*
X77030000Y-25910000D01*
X77030000Y-25910000D02*
X77030000Y-20470000D01*
X77030000Y-20470000D02*
X77160000Y-20470000D01*
X79840000Y-25910000D02*
X79970000Y-25910000D01*
X79970000Y-25910000D02*
X79970000Y-20470000D01*
X79970000Y-20470000D02*
X79840000Y-20470000D01*
X77030000Y-25010000D02*
X79970000Y-25010000D01*
X77030000Y-24890000D02*
X79970000Y-24890000D01*
X77030000Y-25130000D02*
X79970000Y-25130000D01*
X75970000Y-21250000D02*
X73030000Y-21250000D01*
X75970000Y-21490000D02*
X73030000Y-21490000D01*
X75970000Y-21370000D02*
X73030000Y-21370000D01*
X73030000Y-25910000D02*
X73160000Y-25910000D01*
X73030000Y-20470000D02*
X73030000Y-25910000D01*
X73160000Y-20470000D02*
X73030000Y-20470000D01*
X75970000Y-25910000D02*
X75840000Y-25910000D01*
X75970000Y-20470000D02*
X75970000Y-25910000D01*
X75840000Y-20470000D02*
X75970000Y-20470000D01*
X19370000Y-34330000D02*
X19370000Y-31670000D01*
X16770000Y-34330000D02*
X19370000Y-34330000D01*
X16770000Y-31670000D02*
X19370000Y-31670000D01*
X16770000Y-34330000D02*
X16770000Y-31670000D01*
X15500000Y-34330000D02*
X14170000Y-34330000D01*
X14170000Y-34330000D02*
X14170000Y-33000000D01*
X80830000Y-31670000D02*
X80830000Y-33000000D01*
X79500000Y-31670000D02*
X80830000Y-31670000D01*
X78230000Y-31670000D02*
X78230000Y-34330000D01*
X78230000Y-34330000D02*
X75630000Y-34330000D01*
X78230000Y-31670000D02*
X75630000Y-31670000D01*
X75630000Y-31670000D02*
X75630000Y-34330000D01*
X38560000Y-5810000D02*
X38560000Y-1090000D01*
X38560000Y-1090000D02*
X24440000Y-1090000D01*
X24440000Y-1090000D02*
X24440000Y-5810000D01*
X24440000Y-5810000D02*
X38560000Y-5810000D01*
X36800000Y-5810000D02*
X36800000Y-6010000D01*
X36800000Y-6010000D02*
X37100000Y-6010000D01*
X37100000Y-6010000D02*
X37100000Y-5810000D01*
X36800000Y-5910000D02*
X37100000Y-5910000D01*
X36000000Y-5810000D02*
X36000000Y-5200000D01*
X36000000Y-5200000D02*
X37950000Y-5200000D01*
X37950000Y-5200000D02*
X37950000Y-1700000D01*
X37950000Y-1700000D02*
X25050000Y-1700000D01*
X25050000Y-1700000D02*
X25050000Y-5200000D01*
X25050000Y-5200000D02*
X27000000Y-5200000D01*
X27000000Y-5200000D02*
X27000000Y-5810000D01*
X38560000Y-4500000D02*
X37950000Y-4500000D01*
X38560000Y-3200000D02*
X37950000Y-3200000D01*
X24440000Y-4500000D02*
X25050000Y-4500000D01*
X24440000Y-3200000D02*
X25050000Y-3200000D01*
X35600000Y-1700000D02*
X35600000Y-2200000D01*
X35600000Y-2200000D02*
X35400000Y-2200000D01*
X35400000Y-2200000D02*
X35400000Y-1700000D01*
X35500000Y-1700000D02*
X35500000Y-2200000D01*
X33600000Y-1700000D02*
X33600000Y-2200000D01*
X33600000Y-2200000D02*
X33400000Y-2200000D01*
X33400000Y-2200000D02*
X33400000Y-1700000D01*
X33500000Y-1700000D02*
X33500000Y-2200000D01*
X31600000Y-1700000D02*
X31600000Y-2200000D01*
X31600000Y-2200000D02*
X31400000Y-2200000D01*
X31400000Y-2200000D02*
X31400000Y-1700000D01*
X31500000Y-1700000D02*
X31500000Y-2200000D01*
X29600000Y-1700000D02*
X29600000Y-2200000D01*
X29600000Y-2200000D02*
X29400000Y-2200000D01*
X29400000Y-2200000D02*
X29400000Y-1700000D01*
X29500000Y-1700000D02*
X29500000Y-2200000D01*
X27600000Y-1700000D02*
X27600000Y-2200000D01*
X27600000Y-2200000D02*
X27400000Y-2200000D01*
X27400000Y-2200000D02*
X27400000Y-1700000D01*
X27500000Y-1700000D02*
X27500000Y-2200000D01*
X37610000Y-6110000D02*
X38860000Y-6110000D01*
X38860000Y-6110000D02*
X38860000Y-4860000D01*
X5310000Y-940000D02*
X590000Y-940000D01*
X590000Y-940000D02*
X590000Y-15060000D01*
X590000Y-15060000D02*
X5310000Y-15060000D01*
X5310000Y-15060000D02*
X5310000Y-940000D01*
X5310000Y-2700000D02*
X5510000Y-2700000D01*
X5510000Y-2700000D02*
X5510000Y-2400000D01*
X5510000Y-2400000D02*
X5310000Y-2400000D01*
X5410000Y-2700000D02*
X5410000Y-2400000D01*
X5310000Y-3500000D02*
X4700000Y-3500000D01*
X4700000Y-3500000D02*
X4700000Y-1550000D01*
X4700000Y-1550000D02*
X1200000Y-1550000D01*
X1200000Y-1550000D02*
X1200000Y-14450000D01*
X1200000Y-14450000D02*
X4700000Y-14450000D01*
X4700000Y-14450000D02*
X4700000Y-12500000D01*
X4700000Y-12500000D02*
X5310000Y-12500000D01*
X4000000Y-940000D02*
X4000000Y-1550000D01*
X2700000Y-940000D02*
X2700000Y-1550000D01*
X4000000Y-15060000D02*
X4000000Y-14450000D01*
X2700000Y-15060000D02*
X2700000Y-14450000D01*
X1200000Y-3900000D02*
X1700000Y-3900000D01*
X1700000Y-3900000D02*
X1700000Y-4100000D01*
X1700000Y-4100000D02*
X1200000Y-4100000D01*
X1200000Y-4000000D02*
X1700000Y-4000000D01*
X1200000Y-5900000D02*
X1700000Y-5900000D01*
X1700000Y-5900000D02*
X1700000Y-6100000D01*
X1700000Y-6100000D02*
X1200000Y-6100000D01*
X1200000Y-6000000D02*
X1700000Y-6000000D01*
X1200000Y-7900000D02*
X1700000Y-7900000D01*
X1700000Y-7900000D02*
X1700000Y-8100000D01*
X1700000Y-8100000D02*
X1200000Y-8100000D01*
X1200000Y-8000000D02*
X1700000Y-8000000D01*
X1200000Y-9900000D02*
X1700000Y-9900000D01*
X1700000Y-9900000D02*
X1700000Y-10100000D01*
X1700000Y-10100000D02*
X1200000Y-10100000D01*
X1200000Y-10000000D02*
X1700000Y-10000000D01*
X1200000Y-11900000D02*
X1700000Y-11900000D01*
X1700000Y-11900000D02*
X1700000Y-12100000D01*
X1700000Y-12100000D02*
X1200000Y-12100000D01*
X1200000Y-12000000D02*
X1700000Y-12000000D01*
X5610000Y-1890000D02*
X5610000Y-640000D01*
X5610000Y-640000D02*
X4360000Y-640000D01*
X94390000Y-15360000D02*
X95640000Y-15360000D01*
X94390000Y-14110000D02*
X94390000Y-15360000D01*
X98800000Y-4000000D02*
X98300000Y-4000000D01*
X98300000Y-3900000D02*
X98800000Y-3900000D01*
X98300000Y-4100000D02*
X98300000Y-3900000D01*
X98800000Y-4100000D02*
X98300000Y-4100000D01*
X98800000Y-6000000D02*
X98300000Y-6000000D01*
X98300000Y-5900000D02*
X98800000Y-5900000D01*
X98300000Y-6100000D02*
X98300000Y-5900000D01*
X98800000Y-6100000D02*
X98300000Y-6100000D01*
X98800000Y-8000000D02*
X98300000Y-8000000D01*
X98300000Y-7900000D02*
X98800000Y-7900000D01*
X98300000Y-8100000D02*
X98300000Y-7900000D01*
X98800000Y-8100000D02*
X98300000Y-8100000D01*
X98800000Y-10000000D02*
X98300000Y-10000000D01*
X98300000Y-9900000D02*
X98800000Y-9900000D01*
X98300000Y-10100000D02*
X98300000Y-9900000D01*
X98800000Y-10100000D02*
X98300000Y-10100000D01*
X98800000Y-12000000D02*
X98300000Y-12000000D01*
X98300000Y-11900000D02*
X98800000Y-11900000D01*
X98300000Y-12100000D02*
X98300000Y-11900000D01*
X98800000Y-12100000D02*
X98300000Y-12100000D01*
X97300000Y-940000D02*
X97300000Y-1550000D01*
X96000000Y-940000D02*
X96000000Y-1550000D01*
X97300000Y-15060000D02*
X97300000Y-14450000D01*
X96000000Y-15060000D02*
X96000000Y-14450000D01*
X95300000Y-3500000D02*
X94690000Y-3500000D01*
X95300000Y-1550000D02*
X95300000Y-3500000D01*
X98800000Y-1550000D02*
X95300000Y-1550000D01*
X98800000Y-14450000D02*
X98800000Y-1550000D01*
X95300000Y-14450000D02*
X98800000Y-14450000D01*
X95300000Y-12500000D02*
X95300000Y-14450000D01*
X94690000Y-12500000D02*
X95300000Y-12500000D01*
X94590000Y-13300000D02*
X94590000Y-13600000D01*
X94490000Y-13600000D02*
X94690000Y-13600000D01*
X94490000Y-13300000D02*
X94490000Y-13600000D01*
X94690000Y-13300000D02*
X94490000Y-13300000D01*
X94690000Y-940000D02*
X94690000Y-15060000D01*
X99410000Y-940000D02*
X94690000Y-940000D01*
X99410000Y-15060000D02*
X99410000Y-940000D01*
X94690000Y-15060000D02*
X99410000Y-15060000D01*
D13*
X7598800Y-31098800D02*
X1401200Y-31098800D01*
X7598800Y-24901200D02*
X7598800Y-31098800D01*
X1401200Y-24901200D02*
X7598800Y-24901200D01*
X1401200Y-31098800D02*
X1401200Y-24901200D01*
D14*
X7598800Y-31098800D02*
X1401200Y-31098800D01*
X1401200Y-31098800D02*
X1401200Y-24901200D01*
X7598800Y-24901200D02*
X1401200Y-24901200D01*
X7598800Y-31098800D02*
X7598800Y-24901200D01*
D11*
X33080000Y-19270000D02*
X22840000Y-19270000D01*
X33080000Y-14629000D02*
X22840000Y-14629000D01*
X33080000Y-19270000D02*
X33080000Y-14629000D01*
X22840000Y-19270000D02*
X22840000Y-14629000D01*
X33080000Y-17760000D02*
X22840000Y-17760000D01*
X29810000Y-19270000D02*
X29810000Y-17760000D01*
X26109000Y-19270000D02*
X26109000Y-17760000D01*
X89260000Y-10580000D02*
X87800000Y-10580000D01*
X89260000Y-7420000D02*
X87100000Y-7420000D01*
X89260000Y-7420000D02*
X89260000Y-8350000D01*
X89260000Y-10580000D02*
X89260000Y-9650000D01*
X87740000Y-11420000D02*
X89200000Y-11420000D01*
X87740000Y-14580000D02*
X89900000Y-14580000D01*
X87740000Y-14580000D02*
X87740000Y-13650000D01*
X87740000Y-11420000D02*
X87740000Y-12350000D01*
X10740000Y-6420000D02*
X10740000Y-7350000D01*
X10740000Y-9580000D02*
X10740000Y-8650000D01*
X10740000Y-9580000D02*
X12900000Y-9580000D01*
X10740000Y-6420000D02*
X12200000Y-6420000D01*
X12260000Y-5580000D02*
X12260000Y-4650000D01*
X12260000Y-2420000D02*
X12260000Y-3350000D01*
X12260000Y-2420000D02*
X10100000Y-2420000D01*
X12260000Y-5580000D02*
X10800000Y-5580000D01*
X89260000Y-6580000D02*
X87800000Y-6580000D01*
X89260000Y-3420000D02*
X87100000Y-3420000D01*
X89260000Y-3420000D02*
X89260000Y-4350000D01*
X89260000Y-6580000D02*
X89260000Y-5650000D01*
X10740000Y-10420000D02*
X10740000Y-11350000D01*
X10740000Y-13580000D02*
X10740000Y-12650000D01*
X10740000Y-13580000D02*
X12900000Y-13580000D01*
X10740000Y-10420000D02*
X12200000Y-10420000D01*
X31245276Y-20477500D02*
X31754724Y-20477500D01*
X31245276Y-21522500D02*
X31754724Y-21522500D01*
X3667224Y-19477500D02*
X3157776Y-19477500D01*
X3667224Y-20522500D02*
X3157776Y-20522500D01*
X31245276Y-23522500D02*
X31754724Y-23522500D01*
X31245276Y-22477500D02*
X31754724Y-22477500D01*
X74754724Y-16522500D02*
X74245276Y-16522500D01*
X74754724Y-15477500D02*
X74245276Y-15477500D01*
X74245276Y-13477500D02*
X74754724Y-13477500D01*
X74245276Y-14522500D02*
X74754724Y-14522500D01*
X82667224Y-7477500D02*
X82157776Y-7477500D01*
X82667224Y-8522500D02*
X82157776Y-8522500D01*
X82245276Y-9477500D02*
X82754724Y-9477500D01*
X82245276Y-10522500D02*
X82754724Y-10522500D01*
X82667224Y-14522500D02*
X82157776Y-14522500D01*
X82667224Y-13477500D02*
X82157776Y-13477500D01*
X17245276Y-8477500D02*
X17754724Y-8477500D01*
X17245276Y-9522500D02*
X17754724Y-9522500D01*
X82245276Y-12522500D02*
X82754724Y-12522500D01*
X82245276Y-11477500D02*
X82754724Y-11477500D01*
X35022500Y-9167224D02*
X35022500Y-8657776D01*
X33977500Y-9167224D02*
X33977500Y-8657776D01*
X17754724Y-6477500D02*
X17245276Y-6477500D01*
X17754724Y-7522500D02*
X17245276Y-7522500D01*
X31977500Y-9254724D02*
X31977500Y-8745276D01*
X33022500Y-9254724D02*
X33022500Y-8745276D01*
X17245276Y-2477500D02*
X17754724Y-2477500D01*
X17245276Y-3522500D02*
X17754724Y-3522500D01*
X82754724Y-4522500D02*
X82245276Y-4522500D01*
X82754724Y-3477500D02*
X82245276Y-3477500D01*
X17754724Y-4477500D02*
X17245276Y-4477500D01*
X17754724Y-5522500D02*
X17245276Y-5522500D01*
X82245276Y-5477500D02*
X82754724Y-5477500D01*
X82245276Y-6522500D02*
X82754724Y-6522500D01*
X41022500Y-20254724D02*
X41022500Y-19745276D01*
X39977500Y-20254724D02*
X39977500Y-19745276D01*
X17332776Y-12477500D02*
X17842224Y-12477500D01*
X17332776Y-13522500D02*
X17842224Y-13522500D01*
X17842224Y-11522500D02*
X17332776Y-11522500D01*
X17842224Y-10477500D02*
X17332776Y-10477500D01*
X55977500Y-10745276D02*
X55977500Y-11254724D01*
X57022500Y-10745276D02*
X57022500Y-11254724D01*
X57022500Y-7254724D02*
X57022500Y-6745276D01*
X55977500Y-7254724D02*
X55977500Y-6745276D01*
X39022500Y-20254724D02*
X39022500Y-19745276D01*
X37977500Y-20254724D02*
X37977500Y-19745276D01*
X43022500Y-10745276D02*
X43022500Y-11254724D01*
X41977500Y-10745276D02*
X41977500Y-11254724D01*
X41977500Y-7254724D02*
X41977500Y-6745276D01*
X43022500Y-7254724D02*
X43022500Y-6745276D01*
X65977500Y-11254724D02*
X65977500Y-10745276D01*
X67022500Y-11254724D02*
X67022500Y-10745276D01*
X69022500Y-11167224D02*
X69022500Y-10657776D01*
X67977500Y-11167224D02*
X67977500Y-10657776D01*
X16410000Y-23410000D02*
X16410000Y-22150000D01*
X16410000Y-16590000D02*
X16410000Y-17850000D01*
X12650000Y-23410000D02*
X16410000Y-23410000D01*
X10400000Y-16590000D02*
X16410000Y-16590000D01*
D15*
X51760600Y-6460000D02*
X47239400Y-6460000D01*
X47239400Y-11540000D02*
X49195200Y-11540000D01*
X49195200Y-11540000D02*
X49804800Y-11540000D01*
X49804800Y-11540000D02*
X51760600Y-11540000D01*
D16*
X49195200Y-11540000D02*
G75*
G02*
X49804800Y-11540000I304800J0D01*
G01*
D10*
X89896666Y-32782380D02*
X89896666Y-33496666D01*
X89849047Y-33639523D01*
X89753809Y-33734761D01*
X89610952Y-33782380D01*
X89515714Y-33782380D01*
X90801428Y-33115714D02*
X90801428Y-33782380D01*
X90563333Y-32734761D02*
X90325238Y-33449047D01*
X90944285Y-33449047D01*
X66738095Y-33452380D02*
X66738095Y-34261904D01*
X66785714Y-34357142D01*
X66833333Y-34404761D01*
X66928571Y-34452380D01*
X67119047Y-34452380D01*
X67214285Y-34404761D01*
X67261904Y-34357142D01*
X67309523Y-34261904D01*
X67309523Y-33452380D01*
X68309523Y-34452380D02*
X67738095Y-34452380D01*
X68023809Y-34452380D02*
X68023809Y-33452380D01*
X67928571Y-33595238D01*
X67833333Y-33690476D01*
X67738095Y-33738095D01*
X9857142Y-26166666D02*
X9904761Y-26214285D01*
X9952380Y-26357142D01*
X9952380Y-26452380D01*
X9904761Y-26595238D01*
X9809523Y-26690476D01*
X9714285Y-26738095D01*
X9523809Y-26785714D01*
X9380952Y-26785714D01*
X9190476Y-26738095D01*
X9095238Y-26690476D01*
X9000000Y-26595238D01*
X8952380Y-26452380D01*
X8952380Y-26357142D01*
X9000000Y-26214285D01*
X9047619Y-26166666D01*
X9952380Y-25214285D02*
X9952380Y-25785714D01*
X9952380Y-25500000D02*
X8952380Y-25500000D01*
X9095238Y-25595238D01*
X9190476Y-25690476D01*
X9238095Y-25785714D01*
X20857142Y-26166666D02*
X20904761Y-26214285D01*
X20952380Y-26357142D01*
X20952380Y-26452380D01*
X20904761Y-26595238D01*
X20809523Y-26690476D01*
X20714285Y-26738095D01*
X20523809Y-26785714D01*
X20380952Y-26785714D01*
X20190476Y-26738095D01*
X20095238Y-26690476D01*
X20000000Y-26595238D01*
X19952380Y-26452380D01*
X19952380Y-26357142D01*
X20000000Y-26214285D01*
X20047619Y-26166666D01*
X20047619Y-25785714D02*
X20000000Y-25738095D01*
X19952380Y-25642857D01*
X19952380Y-25404761D01*
X20000000Y-25309523D01*
X20047619Y-25261904D01*
X20142857Y-25214285D01*
X20238095Y-25214285D01*
X20380952Y-25261904D01*
X20952380Y-25833333D01*
X20952380Y-25214285D01*
X10333333Y-29927142D02*
X10285714Y-29974761D01*
X10142857Y-30022380D01*
X10047619Y-30022380D01*
X9904761Y-29974761D01*
X9809523Y-29879523D01*
X9761904Y-29784285D01*
X9714285Y-29593809D01*
X9714285Y-29450952D01*
X9761904Y-29260476D01*
X9809523Y-29165238D01*
X9904761Y-29070000D01*
X10047619Y-29022380D01*
X10142857Y-29022380D01*
X10285714Y-29070000D01*
X10333333Y-29117619D01*
X10666666Y-29022380D02*
X11285714Y-29022380D01*
X10952380Y-29403333D01*
X11095238Y-29403333D01*
X11190476Y-29450952D01*
X11238095Y-29498571D01*
X11285714Y-29593809D01*
X11285714Y-29831904D01*
X11238095Y-29927142D01*
X11190476Y-29974761D01*
X11095238Y-30022380D01*
X10809523Y-30022380D01*
X10714285Y-29974761D01*
X10666666Y-29927142D01*
X24761904Y-26452380D02*
X24761904Y-25452380D01*
X25000000Y-25452380D01*
X25142857Y-25500000D01*
X25238095Y-25595238D01*
X25285714Y-25690476D01*
X25333333Y-25880952D01*
X25333333Y-26023809D01*
X25285714Y-26214285D01*
X25238095Y-26309523D01*
X25142857Y-26404761D01*
X25000000Y-26452380D01*
X24761904Y-26452380D01*
X26285714Y-26452380D02*
X25714285Y-26452380D01*
X26000000Y-26452380D02*
X26000000Y-25452380D01*
X25904761Y-25595238D01*
X25809523Y-25690476D01*
X25714285Y-25738095D01*
X31761904Y-26452380D02*
X31761904Y-25452380D01*
X32000000Y-25452380D01*
X32142857Y-25500000D01*
X32238095Y-25595238D01*
X32285714Y-25690476D01*
X32333333Y-25880952D01*
X32333333Y-26023809D01*
X32285714Y-26214285D01*
X32238095Y-26309523D01*
X32142857Y-26404761D01*
X32000000Y-26452380D01*
X31761904Y-26452380D01*
X32714285Y-25547619D02*
X32761904Y-25500000D01*
X32857142Y-25452380D01*
X33095238Y-25452380D01*
X33190476Y-25500000D01*
X33238095Y-25547619D01*
X33285714Y-25642857D01*
X33285714Y-25738095D01*
X33238095Y-25880952D01*
X32666666Y-26452380D01*
X33285714Y-26452380D01*
X6761904Y-18452380D02*
X6761904Y-17452380D01*
X7000000Y-17452380D01*
X7142857Y-17500000D01*
X7238095Y-17595238D01*
X7285714Y-17690476D01*
X7333333Y-17880952D01*
X7333333Y-18023809D01*
X7285714Y-18214285D01*
X7238095Y-18309523D01*
X7142857Y-18404761D01*
X7000000Y-18452380D01*
X6761904Y-18452380D01*
X7666666Y-17452380D02*
X8285714Y-17452380D01*
X7952380Y-17833333D01*
X8095238Y-17833333D01*
X8190476Y-17880952D01*
X8238095Y-17928571D01*
X8285714Y-18023809D01*
X8285714Y-18261904D01*
X8238095Y-18357142D01*
X8190476Y-18404761D01*
X8095238Y-18452380D01*
X7809523Y-18452380D01*
X7714285Y-18404761D01*
X7666666Y-18357142D01*
X81952380Y-23738095D02*
X80952380Y-23738095D01*
X80952380Y-23500000D01*
X81000000Y-23357142D01*
X81095238Y-23261904D01*
X81190476Y-23214285D01*
X81380952Y-23166666D01*
X81523809Y-23166666D01*
X81714285Y-23214285D01*
X81809523Y-23261904D01*
X81904761Y-23357142D01*
X81952380Y-23500000D01*
X81952380Y-23738095D01*
X81285714Y-22309523D02*
X81952380Y-22309523D01*
X80904761Y-22547619D02*
X81619047Y-22785714D01*
X81619047Y-22166666D01*
X80952380Y-27261904D02*
X79952380Y-27261904D01*
X80952380Y-26690476D02*
X80380952Y-27119047D01*
X79952380Y-26690476D02*
X80523809Y-27261904D01*
X71952380Y-24118095D02*
X70952380Y-24118095D01*
X70952380Y-23880000D01*
X71000000Y-23737142D01*
X71095238Y-23641904D01*
X71190476Y-23594285D01*
X71380952Y-23546666D01*
X71523809Y-23546666D01*
X71714285Y-23594285D01*
X71809523Y-23641904D01*
X71904761Y-23737142D01*
X71952380Y-23880000D01*
X71952380Y-24118095D01*
X70952380Y-22641904D02*
X70952380Y-23118095D01*
X71428571Y-23165714D01*
X71380952Y-23118095D01*
X71333333Y-23022857D01*
X71333333Y-22784761D01*
X71380952Y-22689523D01*
X71428571Y-22641904D01*
X71523809Y-22594285D01*
X71761904Y-22594285D01*
X71857142Y-22641904D01*
X71904761Y-22689523D01*
X71952380Y-22784761D01*
X71952380Y-23022857D01*
X71904761Y-23118095D01*
X71857142Y-23165714D01*
X72952380Y-19641904D02*
X71952380Y-19641904D01*
X72952380Y-19070476D02*
X72380952Y-19499047D01*
X71952380Y-19070476D02*
X72523809Y-19641904D01*
X12622380Y-33333333D02*
X13336666Y-33333333D01*
X13479523Y-33380952D01*
X13574761Y-33476190D01*
X13622380Y-33619047D01*
X13622380Y-33714285D01*
X13622380Y-32333333D02*
X13622380Y-32904761D01*
X13622380Y-32619047D02*
X12622380Y-32619047D01*
X12765238Y-32714285D01*
X12860476Y-32809523D01*
X12908095Y-32904761D01*
X81282380Y-33333333D02*
X81996666Y-33333333D01*
X82139523Y-33380952D01*
X82234761Y-33476190D01*
X82282380Y-33619047D01*
X82282380Y-33714285D01*
X81377619Y-32904761D02*
X81330000Y-32857142D01*
X81282380Y-32761904D01*
X81282380Y-32523809D01*
X81330000Y-32428571D01*
X81377619Y-32380952D01*
X81472857Y-32333333D01*
X81568095Y-32333333D01*
X81710952Y-32380952D01*
X82282380Y-32952380D01*
X82282380Y-32333333D01*
X38952380Y-4333333D02*
X39666666Y-4333333D01*
X39809523Y-4380952D01*
X39904761Y-4476190D01*
X39952380Y-4619047D01*
X39952380Y-4714285D01*
X38952380Y-3952380D02*
X38952380Y-3333333D01*
X39333333Y-3666666D01*
X39333333Y-3523809D01*
X39380952Y-3428571D01*
X39428571Y-3380952D01*
X39523809Y-3333333D01*
X39761904Y-3333333D01*
X39857142Y-3380952D01*
X39904761Y-3428571D01*
X39952380Y-3523809D01*
X39952380Y-3809523D01*
X39904761Y-3904761D01*
X39857142Y-3952380D01*
X5852380Y-8333333D02*
X6566666Y-8333333D01*
X6709523Y-8380952D01*
X6804761Y-8476190D01*
X6852380Y-8619047D01*
X6852380Y-8714285D01*
X5852380Y-7380952D02*
X5852380Y-7857142D01*
X6328571Y-7904761D01*
X6280952Y-7857142D01*
X6233333Y-7761904D01*
X6233333Y-7523809D01*
X6280952Y-7428571D01*
X6328571Y-7380952D01*
X6423809Y-7333333D01*
X6661904Y-7333333D01*
X6757142Y-7380952D01*
X6804761Y-7428571D01*
X6852380Y-7523809D01*
X6852380Y-7761904D01*
X6804761Y-7857142D01*
X6757142Y-7904761D01*
X93052380Y-8333333D02*
X93766666Y-8333333D01*
X93909523Y-8380952D01*
X94004761Y-8476190D01*
X94052380Y-8619047D01*
X94052380Y-8714285D01*
X93052380Y-7428571D02*
X93052380Y-7619047D01*
X93100000Y-7714285D01*
X93147619Y-7761904D01*
X93290476Y-7857142D01*
X93480952Y-7904761D01*
X93861904Y-7904761D01*
X93957142Y-7857142D01*
X94004761Y-7809523D01*
X94052380Y-7714285D01*
X94052380Y-7523809D01*
X94004761Y-7428571D01*
X93957142Y-7380952D01*
X93861904Y-7333333D01*
X93623809Y-7333333D01*
X93528571Y-7380952D01*
X93480952Y-7428571D01*
X93433333Y-7523809D01*
X93433333Y-7714285D01*
X93480952Y-7809523D01*
X93528571Y-7857142D01*
X93623809Y-7904761D01*
D17*
X8902166Y-28656166D02*
X8013166Y-28656166D01*
X8902166Y-28148166D02*
X8394166Y-28529166D01*
X8013166Y-28148166D02*
X8521166Y-28656166D01*
X8902166Y-27301500D02*
X8902166Y-27809500D01*
X8902166Y-27555500D02*
X8013166Y-27555500D01*
X8140166Y-27640166D01*
X8224833Y-27724833D01*
X8267166Y-27809500D01*
D10*
X34404761Y-17547619D02*
X34309523Y-17500000D01*
X34214285Y-17404761D01*
X34071428Y-17261904D01*
X33976190Y-17214285D01*
X33880952Y-17214285D01*
X33928571Y-17452380D02*
X33833333Y-17404761D01*
X33738095Y-17309523D01*
X33690476Y-17119047D01*
X33690476Y-16785714D01*
X33738095Y-16595238D01*
X33833333Y-16500000D01*
X33928571Y-16452380D01*
X34119047Y-16452380D01*
X34214285Y-16500000D01*
X34309523Y-16595238D01*
X34357142Y-16785714D01*
X34357142Y-17119047D01*
X34309523Y-17309523D01*
X34214285Y-17404761D01*
X34119047Y-17452380D01*
X33928571Y-17452380D01*
X35309523Y-17452380D02*
X34738095Y-17452380D01*
X35023809Y-17452380D02*
X35023809Y-16452380D01*
X34928571Y-16595238D01*
X34833333Y-16690476D01*
X34738095Y-16738095D01*
X86047619Y-9095238D02*
X86000000Y-9190476D01*
X85904761Y-9285714D01*
X85761904Y-9428571D01*
X85714285Y-9523809D01*
X85714285Y-9619047D01*
X85952380Y-9571428D02*
X85904761Y-9666666D01*
X85809523Y-9761904D01*
X85619047Y-9809523D01*
X85285714Y-9809523D01*
X85095238Y-9761904D01*
X85000000Y-9666666D01*
X84952380Y-9571428D01*
X84952380Y-9380952D01*
X85000000Y-9285714D01*
X85095238Y-9190476D01*
X85285714Y-9142857D01*
X85619047Y-9142857D01*
X85809523Y-9190476D01*
X85904761Y-9285714D01*
X85952380Y-9380952D01*
X85952380Y-9571428D01*
X85047619Y-8761904D02*
X85000000Y-8714285D01*
X84952380Y-8619047D01*
X84952380Y-8380952D01*
X85000000Y-8285714D01*
X85047619Y-8238095D01*
X85142857Y-8190476D01*
X85238095Y-8190476D01*
X85380952Y-8238095D01*
X85952380Y-8809523D01*
X85952380Y-8190476D01*
X86047619Y-13095238D02*
X86000000Y-13190476D01*
X85904761Y-13285714D01*
X85761904Y-13428571D01*
X85714285Y-13523809D01*
X85714285Y-13619047D01*
X85952380Y-13571428D02*
X85904761Y-13666666D01*
X85809523Y-13761904D01*
X85619047Y-13809523D01*
X85285714Y-13809523D01*
X85095238Y-13761904D01*
X85000000Y-13666666D01*
X84952380Y-13571428D01*
X84952380Y-13380952D01*
X85000000Y-13285714D01*
X85095238Y-13190476D01*
X85285714Y-13142857D01*
X85619047Y-13142857D01*
X85809523Y-13190476D01*
X85904761Y-13285714D01*
X85952380Y-13380952D01*
X85952380Y-13571428D01*
X84952380Y-12809523D02*
X84952380Y-12190476D01*
X85333333Y-12523809D01*
X85333333Y-12380952D01*
X85380952Y-12285714D01*
X85428571Y-12238095D01*
X85523809Y-12190476D01*
X85761904Y-12190476D01*
X85857142Y-12238095D01*
X85904761Y-12285714D01*
X85952380Y-12380952D01*
X85952380Y-12666666D01*
X85904761Y-12761904D01*
X85857142Y-12809523D01*
X15047619Y-8095238D02*
X15000000Y-8190476D01*
X14904761Y-8285714D01*
X14761904Y-8428571D01*
X14714285Y-8523809D01*
X14714285Y-8619047D01*
X14952380Y-8571428D02*
X14904761Y-8666666D01*
X14809523Y-8761904D01*
X14619047Y-8809523D01*
X14285714Y-8809523D01*
X14095238Y-8761904D01*
X14000000Y-8666666D01*
X13952380Y-8571428D01*
X13952380Y-8380952D01*
X14000000Y-8285714D01*
X14095238Y-8190476D01*
X14285714Y-8142857D01*
X14619047Y-8142857D01*
X14809523Y-8190476D01*
X14904761Y-8285714D01*
X14952380Y-8380952D01*
X14952380Y-8571428D01*
X14285714Y-7285714D02*
X14952380Y-7285714D01*
X13904761Y-7523809D02*
X14619047Y-7761904D01*
X14619047Y-7142857D01*
X15047619Y-4095238D02*
X15000000Y-4190476D01*
X14904761Y-4285714D01*
X14761904Y-4428571D01*
X14714285Y-4523809D01*
X14714285Y-4619047D01*
X14952380Y-4571428D02*
X14904761Y-4666666D01*
X14809523Y-4761904D01*
X14619047Y-4809523D01*
X14285714Y-4809523D01*
X14095238Y-4761904D01*
X14000000Y-4666666D01*
X13952380Y-4571428D01*
X13952380Y-4380952D01*
X14000000Y-4285714D01*
X14095238Y-4190476D01*
X14285714Y-4142857D01*
X14619047Y-4142857D01*
X14809523Y-4190476D01*
X14904761Y-4285714D01*
X14952380Y-4380952D01*
X14952380Y-4571428D01*
X13952380Y-3238095D02*
X13952380Y-3714285D01*
X14428571Y-3761904D01*
X14380952Y-3714285D01*
X14333333Y-3619047D01*
X14333333Y-3380952D01*
X14380952Y-3285714D01*
X14428571Y-3238095D01*
X14523809Y-3190476D01*
X14761904Y-3190476D01*
X14857142Y-3238095D01*
X14904761Y-3285714D01*
X14952380Y-3380952D01*
X14952380Y-3619047D01*
X14904761Y-3714285D01*
X14857142Y-3761904D01*
X86047619Y-5095238D02*
X86000000Y-5190476D01*
X85904761Y-5285714D01*
X85761904Y-5428571D01*
X85714285Y-5523809D01*
X85714285Y-5619047D01*
X85952380Y-5571428D02*
X85904761Y-5666666D01*
X85809523Y-5761904D01*
X85619047Y-5809523D01*
X85285714Y-5809523D01*
X85095238Y-5761904D01*
X85000000Y-5666666D01*
X84952380Y-5571428D01*
X84952380Y-5380952D01*
X85000000Y-5285714D01*
X85095238Y-5190476D01*
X85285714Y-5142857D01*
X85619047Y-5142857D01*
X85809523Y-5190476D01*
X85904761Y-5285714D01*
X85952380Y-5380952D01*
X85952380Y-5571428D01*
X84952380Y-4285714D02*
X84952380Y-4476190D01*
X85000000Y-4571428D01*
X85047619Y-4619047D01*
X85190476Y-4714285D01*
X85380952Y-4761904D01*
X85761904Y-4761904D01*
X85857142Y-4714285D01*
X85904761Y-4666666D01*
X85952380Y-4571428D01*
X85952380Y-4380952D01*
X85904761Y-4285714D01*
X85857142Y-4238095D01*
X85761904Y-4190476D01*
X85523809Y-4190476D01*
X85428571Y-4238095D01*
X85380952Y-4285714D01*
X85333333Y-4380952D01*
X85333333Y-4571428D01*
X85380952Y-4666666D01*
X85428571Y-4714285D01*
X85523809Y-4761904D01*
X15047619Y-12095238D02*
X15000000Y-12190476D01*
X14904761Y-12285714D01*
X14761904Y-12428571D01*
X14714285Y-12523809D01*
X14714285Y-12619047D01*
X14952380Y-12571428D02*
X14904761Y-12666666D01*
X14809523Y-12761904D01*
X14619047Y-12809523D01*
X14285714Y-12809523D01*
X14095238Y-12761904D01*
X14000000Y-12666666D01*
X13952380Y-12571428D01*
X13952380Y-12380952D01*
X14000000Y-12285714D01*
X14095238Y-12190476D01*
X14285714Y-12142857D01*
X14619047Y-12142857D01*
X14809523Y-12190476D01*
X14904761Y-12285714D01*
X14952380Y-12380952D01*
X14952380Y-12571428D01*
X13952380Y-11809523D02*
X13952380Y-11142857D01*
X14952380Y-11571428D01*
X28333333Y-21452380D02*
X28000000Y-20976190D01*
X27761904Y-21452380D02*
X27761904Y-20452380D01*
X28142857Y-20452380D01*
X28238095Y-20500000D01*
X28285714Y-20547619D01*
X28333333Y-20642857D01*
X28333333Y-20785714D01*
X28285714Y-20880952D01*
X28238095Y-20928571D01*
X28142857Y-20976190D01*
X27761904Y-20976190D01*
X29285714Y-21452380D02*
X28714285Y-21452380D01*
X29000000Y-21452380D02*
X29000000Y-20452380D01*
X28904761Y-20595238D01*
X28809523Y-20690476D01*
X28714285Y-20738095D01*
X3245833Y-18452380D02*
X2912500Y-17976190D01*
X2674404Y-18452380D02*
X2674404Y-17452380D01*
X3055357Y-17452380D01*
X3150595Y-17500000D01*
X3198214Y-17547619D01*
X3245833Y-17642857D01*
X3245833Y-17785714D01*
X3198214Y-17880952D01*
X3150595Y-17928571D01*
X3055357Y-17976190D01*
X2674404Y-17976190D01*
X3626785Y-17547619D02*
X3674404Y-17500000D01*
X3769642Y-17452380D01*
X4007738Y-17452380D01*
X4102976Y-17500000D01*
X4150595Y-17547619D01*
X4198214Y-17642857D01*
X4198214Y-17738095D01*
X4150595Y-17880952D01*
X3579166Y-18452380D01*
X4198214Y-18452380D01*
X28333333Y-23452380D02*
X28000000Y-22976190D01*
X27761904Y-23452380D02*
X27761904Y-22452380D01*
X28142857Y-22452380D01*
X28238095Y-22500000D01*
X28285714Y-22547619D01*
X28333333Y-22642857D01*
X28333333Y-22785714D01*
X28285714Y-22880952D01*
X28238095Y-22928571D01*
X28142857Y-22976190D01*
X27761904Y-22976190D01*
X28666666Y-22452380D02*
X29285714Y-22452380D01*
X28952380Y-22833333D01*
X29095238Y-22833333D01*
X29190476Y-22880952D01*
X29238095Y-22928571D01*
X29285714Y-23023809D01*
X29285714Y-23261904D01*
X29238095Y-23357142D01*
X29190476Y-23404761D01*
X29095238Y-23452380D01*
X28809523Y-23452380D01*
X28714285Y-23404761D01*
X28666666Y-23357142D01*
X71333333Y-16452380D02*
X71000000Y-15976190D01*
X70761904Y-16452380D02*
X70761904Y-15452380D01*
X71142857Y-15452380D01*
X71238095Y-15500000D01*
X71285714Y-15547619D01*
X71333333Y-15642857D01*
X71333333Y-15785714D01*
X71285714Y-15880952D01*
X71238095Y-15928571D01*
X71142857Y-15976190D01*
X70761904Y-15976190D01*
X72190476Y-15785714D02*
X72190476Y-16452380D01*
X71952380Y-15404761D02*
X71714285Y-16119047D01*
X72333333Y-16119047D01*
X71333333Y-14452380D02*
X71000000Y-13976190D01*
X70761904Y-14452380D02*
X70761904Y-13452380D01*
X71142857Y-13452380D01*
X71238095Y-13500000D01*
X71285714Y-13547619D01*
X71333333Y-13642857D01*
X71333333Y-13785714D01*
X71285714Y-13880952D01*
X71238095Y-13928571D01*
X71142857Y-13976190D01*
X70761904Y-13976190D01*
X72238095Y-13452380D02*
X71761904Y-13452380D01*
X71714285Y-13928571D01*
X71761904Y-13880952D01*
X71857142Y-13833333D01*
X72095238Y-13833333D01*
X72190476Y-13880952D01*
X72238095Y-13928571D01*
X72285714Y-14023809D01*
X72285714Y-14261904D01*
X72238095Y-14357142D01*
X72190476Y-14404761D01*
X72095238Y-14452380D01*
X71857142Y-14452380D01*
X71761904Y-14404761D01*
X71714285Y-14357142D01*
X79333333Y-8452380D02*
X79000000Y-7976190D01*
X78761904Y-8452380D02*
X78761904Y-7452380D01*
X79142857Y-7452380D01*
X79238095Y-7500000D01*
X79285714Y-7547619D01*
X79333333Y-7642857D01*
X79333333Y-7785714D01*
X79285714Y-7880952D01*
X79238095Y-7928571D01*
X79142857Y-7976190D01*
X78761904Y-7976190D01*
X80190476Y-7452380D02*
X80000000Y-7452380D01*
X79904761Y-7500000D01*
X79857142Y-7547619D01*
X79761904Y-7690476D01*
X79714285Y-7880952D01*
X79714285Y-8261904D01*
X79761904Y-8357142D01*
X79809523Y-8404761D01*
X79904761Y-8452380D01*
X80095238Y-8452380D01*
X80190476Y-8404761D01*
X80238095Y-8357142D01*
X80285714Y-8261904D01*
X80285714Y-8023809D01*
X80238095Y-7928571D01*
X80190476Y-7880952D01*
X80095238Y-7833333D01*
X79904761Y-7833333D01*
X79809523Y-7880952D01*
X79761904Y-7928571D01*
X79714285Y-8023809D01*
X79333333Y-10452380D02*
X79000000Y-9976190D01*
X78761904Y-10452380D02*
X78761904Y-9452380D01*
X79142857Y-9452380D01*
X79238095Y-9500000D01*
X79285714Y-9547619D01*
X79333333Y-9642857D01*
X79333333Y-9785714D01*
X79285714Y-9880952D01*
X79238095Y-9928571D01*
X79142857Y-9976190D01*
X78761904Y-9976190D01*
X79666666Y-9452380D02*
X80333333Y-9452380D01*
X79904761Y-10452380D01*
X79333333Y-14452380D02*
X79000000Y-13976190D01*
X78761904Y-14452380D02*
X78761904Y-13452380D01*
X79142857Y-13452380D01*
X79238095Y-13500000D01*
X79285714Y-13547619D01*
X79333333Y-13642857D01*
X79333333Y-13785714D01*
X79285714Y-13880952D01*
X79238095Y-13928571D01*
X79142857Y-13976190D01*
X78761904Y-13976190D01*
X79904761Y-13880952D02*
X79809523Y-13833333D01*
X79761904Y-13785714D01*
X79714285Y-13690476D01*
X79714285Y-13642857D01*
X79761904Y-13547619D01*
X79809523Y-13500000D01*
X79904761Y-13452380D01*
X80095238Y-13452380D01*
X80190476Y-13500000D01*
X80238095Y-13547619D01*
X80285714Y-13642857D01*
X80285714Y-13690476D01*
X80238095Y-13785714D01*
X80190476Y-13833333D01*
X80095238Y-13880952D01*
X79904761Y-13880952D01*
X79809523Y-13928571D01*
X79761904Y-13976190D01*
X79714285Y-14071428D01*
X79714285Y-14261904D01*
X79761904Y-14357142D01*
X79809523Y-14404761D01*
X79904761Y-14452380D01*
X80095238Y-14452380D01*
X80190476Y-14404761D01*
X80238095Y-14357142D01*
X80285714Y-14261904D01*
X80285714Y-14071428D01*
X80238095Y-13976190D01*
X80190476Y-13928571D01*
X80095238Y-13880952D01*
X20245833Y-9452380D02*
X19912500Y-8976190D01*
X19674404Y-9452380D02*
X19674404Y-8452380D01*
X20055357Y-8452380D01*
X20150595Y-8500000D01*
X20198214Y-8547619D01*
X20245833Y-8642857D01*
X20245833Y-8785714D01*
X20198214Y-8880952D01*
X20150595Y-8928571D01*
X20055357Y-8976190D01*
X19674404Y-8976190D01*
X20722023Y-9452380D02*
X20912500Y-9452380D01*
X21007738Y-9404761D01*
X21055357Y-9357142D01*
X21150595Y-9214285D01*
X21198214Y-9023809D01*
X21198214Y-8642857D01*
X21150595Y-8547619D01*
X21102976Y-8500000D01*
X21007738Y-8452380D01*
X20817261Y-8452380D01*
X20722023Y-8500000D01*
X20674404Y-8547619D01*
X20626785Y-8642857D01*
X20626785Y-8880952D01*
X20674404Y-8976190D01*
X20722023Y-9023809D01*
X20817261Y-9071428D01*
X21007738Y-9071428D01*
X21102976Y-9023809D01*
X21150595Y-8976190D01*
X21198214Y-8880952D01*
X78857142Y-12452380D02*
X78523809Y-11976190D01*
X78285714Y-12452380D02*
X78285714Y-11452380D01*
X78666666Y-11452380D01*
X78761904Y-11500000D01*
X78809523Y-11547619D01*
X78857142Y-11642857D01*
X78857142Y-11785714D01*
X78809523Y-11880952D01*
X78761904Y-11928571D01*
X78666666Y-11976190D01*
X78285714Y-11976190D01*
X79809523Y-12452380D02*
X79238095Y-12452380D01*
X79523809Y-12452380D02*
X79523809Y-11452380D01*
X79428571Y-11595238D01*
X79333333Y-11690476D01*
X79238095Y-11738095D01*
X80428571Y-11452380D02*
X80523809Y-11452380D01*
X80619047Y-11500000D01*
X80666666Y-11547619D01*
X80714285Y-11642857D01*
X80761904Y-11833333D01*
X80761904Y-12071428D01*
X80714285Y-12261904D01*
X80666666Y-12357142D01*
X80619047Y-12404761D01*
X80523809Y-12452380D01*
X80428571Y-12452380D01*
X80333333Y-12404761D01*
X80285714Y-12357142D01*
X80238095Y-12261904D01*
X80190476Y-12071428D01*
X80190476Y-11833333D01*
X80238095Y-11642857D01*
X80285714Y-11547619D01*
X80333333Y-11500000D01*
X80428571Y-11452380D01*
X36952380Y-9555357D02*
X36476190Y-9888690D01*
X36952380Y-10126785D02*
X35952380Y-10126785D01*
X35952380Y-9745833D01*
X36000000Y-9650595D01*
X36047619Y-9602976D01*
X36142857Y-9555357D01*
X36285714Y-9555357D01*
X36380952Y-9602976D01*
X36428571Y-9650595D01*
X36476190Y-9745833D01*
X36476190Y-10126785D01*
X36952380Y-8602976D02*
X36952380Y-9174404D01*
X36952380Y-8888690D02*
X35952380Y-8888690D01*
X36095238Y-8983928D01*
X36190476Y-9079166D01*
X36238095Y-9174404D01*
X36952380Y-7650595D02*
X36952380Y-8222023D01*
X36952380Y-7936309D02*
X35952380Y-7936309D01*
X36095238Y-8031547D01*
X36190476Y-8126785D01*
X36238095Y-8222023D01*
X19857142Y-7452380D02*
X19523809Y-6976190D01*
X19285714Y-7452380D02*
X19285714Y-6452380D01*
X19666666Y-6452380D01*
X19761904Y-6500000D01*
X19809523Y-6547619D01*
X19857142Y-6642857D01*
X19857142Y-6785714D01*
X19809523Y-6880952D01*
X19761904Y-6928571D01*
X19666666Y-6976190D01*
X19285714Y-6976190D01*
X20809523Y-7452380D02*
X20238095Y-7452380D01*
X20523809Y-7452380D02*
X20523809Y-6452380D01*
X20428571Y-6595238D01*
X20333333Y-6690476D01*
X20238095Y-6738095D01*
X21190476Y-6547619D02*
X21238095Y-6500000D01*
X21333333Y-6452380D01*
X21571428Y-6452380D01*
X21666666Y-6500000D01*
X21714285Y-6547619D01*
X21761904Y-6642857D01*
X21761904Y-6738095D01*
X21714285Y-6880952D01*
X21142857Y-7452380D01*
X21761904Y-7452380D01*
X30952380Y-9642857D02*
X30476190Y-9976190D01*
X30952380Y-10214285D02*
X29952380Y-10214285D01*
X29952380Y-9833333D01*
X30000000Y-9738095D01*
X30047619Y-9690476D01*
X30142857Y-9642857D01*
X30285714Y-9642857D01*
X30380952Y-9690476D01*
X30428571Y-9738095D01*
X30476190Y-9833333D01*
X30476190Y-10214285D01*
X30952380Y-8690476D02*
X30952380Y-9261904D01*
X30952380Y-8976190D02*
X29952380Y-8976190D01*
X30095238Y-9071428D01*
X30190476Y-9166666D01*
X30238095Y-9261904D01*
X29952380Y-8357142D02*
X29952380Y-7738095D01*
X30333333Y-8071428D01*
X30333333Y-7928571D01*
X30380952Y-7833333D01*
X30428571Y-7785714D01*
X30523809Y-7738095D01*
X30761904Y-7738095D01*
X30857142Y-7785714D01*
X30904761Y-7833333D01*
X30952380Y-7928571D01*
X30952380Y-8214285D01*
X30904761Y-8309523D01*
X30857142Y-8357142D01*
X19944642Y-3452380D02*
X19611309Y-2976190D01*
X19373214Y-3452380D02*
X19373214Y-2452380D01*
X19754166Y-2452380D01*
X19849404Y-2500000D01*
X19897023Y-2547619D01*
X19944642Y-2642857D01*
X19944642Y-2785714D01*
X19897023Y-2880952D01*
X19849404Y-2928571D01*
X19754166Y-2976190D01*
X19373214Y-2976190D01*
X20897023Y-3452380D02*
X20325595Y-3452380D01*
X20611309Y-3452380D02*
X20611309Y-2452380D01*
X20516071Y-2595238D01*
X20420833Y-2690476D01*
X20325595Y-2738095D01*
X21754166Y-2785714D02*
X21754166Y-3452380D01*
X21516071Y-2404761D02*
X21277976Y-3119047D01*
X21897023Y-3119047D01*
X78857142Y-4452380D02*
X78523809Y-3976190D01*
X78285714Y-4452380D02*
X78285714Y-3452380D01*
X78666666Y-3452380D01*
X78761904Y-3500000D01*
X78809523Y-3547619D01*
X78857142Y-3642857D01*
X78857142Y-3785714D01*
X78809523Y-3880952D01*
X78761904Y-3928571D01*
X78666666Y-3976190D01*
X78285714Y-3976190D01*
X79809523Y-4452380D02*
X79238095Y-4452380D01*
X79523809Y-4452380D02*
X79523809Y-3452380D01*
X79428571Y-3595238D01*
X79333333Y-3690476D01*
X79238095Y-3738095D01*
X80714285Y-3452380D02*
X80238095Y-3452380D01*
X80190476Y-3928571D01*
X80238095Y-3880952D01*
X80333333Y-3833333D01*
X80571428Y-3833333D01*
X80666666Y-3880952D01*
X80714285Y-3928571D01*
X80761904Y-4023809D01*
X80761904Y-4261904D01*
X80714285Y-4357142D01*
X80666666Y-4404761D01*
X80571428Y-4452380D01*
X80333333Y-4452380D01*
X80238095Y-4404761D01*
X80190476Y-4357142D01*
X19857142Y-5452380D02*
X19523809Y-4976190D01*
X19285714Y-5452380D02*
X19285714Y-4452380D01*
X19666666Y-4452380D01*
X19761904Y-4500000D01*
X19809523Y-4547619D01*
X19857142Y-4642857D01*
X19857142Y-4785714D01*
X19809523Y-4880952D01*
X19761904Y-4928571D01*
X19666666Y-4976190D01*
X19285714Y-4976190D01*
X20809523Y-5452380D02*
X20238095Y-5452380D01*
X20523809Y-5452380D02*
X20523809Y-4452380D01*
X20428571Y-4595238D01*
X20333333Y-4690476D01*
X20238095Y-4738095D01*
X21666666Y-4452380D02*
X21476190Y-4452380D01*
X21380952Y-4500000D01*
X21333333Y-4547619D01*
X21238095Y-4690476D01*
X21190476Y-4880952D01*
X21190476Y-5261904D01*
X21238095Y-5357142D01*
X21285714Y-5404761D01*
X21380952Y-5452380D01*
X21571428Y-5452380D01*
X21666666Y-5404761D01*
X21714285Y-5357142D01*
X21761904Y-5261904D01*
X21761904Y-5023809D01*
X21714285Y-4928571D01*
X21666666Y-4880952D01*
X21571428Y-4833333D01*
X21380952Y-4833333D01*
X21285714Y-4880952D01*
X21238095Y-4928571D01*
X21190476Y-5023809D01*
X78857142Y-6452380D02*
X78523809Y-5976190D01*
X78285714Y-6452380D02*
X78285714Y-5452380D01*
X78666666Y-5452380D01*
X78761904Y-5500000D01*
X78809523Y-5547619D01*
X78857142Y-5642857D01*
X78857142Y-5785714D01*
X78809523Y-5880952D01*
X78761904Y-5928571D01*
X78666666Y-5976190D01*
X78285714Y-5976190D01*
X79809523Y-6452380D02*
X79238095Y-6452380D01*
X79523809Y-6452380D02*
X79523809Y-5452380D01*
X79428571Y-5595238D01*
X79333333Y-5690476D01*
X79238095Y-5738095D01*
X80142857Y-5452380D02*
X80809523Y-5452380D01*
X80380952Y-6452380D01*
X40952380Y-23642857D02*
X40476190Y-23976190D01*
X40952380Y-24214285D02*
X39952380Y-24214285D01*
X39952380Y-23833333D01*
X40000000Y-23738095D01*
X40047619Y-23690476D01*
X40142857Y-23642857D01*
X40285714Y-23642857D01*
X40380952Y-23690476D01*
X40428571Y-23738095D01*
X40476190Y-23833333D01*
X40476190Y-24214285D01*
X40952380Y-22690476D02*
X40952380Y-23261904D01*
X40952380Y-22976190D02*
X39952380Y-22976190D01*
X40095238Y-23071428D01*
X40190476Y-23166666D01*
X40238095Y-23261904D01*
X40380952Y-22119047D02*
X40333333Y-22214285D01*
X40285714Y-22261904D01*
X40190476Y-22309523D01*
X40142857Y-22309523D01*
X40047619Y-22261904D01*
X40000000Y-22214285D01*
X39952380Y-22119047D01*
X39952380Y-21928571D01*
X40000000Y-21833333D01*
X40047619Y-21785714D01*
X40142857Y-21738095D01*
X40190476Y-21738095D01*
X40285714Y-21785714D01*
X40333333Y-21833333D01*
X40380952Y-21928571D01*
X40380952Y-22119047D01*
X40428571Y-22214285D01*
X40476190Y-22261904D01*
X40571428Y-22309523D01*
X40761904Y-22309523D01*
X40857142Y-22261904D01*
X40904761Y-22214285D01*
X40952380Y-22119047D01*
X40952380Y-21928571D01*
X40904761Y-21833333D01*
X40857142Y-21785714D01*
X40761904Y-21738095D01*
X40571428Y-21738095D01*
X40476190Y-21785714D01*
X40428571Y-21833333D01*
X40380952Y-21928571D01*
X19944642Y-13452380D02*
X19611309Y-12976190D01*
X19373214Y-13452380D02*
X19373214Y-12452380D01*
X19754166Y-12452380D01*
X19849404Y-12500000D01*
X19897023Y-12547619D01*
X19944642Y-12642857D01*
X19944642Y-12785714D01*
X19897023Y-12880952D01*
X19849404Y-12928571D01*
X19754166Y-12976190D01*
X19373214Y-12976190D01*
X20897023Y-13452380D02*
X20325595Y-13452380D01*
X20611309Y-13452380D02*
X20611309Y-12452380D01*
X20516071Y-12595238D01*
X20420833Y-12690476D01*
X20325595Y-12738095D01*
X21373214Y-13452380D02*
X21563690Y-13452380D01*
X21658928Y-13404761D01*
X21706547Y-13357142D01*
X21801785Y-13214285D01*
X21849404Y-13023809D01*
X21849404Y-12642857D01*
X21801785Y-12547619D01*
X21754166Y-12500000D01*
X21658928Y-12452380D01*
X21468452Y-12452380D01*
X21373214Y-12500000D01*
X21325595Y-12547619D01*
X21277976Y-12642857D01*
X21277976Y-12880952D01*
X21325595Y-12976190D01*
X21373214Y-13023809D01*
X21468452Y-13071428D01*
X21658928Y-13071428D01*
X21754166Y-13023809D01*
X21801785Y-12976190D01*
X21849404Y-12880952D01*
X19857142Y-11452380D02*
X19523809Y-10976190D01*
X19285714Y-11452380D02*
X19285714Y-10452380D01*
X19666666Y-10452380D01*
X19761904Y-10500000D01*
X19809523Y-10547619D01*
X19857142Y-10642857D01*
X19857142Y-10785714D01*
X19809523Y-10880952D01*
X19761904Y-10928571D01*
X19666666Y-10976190D01*
X19285714Y-10976190D01*
X20238095Y-10547619D02*
X20285714Y-10500000D01*
X20380952Y-10452380D01*
X20619047Y-10452380D01*
X20714285Y-10500000D01*
X20761904Y-10547619D01*
X20809523Y-10642857D01*
X20809523Y-10738095D01*
X20761904Y-10880952D01*
X20190476Y-11452380D01*
X20809523Y-11452380D01*
X21428571Y-10452380D02*
X21523809Y-10452380D01*
X21619047Y-10500000D01*
X21666666Y-10547619D01*
X21714285Y-10642857D01*
X21761904Y-10833333D01*
X21761904Y-11071428D01*
X21714285Y-11261904D01*
X21666666Y-11357142D01*
X21619047Y-11404761D01*
X21523809Y-11452380D01*
X21428571Y-11452380D01*
X21333333Y-11404761D01*
X21285714Y-11357142D01*
X21238095Y-11261904D01*
X21190476Y-11071428D01*
X21190476Y-10833333D01*
X21238095Y-10642857D01*
X21285714Y-10547619D01*
X21333333Y-10500000D01*
X21428571Y-10452380D01*
X58952380Y-11642857D02*
X58476190Y-11976190D01*
X58952380Y-12214285D02*
X57952380Y-12214285D01*
X57952380Y-11833333D01*
X58000000Y-11738095D01*
X58047619Y-11690476D01*
X58142857Y-11642857D01*
X58285714Y-11642857D01*
X58380952Y-11690476D01*
X58428571Y-11738095D01*
X58476190Y-11833333D01*
X58476190Y-12214285D01*
X58047619Y-11261904D02*
X58000000Y-11214285D01*
X57952380Y-11119047D01*
X57952380Y-10880952D01*
X58000000Y-10785714D01*
X58047619Y-10738095D01*
X58142857Y-10690476D01*
X58238095Y-10690476D01*
X58380952Y-10738095D01*
X58952380Y-11309523D01*
X58952380Y-10690476D01*
X58952380Y-9738095D02*
X58952380Y-10309523D01*
X58952380Y-10023809D02*
X57952380Y-10023809D01*
X58095238Y-10119047D01*
X58190476Y-10214285D01*
X58238095Y-10309523D01*
X58952380Y-7642857D02*
X58476190Y-7976190D01*
X58952380Y-8214285D02*
X57952380Y-8214285D01*
X57952380Y-7833333D01*
X58000000Y-7738095D01*
X58047619Y-7690476D01*
X58142857Y-7642857D01*
X58285714Y-7642857D01*
X58380952Y-7690476D01*
X58428571Y-7738095D01*
X58476190Y-7833333D01*
X58476190Y-8214285D01*
X58047619Y-7261904D02*
X58000000Y-7214285D01*
X57952380Y-7119047D01*
X57952380Y-6880952D01*
X58000000Y-6785714D01*
X58047619Y-6738095D01*
X58142857Y-6690476D01*
X58238095Y-6690476D01*
X58380952Y-6738095D01*
X58952380Y-7309523D01*
X58952380Y-6690476D01*
X58047619Y-6309523D02*
X58000000Y-6261904D01*
X57952380Y-6166666D01*
X57952380Y-5928571D01*
X58000000Y-5833333D01*
X58047619Y-5785714D01*
X58142857Y-5738095D01*
X58238095Y-5738095D01*
X58380952Y-5785714D01*
X58952380Y-6357142D01*
X58952380Y-5738095D01*
X38952380Y-23730357D02*
X38476190Y-24063690D01*
X38952380Y-24301785D02*
X37952380Y-24301785D01*
X37952380Y-23920833D01*
X38000000Y-23825595D01*
X38047619Y-23777976D01*
X38142857Y-23730357D01*
X38285714Y-23730357D01*
X38380952Y-23777976D01*
X38428571Y-23825595D01*
X38476190Y-23920833D01*
X38476190Y-24301785D01*
X38047619Y-23349404D02*
X38000000Y-23301785D01*
X37952380Y-23206547D01*
X37952380Y-22968452D01*
X38000000Y-22873214D01*
X38047619Y-22825595D01*
X38142857Y-22777976D01*
X38238095Y-22777976D01*
X38380952Y-22825595D01*
X38952380Y-23397023D01*
X38952380Y-22777976D01*
X37952380Y-22444642D02*
X37952380Y-21825595D01*
X38333333Y-22158928D01*
X38333333Y-22016071D01*
X38380952Y-21920833D01*
X38428571Y-21873214D01*
X38523809Y-21825595D01*
X38761904Y-21825595D01*
X38857142Y-21873214D01*
X38904761Y-21920833D01*
X38952380Y-22016071D01*
X38952380Y-22301785D01*
X38904761Y-22397023D01*
X38857142Y-22444642D01*
X40952380Y-11642857D02*
X40476190Y-11976190D01*
X40952380Y-12214285D02*
X39952380Y-12214285D01*
X39952380Y-11833333D01*
X40000000Y-11738095D01*
X40047619Y-11690476D01*
X40142857Y-11642857D01*
X40285714Y-11642857D01*
X40380952Y-11690476D01*
X40428571Y-11738095D01*
X40476190Y-11833333D01*
X40476190Y-12214285D01*
X40047619Y-11261904D02*
X40000000Y-11214285D01*
X39952380Y-11119047D01*
X39952380Y-10880952D01*
X40000000Y-10785714D01*
X40047619Y-10738095D01*
X40142857Y-10690476D01*
X40238095Y-10690476D01*
X40380952Y-10738095D01*
X40952380Y-11309523D01*
X40952380Y-10690476D01*
X40285714Y-9833333D02*
X40952380Y-9833333D01*
X39904761Y-10071428D02*
X40619047Y-10309523D01*
X40619047Y-9690476D01*
X40952380Y-7642857D02*
X40476190Y-7976190D01*
X40952380Y-8214285D02*
X39952380Y-8214285D01*
X39952380Y-7833333D01*
X40000000Y-7738095D01*
X40047619Y-7690476D01*
X40142857Y-7642857D01*
X40285714Y-7642857D01*
X40380952Y-7690476D01*
X40428571Y-7738095D01*
X40476190Y-7833333D01*
X40476190Y-8214285D01*
X40047619Y-7261904D02*
X40000000Y-7214285D01*
X39952380Y-7119047D01*
X39952380Y-6880952D01*
X40000000Y-6785714D01*
X40047619Y-6738095D01*
X40142857Y-6690476D01*
X40238095Y-6690476D01*
X40380952Y-6738095D01*
X40952380Y-7309523D01*
X40952380Y-6690476D01*
X39952380Y-5785714D02*
X39952380Y-6261904D01*
X40428571Y-6309523D01*
X40380952Y-6261904D01*
X40333333Y-6166666D01*
X40333333Y-5928571D01*
X40380952Y-5833333D01*
X40428571Y-5785714D01*
X40523809Y-5738095D01*
X40761904Y-5738095D01*
X40857142Y-5785714D01*
X40904761Y-5833333D01*
X40952380Y-5928571D01*
X40952380Y-6166666D01*
X40904761Y-6261904D01*
X40857142Y-6309523D01*
X66952380Y-8642857D02*
X66476190Y-8976190D01*
X66952380Y-9214285D02*
X65952380Y-9214285D01*
X65952380Y-8833333D01*
X66000000Y-8738095D01*
X66047619Y-8690476D01*
X66142857Y-8642857D01*
X66285714Y-8642857D01*
X66380952Y-8690476D01*
X66428571Y-8738095D01*
X66476190Y-8833333D01*
X66476190Y-9214285D01*
X66047619Y-8261904D02*
X66000000Y-8214285D01*
X65952380Y-8119047D01*
X65952380Y-7880952D01*
X66000000Y-7785714D01*
X66047619Y-7738095D01*
X66142857Y-7690476D01*
X66238095Y-7690476D01*
X66380952Y-7738095D01*
X66952380Y-8309523D01*
X66952380Y-7690476D01*
X65952380Y-6833333D02*
X65952380Y-7023809D01*
X66000000Y-7119047D01*
X66047619Y-7166666D01*
X66190476Y-7261904D01*
X66380952Y-7309523D01*
X66761904Y-7309523D01*
X66857142Y-7261904D01*
X66904761Y-7214285D01*
X66952380Y-7119047D01*
X66952380Y-6928571D01*
X66904761Y-6833333D01*
X66857142Y-6785714D01*
X66761904Y-6738095D01*
X66523809Y-6738095D01*
X66428571Y-6785714D01*
X66380952Y-6833333D01*
X66333333Y-6928571D01*
X66333333Y-7119047D01*
X66380952Y-7214285D01*
X66428571Y-7261904D01*
X66523809Y-7309523D01*
X68952380Y-8642857D02*
X68476190Y-8976190D01*
X68952380Y-9214285D02*
X67952380Y-9214285D01*
X67952380Y-8833333D01*
X68000000Y-8738095D01*
X68047619Y-8690476D01*
X68142857Y-8642857D01*
X68285714Y-8642857D01*
X68380952Y-8690476D01*
X68428571Y-8738095D01*
X68476190Y-8833333D01*
X68476190Y-9214285D01*
X68047619Y-8261904D02*
X68000000Y-8214285D01*
X67952380Y-8119047D01*
X67952380Y-7880952D01*
X68000000Y-7785714D01*
X68047619Y-7738095D01*
X68142857Y-7690476D01*
X68238095Y-7690476D01*
X68380952Y-7738095D01*
X68952380Y-8309523D01*
X68952380Y-7690476D01*
X67952380Y-7357142D02*
X67952380Y-6690476D01*
X68952380Y-7119047D01*
X18952380Y-20761904D02*
X19761904Y-20761904D01*
X19857142Y-20714285D01*
X19904761Y-20666666D01*
X19952380Y-20571428D01*
X19952380Y-20380952D01*
X19904761Y-20285714D01*
X19857142Y-20238095D01*
X19761904Y-20190476D01*
X18952380Y-20190476D01*
X19047619Y-19761904D02*
X19000000Y-19714285D01*
X18952380Y-19619047D01*
X18952380Y-19380952D01*
X19000000Y-19285714D01*
X19047619Y-19238095D01*
X19142857Y-19190476D01*
X19238095Y-19190476D01*
X19380952Y-19238095D01*
X19952380Y-19809523D01*
X19952380Y-19190476D01*
X48738095Y-12452380D02*
X48738095Y-13261904D01*
X48785714Y-13357142D01*
X48833333Y-13404761D01*
X48928571Y-13452380D01*
X49119047Y-13452380D01*
X49214285Y-13404761D01*
X49261904Y-13357142D01*
X49309523Y-13261904D01*
X49309523Y-12452380D01*
X49690476Y-12452380D02*
X50309523Y-12452380D01*
X49976190Y-12833333D01*
X50119047Y-12833333D01*
X50214285Y-12880952D01*
X50261904Y-12928571D01*
X50309523Y-13023809D01*
X50309523Y-13261904D01*
X50261904Y-13357142D01*
X50214285Y-13404761D01*
X50119047Y-13452380D01*
X49833333Y-13452380D01*
X49738095Y-13404761D01*
X49690476Y-13357142D01*
M02*
