M48
; DRILL file {KiCad (5.1.10)-1} date 07/07/21 16:36:39
; FORMAT={-:-/ absolute / metric / decimal}
; #@! TF.CreationDate,2021-07-07T16:36:39+09:00
; #@! TF.GenerationSoftware,Kicad,Pcbnew,(5.1.10)-1
; #@! TF.FileFunction,Plated,1,2,PTH
FMAT,2
METRIC
T1C0.200
T2C0.300
T3C0.750
T4C0.900
T5C1.000
T6C1.100
T7C1.143
%
G90
G05
T1
X54.665Y-24.842
X54.665Y-26.677
X55.582Y-23.925
X55.582Y-25.76
X55.582Y-27.595
X56.5Y-24.842
X56.5Y-26.677
X57.417Y-23.925
X57.417Y-25.76
X57.417Y-27.595
X58.335Y-24.842
X58.335Y-26.677
T2
X11.5Y-30.0
X13.5Y-7.0
X13.5Y-18.0
X13.5Y-28.0
X14.5Y-5.0
X15.5Y-21.0
X18.5Y-14.0
X18.5Y-16.0
X19.5Y-7.0
X19.5Y-11.0
X19.5Y-28.0
X20.5Y-8.0
X20.5Y-13.0
X21.5Y-29.0
X21.5Y-32.0
X23.5Y-13.0
X26.5Y-25.0
X27.5Y-29.0
X29.5Y-23.0
X29.5Y-24.0
X29.5Y-26.0
X33.5Y-22.0
X33.5Y-26.0
X34.5Y-14.0
X34.5Y-24.0
X34.5Y-29.0
X35.5Y-15.0
X35.5Y-26.0
X36.5Y-22.0
X37.5Y-12.0
X38.5Y-16.0
X38.5Y-18.0
X41.5Y-18.0
X41.5Y-27.0
X42.5Y-19.0
X42.5Y-31.0
X43.5Y-14.0
X43.5Y-16.0
X45.5Y-9.0
X48.16Y-9.66
X48.5Y-14.0
X48.5Y-20.0
X49.5Y-6.0
X49.5Y-30.0
X51.5Y-20.0
X52.5Y-21.085
X52.5Y-22.0
X54.5Y-9.0
X55.5Y-9.77
X58.5Y-10.0
X58.5Y-12.0
X59.5Y-19.0
X61.5Y-6.0
X61.5Y-18.0
X61.5Y-31.0
X62.5Y-15.0
X62.5Y-32.0
X64.5Y-9.0
X65.5Y-13.0
X66.5Y-23.0
X67.5Y-20.0
X68.5Y-20.0
X69.5Y-12.0
X69.5Y-14.0
X69.5Y-16.0
X69.5Y-21.0
X69.5Y-22.0
X70.5Y-19.0
X71.5Y-15.0
X71.5Y-17.0
X71.5Y-21.0
X71.5Y-23.0
X72.5Y-9.0
X73.5Y-22.0
X75.5Y-12.0
X76.5Y-7.0
X77.5Y-17.0
X78.5Y-14.0
X79.5Y-12.0
X80.5Y-18.0
X81.5Y-19.0
X85.5Y-10.0
X85.5Y-12.0
X85.5Y-27.0
X86.5Y-6.0
T3
X3.5Y-3.0
X3.5Y-5.0
X3.5Y-7.0
X3.5Y-9.0
X3.5Y-11.0
X3.5Y-13.0
X26.5Y-4.0
X28.5Y-4.0
X30.5Y-4.0
X32.5Y-4.0
X34.5Y-4.0
X36.5Y-4.0
X96.5Y-3.0
X96.5Y-5.0
X96.5Y-7.0
X96.5Y-9.0
X96.5Y-11.0
X96.5Y-13.0
T4
X25.5Y-28.0
X25.5Y-30.54
X32.5Y-28.0
X32.5Y-30.54
T5
X15.5Y-33.0
X18.04Y-33.0
X76.96Y-33.0
X79.5Y-33.0
X88.96Y-20.84
X88.96Y-23.38
X88.96Y-25.92
X88.96Y-28.46
X88.96Y-31.0
X91.5Y-20.84
X91.5Y-23.38
X91.5Y-25.92
X91.5Y-28.46
X91.5Y-31.0
T6
X25.42Y-16.0
X27.96Y-16.0
X30.5Y-16.0
X74.5Y-19.38
X74.5Y-27.0
X78.5Y-19.38
X78.5Y-27.0
T7
X2.341Y-24.317
X2.341Y-31.683
X6.659Y-24.317
X6.659Y-31.683
T0
M30
