M48
; DRILL file {KiCad (5.1.10)-1} date 06/09/21 15:44:50
; FORMAT={-:-/ absolute / metric / decimal}
; #@! TF.CreationDate,2021-06-09T15:44:50+09:00
; #@! TF.GenerationSoftware,Kicad,Pcbnew,(5.1.10)-1
; #@! TF.FileFunction,Plated,1,2,PTH
FMAT,2
METRIC
T1C0.200
T2C0.400
T3C0.600
T4C0.850
T5C0.900
T6C1.000
T7C1.143
T8C1.350
T9C1.500
%
G90
G05
T1
X26.925Y-35.082
X26.925Y-36.917
X27.842Y-34.165
X27.842Y-36.0
X27.842Y-37.835
X28.76Y-35.082
X28.76Y-36.917
X29.677Y-34.165
X29.677Y-36.0
X29.677Y-37.835
X30.595Y-35.082
X30.595Y-36.917
T2
X4.0Y-10.0
X7.0Y-13.0
X7.0Y-25.0
X7.0Y-59.5
X8.0Y-9.0
X8.0Y-30.5
X9.0Y-6.0
X9.0Y-16.0
X9.0Y-27.5
X10.0Y-7.0
X11.0Y-19.0
X12.0Y-7.0
X13.0Y-6.0
X14.0Y-9.0
X14.5Y-56.0
X15.0Y-10.0
X15.0Y-17.0
X15.987Y-15.987
X16.5Y-8.0
X19.0Y-6.5
X19.0Y-11.0
X19.725Y-16.5
X21.0Y-48.5
X22.0Y-47.5
X22.513Y-21.987
X23.463Y-25.037
X23.469Y-26.068
X23.487Y-22.987
X23.5Y-24.0
X23.5Y-31.5
X23.5Y-37.0
X23.513Y-32.513
X23.519Y-33.532
X23.522Y-34.554
X24.275Y-30.5
X24.5Y-43.5
X26.0Y-14.0
X26.0Y-16.0
X26.0Y-43.5
X27.5Y-43.5
X28.0Y-15.0
X28.5Y-31.0
X30.0Y-31.0
X31.0Y-20.0
X31.0Y-43.5
X32.5Y-43.5
X33.5Y-10.0
X33.5Y-25.0
X34.5Y-42.5
X36.0Y-26.0
X38.413Y-12.912
T4
X8.5Y-4.162
X13.5Y-4.162
T5
X3.0Y-5.46
X3.0Y-8.0
X3.0Y-32.46
X3.0Y-35.0
X3.0Y-38.96
X3.0Y-41.5
X3.0Y-45.46
X3.0Y-48.0
X3.0Y-51.96
X3.0Y-54.5
X41.0Y-5.46
X41.0Y-8.0
X41.0Y-52.46
X41.0Y-55.0
T6
X3.0Y-18.46
X3.0Y-21.0
X3.0Y-24.0
X3.0Y-26.54
X19.5Y-80.75
X22.0Y-80.75
X24.5Y-80.75
X29.92Y-5.0
X31.75Y-68.5
X31.75Y-71.0
X31.75Y-73.5
X32.46Y-5.0
X35.0Y-5.0
T7
X11.317Y-51.841
X11.317Y-56.159
X18.683Y-51.841
X18.683Y-56.159
X25.317Y-51.841
X25.317Y-56.159
X32.683Y-51.841
X32.683Y-56.159
T8
X9.25Y-67.15
X9.25Y-74.85
X13.75Y-67.15
X13.75Y-74.85
T9
X15.35Y-63.25
X15.35Y-78.75
X28.65Y-63.25
X28.65Y-78.75
T3
G00X7.5Y-1.812
M15
G01X7.5Y-1.113
M16
G05
G00X14.5Y-1.113
M15
G01X14.5Y-1.812
M16
G05
T0
M30
