G04 #@! TF.GenerationSoftware,KiCad,Pcbnew,(5.1.10)-1*
G04 #@! TF.CreationDate,2021-06-09T15:44:52+09:00*
G04 #@! TF.ProjectId,controller,636f6e74-726f-46c6-9c65-722e6b696361,rev?*
G04 #@! TF.SameCoordinates,Original*
G04 #@! TF.FileFunction,Soldermask,Bot*
G04 #@! TF.FilePolarity,Negative*
%FSLAX46Y46*%
G04 Gerber Fmt 4.6, Leading zero omitted, Abs format (unit mm)*
G04 Created by KiCad (PCBNEW (5.1.10)-1) date 2021-06-09 15:44:52*
%MOMM*%
%LPD*%
G01*
G04 APERTURE LIST*
%ADD10C,0.300000*%
%ADD11C,3.200000*%
%ADD12O,1.700000X1.700000*%
%ADD13R,1.700000X1.700000*%
%ADD14C,2.540000*%
%ADD15C,1.905000*%
%ADD16R,1.905000X1.905000*%
%ADD17O,1.200000X1.900000*%
%ADD18C,1.450000*%
%ADD19C,1.800000*%
%ADD20R,1.800000X1.800000*%
G04 APERTURE END LIST*
D10*
X26925000Y-36917500D03*
X26925000Y-35082500D03*
X27842500Y-37835000D03*
X27842500Y-36000000D03*
X27842500Y-34165000D03*
X28760000Y-36917500D03*
X28760000Y-35082500D03*
X29677500Y-37835000D03*
X29677500Y-36000000D03*
X29677500Y-34165000D03*
X30595000Y-36917500D03*
X30595000Y-35082500D03*
D11*
X22000000Y-59500000D03*
X4000000Y-80000000D03*
X40000000Y-80000000D03*
D12*
X29920000Y-5000000D03*
X32460000Y-5000000D03*
D13*
X35000000Y-5000000D03*
D14*
X28650000Y-63250000D03*
X15350000Y-63250000D03*
X15350000Y-78750000D03*
X28650000Y-78750000D03*
X13750000Y-67150000D03*
X9250000Y-67150000D03*
X9250000Y-74850000D03*
X13750000Y-74850000D03*
D15*
X31750000Y-68500000D03*
X31750000Y-71000000D03*
X31750000Y-73500000D03*
X19500000Y-80750000D03*
X22000000Y-80750000D03*
X24500000Y-80750000D03*
D16*
X11317000Y-51841000D03*
D15*
X11317000Y-56159000D03*
X18683000Y-56159000D03*
X18683000Y-51841000D03*
D16*
X25317000Y-51841000D03*
D15*
X25317000Y-56159000D03*
X32683000Y-56159000D03*
X32683000Y-51841000D03*
D12*
X3000000Y-18460000D03*
D13*
X3000000Y-21000000D03*
D12*
X3000000Y-26540000D03*
D13*
X3000000Y-24000000D03*
D17*
X7500000Y-1462500D03*
X14500000Y-1462500D03*
D18*
X8500000Y-4162500D03*
X13500000Y-4162500D03*
D19*
X3000000Y-51960000D03*
D20*
X3000000Y-54500000D03*
D19*
X3000000Y-45460000D03*
D20*
X3000000Y-48000000D03*
D19*
X3000000Y-38960000D03*
D20*
X3000000Y-41500000D03*
D19*
X3000000Y-32460000D03*
D20*
X3000000Y-35000000D03*
D19*
X41000000Y-52460000D03*
D20*
X41000000Y-55000000D03*
D19*
X41000000Y-5460000D03*
D20*
X41000000Y-8000000D03*
D19*
X3000000Y-5460000D03*
D20*
X3000000Y-8000000D03*
M02*
