G04 #@! TF.GenerationSoftware,KiCad,Pcbnew,(5.1.10)-1*
G04 #@! TF.CreationDate,2021-06-09T15:44:52+09:00*
G04 #@! TF.ProjectId,controller,636f6e74-726f-46c6-9c65-722e6b696361,rev?*
G04 #@! TF.SameCoordinates,Original*
G04 #@! TF.FileFunction,Copper,L2,Bot*
G04 #@! TF.FilePolarity,Positive*
%FSLAX46Y46*%
G04 Gerber Fmt 4.6, Leading zero omitted, Abs format (unit mm)*
G04 Created by KiCad (PCBNEW (5.1.10)-1) date 2021-06-09 15:44:52*
%MOMM*%
%LPD*%
G01*
G04 APERTURE LIST*
G04 #@! TA.AperFunction,ComponentPad*
%ADD10C,0.300000*%
G04 #@! TD*
G04 #@! TA.AperFunction,ComponentPad*
%ADD11O,1.700000X1.700000*%
G04 #@! TD*
G04 #@! TA.AperFunction,ComponentPad*
%ADD12R,1.700000X1.700000*%
G04 #@! TD*
G04 #@! TA.AperFunction,ComponentPad*
%ADD13C,2.540000*%
G04 #@! TD*
G04 #@! TA.AperFunction,ComponentPad*
%ADD14C,1.905000*%
G04 #@! TD*
G04 #@! TA.AperFunction,ComponentPad*
%ADD15R,1.905000X1.905000*%
G04 #@! TD*
G04 #@! TA.AperFunction,ComponentPad*
%ADD16O,1.200000X1.900000*%
G04 #@! TD*
G04 #@! TA.AperFunction,ComponentPad*
%ADD17C,1.450000*%
G04 #@! TD*
G04 #@! TA.AperFunction,ComponentPad*
%ADD18C,1.800000*%
G04 #@! TD*
G04 #@! TA.AperFunction,ComponentPad*
%ADD19R,1.800000X1.800000*%
G04 #@! TD*
G04 #@! TA.AperFunction,ViaPad*
%ADD20C,0.800000*%
G04 #@! TD*
G04 #@! TA.AperFunction,Conductor*
%ADD21C,0.250000*%
G04 #@! TD*
G04 #@! TA.AperFunction,Conductor*
%ADD22C,0.500000*%
G04 #@! TD*
G04 #@! TA.AperFunction,Conductor*
%ADD23C,0.254000*%
G04 #@! TD*
G04 #@! TA.AperFunction,Conductor*
%ADD24C,0.100000*%
G04 #@! TD*
G04 APERTURE END LIST*
D10*
X26925000Y-36917500D03*
X26925000Y-35082500D03*
X27842500Y-37835000D03*
X27842500Y-36000000D03*
X27842500Y-34165000D03*
X28760000Y-36917500D03*
X28760000Y-35082500D03*
X29677500Y-37835000D03*
X29677500Y-36000000D03*
X29677500Y-34165000D03*
X30595000Y-36917500D03*
X30595000Y-35082500D03*
D11*
X29920000Y-5000000D03*
X32460000Y-5000000D03*
D12*
X35000000Y-5000000D03*
D13*
X28650000Y-63250000D03*
X15350000Y-63250000D03*
X15350000Y-78750000D03*
X28650000Y-78750000D03*
X13750000Y-67150000D03*
X9250000Y-67150000D03*
X9250000Y-74850000D03*
X13750000Y-74850000D03*
D14*
X31750000Y-68500000D03*
X31750000Y-71000000D03*
X31750000Y-73500000D03*
X19500000Y-80750000D03*
X22000000Y-80750000D03*
X24500000Y-80750000D03*
D15*
X11317000Y-51841000D03*
D14*
X11317000Y-56159000D03*
X18683000Y-56159000D03*
X18683000Y-51841000D03*
D15*
X25317000Y-51841000D03*
D14*
X25317000Y-56159000D03*
X32683000Y-56159000D03*
X32683000Y-51841000D03*
D11*
X3000000Y-18460000D03*
D12*
X3000000Y-21000000D03*
D11*
X3000000Y-26540000D03*
D12*
X3000000Y-24000000D03*
D16*
X7500000Y-1462500D03*
X14500000Y-1462500D03*
D17*
X8500000Y-4162500D03*
X13500000Y-4162500D03*
D18*
X3000000Y-51960000D03*
D19*
X3000000Y-54500000D03*
D18*
X3000000Y-45460000D03*
D19*
X3000000Y-48000000D03*
D18*
X3000000Y-38960000D03*
D19*
X3000000Y-41500000D03*
D18*
X3000000Y-32460000D03*
D19*
X3000000Y-35000000D03*
D18*
X41000000Y-52460000D03*
D19*
X41000000Y-55000000D03*
D18*
X41000000Y-5460000D03*
D19*
X41000000Y-8000000D03*
D18*
X3000000Y-5460000D03*
D19*
X3000000Y-8000000D03*
D20*
X14000000Y-9000000D03*
X19000000Y-6500000D03*
X26000000Y-16000000D03*
X26000000Y-14000000D03*
X33500000Y-10000000D03*
X38412500Y-12912500D03*
X33500000Y-25000000D03*
X36000000Y-26000000D03*
X8000000Y-30500000D03*
X13000000Y-6000000D03*
X9000000Y-6000000D03*
X8000000Y-9000000D03*
X7000000Y-13000000D03*
X15987347Y-15987347D03*
X28000000Y-15000000D03*
X31000000Y-20000000D03*
X34500000Y-42500000D03*
X23500000Y-31500000D03*
X23512653Y-32512653D03*
X23518939Y-33531672D03*
X23521910Y-34554007D03*
X12000000Y-7000000D03*
X10000000Y-7000000D03*
X11000000Y-19000000D03*
X7000000Y-25000000D03*
X9000000Y-27500000D03*
X9000000Y-16000000D03*
X23469417Y-26067724D03*
X15000000Y-10000000D03*
X15000000Y-17000000D03*
X4000000Y-10000000D03*
X16500000Y-8000000D03*
X19725000Y-16500000D03*
X32500000Y-43500000D03*
X31000000Y-43500000D03*
X19000000Y-11000000D03*
X22512653Y-21987347D03*
X24500000Y-43500000D03*
X23463499Y-25036501D03*
X23500000Y-24000000D03*
X26000000Y-43500000D03*
X23487347Y-22987347D03*
X27500000Y-43500000D03*
X24275000Y-30500000D03*
X7000000Y-59500000D03*
X21000000Y-48500000D03*
X14500000Y-56000000D03*
X22000000Y-47500000D03*
X23500000Y-37000000D03*
X28500000Y-31000000D03*
X30000000Y-31000000D03*
D21*
X14000000Y-9000000D02*
X17500000Y-9000000D01*
X17500000Y-9000000D02*
X19000000Y-7500000D01*
X19000000Y-7500000D02*
X19000000Y-6500000D01*
X26000000Y-16000000D02*
X26000000Y-14000000D01*
X26000000Y-13500000D02*
X26000000Y-14000000D01*
X19000000Y-6500000D02*
X26000000Y-13500000D01*
X35500000Y-10000000D02*
X38412500Y-12912500D01*
X33500000Y-10000000D02*
X35500000Y-10000000D01*
X38412500Y-20087500D02*
X33500000Y-25000000D01*
X38412500Y-12912500D02*
X38412500Y-20087500D01*
X35000000Y-25000000D02*
X36000000Y-26000000D01*
X33500000Y-25000000D02*
X35000000Y-25000000D01*
X6960000Y-30500000D02*
X8000000Y-30500000D01*
X1000000Y-20460000D02*
X3000000Y-18460000D01*
X1000000Y-26000000D02*
X1000000Y-20460000D01*
X1540000Y-26540000D02*
X1000000Y-26000000D01*
X3000000Y-26540000D02*
X1540000Y-26540000D01*
X3000000Y-26540000D02*
X4540000Y-26540000D01*
X4980000Y-26980000D02*
X4980000Y-28520000D01*
X4540000Y-26540000D02*
X4980000Y-26980000D01*
X4980000Y-28520000D02*
X6960000Y-30500000D01*
D22*
X13000000Y-6000000D02*
X9000000Y-6000000D01*
X7000000Y-10000000D02*
X8000000Y-9000000D01*
X7000000Y-13000000D02*
X7000000Y-10000000D01*
X8000000Y-9000000D02*
X10500000Y-9000000D01*
X15987347Y-14487347D02*
X15987347Y-15987347D01*
X10500000Y-9000000D02*
X15987347Y-14487347D01*
X28000000Y-15000000D02*
X31000000Y-18000000D01*
X31000000Y-18000000D02*
X31000000Y-20000000D01*
D21*
X34500000Y-48459636D02*
X36000000Y-49959636D01*
X34500000Y-42500000D02*
X34500000Y-48459636D01*
X36000000Y-49959636D02*
X36000000Y-51000000D01*
X37460000Y-52460000D02*
X41000000Y-52460000D01*
X36000000Y-51000000D02*
X37460000Y-52460000D01*
X22540000Y-32460000D02*
X3000000Y-32460000D01*
X23500000Y-31500000D02*
X22540000Y-32460000D01*
X17065306Y-38960000D02*
X3000000Y-38960000D01*
X23512653Y-32512653D02*
X17065306Y-38960000D01*
X11590611Y-45460000D02*
X3000000Y-45460000D01*
X23518939Y-33531672D02*
X11590611Y-45460000D01*
X6115917Y-51960000D02*
X3000000Y-51960000D01*
X23521910Y-34554007D02*
X6115917Y-51960000D01*
X12000000Y-7000000D02*
X10000000Y-7000000D01*
X6000000Y-24000000D02*
X3000000Y-24000000D01*
X11000000Y-19000000D02*
X6000000Y-24000000D01*
X6000000Y-24000000D02*
X7000000Y-25000000D01*
X7000000Y-25500000D02*
X7000000Y-25000000D01*
X9000000Y-27500000D02*
X7000000Y-25500000D01*
X9000000Y-16000000D02*
X9000000Y-17000000D01*
X5000000Y-21000000D02*
X3000000Y-21000000D01*
X9000000Y-17000000D02*
X5000000Y-21000000D01*
X9565685Y-16000000D02*
X16000000Y-22434315D01*
X9000000Y-16000000D02*
X9565685Y-16000000D01*
X19836008Y-22434315D02*
X23469417Y-26067724D01*
X16000000Y-22434315D02*
X19836008Y-22434315D01*
X15000000Y-10000000D02*
X16000000Y-10000000D01*
X16000000Y-10000000D02*
X17500000Y-11500000D01*
X17500000Y-11500000D02*
X17500000Y-15500000D01*
X16000000Y-17000000D02*
X15000000Y-17000000D01*
X17500000Y-15500000D02*
X16000000Y-17000000D01*
X4000000Y-10000000D02*
X6000000Y-8000000D01*
X6000000Y-8000000D02*
X16500000Y-8000000D01*
X32500000Y-42934315D02*
X34000000Y-41434315D01*
X32500000Y-43500000D02*
X32500000Y-42934315D01*
X34000000Y-41434315D02*
X34000000Y-27500000D01*
X21225000Y-18000000D02*
X19725000Y-16500000D01*
X24500000Y-18000000D02*
X21225000Y-18000000D01*
X34000000Y-27500000D02*
X24500000Y-18000000D01*
X19000000Y-16848002D02*
X19000000Y-11000000D01*
X20602008Y-18450010D02*
X19000000Y-16848002D01*
X24313600Y-18450010D02*
X20602008Y-18450010D01*
X33500000Y-27636410D02*
X24313600Y-18450010D01*
X33500000Y-41000000D02*
X33500000Y-27636410D01*
X31000000Y-43500000D02*
X33500000Y-41000000D01*
X22512653Y-21987347D02*
X22512653Y-24085655D01*
X25000000Y-43000000D02*
X24500000Y-43500000D01*
X25000000Y-26573002D02*
X25000000Y-43000000D01*
X23463499Y-25036501D02*
X25000000Y-26573002D01*
X22512653Y-24085655D02*
X23463499Y-25036501D01*
X23500000Y-24000000D02*
X25500000Y-26000000D01*
X25500000Y-26000000D02*
X25500000Y-38636410D01*
X26000000Y-39136410D02*
X26000000Y-43500000D01*
X25500000Y-38636410D02*
X26000000Y-39136410D01*
X23774999Y-23274999D02*
X23848001Y-23274999D01*
X23487347Y-22987347D02*
X23774999Y-23274999D01*
X23848001Y-23274999D02*
X26000000Y-25426998D01*
X26000000Y-25426998D02*
X26000000Y-38500000D01*
X27500000Y-40000000D02*
X27500000Y-43500000D01*
X26000000Y-38500000D02*
X27500000Y-40000000D01*
X24275000Y-34873919D02*
X24275000Y-30500000D01*
X7000000Y-52148919D02*
X24275000Y-34873919D01*
X7000000Y-59500000D02*
X7000000Y-52148919D01*
X18000000Y-48500000D02*
X21000000Y-48500000D01*
X14500000Y-52000000D02*
X18000000Y-48500000D01*
X14500000Y-56000000D02*
X14500000Y-52000000D01*
X22000000Y-52842000D02*
X25317000Y-56159000D01*
X22000000Y-47500000D02*
X22000000Y-52842000D01*
X13000000Y-66400000D02*
X13750000Y-67150000D01*
X13000000Y-47500000D02*
X13000000Y-66400000D01*
X23500000Y-37000000D02*
X13000000Y-47500000D01*
X22000000Y-80750000D02*
X22000000Y-65000000D01*
X22000000Y-65000000D02*
X28500000Y-58500000D01*
X28500000Y-58500000D02*
X28500000Y-43000000D01*
X28500000Y-43000000D02*
X32000000Y-39500000D01*
X28500000Y-31000000D02*
X30000000Y-32500000D01*
X31000000Y-32500000D02*
X32000000Y-33500000D01*
X30000000Y-32500000D02*
X31000000Y-32500000D01*
X32000000Y-39500000D02*
X32000000Y-33500000D01*
X30136410Y-31000000D02*
X30000000Y-31000000D01*
X32450009Y-33313599D02*
X30136410Y-31000000D01*
X29000000Y-43136410D02*
X32450010Y-39686400D01*
X29000000Y-58636410D02*
X29000000Y-43136410D01*
X26000000Y-61636410D02*
X29000000Y-58636410D01*
X26000000Y-65250000D02*
X26000000Y-61636410D01*
X32450010Y-39686400D02*
X32450009Y-33313599D01*
X31750000Y-71000000D02*
X26000000Y-65250000D01*
D23*
X6754886Y-461889D02*
X6642275Y-619755D01*
X6562626Y-796557D01*
X6519000Y-985500D01*
X6519000Y-1335500D01*
X7373000Y-1335500D01*
X7373000Y-1315500D01*
X7627000Y-1315500D01*
X7627000Y-1335500D01*
X8481000Y-1335500D01*
X8481000Y-985500D01*
X8437374Y-796557D01*
X8357725Y-619755D01*
X8245114Y-461889D01*
X8185699Y-406000D01*
X13814301Y-406000D01*
X13754886Y-461889D01*
X13642275Y-619755D01*
X13562626Y-796557D01*
X13519000Y-985500D01*
X13519000Y-1335500D01*
X14373000Y-1335500D01*
X14373000Y-1315500D01*
X14627000Y-1315500D01*
X14627000Y-1335500D01*
X15481000Y-1335500D01*
X15481000Y-985500D01*
X15437374Y-796557D01*
X15357725Y-619755D01*
X15245114Y-461889D01*
X15185699Y-406000D01*
X43594000Y-406000D01*
X43594000Y-23373000D01*
X37000000Y-23373000D01*
X36975224Y-23375440D01*
X36951399Y-23382667D01*
X36929443Y-23394403D01*
X36910197Y-23410197D01*
X36894403Y-23429443D01*
X36882667Y-23451399D01*
X36875440Y-23475224D01*
X36873000Y-23500000D01*
X36873000Y-50500000D01*
X36875440Y-50524776D01*
X36882667Y-50548601D01*
X36894403Y-50570557D01*
X36910197Y-50589803D01*
X36929443Y-50605597D01*
X36951399Y-50617333D01*
X36975224Y-50624560D01*
X37000000Y-50627000D01*
X43594001Y-50627000D01*
X43594001Y-83594000D01*
X406000Y-83594000D01*
X406000Y-79804889D01*
X2019000Y-79804889D01*
X2019000Y-80195111D01*
X2095129Y-80577836D01*
X2244461Y-80938355D01*
X2461257Y-81262814D01*
X2737186Y-81538743D01*
X3061645Y-81755539D01*
X3422164Y-81904871D01*
X3804889Y-81981000D01*
X4195111Y-81981000D01*
X4577836Y-81904871D01*
X4938355Y-81755539D01*
X5262814Y-81538743D01*
X5538743Y-81262814D01*
X5755539Y-80938355D01*
X5904871Y-80577836D01*
X5981000Y-80195111D01*
X5981000Y-79941879D01*
X14337726Y-79941879D01*
X14480478Y-80162860D01*
X14772821Y-80305348D01*
X15087344Y-80388064D01*
X15411962Y-80407831D01*
X15734198Y-80363888D01*
X16041670Y-80257924D01*
X16219522Y-80162860D01*
X16362274Y-79941879D01*
X15350000Y-78929605D01*
X14337726Y-79941879D01*
X5981000Y-79941879D01*
X5981000Y-79804889D01*
X5904871Y-79422164D01*
X5755539Y-79061645D01*
X5588707Y-78811962D01*
X13692169Y-78811962D01*
X13736112Y-79134198D01*
X13842076Y-79441670D01*
X13937140Y-79619522D01*
X14158121Y-79762274D01*
X15170395Y-78750000D01*
X15529605Y-78750000D01*
X16541879Y-79762274D01*
X16762860Y-79619522D01*
X16905348Y-79327179D01*
X16988064Y-79012656D01*
X17007831Y-78688038D01*
X16963888Y-78365802D01*
X16857924Y-78058330D01*
X16762860Y-77880478D01*
X16541879Y-77737726D01*
X15529605Y-78750000D01*
X15170395Y-78750000D01*
X14158121Y-77737726D01*
X13937140Y-77880478D01*
X13794652Y-78172821D01*
X13711936Y-78487344D01*
X13692169Y-78811962D01*
X5588707Y-78811962D01*
X5538743Y-78737186D01*
X5262814Y-78461257D01*
X4938355Y-78244461D01*
X4577836Y-78095129D01*
X4195111Y-78019000D01*
X3804889Y-78019000D01*
X3422164Y-78095129D01*
X3061645Y-78244461D01*
X2737186Y-78461257D01*
X2461257Y-78737186D01*
X2244461Y-79061645D01*
X2095129Y-79422164D01*
X2019000Y-79804889D01*
X406000Y-79804889D01*
X406000Y-77558121D01*
X14337726Y-77558121D01*
X15350000Y-78570395D01*
X16362274Y-77558121D01*
X16219522Y-77337140D01*
X15927179Y-77194652D01*
X15612656Y-77111936D01*
X15288038Y-77092169D01*
X14965802Y-77136112D01*
X14658330Y-77242076D01*
X14480478Y-77337140D01*
X14337726Y-77558121D01*
X406000Y-77558121D01*
X406000Y-74687391D01*
X7599000Y-74687391D01*
X7599000Y-75012609D01*
X7662447Y-75331579D01*
X7786903Y-75632042D01*
X7967585Y-75902451D01*
X8197549Y-76132415D01*
X8467958Y-76313097D01*
X8768421Y-76437553D01*
X9087391Y-76501000D01*
X9412609Y-76501000D01*
X9731579Y-76437553D01*
X10032042Y-76313097D01*
X10302451Y-76132415D01*
X10532415Y-75902451D01*
X10713097Y-75632042D01*
X10837553Y-75331579D01*
X10901000Y-75012609D01*
X10901000Y-74687391D01*
X12099000Y-74687391D01*
X12099000Y-75012609D01*
X12162447Y-75331579D01*
X12286903Y-75632042D01*
X12467585Y-75902451D01*
X12697549Y-76132415D01*
X12967958Y-76313097D01*
X13268421Y-76437553D01*
X13587391Y-76501000D01*
X13912609Y-76501000D01*
X14231579Y-76437553D01*
X14532042Y-76313097D01*
X14802451Y-76132415D01*
X15032415Y-75902451D01*
X15213097Y-75632042D01*
X15337553Y-75331579D01*
X15401000Y-75012609D01*
X15401000Y-74687391D01*
X15337553Y-74368421D01*
X15213097Y-74067958D01*
X15032415Y-73797549D01*
X14802451Y-73567585D01*
X14532042Y-73386903D01*
X14231579Y-73262447D01*
X13912609Y-73199000D01*
X13587391Y-73199000D01*
X13268421Y-73262447D01*
X12967958Y-73386903D01*
X12697549Y-73567585D01*
X12467585Y-73797549D01*
X12286903Y-74067958D01*
X12162447Y-74368421D01*
X12099000Y-74687391D01*
X10901000Y-74687391D01*
X10837553Y-74368421D01*
X10713097Y-74067958D01*
X10532415Y-73797549D01*
X10302451Y-73567585D01*
X10032042Y-73386903D01*
X9731579Y-73262447D01*
X9412609Y-73199000D01*
X9087391Y-73199000D01*
X8768421Y-73262447D01*
X8467958Y-73386903D01*
X8197549Y-73567585D01*
X7967585Y-73797549D01*
X7786903Y-74067958D01*
X7662447Y-74368421D01*
X7599000Y-74687391D01*
X406000Y-74687391D01*
X406000Y-66987391D01*
X7599000Y-66987391D01*
X7599000Y-67312609D01*
X7662447Y-67631579D01*
X7786903Y-67932042D01*
X7967585Y-68202451D01*
X8197549Y-68432415D01*
X8467958Y-68613097D01*
X8768421Y-68737553D01*
X9087391Y-68801000D01*
X9412609Y-68801000D01*
X9731579Y-68737553D01*
X10032042Y-68613097D01*
X10302451Y-68432415D01*
X10532415Y-68202451D01*
X10713097Y-67932042D01*
X10837553Y-67631579D01*
X10901000Y-67312609D01*
X10901000Y-66987391D01*
X10837553Y-66668421D01*
X10713097Y-66367958D01*
X10532415Y-66097549D01*
X10302451Y-65867585D01*
X10032042Y-65686903D01*
X9731579Y-65562447D01*
X9412609Y-65499000D01*
X9087391Y-65499000D01*
X8768421Y-65562447D01*
X8467958Y-65686903D01*
X8197549Y-65867585D01*
X7967585Y-66097549D01*
X7786903Y-66367958D01*
X7662447Y-66668421D01*
X7599000Y-66987391D01*
X406000Y-66987391D01*
X406000Y-34100000D01*
X1717157Y-34100000D01*
X1717157Y-35900000D01*
X1724513Y-35974689D01*
X1746299Y-36046508D01*
X1781678Y-36112696D01*
X1829289Y-36170711D01*
X1887304Y-36218322D01*
X1953492Y-36253701D01*
X2025311Y-36275487D01*
X2100000Y-36282843D01*
X3900000Y-36282843D01*
X3974689Y-36275487D01*
X4046508Y-36253701D01*
X4112696Y-36218322D01*
X4170711Y-36170711D01*
X4218322Y-36112696D01*
X4253701Y-36046508D01*
X4275487Y-35974689D01*
X4282843Y-35900000D01*
X4282843Y-34100000D01*
X4275487Y-34025311D01*
X4253701Y-33953492D01*
X4218322Y-33887304D01*
X4170711Y-33829289D01*
X4112696Y-33781678D01*
X4046508Y-33746299D01*
X3974689Y-33724513D01*
X3900000Y-33717157D01*
X3246034Y-33717157D01*
X3373654Y-33691772D01*
X3606781Y-33595207D01*
X3816590Y-33455018D01*
X3995018Y-33276590D01*
X4135207Y-33066781D01*
X4176952Y-32966000D01*
X22343714Y-32966000D01*
X16855715Y-38454000D01*
X4176952Y-38454000D01*
X4135207Y-38353219D01*
X3995018Y-38143410D01*
X3816590Y-37964982D01*
X3606781Y-37824793D01*
X3373654Y-37728228D01*
X3126167Y-37679000D01*
X2873833Y-37679000D01*
X2626346Y-37728228D01*
X2393219Y-37824793D01*
X2183410Y-37964982D01*
X2004982Y-38143410D01*
X1864793Y-38353219D01*
X1768228Y-38586346D01*
X1719000Y-38833833D01*
X1719000Y-39086167D01*
X1768228Y-39333654D01*
X1864793Y-39566781D01*
X2004982Y-39776590D01*
X2183410Y-39955018D01*
X2393219Y-40095207D01*
X2626346Y-40191772D01*
X2753966Y-40217157D01*
X2100000Y-40217157D01*
X2025311Y-40224513D01*
X1953492Y-40246299D01*
X1887304Y-40281678D01*
X1829289Y-40329289D01*
X1781678Y-40387304D01*
X1746299Y-40453492D01*
X1724513Y-40525311D01*
X1717157Y-40600000D01*
X1717157Y-42400000D01*
X1724513Y-42474689D01*
X1746299Y-42546508D01*
X1781678Y-42612696D01*
X1829289Y-42670711D01*
X1887304Y-42718322D01*
X1953492Y-42753701D01*
X2025311Y-42775487D01*
X2100000Y-42782843D01*
X3900000Y-42782843D01*
X3974689Y-42775487D01*
X4046508Y-42753701D01*
X4112696Y-42718322D01*
X4170711Y-42670711D01*
X4218322Y-42612696D01*
X4253701Y-42546508D01*
X4275487Y-42474689D01*
X4282843Y-42400000D01*
X4282843Y-40600000D01*
X4275487Y-40525311D01*
X4253701Y-40453492D01*
X4218322Y-40387304D01*
X4170711Y-40329289D01*
X4112696Y-40281678D01*
X4046508Y-40246299D01*
X3974689Y-40224513D01*
X3900000Y-40217157D01*
X3246034Y-40217157D01*
X3373654Y-40191772D01*
X3606781Y-40095207D01*
X3816590Y-39955018D01*
X3995018Y-39776590D01*
X4135207Y-39566781D01*
X4176952Y-39466000D01*
X16869020Y-39466000D01*
X11381020Y-44954000D01*
X4176952Y-44954000D01*
X4135207Y-44853219D01*
X3995018Y-44643410D01*
X3816590Y-44464982D01*
X3606781Y-44324793D01*
X3373654Y-44228228D01*
X3126167Y-44179000D01*
X2873833Y-44179000D01*
X2626346Y-44228228D01*
X2393219Y-44324793D01*
X2183410Y-44464982D01*
X2004982Y-44643410D01*
X1864793Y-44853219D01*
X1768228Y-45086346D01*
X1719000Y-45333833D01*
X1719000Y-45586167D01*
X1768228Y-45833654D01*
X1864793Y-46066781D01*
X2004982Y-46276590D01*
X2183410Y-46455018D01*
X2393219Y-46595207D01*
X2626346Y-46691772D01*
X2753966Y-46717157D01*
X2100000Y-46717157D01*
X2025311Y-46724513D01*
X1953492Y-46746299D01*
X1887304Y-46781678D01*
X1829289Y-46829289D01*
X1781678Y-46887304D01*
X1746299Y-46953492D01*
X1724513Y-47025311D01*
X1717157Y-47100000D01*
X1717157Y-48900000D01*
X1724513Y-48974689D01*
X1746299Y-49046508D01*
X1781678Y-49112696D01*
X1829289Y-49170711D01*
X1887304Y-49218322D01*
X1953492Y-49253701D01*
X2025311Y-49275487D01*
X2100000Y-49282843D01*
X3900000Y-49282843D01*
X3974689Y-49275487D01*
X4046508Y-49253701D01*
X4112696Y-49218322D01*
X4170711Y-49170711D01*
X4218322Y-49112696D01*
X4253701Y-49046508D01*
X4275487Y-48974689D01*
X4282843Y-48900000D01*
X4282843Y-47100000D01*
X4275487Y-47025311D01*
X4253701Y-46953492D01*
X4218322Y-46887304D01*
X4170711Y-46829289D01*
X4112696Y-46781678D01*
X4046508Y-46746299D01*
X3974689Y-46724513D01*
X3900000Y-46717157D01*
X3246034Y-46717157D01*
X3373654Y-46691772D01*
X3606781Y-46595207D01*
X3816590Y-46455018D01*
X3995018Y-46276590D01*
X4135207Y-46066781D01*
X4176952Y-45966000D01*
X11394326Y-45966000D01*
X5906326Y-51454000D01*
X4176952Y-51454000D01*
X4135207Y-51353219D01*
X3995018Y-51143410D01*
X3816590Y-50964982D01*
X3606781Y-50824793D01*
X3373654Y-50728228D01*
X3126167Y-50679000D01*
X2873833Y-50679000D01*
X2626346Y-50728228D01*
X2393219Y-50824793D01*
X2183410Y-50964982D01*
X2004982Y-51143410D01*
X1864793Y-51353219D01*
X1768228Y-51586346D01*
X1719000Y-51833833D01*
X1719000Y-52086167D01*
X1768228Y-52333654D01*
X1864793Y-52566781D01*
X2004982Y-52776590D01*
X2183410Y-52955018D01*
X2393219Y-53095207D01*
X2626346Y-53191772D01*
X2753966Y-53217157D01*
X2100000Y-53217157D01*
X2025311Y-53224513D01*
X1953492Y-53246299D01*
X1887304Y-53281678D01*
X1829289Y-53329289D01*
X1781678Y-53387304D01*
X1746299Y-53453492D01*
X1724513Y-53525311D01*
X1717157Y-53600000D01*
X1717157Y-55400000D01*
X1724513Y-55474689D01*
X1746299Y-55546508D01*
X1781678Y-55612696D01*
X1829289Y-55670711D01*
X1887304Y-55718322D01*
X1953492Y-55753701D01*
X2025311Y-55775487D01*
X2100000Y-55782843D01*
X3900000Y-55782843D01*
X3974689Y-55775487D01*
X4046508Y-55753701D01*
X4112696Y-55718322D01*
X4170711Y-55670711D01*
X4218322Y-55612696D01*
X4253701Y-55546508D01*
X4275487Y-55474689D01*
X4282843Y-55400000D01*
X4282843Y-53600000D01*
X4275487Y-53525311D01*
X4253701Y-53453492D01*
X4218322Y-53387304D01*
X4170711Y-53329289D01*
X4112696Y-53281678D01*
X4046508Y-53246299D01*
X3974689Y-53224513D01*
X3900000Y-53217157D01*
X3246034Y-53217157D01*
X3373654Y-53191772D01*
X3606781Y-53095207D01*
X3816590Y-52955018D01*
X3995018Y-52776590D01*
X4135207Y-52566781D01*
X4176952Y-52466000D01*
X6091071Y-52466000D01*
X6115917Y-52468447D01*
X6140763Y-52466000D01*
X6140771Y-52466000D01*
X6215110Y-52458678D01*
X6310492Y-52429745D01*
X6398396Y-52382759D01*
X6475444Y-52319527D01*
X6491293Y-52300215D01*
X6494001Y-52297507D01*
X6494000Y-58901499D01*
X6393358Y-59002141D01*
X6307887Y-59130058D01*
X6249013Y-59272191D01*
X6219000Y-59423078D01*
X6219000Y-59576922D01*
X6249013Y-59727809D01*
X6307887Y-59869942D01*
X6393358Y-59997859D01*
X6502141Y-60106642D01*
X6630058Y-60192113D01*
X6772191Y-60250987D01*
X6923078Y-60281000D01*
X7076922Y-60281000D01*
X7227809Y-60250987D01*
X7369942Y-60192113D01*
X7497859Y-60106642D01*
X7606642Y-59997859D01*
X7692113Y-59869942D01*
X7750987Y-59727809D01*
X7781000Y-59576922D01*
X7781000Y-59423078D01*
X7750987Y-59272191D01*
X7692113Y-59130058D01*
X7606642Y-59002141D01*
X7506000Y-58901499D01*
X7506000Y-52793500D01*
X9981657Y-52793500D01*
X9989013Y-52868189D01*
X10010799Y-52940008D01*
X10046178Y-53006196D01*
X10093789Y-53064211D01*
X10151804Y-53111822D01*
X10217992Y-53147201D01*
X10289811Y-53168987D01*
X10364500Y-53176343D01*
X11094750Y-53174500D01*
X11190000Y-53079250D01*
X11190000Y-51968000D01*
X10078750Y-51968000D01*
X9983500Y-52063250D01*
X9981657Y-52793500D01*
X7506000Y-52793500D01*
X7506000Y-52358510D01*
X8976010Y-50888500D01*
X9981657Y-50888500D01*
X9983500Y-51618750D01*
X10078750Y-51714000D01*
X11190000Y-51714000D01*
X11190000Y-50602750D01*
X11094750Y-50507500D01*
X10364500Y-50505657D01*
X10289811Y-50513013D01*
X10217992Y-50534799D01*
X10151804Y-50570178D01*
X10093789Y-50617789D01*
X10046178Y-50675804D01*
X10010799Y-50741992D01*
X9989013Y-50813811D01*
X9981657Y-50888500D01*
X8976010Y-50888500D01*
X12517702Y-47346808D01*
X12501322Y-47400808D01*
X12494000Y-47475147D01*
X12494000Y-47475154D01*
X12491553Y-47500000D01*
X12494000Y-47524846D01*
X12494000Y-50579865D01*
X12482196Y-50570178D01*
X12416008Y-50534799D01*
X12344189Y-50513013D01*
X12269500Y-50505657D01*
X11539250Y-50507500D01*
X11444000Y-50602750D01*
X11444000Y-51714000D01*
X11464000Y-51714000D01*
X11464000Y-51968000D01*
X11444000Y-51968000D01*
X11444000Y-53079250D01*
X11539250Y-53174500D01*
X12269500Y-53176343D01*
X12344189Y-53168987D01*
X12416008Y-53147201D01*
X12482196Y-53111822D01*
X12494000Y-53102135D01*
X12494000Y-55520270D01*
X12352797Y-55308943D01*
X12167057Y-55123203D01*
X11948649Y-54977268D01*
X11705968Y-54876746D01*
X11448338Y-54825500D01*
X11185662Y-54825500D01*
X10928032Y-54876746D01*
X10685351Y-54977268D01*
X10466943Y-55123203D01*
X10281203Y-55308943D01*
X10135268Y-55527351D01*
X10034746Y-55770032D01*
X9983500Y-56027662D01*
X9983500Y-56290338D01*
X10034746Y-56547968D01*
X10135268Y-56790649D01*
X10281203Y-57009057D01*
X10466943Y-57194797D01*
X10685351Y-57340732D01*
X10928032Y-57441254D01*
X11185662Y-57492500D01*
X11448338Y-57492500D01*
X11705968Y-57441254D01*
X11948649Y-57340732D01*
X12167057Y-57194797D01*
X12352797Y-57009057D01*
X12494000Y-56797730D01*
X12494001Y-66071133D01*
X12467585Y-66097549D01*
X12286903Y-66367958D01*
X12162447Y-66668421D01*
X12099000Y-66987391D01*
X12099000Y-67312609D01*
X12162447Y-67631579D01*
X12286903Y-67932042D01*
X12467585Y-68202451D01*
X12697549Y-68432415D01*
X12967958Y-68613097D01*
X13268421Y-68737553D01*
X13587391Y-68801000D01*
X13912609Y-68801000D01*
X14231579Y-68737553D01*
X14532042Y-68613097D01*
X14802451Y-68432415D01*
X15032415Y-68202451D01*
X15213097Y-67932042D01*
X15337553Y-67631579D01*
X15401000Y-67312609D01*
X15401000Y-66987391D01*
X15337553Y-66668421D01*
X15213097Y-66367958D01*
X15032415Y-66097549D01*
X14802451Y-65867585D01*
X14532042Y-65686903D01*
X14231579Y-65562447D01*
X13912609Y-65499000D01*
X13587391Y-65499000D01*
X13506000Y-65515190D01*
X13506000Y-64441879D01*
X14337726Y-64441879D01*
X14480478Y-64662860D01*
X14772821Y-64805348D01*
X15087344Y-64888064D01*
X15411962Y-64907831D01*
X15734198Y-64863888D01*
X16041670Y-64757924D01*
X16219522Y-64662860D01*
X16362274Y-64441879D01*
X15350000Y-63429605D01*
X14337726Y-64441879D01*
X13506000Y-64441879D01*
X13506000Y-63311962D01*
X13692169Y-63311962D01*
X13736112Y-63634198D01*
X13842076Y-63941670D01*
X13937140Y-64119522D01*
X14158121Y-64262274D01*
X15170395Y-63250000D01*
X15529605Y-63250000D01*
X16541879Y-64262274D01*
X16762860Y-64119522D01*
X16905348Y-63827179D01*
X16988064Y-63512656D01*
X17007831Y-63188038D01*
X16963888Y-62865802D01*
X16857924Y-62558330D01*
X16762860Y-62380478D01*
X16541879Y-62237726D01*
X15529605Y-63250000D01*
X15170395Y-63250000D01*
X14158121Y-62237726D01*
X13937140Y-62380478D01*
X13794652Y-62672821D01*
X13711936Y-62987344D01*
X13692169Y-63311962D01*
X13506000Y-63311962D01*
X13506000Y-62058121D01*
X14337726Y-62058121D01*
X15350000Y-63070395D01*
X16362274Y-62058121D01*
X16219522Y-61837140D01*
X15927179Y-61694652D01*
X15612656Y-61611936D01*
X15288038Y-61592169D01*
X14965802Y-61636112D01*
X14658330Y-61742076D01*
X14480478Y-61837140D01*
X14337726Y-62058121D01*
X13506000Y-62058121D01*
X13506000Y-59304889D01*
X20019000Y-59304889D01*
X20019000Y-59695111D01*
X20095129Y-60077836D01*
X20244461Y-60438355D01*
X20461257Y-60762814D01*
X20737186Y-61038743D01*
X21061645Y-61255539D01*
X21422164Y-61404871D01*
X21804889Y-61481000D01*
X22195111Y-61481000D01*
X22577836Y-61404871D01*
X22938355Y-61255539D01*
X23262814Y-61038743D01*
X23538743Y-60762814D01*
X23755539Y-60438355D01*
X23904871Y-60077836D01*
X23981000Y-59695111D01*
X23981000Y-59304889D01*
X23904871Y-58922164D01*
X23755539Y-58561645D01*
X23538743Y-58237186D01*
X23262814Y-57961257D01*
X22938355Y-57744461D01*
X22577836Y-57595129D01*
X22195111Y-57519000D01*
X21804889Y-57519000D01*
X21422164Y-57595129D01*
X21061645Y-57744461D01*
X20737186Y-57961257D01*
X20461257Y-58237186D01*
X20244461Y-58561645D01*
X20095129Y-58922164D01*
X20019000Y-59304889D01*
X13506000Y-59304889D01*
X13506000Y-55923078D01*
X13719000Y-55923078D01*
X13719000Y-56076922D01*
X13749013Y-56227809D01*
X13807887Y-56369942D01*
X13893358Y-56497859D01*
X14002141Y-56606642D01*
X14130058Y-56692113D01*
X14272191Y-56750987D01*
X14423078Y-56781000D01*
X14576922Y-56781000D01*
X14727809Y-56750987D01*
X14869942Y-56692113D01*
X14997859Y-56606642D01*
X15106642Y-56497859D01*
X15192113Y-56369942D01*
X15250987Y-56227809D01*
X15281000Y-56076922D01*
X15281000Y-56027662D01*
X17349500Y-56027662D01*
X17349500Y-56290338D01*
X17400746Y-56547968D01*
X17501268Y-56790649D01*
X17647203Y-57009057D01*
X17832943Y-57194797D01*
X18051351Y-57340732D01*
X18294032Y-57441254D01*
X18551662Y-57492500D01*
X18814338Y-57492500D01*
X19071968Y-57441254D01*
X19314649Y-57340732D01*
X19533057Y-57194797D01*
X19718797Y-57009057D01*
X19864732Y-56790649D01*
X19965254Y-56547968D01*
X20016500Y-56290338D01*
X20016500Y-56027662D01*
X19965254Y-55770032D01*
X19864732Y-55527351D01*
X19718797Y-55308943D01*
X19533057Y-55123203D01*
X19314649Y-54977268D01*
X19071968Y-54876746D01*
X18814338Y-54825500D01*
X18551662Y-54825500D01*
X18294032Y-54876746D01*
X18051351Y-54977268D01*
X17832943Y-55123203D01*
X17647203Y-55308943D01*
X17501268Y-55527351D01*
X17400746Y-55770032D01*
X17349500Y-56027662D01*
X15281000Y-56027662D01*
X15281000Y-55923078D01*
X15250987Y-55772191D01*
X15192113Y-55630058D01*
X15106642Y-55502141D01*
X15006000Y-55401499D01*
X15006000Y-52806346D01*
X17897259Y-52806346D01*
X18001686Y-52994812D01*
X18239875Y-53105559D01*
X18495093Y-53167711D01*
X18757533Y-53178876D01*
X19017107Y-53138629D01*
X19263842Y-53048514D01*
X19364314Y-52994812D01*
X19468741Y-52806346D01*
X18683000Y-52020605D01*
X17897259Y-52806346D01*
X15006000Y-52806346D01*
X15006000Y-52209591D01*
X15300058Y-51915533D01*
X17345124Y-51915533D01*
X17385371Y-52175107D01*
X17475486Y-52421842D01*
X17529188Y-52522314D01*
X17717654Y-52626741D01*
X18503395Y-51841000D01*
X18862605Y-51841000D01*
X19648346Y-52626741D01*
X19836812Y-52522314D01*
X19947559Y-52284125D01*
X20009711Y-52028907D01*
X20020876Y-51766467D01*
X19980629Y-51506893D01*
X19890514Y-51260158D01*
X19836812Y-51159686D01*
X19648346Y-51055259D01*
X18862605Y-51841000D01*
X18503395Y-51841000D01*
X17717654Y-51055259D01*
X17529188Y-51159686D01*
X17418441Y-51397875D01*
X17356289Y-51653093D01*
X17345124Y-51915533D01*
X15300058Y-51915533D01*
X16339937Y-50875654D01*
X17897259Y-50875654D01*
X18683000Y-51661395D01*
X19468741Y-50875654D01*
X19364314Y-50687188D01*
X19126125Y-50576441D01*
X18870907Y-50514289D01*
X18608467Y-50503124D01*
X18348893Y-50543371D01*
X18102158Y-50633486D01*
X18001686Y-50687188D01*
X17897259Y-50875654D01*
X16339937Y-50875654D01*
X18209592Y-49006000D01*
X20401499Y-49006000D01*
X20502141Y-49106642D01*
X20630058Y-49192113D01*
X20772191Y-49250987D01*
X20923078Y-49281000D01*
X21076922Y-49281000D01*
X21227809Y-49250987D01*
X21369942Y-49192113D01*
X21494000Y-49109220D01*
X21494001Y-52817144D01*
X21491553Y-52842000D01*
X21501322Y-52941192D01*
X21530255Y-53036574D01*
X21552127Y-53077492D01*
X21577242Y-53124479D01*
X21640474Y-53201527D01*
X21659781Y-53217372D01*
X24086792Y-55644383D01*
X24034746Y-55770032D01*
X23983500Y-56027662D01*
X23983500Y-56290338D01*
X24034746Y-56547968D01*
X24135268Y-56790649D01*
X24281203Y-57009057D01*
X24466943Y-57194797D01*
X24685351Y-57340732D01*
X24928032Y-57441254D01*
X25185662Y-57492500D01*
X25448338Y-57492500D01*
X25705968Y-57441254D01*
X25948649Y-57340732D01*
X26167057Y-57194797D01*
X26352797Y-57009057D01*
X26498732Y-56790649D01*
X26599254Y-56547968D01*
X26650500Y-56290338D01*
X26650500Y-56027662D01*
X26599254Y-55770032D01*
X26498732Y-55527351D01*
X26352797Y-55308943D01*
X26167057Y-55123203D01*
X25948649Y-54977268D01*
X25705968Y-54876746D01*
X25448338Y-54825500D01*
X25185662Y-54825500D01*
X24928032Y-54876746D01*
X24802383Y-54928792D01*
X22667091Y-52793500D01*
X23981657Y-52793500D01*
X23989013Y-52868189D01*
X24010799Y-52940008D01*
X24046178Y-53006196D01*
X24093789Y-53064211D01*
X24151804Y-53111822D01*
X24217992Y-53147201D01*
X24289811Y-53168987D01*
X24364500Y-53176343D01*
X25094750Y-53174500D01*
X25190000Y-53079250D01*
X25190000Y-51968000D01*
X25444000Y-51968000D01*
X25444000Y-53079250D01*
X25539250Y-53174500D01*
X26269500Y-53176343D01*
X26344189Y-53168987D01*
X26416008Y-53147201D01*
X26482196Y-53111822D01*
X26540211Y-53064211D01*
X26587822Y-53006196D01*
X26623201Y-52940008D01*
X26644987Y-52868189D01*
X26652343Y-52793500D01*
X26650500Y-52063250D01*
X26555250Y-51968000D01*
X25444000Y-51968000D01*
X25190000Y-51968000D01*
X24078750Y-51968000D01*
X23983500Y-52063250D01*
X23981657Y-52793500D01*
X22667091Y-52793500D01*
X22506000Y-52632409D01*
X22506000Y-50888500D01*
X23981657Y-50888500D01*
X23983500Y-51618750D01*
X24078750Y-51714000D01*
X25190000Y-51714000D01*
X25190000Y-50602750D01*
X25444000Y-50602750D01*
X25444000Y-51714000D01*
X26555250Y-51714000D01*
X26650500Y-51618750D01*
X26652343Y-50888500D01*
X26644987Y-50813811D01*
X26623201Y-50741992D01*
X26587822Y-50675804D01*
X26540211Y-50617789D01*
X26482196Y-50570178D01*
X26416008Y-50534799D01*
X26344189Y-50513013D01*
X26269500Y-50505657D01*
X25539250Y-50507500D01*
X25444000Y-50602750D01*
X25190000Y-50602750D01*
X25094750Y-50507500D01*
X24364500Y-50505657D01*
X24289811Y-50513013D01*
X24217992Y-50534799D01*
X24151804Y-50570178D01*
X24093789Y-50617789D01*
X24046178Y-50675804D01*
X24010799Y-50741992D01*
X23989013Y-50813811D01*
X23981657Y-50888500D01*
X22506000Y-50888500D01*
X22506000Y-48098501D01*
X22606642Y-47997859D01*
X22692113Y-47869942D01*
X22750987Y-47727809D01*
X22781000Y-47576922D01*
X22781000Y-47423078D01*
X22750987Y-47272191D01*
X22692113Y-47130058D01*
X22606642Y-47002141D01*
X22497859Y-46893358D01*
X22369942Y-46807887D01*
X22227809Y-46749013D01*
X22076922Y-46719000D01*
X21923078Y-46719000D01*
X21772191Y-46749013D01*
X21630058Y-46807887D01*
X21502141Y-46893358D01*
X21393358Y-47002141D01*
X21307887Y-47130058D01*
X21249013Y-47272191D01*
X21219000Y-47423078D01*
X21219000Y-47576922D01*
X21249013Y-47727809D01*
X21264007Y-47764007D01*
X21227809Y-47749013D01*
X21076922Y-47719000D01*
X20923078Y-47719000D01*
X20772191Y-47749013D01*
X20630058Y-47807887D01*
X20502141Y-47893358D01*
X20401499Y-47994000D01*
X18024845Y-47994000D01*
X17999999Y-47991553D01*
X17975153Y-47994000D01*
X17975146Y-47994000D01*
X17910694Y-48000348D01*
X17900806Y-48001322D01*
X17878607Y-48008056D01*
X17805425Y-48030255D01*
X17717521Y-48077241D01*
X17640473Y-48140473D01*
X17624628Y-48159780D01*
X14159781Y-51624628D01*
X14140474Y-51640473D01*
X14077242Y-51717521D01*
X14052127Y-51764508D01*
X14030255Y-51805426D01*
X14001322Y-51900808D01*
X13991553Y-52000000D01*
X13994001Y-52024856D01*
X13994000Y-55401499D01*
X13893358Y-55502141D01*
X13807887Y-55630058D01*
X13749013Y-55772191D01*
X13719000Y-55923078D01*
X13506000Y-55923078D01*
X13506000Y-47709591D01*
X23434592Y-37781000D01*
X23576922Y-37781000D01*
X23727809Y-37750987D01*
X23869942Y-37692113D01*
X23997859Y-37606642D01*
X24106642Y-37497859D01*
X24192113Y-37369942D01*
X24250987Y-37227809D01*
X24281000Y-37076922D01*
X24281000Y-36923078D01*
X24250987Y-36772191D01*
X24192113Y-36630058D01*
X24106642Y-36502141D01*
X23997859Y-36393358D01*
X23869942Y-36307887D01*
X23727809Y-36249013D01*
X23634131Y-36230380D01*
X24494001Y-35370510D01*
X24494001Y-42719000D01*
X24423078Y-42719000D01*
X24272191Y-42749013D01*
X24130058Y-42807887D01*
X24002141Y-42893358D01*
X23893358Y-43002141D01*
X23807887Y-43130058D01*
X23749013Y-43272191D01*
X23719000Y-43423078D01*
X23719000Y-43576922D01*
X23749013Y-43727809D01*
X23807887Y-43869942D01*
X23893358Y-43997859D01*
X24002141Y-44106642D01*
X24130058Y-44192113D01*
X24272191Y-44250987D01*
X24423078Y-44281000D01*
X24576922Y-44281000D01*
X24727809Y-44250987D01*
X24869942Y-44192113D01*
X24997859Y-44106642D01*
X25106642Y-43997859D01*
X25192113Y-43869942D01*
X25250000Y-43730192D01*
X25307887Y-43869942D01*
X25393358Y-43997859D01*
X25502141Y-44106642D01*
X25630058Y-44192113D01*
X25772191Y-44250987D01*
X25923078Y-44281000D01*
X26076922Y-44281000D01*
X26227809Y-44250987D01*
X26369942Y-44192113D01*
X26497859Y-44106642D01*
X26606642Y-43997859D01*
X26692113Y-43869942D01*
X26750000Y-43730192D01*
X26807887Y-43869942D01*
X26893358Y-43997859D01*
X27002141Y-44106642D01*
X27130058Y-44192113D01*
X27272191Y-44250987D01*
X27423078Y-44281000D01*
X27576922Y-44281000D01*
X27727809Y-44250987D01*
X27869942Y-44192113D01*
X27994001Y-44109220D01*
X27994000Y-58290408D01*
X21659781Y-64624628D01*
X21640474Y-64640473D01*
X21577242Y-64717521D01*
X21564397Y-64741553D01*
X21530255Y-64805426D01*
X21501322Y-64900808D01*
X21491553Y-65000000D01*
X21494001Y-65024856D01*
X21494000Y-79516222D01*
X21368351Y-79568268D01*
X21149943Y-79714203D01*
X20964203Y-79899943D01*
X20818268Y-80118351D01*
X20750000Y-80283164D01*
X20681732Y-80118351D01*
X20535797Y-79899943D01*
X20350057Y-79714203D01*
X20131649Y-79568268D01*
X19888968Y-79467746D01*
X19631338Y-79416500D01*
X19368662Y-79416500D01*
X19111032Y-79467746D01*
X18868351Y-79568268D01*
X18649943Y-79714203D01*
X18464203Y-79899943D01*
X18318268Y-80118351D01*
X18217746Y-80361032D01*
X18166500Y-80618662D01*
X18166500Y-80881338D01*
X18217746Y-81138968D01*
X18318268Y-81381649D01*
X18464203Y-81600057D01*
X18649943Y-81785797D01*
X18868351Y-81931732D01*
X19111032Y-82032254D01*
X19368662Y-82083500D01*
X19631338Y-82083500D01*
X19888968Y-82032254D01*
X20131649Y-81931732D01*
X20350057Y-81785797D01*
X20535797Y-81600057D01*
X20681732Y-81381649D01*
X20750000Y-81216836D01*
X20818268Y-81381649D01*
X20964203Y-81600057D01*
X21149943Y-81785797D01*
X21368351Y-81931732D01*
X21611032Y-82032254D01*
X21868662Y-82083500D01*
X22131338Y-82083500D01*
X22388968Y-82032254D01*
X22631649Y-81931732D01*
X22850057Y-81785797D01*
X22920508Y-81715346D01*
X23714259Y-81715346D01*
X23818686Y-81903812D01*
X24056875Y-82014559D01*
X24312093Y-82076711D01*
X24574533Y-82087876D01*
X24834107Y-82047629D01*
X25080842Y-81957514D01*
X25181314Y-81903812D01*
X25285741Y-81715346D01*
X24500000Y-80929605D01*
X23714259Y-81715346D01*
X22920508Y-81715346D01*
X23035797Y-81600057D01*
X23181732Y-81381649D01*
X23250450Y-81215748D01*
X23292486Y-81330842D01*
X23346188Y-81431314D01*
X23534654Y-81535741D01*
X24320395Y-80750000D01*
X24679605Y-80750000D01*
X25465346Y-81535741D01*
X25653812Y-81431314D01*
X25764559Y-81193125D01*
X25826711Y-80937907D01*
X25837876Y-80675467D01*
X25797629Y-80415893D01*
X25707514Y-80169158D01*
X25653812Y-80068686D01*
X25465346Y-79964259D01*
X24679605Y-80750000D01*
X24320395Y-80750000D01*
X23534654Y-79964259D01*
X23346188Y-80068686D01*
X23248335Y-80279144D01*
X23181732Y-80118351D01*
X23035797Y-79899943D01*
X22920508Y-79784654D01*
X23714259Y-79784654D01*
X24500000Y-80570395D01*
X25128516Y-79941879D01*
X27637726Y-79941879D01*
X27780478Y-80162860D01*
X28072821Y-80305348D01*
X28387344Y-80388064D01*
X28711962Y-80407831D01*
X29034198Y-80363888D01*
X29341670Y-80257924D01*
X29519522Y-80162860D01*
X29662274Y-79941879D01*
X29525284Y-79804889D01*
X38019000Y-79804889D01*
X38019000Y-80195111D01*
X38095129Y-80577836D01*
X38244461Y-80938355D01*
X38461257Y-81262814D01*
X38737186Y-81538743D01*
X39061645Y-81755539D01*
X39422164Y-81904871D01*
X39804889Y-81981000D01*
X40195111Y-81981000D01*
X40577836Y-81904871D01*
X40938355Y-81755539D01*
X41262814Y-81538743D01*
X41538743Y-81262814D01*
X41755539Y-80938355D01*
X41904871Y-80577836D01*
X41981000Y-80195111D01*
X41981000Y-79804889D01*
X41904871Y-79422164D01*
X41755539Y-79061645D01*
X41538743Y-78737186D01*
X41262814Y-78461257D01*
X40938355Y-78244461D01*
X40577836Y-78095129D01*
X40195111Y-78019000D01*
X39804889Y-78019000D01*
X39422164Y-78095129D01*
X39061645Y-78244461D01*
X38737186Y-78461257D01*
X38461257Y-78737186D01*
X38244461Y-79061645D01*
X38095129Y-79422164D01*
X38019000Y-79804889D01*
X29525284Y-79804889D01*
X28650000Y-78929605D01*
X27637726Y-79941879D01*
X25128516Y-79941879D01*
X25285741Y-79784654D01*
X25181314Y-79596188D01*
X24943125Y-79485441D01*
X24687907Y-79423289D01*
X24425467Y-79412124D01*
X24165893Y-79452371D01*
X23919158Y-79542486D01*
X23818686Y-79596188D01*
X23714259Y-79784654D01*
X22920508Y-79784654D01*
X22850057Y-79714203D01*
X22631649Y-79568268D01*
X22506000Y-79516222D01*
X22506000Y-78811962D01*
X26992169Y-78811962D01*
X27036112Y-79134198D01*
X27142076Y-79441670D01*
X27237140Y-79619522D01*
X27458121Y-79762274D01*
X28470395Y-78750000D01*
X28829605Y-78750000D01*
X29841879Y-79762274D01*
X30062860Y-79619522D01*
X30205348Y-79327179D01*
X30288064Y-79012656D01*
X30307831Y-78688038D01*
X30263888Y-78365802D01*
X30157924Y-78058330D01*
X30062860Y-77880478D01*
X29841879Y-77737726D01*
X28829605Y-78750000D01*
X28470395Y-78750000D01*
X27458121Y-77737726D01*
X27237140Y-77880478D01*
X27094652Y-78172821D01*
X27011936Y-78487344D01*
X26992169Y-78811962D01*
X22506000Y-78811962D01*
X22506000Y-77558121D01*
X27637726Y-77558121D01*
X28650000Y-78570395D01*
X29662274Y-77558121D01*
X29519522Y-77337140D01*
X29227179Y-77194652D01*
X28912656Y-77111936D01*
X28588038Y-77092169D01*
X28265802Y-77136112D01*
X27958330Y-77242076D01*
X27780478Y-77337140D01*
X27637726Y-77558121D01*
X22506000Y-77558121D01*
X22506000Y-65209591D01*
X25494001Y-62221591D01*
X25494000Y-65225154D01*
X25491553Y-65250000D01*
X25494000Y-65274846D01*
X25494000Y-65274853D01*
X25501322Y-65349192D01*
X25530255Y-65444574D01*
X25577241Y-65532479D01*
X25640473Y-65609527D01*
X25659785Y-65625376D01*
X30519791Y-70485383D01*
X30467746Y-70611032D01*
X30416500Y-70868662D01*
X30416500Y-71131338D01*
X30467746Y-71388968D01*
X30568268Y-71631649D01*
X30714203Y-71850057D01*
X30899943Y-72035797D01*
X31118351Y-72181732D01*
X31283164Y-72250000D01*
X31118351Y-72318268D01*
X30899943Y-72464203D01*
X30714203Y-72649943D01*
X30568268Y-72868351D01*
X30467746Y-73111032D01*
X30416500Y-73368662D01*
X30416500Y-73631338D01*
X30467746Y-73888968D01*
X30568268Y-74131649D01*
X30714203Y-74350057D01*
X30899943Y-74535797D01*
X31118351Y-74681732D01*
X31361032Y-74782254D01*
X31618662Y-74833500D01*
X31881338Y-74833500D01*
X32138968Y-74782254D01*
X32381649Y-74681732D01*
X32600057Y-74535797D01*
X32785797Y-74350057D01*
X32931732Y-74131649D01*
X33032254Y-73888968D01*
X33083500Y-73631338D01*
X33083500Y-73368662D01*
X33032254Y-73111032D01*
X32931732Y-72868351D01*
X32785797Y-72649943D01*
X32600057Y-72464203D01*
X32381649Y-72318268D01*
X32216836Y-72250000D01*
X32381649Y-72181732D01*
X32600057Y-72035797D01*
X32785797Y-71850057D01*
X32931732Y-71631649D01*
X33032254Y-71388968D01*
X33083500Y-71131338D01*
X33083500Y-70868662D01*
X33032254Y-70611032D01*
X32931732Y-70368351D01*
X32785797Y-70149943D01*
X32600057Y-69964203D01*
X32381649Y-69818268D01*
X32215748Y-69749550D01*
X32330842Y-69707514D01*
X32431314Y-69653812D01*
X32535741Y-69465346D01*
X31750000Y-68679605D01*
X31735858Y-68693748D01*
X31556253Y-68514143D01*
X31570395Y-68500000D01*
X31929605Y-68500000D01*
X32715346Y-69285741D01*
X32903812Y-69181314D01*
X33014559Y-68943125D01*
X33076711Y-68687907D01*
X33087876Y-68425467D01*
X33047629Y-68165893D01*
X32957514Y-67919158D01*
X32903812Y-67818686D01*
X32715346Y-67714259D01*
X31929605Y-68500000D01*
X31570395Y-68500000D01*
X30784654Y-67714259D01*
X30596188Y-67818686D01*
X30485441Y-68056875D01*
X30423289Y-68312093D01*
X30412124Y-68574533D01*
X30452371Y-68834107D01*
X30540215Y-69074623D01*
X29000246Y-67534654D01*
X30964259Y-67534654D01*
X31750000Y-68320395D01*
X32535741Y-67534654D01*
X32431314Y-67346188D01*
X32193125Y-67235441D01*
X31937907Y-67173289D01*
X31675467Y-67162124D01*
X31415893Y-67202371D01*
X31169158Y-67292486D01*
X31068686Y-67346188D01*
X30964259Y-67534654D01*
X29000246Y-67534654D01*
X26506000Y-65040409D01*
X26506000Y-64441879D01*
X27637726Y-64441879D01*
X27780478Y-64662860D01*
X28072821Y-64805348D01*
X28387344Y-64888064D01*
X28711962Y-64907831D01*
X29034198Y-64863888D01*
X29341670Y-64757924D01*
X29519522Y-64662860D01*
X29662274Y-64441879D01*
X28650000Y-63429605D01*
X27637726Y-64441879D01*
X26506000Y-64441879D01*
X26506000Y-63311962D01*
X26992169Y-63311962D01*
X27036112Y-63634198D01*
X27142076Y-63941670D01*
X27237140Y-64119522D01*
X27458121Y-64262274D01*
X28470395Y-63250000D01*
X28829605Y-63250000D01*
X29841879Y-64262274D01*
X30062860Y-64119522D01*
X30205348Y-63827179D01*
X30288064Y-63512656D01*
X30307831Y-63188038D01*
X30263888Y-62865802D01*
X30157924Y-62558330D01*
X30062860Y-62380478D01*
X29841879Y-62237726D01*
X28829605Y-63250000D01*
X28470395Y-63250000D01*
X27458121Y-62237726D01*
X27237140Y-62380478D01*
X27094652Y-62672821D01*
X27011936Y-62987344D01*
X26992169Y-63311962D01*
X26506000Y-63311962D01*
X26506000Y-62058121D01*
X27637726Y-62058121D01*
X28650000Y-63070395D01*
X29662274Y-62058121D01*
X29519522Y-61837140D01*
X29227179Y-61694652D01*
X28912656Y-61611936D01*
X28588038Y-61592169D01*
X28265802Y-61636112D01*
X27958330Y-61742076D01*
X27780478Y-61837140D01*
X27637726Y-62058121D01*
X26506000Y-62058121D01*
X26506000Y-61846001D01*
X29340220Y-59011782D01*
X29359527Y-58995937D01*
X29422759Y-58918889D01*
X29469745Y-58830985D01*
X29498678Y-58735603D01*
X29506000Y-58661264D01*
X29506000Y-58661263D01*
X29508448Y-58636410D01*
X29506000Y-58611556D01*
X29506000Y-56027662D01*
X31349500Y-56027662D01*
X31349500Y-56290338D01*
X31400746Y-56547968D01*
X31501268Y-56790649D01*
X31647203Y-57009057D01*
X31832943Y-57194797D01*
X32051351Y-57340732D01*
X32294032Y-57441254D01*
X32551662Y-57492500D01*
X32814338Y-57492500D01*
X33071968Y-57441254D01*
X33314649Y-57340732D01*
X33533057Y-57194797D01*
X33718797Y-57009057D01*
X33864732Y-56790649D01*
X33965254Y-56547968D01*
X34016500Y-56290338D01*
X34016500Y-56027662D01*
X33965254Y-55770032D01*
X33864732Y-55527351D01*
X33718797Y-55308943D01*
X33533057Y-55123203D01*
X33314649Y-54977268D01*
X33071968Y-54876746D01*
X32814338Y-54825500D01*
X32551662Y-54825500D01*
X32294032Y-54876746D01*
X32051351Y-54977268D01*
X31832943Y-55123203D01*
X31647203Y-55308943D01*
X31501268Y-55527351D01*
X31400746Y-55770032D01*
X31349500Y-56027662D01*
X29506000Y-56027662D01*
X29506000Y-52806346D01*
X31897259Y-52806346D01*
X32001686Y-52994812D01*
X32239875Y-53105559D01*
X32495093Y-53167711D01*
X32757533Y-53178876D01*
X33017107Y-53138629D01*
X33263842Y-53048514D01*
X33364314Y-52994812D01*
X33468741Y-52806346D01*
X32683000Y-52020605D01*
X31897259Y-52806346D01*
X29506000Y-52806346D01*
X29506000Y-51915533D01*
X31345124Y-51915533D01*
X31385371Y-52175107D01*
X31475486Y-52421842D01*
X31529188Y-52522314D01*
X31717654Y-52626741D01*
X32503395Y-51841000D01*
X32862605Y-51841000D01*
X33648346Y-52626741D01*
X33836812Y-52522314D01*
X33947559Y-52284125D01*
X34009711Y-52028907D01*
X34020876Y-51766467D01*
X33980629Y-51506893D01*
X33890514Y-51260158D01*
X33836812Y-51159686D01*
X33648346Y-51055259D01*
X32862605Y-51841000D01*
X32503395Y-51841000D01*
X31717654Y-51055259D01*
X31529188Y-51159686D01*
X31418441Y-51397875D01*
X31356289Y-51653093D01*
X31345124Y-51915533D01*
X29506000Y-51915533D01*
X29506000Y-50875654D01*
X31897259Y-50875654D01*
X32683000Y-51661395D01*
X33468741Y-50875654D01*
X33364314Y-50687188D01*
X33126125Y-50576441D01*
X32870907Y-50514289D01*
X32608467Y-50503124D01*
X32348893Y-50543371D01*
X32102158Y-50633486D01*
X32001686Y-50687188D01*
X31897259Y-50875654D01*
X29506000Y-50875654D01*
X29506000Y-43346001D01*
X32790236Y-40061766D01*
X32809537Y-40045926D01*
X32825377Y-40026625D01*
X32825380Y-40026622D01*
X32872768Y-39968879D01*
X32919755Y-39880975D01*
X32948688Y-39785593D01*
X32958458Y-39686400D01*
X32956010Y-39661546D01*
X32956008Y-33338454D01*
X32958456Y-33313598D01*
X32948687Y-33214406D01*
X32919754Y-33119024D01*
X32872767Y-33031120D01*
X32825379Y-32973377D01*
X32825375Y-32973373D01*
X32809535Y-32954072D01*
X32790234Y-32938232D01*
X30781000Y-30928999D01*
X30781000Y-30923078D01*
X30750987Y-30772191D01*
X30692113Y-30630058D01*
X30606642Y-30502141D01*
X30497859Y-30393358D01*
X30369942Y-30307887D01*
X30227809Y-30249013D01*
X30076922Y-30219000D01*
X29923078Y-30219000D01*
X29772191Y-30249013D01*
X29630058Y-30307887D01*
X29502141Y-30393358D01*
X29393358Y-30502141D01*
X29307887Y-30630058D01*
X29250000Y-30769808D01*
X29192113Y-30630058D01*
X29106642Y-30502141D01*
X28997859Y-30393358D01*
X28869942Y-30307887D01*
X28727809Y-30249013D01*
X28576922Y-30219000D01*
X28423078Y-30219000D01*
X28272191Y-30249013D01*
X28130058Y-30307887D01*
X28002141Y-30393358D01*
X27893358Y-30502141D01*
X27807887Y-30630058D01*
X27749013Y-30772191D01*
X27719000Y-30923078D01*
X27719000Y-31076922D01*
X27749013Y-31227809D01*
X27807887Y-31369942D01*
X27893358Y-31497859D01*
X28002141Y-31606642D01*
X28130058Y-31692113D01*
X28272191Y-31750987D01*
X28423078Y-31781000D01*
X28565409Y-31781000D01*
X29624628Y-32840220D01*
X29640473Y-32859527D01*
X29717521Y-32922759D01*
X29805425Y-32969745D01*
X29877315Y-32991552D01*
X29900806Y-32998678D01*
X29910694Y-32999652D01*
X29975146Y-33006000D01*
X29975153Y-33006000D01*
X29999999Y-33008447D01*
X30024845Y-33006000D01*
X30790409Y-33006000D01*
X31494001Y-33709593D01*
X31494000Y-39290408D01*
X28159781Y-42624628D01*
X28140474Y-42640473D01*
X28077242Y-42717521D01*
X28071743Y-42727809D01*
X28030255Y-42805426D01*
X28006000Y-42885386D01*
X28006000Y-40024845D01*
X28008447Y-39999999D01*
X28006000Y-39975153D01*
X28006000Y-39975146D01*
X27998678Y-39900807D01*
X27969745Y-39805425D01*
X27922759Y-39717521D01*
X27859527Y-39640473D01*
X27840220Y-39624628D01*
X26506000Y-38290409D01*
X26506000Y-38279784D01*
X27547775Y-38279784D01*
X27640211Y-38328736D01*
X27740421Y-38358714D01*
X27844554Y-38368565D01*
X27948608Y-38357912D01*
X28048584Y-38327164D01*
X28137225Y-38279784D01*
X29382775Y-38279784D01*
X29475211Y-38328736D01*
X29575421Y-38358714D01*
X29679554Y-38368565D01*
X29783608Y-38357912D01*
X29883584Y-38327164D01*
X29972225Y-38279784D01*
X29970748Y-38160775D01*
X29677500Y-37867527D01*
X29384252Y-38160775D01*
X29382775Y-38279784D01*
X28137225Y-38279784D01*
X28135748Y-38160775D01*
X27842500Y-37867527D01*
X27549252Y-38160775D01*
X27547775Y-38279784D01*
X26506000Y-38279784D01*
X26506000Y-37837054D01*
X27308935Y-37837054D01*
X27319588Y-37941108D01*
X27350336Y-38041084D01*
X27397716Y-38129725D01*
X27516725Y-38128248D01*
X27809973Y-37835000D01*
X27875027Y-37835000D01*
X28168275Y-38128248D01*
X28287284Y-38129725D01*
X28336236Y-38037289D01*
X28366214Y-37937079D01*
X28375676Y-37837054D01*
X29143935Y-37837054D01*
X29154588Y-37941108D01*
X29185336Y-38041084D01*
X29232716Y-38129725D01*
X29351725Y-38128248D01*
X29644973Y-37835000D01*
X29710027Y-37835000D01*
X30003275Y-38128248D01*
X30122284Y-38129725D01*
X30171236Y-38037289D01*
X30201214Y-37937079D01*
X30211065Y-37832946D01*
X30200412Y-37728892D01*
X30169664Y-37628916D01*
X30122284Y-37540275D01*
X30003275Y-37541752D01*
X29710027Y-37835000D01*
X29644973Y-37835000D01*
X29351725Y-37541752D01*
X29232716Y-37540275D01*
X29183764Y-37632711D01*
X29153786Y-37732921D01*
X29143935Y-37837054D01*
X28375676Y-37837054D01*
X28376065Y-37832946D01*
X28365412Y-37728892D01*
X28334664Y-37628916D01*
X28287284Y-37540275D01*
X28168275Y-37541752D01*
X27875027Y-37835000D01*
X27809973Y-37835000D01*
X27516725Y-37541752D01*
X27397716Y-37540275D01*
X27348764Y-37632711D01*
X27318786Y-37732921D01*
X27308935Y-37837054D01*
X26506000Y-37837054D01*
X26506000Y-37362284D01*
X26630275Y-37362284D01*
X26722711Y-37411236D01*
X26822921Y-37441214D01*
X26927054Y-37451065D01*
X27031108Y-37440412D01*
X27131084Y-37409664D01*
X27167468Y-37390216D01*
X27547775Y-37390216D01*
X27549252Y-37509225D01*
X27842500Y-37802473D01*
X28135748Y-37509225D01*
X28137225Y-37390216D01*
X28084482Y-37362284D01*
X28465275Y-37362284D01*
X28557711Y-37411236D01*
X28657921Y-37441214D01*
X28762054Y-37451065D01*
X28866108Y-37440412D01*
X28966084Y-37409664D01*
X29002468Y-37390216D01*
X29382775Y-37390216D01*
X29384252Y-37509225D01*
X29677500Y-37802473D01*
X29970748Y-37509225D01*
X29972225Y-37390216D01*
X29919482Y-37362284D01*
X30300275Y-37362284D01*
X30392711Y-37411236D01*
X30492921Y-37441214D01*
X30597054Y-37451065D01*
X30701108Y-37440412D01*
X30801084Y-37409664D01*
X30889725Y-37362284D01*
X30888248Y-37243275D01*
X30595000Y-36950027D01*
X30301752Y-37243275D01*
X30300275Y-37362284D01*
X29919482Y-37362284D01*
X29879789Y-37341264D01*
X29779579Y-37311286D01*
X29675446Y-37301435D01*
X29571392Y-37312088D01*
X29471416Y-37342836D01*
X29382775Y-37390216D01*
X29002468Y-37390216D01*
X29054725Y-37362284D01*
X29053248Y-37243275D01*
X28760000Y-36950027D01*
X28466752Y-37243275D01*
X28465275Y-37362284D01*
X28084482Y-37362284D01*
X28044789Y-37341264D01*
X27944579Y-37311286D01*
X27840446Y-37301435D01*
X27736392Y-37312088D01*
X27636416Y-37342836D01*
X27547775Y-37390216D01*
X27167468Y-37390216D01*
X27219725Y-37362284D01*
X27218248Y-37243275D01*
X26925000Y-36950027D01*
X26631752Y-37243275D01*
X26630275Y-37362284D01*
X26506000Y-37362284D01*
X26506000Y-37211905D01*
X26599225Y-37210748D01*
X26892473Y-36917500D01*
X26957527Y-36917500D01*
X27250775Y-37210748D01*
X27369784Y-37212225D01*
X27418736Y-37119789D01*
X27448714Y-37019579D01*
X27458176Y-36919554D01*
X28226435Y-36919554D01*
X28237088Y-37023608D01*
X28267836Y-37123584D01*
X28315216Y-37212225D01*
X28434225Y-37210748D01*
X28727473Y-36917500D01*
X28792527Y-36917500D01*
X29085775Y-37210748D01*
X29204784Y-37212225D01*
X29253736Y-37119789D01*
X29283714Y-37019579D01*
X29293176Y-36919554D01*
X30061435Y-36919554D01*
X30072088Y-37023608D01*
X30102836Y-37123584D01*
X30150216Y-37212225D01*
X30269225Y-37210748D01*
X30562473Y-36917500D01*
X30627527Y-36917500D01*
X30920775Y-37210748D01*
X31039784Y-37212225D01*
X31088736Y-37119789D01*
X31118714Y-37019579D01*
X31128565Y-36915446D01*
X31117912Y-36811392D01*
X31087164Y-36711416D01*
X31039784Y-36622775D01*
X30920775Y-36624252D01*
X30627527Y-36917500D01*
X30562473Y-36917500D01*
X30269225Y-36624252D01*
X30150216Y-36622775D01*
X30101264Y-36715211D01*
X30071286Y-36815421D01*
X30061435Y-36919554D01*
X29293176Y-36919554D01*
X29293565Y-36915446D01*
X29282912Y-36811392D01*
X29252164Y-36711416D01*
X29204784Y-36622775D01*
X29085775Y-36624252D01*
X28792527Y-36917500D01*
X28727473Y-36917500D01*
X28434225Y-36624252D01*
X28315216Y-36622775D01*
X28266264Y-36715211D01*
X28236286Y-36815421D01*
X28226435Y-36919554D01*
X27458176Y-36919554D01*
X27458565Y-36915446D01*
X27447912Y-36811392D01*
X27417164Y-36711416D01*
X27369784Y-36622775D01*
X27250775Y-36624252D01*
X26957527Y-36917500D01*
X26892473Y-36917500D01*
X26599225Y-36624252D01*
X26506000Y-36623095D01*
X26506000Y-36472716D01*
X26630275Y-36472716D01*
X26631752Y-36591725D01*
X26925000Y-36884973D01*
X27218248Y-36591725D01*
X27219725Y-36472716D01*
X27166982Y-36444784D01*
X27547775Y-36444784D01*
X27640211Y-36493736D01*
X27740421Y-36523714D01*
X27844554Y-36533565D01*
X27948608Y-36522912D01*
X28048584Y-36492164D01*
X28084968Y-36472716D01*
X28465275Y-36472716D01*
X28466752Y-36591725D01*
X28760000Y-36884973D01*
X29053248Y-36591725D01*
X29054725Y-36472716D01*
X29001982Y-36444784D01*
X29382775Y-36444784D01*
X29475211Y-36493736D01*
X29575421Y-36523714D01*
X29679554Y-36533565D01*
X29783608Y-36522912D01*
X29883584Y-36492164D01*
X29919968Y-36472716D01*
X30300275Y-36472716D01*
X30301752Y-36591725D01*
X30595000Y-36884973D01*
X30888248Y-36591725D01*
X30889725Y-36472716D01*
X30797289Y-36423764D01*
X30697079Y-36393786D01*
X30592946Y-36383935D01*
X30488892Y-36394588D01*
X30388916Y-36425336D01*
X30300275Y-36472716D01*
X29919968Y-36472716D01*
X29972225Y-36444784D01*
X29970748Y-36325775D01*
X29677500Y-36032527D01*
X29384252Y-36325775D01*
X29382775Y-36444784D01*
X29001982Y-36444784D01*
X28962289Y-36423764D01*
X28862079Y-36393786D01*
X28757946Y-36383935D01*
X28653892Y-36394588D01*
X28553916Y-36425336D01*
X28465275Y-36472716D01*
X28084968Y-36472716D01*
X28137225Y-36444784D01*
X28135748Y-36325775D01*
X27842500Y-36032527D01*
X27549252Y-36325775D01*
X27547775Y-36444784D01*
X27166982Y-36444784D01*
X27127289Y-36423764D01*
X27027079Y-36393786D01*
X26922946Y-36383935D01*
X26818892Y-36394588D01*
X26718916Y-36425336D01*
X26630275Y-36472716D01*
X26506000Y-36472716D01*
X26506000Y-36002054D01*
X27308935Y-36002054D01*
X27319588Y-36106108D01*
X27350336Y-36206084D01*
X27397716Y-36294725D01*
X27516725Y-36293248D01*
X27809973Y-36000000D01*
X27875027Y-36000000D01*
X28168275Y-36293248D01*
X28287284Y-36294725D01*
X28336236Y-36202289D01*
X28366214Y-36102079D01*
X28375676Y-36002054D01*
X29143935Y-36002054D01*
X29154588Y-36106108D01*
X29185336Y-36206084D01*
X29232716Y-36294725D01*
X29351725Y-36293248D01*
X29644973Y-36000000D01*
X29710027Y-36000000D01*
X30003275Y-36293248D01*
X30122284Y-36294725D01*
X30171236Y-36202289D01*
X30201214Y-36102079D01*
X30211065Y-35997946D01*
X30200412Y-35893892D01*
X30169664Y-35793916D01*
X30122284Y-35705275D01*
X30003275Y-35706752D01*
X29710027Y-36000000D01*
X29644973Y-36000000D01*
X29351725Y-35706752D01*
X29232716Y-35705275D01*
X29183764Y-35797711D01*
X29153786Y-35897921D01*
X29143935Y-36002054D01*
X28375676Y-36002054D01*
X28376065Y-35997946D01*
X28365412Y-35893892D01*
X28334664Y-35793916D01*
X28287284Y-35705275D01*
X28168275Y-35706752D01*
X27875027Y-36000000D01*
X27809973Y-36000000D01*
X27516725Y-35706752D01*
X27397716Y-35705275D01*
X27348764Y-35797711D01*
X27318786Y-35897921D01*
X27308935Y-36002054D01*
X26506000Y-36002054D01*
X26506000Y-35527284D01*
X26630275Y-35527284D01*
X26722711Y-35576236D01*
X26822921Y-35606214D01*
X26927054Y-35616065D01*
X27031108Y-35605412D01*
X27131084Y-35574664D01*
X27167468Y-35555216D01*
X27547775Y-35555216D01*
X27549252Y-35674225D01*
X27842500Y-35967473D01*
X28135748Y-35674225D01*
X28137225Y-35555216D01*
X28084482Y-35527284D01*
X28465275Y-35527284D01*
X28557711Y-35576236D01*
X28657921Y-35606214D01*
X28762054Y-35616065D01*
X28866108Y-35605412D01*
X28966084Y-35574664D01*
X29002468Y-35555216D01*
X29382775Y-35555216D01*
X29384252Y-35674225D01*
X29677500Y-35967473D01*
X29970748Y-35674225D01*
X29972225Y-35555216D01*
X29919482Y-35527284D01*
X30300275Y-35527284D01*
X30392711Y-35576236D01*
X30492921Y-35606214D01*
X30597054Y-35616065D01*
X30701108Y-35605412D01*
X30801084Y-35574664D01*
X30889725Y-35527284D01*
X30888248Y-35408275D01*
X30595000Y-35115027D01*
X30301752Y-35408275D01*
X30300275Y-35527284D01*
X29919482Y-35527284D01*
X29879789Y-35506264D01*
X29779579Y-35476286D01*
X29675446Y-35466435D01*
X29571392Y-35477088D01*
X29471416Y-35507836D01*
X29382775Y-35555216D01*
X29002468Y-35555216D01*
X29054725Y-35527284D01*
X29053248Y-35408275D01*
X28760000Y-35115027D01*
X28466752Y-35408275D01*
X28465275Y-35527284D01*
X28084482Y-35527284D01*
X28044789Y-35506264D01*
X27944579Y-35476286D01*
X27840446Y-35466435D01*
X27736392Y-35477088D01*
X27636416Y-35507836D01*
X27547775Y-35555216D01*
X27167468Y-35555216D01*
X27219725Y-35527284D01*
X27218248Y-35408275D01*
X26925000Y-35115027D01*
X26631752Y-35408275D01*
X26630275Y-35527284D01*
X26506000Y-35527284D01*
X26506000Y-35376905D01*
X26599225Y-35375748D01*
X26892473Y-35082500D01*
X26957527Y-35082500D01*
X27250775Y-35375748D01*
X27369784Y-35377225D01*
X27418736Y-35284789D01*
X27448714Y-35184579D01*
X27458176Y-35084554D01*
X28226435Y-35084554D01*
X28237088Y-35188608D01*
X28267836Y-35288584D01*
X28315216Y-35377225D01*
X28434225Y-35375748D01*
X28727473Y-35082500D01*
X28792527Y-35082500D01*
X29085775Y-35375748D01*
X29204784Y-35377225D01*
X29253736Y-35284789D01*
X29283714Y-35184579D01*
X29293176Y-35084554D01*
X30061435Y-35084554D01*
X30072088Y-35188608D01*
X30102836Y-35288584D01*
X30150216Y-35377225D01*
X30269225Y-35375748D01*
X30562473Y-35082500D01*
X30627527Y-35082500D01*
X30920775Y-35375748D01*
X31039784Y-35377225D01*
X31088736Y-35284789D01*
X31118714Y-35184579D01*
X31128565Y-35080446D01*
X31117912Y-34976392D01*
X31087164Y-34876416D01*
X31039784Y-34787775D01*
X30920775Y-34789252D01*
X30627527Y-35082500D01*
X30562473Y-35082500D01*
X30269225Y-34789252D01*
X30150216Y-34787775D01*
X30101264Y-34880211D01*
X30071286Y-34980421D01*
X30061435Y-35084554D01*
X29293176Y-35084554D01*
X29293565Y-35080446D01*
X29282912Y-34976392D01*
X29252164Y-34876416D01*
X29204784Y-34787775D01*
X29085775Y-34789252D01*
X28792527Y-35082500D01*
X28727473Y-35082500D01*
X28434225Y-34789252D01*
X28315216Y-34787775D01*
X28266264Y-34880211D01*
X28236286Y-34980421D01*
X28226435Y-35084554D01*
X27458176Y-35084554D01*
X27458565Y-35080446D01*
X27447912Y-34976392D01*
X27417164Y-34876416D01*
X27369784Y-34787775D01*
X27250775Y-34789252D01*
X26957527Y-35082500D01*
X26892473Y-35082500D01*
X26599225Y-34789252D01*
X26506000Y-34788095D01*
X26506000Y-34637716D01*
X26630275Y-34637716D01*
X26631752Y-34756725D01*
X26925000Y-35049973D01*
X27218248Y-34756725D01*
X27219725Y-34637716D01*
X27166982Y-34609784D01*
X27547775Y-34609784D01*
X27640211Y-34658736D01*
X27740421Y-34688714D01*
X27844554Y-34698565D01*
X27948608Y-34687912D01*
X28048584Y-34657164D01*
X28084968Y-34637716D01*
X28465275Y-34637716D01*
X28466752Y-34756725D01*
X28760000Y-35049973D01*
X29053248Y-34756725D01*
X29054725Y-34637716D01*
X29001982Y-34609784D01*
X29382775Y-34609784D01*
X29475211Y-34658736D01*
X29575421Y-34688714D01*
X29679554Y-34698565D01*
X29783608Y-34687912D01*
X29883584Y-34657164D01*
X29919968Y-34637716D01*
X30300275Y-34637716D01*
X30301752Y-34756725D01*
X30595000Y-35049973D01*
X30888248Y-34756725D01*
X30889725Y-34637716D01*
X30797289Y-34588764D01*
X30697079Y-34558786D01*
X30592946Y-34548935D01*
X30488892Y-34559588D01*
X30388916Y-34590336D01*
X30300275Y-34637716D01*
X29919968Y-34637716D01*
X29972225Y-34609784D01*
X29970748Y-34490775D01*
X29677500Y-34197527D01*
X29384252Y-34490775D01*
X29382775Y-34609784D01*
X29001982Y-34609784D01*
X28962289Y-34588764D01*
X28862079Y-34558786D01*
X28757946Y-34548935D01*
X28653892Y-34559588D01*
X28553916Y-34590336D01*
X28465275Y-34637716D01*
X28084968Y-34637716D01*
X28137225Y-34609784D01*
X28135748Y-34490775D01*
X27842500Y-34197527D01*
X27549252Y-34490775D01*
X27547775Y-34609784D01*
X27166982Y-34609784D01*
X27127289Y-34588764D01*
X27027079Y-34558786D01*
X26922946Y-34548935D01*
X26818892Y-34559588D01*
X26718916Y-34590336D01*
X26630275Y-34637716D01*
X26506000Y-34637716D01*
X26506000Y-34167054D01*
X27308935Y-34167054D01*
X27319588Y-34271108D01*
X27350336Y-34371084D01*
X27397716Y-34459725D01*
X27516725Y-34458248D01*
X27809973Y-34165000D01*
X27875027Y-34165000D01*
X28168275Y-34458248D01*
X28287284Y-34459725D01*
X28336236Y-34367289D01*
X28366214Y-34267079D01*
X28375676Y-34167054D01*
X29143935Y-34167054D01*
X29154588Y-34271108D01*
X29185336Y-34371084D01*
X29232716Y-34459725D01*
X29351725Y-34458248D01*
X29644973Y-34165000D01*
X29710027Y-34165000D01*
X30003275Y-34458248D01*
X30122284Y-34459725D01*
X30171236Y-34367289D01*
X30201214Y-34267079D01*
X30211065Y-34162946D01*
X30200412Y-34058892D01*
X30169664Y-33958916D01*
X30122284Y-33870275D01*
X30003275Y-33871752D01*
X29710027Y-34165000D01*
X29644973Y-34165000D01*
X29351725Y-33871752D01*
X29232716Y-33870275D01*
X29183764Y-33962711D01*
X29153786Y-34062921D01*
X29143935Y-34167054D01*
X28375676Y-34167054D01*
X28376065Y-34162946D01*
X28365412Y-34058892D01*
X28334664Y-33958916D01*
X28287284Y-33870275D01*
X28168275Y-33871752D01*
X27875027Y-34165000D01*
X27809973Y-34165000D01*
X27516725Y-33871752D01*
X27397716Y-33870275D01*
X27348764Y-33962711D01*
X27318786Y-34062921D01*
X27308935Y-34167054D01*
X26506000Y-34167054D01*
X26506000Y-33720216D01*
X27547775Y-33720216D01*
X27549252Y-33839225D01*
X27842500Y-34132473D01*
X28135748Y-33839225D01*
X28137225Y-33720216D01*
X29382775Y-33720216D01*
X29384252Y-33839225D01*
X29677500Y-34132473D01*
X29970748Y-33839225D01*
X29972225Y-33720216D01*
X29879789Y-33671264D01*
X29779579Y-33641286D01*
X29675446Y-33631435D01*
X29571392Y-33642088D01*
X29471416Y-33672836D01*
X29382775Y-33720216D01*
X28137225Y-33720216D01*
X28044789Y-33671264D01*
X27944579Y-33641286D01*
X27840446Y-33631435D01*
X27736392Y-33642088D01*
X27636416Y-33672836D01*
X27547775Y-33720216D01*
X26506000Y-33720216D01*
X26506000Y-25451843D01*
X26508447Y-25426997D01*
X26506000Y-25402151D01*
X26506000Y-25402144D01*
X26498678Y-25327805D01*
X26469745Y-25232423D01*
X26422759Y-25144519D01*
X26359527Y-25067471D01*
X26340220Y-25051626D01*
X24268347Y-22979754D01*
X24268347Y-22910425D01*
X24238334Y-22759538D01*
X24179460Y-22617405D01*
X24093989Y-22489488D01*
X23985206Y-22380705D01*
X23857289Y-22295234D01*
X23715156Y-22236360D01*
X23564269Y-22206347D01*
X23410425Y-22206347D01*
X23259538Y-22236360D01*
X23253887Y-22238701D01*
X23263640Y-22215156D01*
X23293653Y-22064269D01*
X23293653Y-21910425D01*
X23263640Y-21759538D01*
X23204766Y-21617405D01*
X23119295Y-21489488D01*
X23010512Y-21380705D01*
X22882595Y-21295234D01*
X22740462Y-21236360D01*
X22589575Y-21206347D01*
X22435731Y-21206347D01*
X22284844Y-21236360D01*
X22142711Y-21295234D01*
X22014794Y-21380705D01*
X21906011Y-21489488D01*
X21820540Y-21617405D01*
X21761666Y-21759538D01*
X21731653Y-21910425D01*
X21731653Y-22064269D01*
X21761666Y-22215156D01*
X21820540Y-22357289D01*
X21906011Y-22485206D01*
X22006653Y-22585848D01*
X22006654Y-23889369D01*
X20211384Y-22094100D01*
X20195535Y-22074788D01*
X20118487Y-22011556D01*
X20030583Y-21964570D01*
X19935201Y-21935637D01*
X19860862Y-21928315D01*
X19860854Y-21928315D01*
X19836008Y-21925868D01*
X19811162Y-21928315D01*
X16209592Y-21928315D01*
X9941061Y-15659785D01*
X9925212Y-15640473D01*
X9848164Y-15577241D01*
X9760260Y-15530255D01*
X9664878Y-15501322D01*
X9599371Y-15494870D01*
X9497859Y-15393358D01*
X9369942Y-15307887D01*
X9227809Y-15249013D01*
X9076922Y-15219000D01*
X8923078Y-15219000D01*
X8772191Y-15249013D01*
X8630058Y-15307887D01*
X8502141Y-15393358D01*
X8393358Y-15502141D01*
X8307887Y-15630058D01*
X8249013Y-15772191D01*
X8219000Y-15923078D01*
X8219000Y-16076922D01*
X8249013Y-16227809D01*
X8307887Y-16369942D01*
X8393358Y-16497859D01*
X8494001Y-16598502D01*
X8494001Y-16790407D01*
X4790409Y-20494000D01*
X4232843Y-20494000D01*
X4232843Y-20150000D01*
X4225487Y-20075311D01*
X4203701Y-20003492D01*
X4168322Y-19937304D01*
X4120711Y-19879289D01*
X4062696Y-19831678D01*
X3996508Y-19796299D01*
X3924689Y-19774513D01*
X3850000Y-19767157D01*
X2150000Y-19767157D01*
X2075311Y-19774513D01*
X2003492Y-19796299D01*
X1937304Y-19831678D01*
X1879289Y-19879289D01*
X1831678Y-19937304D01*
X1796299Y-20003492D01*
X1774513Y-20075311D01*
X1767157Y-20150000D01*
X1767157Y-21850000D01*
X1774513Y-21924689D01*
X1796299Y-21996508D01*
X1831678Y-22062696D01*
X1879289Y-22120711D01*
X1937304Y-22168322D01*
X2003492Y-22203701D01*
X2075311Y-22225487D01*
X2150000Y-22232843D01*
X3850000Y-22232843D01*
X3924689Y-22225487D01*
X3996508Y-22203701D01*
X4062696Y-22168322D01*
X4120711Y-22120711D01*
X4168322Y-22062696D01*
X4203701Y-21996508D01*
X4225487Y-21924689D01*
X4232843Y-21850000D01*
X4232843Y-21506000D01*
X4975154Y-21506000D01*
X5000000Y-21508447D01*
X5024846Y-21506000D01*
X5024854Y-21506000D01*
X5099193Y-21498678D01*
X5194575Y-21469745D01*
X5282479Y-21422759D01*
X5359527Y-21359527D01*
X5375376Y-21340215D01*
X9340222Y-17375370D01*
X9359527Y-17359527D01*
X9422759Y-17282479D01*
X9469745Y-17194575D01*
X9489187Y-17130481D01*
X9498678Y-17099194D01*
X9499652Y-17089306D01*
X9506000Y-17024854D01*
X9506000Y-17024847D01*
X9508447Y-17000001D01*
X9506000Y-16975155D01*
X9506000Y-16655906D01*
X11069094Y-18219000D01*
X10923078Y-18219000D01*
X10772191Y-18249013D01*
X10630058Y-18307887D01*
X10502141Y-18393358D01*
X10393358Y-18502141D01*
X10307887Y-18630058D01*
X10249013Y-18772191D01*
X10219000Y-18923078D01*
X10219000Y-19065408D01*
X5790409Y-23494000D01*
X4232843Y-23494000D01*
X4232843Y-23150000D01*
X4225487Y-23075311D01*
X4203701Y-23003492D01*
X4168322Y-22937304D01*
X4120711Y-22879289D01*
X4062696Y-22831678D01*
X3996508Y-22796299D01*
X3924689Y-22774513D01*
X3850000Y-22767157D01*
X2150000Y-22767157D01*
X2075311Y-22774513D01*
X2003492Y-22796299D01*
X1937304Y-22831678D01*
X1879289Y-22879289D01*
X1831678Y-22937304D01*
X1796299Y-23003492D01*
X1774513Y-23075311D01*
X1767157Y-23150000D01*
X1767157Y-24850000D01*
X1774513Y-24924689D01*
X1796299Y-24996508D01*
X1831678Y-25062696D01*
X1879289Y-25120711D01*
X1937304Y-25168322D01*
X2003492Y-25203701D01*
X2075311Y-25225487D01*
X2150000Y-25232843D01*
X3850000Y-25232843D01*
X3924689Y-25225487D01*
X3996508Y-25203701D01*
X4062696Y-25168322D01*
X4120711Y-25120711D01*
X4168322Y-25062696D01*
X4203701Y-24996508D01*
X4225487Y-24924689D01*
X4232843Y-24850000D01*
X4232843Y-24506000D01*
X5790409Y-24506000D01*
X6219000Y-24934592D01*
X6219000Y-25076922D01*
X6249013Y-25227809D01*
X6307887Y-25369942D01*
X6393358Y-25497859D01*
X6502141Y-25606642D01*
X6503948Y-25607849D01*
X6530255Y-25694574D01*
X6577241Y-25782479D01*
X6640473Y-25859527D01*
X6659785Y-25875376D01*
X8219000Y-27434592D01*
X8219000Y-27576922D01*
X8249013Y-27727809D01*
X8307887Y-27869942D01*
X8393358Y-27997859D01*
X8502141Y-28106642D01*
X8630058Y-28192113D01*
X8772191Y-28250987D01*
X8923078Y-28281000D01*
X9076922Y-28281000D01*
X9227809Y-28250987D01*
X9369942Y-28192113D01*
X9497859Y-28106642D01*
X9606642Y-27997859D01*
X9692113Y-27869942D01*
X9750987Y-27727809D01*
X9781000Y-27576922D01*
X9781000Y-27423078D01*
X9750987Y-27272191D01*
X9692113Y-27130058D01*
X9606642Y-27002141D01*
X9497859Y-26893358D01*
X9369942Y-26807887D01*
X9227809Y-26749013D01*
X9076922Y-26719000D01*
X8934592Y-26719000D01*
X7649423Y-25433832D01*
X7692113Y-25369942D01*
X7750987Y-25227809D01*
X7781000Y-25076922D01*
X7781000Y-24923078D01*
X7750987Y-24772191D01*
X7692113Y-24630058D01*
X7606642Y-24502141D01*
X7497859Y-24393358D01*
X7369942Y-24307887D01*
X7227809Y-24249013D01*
X7076922Y-24219000D01*
X6934592Y-24219000D01*
X6715591Y-24000000D01*
X10934592Y-19781000D01*
X11076922Y-19781000D01*
X11227809Y-19750987D01*
X11369942Y-19692113D01*
X11497859Y-19606642D01*
X11606642Y-19497859D01*
X11692113Y-19369942D01*
X11750987Y-19227809D01*
X11781000Y-19076922D01*
X11781000Y-18930906D01*
X15624628Y-22774535D01*
X15640473Y-22793842D01*
X15717521Y-22857074D01*
X15797135Y-22899629D01*
X15805425Y-22904060D01*
X15900807Y-22932993D01*
X16000000Y-22942763D01*
X16024854Y-22940315D01*
X19626417Y-22940315D01*
X22688417Y-26002316D01*
X22688417Y-26144646D01*
X22718430Y-26295533D01*
X22777304Y-26437666D01*
X22862775Y-26565583D01*
X22971558Y-26674366D01*
X23099475Y-26759837D01*
X23241608Y-26818711D01*
X23392495Y-26848724D01*
X23546339Y-26848724D01*
X23697226Y-26818711D01*
X23839359Y-26759837D01*
X23967276Y-26674366D01*
X24076059Y-26565583D01*
X24156540Y-26445134D01*
X24494000Y-26782594D01*
X24494000Y-29747261D01*
X24351922Y-29719000D01*
X24198078Y-29719000D01*
X24047191Y-29749013D01*
X23905058Y-29807887D01*
X23777141Y-29893358D01*
X23668358Y-30002141D01*
X23582887Y-30130058D01*
X23524013Y-30272191D01*
X23494000Y-30423078D01*
X23494000Y-30576922D01*
X23522261Y-30719000D01*
X23423078Y-30719000D01*
X23272191Y-30749013D01*
X23130058Y-30807887D01*
X23002141Y-30893358D01*
X22893358Y-31002141D01*
X22807887Y-31130058D01*
X22749013Y-31272191D01*
X22719000Y-31423078D01*
X22719000Y-31565408D01*
X22330409Y-31954000D01*
X4176952Y-31954000D01*
X4135207Y-31853219D01*
X3995018Y-31643410D01*
X3816590Y-31464982D01*
X3606781Y-31324793D01*
X3373654Y-31228228D01*
X3126167Y-31179000D01*
X2873833Y-31179000D01*
X2626346Y-31228228D01*
X2393219Y-31324793D01*
X2183410Y-31464982D01*
X2004982Y-31643410D01*
X1864793Y-31853219D01*
X1768228Y-32086346D01*
X1719000Y-32333833D01*
X1719000Y-32586167D01*
X1768228Y-32833654D01*
X1864793Y-33066781D01*
X2004982Y-33276590D01*
X2183410Y-33455018D01*
X2393219Y-33595207D01*
X2626346Y-33691772D01*
X2753966Y-33717157D01*
X2100000Y-33717157D01*
X2025311Y-33724513D01*
X1953492Y-33746299D01*
X1887304Y-33781678D01*
X1829289Y-33829289D01*
X1781678Y-33887304D01*
X1746299Y-33953492D01*
X1724513Y-34025311D01*
X1717157Y-34100000D01*
X406000Y-34100000D01*
X406000Y-26856980D01*
X1810511Y-26856980D01*
X1834866Y-26937288D01*
X1934761Y-27156961D01*
X2075592Y-27352924D01*
X2251948Y-27517647D01*
X2457051Y-27644799D01*
X2683019Y-27729495D01*
X2873000Y-27669187D01*
X2873000Y-26667000D01*
X3127000Y-26667000D01*
X3127000Y-27669187D01*
X3316981Y-27729495D01*
X3542949Y-27644799D01*
X3748052Y-27517647D01*
X3924408Y-27352924D01*
X4065239Y-27156961D01*
X4165134Y-26937288D01*
X4189489Y-26856980D01*
X4128627Y-26667000D01*
X3127000Y-26667000D01*
X2873000Y-26667000D01*
X1871373Y-26667000D01*
X1810511Y-26856980D01*
X406000Y-26856980D01*
X406000Y-26223020D01*
X1810511Y-26223020D01*
X1871373Y-26413000D01*
X2873000Y-26413000D01*
X2873000Y-25410813D01*
X3127000Y-25410813D01*
X3127000Y-26413000D01*
X4128627Y-26413000D01*
X4189489Y-26223020D01*
X4165134Y-26142712D01*
X4065239Y-25923039D01*
X3924408Y-25727076D01*
X3748052Y-25562353D01*
X3542949Y-25435201D01*
X3316981Y-25350505D01*
X3127000Y-25410813D01*
X2873000Y-25410813D01*
X2683019Y-25350505D01*
X2457051Y-25435201D01*
X2251948Y-25562353D01*
X2075592Y-25727076D01*
X1934761Y-25923039D01*
X1834866Y-26142712D01*
X1810511Y-26223020D01*
X406000Y-26223020D01*
X406000Y-18776980D01*
X1810511Y-18776980D01*
X1834866Y-18857288D01*
X1934761Y-19076961D01*
X2075592Y-19272924D01*
X2251948Y-19437647D01*
X2457051Y-19564799D01*
X2683019Y-19649495D01*
X2873000Y-19589187D01*
X2873000Y-18587000D01*
X3127000Y-18587000D01*
X3127000Y-19589187D01*
X3316981Y-19649495D01*
X3542949Y-19564799D01*
X3748052Y-19437647D01*
X3924408Y-19272924D01*
X4065239Y-19076961D01*
X4165134Y-18857288D01*
X4189489Y-18776980D01*
X4128627Y-18587000D01*
X3127000Y-18587000D01*
X2873000Y-18587000D01*
X1871373Y-18587000D01*
X1810511Y-18776980D01*
X406000Y-18776980D01*
X406000Y-18143020D01*
X1810511Y-18143020D01*
X1871373Y-18333000D01*
X2873000Y-18333000D01*
X2873000Y-17330813D01*
X3127000Y-17330813D01*
X3127000Y-18333000D01*
X4128627Y-18333000D01*
X4189489Y-18143020D01*
X4165134Y-18062712D01*
X4065239Y-17843039D01*
X3924408Y-17647076D01*
X3748052Y-17482353D01*
X3542949Y-17355201D01*
X3316981Y-17270505D01*
X3127000Y-17330813D01*
X2873000Y-17330813D01*
X2683019Y-17270505D01*
X2457051Y-17355201D01*
X2251948Y-17482353D01*
X2075592Y-17647076D01*
X1934761Y-17843039D01*
X1834866Y-18062712D01*
X1810511Y-18143020D01*
X406000Y-18143020D01*
X406000Y-7100000D01*
X1717157Y-7100000D01*
X1717157Y-8900000D01*
X1724513Y-8974689D01*
X1746299Y-9046508D01*
X1781678Y-9112696D01*
X1829289Y-9170711D01*
X1887304Y-9218322D01*
X1953492Y-9253701D01*
X2025311Y-9275487D01*
X2100000Y-9282843D01*
X3690519Y-9282843D01*
X3630058Y-9307887D01*
X3502141Y-9393358D01*
X3393358Y-9502141D01*
X3307887Y-9630058D01*
X3249013Y-9772191D01*
X3219000Y-9923078D01*
X3219000Y-10076922D01*
X3249013Y-10227809D01*
X3307887Y-10369942D01*
X3393358Y-10497859D01*
X3502141Y-10606642D01*
X3630058Y-10692113D01*
X3772191Y-10750987D01*
X3923078Y-10781000D01*
X4076922Y-10781000D01*
X4227809Y-10750987D01*
X4369942Y-10692113D01*
X4497859Y-10606642D01*
X4606642Y-10497859D01*
X4692113Y-10369942D01*
X4750987Y-10227809D01*
X4781000Y-10076922D01*
X4781000Y-9934591D01*
X6209592Y-8506000D01*
X7390780Y-8506000D01*
X7307887Y-8630058D01*
X7249013Y-8772191D01*
X7227553Y-8880078D01*
X6575733Y-9531899D01*
X6551658Y-9551657D01*
X6531900Y-9575732D01*
X6531897Y-9575735D01*
X6472804Y-9647740D01*
X6414211Y-9757359D01*
X6378130Y-9876303D01*
X6365948Y-10000000D01*
X6369001Y-10031000D01*
X6369000Y-12538595D01*
X6307887Y-12630058D01*
X6249013Y-12772191D01*
X6219000Y-12923078D01*
X6219000Y-13076922D01*
X6249013Y-13227809D01*
X6307887Y-13369942D01*
X6393358Y-13497859D01*
X6502141Y-13606642D01*
X6630058Y-13692113D01*
X6772191Y-13750987D01*
X6923078Y-13781000D01*
X7076922Y-13781000D01*
X7227809Y-13750987D01*
X7369942Y-13692113D01*
X7497859Y-13606642D01*
X7606642Y-13497859D01*
X7692113Y-13369942D01*
X7750987Y-13227809D01*
X7781000Y-13076922D01*
X7781000Y-12923078D01*
X7750987Y-12772191D01*
X7692113Y-12630058D01*
X7631000Y-12538595D01*
X7631000Y-10261368D01*
X8119922Y-9772447D01*
X8227809Y-9750987D01*
X8369942Y-9692113D01*
X8461405Y-9631000D01*
X10238632Y-9631000D01*
X15356347Y-14748716D01*
X15356348Y-15525941D01*
X15295234Y-15617405D01*
X15236360Y-15759538D01*
X15206347Y-15910425D01*
X15206347Y-16064269D01*
X15236360Y-16215156D01*
X15255060Y-16260301D01*
X15227809Y-16249013D01*
X15076922Y-16219000D01*
X14923078Y-16219000D01*
X14772191Y-16249013D01*
X14630058Y-16307887D01*
X14502141Y-16393358D01*
X14393358Y-16502141D01*
X14307887Y-16630058D01*
X14249013Y-16772191D01*
X14219000Y-16923078D01*
X14219000Y-17076922D01*
X14249013Y-17227809D01*
X14307887Y-17369942D01*
X14393358Y-17497859D01*
X14502141Y-17606642D01*
X14630058Y-17692113D01*
X14772191Y-17750987D01*
X14923078Y-17781000D01*
X15076922Y-17781000D01*
X15227809Y-17750987D01*
X15369942Y-17692113D01*
X15497859Y-17606642D01*
X15598501Y-17506000D01*
X15975154Y-17506000D01*
X16000000Y-17508447D01*
X16024846Y-17506000D01*
X16024854Y-17506000D01*
X16099193Y-17498678D01*
X16194575Y-17469745D01*
X16282479Y-17422759D01*
X16359527Y-17359527D01*
X16375376Y-17340215D01*
X17840220Y-15875372D01*
X17859527Y-15859527D01*
X17922759Y-15782479D01*
X17969745Y-15694575D01*
X17993154Y-15617405D01*
X17998678Y-15599194D01*
X18000840Y-15577241D01*
X18006000Y-15524854D01*
X18006000Y-15524847D01*
X18008447Y-15500001D01*
X18006000Y-15475155D01*
X18006000Y-11524845D01*
X18008447Y-11499999D01*
X18006000Y-11475153D01*
X18006000Y-11475146D01*
X17998678Y-11400807D01*
X17969745Y-11305425D01*
X17922759Y-11217521D01*
X17859527Y-11140473D01*
X17840220Y-11124628D01*
X17638670Y-10923078D01*
X18219000Y-10923078D01*
X18219000Y-11076922D01*
X18249013Y-11227809D01*
X18307887Y-11369942D01*
X18393358Y-11497859D01*
X18494001Y-11598502D01*
X18494000Y-16823156D01*
X18491553Y-16848002D01*
X18494000Y-16872848D01*
X18494000Y-16872855D01*
X18501322Y-16947194D01*
X18530255Y-17042576D01*
X18577241Y-17130481D01*
X18640473Y-17207529D01*
X18659785Y-17223378D01*
X20226636Y-18790230D01*
X20242481Y-18809537D01*
X20319529Y-18872769D01*
X20407433Y-18919755D01*
X20480615Y-18941954D01*
X20502814Y-18948688D01*
X20512702Y-18949662D01*
X20577154Y-18956010D01*
X20577161Y-18956010D01*
X20602007Y-18958457D01*
X20626853Y-18956010D01*
X24104009Y-18956010D01*
X32994001Y-27846003D01*
X32994000Y-40790408D01*
X31065409Y-42719000D01*
X30923078Y-42719000D01*
X30772191Y-42749013D01*
X30630058Y-42807887D01*
X30502141Y-42893358D01*
X30393358Y-43002141D01*
X30307887Y-43130058D01*
X30249013Y-43272191D01*
X30219000Y-43423078D01*
X30219000Y-43576922D01*
X30249013Y-43727809D01*
X30307887Y-43869942D01*
X30393358Y-43997859D01*
X30502141Y-44106642D01*
X30630058Y-44192113D01*
X30772191Y-44250987D01*
X30923078Y-44281000D01*
X31076922Y-44281000D01*
X31227809Y-44250987D01*
X31369942Y-44192113D01*
X31497859Y-44106642D01*
X31606642Y-43997859D01*
X31692113Y-43869942D01*
X31750000Y-43730192D01*
X31807887Y-43869942D01*
X31893358Y-43997859D01*
X32002141Y-44106642D01*
X32130058Y-44192113D01*
X32272191Y-44250987D01*
X32423078Y-44281000D01*
X32576922Y-44281000D01*
X32727809Y-44250987D01*
X32869942Y-44192113D01*
X32997859Y-44106642D01*
X33106642Y-43997859D01*
X33192113Y-43869942D01*
X33250987Y-43727809D01*
X33281000Y-43576922D01*
X33281000Y-43423078D01*
X33250987Y-43272191D01*
X33192113Y-43130058D01*
X33123114Y-43026793D01*
X33719000Y-42430907D01*
X33719000Y-42576922D01*
X33749013Y-42727809D01*
X33807887Y-42869942D01*
X33893358Y-42997859D01*
X33994000Y-43098501D01*
X33994001Y-48434780D01*
X33991553Y-48459636D01*
X34001322Y-48558828D01*
X34030255Y-48654210D01*
X34030256Y-48654211D01*
X34077242Y-48742115D01*
X34140474Y-48819163D01*
X34159780Y-48835008D01*
X35494000Y-50169228D01*
X35494001Y-50975144D01*
X35491553Y-51000000D01*
X35501322Y-51099192D01*
X35530255Y-51194574D01*
X35530256Y-51194575D01*
X35577242Y-51282479D01*
X35640474Y-51359527D01*
X35659780Y-51375372D01*
X37084628Y-52800220D01*
X37100473Y-52819527D01*
X37177521Y-52882759D01*
X37265425Y-52929745D01*
X37360807Y-52958678D01*
X37460000Y-52968448D01*
X37484854Y-52966000D01*
X39823048Y-52966000D01*
X39864793Y-53066781D01*
X40004982Y-53276590D01*
X40183410Y-53455018D01*
X40393219Y-53595207D01*
X40626346Y-53691772D01*
X40753966Y-53717157D01*
X40100000Y-53717157D01*
X40025311Y-53724513D01*
X39953492Y-53746299D01*
X39887304Y-53781678D01*
X39829289Y-53829289D01*
X39781678Y-53887304D01*
X39746299Y-53953492D01*
X39724513Y-54025311D01*
X39717157Y-54100000D01*
X39717157Y-55900000D01*
X39724513Y-55974689D01*
X39746299Y-56046508D01*
X39781678Y-56112696D01*
X39829289Y-56170711D01*
X39887304Y-56218322D01*
X39953492Y-56253701D01*
X40025311Y-56275487D01*
X40100000Y-56282843D01*
X41900000Y-56282843D01*
X41974689Y-56275487D01*
X42046508Y-56253701D01*
X42112696Y-56218322D01*
X42170711Y-56170711D01*
X42218322Y-56112696D01*
X42253701Y-56046508D01*
X42275487Y-55974689D01*
X42282843Y-55900000D01*
X42282843Y-54100000D01*
X42275487Y-54025311D01*
X42253701Y-53953492D01*
X42218322Y-53887304D01*
X42170711Y-53829289D01*
X42112696Y-53781678D01*
X42046508Y-53746299D01*
X41974689Y-53724513D01*
X41900000Y-53717157D01*
X41246034Y-53717157D01*
X41373654Y-53691772D01*
X41606781Y-53595207D01*
X41816590Y-53455018D01*
X41995018Y-53276590D01*
X42135207Y-53066781D01*
X42231772Y-52833654D01*
X42281000Y-52586167D01*
X42281000Y-52333833D01*
X42231772Y-52086346D01*
X42135207Y-51853219D01*
X41995018Y-51643410D01*
X41816590Y-51464982D01*
X41606781Y-51324793D01*
X41373654Y-51228228D01*
X41126167Y-51179000D01*
X40873833Y-51179000D01*
X40626346Y-51228228D01*
X40393219Y-51324793D01*
X40183410Y-51464982D01*
X40004982Y-51643410D01*
X39864793Y-51853219D01*
X39823048Y-51954000D01*
X37669592Y-51954000D01*
X36506000Y-50790409D01*
X36506000Y-49984481D01*
X36508447Y-49959635D01*
X36506000Y-49934789D01*
X36506000Y-49934782D01*
X36498678Y-49860443D01*
X36469745Y-49765061D01*
X36422759Y-49677157D01*
X36359527Y-49600109D01*
X36340220Y-49584264D01*
X35006000Y-48250045D01*
X35006000Y-43098501D01*
X35106642Y-42997859D01*
X35192113Y-42869942D01*
X35250987Y-42727809D01*
X35281000Y-42576922D01*
X35281000Y-42423078D01*
X35250987Y-42272191D01*
X35192113Y-42130058D01*
X35106642Y-42002141D01*
X34997859Y-41893358D01*
X34869942Y-41807887D01*
X34727809Y-41749013D01*
X34576922Y-41719000D01*
X34423078Y-41719000D01*
X34420533Y-41719506D01*
X34422759Y-41716794D01*
X34469745Y-41628890D01*
X34498678Y-41533508D01*
X34506000Y-41459169D01*
X34506000Y-41459162D01*
X34508447Y-41434316D01*
X34506000Y-41409470D01*
X34506000Y-27524854D01*
X34508448Y-27500000D01*
X34498678Y-27400807D01*
X34469745Y-27305425D01*
X34451981Y-27272191D01*
X34422759Y-27217521D01*
X34359527Y-27140473D01*
X34340220Y-27124628D01*
X24875376Y-17659785D01*
X24859527Y-17640473D01*
X24782479Y-17577241D01*
X24694575Y-17530255D01*
X24599193Y-17501322D01*
X24524854Y-17494000D01*
X24524846Y-17494000D01*
X24500000Y-17491553D01*
X24475154Y-17494000D01*
X21434592Y-17494000D01*
X20506000Y-16565409D01*
X20506000Y-16423078D01*
X20475987Y-16272191D01*
X20417113Y-16130058D01*
X20331642Y-16002141D01*
X20222859Y-15893358D01*
X20094942Y-15807887D01*
X19952809Y-15749013D01*
X19801922Y-15719000D01*
X19648078Y-15719000D01*
X19506000Y-15747261D01*
X19506000Y-14923078D01*
X27219000Y-14923078D01*
X27219000Y-15076922D01*
X27249013Y-15227809D01*
X27307887Y-15369942D01*
X27393358Y-15497859D01*
X27502141Y-15606642D01*
X27630058Y-15692113D01*
X27772191Y-15750987D01*
X27880079Y-15772447D01*
X30369000Y-18261369D01*
X30369001Y-19538594D01*
X30307887Y-19630058D01*
X30249013Y-19772191D01*
X30219000Y-19923078D01*
X30219000Y-20076922D01*
X30249013Y-20227809D01*
X30307887Y-20369942D01*
X30393358Y-20497859D01*
X30502141Y-20606642D01*
X30630058Y-20692113D01*
X30772191Y-20750987D01*
X30923078Y-20781000D01*
X31076922Y-20781000D01*
X31227809Y-20750987D01*
X31369942Y-20692113D01*
X31497859Y-20606642D01*
X31606642Y-20497859D01*
X31692113Y-20369942D01*
X31750987Y-20227809D01*
X31781000Y-20076922D01*
X31781000Y-19923078D01*
X31750987Y-19772191D01*
X31692113Y-19630058D01*
X31631000Y-19538595D01*
X31631000Y-18030990D01*
X31634052Y-18000000D01*
X31631000Y-17969009D01*
X31631000Y-17969002D01*
X31621870Y-17876302D01*
X31585789Y-17757358D01*
X31527196Y-17647739D01*
X31508231Y-17624630D01*
X31468103Y-17575734D01*
X31468101Y-17575732D01*
X31448343Y-17551657D01*
X31424269Y-17531900D01*
X28772447Y-14880079D01*
X28750987Y-14772191D01*
X28692113Y-14630058D01*
X28606642Y-14502141D01*
X28497859Y-14393358D01*
X28369942Y-14307887D01*
X28227809Y-14249013D01*
X28076922Y-14219000D01*
X27923078Y-14219000D01*
X27772191Y-14249013D01*
X27630058Y-14307887D01*
X27502141Y-14393358D01*
X27393358Y-14502141D01*
X27307887Y-14630058D01*
X27249013Y-14772191D01*
X27219000Y-14923078D01*
X19506000Y-14923078D01*
X19506000Y-11598501D01*
X19606642Y-11497859D01*
X19692113Y-11369942D01*
X19750987Y-11227809D01*
X19781000Y-11076922D01*
X19781000Y-10923078D01*
X19750987Y-10772191D01*
X19692113Y-10630058D01*
X19606642Y-10502141D01*
X19497859Y-10393358D01*
X19369942Y-10307887D01*
X19227809Y-10249013D01*
X19076922Y-10219000D01*
X18923078Y-10219000D01*
X18772191Y-10249013D01*
X18630058Y-10307887D01*
X18502141Y-10393358D01*
X18393358Y-10502141D01*
X18307887Y-10630058D01*
X18249013Y-10772191D01*
X18219000Y-10923078D01*
X17638670Y-10923078D01*
X16375376Y-9659785D01*
X16359527Y-9640473D01*
X16282479Y-9577241D01*
X16194575Y-9530255D01*
X16099193Y-9501322D01*
X16024854Y-9494000D01*
X16024846Y-9494000D01*
X16000000Y-9491553D01*
X15975154Y-9494000D01*
X15598501Y-9494000D01*
X15497859Y-9393358D01*
X15369942Y-9307887D01*
X15227809Y-9249013D01*
X15076922Y-9219000D01*
X14923078Y-9219000D01*
X14772191Y-9249013D01*
X14630058Y-9307887D01*
X14502141Y-9393358D01*
X14393358Y-9502141D01*
X14307887Y-9630058D01*
X14249013Y-9772191D01*
X14219000Y-9923078D01*
X14219000Y-10076922D01*
X14249013Y-10227809D01*
X14307887Y-10369942D01*
X14393358Y-10497859D01*
X14502141Y-10606642D01*
X14630058Y-10692113D01*
X14772191Y-10750987D01*
X14923078Y-10781000D01*
X15076922Y-10781000D01*
X15227809Y-10750987D01*
X15369942Y-10692113D01*
X15497859Y-10606642D01*
X15598501Y-10506000D01*
X15790409Y-10506000D01*
X16994000Y-11709592D01*
X16994001Y-15290407D01*
X16674471Y-15609938D01*
X16618347Y-15525942D01*
X16618347Y-14518345D01*
X16621400Y-14487347D01*
X16609217Y-14363649D01*
X16573136Y-14244705D01*
X16514543Y-14135086D01*
X16455450Y-14063081D01*
X16455448Y-14063079D01*
X16435690Y-14039004D01*
X16411616Y-14019247D01*
X10968105Y-8575737D01*
X10948343Y-8551657D01*
X10892710Y-8506000D01*
X15901499Y-8506000D01*
X16002141Y-8606642D01*
X16130058Y-8692113D01*
X16272191Y-8750987D01*
X16423078Y-8781000D01*
X16576922Y-8781000D01*
X16727809Y-8750987D01*
X16869942Y-8692113D01*
X16997859Y-8606642D01*
X17106642Y-8497859D01*
X17192113Y-8369942D01*
X17250987Y-8227809D01*
X17281000Y-8076922D01*
X17281000Y-7923078D01*
X17250987Y-7772191D01*
X17192113Y-7630058D01*
X17106642Y-7502141D01*
X16997859Y-7393358D01*
X16869942Y-7307887D01*
X16727809Y-7249013D01*
X16576922Y-7219000D01*
X16423078Y-7219000D01*
X16272191Y-7249013D01*
X16130058Y-7307887D01*
X16002141Y-7393358D01*
X15901499Y-7494000D01*
X12609220Y-7494000D01*
X12692113Y-7369942D01*
X12750987Y-7227809D01*
X12776409Y-7100000D01*
X39717157Y-7100000D01*
X39717157Y-8900000D01*
X39724513Y-8974689D01*
X39746299Y-9046508D01*
X39781678Y-9112696D01*
X39829289Y-9170711D01*
X39887304Y-9218322D01*
X39953492Y-9253701D01*
X40025311Y-9275487D01*
X40100000Y-9282843D01*
X41900000Y-9282843D01*
X41974689Y-9275487D01*
X42046508Y-9253701D01*
X42112696Y-9218322D01*
X42170711Y-9170711D01*
X42218322Y-9112696D01*
X42253701Y-9046508D01*
X42275487Y-8974689D01*
X42282843Y-8900000D01*
X42282843Y-7100000D01*
X42275487Y-7025311D01*
X42253701Y-6953492D01*
X42218322Y-6887304D01*
X42170711Y-6829289D01*
X42112696Y-6781678D01*
X42046508Y-6746299D01*
X41974689Y-6724513D01*
X41900000Y-6717157D01*
X41246034Y-6717157D01*
X41373654Y-6691772D01*
X41606781Y-6595207D01*
X41816590Y-6455018D01*
X41995018Y-6276590D01*
X42135207Y-6066781D01*
X42231772Y-5833654D01*
X42281000Y-5586167D01*
X42281000Y-5333833D01*
X42231772Y-5086346D01*
X42135207Y-4853219D01*
X41995018Y-4643410D01*
X41816590Y-4464982D01*
X41606781Y-4324793D01*
X41373654Y-4228228D01*
X41126167Y-4179000D01*
X40873833Y-4179000D01*
X40626346Y-4228228D01*
X40393219Y-4324793D01*
X40183410Y-4464982D01*
X40004982Y-4643410D01*
X39864793Y-4853219D01*
X39768228Y-5086346D01*
X39719000Y-5333833D01*
X39719000Y-5586167D01*
X39768228Y-5833654D01*
X39864793Y-6066781D01*
X40004982Y-6276590D01*
X40183410Y-6455018D01*
X40393219Y-6595207D01*
X40626346Y-6691772D01*
X40753966Y-6717157D01*
X40100000Y-6717157D01*
X40025311Y-6724513D01*
X39953492Y-6746299D01*
X39887304Y-6781678D01*
X39829289Y-6829289D01*
X39781678Y-6887304D01*
X39746299Y-6953492D01*
X39724513Y-7025311D01*
X39717157Y-7100000D01*
X12776409Y-7100000D01*
X12781000Y-7076922D01*
X12781000Y-6923078D01*
X12750987Y-6772191D01*
X12735993Y-6735993D01*
X12772191Y-6750987D01*
X12923078Y-6781000D01*
X13076922Y-6781000D01*
X13227809Y-6750987D01*
X13369942Y-6692113D01*
X13497859Y-6606642D01*
X13606642Y-6497859D01*
X13692113Y-6369942D01*
X13750987Y-6227809D01*
X13781000Y-6076922D01*
X13781000Y-5923078D01*
X13750987Y-5772191D01*
X13692113Y-5630058D01*
X13606642Y-5502141D01*
X13497859Y-5393358D01*
X13369942Y-5307887D01*
X13227809Y-5249013D01*
X13076922Y-5219000D01*
X12923078Y-5219000D01*
X12772191Y-5249013D01*
X12630058Y-5307887D01*
X12538595Y-5369000D01*
X9461405Y-5369000D01*
X9369942Y-5307887D01*
X9227809Y-5249013D01*
X9076922Y-5219000D01*
X8923078Y-5219000D01*
X8772191Y-5249013D01*
X8630058Y-5307887D01*
X8502141Y-5393358D01*
X8393358Y-5502141D01*
X8307887Y-5630058D01*
X8249013Y-5772191D01*
X8219000Y-5923078D01*
X8219000Y-6076922D01*
X8249013Y-6227809D01*
X8307887Y-6369942D01*
X8393358Y-6497859D01*
X8502141Y-6606642D01*
X8630058Y-6692113D01*
X8772191Y-6750987D01*
X8923078Y-6781000D01*
X9076922Y-6781000D01*
X9227809Y-6750987D01*
X9264007Y-6735993D01*
X9249013Y-6772191D01*
X9219000Y-6923078D01*
X9219000Y-7076922D01*
X9249013Y-7227809D01*
X9307887Y-7369942D01*
X9390780Y-7494000D01*
X6024845Y-7494000D01*
X5999999Y-7491553D01*
X5975153Y-7494000D01*
X5975146Y-7494000D01*
X5910694Y-7500348D01*
X5900806Y-7501322D01*
X5805425Y-7530255D01*
X5717521Y-7577241D01*
X5640473Y-7640473D01*
X5624628Y-7659780D01*
X4260581Y-9023828D01*
X4275487Y-8974689D01*
X4282843Y-8900000D01*
X4282843Y-7100000D01*
X4275487Y-7025311D01*
X4253701Y-6953492D01*
X4218322Y-6887304D01*
X4170711Y-6829289D01*
X4112696Y-6781678D01*
X4046508Y-6746299D01*
X3974689Y-6724513D01*
X3900000Y-6717157D01*
X3246034Y-6717157D01*
X3373654Y-6691772D01*
X3606781Y-6595207D01*
X3816590Y-6455018D01*
X3995018Y-6276590D01*
X4135207Y-6066781D01*
X4231772Y-5833654D01*
X4281000Y-5586167D01*
X4281000Y-5333833D01*
X4231772Y-5086346D01*
X4181575Y-4965160D01*
X7876945Y-4965160D01*
X7953788Y-5130361D01*
X8153104Y-5218324D01*
X8365751Y-5265713D01*
X8583557Y-5270705D01*
X8798152Y-5233111D01*
X9001289Y-5154372D01*
X9046212Y-5130361D01*
X9123055Y-4965160D01*
X12876945Y-4965160D01*
X12953788Y-5130361D01*
X13153104Y-5218324D01*
X13365751Y-5265713D01*
X13583557Y-5270705D01*
X13798152Y-5233111D01*
X14001289Y-5154372D01*
X14046212Y-5130361D01*
X14123055Y-4965160D01*
X14036652Y-4878757D01*
X28689000Y-4878757D01*
X28689000Y-5121243D01*
X28736307Y-5359069D01*
X28829102Y-5583097D01*
X28963820Y-5784717D01*
X29135283Y-5956180D01*
X29336903Y-6090898D01*
X29560931Y-6183693D01*
X29798757Y-6231000D01*
X30041243Y-6231000D01*
X30279069Y-6183693D01*
X30503097Y-6090898D01*
X30704717Y-5956180D01*
X30876180Y-5784717D01*
X31010898Y-5583097D01*
X31103693Y-5359069D01*
X31151000Y-5121243D01*
X31151000Y-4878757D01*
X31229000Y-4878757D01*
X31229000Y-5121243D01*
X31276307Y-5359069D01*
X31369102Y-5583097D01*
X31503820Y-5784717D01*
X31675283Y-5956180D01*
X31876903Y-6090898D01*
X32100931Y-6183693D01*
X32338757Y-6231000D01*
X32581243Y-6231000D01*
X32819069Y-6183693D01*
X33043097Y-6090898D01*
X33244717Y-5956180D01*
X33416180Y-5784717D01*
X33550898Y-5583097D01*
X33643693Y-5359069D01*
X33691000Y-5121243D01*
X33691000Y-4878757D01*
X33643693Y-4640931D01*
X33550898Y-4416903D01*
X33416180Y-4215283D01*
X33350897Y-4150000D01*
X33767157Y-4150000D01*
X33767157Y-5850000D01*
X33774513Y-5924689D01*
X33796299Y-5996508D01*
X33831678Y-6062696D01*
X33879289Y-6120711D01*
X33937304Y-6168322D01*
X34003492Y-6203701D01*
X34075311Y-6225487D01*
X34150000Y-6232843D01*
X35850000Y-6232843D01*
X35924689Y-6225487D01*
X35996508Y-6203701D01*
X36062696Y-6168322D01*
X36120711Y-6120711D01*
X36168322Y-6062696D01*
X36203701Y-5996508D01*
X36225487Y-5924689D01*
X36232843Y-5850000D01*
X36232843Y-4150000D01*
X36225487Y-4075311D01*
X36203701Y-4003492D01*
X36168322Y-3937304D01*
X36120711Y-3879289D01*
X36062696Y-3831678D01*
X35996508Y-3796299D01*
X35924689Y-3774513D01*
X35850000Y-3767157D01*
X34150000Y-3767157D01*
X34075311Y-3774513D01*
X34003492Y-3796299D01*
X33937304Y-3831678D01*
X33879289Y-3879289D01*
X33831678Y-3937304D01*
X33796299Y-4003492D01*
X33774513Y-4075311D01*
X33767157Y-4150000D01*
X33350897Y-4150000D01*
X33244717Y-4043820D01*
X33043097Y-3909102D01*
X32819069Y-3816307D01*
X32581243Y-3769000D01*
X32338757Y-3769000D01*
X32100931Y-3816307D01*
X31876903Y-3909102D01*
X31675283Y-4043820D01*
X31503820Y-4215283D01*
X31369102Y-4416903D01*
X31276307Y-4640931D01*
X31229000Y-4878757D01*
X31151000Y-4878757D01*
X31103693Y-4640931D01*
X31010898Y-4416903D01*
X30876180Y-4215283D01*
X30704717Y-4043820D01*
X30503097Y-3909102D01*
X30279069Y-3816307D01*
X30041243Y-3769000D01*
X29798757Y-3769000D01*
X29560931Y-3816307D01*
X29336903Y-3909102D01*
X29135283Y-4043820D01*
X28963820Y-4215283D01*
X28829102Y-4416903D01*
X28736307Y-4640931D01*
X28689000Y-4878757D01*
X14036652Y-4878757D01*
X13500000Y-4342105D01*
X12876945Y-4965160D01*
X9123055Y-4965160D01*
X8500000Y-4342105D01*
X7876945Y-4965160D01*
X4181575Y-4965160D01*
X4135207Y-4853219D01*
X3995018Y-4643410D01*
X3816590Y-4464982D01*
X3606781Y-4324793D01*
X3416697Y-4246057D01*
X7391795Y-4246057D01*
X7429389Y-4460652D01*
X7508128Y-4663789D01*
X7532139Y-4708712D01*
X7697340Y-4785555D01*
X8320395Y-4162500D01*
X8679605Y-4162500D01*
X9302660Y-4785555D01*
X9467861Y-4708712D01*
X9555824Y-4509396D01*
X9603213Y-4296749D01*
X9604374Y-4246057D01*
X12391795Y-4246057D01*
X12429389Y-4460652D01*
X12508128Y-4663789D01*
X12532139Y-4708712D01*
X12697340Y-4785555D01*
X13320395Y-4162500D01*
X13679605Y-4162500D01*
X14302660Y-4785555D01*
X14467861Y-4708712D01*
X14555824Y-4509396D01*
X14603213Y-4296749D01*
X14608205Y-4078943D01*
X14570611Y-3864348D01*
X14491872Y-3661211D01*
X14467861Y-3616288D01*
X14302660Y-3539445D01*
X13679605Y-4162500D01*
X13320395Y-4162500D01*
X12697340Y-3539445D01*
X12532139Y-3616288D01*
X12444176Y-3815604D01*
X12396787Y-4028251D01*
X12391795Y-4246057D01*
X9604374Y-4246057D01*
X9608205Y-4078943D01*
X9570611Y-3864348D01*
X9491872Y-3661211D01*
X9467861Y-3616288D01*
X9302660Y-3539445D01*
X8679605Y-4162500D01*
X8320395Y-4162500D01*
X7697340Y-3539445D01*
X7532139Y-3616288D01*
X7444176Y-3815604D01*
X7396787Y-4028251D01*
X7391795Y-4246057D01*
X3416697Y-4246057D01*
X3373654Y-4228228D01*
X3126167Y-4179000D01*
X2873833Y-4179000D01*
X2626346Y-4228228D01*
X2393219Y-4324793D01*
X2183410Y-4464982D01*
X2004982Y-4643410D01*
X1864793Y-4853219D01*
X1768228Y-5086346D01*
X1719000Y-5333833D01*
X1719000Y-5586167D01*
X1768228Y-5833654D01*
X1864793Y-6066781D01*
X2004982Y-6276590D01*
X2183410Y-6455018D01*
X2393219Y-6595207D01*
X2626346Y-6691772D01*
X2753966Y-6717157D01*
X2100000Y-6717157D01*
X2025311Y-6724513D01*
X1953492Y-6746299D01*
X1887304Y-6781678D01*
X1829289Y-6829289D01*
X1781678Y-6887304D01*
X1746299Y-6953492D01*
X1724513Y-7025311D01*
X1717157Y-7100000D01*
X406000Y-7100000D01*
X406000Y-3359840D01*
X7876945Y-3359840D01*
X8500000Y-3982895D01*
X9123055Y-3359840D01*
X12876945Y-3359840D01*
X13500000Y-3982895D01*
X14123055Y-3359840D01*
X14046212Y-3194639D01*
X13846896Y-3106676D01*
X13634249Y-3059287D01*
X13416443Y-3054295D01*
X13201848Y-3091889D01*
X12998711Y-3170628D01*
X12953788Y-3194639D01*
X12876945Y-3359840D01*
X9123055Y-3359840D01*
X9046212Y-3194639D01*
X8846896Y-3106676D01*
X8634249Y-3059287D01*
X8416443Y-3054295D01*
X8201848Y-3091889D01*
X7998711Y-3170628D01*
X7953788Y-3194639D01*
X7876945Y-3359840D01*
X406000Y-3359840D01*
X406000Y-1589500D01*
X6519000Y-1589500D01*
X6519000Y-1939500D01*
X6562626Y-2128443D01*
X6642275Y-2305245D01*
X6754886Y-2463111D01*
X6896131Y-2595974D01*
X7060582Y-2698729D01*
X7222393Y-2753402D01*
X7373000Y-2689098D01*
X7373000Y-1589500D01*
X7627000Y-1589500D01*
X7627000Y-2689098D01*
X7777607Y-2753402D01*
X7939418Y-2698729D01*
X8103869Y-2595974D01*
X8245114Y-2463111D01*
X8357725Y-2305245D01*
X8437374Y-2128443D01*
X8481000Y-1939500D01*
X8481000Y-1589500D01*
X13519000Y-1589500D01*
X13519000Y-1939500D01*
X13562626Y-2128443D01*
X13642275Y-2305245D01*
X13754886Y-2463111D01*
X13896131Y-2595974D01*
X14060582Y-2698729D01*
X14222393Y-2753402D01*
X14373000Y-2689098D01*
X14373000Y-1589500D01*
X14627000Y-1589500D01*
X14627000Y-2689098D01*
X14777607Y-2753402D01*
X14939418Y-2698729D01*
X15103869Y-2595974D01*
X15245114Y-2463111D01*
X15357725Y-2305245D01*
X15437374Y-2128443D01*
X15481000Y-1939500D01*
X15481000Y-1589500D01*
X14627000Y-1589500D01*
X14373000Y-1589500D01*
X13519000Y-1589500D01*
X8481000Y-1589500D01*
X7627000Y-1589500D01*
X7373000Y-1589500D01*
X6519000Y-1589500D01*
X406000Y-1589500D01*
X406000Y-406000D01*
X6814301Y-406000D01*
X6754886Y-461889D01*
G04 #@! TA.AperFunction,Conductor*
D24*
G36*
X6754886Y-461889D02*
G01*
X6642275Y-619755D01*
X6562626Y-796557D01*
X6519000Y-985500D01*
X6519000Y-1335500D01*
X7373000Y-1335500D01*
X7373000Y-1315500D01*
X7627000Y-1315500D01*
X7627000Y-1335500D01*
X8481000Y-1335500D01*
X8481000Y-985500D01*
X8437374Y-796557D01*
X8357725Y-619755D01*
X8245114Y-461889D01*
X8185699Y-406000D01*
X13814301Y-406000D01*
X13754886Y-461889D01*
X13642275Y-619755D01*
X13562626Y-796557D01*
X13519000Y-985500D01*
X13519000Y-1335500D01*
X14373000Y-1335500D01*
X14373000Y-1315500D01*
X14627000Y-1315500D01*
X14627000Y-1335500D01*
X15481000Y-1335500D01*
X15481000Y-985500D01*
X15437374Y-796557D01*
X15357725Y-619755D01*
X15245114Y-461889D01*
X15185699Y-406000D01*
X43594000Y-406000D01*
X43594000Y-23373000D01*
X37000000Y-23373000D01*
X36975224Y-23375440D01*
X36951399Y-23382667D01*
X36929443Y-23394403D01*
X36910197Y-23410197D01*
X36894403Y-23429443D01*
X36882667Y-23451399D01*
X36875440Y-23475224D01*
X36873000Y-23500000D01*
X36873000Y-50500000D01*
X36875440Y-50524776D01*
X36882667Y-50548601D01*
X36894403Y-50570557D01*
X36910197Y-50589803D01*
X36929443Y-50605597D01*
X36951399Y-50617333D01*
X36975224Y-50624560D01*
X37000000Y-50627000D01*
X43594001Y-50627000D01*
X43594001Y-83594000D01*
X406000Y-83594000D01*
X406000Y-79804889D01*
X2019000Y-79804889D01*
X2019000Y-80195111D01*
X2095129Y-80577836D01*
X2244461Y-80938355D01*
X2461257Y-81262814D01*
X2737186Y-81538743D01*
X3061645Y-81755539D01*
X3422164Y-81904871D01*
X3804889Y-81981000D01*
X4195111Y-81981000D01*
X4577836Y-81904871D01*
X4938355Y-81755539D01*
X5262814Y-81538743D01*
X5538743Y-81262814D01*
X5755539Y-80938355D01*
X5904871Y-80577836D01*
X5981000Y-80195111D01*
X5981000Y-79941879D01*
X14337726Y-79941879D01*
X14480478Y-80162860D01*
X14772821Y-80305348D01*
X15087344Y-80388064D01*
X15411962Y-80407831D01*
X15734198Y-80363888D01*
X16041670Y-80257924D01*
X16219522Y-80162860D01*
X16362274Y-79941879D01*
X15350000Y-78929605D01*
X14337726Y-79941879D01*
X5981000Y-79941879D01*
X5981000Y-79804889D01*
X5904871Y-79422164D01*
X5755539Y-79061645D01*
X5588707Y-78811962D01*
X13692169Y-78811962D01*
X13736112Y-79134198D01*
X13842076Y-79441670D01*
X13937140Y-79619522D01*
X14158121Y-79762274D01*
X15170395Y-78750000D01*
X15529605Y-78750000D01*
X16541879Y-79762274D01*
X16762860Y-79619522D01*
X16905348Y-79327179D01*
X16988064Y-79012656D01*
X17007831Y-78688038D01*
X16963888Y-78365802D01*
X16857924Y-78058330D01*
X16762860Y-77880478D01*
X16541879Y-77737726D01*
X15529605Y-78750000D01*
X15170395Y-78750000D01*
X14158121Y-77737726D01*
X13937140Y-77880478D01*
X13794652Y-78172821D01*
X13711936Y-78487344D01*
X13692169Y-78811962D01*
X5588707Y-78811962D01*
X5538743Y-78737186D01*
X5262814Y-78461257D01*
X4938355Y-78244461D01*
X4577836Y-78095129D01*
X4195111Y-78019000D01*
X3804889Y-78019000D01*
X3422164Y-78095129D01*
X3061645Y-78244461D01*
X2737186Y-78461257D01*
X2461257Y-78737186D01*
X2244461Y-79061645D01*
X2095129Y-79422164D01*
X2019000Y-79804889D01*
X406000Y-79804889D01*
X406000Y-77558121D01*
X14337726Y-77558121D01*
X15350000Y-78570395D01*
X16362274Y-77558121D01*
X16219522Y-77337140D01*
X15927179Y-77194652D01*
X15612656Y-77111936D01*
X15288038Y-77092169D01*
X14965802Y-77136112D01*
X14658330Y-77242076D01*
X14480478Y-77337140D01*
X14337726Y-77558121D01*
X406000Y-77558121D01*
X406000Y-74687391D01*
X7599000Y-74687391D01*
X7599000Y-75012609D01*
X7662447Y-75331579D01*
X7786903Y-75632042D01*
X7967585Y-75902451D01*
X8197549Y-76132415D01*
X8467958Y-76313097D01*
X8768421Y-76437553D01*
X9087391Y-76501000D01*
X9412609Y-76501000D01*
X9731579Y-76437553D01*
X10032042Y-76313097D01*
X10302451Y-76132415D01*
X10532415Y-75902451D01*
X10713097Y-75632042D01*
X10837553Y-75331579D01*
X10901000Y-75012609D01*
X10901000Y-74687391D01*
X12099000Y-74687391D01*
X12099000Y-75012609D01*
X12162447Y-75331579D01*
X12286903Y-75632042D01*
X12467585Y-75902451D01*
X12697549Y-76132415D01*
X12967958Y-76313097D01*
X13268421Y-76437553D01*
X13587391Y-76501000D01*
X13912609Y-76501000D01*
X14231579Y-76437553D01*
X14532042Y-76313097D01*
X14802451Y-76132415D01*
X15032415Y-75902451D01*
X15213097Y-75632042D01*
X15337553Y-75331579D01*
X15401000Y-75012609D01*
X15401000Y-74687391D01*
X15337553Y-74368421D01*
X15213097Y-74067958D01*
X15032415Y-73797549D01*
X14802451Y-73567585D01*
X14532042Y-73386903D01*
X14231579Y-73262447D01*
X13912609Y-73199000D01*
X13587391Y-73199000D01*
X13268421Y-73262447D01*
X12967958Y-73386903D01*
X12697549Y-73567585D01*
X12467585Y-73797549D01*
X12286903Y-74067958D01*
X12162447Y-74368421D01*
X12099000Y-74687391D01*
X10901000Y-74687391D01*
X10837553Y-74368421D01*
X10713097Y-74067958D01*
X10532415Y-73797549D01*
X10302451Y-73567585D01*
X10032042Y-73386903D01*
X9731579Y-73262447D01*
X9412609Y-73199000D01*
X9087391Y-73199000D01*
X8768421Y-73262447D01*
X8467958Y-73386903D01*
X8197549Y-73567585D01*
X7967585Y-73797549D01*
X7786903Y-74067958D01*
X7662447Y-74368421D01*
X7599000Y-74687391D01*
X406000Y-74687391D01*
X406000Y-66987391D01*
X7599000Y-66987391D01*
X7599000Y-67312609D01*
X7662447Y-67631579D01*
X7786903Y-67932042D01*
X7967585Y-68202451D01*
X8197549Y-68432415D01*
X8467958Y-68613097D01*
X8768421Y-68737553D01*
X9087391Y-68801000D01*
X9412609Y-68801000D01*
X9731579Y-68737553D01*
X10032042Y-68613097D01*
X10302451Y-68432415D01*
X10532415Y-68202451D01*
X10713097Y-67932042D01*
X10837553Y-67631579D01*
X10901000Y-67312609D01*
X10901000Y-66987391D01*
X10837553Y-66668421D01*
X10713097Y-66367958D01*
X10532415Y-66097549D01*
X10302451Y-65867585D01*
X10032042Y-65686903D01*
X9731579Y-65562447D01*
X9412609Y-65499000D01*
X9087391Y-65499000D01*
X8768421Y-65562447D01*
X8467958Y-65686903D01*
X8197549Y-65867585D01*
X7967585Y-66097549D01*
X7786903Y-66367958D01*
X7662447Y-66668421D01*
X7599000Y-66987391D01*
X406000Y-66987391D01*
X406000Y-34100000D01*
X1717157Y-34100000D01*
X1717157Y-35900000D01*
X1724513Y-35974689D01*
X1746299Y-36046508D01*
X1781678Y-36112696D01*
X1829289Y-36170711D01*
X1887304Y-36218322D01*
X1953492Y-36253701D01*
X2025311Y-36275487D01*
X2100000Y-36282843D01*
X3900000Y-36282843D01*
X3974689Y-36275487D01*
X4046508Y-36253701D01*
X4112696Y-36218322D01*
X4170711Y-36170711D01*
X4218322Y-36112696D01*
X4253701Y-36046508D01*
X4275487Y-35974689D01*
X4282843Y-35900000D01*
X4282843Y-34100000D01*
X4275487Y-34025311D01*
X4253701Y-33953492D01*
X4218322Y-33887304D01*
X4170711Y-33829289D01*
X4112696Y-33781678D01*
X4046508Y-33746299D01*
X3974689Y-33724513D01*
X3900000Y-33717157D01*
X3246034Y-33717157D01*
X3373654Y-33691772D01*
X3606781Y-33595207D01*
X3816590Y-33455018D01*
X3995018Y-33276590D01*
X4135207Y-33066781D01*
X4176952Y-32966000D01*
X22343714Y-32966000D01*
X16855715Y-38454000D01*
X4176952Y-38454000D01*
X4135207Y-38353219D01*
X3995018Y-38143410D01*
X3816590Y-37964982D01*
X3606781Y-37824793D01*
X3373654Y-37728228D01*
X3126167Y-37679000D01*
X2873833Y-37679000D01*
X2626346Y-37728228D01*
X2393219Y-37824793D01*
X2183410Y-37964982D01*
X2004982Y-38143410D01*
X1864793Y-38353219D01*
X1768228Y-38586346D01*
X1719000Y-38833833D01*
X1719000Y-39086167D01*
X1768228Y-39333654D01*
X1864793Y-39566781D01*
X2004982Y-39776590D01*
X2183410Y-39955018D01*
X2393219Y-40095207D01*
X2626346Y-40191772D01*
X2753966Y-40217157D01*
X2100000Y-40217157D01*
X2025311Y-40224513D01*
X1953492Y-40246299D01*
X1887304Y-40281678D01*
X1829289Y-40329289D01*
X1781678Y-40387304D01*
X1746299Y-40453492D01*
X1724513Y-40525311D01*
X1717157Y-40600000D01*
X1717157Y-42400000D01*
X1724513Y-42474689D01*
X1746299Y-42546508D01*
X1781678Y-42612696D01*
X1829289Y-42670711D01*
X1887304Y-42718322D01*
X1953492Y-42753701D01*
X2025311Y-42775487D01*
X2100000Y-42782843D01*
X3900000Y-42782843D01*
X3974689Y-42775487D01*
X4046508Y-42753701D01*
X4112696Y-42718322D01*
X4170711Y-42670711D01*
X4218322Y-42612696D01*
X4253701Y-42546508D01*
X4275487Y-42474689D01*
X4282843Y-42400000D01*
X4282843Y-40600000D01*
X4275487Y-40525311D01*
X4253701Y-40453492D01*
X4218322Y-40387304D01*
X4170711Y-40329289D01*
X4112696Y-40281678D01*
X4046508Y-40246299D01*
X3974689Y-40224513D01*
X3900000Y-40217157D01*
X3246034Y-40217157D01*
X3373654Y-40191772D01*
X3606781Y-40095207D01*
X3816590Y-39955018D01*
X3995018Y-39776590D01*
X4135207Y-39566781D01*
X4176952Y-39466000D01*
X16869020Y-39466000D01*
X11381020Y-44954000D01*
X4176952Y-44954000D01*
X4135207Y-44853219D01*
X3995018Y-44643410D01*
X3816590Y-44464982D01*
X3606781Y-44324793D01*
X3373654Y-44228228D01*
X3126167Y-44179000D01*
X2873833Y-44179000D01*
X2626346Y-44228228D01*
X2393219Y-44324793D01*
X2183410Y-44464982D01*
X2004982Y-44643410D01*
X1864793Y-44853219D01*
X1768228Y-45086346D01*
X1719000Y-45333833D01*
X1719000Y-45586167D01*
X1768228Y-45833654D01*
X1864793Y-46066781D01*
X2004982Y-46276590D01*
X2183410Y-46455018D01*
X2393219Y-46595207D01*
X2626346Y-46691772D01*
X2753966Y-46717157D01*
X2100000Y-46717157D01*
X2025311Y-46724513D01*
X1953492Y-46746299D01*
X1887304Y-46781678D01*
X1829289Y-46829289D01*
X1781678Y-46887304D01*
X1746299Y-46953492D01*
X1724513Y-47025311D01*
X1717157Y-47100000D01*
X1717157Y-48900000D01*
X1724513Y-48974689D01*
X1746299Y-49046508D01*
X1781678Y-49112696D01*
X1829289Y-49170711D01*
X1887304Y-49218322D01*
X1953492Y-49253701D01*
X2025311Y-49275487D01*
X2100000Y-49282843D01*
X3900000Y-49282843D01*
X3974689Y-49275487D01*
X4046508Y-49253701D01*
X4112696Y-49218322D01*
X4170711Y-49170711D01*
X4218322Y-49112696D01*
X4253701Y-49046508D01*
X4275487Y-48974689D01*
X4282843Y-48900000D01*
X4282843Y-47100000D01*
X4275487Y-47025311D01*
X4253701Y-46953492D01*
X4218322Y-46887304D01*
X4170711Y-46829289D01*
X4112696Y-46781678D01*
X4046508Y-46746299D01*
X3974689Y-46724513D01*
X3900000Y-46717157D01*
X3246034Y-46717157D01*
X3373654Y-46691772D01*
X3606781Y-46595207D01*
X3816590Y-46455018D01*
X3995018Y-46276590D01*
X4135207Y-46066781D01*
X4176952Y-45966000D01*
X11394326Y-45966000D01*
X5906326Y-51454000D01*
X4176952Y-51454000D01*
X4135207Y-51353219D01*
X3995018Y-51143410D01*
X3816590Y-50964982D01*
X3606781Y-50824793D01*
X3373654Y-50728228D01*
X3126167Y-50679000D01*
X2873833Y-50679000D01*
X2626346Y-50728228D01*
X2393219Y-50824793D01*
X2183410Y-50964982D01*
X2004982Y-51143410D01*
X1864793Y-51353219D01*
X1768228Y-51586346D01*
X1719000Y-51833833D01*
X1719000Y-52086167D01*
X1768228Y-52333654D01*
X1864793Y-52566781D01*
X2004982Y-52776590D01*
X2183410Y-52955018D01*
X2393219Y-53095207D01*
X2626346Y-53191772D01*
X2753966Y-53217157D01*
X2100000Y-53217157D01*
X2025311Y-53224513D01*
X1953492Y-53246299D01*
X1887304Y-53281678D01*
X1829289Y-53329289D01*
X1781678Y-53387304D01*
X1746299Y-53453492D01*
X1724513Y-53525311D01*
X1717157Y-53600000D01*
X1717157Y-55400000D01*
X1724513Y-55474689D01*
X1746299Y-55546508D01*
X1781678Y-55612696D01*
X1829289Y-55670711D01*
X1887304Y-55718322D01*
X1953492Y-55753701D01*
X2025311Y-55775487D01*
X2100000Y-55782843D01*
X3900000Y-55782843D01*
X3974689Y-55775487D01*
X4046508Y-55753701D01*
X4112696Y-55718322D01*
X4170711Y-55670711D01*
X4218322Y-55612696D01*
X4253701Y-55546508D01*
X4275487Y-55474689D01*
X4282843Y-55400000D01*
X4282843Y-53600000D01*
X4275487Y-53525311D01*
X4253701Y-53453492D01*
X4218322Y-53387304D01*
X4170711Y-53329289D01*
X4112696Y-53281678D01*
X4046508Y-53246299D01*
X3974689Y-53224513D01*
X3900000Y-53217157D01*
X3246034Y-53217157D01*
X3373654Y-53191772D01*
X3606781Y-53095207D01*
X3816590Y-52955018D01*
X3995018Y-52776590D01*
X4135207Y-52566781D01*
X4176952Y-52466000D01*
X6091071Y-52466000D01*
X6115917Y-52468447D01*
X6140763Y-52466000D01*
X6140771Y-52466000D01*
X6215110Y-52458678D01*
X6310492Y-52429745D01*
X6398396Y-52382759D01*
X6475444Y-52319527D01*
X6491293Y-52300215D01*
X6494001Y-52297507D01*
X6494000Y-58901499D01*
X6393358Y-59002141D01*
X6307887Y-59130058D01*
X6249013Y-59272191D01*
X6219000Y-59423078D01*
X6219000Y-59576922D01*
X6249013Y-59727809D01*
X6307887Y-59869942D01*
X6393358Y-59997859D01*
X6502141Y-60106642D01*
X6630058Y-60192113D01*
X6772191Y-60250987D01*
X6923078Y-60281000D01*
X7076922Y-60281000D01*
X7227809Y-60250987D01*
X7369942Y-60192113D01*
X7497859Y-60106642D01*
X7606642Y-59997859D01*
X7692113Y-59869942D01*
X7750987Y-59727809D01*
X7781000Y-59576922D01*
X7781000Y-59423078D01*
X7750987Y-59272191D01*
X7692113Y-59130058D01*
X7606642Y-59002141D01*
X7506000Y-58901499D01*
X7506000Y-52793500D01*
X9981657Y-52793500D01*
X9989013Y-52868189D01*
X10010799Y-52940008D01*
X10046178Y-53006196D01*
X10093789Y-53064211D01*
X10151804Y-53111822D01*
X10217992Y-53147201D01*
X10289811Y-53168987D01*
X10364500Y-53176343D01*
X11094750Y-53174500D01*
X11190000Y-53079250D01*
X11190000Y-51968000D01*
X10078750Y-51968000D01*
X9983500Y-52063250D01*
X9981657Y-52793500D01*
X7506000Y-52793500D01*
X7506000Y-52358510D01*
X8976010Y-50888500D01*
X9981657Y-50888500D01*
X9983500Y-51618750D01*
X10078750Y-51714000D01*
X11190000Y-51714000D01*
X11190000Y-50602750D01*
X11094750Y-50507500D01*
X10364500Y-50505657D01*
X10289811Y-50513013D01*
X10217992Y-50534799D01*
X10151804Y-50570178D01*
X10093789Y-50617789D01*
X10046178Y-50675804D01*
X10010799Y-50741992D01*
X9989013Y-50813811D01*
X9981657Y-50888500D01*
X8976010Y-50888500D01*
X12517702Y-47346808D01*
X12501322Y-47400808D01*
X12494000Y-47475147D01*
X12494000Y-47475154D01*
X12491553Y-47500000D01*
X12494000Y-47524846D01*
X12494000Y-50579865D01*
X12482196Y-50570178D01*
X12416008Y-50534799D01*
X12344189Y-50513013D01*
X12269500Y-50505657D01*
X11539250Y-50507500D01*
X11444000Y-50602750D01*
X11444000Y-51714000D01*
X11464000Y-51714000D01*
X11464000Y-51968000D01*
X11444000Y-51968000D01*
X11444000Y-53079250D01*
X11539250Y-53174500D01*
X12269500Y-53176343D01*
X12344189Y-53168987D01*
X12416008Y-53147201D01*
X12482196Y-53111822D01*
X12494000Y-53102135D01*
X12494000Y-55520270D01*
X12352797Y-55308943D01*
X12167057Y-55123203D01*
X11948649Y-54977268D01*
X11705968Y-54876746D01*
X11448338Y-54825500D01*
X11185662Y-54825500D01*
X10928032Y-54876746D01*
X10685351Y-54977268D01*
X10466943Y-55123203D01*
X10281203Y-55308943D01*
X10135268Y-55527351D01*
X10034746Y-55770032D01*
X9983500Y-56027662D01*
X9983500Y-56290338D01*
X10034746Y-56547968D01*
X10135268Y-56790649D01*
X10281203Y-57009057D01*
X10466943Y-57194797D01*
X10685351Y-57340732D01*
X10928032Y-57441254D01*
X11185662Y-57492500D01*
X11448338Y-57492500D01*
X11705968Y-57441254D01*
X11948649Y-57340732D01*
X12167057Y-57194797D01*
X12352797Y-57009057D01*
X12494000Y-56797730D01*
X12494001Y-66071133D01*
X12467585Y-66097549D01*
X12286903Y-66367958D01*
X12162447Y-66668421D01*
X12099000Y-66987391D01*
X12099000Y-67312609D01*
X12162447Y-67631579D01*
X12286903Y-67932042D01*
X12467585Y-68202451D01*
X12697549Y-68432415D01*
X12967958Y-68613097D01*
X13268421Y-68737553D01*
X13587391Y-68801000D01*
X13912609Y-68801000D01*
X14231579Y-68737553D01*
X14532042Y-68613097D01*
X14802451Y-68432415D01*
X15032415Y-68202451D01*
X15213097Y-67932042D01*
X15337553Y-67631579D01*
X15401000Y-67312609D01*
X15401000Y-66987391D01*
X15337553Y-66668421D01*
X15213097Y-66367958D01*
X15032415Y-66097549D01*
X14802451Y-65867585D01*
X14532042Y-65686903D01*
X14231579Y-65562447D01*
X13912609Y-65499000D01*
X13587391Y-65499000D01*
X13506000Y-65515190D01*
X13506000Y-64441879D01*
X14337726Y-64441879D01*
X14480478Y-64662860D01*
X14772821Y-64805348D01*
X15087344Y-64888064D01*
X15411962Y-64907831D01*
X15734198Y-64863888D01*
X16041670Y-64757924D01*
X16219522Y-64662860D01*
X16362274Y-64441879D01*
X15350000Y-63429605D01*
X14337726Y-64441879D01*
X13506000Y-64441879D01*
X13506000Y-63311962D01*
X13692169Y-63311962D01*
X13736112Y-63634198D01*
X13842076Y-63941670D01*
X13937140Y-64119522D01*
X14158121Y-64262274D01*
X15170395Y-63250000D01*
X15529605Y-63250000D01*
X16541879Y-64262274D01*
X16762860Y-64119522D01*
X16905348Y-63827179D01*
X16988064Y-63512656D01*
X17007831Y-63188038D01*
X16963888Y-62865802D01*
X16857924Y-62558330D01*
X16762860Y-62380478D01*
X16541879Y-62237726D01*
X15529605Y-63250000D01*
X15170395Y-63250000D01*
X14158121Y-62237726D01*
X13937140Y-62380478D01*
X13794652Y-62672821D01*
X13711936Y-62987344D01*
X13692169Y-63311962D01*
X13506000Y-63311962D01*
X13506000Y-62058121D01*
X14337726Y-62058121D01*
X15350000Y-63070395D01*
X16362274Y-62058121D01*
X16219522Y-61837140D01*
X15927179Y-61694652D01*
X15612656Y-61611936D01*
X15288038Y-61592169D01*
X14965802Y-61636112D01*
X14658330Y-61742076D01*
X14480478Y-61837140D01*
X14337726Y-62058121D01*
X13506000Y-62058121D01*
X13506000Y-59304889D01*
X20019000Y-59304889D01*
X20019000Y-59695111D01*
X20095129Y-60077836D01*
X20244461Y-60438355D01*
X20461257Y-60762814D01*
X20737186Y-61038743D01*
X21061645Y-61255539D01*
X21422164Y-61404871D01*
X21804889Y-61481000D01*
X22195111Y-61481000D01*
X22577836Y-61404871D01*
X22938355Y-61255539D01*
X23262814Y-61038743D01*
X23538743Y-60762814D01*
X23755539Y-60438355D01*
X23904871Y-60077836D01*
X23981000Y-59695111D01*
X23981000Y-59304889D01*
X23904871Y-58922164D01*
X23755539Y-58561645D01*
X23538743Y-58237186D01*
X23262814Y-57961257D01*
X22938355Y-57744461D01*
X22577836Y-57595129D01*
X22195111Y-57519000D01*
X21804889Y-57519000D01*
X21422164Y-57595129D01*
X21061645Y-57744461D01*
X20737186Y-57961257D01*
X20461257Y-58237186D01*
X20244461Y-58561645D01*
X20095129Y-58922164D01*
X20019000Y-59304889D01*
X13506000Y-59304889D01*
X13506000Y-55923078D01*
X13719000Y-55923078D01*
X13719000Y-56076922D01*
X13749013Y-56227809D01*
X13807887Y-56369942D01*
X13893358Y-56497859D01*
X14002141Y-56606642D01*
X14130058Y-56692113D01*
X14272191Y-56750987D01*
X14423078Y-56781000D01*
X14576922Y-56781000D01*
X14727809Y-56750987D01*
X14869942Y-56692113D01*
X14997859Y-56606642D01*
X15106642Y-56497859D01*
X15192113Y-56369942D01*
X15250987Y-56227809D01*
X15281000Y-56076922D01*
X15281000Y-56027662D01*
X17349500Y-56027662D01*
X17349500Y-56290338D01*
X17400746Y-56547968D01*
X17501268Y-56790649D01*
X17647203Y-57009057D01*
X17832943Y-57194797D01*
X18051351Y-57340732D01*
X18294032Y-57441254D01*
X18551662Y-57492500D01*
X18814338Y-57492500D01*
X19071968Y-57441254D01*
X19314649Y-57340732D01*
X19533057Y-57194797D01*
X19718797Y-57009057D01*
X19864732Y-56790649D01*
X19965254Y-56547968D01*
X20016500Y-56290338D01*
X20016500Y-56027662D01*
X19965254Y-55770032D01*
X19864732Y-55527351D01*
X19718797Y-55308943D01*
X19533057Y-55123203D01*
X19314649Y-54977268D01*
X19071968Y-54876746D01*
X18814338Y-54825500D01*
X18551662Y-54825500D01*
X18294032Y-54876746D01*
X18051351Y-54977268D01*
X17832943Y-55123203D01*
X17647203Y-55308943D01*
X17501268Y-55527351D01*
X17400746Y-55770032D01*
X17349500Y-56027662D01*
X15281000Y-56027662D01*
X15281000Y-55923078D01*
X15250987Y-55772191D01*
X15192113Y-55630058D01*
X15106642Y-55502141D01*
X15006000Y-55401499D01*
X15006000Y-52806346D01*
X17897259Y-52806346D01*
X18001686Y-52994812D01*
X18239875Y-53105559D01*
X18495093Y-53167711D01*
X18757533Y-53178876D01*
X19017107Y-53138629D01*
X19263842Y-53048514D01*
X19364314Y-52994812D01*
X19468741Y-52806346D01*
X18683000Y-52020605D01*
X17897259Y-52806346D01*
X15006000Y-52806346D01*
X15006000Y-52209591D01*
X15300058Y-51915533D01*
X17345124Y-51915533D01*
X17385371Y-52175107D01*
X17475486Y-52421842D01*
X17529188Y-52522314D01*
X17717654Y-52626741D01*
X18503395Y-51841000D01*
X18862605Y-51841000D01*
X19648346Y-52626741D01*
X19836812Y-52522314D01*
X19947559Y-52284125D01*
X20009711Y-52028907D01*
X20020876Y-51766467D01*
X19980629Y-51506893D01*
X19890514Y-51260158D01*
X19836812Y-51159686D01*
X19648346Y-51055259D01*
X18862605Y-51841000D01*
X18503395Y-51841000D01*
X17717654Y-51055259D01*
X17529188Y-51159686D01*
X17418441Y-51397875D01*
X17356289Y-51653093D01*
X17345124Y-51915533D01*
X15300058Y-51915533D01*
X16339937Y-50875654D01*
X17897259Y-50875654D01*
X18683000Y-51661395D01*
X19468741Y-50875654D01*
X19364314Y-50687188D01*
X19126125Y-50576441D01*
X18870907Y-50514289D01*
X18608467Y-50503124D01*
X18348893Y-50543371D01*
X18102158Y-50633486D01*
X18001686Y-50687188D01*
X17897259Y-50875654D01*
X16339937Y-50875654D01*
X18209592Y-49006000D01*
X20401499Y-49006000D01*
X20502141Y-49106642D01*
X20630058Y-49192113D01*
X20772191Y-49250987D01*
X20923078Y-49281000D01*
X21076922Y-49281000D01*
X21227809Y-49250987D01*
X21369942Y-49192113D01*
X21494000Y-49109220D01*
X21494001Y-52817144D01*
X21491553Y-52842000D01*
X21501322Y-52941192D01*
X21530255Y-53036574D01*
X21552127Y-53077492D01*
X21577242Y-53124479D01*
X21640474Y-53201527D01*
X21659781Y-53217372D01*
X24086792Y-55644383D01*
X24034746Y-55770032D01*
X23983500Y-56027662D01*
X23983500Y-56290338D01*
X24034746Y-56547968D01*
X24135268Y-56790649D01*
X24281203Y-57009057D01*
X24466943Y-57194797D01*
X24685351Y-57340732D01*
X24928032Y-57441254D01*
X25185662Y-57492500D01*
X25448338Y-57492500D01*
X25705968Y-57441254D01*
X25948649Y-57340732D01*
X26167057Y-57194797D01*
X26352797Y-57009057D01*
X26498732Y-56790649D01*
X26599254Y-56547968D01*
X26650500Y-56290338D01*
X26650500Y-56027662D01*
X26599254Y-55770032D01*
X26498732Y-55527351D01*
X26352797Y-55308943D01*
X26167057Y-55123203D01*
X25948649Y-54977268D01*
X25705968Y-54876746D01*
X25448338Y-54825500D01*
X25185662Y-54825500D01*
X24928032Y-54876746D01*
X24802383Y-54928792D01*
X22667091Y-52793500D01*
X23981657Y-52793500D01*
X23989013Y-52868189D01*
X24010799Y-52940008D01*
X24046178Y-53006196D01*
X24093789Y-53064211D01*
X24151804Y-53111822D01*
X24217992Y-53147201D01*
X24289811Y-53168987D01*
X24364500Y-53176343D01*
X25094750Y-53174500D01*
X25190000Y-53079250D01*
X25190000Y-51968000D01*
X25444000Y-51968000D01*
X25444000Y-53079250D01*
X25539250Y-53174500D01*
X26269500Y-53176343D01*
X26344189Y-53168987D01*
X26416008Y-53147201D01*
X26482196Y-53111822D01*
X26540211Y-53064211D01*
X26587822Y-53006196D01*
X26623201Y-52940008D01*
X26644987Y-52868189D01*
X26652343Y-52793500D01*
X26650500Y-52063250D01*
X26555250Y-51968000D01*
X25444000Y-51968000D01*
X25190000Y-51968000D01*
X24078750Y-51968000D01*
X23983500Y-52063250D01*
X23981657Y-52793500D01*
X22667091Y-52793500D01*
X22506000Y-52632409D01*
X22506000Y-50888500D01*
X23981657Y-50888500D01*
X23983500Y-51618750D01*
X24078750Y-51714000D01*
X25190000Y-51714000D01*
X25190000Y-50602750D01*
X25444000Y-50602750D01*
X25444000Y-51714000D01*
X26555250Y-51714000D01*
X26650500Y-51618750D01*
X26652343Y-50888500D01*
X26644987Y-50813811D01*
X26623201Y-50741992D01*
X26587822Y-50675804D01*
X26540211Y-50617789D01*
X26482196Y-50570178D01*
X26416008Y-50534799D01*
X26344189Y-50513013D01*
X26269500Y-50505657D01*
X25539250Y-50507500D01*
X25444000Y-50602750D01*
X25190000Y-50602750D01*
X25094750Y-50507500D01*
X24364500Y-50505657D01*
X24289811Y-50513013D01*
X24217992Y-50534799D01*
X24151804Y-50570178D01*
X24093789Y-50617789D01*
X24046178Y-50675804D01*
X24010799Y-50741992D01*
X23989013Y-50813811D01*
X23981657Y-50888500D01*
X22506000Y-50888500D01*
X22506000Y-48098501D01*
X22606642Y-47997859D01*
X22692113Y-47869942D01*
X22750987Y-47727809D01*
X22781000Y-47576922D01*
X22781000Y-47423078D01*
X22750987Y-47272191D01*
X22692113Y-47130058D01*
X22606642Y-47002141D01*
X22497859Y-46893358D01*
X22369942Y-46807887D01*
X22227809Y-46749013D01*
X22076922Y-46719000D01*
X21923078Y-46719000D01*
X21772191Y-46749013D01*
X21630058Y-46807887D01*
X21502141Y-46893358D01*
X21393358Y-47002141D01*
X21307887Y-47130058D01*
X21249013Y-47272191D01*
X21219000Y-47423078D01*
X21219000Y-47576922D01*
X21249013Y-47727809D01*
X21264007Y-47764007D01*
X21227809Y-47749013D01*
X21076922Y-47719000D01*
X20923078Y-47719000D01*
X20772191Y-47749013D01*
X20630058Y-47807887D01*
X20502141Y-47893358D01*
X20401499Y-47994000D01*
X18024845Y-47994000D01*
X17999999Y-47991553D01*
X17975153Y-47994000D01*
X17975146Y-47994000D01*
X17910694Y-48000348D01*
X17900806Y-48001322D01*
X17878607Y-48008056D01*
X17805425Y-48030255D01*
X17717521Y-48077241D01*
X17640473Y-48140473D01*
X17624628Y-48159780D01*
X14159781Y-51624628D01*
X14140474Y-51640473D01*
X14077242Y-51717521D01*
X14052127Y-51764508D01*
X14030255Y-51805426D01*
X14001322Y-51900808D01*
X13991553Y-52000000D01*
X13994001Y-52024856D01*
X13994000Y-55401499D01*
X13893358Y-55502141D01*
X13807887Y-55630058D01*
X13749013Y-55772191D01*
X13719000Y-55923078D01*
X13506000Y-55923078D01*
X13506000Y-47709591D01*
X23434592Y-37781000D01*
X23576922Y-37781000D01*
X23727809Y-37750987D01*
X23869942Y-37692113D01*
X23997859Y-37606642D01*
X24106642Y-37497859D01*
X24192113Y-37369942D01*
X24250987Y-37227809D01*
X24281000Y-37076922D01*
X24281000Y-36923078D01*
X24250987Y-36772191D01*
X24192113Y-36630058D01*
X24106642Y-36502141D01*
X23997859Y-36393358D01*
X23869942Y-36307887D01*
X23727809Y-36249013D01*
X23634131Y-36230380D01*
X24494001Y-35370510D01*
X24494001Y-42719000D01*
X24423078Y-42719000D01*
X24272191Y-42749013D01*
X24130058Y-42807887D01*
X24002141Y-42893358D01*
X23893358Y-43002141D01*
X23807887Y-43130058D01*
X23749013Y-43272191D01*
X23719000Y-43423078D01*
X23719000Y-43576922D01*
X23749013Y-43727809D01*
X23807887Y-43869942D01*
X23893358Y-43997859D01*
X24002141Y-44106642D01*
X24130058Y-44192113D01*
X24272191Y-44250987D01*
X24423078Y-44281000D01*
X24576922Y-44281000D01*
X24727809Y-44250987D01*
X24869942Y-44192113D01*
X24997859Y-44106642D01*
X25106642Y-43997859D01*
X25192113Y-43869942D01*
X25250000Y-43730192D01*
X25307887Y-43869942D01*
X25393358Y-43997859D01*
X25502141Y-44106642D01*
X25630058Y-44192113D01*
X25772191Y-44250987D01*
X25923078Y-44281000D01*
X26076922Y-44281000D01*
X26227809Y-44250987D01*
X26369942Y-44192113D01*
X26497859Y-44106642D01*
X26606642Y-43997859D01*
X26692113Y-43869942D01*
X26750000Y-43730192D01*
X26807887Y-43869942D01*
X26893358Y-43997859D01*
X27002141Y-44106642D01*
X27130058Y-44192113D01*
X27272191Y-44250987D01*
X27423078Y-44281000D01*
X27576922Y-44281000D01*
X27727809Y-44250987D01*
X27869942Y-44192113D01*
X27994001Y-44109220D01*
X27994000Y-58290408D01*
X21659781Y-64624628D01*
X21640474Y-64640473D01*
X21577242Y-64717521D01*
X21564397Y-64741553D01*
X21530255Y-64805426D01*
X21501322Y-64900808D01*
X21491553Y-65000000D01*
X21494001Y-65024856D01*
X21494000Y-79516222D01*
X21368351Y-79568268D01*
X21149943Y-79714203D01*
X20964203Y-79899943D01*
X20818268Y-80118351D01*
X20750000Y-80283164D01*
X20681732Y-80118351D01*
X20535797Y-79899943D01*
X20350057Y-79714203D01*
X20131649Y-79568268D01*
X19888968Y-79467746D01*
X19631338Y-79416500D01*
X19368662Y-79416500D01*
X19111032Y-79467746D01*
X18868351Y-79568268D01*
X18649943Y-79714203D01*
X18464203Y-79899943D01*
X18318268Y-80118351D01*
X18217746Y-80361032D01*
X18166500Y-80618662D01*
X18166500Y-80881338D01*
X18217746Y-81138968D01*
X18318268Y-81381649D01*
X18464203Y-81600057D01*
X18649943Y-81785797D01*
X18868351Y-81931732D01*
X19111032Y-82032254D01*
X19368662Y-82083500D01*
X19631338Y-82083500D01*
X19888968Y-82032254D01*
X20131649Y-81931732D01*
X20350057Y-81785797D01*
X20535797Y-81600057D01*
X20681732Y-81381649D01*
X20750000Y-81216836D01*
X20818268Y-81381649D01*
X20964203Y-81600057D01*
X21149943Y-81785797D01*
X21368351Y-81931732D01*
X21611032Y-82032254D01*
X21868662Y-82083500D01*
X22131338Y-82083500D01*
X22388968Y-82032254D01*
X22631649Y-81931732D01*
X22850057Y-81785797D01*
X22920508Y-81715346D01*
X23714259Y-81715346D01*
X23818686Y-81903812D01*
X24056875Y-82014559D01*
X24312093Y-82076711D01*
X24574533Y-82087876D01*
X24834107Y-82047629D01*
X25080842Y-81957514D01*
X25181314Y-81903812D01*
X25285741Y-81715346D01*
X24500000Y-80929605D01*
X23714259Y-81715346D01*
X22920508Y-81715346D01*
X23035797Y-81600057D01*
X23181732Y-81381649D01*
X23250450Y-81215748D01*
X23292486Y-81330842D01*
X23346188Y-81431314D01*
X23534654Y-81535741D01*
X24320395Y-80750000D01*
X24679605Y-80750000D01*
X25465346Y-81535741D01*
X25653812Y-81431314D01*
X25764559Y-81193125D01*
X25826711Y-80937907D01*
X25837876Y-80675467D01*
X25797629Y-80415893D01*
X25707514Y-80169158D01*
X25653812Y-80068686D01*
X25465346Y-79964259D01*
X24679605Y-80750000D01*
X24320395Y-80750000D01*
X23534654Y-79964259D01*
X23346188Y-80068686D01*
X23248335Y-80279144D01*
X23181732Y-80118351D01*
X23035797Y-79899943D01*
X22920508Y-79784654D01*
X23714259Y-79784654D01*
X24500000Y-80570395D01*
X25128516Y-79941879D01*
X27637726Y-79941879D01*
X27780478Y-80162860D01*
X28072821Y-80305348D01*
X28387344Y-80388064D01*
X28711962Y-80407831D01*
X29034198Y-80363888D01*
X29341670Y-80257924D01*
X29519522Y-80162860D01*
X29662274Y-79941879D01*
X29525284Y-79804889D01*
X38019000Y-79804889D01*
X38019000Y-80195111D01*
X38095129Y-80577836D01*
X38244461Y-80938355D01*
X38461257Y-81262814D01*
X38737186Y-81538743D01*
X39061645Y-81755539D01*
X39422164Y-81904871D01*
X39804889Y-81981000D01*
X40195111Y-81981000D01*
X40577836Y-81904871D01*
X40938355Y-81755539D01*
X41262814Y-81538743D01*
X41538743Y-81262814D01*
X41755539Y-80938355D01*
X41904871Y-80577836D01*
X41981000Y-80195111D01*
X41981000Y-79804889D01*
X41904871Y-79422164D01*
X41755539Y-79061645D01*
X41538743Y-78737186D01*
X41262814Y-78461257D01*
X40938355Y-78244461D01*
X40577836Y-78095129D01*
X40195111Y-78019000D01*
X39804889Y-78019000D01*
X39422164Y-78095129D01*
X39061645Y-78244461D01*
X38737186Y-78461257D01*
X38461257Y-78737186D01*
X38244461Y-79061645D01*
X38095129Y-79422164D01*
X38019000Y-79804889D01*
X29525284Y-79804889D01*
X28650000Y-78929605D01*
X27637726Y-79941879D01*
X25128516Y-79941879D01*
X25285741Y-79784654D01*
X25181314Y-79596188D01*
X24943125Y-79485441D01*
X24687907Y-79423289D01*
X24425467Y-79412124D01*
X24165893Y-79452371D01*
X23919158Y-79542486D01*
X23818686Y-79596188D01*
X23714259Y-79784654D01*
X22920508Y-79784654D01*
X22850057Y-79714203D01*
X22631649Y-79568268D01*
X22506000Y-79516222D01*
X22506000Y-78811962D01*
X26992169Y-78811962D01*
X27036112Y-79134198D01*
X27142076Y-79441670D01*
X27237140Y-79619522D01*
X27458121Y-79762274D01*
X28470395Y-78750000D01*
X28829605Y-78750000D01*
X29841879Y-79762274D01*
X30062860Y-79619522D01*
X30205348Y-79327179D01*
X30288064Y-79012656D01*
X30307831Y-78688038D01*
X30263888Y-78365802D01*
X30157924Y-78058330D01*
X30062860Y-77880478D01*
X29841879Y-77737726D01*
X28829605Y-78750000D01*
X28470395Y-78750000D01*
X27458121Y-77737726D01*
X27237140Y-77880478D01*
X27094652Y-78172821D01*
X27011936Y-78487344D01*
X26992169Y-78811962D01*
X22506000Y-78811962D01*
X22506000Y-77558121D01*
X27637726Y-77558121D01*
X28650000Y-78570395D01*
X29662274Y-77558121D01*
X29519522Y-77337140D01*
X29227179Y-77194652D01*
X28912656Y-77111936D01*
X28588038Y-77092169D01*
X28265802Y-77136112D01*
X27958330Y-77242076D01*
X27780478Y-77337140D01*
X27637726Y-77558121D01*
X22506000Y-77558121D01*
X22506000Y-65209591D01*
X25494001Y-62221591D01*
X25494000Y-65225154D01*
X25491553Y-65250000D01*
X25494000Y-65274846D01*
X25494000Y-65274853D01*
X25501322Y-65349192D01*
X25530255Y-65444574D01*
X25577241Y-65532479D01*
X25640473Y-65609527D01*
X25659785Y-65625376D01*
X30519791Y-70485383D01*
X30467746Y-70611032D01*
X30416500Y-70868662D01*
X30416500Y-71131338D01*
X30467746Y-71388968D01*
X30568268Y-71631649D01*
X30714203Y-71850057D01*
X30899943Y-72035797D01*
X31118351Y-72181732D01*
X31283164Y-72250000D01*
X31118351Y-72318268D01*
X30899943Y-72464203D01*
X30714203Y-72649943D01*
X30568268Y-72868351D01*
X30467746Y-73111032D01*
X30416500Y-73368662D01*
X30416500Y-73631338D01*
X30467746Y-73888968D01*
X30568268Y-74131649D01*
X30714203Y-74350057D01*
X30899943Y-74535797D01*
X31118351Y-74681732D01*
X31361032Y-74782254D01*
X31618662Y-74833500D01*
X31881338Y-74833500D01*
X32138968Y-74782254D01*
X32381649Y-74681732D01*
X32600057Y-74535797D01*
X32785797Y-74350057D01*
X32931732Y-74131649D01*
X33032254Y-73888968D01*
X33083500Y-73631338D01*
X33083500Y-73368662D01*
X33032254Y-73111032D01*
X32931732Y-72868351D01*
X32785797Y-72649943D01*
X32600057Y-72464203D01*
X32381649Y-72318268D01*
X32216836Y-72250000D01*
X32381649Y-72181732D01*
X32600057Y-72035797D01*
X32785797Y-71850057D01*
X32931732Y-71631649D01*
X33032254Y-71388968D01*
X33083500Y-71131338D01*
X33083500Y-70868662D01*
X33032254Y-70611032D01*
X32931732Y-70368351D01*
X32785797Y-70149943D01*
X32600057Y-69964203D01*
X32381649Y-69818268D01*
X32215748Y-69749550D01*
X32330842Y-69707514D01*
X32431314Y-69653812D01*
X32535741Y-69465346D01*
X31750000Y-68679605D01*
X31735858Y-68693748D01*
X31556253Y-68514143D01*
X31570395Y-68500000D01*
X31929605Y-68500000D01*
X32715346Y-69285741D01*
X32903812Y-69181314D01*
X33014559Y-68943125D01*
X33076711Y-68687907D01*
X33087876Y-68425467D01*
X33047629Y-68165893D01*
X32957514Y-67919158D01*
X32903812Y-67818686D01*
X32715346Y-67714259D01*
X31929605Y-68500000D01*
X31570395Y-68500000D01*
X30784654Y-67714259D01*
X30596188Y-67818686D01*
X30485441Y-68056875D01*
X30423289Y-68312093D01*
X30412124Y-68574533D01*
X30452371Y-68834107D01*
X30540215Y-69074623D01*
X29000246Y-67534654D01*
X30964259Y-67534654D01*
X31750000Y-68320395D01*
X32535741Y-67534654D01*
X32431314Y-67346188D01*
X32193125Y-67235441D01*
X31937907Y-67173289D01*
X31675467Y-67162124D01*
X31415893Y-67202371D01*
X31169158Y-67292486D01*
X31068686Y-67346188D01*
X30964259Y-67534654D01*
X29000246Y-67534654D01*
X26506000Y-65040409D01*
X26506000Y-64441879D01*
X27637726Y-64441879D01*
X27780478Y-64662860D01*
X28072821Y-64805348D01*
X28387344Y-64888064D01*
X28711962Y-64907831D01*
X29034198Y-64863888D01*
X29341670Y-64757924D01*
X29519522Y-64662860D01*
X29662274Y-64441879D01*
X28650000Y-63429605D01*
X27637726Y-64441879D01*
X26506000Y-64441879D01*
X26506000Y-63311962D01*
X26992169Y-63311962D01*
X27036112Y-63634198D01*
X27142076Y-63941670D01*
X27237140Y-64119522D01*
X27458121Y-64262274D01*
X28470395Y-63250000D01*
X28829605Y-63250000D01*
X29841879Y-64262274D01*
X30062860Y-64119522D01*
X30205348Y-63827179D01*
X30288064Y-63512656D01*
X30307831Y-63188038D01*
X30263888Y-62865802D01*
X30157924Y-62558330D01*
X30062860Y-62380478D01*
X29841879Y-62237726D01*
X28829605Y-63250000D01*
X28470395Y-63250000D01*
X27458121Y-62237726D01*
X27237140Y-62380478D01*
X27094652Y-62672821D01*
X27011936Y-62987344D01*
X26992169Y-63311962D01*
X26506000Y-63311962D01*
X26506000Y-62058121D01*
X27637726Y-62058121D01*
X28650000Y-63070395D01*
X29662274Y-62058121D01*
X29519522Y-61837140D01*
X29227179Y-61694652D01*
X28912656Y-61611936D01*
X28588038Y-61592169D01*
X28265802Y-61636112D01*
X27958330Y-61742076D01*
X27780478Y-61837140D01*
X27637726Y-62058121D01*
X26506000Y-62058121D01*
X26506000Y-61846001D01*
X29340220Y-59011782D01*
X29359527Y-58995937D01*
X29422759Y-58918889D01*
X29469745Y-58830985D01*
X29498678Y-58735603D01*
X29506000Y-58661264D01*
X29506000Y-58661263D01*
X29508448Y-58636410D01*
X29506000Y-58611556D01*
X29506000Y-56027662D01*
X31349500Y-56027662D01*
X31349500Y-56290338D01*
X31400746Y-56547968D01*
X31501268Y-56790649D01*
X31647203Y-57009057D01*
X31832943Y-57194797D01*
X32051351Y-57340732D01*
X32294032Y-57441254D01*
X32551662Y-57492500D01*
X32814338Y-57492500D01*
X33071968Y-57441254D01*
X33314649Y-57340732D01*
X33533057Y-57194797D01*
X33718797Y-57009057D01*
X33864732Y-56790649D01*
X33965254Y-56547968D01*
X34016500Y-56290338D01*
X34016500Y-56027662D01*
X33965254Y-55770032D01*
X33864732Y-55527351D01*
X33718797Y-55308943D01*
X33533057Y-55123203D01*
X33314649Y-54977268D01*
X33071968Y-54876746D01*
X32814338Y-54825500D01*
X32551662Y-54825500D01*
X32294032Y-54876746D01*
X32051351Y-54977268D01*
X31832943Y-55123203D01*
X31647203Y-55308943D01*
X31501268Y-55527351D01*
X31400746Y-55770032D01*
X31349500Y-56027662D01*
X29506000Y-56027662D01*
X29506000Y-52806346D01*
X31897259Y-52806346D01*
X32001686Y-52994812D01*
X32239875Y-53105559D01*
X32495093Y-53167711D01*
X32757533Y-53178876D01*
X33017107Y-53138629D01*
X33263842Y-53048514D01*
X33364314Y-52994812D01*
X33468741Y-52806346D01*
X32683000Y-52020605D01*
X31897259Y-52806346D01*
X29506000Y-52806346D01*
X29506000Y-51915533D01*
X31345124Y-51915533D01*
X31385371Y-52175107D01*
X31475486Y-52421842D01*
X31529188Y-52522314D01*
X31717654Y-52626741D01*
X32503395Y-51841000D01*
X32862605Y-51841000D01*
X33648346Y-52626741D01*
X33836812Y-52522314D01*
X33947559Y-52284125D01*
X34009711Y-52028907D01*
X34020876Y-51766467D01*
X33980629Y-51506893D01*
X33890514Y-51260158D01*
X33836812Y-51159686D01*
X33648346Y-51055259D01*
X32862605Y-51841000D01*
X32503395Y-51841000D01*
X31717654Y-51055259D01*
X31529188Y-51159686D01*
X31418441Y-51397875D01*
X31356289Y-51653093D01*
X31345124Y-51915533D01*
X29506000Y-51915533D01*
X29506000Y-50875654D01*
X31897259Y-50875654D01*
X32683000Y-51661395D01*
X33468741Y-50875654D01*
X33364314Y-50687188D01*
X33126125Y-50576441D01*
X32870907Y-50514289D01*
X32608467Y-50503124D01*
X32348893Y-50543371D01*
X32102158Y-50633486D01*
X32001686Y-50687188D01*
X31897259Y-50875654D01*
X29506000Y-50875654D01*
X29506000Y-43346001D01*
X32790236Y-40061766D01*
X32809537Y-40045926D01*
X32825377Y-40026625D01*
X32825380Y-40026622D01*
X32872768Y-39968879D01*
X32919755Y-39880975D01*
X32948688Y-39785593D01*
X32958458Y-39686400D01*
X32956010Y-39661546D01*
X32956008Y-33338454D01*
X32958456Y-33313598D01*
X32948687Y-33214406D01*
X32919754Y-33119024D01*
X32872767Y-33031120D01*
X32825379Y-32973377D01*
X32825375Y-32973373D01*
X32809535Y-32954072D01*
X32790234Y-32938232D01*
X30781000Y-30928999D01*
X30781000Y-30923078D01*
X30750987Y-30772191D01*
X30692113Y-30630058D01*
X30606642Y-30502141D01*
X30497859Y-30393358D01*
X30369942Y-30307887D01*
X30227809Y-30249013D01*
X30076922Y-30219000D01*
X29923078Y-30219000D01*
X29772191Y-30249013D01*
X29630058Y-30307887D01*
X29502141Y-30393358D01*
X29393358Y-30502141D01*
X29307887Y-30630058D01*
X29250000Y-30769808D01*
X29192113Y-30630058D01*
X29106642Y-30502141D01*
X28997859Y-30393358D01*
X28869942Y-30307887D01*
X28727809Y-30249013D01*
X28576922Y-30219000D01*
X28423078Y-30219000D01*
X28272191Y-30249013D01*
X28130058Y-30307887D01*
X28002141Y-30393358D01*
X27893358Y-30502141D01*
X27807887Y-30630058D01*
X27749013Y-30772191D01*
X27719000Y-30923078D01*
X27719000Y-31076922D01*
X27749013Y-31227809D01*
X27807887Y-31369942D01*
X27893358Y-31497859D01*
X28002141Y-31606642D01*
X28130058Y-31692113D01*
X28272191Y-31750987D01*
X28423078Y-31781000D01*
X28565409Y-31781000D01*
X29624628Y-32840220D01*
X29640473Y-32859527D01*
X29717521Y-32922759D01*
X29805425Y-32969745D01*
X29877315Y-32991552D01*
X29900806Y-32998678D01*
X29910694Y-32999652D01*
X29975146Y-33006000D01*
X29975153Y-33006000D01*
X29999999Y-33008447D01*
X30024845Y-33006000D01*
X30790409Y-33006000D01*
X31494001Y-33709593D01*
X31494000Y-39290408D01*
X28159781Y-42624628D01*
X28140474Y-42640473D01*
X28077242Y-42717521D01*
X28071743Y-42727809D01*
X28030255Y-42805426D01*
X28006000Y-42885386D01*
X28006000Y-40024845D01*
X28008447Y-39999999D01*
X28006000Y-39975153D01*
X28006000Y-39975146D01*
X27998678Y-39900807D01*
X27969745Y-39805425D01*
X27922759Y-39717521D01*
X27859527Y-39640473D01*
X27840220Y-39624628D01*
X26506000Y-38290409D01*
X26506000Y-38279784D01*
X27547775Y-38279784D01*
X27640211Y-38328736D01*
X27740421Y-38358714D01*
X27844554Y-38368565D01*
X27948608Y-38357912D01*
X28048584Y-38327164D01*
X28137225Y-38279784D01*
X29382775Y-38279784D01*
X29475211Y-38328736D01*
X29575421Y-38358714D01*
X29679554Y-38368565D01*
X29783608Y-38357912D01*
X29883584Y-38327164D01*
X29972225Y-38279784D01*
X29970748Y-38160775D01*
X29677500Y-37867527D01*
X29384252Y-38160775D01*
X29382775Y-38279784D01*
X28137225Y-38279784D01*
X28135748Y-38160775D01*
X27842500Y-37867527D01*
X27549252Y-38160775D01*
X27547775Y-38279784D01*
X26506000Y-38279784D01*
X26506000Y-37837054D01*
X27308935Y-37837054D01*
X27319588Y-37941108D01*
X27350336Y-38041084D01*
X27397716Y-38129725D01*
X27516725Y-38128248D01*
X27809973Y-37835000D01*
X27875027Y-37835000D01*
X28168275Y-38128248D01*
X28287284Y-38129725D01*
X28336236Y-38037289D01*
X28366214Y-37937079D01*
X28375676Y-37837054D01*
X29143935Y-37837054D01*
X29154588Y-37941108D01*
X29185336Y-38041084D01*
X29232716Y-38129725D01*
X29351725Y-38128248D01*
X29644973Y-37835000D01*
X29710027Y-37835000D01*
X30003275Y-38128248D01*
X30122284Y-38129725D01*
X30171236Y-38037289D01*
X30201214Y-37937079D01*
X30211065Y-37832946D01*
X30200412Y-37728892D01*
X30169664Y-37628916D01*
X30122284Y-37540275D01*
X30003275Y-37541752D01*
X29710027Y-37835000D01*
X29644973Y-37835000D01*
X29351725Y-37541752D01*
X29232716Y-37540275D01*
X29183764Y-37632711D01*
X29153786Y-37732921D01*
X29143935Y-37837054D01*
X28375676Y-37837054D01*
X28376065Y-37832946D01*
X28365412Y-37728892D01*
X28334664Y-37628916D01*
X28287284Y-37540275D01*
X28168275Y-37541752D01*
X27875027Y-37835000D01*
X27809973Y-37835000D01*
X27516725Y-37541752D01*
X27397716Y-37540275D01*
X27348764Y-37632711D01*
X27318786Y-37732921D01*
X27308935Y-37837054D01*
X26506000Y-37837054D01*
X26506000Y-37362284D01*
X26630275Y-37362284D01*
X26722711Y-37411236D01*
X26822921Y-37441214D01*
X26927054Y-37451065D01*
X27031108Y-37440412D01*
X27131084Y-37409664D01*
X27167468Y-37390216D01*
X27547775Y-37390216D01*
X27549252Y-37509225D01*
X27842500Y-37802473D01*
X28135748Y-37509225D01*
X28137225Y-37390216D01*
X28084482Y-37362284D01*
X28465275Y-37362284D01*
X28557711Y-37411236D01*
X28657921Y-37441214D01*
X28762054Y-37451065D01*
X28866108Y-37440412D01*
X28966084Y-37409664D01*
X29002468Y-37390216D01*
X29382775Y-37390216D01*
X29384252Y-37509225D01*
X29677500Y-37802473D01*
X29970748Y-37509225D01*
X29972225Y-37390216D01*
X29919482Y-37362284D01*
X30300275Y-37362284D01*
X30392711Y-37411236D01*
X30492921Y-37441214D01*
X30597054Y-37451065D01*
X30701108Y-37440412D01*
X30801084Y-37409664D01*
X30889725Y-37362284D01*
X30888248Y-37243275D01*
X30595000Y-36950027D01*
X30301752Y-37243275D01*
X30300275Y-37362284D01*
X29919482Y-37362284D01*
X29879789Y-37341264D01*
X29779579Y-37311286D01*
X29675446Y-37301435D01*
X29571392Y-37312088D01*
X29471416Y-37342836D01*
X29382775Y-37390216D01*
X29002468Y-37390216D01*
X29054725Y-37362284D01*
X29053248Y-37243275D01*
X28760000Y-36950027D01*
X28466752Y-37243275D01*
X28465275Y-37362284D01*
X28084482Y-37362284D01*
X28044789Y-37341264D01*
X27944579Y-37311286D01*
X27840446Y-37301435D01*
X27736392Y-37312088D01*
X27636416Y-37342836D01*
X27547775Y-37390216D01*
X27167468Y-37390216D01*
X27219725Y-37362284D01*
X27218248Y-37243275D01*
X26925000Y-36950027D01*
X26631752Y-37243275D01*
X26630275Y-37362284D01*
X26506000Y-37362284D01*
X26506000Y-37211905D01*
X26599225Y-37210748D01*
X26892473Y-36917500D01*
X26957527Y-36917500D01*
X27250775Y-37210748D01*
X27369784Y-37212225D01*
X27418736Y-37119789D01*
X27448714Y-37019579D01*
X27458176Y-36919554D01*
X28226435Y-36919554D01*
X28237088Y-37023608D01*
X28267836Y-37123584D01*
X28315216Y-37212225D01*
X28434225Y-37210748D01*
X28727473Y-36917500D01*
X28792527Y-36917500D01*
X29085775Y-37210748D01*
X29204784Y-37212225D01*
X29253736Y-37119789D01*
X29283714Y-37019579D01*
X29293176Y-36919554D01*
X30061435Y-36919554D01*
X30072088Y-37023608D01*
X30102836Y-37123584D01*
X30150216Y-37212225D01*
X30269225Y-37210748D01*
X30562473Y-36917500D01*
X30627527Y-36917500D01*
X30920775Y-37210748D01*
X31039784Y-37212225D01*
X31088736Y-37119789D01*
X31118714Y-37019579D01*
X31128565Y-36915446D01*
X31117912Y-36811392D01*
X31087164Y-36711416D01*
X31039784Y-36622775D01*
X30920775Y-36624252D01*
X30627527Y-36917500D01*
X30562473Y-36917500D01*
X30269225Y-36624252D01*
X30150216Y-36622775D01*
X30101264Y-36715211D01*
X30071286Y-36815421D01*
X30061435Y-36919554D01*
X29293176Y-36919554D01*
X29293565Y-36915446D01*
X29282912Y-36811392D01*
X29252164Y-36711416D01*
X29204784Y-36622775D01*
X29085775Y-36624252D01*
X28792527Y-36917500D01*
X28727473Y-36917500D01*
X28434225Y-36624252D01*
X28315216Y-36622775D01*
X28266264Y-36715211D01*
X28236286Y-36815421D01*
X28226435Y-36919554D01*
X27458176Y-36919554D01*
X27458565Y-36915446D01*
X27447912Y-36811392D01*
X27417164Y-36711416D01*
X27369784Y-36622775D01*
X27250775Y-36624252D01*
X26957527Y-36917500D01*
X26892473Y-36917500D01*
X26599225Y-36624252D01*
X26506000Y-36623095D01*
X26506000Y-36472716D01*
X26630275Y-36472716D01*
X26631752Y-36591725D01*
X26925000Y-36884973D01*
X27218248Y-36591725D01*
X27219725Y-36472716D01*
X27166982Y-36444784D01*
X27547775Y-36444784D01*
X27640211Y-36493736D01*
X27740421Y-36523714D01*
X27844554Y-36533565D01*
X27948608Y-36522912D01*
X28048584Y-36492164D01*
X28084968Y-36472716D01*
X28465275Y-36472716D01*
X28466752Y-36591725D01*
X28760000Y-36884973D01*
X29053248Y-36591725D01*
X29054725Y-36472716D01*
X29001982Y-36444784D01*
X29382775Y-36444784D01*
X29475211Y-36493736D01*
X29575421Y-36523714D01*
X29679554Y-36533565D01*
X29783608Y-36522912D01*
X29883584Y-36492164D01*
X29919968Y-36472716D01*
X30300275Y-36472716D01*
X30301752Y-36591725D01*
X30595000Y-36884973D01*
X30888248Y-36591725D01*
X30889725Y-36472716D01*
X30797289Y-36423764D01*
X30697079Y-36393786D01*
X30592946Y-36383935D01*
X30488892Y-36394588D01*
X30388916Y-36425336D01*
X30300275Y-36472716D01*
X29919968Y-36472716D01*
X29972225Y-36444784D01*
X29970748Y-36325775D01*
X29677500Y-36032527D01*
X29384252Y-36325775D01*
X29382775Y-36444784D01*
X29001982Y-36444784D01*
X28962289Y-36423764D01*
X28862079Y-36393786D01*
X28757946Y-36383935D01*
X28653892Y-36394588D01*
X28553916Y-36425336D01*
X28465275Y-36472716D01*
X28084968Y-36472716D01*
X28137225Y-36444784D01*
X28135748Y-36325775D01*
X27842500Y-36032527D01*
X27549252Y-36325775D01*
X27547775Y-36444784D01*
X27166982Y-36444784D01*
X27127289Y-36423764D01*
X27027079Y-36393786D01*
X26922946Y-36383935D01*
X26818892Y-36394588D01*
X26718916Y-36425336D01*
X26630275Y-36472716D01*
X26506000Y-36472716D01*
X26506000Y-36002054D01*
X27308935Y-36002054D01*
X27319588Y-36106108D01*
X27350336Y-36206084D01*
X27397716Y-36294725D01*
X27516725Y-36293248D01*
X27809973Y-36000000D01*
X27875027Y-36000000D01*
X28168275Y-36293248D01*
X28287284Y-36294725D01*
X28336236Y-36202289D01*
X28366214Y-36102079D01*
X28375676Y-36002054D01*
X29143935Y-36002054D01*
X29154588Y-36106108D01*
X29185336Y-36206084D01*
X29232716Y-36294725D01*
X29351725Y-36293248D01*
X29644973Y-36000000D01*
X29710027Y-36000000D01*
X30003275Y-36293248D01*
X30122284Y-36294725D01*
X30171236Y-36202289D01*
X30201214Y-36102079D01*
X30211065Y-35997946D01*
X30200412Y-35893892D01*
X30169664Y-35793916D01*
X30122284Y-35705275D01*
X30003275Y-35706752D01*
X29710027Y-36000000D01*
X29644973Y-36000000D01*
X29351725Y-35706752D01*
X29232716Y-35705275D01*
X29183764Y-35797711D01*
X29153786Y-35897921D01*
X29143935Y-36002054D01*
X28375676Y-36002054D01*
X28376065Y-35997946D01*
X28365412Y-35893892D01*
X28334664Y-35793916D01*
X28287284Y-35705275D01*
X28168275Y-35706752D01*
X27875027Y-36000000D01*
X27809973Y-36000000D01*
X27516725Y-35706752D01*
X27397716Y-35705275D01*
X27348764Y-35797711D01*
X27318786Y-35897921D01*
X27308935Y-36002054D01*
X26506000Y-36002054D01*
X26506000Y-35527284D01*
X26630275Y-35527284D01*
X26722711Y-35576236D01*
X26822921Y-35606214D01*
X26927054Y-35616065D01*
X27031108Y-35605412D01*
X27131084Y-35574664D01*
X27167468Y-35555216D01*
X27547775Y-35555216D01*
X27549252Y-35674225D01*
X27842500Y-35967473D01*
X28135748Y-35674225D01*
X28137225Y-35555216D01*
X28084482Y-35527284D01*
X28465275Y-35527284D01*
X28557711Y-35576236D01*
X28657921Y-35606214D01*
X28762054Y-35616065D01*
X28866108Y-35605412D01*
X28966084Y-35574664D01*
X29002468Y-35555216D01*
X29382775Y-35555216D01*
X29384252Y-35674225D01*
X29677500Y-35967473D01*
X29970748Y-35674225D01*
X29972225Y-35555216D01*
X29919482Y-35527284D01*
X30300275Y-35527284D01*
X30392711Y-35576236D01*
X30492921Y-35606214D01*
X30597054Y-35616065D01*
X30701108Y-35605412D01*
X30801084Y-35574664D01*
X30889725Y-35527284D01*
X30888248Y-35408275D01*
X30595000Y-35115027D01*
X30301752Y-35408275D01*
X30300275Y-35527284D01*
X29919482Y-35527284D01*
X29879789Y-35506264D01*
X29779579Y-35476286D01*
X29675446Y-35466435D01*
X29571392Y-35477088D01*
X29471416Y-35507836D01*
X29382775Y-35555216D01*
X29002468Y-35555216D01*
X29054725Y-35527284D01*
X29053248Y-35408275D01*
X28760000Y-35115027D01*
X28466752Y-35408275D01*
X28465275Y-35527284D01*
X28084482Y-35527284D01*
X28044789Y-35506264D01*
X27944579Y-35476286D01*
X27840446Y-35466435D01*
X27736392Y-35477088D01*
X27636416Y-35507836D01*
X27547775Y-35555216D01*
X27167468Y-35555216D01*
X27219725Y-35527284D01*
X27218248Y-35408275D01*
X26925000Y-35115027D01*
X26631752Y-35408275D01*
X26630275Y-35527284D01*
X26506000Y-35527284D01*
X26506000Y-35376905D01*
X26599225Y-35375748D01*
X26892473Y-35082500D01*
X26957527Y-35082500D01*
X27250775Y-35375748D01*
X27369784Y-35377225D01*
X27418736Y-35284789D01*
X27448714Y-35184579D01*
X27458176Y-35084554D01*
X28226435Y-35084554D01*
X28237088Y-35188608D01*
X28267836Y-35288584D01*
X28315216Y-35377225D01*
X28434225Y-35375748D01*
X28727473Y-35082500D01*
X28792527Y-35082500D01*
X29085775Y-35375748D01*
X29204784Y-35377225D01*
X29253736Y-35284789D01*
X29283714Y-35184579D01*
X29293176Y-35084554D01*
X30061435Y-35084554D01*
X30072088Y-35188608D01*
X30102836Y-35288584D01*
X30150216Y-35377225D01*
X30269225Y-35375748D01*
X30562473Y-35082500D01*
X30627527Y-35082500D01*
X30920775Y-35375748D01*
X31039784Y-35377225D01*
X31088736Y-35284789D01*
X31118714Y-35184579D01*
X31128565Y-35080446D01*
X31117912Y-34976392D01*
X31087164Y-34876416D01*
X31039784Y-34787775D01*
X30920775Y-34789252D01*
X30627527Y-35082500D01*
X30562473Y-35082500D01*
X30269225Y-34789252D01*
X30150216Y-34787775D01*
X30101264Y-34880211D01*
X30071286Y-34980421D01*
X30061435Y-35084554D01*
X29293176Y-35084554D01*
X29293565Y-35080446D01*
X29282912Y-34976392D01*
X29252164Y-34876416D01*
X29204784Y-34787775D01*
X29085775Y-34789252D01*
X28792527Y-35082500D01*
X28727473Y-35082500D01*
X28434225Y-34789252D01*
X28315216Y-34787775D01*
X28266264Y-34880211D01*
X28236286Y-34980421D01*
X28226435Y-35084554D01*
X27458176Y-35084554D01*
X27458565Y-35080446D01*
X27447912Y-34976392D01*
X27417164Y-34876416D01*
X27369784Y-34787775D01*
X27250775Y-34789252D01*
X26957527Y-35082500D01*
X26892473Y-35082500D01*
X26599225Y-34789252D01*
X26506000Y-34788095D01*
X26506000Y-34637716D01*
X26630275Y-34637716D01*
X26631752Y-34756725D01*
X26925000Y-35049973D01*
X27218248Y-34756725D01*
X27219725Y-34637716D01*
X27166982Y-34609784D01*
X27547775Y-34609784D01*
X27640211Y-34658736D01*
X27740421Y-34688714D01*
X27844554Y-34698565D01*
X27948608Y-34687912D01*
X28048584Y-34657164D01*
X28084968Y-34637716D01*
X28465275Y-34637716D01*
X28466752Y-34756725D01*
X28760000Y-35049973D01*
X29053248Y-34756725D01*
X29054725Y-34637716D01*
X29001982Y-34609784D01*
X29382775Y-34609784D01*
X29475211Y-34658736D01*
X29575421Y-34688714D01*
X29679554Y-34698565D01*
X29783608Y-34687912D01*
X29883584Y-34657164D01*
X29919968Y-34637716D01*
X30300275Y-34637716D01*
X30301752Y-34756725D01*
X30595000Y-35049973D01*
X30888248Y-34756725D01*
X30889725Y-34637716D01*
X30797289Y-34588764D01*
X30697079Y-34558786D01*
X30592946Y-34548935D01*
X30488892Y-34559588D01*
X30388916Y-34590336D01*
X30300275Y-34637716D01*
X29919968Y-34637716D01*
X29972225Y-34609784D01*
X29970748Y-34490775D01*
X29677500Y-34197527D01*
X29384252Y-34490775D01*
X29382775Y-34609784D01*
X29001982Y-34609784D01*
X28962289Y-34588764D01*
X28862079Y-34558786D01*
X28757946Y-34548935D01*
X28653892Y-34559588D01*
X28553916Y-34590336D01*
X28465275Y-34637716D01*
X28084968Y-34637716D01*
X28137225Y-34609784D01*
X28135748Y-34490775D01*
X27842500Y-34197527D01*
X27549252Y-34490775D01*
X27547775Y-34609784D01*
X27166982Y-34609784D01*
X27127289Y-34588764D01*
X27027079Y-34558786D01*
X26922946Y-34548935D01*
X26818892Y-34559588D01*
X26718916Y-34590336D01*
X26630275Y-34637716D01*
X26506000Y-34637716D01*
X26506000Y-34167054D01*
X27308935Y-34167054D01*
X27319588Y-34271108D01*
X27350336Y-34371084D01*
X27397716Y-34459725D01*
X27516725Y-34458248D01*
X27809973Y-34165000D01*
X27875027Y-34165000D01*
X28168275Y-34458248D01*
X28287284Y-34459725D01*
X28336236Y-34367289D01*
X28366214Y-34267079D01*
X28375676Y-34167054D01*
X29143935Y-34167054D01*
X29154588Y-34271108D01*
X29185336Y-34371084D01*
X29232716Y-34459725D01*
X29351725Y-34458248D01*
X29644973Y-34165000D01*
X29710027Y-34165000D01*
X30003275Y-34458248D01*
X30122284Y-34459725D01*
X30171236Y-34367289D01*
X30201214Y-34267079D01*
X30211065Y-34162946D01*
X30200412Y-34058892D01*
X30169664Y-33958916D01*
X30122284Y-33870275D01*
X30003275Y-33871752D01*
X29710027Y-34165000D01*
X29644973Y-34165000D01*
X29351725Y-33871752D01*
X29232716Y-33870275D01*
X29183764Y-33962711D01*
X29153786Y-34062921D01*
X29143935Y-34167054D01*
X28375676Y-34167054D01*
X28376065Y-34162946D01*
X28365412Y-34058892D01*
X28334664Y-33958916D01*
X28287284Y-33870275D01*
X28168275Y-33871752D01*
X27875027Y-34165000D01*
X27809973Y-34165000D01*
X27516725Y-33871752D01*
X27397716Y-33870275D01*
X27348764Y-33962711D01*
X27318786Y-34062921D01*
X27308935Y-34167054D01*
X26506000Y-34167054D01*
X26506000Y-33720216D01*
X27547775Y-33720216D01*
X27549252Y-33839225D01*
X27842500Y-34132473D01*
X28135748Y-33839225D01*
X28137225Y-33720216D01*
X29382775Y-33720216D01*
X29384252Y-33839225D01*
X29677500Y-34132473D01*
X29970748Y-33839225D01*
X29972225Y-33720216D01*
X29879789Y-33671264D01*
X29779579Y-33641286D01*
X29675446Y-33631435D01*
X29571392Y-33642088D01*
X29471416Y-33672836D01*
X29382775Y-33720216D01*
X28137225Y-33720216D01*
X28044789Y-33671264D01*
X27944579Y-33641286D01*
X27840446Y-33631435D01*
X27736392Y-33642088D01*
X27636416Y-33672836D01*
X27547775Y-33720216D01*
X26506000Y-33720216D01*
X26506000Y-25451843D01*
X26508447Y-25426997D01*
X26506000Y-25402151D01*
X26506000Y-25402144D01*
X26498678Y-25327805D01*
X26469745Y-25232423D01*
X26422759Y-25144519D01*
X26359527Y-25067471D01*
X26340220Y-25051626D01*
X24268347Y-22979754D01*
X24268347Y-22910425D01*
X24238334Y-22759538D01*
X24179460Y-22617405D01*
X24093989Y-22489488D01*
X23985206Y-22380705D01*
X23857289Y-22295234D01*
X23715156Y-22236360D01*
X23564269Y-22206347D01*
X23410425Y-22206347D01*
X23259538Y-22236360D01*
X23253887Y-22238701D01*
X23263640Y-22215156D01*
X23293653Y-22064269D01*
X23293653Y-21910425D01*
X23263640Y-21759538D01*
X23204766Y-21617405D01*
X23119295Y-21489488D01*
X23010512Y-21380705D01*
X22882595Y-21295234D01*
X22740462Y-21236360D01*
X22589575Y-21206347D01*
X22435731Y-21206347D01*
X22284844Y-21236360D01*
X22142711Y-21295234D01*
X22014794Y-21380705D01*
X21906011Y-21489488D01*
X21820540Y-21617405D01*
X21761666Y-21759538D01*
X21731653Y-21910425D01*
X21731653Y-22064269D01*
X21761666Y-22215156D01*
X21820540Y-22357289D01*
X21906011Y-22485206D01*
X22006653Y-22585848D01*
X22006654Y-23889369D01*
X20211384Y-22094100D01*
X20195535Y-22074788D01*
X20118487Y-22011556D01*
X20030583Y-21964570D01*
X19935201Y-21935637D01*
X19860862Y-21928315D01*
X19860854Y-21928315D01*
X19836008Y-21925868D01*
X19811162Y-21928315D01*
X16209592Y-21928315D01*
X9941061Y-15659785D01*
X9925212Y-15640473D01*
X9848164Y-15577241D01*
X9760260Y-15530255D01*
X9664878Y-15501322D01*
X9599371Y-15494870D01*
X9497859Y-15393358D01*
X9369942Y-15307887D01*
X9227809Y-15249013D01*
X9076922Y-15219000D01*
X8923078Y-15219000D01*
X8772191Y-15249013D01*
X8630058Y-15307887D01*
X8502141Y-15393358D01*
X8393358Y-15502141D01*
X8307887Y-15630058D01*
X8249013Y-15772191D01*
X8219000Y-15923078D01*
X8219000Y-16076922D01*
X8249013Y-16227809D01*
X8307887Y-16369942D01*
X8393358Y-16497859D01*
X8494001Y-16598502D01*
X8494001Y-16790407D01*
X4790409Y-20494000D01*
X4232843Y-20494000D01*
X4232843Y-20150000D01*
X4225487Y-20075311D01*
X4203701Y-20003492D01*
X4168322Y-19937304D01*
X4120711Y-19879289D01*
X4062696Y-19831678D01*
X3996508Y-19796299D01*
X3924689Y-19774513D01*
X3850000Y-19767157D01*
X2150000Y-19767157D01*
X2075311Y-19774513D01*
X2003492Y-19796299D01*
X1937304Y-19831678D01*
X1879289Y-19879289D01*
X1831678Y-19937304D01*
X1796299Y-20003492D01*
X1774513Y-20075311D01*
X1767157Y-20150000D01*
X1767157Y-21850000D01*
X1774513Y-21924689D01*
X1796299Y-21996508D01*
X1831678Y-22062696D01*
X1879289Y-22120711D01*
X1937304Y-22168322D01*
X2003492Y-22203701D01*
X2075311Y-22225487D01*
X2150000Y-22232843D01*
X3850000Y-22232843D01*
X3924689Y-22225487D01*
X3996508Y-22203701D01*
X4062696Y-22168322D01*
X4120711Y-22120711D01*
X4168322Y-22062696D01*
X4203701Y-21996508D01*
X4225487Y-21924689D01*
X4232843Y-21850000D01*
X4232843Y-21506000D01*
X4975154Y-21506000D01*
X5000000Y-21508447D01*
X5024846Y-21506000D01*
X5024854Y-21506000D01*
X5099193Y-21498678D01*
X5194575Y-21469745D01*
X5282479Y-21422759D01*
X5359527Y-21359527D01*
X5375376Y-21340215D01*
X9340222Y-17375370D01*
X9359527Y-17359527D01*
X9422759Y-17282479D01*
X9469745Y-17194575D01*
X9489187Y-17130481D01*
X9498678Y-17099194D01*
X9499652Y-17089306D01*
X9506000Y-17024854D01*
X9506000Y-17024847D01*
X9508447Y-17000001D01*
X9506000Y-16975155D01*
X9506000Y-16655906D01*
X11069094Y-18219000D01*
X10923078Y-18219000D01*
X10772191Y-18249013D01*
X10630058Y-18307887D01*
X10502141Y-18393358D01*
X10393358Y-18502141D01*
X10307887Y-18630058D01*
X10249013Y-18772191D01*
X10219000Y-18923078D01*
X10219000Y-19065408D01*
X5790409Y-23494000D01*
X4232843Y-23494000D01*
X4232843Y-23150000D01*
X4225487Y-23075311D01*
X4203701Y-23003492D01*
X4168322Y-22937304D01*
X4120711Y-22879289D01*
X4062696Y-22831678D01*
X3996508Y-22796299D01*
X3924689Y-22774513D01*
X3850000Y-22767157D01*
X2150000Y-22767157D01*
X2075311Y-22774513D01*
X2003492Y-22796299D01*
X1937304Y-22831678D01*
X1879289Y-22879289D01*
X1831678Y-22937304D01*
X1796299Y-23003492D01*
X1774513Y-23075311D01*
X1767157Y-23150000D01*
X1767157Y-24850000D01*
X1774513Y-24924689D01*
X1796299Y-24996508D01*
X1831678Y-25062696D01*
X1879289Y-25120711D01*
X1937304Y-25168322D01*
X2003492Y-25203701D01*
X2075311Y-25225487D01*
X2150000Y-25232843D01*
X3850000Y-25232843D01*
X3924689Y-25225487D01*
X3996508Y-25203701D01*
X4062696Y-25168322D01*
X4120711Y-25120711D01*
X4168322Y-25062696D01*
X4203701Y-24996508D01*
X4225487Y-24924689D01*
X4232843Y-24850000D01*
X4232843Y-24506000D01*
X5790409Y-24506000D01*
X6219000Y-24934592D01*
X6219000Y-25076922D01*
X6249013Y-25227809D01*
X6307887Y-25369942D01*
X6393358Y-25497859D01*
X6502141Y-25606642D01*
X6503948Y-25607849D01*
X6530255Y-25694574D01*
X6577241Y-25782479D01*
X6640473Y-25859527D01*
X6659785Y-25875376D01*
X8219000Y-27434592D01*
X8219000Y-27576922D01*
X8249013Y-27727809D01*
X8307887Y-27869942D01*
X8393358Y-27997859D01*
X8502141Y-28106642D01*
X8630058Y-28192113D01*
X8772191Y-28250987D01*
X8923078Y-28281000D01*
X9076922Y-28281000D01*
X9227809Y-28250987D01*
X9369942Y-28192113D01*
X9497859Y-28106642D01*
X9606642Y-27997859D01*
X9692113Y-27869942D01*
X9750987Y-27727809D01*
X9781000Y-27576922D01*
X9781000Y-27423078D01*
X9750987Y-27272191D01*
X9692113Y-27130058D01*
X9606642Y-27002141D01*
X9497859Y-26893358D01*
X9369942Y-26807887D01*
X9227809Y-26749013D01*
X9076922Y-26719000D01*
X8934592Y-26719000D01*
X7649423Y-25433832D01*
X7692113Y-25369942D01*
X7750987Y-25227809D01*
X7781000Y-25076922D01*
X7781000Y-24923078D01*
X7750987Y-24772191D01*
X7692113Y-24630058D01*
X7606642Y-24502141D01*
X7497859Y-24393358D01*
X7369942Y-24307887D01*
X7227809Y-24249013D01*
X7076922Y-24219000D01*
X6934592Y-24219000D01*
X6715591Y-24000000D01*
X10934592Y-19781000D01*
X11076922Y-19781000D01*
X11227809Y-19750987D01*
X11369942Y-19692113D01*
X11497859Y-19606642D01*
X11606642Y-19497859D01*
X11692113Y-19369942D01*
X11750987Y-19227809D01*
X11781000Y-19076922D01*
X11781000Y-18930906D01*
X15624628Y-22774535D01*
X15640473Y-22793842D01*
X15717521Y-22857074D01*
X15797135Y-22899629D01*
X15805425Y-22904060D01*
X15900807Y-22932993D01*
X16000000Y-22942763D01*
X16024854Y-22940315D01*
X19626417Y-22940315D01*
X22688417Y-26002316D01*
X22688417Y-26144646D01*
X22718430Y-26295533D01*
X22777304Y-26437666D01*
X22862775Y-26565583D01*
X22971558Y-26674366D01*
X23099475Y-26759837D01*
X23241608Y-26818711D01*
X23392495Y-26848724D01*
X23546339Y-26848724D01*
X23697226Y-26818711D01*
X23839359Y-26759837D01*
X23967276Y-26674366D01*
X24076059Y-26565583D01*
X24156540Y-26445134D01*
X24494000Y-26782594D01*
X24494000Y-29747261D01*
X24351922Y-29719000D01*
X24198078Y-29719000D01*
X24047191Y-29749013D01*
X23905058Y-29807887D01*
X23777141Y-29893358D01*
X23668358Y-30002141D01*
X23582887Y-30130058D01*
X23524013Y-30272191D01*
X23494000Y-30423078D01*
X23494000Y-30576922D01*
X23522261Y-30719000D01*
X23423078Y-30719000D01*
X23272191Y-30749013D01*
X23130058Y-30807887D01*
X23002141Y-30893358D01*
X22893358Y-31002141D01*
X22807887Y-31130058D01*
X22749013Y-31272191D01*
X22719000Y-31423078D01*
X22719000Y-31565408D01*
X22330409Y-31954000D01*
X4176952Y-31954000D01*
X4135207Y-31853219D01*
X3995018Y-31643410D01*
X3816590Y-31464982D01*
X3606781Y-31324793D01*
X3373654Y-31228228D01*
X3126167Y-31179000D01*
X2873833Y-31179000D01*
X2626346Y-31228228D01*
X2393219Y-31324793D01*
X2183410Y-31464982D01*
X2004982Y-31643410D01*
X1864793Y-31853219D01*
X1768228Y-32086346D01*
X1719000Y-32333833D01*
X1719000Y-32586167D01*
X1768228Y-32833654D01*
X1864793Y-33066781D01*
X2004982Y-33276590D01*
X2183410Y-33455018D01*
X2393219Y-33595207D01*
X2626346Y-33691772D01*
X2753966Y-33717157D01*
X2100000Y-33717157D01*
X2025311Y-33724513D01*
X1953492Y-33746299D01*
X1887304Y-33781678D01*
X1829289Y-33829289D01*
X1781678Y-33887304D01*
X1746299Y-33953492D01*
X1724513Y-34025311D01*
X1717157Y-34100000D01*
X406000Y-34100000D01*
X406000Y-26856980D01*
X1810511Y-26856980D01*
X1834866Y-26937288D01*
X1934761Y-27156961D01*
X2075592Y-27352924D01*
X2251948Y-27517647D01*
X2457051Y-27644799D01*
X2683019Y-27729495D01*
X2873000Y-27669187D01*
X2873000Y-26667000D01*
X3127000Y-26667000D01*
X3127000Y-27669187D01*
X3316981Y-27729495D01*
X3542949Y-27644799D01*
X3748052Y-27517647D01*
X3924408Y-27352924D01*
X4065239Y-27156961D01*
X4165134Y-26937288D01*
X4189489Y-26856980D01*
X4128627Y-26667000D01*
X3127000Y-26667000D01*
X2873000Y-26667000D01*
X1871373Y-26667000D01*
X1810511Y-26856980D01*
X406000Y-26856980D01*
X406000Y-26223020D01*
X1810511Y-26223020D01*
X1871373Y-26413000D01*
X2873000Y-26413000D01*
X2873000Y-25410813D01*
X3127000Y-25410813D01*
X3127000Y-26413000D01*
X4128627Y-26413000D01*
X4189489Y-26223020D01*
X4165134Y-26142712D01*
X4065239Y-25923039D01*
X3924408Y-25727076D01*
X3748052Y-25562353D01*
X3542949Y-25435201D01*
X3316981Y-25350505D01*
X3127000Y-25410813D01*
X2873000Y-25410813D01*
X2683019Y-25350505D01*
X2457051Y-25435201D01*
X2251948Y-25562353D01*
X2075592Y-25727076D01*
X1934761Y-25923039D01*
X1834866Y-26142712D01*
X1810511Y-26223020D01*
X406000Y-26223020D01*
X406000Y-18776980D01*
X1810511Y-18776980D01*
X1834866Y-18857288D01*
X1934761Y-19076961D01*
X2075592Y-19272924D01*
X2251948Y-19437647D01*
X2457051Y-19564799D01*
X2683019Y-19649495D01*
X2873000Y-19589187D01*
X2873000Y-18587000D01*
X3127000Y-18587000D01*
X3127000Y-19589187D01*
X3316981Y-19649495D01*
X3542949Y-19564799D01*
X3748052Y-19437647D01*
X3924408Y-19272924D01*
X4065239Y-19076961D01*
X4165134Y-18857288D01*
X4189489Y-18776980D01*
X4128627Y-18587000D01*
X3127000Y-18587000D01*
X2873000Y-18587000D01*
X1871373Y-18587000D01*
X1810511Y-18776980D01*
X406000Y-18776980D01*
X406000Y-18143020D01*
X1810511Y-18143020D01*
X1871373Y-18333000D01*
X2873000Y-18333000D01*
X2873000Y-17330813D01*
X3127000Y-17330813D01*
X3127000Y-18333000D01*
X4128627Y-18333000D01*
X4189489Y-18143020D01*
X4165134Y-18062712D01*
X4065239Y-17843039D01*
X3924408Y-17647076D01*
X3748052Y-17482353D01*
X3542949Y-17355201D01*
X3316981Y-17270505D01*
X3127000Y-17330813D01*
X2873000Y-17330813D01*
X2683019Y-17270505D01*
X2457051Y-17355201D01*
X2251948Y-17482353D01*
X2075592Y-17647076D01*
X1934761Y-17843039D01*
X1834866Y-18062712D01*
X1810511Y-18143020D01*
X406000Y-18143020D01*
X406000Y-7100000D01*
X1717157Y-7100000D01*
X1717157Y-8900000D01*
X1724513Y-8974689D01*
X1746299Y-9046508D01*
X1781678Y-9112696D01*
X1829289Y-9170711D01*
X1887304Y-9218322D01*
X1953492Y-9253701D01*
X2025311Y-9275487D01*
X2100000Y-9282843D01*
X3690519Y-9282843D01*
X3630058Y-9307887D01*
X3502141Y-9393358D01*
X3393358Y-9502141D01*
X3307887Y-9630058D01*
X3249013Y-9772191D01*
X3219000Y-9923078D01*
X3219000Y-10076922D01*
X3249013Y-10227809D01*
X3307887Y-10369942D01*
X3393358Y-10497859D01*
X3502141Y-10606642D01*
X3630058Y-10692113D01*
X3772191Y-10750987D01*
X3923078Y-10781000D01*
X4076922Y-10781000D01*
X4227809Y-10750987D01*
X4369942Y-10692113D01*
X4497859Y-10606642D01*
X4606642Y-10497859D01*
X4692113Y-10369942D01*
X4750987Y-10227809D01*
X4781000Y-10076922D01*
X4781000Y-9934591D01*
X6209592Y-8506000D01*
X7390780Y-8506000D01*
X7307887Y-8630058D01*
X7249013Y-8772191D01*
X7227553Y-8880078D01*
X6575733Y-9531899D01*
X6551658Y-9551657D01*
X6531900Y-9575732D01*
X6531897Y-9575735D01*
X6472804Y-9647740D01*
X6414211Y-9757359D01*
X6378130Y-9876303D01*
X6365948Y-10000000D01*
X6369001Y-10031000D01*
X6369000Y-12538595D01*
X6307887Y-12630058D01*
X6249013Y-12772191D01*
X6219000Y-12923078D01*
X6219000Y-13076922D01*
X6249013Y-13227809D01*
X6307887Y-13369942D01*
X6393358Y-13497859D01*
X6502141Y-13606642D01*
X6630058Y-13692113D01*
X6772191Y-13750987D01*
X6923078Y-13781000D01*
X7076922Y-13781000D01*
X7227809Y-13750987D01*
X7369942Y-13692113D01*
X7497859Y-13606642D01*
X7606642Y-13497859D01*
X7692113Y-13369942D01*
X7750987Y-13227809D01*
X7781000Y-13076922D01*
X7781000Y-12923078D01*
X7750987Y-12772191D01*
X7692113Y-12630058D01*
X7631000Y-12538595D01*
X7631000Y-10261368D01*
X8119922Y-9772447D01*
X8227809Y-9750987D01*
X8369942Y-9692113D01*
X8461405Y-9631000D01*
X10238632Y-9631000D01*
X15356347Y-14748716D01*
X15356348Y-15525941D01*
X15295234Y-15617405D01*
X15236360Y-15759538D01*
X15206347Y-15910425D01*
X15206347Y-16064269D01*
X15236360Y-16215156D01*
X15255060Y-16260301D01*
X15227809Y-16249013D01*
X15076922Y-16219000D01*
X14923078Y-16219000D01*
X14772191Y-16249013D01*
X14630058Y-16307887D01*
X14502141Y-16393358D01*
X14393358Y-16502141D01*
X14307887Y-16630058D01*
X14249013Y-16772191D01*
X14219000Y-16923078D01*
X14219000Y-17076922D01*
X14249013Y-17227809D01*
X14307887Y-17369942D01*
X14393358Y-17497859D01*
X14502141Y-17606642D01*
X14630058Y-17692113D01*
X14772191Y-17750987D01*
X14923078Y-17781000D01*
X15076922Y-17781000D01*
X15227809Y-17750987D01*
X15369942Y-17692113D01*
X15497859Y-17606642D01*
X15598501Y-17506000D01*
X15975154Y-17506000D01*
X16000000Y-17508447D01*
X16024846Y-17506000D01*
X16024854Y-17506000D01*
X16099193Y-17498678D01*
X16194575Y-17469745D01*
X16282479Y-17422759D01*
X16359527Y-17359527D01*
X16375376Y-17340215D01*
X17840220Y-15875372D01*
X17859527Y-15859527D01*
X17922759Y-15782479D01*
X17969745Y-15694575D01*
X17993154Y-15617405D01*
X17998678Y-15599194D01*
X18000840Y-15577241D01*
X18006000Y-15524854D01*
X18006000Y-15524847D01*
X18008447Y-15500001D01*
X18006000Y-15475155D01*
X18006000Y-11524845D01*
X18008447Y-11499999D01*
X18006000Y-11475153D01*
X18006000Y-11475146D01*
X17998678Y-11400807D01*
X17969745Y-11305425D01*
X17922759Y-11217521D01*
X17859527Y-11140473D01*
X17840220Y-11124628D01*
X17638670Y-10923078D01*
X18219000Y-10923078D01*
X18219000Y-11076922D01*
X18249013Y-11227809D01*
X18307887Y-11369942D01*
X18393358Y-11497859D01*
X18494001Y-11598502D01*
X18494000Y-16823156D01*
X18491553Y-16848002D01*
X18494000Y-16872848D01*
X18494000Y-16872855D01*
X18501322Y-16947194D01*
X18530255Y-17042576D01*
X18577241Y-17130481D01*
X18640473Y-17207529D01*
X18659785Y-17223378D01*
X20226636Y-18790230D01*
X20242481Y-18809537D01*
X20319529Y-18872769D01*
X20407433Y-18919755D01*
X20480615Y-18941954D01*
X20502814Y-18948688D01*
X20512702Y-18949662D01*
X20577154Y-18956010D01*
X20577161Y-18956010D01*
X20602007Y-18958457D01*
X20626853Y-18956010D01*
X24104009Y-18956010D01*
X32994001Y-27846003D01*
X32994000Y-40790408D01*
X31065409Y-42719000D01*
X30923078Y-42719000D01*
X30772191Y-42749013D01*
X30630058Y-42807887D01*
X30502141Y-42893358D01*
X30393358Y-43002141D01*
X30307887Y-43130058D01*
X30249013Y-43272191D01*
X30219000Y-43423078D01*
X30219000Y-43576922D01*
X30249013Y-43727809D01*
X30307887Y-43869942D01*
X30393358Y-43997859D01*
X30502141Y-44106642D01*
X30630058Y-44192113D01*
X30772191Y-44250987D01*
X30923078Y-44281000D01*
X31076922Y-44281000D01*
X31227809Y-44250987D01*
X31369942Y-44192113D01*
X31497859Y-44106642D01*
X31606642Y-43997859D01*
X31692113Y-43869942D01*
X31750000Y-43730192D01*
X31807887Y-43869942D01*
X31893358Y-43997859D01*
X32002141Y-44106642D01*
X32130058Y-44192113D01*
X32272191Y-44250987D01*
X32423078Y-44281000D01*
X32576922Y-44281000D01*
X32727809Y-44250987D01*
X32869942Y-44192113D01*
X32997859Y-44106642D01*
X33106642Y-43997859D01*
X33192113Y-43869942D01*
X33250987Y-43727809D01*
X33281000Y-43576922D01*
X33281000Y-43423078D01*
X33250987Y-43272191D01*
X33192113Y-43130058D01*
X33123114Y-43026793D01*
X33719000Y-42430907D01*
X33719000Y-42576922D01*
X33749013Y-42727809D01*
X33807887Y-42869942D01*
X33893358Y-42997859D01*
X33994000Y-43098501D01*
X33994001Y-48434780D01*
X33991553Y-48459636D01*
X34001322Y-48558828D01*
X34030255Y-48654210D01*
X34030256Y-48654211D01*
X34077242Y-48742115D01*
X34140474Y-48819163D01*
X34159780Y-48835008D01*
X35494000Y-50169228D01*
X35494001Y-50975144D01*
X35491553Y-51000000D01*
X35501322Y-51099192D01*
X35530255Y-51194574D01*
X35530256Y-51194575D01*
X35577242Y-51282479D01*
X35640474Y-51359527D01*
X35659780Y-51375372D01*
X37084628Y-52800220D01*
X37100473Y-52819527D01*
X37177521Y-52882759D01*
X37265425Y-52929745D01*
X37360807Y-52958678D01*
X37460000Y-52968448D01*
X37484854Y-52966000D01*
X39823048Y-52966000D01*
X39864793Y-53066781D01*
X40004982Y-53276590D01*
X40183410Y-53455018D01*
X40393219Y-53595207D01*
X40626346Y-53691772D01*
X40753966Y-53717157D01*
X40100000Y-53717157D01*
X40025311Y-53724513D01*
X39953492Y-53746299D01*
X39887304Y-53781678D01*
X39829289Y-53829289D01*
X39781678Y-53887304D01*
X39746299Y-53953492D01*
X39724513Y-54025311D01*
X39717157Y-54100000D01*
X39717157Y-55900000D01*
X39724513Y-55974689D01*
X39746299Y-56046508D01*
X39781678Y-56112696D01*
X39829289Y-56170711D01*
X39887304Y-56218322D01*
X39953492Y-56253701D01*
X40025311Y-56275487D01*
X40100000Y-56282843D01*
X41900000Y-56282843D01*
X41974689Y-56275487D01*
X42046508Y-56253701D01*
X42112696Y-56218322D01*
X42170711Y-56170711D01*
X42218322Y-56112696D01*
X42253701Y-56046508D01*
X42275487Y-55974689D01*
X42282843Y-55900000D01*
X42282843Y-54100000D01*
X42275487Y-54025311D01*
X42253701Y-53953492D01*
X42218322Y-53887304D01*
X42170711Y-53829289D01*
X42112696Y-53781678D01*
X42046508Y-53746299D01*
X41974689Y-53724513D01*
X41900000Y-53717157D01*
X41246034Y-53717157D01*
X41373654Y-53691772D01*
X41606781Y-53595207D01*
X41816590Y-53455018D01*
X41995018Y-53276590D01*
X42135207Y-53066781D01*
X42231772Y-52833654D01*
X42281000Y-52586167D01*
X42281000Y-52333833D01*
X42231772Y-52086346D01*
X42135207Y-51853219D01*
X41995018Y-51643410D01*
X41816590Y-51464982D01*
X41606781Y-51324793D01*
X41373654Y-51228228D01*
X41126167Y-51179000D01*
X40873833Y-51179000D01*
X40626346Y-51228228D01*
X40393219Y-51324793D01*
X40183410Y-51464982D01*
X40004982Y-51643410D01*
X39864793Y-51853219D01*
X39823048Y-51954000D01*
X37669592Y-51954000D01*
X36506000Y-50790409D01*
X36506000Y-49984481D01*
X36508447Y-49959635D01*
X36506000Y-49934789D01*
X36506000Y-49934782D01*
X36498678Y-49860443D01*
X36469745Y-49765061D01*
X36422759Y-49677157D01*
X36359527Y-49600109D01*
X36340220Y-49584264D01*
X35006000Y-48250045D01*
X35006000Y-43098501D01*
X35106642Y-42997859D01*
X35192113Y-42869942D01*
X35250987Y-42727809D01*
X35281000Y-42576922D01*
X35281000Y-42423078D01*
X35250987Y-42272191D01*
X35192113Y-42130058D01*
X35106642Y-42002141D01*
X34997859Y-41893358D01*
X34869942Y-41807887D01*
X34727809Y-41749013D01*
X34576922Y-41719000D01*
X34423078Y-41719000D01*
X34420533Y-41719506D01*
X34422759Y-41716794D01*
X34469745Y-41628890D01*
X34498678Y-41533508D01*
X34506000Y-41459169D01*
X34506000Y-41459162D01*
X34508447Y-41434316D01*
X34506000Y-41409470D01*
X34506000Y-27524854D01*
X34508448Y-27500000D01*
X34498678Y-27400807D01*
X34469745Y-27305425D01*
X34451981Y-27272191D01*
X34422759Y-27217521D01*
X34359527Y-27140473D01*
X34340220Y-27124628D01*
X24875376Y-17659785D01*
X24859527Y-17640473D01*
X24782479Y-17577241D01*
X24694575Y-17530255D01*
X24599193Y-17501322D01*
X24524854Y-17494000D01*
X24524846Y-17494000D01*
X24500000Y-17491553D01*
X24475154Y-17494000D01*
X21434592Y-17494000D01*
X20506000Y-16565409D01*
X20506000Y-16423078D01*
X20475987Y-16272191D01*
X20417113Y-16130058D01*
X20331642Y-16002141D01*
X20222859Y-15893358D01*
X20094942Y-15807887D01*
X19952809Y-15749013D01*
X19801922Y-15719000D01*
X19648078Y-15719000D01*
X19506000Y-15747261D01*
X19506000Y-14923078D01*
X27219000Y-14923078D01*
X27219000Y-15076922D01*
X27249013Y-15227809D01*
X27307887Y-15369942D01*
X27393358Y-15497859D01*
X27502141Y-15606642D01*
X27630058Y-15692113D01*
X27772191Y-15750987D01*
X27880079Y-15772447D01*
X30369000Y-18261369D01*
X30369001Y-19538594D01*
X30307887Y-19630058D01*
X30249013Y-19772191D01*
X30219000Y-19923078D01*
X30219000Y-20076922D01*
X30249013Y-20227809D01*
X30307887Y-20369942D01*
X30393358Y-20497859D01*
X30502141Y-20606642D01*
X30630058Y-20692113D01*
X30772191Y-20750987D01*
X30923078Y-20781000D01*
X31076922Y-20781000D01*
X31227809Y-20750987D01*
X31369942Y-20692113D01*
X31497859Y-20606642D01*
X31606642Y-20497859D01*
X31692113Y-20369942D01*
X31750987Y-20227809D01*
X31781000Y-20076922D01*
X31781000Y-19923078D01*
X31750987Y-19772191D01*
X31692113Y-19630058D01*
X31631000Y-19538595D01*
X31631000Y-18030990D01*
X31634052Y-18000000D01*
X31631000Y-17969009D01*
X31631000Y-17969002D01*
X31621870Y-17876302D01*
X31585789Y-17757358D01*
X31527196Y-17647739D01*
X31508231Y-17624630D01*
X31468103Y-17575734D01*
X31468101Y-17575732D01*
X31448343Y-17551657D01*
X31424269Y-17531900D01*
X28772447Y-14880079D01*
X28750987Y-14772191D01*
X28692113Y-14630058D01*
X28606642Y-14502141D01*
X28497859Y-14393358D01*
X28369942Y-14307887D01*
X28227809Y-14249013D01*
X28076922Y-14219000D01*
X27923078Y-14219000D01*
X27772191Y-14249013D01*
X27630058Y-14307887D01*
X27502141Y-14393358D01*
X27393358Y-14502141D01*
X27307887Y-14630058D01*
X27249013Y-14772191D01*
X27219000Y-14923078D01*
X19506000Y-14923078D01*
X19506000Y-11598501D01*
X19606642Y-11497859D01*
X19692113Y-11369942D01*
X19750987Y-11227809D01*
X19781000Y-11076922D01*
X19781000Y-10923078D01*
X19750987Y-10772191D01*
X19692113Y-10630058D01*
X19606642Y-10502141D01*
X19497859Y-10393358D01*
X19369942Y-10307887D01*
X19227809Y-10249013D01*
X19076922Y-10219000D01*
X18923078Y-10219000D01*
X18772191Y-10249013D01*
X18630058Y-10307887D01*
X18502141Y-10393358D01*
X18393358Y-10502141D01*
X18307887Y-10630058D01*
X18249013Y-10772191D01*
X18219000Y-10923078D01*
X17638670Y-10923078D01*
X16375376Y-9659785D01*
X16359527Y-9640473D01*
X16282479Y-9577241D01*
X16194575Y-9530255D01*
X16099193Y-9501322D01*
X16024854Y-9494000D01*
X16024846Y-9494000D01*
X16000000Y-9491553D01*
X15975154Y-9494000D01*
X15598501Y-9494000D01*
X15497859Y-9393358D01*
X15369942Y-9307887D01*
X15227809Y-9249013D01*
X15076922Y-9219000D01*
X14923078Y-9219000D01*
X14772191Y-9249013D01*
X14630058Y-9307887D01*
X14502141Y-9393358D01*
X14393358Y-9502141D01*
X14307887Y-9630058D01*
X14249013Y-9772191D01*
X14219000Y-9923078D01*
X14219000Y-10076922D01*
X14249013Y-10227809D01*
X14307887Y-10369942D01*
X14393358Y-10497859D01*
X14502141Y-10606642D01*
X14630058Y-10692113D01*
X14772191Y-10750987D01*
X14923078Y-10781000D01*
X15076922Y-10781000D01*
X15227809Y-10750987D01*
X15369942Y-10692113D01*
X15497859Y-10606642D01*
X15598501Y-10506000D01*
X15790409Y-10506000D01*
X16994000Y-11709592D01*
X16994001Y-15290407D01*
X16674471Y-15609938D01*
X16618347Y-15525942D01*
X16618347Y-14518345D01*
X16621400Y-14487347D01*
X16609217Y-14363649D01*
X16573136Y-14244705D01*
X16514543Y-14135086D01*
X16455450Y-14063081D01*
X16455448Y-14063079D01*
X16435690Y-14039004D01*
X16411616Y-14019247D01*
X10968105Y-8575737D01*
X10948343Y-8551657D01*
X10892710Y-8506000D01*
X15901499Y-8506000D01*
X16002141Y-8606642D01*
X16130058Y-8692113D01*
X16272191Y-8750987D01*
X16423078Y-8781000D01*
X16576922Y-8781000D01*
X16727809Y-8750987D01*
X16869942Y-8692113D01*
X16997859Y-8606642D01*
X17106642Y-8497859D01*
X17192113Y-8369942D01*
X17250987Y-8227809D01*
X17281000Y-8076922D01*
X17281000Y-7923078D01*
X17250987Y-7772191D01*
X17192113Y-7630058D01*
X17106642Y-7502141D01*
X16997859Y-7393358D01*
X16869942Y-7307887D01*
X16727809Y-7249013D01*
X16576922Y-7219000D01*
X16423078Y-7219000D01*
X16272191Y-7249013D01*
X16130058Y-7307887D01*
X16002141Y-7393358D01*
X15901499Y-7494000D01*
X12609220Y-7494000D01*
X12692113Y-7369942D01*
X12750987Y-7227809D01*
X12776409Y-7100000D01*
X39717157Y-7100000D01*
X39717157Y-8900000D01*
X39724513Y-8974689D01*
X39746299Y-9046508D01*
X39781678Y-9112696D01*
X39829289Y-9170711D01*
X39887304Y-9218322D01*
X39953492Y-9253701D01*
X40025311Y-9275487D01*
X40100000Y-9282843D01*
X41900000Y-9282843D01*
X41974689Y-9275487D01*
X42046508Y-9253701D01*
X42112696Y-9218322D01*
X42170711Y-9170711D01*
X42218322Y-9112696D01*
X42253701Y-9046508D01*
X42275487Y-8974689D01*
X42282843Y-8900000D01*
X42282843Y-7100000D01*
X42275487Y-7025311D01*
X42253701Y-6953492D01*
X42218322Y-6887304D01*
X42170711Y-6829289D01*
X42112696Y-6781678D01*
X42046508Y-6746299D01*
X41974689Y-6724513D01*
X41900000Y-6717157D01*
X41246034Y-6717157D01*
X41373654Y-6691772D01*
X41606781Y-6595207D01*
X41816590Y-6455018D01*
X41995018Y-6276590D01*
X42135207Y-6066781D01*
X42231772Y-5833654D01*
X42281000Y-5586167D01*
X42281000Y-5333833D01*
X42231772Y-5086346D01*
X42135207Y-4853219D01*
X41995018Y-4643410D01*
X41816590Y-4464982D01*
X41606781Y-4324793D01*
X41373654Y-4228228D01*
X41126167Y-4179000D01*
X40873833Y-4179000D01*
X40626346Y-4228228D01*
X40393219Y-4324793D01*
X40183410Y-4464982D01*
X40004982Y-4643410D01*
X39864793Y-4853219D01*
X39768228Y-5086346D01*
X39719000Y-5333833D01*
X39719000Y-5586167D01*
X39768228Y-5833654D01*
X39864793Y-6066781D01*
X40004982Y-6276590D01*
X40183410Y-6455018D01*
X40393219Y-6595207D01*
X40626346Y-6691772D01*
X40753966Y-6717157D01*
X40100000Y-6717157D01*
X40025311Y-6724513D01*
X39953492Y-6746299D01*
X39887304Y-6781678D01*
X39829289Y-6829289D01*
X39781678Y-6887304D01*
X39746299Y-6953492D01*
X39724513Y-7025311D01*
X39717157Y-7100000D01*
X12776409Y-7100000D01*
X12781000Y-7076922D01*
X12781000Y-6923078D01*
X12750987Y-6772191D01*
X12735993Y-6735993D01*
X12772191Y-6750987D01*
X12923078Y-6781000D01*
X13076922Y-6781000D01*
X13227809Y-6750987D01*
X13369942Y-6692113D01*
X13497859Y-6606642D01*
X13606642Y-6497859D01*
X13692113Y-6369942D01*
X13750987Y-6227809D01*
X13781000Y-6076922D01*
X13781000Y-5923078D01*
X13750987Y-5772191D01*
X13692113Y-5630058D01*
X13606642Y-5502141D01*
X13497859Y-5393358D01*
X13369942Y-5307887D01*
X13227809Y-5249013D01*
X13076922Y-5219000D01*
X12923078Y-5219000D01*
X12772191Y-5249013D01*
X12630058Y-5307887D01*
X12538595Y-5369000D01*
X9461405Y-5369000D01*
X9369942Y-5307887D01*
X9227809Y-5249013D01*
X9076922Y-5219000D01*
X8923078Y-5219000D01*
X8772191Y-5249013D01*
X8630058Y-5307887D01*
X8502141Y-5393358D01*
X8393358Y-5502141D01*
X8307887Y-5630058D01*
X8249013Y-5772191D01*
X8219000Y-5923078D01*
X8219000Y-6076922D01*
X8249013Y-6227809D01*
X8307887Y-6369942D01*
X8393358Y-6497859D01*
X8502141Y-6606642D01*
X8630058Y-6692113D01*
X8772191Y-6750987D01*
X8923078Y-6781000D01*
X9076922Y-6781000D01*
X9227809Y-6750987D01*
X9264007Y-6735993D01*
X9249013Y-6772191D01*
X9219000Y-6923078D01*
X9219000Y-7076922D01*
X9249013Y-7227809D01*
X9307887Y-7369942D01*
X9390780Y-7494000D01*
X6024845Y-7494000D01*
X5999999Y-7491553D01*
X5975153Y-7494000D01*
X5975146Y-7494000D01*
X5910694Y-7500348D01*
X5900806Y-7501322D01*
X5805425Y-7530255D01*
X5717521Y-7577241D01*
X5640473Y-7640473D01*
X5624628Y-7659780D01*
X4260581Y-9023828D01*
X4275487Y-8974689D01*
X4282843Y-8900000D01*
X4282843Y-7100000D01*
X4275487Y-7025311D01*
X4253701Y-6953492D01*
X4218322Y-6887304D01*
X4170711Y-6829289D01*
X4112696Y-6781678D01*
X4046508Y-6746299D01*
X3974689Y-6724513D01*
X3900000Y-6717157D01*
X3246034Y-6717157D01*
X3373654Y-6691772D01*
X3606781Y-6595207D01*
X3816590Y-6455018D01*
X3995018Y-6276590D01*
X4135207Y-6066781D01*
X4231772Y-5833654D01*
X4281000Y-5586167D01*
X4281000Y-5333833D01*
X4231772Y-5086346D01*
X4181575Y-4965160D01*
X7876945Y-4965160D01*
X7953788Y-5130361D01*
X8153104Y-5218324D01*
X8365751Y-5265713D01*
X8583557Y-5270705D01*
X8798152Y-5233111D01*
X9001289Y-5154372D01*
X9046212Y-5130361D01*
X9123055Y-4965160D01*
X12876945Y-4965160D01*
X12953788Y-5130361D01*
X13153104Y-5218324D01*
X13365751Y-5265713D01*
X13583557Y-5270705D01*
X13798152Y-5233111D01*
X14001289Y-5154372D01*
X14046212Y-5130361D01*
X14123055Y-4965160D01*
X14036652Y-4878757D01*
X28689000Y-4878757D01*
X28689000Y-5121243D01*
X28736307Y-5359069D01*
X28829102Y-5583097D01*
X28963820Y-5784717D01*
X29135283Y-5956180D01*
X29336903Y-6090898D01*
X29560931Y-6183693D01*
X29798757Y-6231000D01*
X30041243Y-6231000D01*
X30279069Y-6183693D01*
X30503097Y-6090898D01*
X30704717Y-5956180D01*
X30876180Y-5784717D01*
X31010898Y-5583097D01*
X31103693Y-5359069D01*
X31151000Y-5121243D01*
X31151000Y-4878757D01*
X31229000Y-4878757D01*
X31229000Y-5121243D01*
X31276307Y-5359069D01*
X31369102Y-5583097D01*
X31503820Y-5784717D01*
X31675283Y-5956180D01*
X31876903Y-6090898D01*
X32100931Y-6183693D01*
X32338757Y-6231000D01*
X32581243Y-6231000D01*
X32819069Y-6183693D01*
X33043097Y-6090898D01*
X33244717Y-5956180D01*
X33416180Y-5784717D01*
X33550898Y-5583097D01*
X33643693Y-5359069D01*
X33691000Y-5121243D01*
X33691000Y-4878757D01*
X33643693Y-4640931D01*
X33550898Y-4416903D01*
X33416180Y-4215283D01*
X33350897Y-4150000D01*
X33767157Y-4150000D01*
X33767157Y-5850000D01*
X33774513Y-5924689D01*
X33796299Y-5996508D01*
X33831678Y-6062696D01*
X33879289Y-6120711D01*
X33937304Y-6168322D01*
X34003492Y-6203701D01*
X34075311Y-6225487D01*
X34150000Y-6232843D01*
X35850000Y-6232843D01*
X35924689Y-6225487D01*
X35996508Y-6203701D01*
X36062696Y-6168322D01*
X36120711Y-6120711D01*
X36168322Y-6062696D01*
X36203701Y-5996508D01*
X36225487Y-5924689D01*
X36232843Y-5850000D01*
X36232843Y-4150000D01*
X36225487Y-4075311D01*
X36203701Y-4003492D01*
X36168322Y-3937304D01*
X36120711Y-3879289D01*
X36062696Y-3831678D01*
X35996508Y-3796299D01*
X35924689Y-3774513D01*
X35850000Y-3767157D01*
X34150000Y-3767157D01*
X34075311Y-3774513D01*
X34003492Y-3796299D01*
X33937304Y-3831678D01*
X33879289Y-3879289D01*
X33831678Y-3937304D01*
X33796299Y-4003492D01*
X33774513Y-4075311D01*
X33767157Y-4150000D01*
X33350897Y-4150000D01*
X33244717Y-4043820D01*
X33043097Y-3909102D01*
X32819069Y-3816307D01*
X32581243Y-3769000D01*
X32338757Y-3769000D01*
X32100931Y-3816307D01*
X31876903Y-3909102D01*
X31675283Y-4043820D01*
X31503820Y-4215283D01*
X31369102Y-4416903D01*
X31276307Y-4640931D01*
X31229000Y-4878757D01*
X31151000Y-4878757D01*
X31103693Y-4640931D01*
X31010898Y-4416903D01*
X30876180Y-4215283D01*
X30704717Y-4043820D01*
X30503097Y-3909102D01*
X30279069Y-3816307D01*
X30041243Y-3769000D01*
X29798757Y-3769000D01*
X29560931Y-3816307D01*
X29336903Y-3909102D01*
X29135283Y-4043820D01*
X28963820Y-4215283D01*
X28829102Y-4416903D01*
X28736307Y-4640931D01*
X28689000Y-4878757D01*
X14036652Y-4878757D01*
X13500000Y-4342105D01*
X12876945Y-4965160D01*
X9123055Y-4965160D01*
X8500000Y-4342105D01*
X7876945Y-4965160D01*
X4181575Y-4965160D01*
X4135207Y-4853219D01*
X3995018Y-4643410D01*
X3816590Y-4464982D01*
X3606781Y-4324793D01*
X3416697Y-4246057D01*
X7391795Y-4246057D01*
X7429389Y-4460652D01*
X7508128Y-4663789D01*
X7532139Y-4708712D01*
X7697340Y-4785555D01*
X8320395Y-4162500D01*
X8679605Y-4162500D01*
X9302660Y-4785555D01*
X9467861Y-4708712D01*
X9555824Y-4509396D01*
X9603213Y-4296749D01*
X9604374Y-4246057D01*
X12391795Y-4246057D01*
X12429389Y-4460652D01*
X12508128Y-4663789D01*
X12532139Y-4708712D01*
X12697340Y-4785555D01*
X13320395Y-4162500D01*
X13679605Y-4162500D01*
X14302660Y-4785555D01*
X14467861Y-4708712D01*
X14555824Y-4509396D01*
X14603213Y-4296749D01*
X14608205Y-4078943D01*
X14570611Y-3864348D01*
X14491872Y-3661211D01*
X14467861Y-3616288D01*
X14302660Y-3539445D01*
X13679605Y-4162500D01*
X13320395Y-4162500D01*
X12697340Y-3539445D01*
X12532139Y-3616288D01*
X12444176Y-3815604D01*
X12396787Y-4028251D01*
X12391795Y-4246057D01*
X9604374Y-4246057D01*
X9608205Y-4078943D01*
X9570611Y-3864348D01*
X9491872Y-3661211D01*
X9467861Y-3616288D01*
X9302660Y-3539445D01*
X8679605Y-4162500D01*
X8320395Y-4162500D01*
X7697340Y-3539445D01*
X7532139Y-3616288D01*
X7444176Y-3815604D01*
X7396787Y-4028251D01*
X7391795Y-4246057D01*
X3416697Y-4246057D01*
X3373654Y-4228228D01*
X3126167Y-4179000D01*
X2873833Y-4179000D01*
X2626346Y-4228228D01*
X2393219Y-4324793D01*
X2183410Y-4464982D01*
X2004982Y-4643410D01*
X1864793Y-4853219D01*
X1768228Y-5086346D01*
X1719000Y-5333833D01*
X1719000Y-5586167D01*
X1768228Y-5833654D01*
X1864793Y-6066781D01*
X2004982Y-6276590D01*
X2183410Y-6455018D01*
X2393219Y-6595207D01*
X2626346Y-6691772D01*
X2753966Y-6717157D01*
X2100000Y-6717157D01*
X2025311Y-6724513D01*
X1953492Y-6746299D01*
X1887304Y-6781678D01*
X1829289Y-6829289D01*
X1781678Y-6887304D01*
X1746299Y-6953492D01*
X1724513Y-7025311D01*
X1717157Y-7100000D01*
X406000Y-7100000D01*
X406000Y-3359840D01*
X7876945Y-3359840D01*
X8500000Y-3982895D01*
X9123055Y-3359840D01*
X12876945Y-3359840D01*
X13500000Y-3982895D01*
X14123055Y-3359840D01*
X14046212Y-3194639D01*
X13846896Y-3106676D01*
X13634249Y-3059287D01*
X13416443Y-3054295D01*
X13201848Y-3091889D01*
X12998711Y-3170628D01*
X12953788Y-3194639D01*
X12876945Y-3359840D01*
X9123055Y-3359840D01*
X9046212Y-3194639D01*
X8846896Y-3106676D01*
X8634249Y-3059287D01*
X8416443Y-3054295D01*
X8201848Y-3091889D01*
X7998711Y-3170628D01*
X7953788Y-3194639D01*
X7876945Y-3359840D01*
X406000Y-3359840D01*
X406000Y-1589500D01*
X6519000Y-1589500D01*
X6519000Y-1939500D01*
X6562626Y-2128443D01*
X6642275Y-2305245D01*
X6754886Y-2463111D01*
X6896131Y-2595974D01*
X7060582Y-2698729D01*
X7222393Y-2753402D01*
X7373000Y-2689098D01*
X7373000Y-1589500D01*
X7627000Y-1589500D01*
X7627000Y-2689098D01*
X7777607Y-2753402D01*
X7939418Y-2698729D01*
X8103869Y-2595974D01*
X8245114Y-2463111D01*
X8357725Y-2305245D01*
X8437374Y-2128443D01*
X8481000Y-1939500D01*
X8481000Y-1589500D01*
X13519000Y-1589500D01*
X13519000Y-1939500D01*
X13562626Y-2128443D01*
X13642275Y-2305245D01*
X13754886Y-2463111D01*
X13896131Y-2595974D01*
X14060582Y-2698729D01*
X14222393Y-2753402D01*
X14373000Y-2689098D01*
X14373000Y-1589500D01*
X14627000Y-1589500D01*
X14627000Y-2689098D01*
X14777607Y-2753402D01*
X14939418Y-2698729D01*
X15103869Y-2595974D01*
X15245114Y-2463111D01*
X15357725Y-2305245D01*
X15437374Y-2128443D01*
X15481000Y-1939500D01*
X15481000Y-1589500D01*
X14627000Y-1589500D01*
X14373000Y-1589500D01*
X13519000Y-1589500D01*
X8481000Y-1589500D01*
X7627000Y-1589500D01*
X7373000Y-1589500D01*
X6519000Y-1589500D01*
X406000Y-1589500D01*
X406000Y-406000D01*
X6814301Y-406000D01*
X6754886Y-461889D01*
G37*
G04 #@! TD.AperFunction*
M02*
