M48
; DRILL file {KiCad (5.1.10)-1} date 08/19/21 14:23:00
; FORMAT={-:-/ absolute / inch / decimal}
; #@! TF.CreationDate,2021-08-19T14:23:00+09:00
; #@! TF.GenerationSoftware,Kicad,Pcbnew,(5.1.10)-1
; #@! TF.FileFunction,Plated,1,2,PTH
FMAT,2
INCH
T1C0.0079
T2C0.0157
T3C0.0177
T4C0.0197
T5C0.0295
T6C0.0394
T7C0.0450
T8C0.0531
T9C0.0591
%
G90
G05
T1
X1.0498Y-0.5639
X1.0498Y-0.6361
X1.0859Y-0.5278
X1.0859Y-0.6
X1.0859Y-0.6722
X1.122Y-0.5639
X1.122Y-0.6361
X1.1582Y-0.5278
X1.1582Y-0.6
X1.1582Y-0.6722
X1.1943Y-0.5639
X1.1943Y-0.6361
T2
X0.3543Y-0.5709
X0.3543Y-1.4764
X0.3937Y-1.6929
X0.4117Y-1.3403
X0.4134Y-0.9055
X0.4331Y-0.5709
X0.4331Y-1.2402
X0.4419Y-0.8268
X0.4724Y-1.3976
X0.4823Y-1.3287
X0.5315Y-1.7126
X0.5315Y-1.9882
X0.532Y-0.6107
X0.6102Y-1.8307
X0.6496Y-0.9449
X0.6531Y-0.3115
X0.8465Y-0.5512
X0.8716Y-2.1599
X0.9055Y-0.5906
X0.9252Y-0.748
X0.9252Y-1.3386
X0.9252Y-1.811
X0.9646Y-2.0669
X1.0039Y-0.8268
X1.0039Y-2.1654
X1.0236Y-0.283
X1.0236Y-1.3386
X1.0393Y-0.3504
X1.0433Y-2.3622
X1.0827Y-0.4134
X1.0827Y-0.748
X1.0827Y-0.9055
X1.1024Y-0.4528
X1.122Y-2.0669
X1.1417Y-0.7677
X1.2008Y-0.7677
X1.2205Y-2.0669
X1.2205Y-2.2441
X1.2402Y-0.9055
X1.2795Y-2.2047
X1.3583Y-0.9646
X1.378Y-2.0079
X1.4764Y-2.5984
X1.5354Y-0.7677
X1.5354Y-2.185
X1.5354Y-2.2835
X1.5945Y-0.3543
X1.5945Y-1.9488
T4
X0.2953Y-1.6732
X0.5659Y-1.8652
X0.9395Y-2.3676
X0.9843Y-0.5315
X1.2795Y-2.1063
T5
X0.0984Y-0.5906
X0.0984Y-0.6693
X0.0984Y-0.748
X0.0984Y-0.8268
X0.0984Y-0.9055
X0.0984Y-0.9843
T6
X0.6988Y-1.4272
X0.6988Y-1.5256
X0.6988Y-1.624
X0.9843Y-1.1417
X1.0827Y-1.1417
X1.1811Y-1.1417
X2.0472Y-1.3354
X2.0472Y-1.4354
X2.0472Y-1.5354
T7
X0.4071Y-2.4141
X0.4071Y-2.7041
X0.5771Y-2.4141
X0.5771Y-2.7041
X1.5882Y-2.4141
X1.5882Y-2.7041
X1.7582Y-2.4141
X1.7582Y-2.7041
T8
X1.4075Y-1.374
X1.4075Y-1.6772
X1.5846Y-1.374
X1.5846Y-1.6772
T9
X0.8209Y-1.2205
X0.8209Y-1.8307
X1.3445Y-1.2205
X1.3445Y-1.8307
T3
G00X2.0886Y-1.9852
M15
G01X2.1201Y-1.9852
M16
G05
G00X2.1201Y-2.2667
M15
G01X2.0886Y-2.2667
M16
G05
T0
M30
