G04 #@! TF.GenerationSoftware,KiCad,Pcbnew,(5.1.10)-1*
G04 #@! TF.CreationDate,2021-07-12T13:00:40+09:00*
G04 #@! TF.ProjectId,controller,636f6e74-726f-46c6-9c65-722e6b696361,rev?*
G04 #@! TF.SameCoordinates,Original*
G04 #@! TF.FileFunction,Paste,Bot*
G04 #@! TF.FilePolarity,Positive*
%FSLAX46Y46*%
G04 Gerber Fmt 4.6, Leading zero omitted, Abs format (unit mm)*
G04 Created by KiCad (PCBNEW (5.1.10)-1) date 2021-07-12 13:00:40*
%MOMM*%
%LPD*%
G01*
G04 APERTURE LIST*
%ADD10R,1.330000X1.330000*%
%ADD11R,2.000000X0.900000*%
%ADD12R,0.900000X2.000000*%
G04 APERTURE END LIST*
D10*
X26665000Y-17075000D03*
X28500000Y-17075000D03*
X30335000Y-17075000D03*
X26665000Y-15240000D03*
X28500000Y-15240000D03*
X30335000Y-15240000D03*
X26665000Y-13405000D03*
X28500000Y-13405000D03*
X30335000Y-13405000D03*
D11*
X19000000Y-7740000D03*
X19000000Y-9010000D03*
X19000000Y-10280000D03*
X19000000Y-11550000D03*
X19000000Y-12820000D03*
X19000000Y-14090000D03*
X19000000Y-15360000D03*
X19000000Y-16630000D03*
X19000000Y-17900000D03*
X19000000Y-19170000D03*
X19000000Y-20440000D03*
X19000000Y-21710000D03*
X19000000Y-22980000D03*
X19000000Y-24250000D03*
D12*
X21785000Y-25250000D03*
X23055000Y-25250000D03*
X24325000Y-25250000D03*
X25595000Y-25250000D03*
X26865000Y-25250000D03*
X28135000Y-25250000D03*
X29405000Y-25250000D03*
X30675000Y-25250000D03*
X31945000Y-25250000D03*
X33215000Y-25250000D03*
D11*
X36000000Y-24250000D03*
X36000000Y-22980000D03*
X36000000Y-21710000D03*
X36000000Y-20440000D03*
X36000000Y-19170000D03*
X36000000Y-17900000D03*
X36000000Y-16630000D03*
X36000000Y-15360000D03*
X36000000Y-14090000D03*
X36000000Y-12820000D03*
X36000000Y-11550000D03*
X36000000Y-10280000D03*
X36000000Y-9010000D03*
X36000000Y-7740000D03*
M02*
