G04 #@! TF.GenerationSoftware,KiCad,Pcbnew,(5.1.10)-1*
G04 #@! TF.CreationDate,2021-07-12T13:00:40+09:00*
G04 #@! TF.ProjectId,controller,636f6e74-726f-46c6-9c65-722e6b696361,rev?*
G04 #@! TF.SameCoordinates,Original*
G04 #@! TF.FileFunction,Soldermask,Top*
G04 #@! TF.FilePolarity,Negative*
%FSLAX46Y46*%
G04 Gerber Fmt 4.6, Leading zero omitted, Abs format (unit mm)*
G04 Created by KiCad (PCBNEW (5.1.10)-1) date 2021-07-12 13:00:40*
%MOMM*%
%LPD*%
G01*
G04 APERTURE LIST*
%ADD10R,1.000000X0.600000*%
%ADD11R,0.270000X0.760000*%
%ADD12C,3.200000*%
%ADD13C,0.300000*%
%ADD14C,2.540000*%
%ADD15C,1.905000*%
%ADD16R,0.946899X0.508000*%
%ADD17R,1.060000X0.650000*%
%ADD18R,1.905000X1.905000*%
%ADD19O,1.700000X1.700000*%
%ADD20R,1.700000X1.700000*%
%ADD21O,1.750000X1.200000*%
%ADD22R,1.450000X1.150000*%
%ADD23O,1.900000X1.050000*%
%ADD24R,1.900000X1.750000*%
%ADD25R,1.400000X0.400000*%
G04 APERTURE END LIST*
D10*
X11500000Y-38500000D03*
D11*
X10750000Y-37515000D03*
X11250000Y-37515000D03*
X11750000Y-37515000D03*
X12250000Y-37515000D03*
X12250000Y-39485000D03*
X11750000Y-39485000D03*
X11250000Y-39485000D03*
X10750000Y-39485000D03*
D12*
X20500000Y-73500000D03*
X50000000Y-67500000D03*
X7500000Y-9000000D03*
D13*
X27582500Y-17075000D03*
X29417500Y-17075000D03*
X26665000Y-16157500D03*
X28500000Y-16157500D03*
X30335000Y-16157500D03*
X27582500Y-15240000D03*
X29417500Y-15240000D03*
X26665000Y-14322500D03*
X28500000Y-14322500D03*
X30335000Y-14322500D03*
X27582500Y-13405000D03*
X29417500Y-13405000D03*
D12*
X50000000Y-16500000D03*
X9500000Y-57000000D03*
D14*
X20850000Y-46500000D03*
X34150000Y-46500000D03*
X34150000Y-31000000D03*
X20850000Y-31000000D03*
X35750000Y-42600000D03*
X40250000Y-42600000D03*
X40250000Y-34900000D03*
X35750000Y-34900000D03*
D15*
X17750000Y-41250000D03*
X17750000Y-38750000D03*
X17750000Y-36250000D03*
X30000000Y-29000000D03*
X27500000Y-29000000D03*
X25000000Y-29000000D03*
D16*
X26726449Y-57950001D03*
X26726449Y-56049999D03*
X29273551Y-56049999D03*
X29273551Y-57000000D03*
X29273551Y-57950001D03*
D17*
X42600000Y-55050000D03*
X42600000Y-56950000D03*
X40400000Y-56950000D03*
X40400000Y-56000000D03*
X40400000Y-55050000D03*
D18*
X14659000Y-61317000D03*
D15*
X10341000Y-61317000D03*
X10341000Y-68683000D03*
X14659000Y-68683000D03*
D18*
X44659000Y-61317000D03*
D15*
X40341000Y-61317000D03*
X40341000Y-68683000D03*
X44659000Y-68683000D03*
D19*
X52000000Y-33920000D03*
X52000000Y-36460000D03*
D20*
X52000000Y-39000000D03*
G36*
G01*
X8075000Y-20762500D02*
X8075000Y-21237500D01*
G75*
G02*
X7837500Y-21475000I-237500J0D01*
G01*
X7337500Y-21475000D01*
G75*
G02*
X7100000Y-21237500I0J237500D01*
G01*
X7100000Y-20762500D01*
G75*
G02*
X7337500Y-20525000I237500J0D01*
G01*
X7837500Y-20525000D01*
G75*
G02*
X8075000Y-20762500I0J-237500D01*
G01*
G37*
G36*
G01*
X9900000Y-20762500D02*
X9900000Y-21237500D01*
G75*
G02*
X9662500Y-21475000I-237500J0D01*
G01*
X9162500Y-21475000D01*
G75*
G02*
X8925000Y-21237500I0J237500D01*
G01*
X8925000Y-20762500D01*
G75*
G02*
X9162500Y-20525000I237500J0D01*
G01*
X9662500Y-20525000D01*
G75*
G02*
X9900000Y-20762500I0J-237500D01*
G01*
G37*
G36*
G01*
X8075000Y-22762500D02*
X8075000Y-23237500D01*
G75*
G02*
X7837500Y-23475000I-237500J0D01*
G01*
X7337500Y-23475000D01*
G75*
G02*
X7100000Y-23237500I0J237500D01*
G01*
X7100000Y-22762500D01*
G75*
G02*
X7337500Y-22525000I237500J0D01*
G01*
X7837500Y-22525000D01*
G75*
G02*
X8075000Y-22762500I0J-237500D01*
G01*
G37*
G36*
G01*
X9900000Y-22762500D02*
X9900000Y-23237500D01*
G75*
G02*
X9662500Y-23475000I-237500J0D01*
G01*
X9162500Y-23475000D01*
G75*
G02*
X8925000Y-23237500I0J237500D01*
G01*
X8925000Y-22762500D01*
G75*
G02*
X9162500Y-22525000I237500J0D01*
G01*
X9662500Y-22525000D01*
G75*
G02*
X9900000Y-22762500I0J-237500D01*
G01*
G37*
G36*
G01*
X8075000Y-30262500D02*
X8075000Y-30737500D01*
G75*
G02*
X7837500Y-30975000I-237500J0D01*
G01*
X7337500Y-30975000D01*
G75*
G02*
X7100000Y-30737500I0J237500D01*
G01*
X7100000Y-30262500D01*
G75*
G02*
X7337500Y-30025000I237500J0D01*
G01*
X7837500Y-30025000D01*
G75*
G02*
X8075000Y-30262500I0J-237500D01*
G01*
G37*
G36*
G01*
X9900000Y-30262500D02*
X9900000Y-30737500D01*
G75*
G02*
X9662500Y-30975000I-237500J0D01*
G01*
X9162500Y-30975000D01*
G75*
G02*
X8925000Y-30737500I0J237500D01*
G01*
X8925000Y-30262500D01*
G75*
G02*
X9162500Y-30025000I237500J0D01*
G01*
X9662500Y-30025000D01*
G75*
G02*
X9900000Y-30262500I0J-237500D01*
G01*
G37*
G36*
G01*
X8075000Y-32762500D02*
X8075000Y-33237500D01*
G75*
G02*
X7837500Y-33475000I-237500J0D01*
G01*
X7337500Y-33475000D01*
G75*
G02*
X7100000Y-33237500I0J237500D01*
G01*
X7100000Y-32762500D01*
G75*
G02*
X7337500Y-32525000I237500J0D01*
G01*
X7837500Y-32525000D01*
G75*
G02*
X8075000Y-32762500I0J-237500D01*
G01*
G37*
G36*
G01*
X9900000Y-32762500D02*
X9900000Y-33237500D01*
G75*
G02*
X9662500Y-33475000I-237500J0D01*
G01*
X9162500Y-33475000D01*
G75*
G02*
X8925000Y-33237500I0J237500D01*
G01*
X8925000Y-32762500D01*
G75*
G02*
X9162500Y-32525000I237500J0D01*
G01*
X9662500Y-32525000D01*
G75*
G02*
X9900000Y-32762500I0J-237500D01*
G01*
G37*
G36*
G01*
X32075000Y-50762500D02*
X32075000Y-51237500D01*
G75*
G02*
X31837500Y-51475000I-237500J0D01*
G01*
X31337500Y-51475000D01*
G75*
G02*
X31100000Y-51237500I0J237500D01*
G01*
X31100000Y-50762500D01*
G75*
G02*
X31337500Y-50525000I237500J0D01*
G01*
X31837500Y-50525000D01*
G75*
G02*
X32075000Y-50762500I0J-237500D01*
G01*
G37*
G36*
G01*
X33900000Y-50762500D02*
X33900000Y-51237500D01*
G75*
G02*
X33662500Y-51475000I-237500J0D01*
G01*
X33162500Y-51475000D01*
G75*
G02*
X32925000Y-51237500I0J237500D01*
G01*
X32925000Y-50762500D01*
G75*
G02*
X33162500Y-50525000I237500J0D01*
G01*
X33662500Y-50525000D01*
G75*
G02*
X33900000Y-50762500I0J-237500D01*
G01*
G37*
G36*
G01*
X8075000Y-27762500D02*
X8075000Y-28237500D01*
G75*
G02*
X7837500Y-28475000I-237500J0D01*
G01*
X7337500Y-28475000D01*
G75*
G02*
X7100000Y-28237500I0J237500D01*
G01*
X7100000Y-27762500D01*
G75*
G02*
X7337500Y-27525000I237500J0D01*
G01*
X7837500Y-27525000D01*
G75*
G02*
X8075000Y-27762500I0J-237500D01*
G01*
G37*
G36*
G01*
X9900000Y-27762500D02*
X9900000Y-28237500D01*
G75*
G02*
X9662500Y-28475000I-237500J0D01*
G01*
X9162500Y-28475000D01*
G75*
G02*
X8925000Y-28237500I0J237500D01*
G01*
X8925000Y-27762500D01*
G75*
G02*
X9162500Y-27525000I237500J0D01*
G01*
X9662500Y-27525000D01*
G75*
G02*
X9900000Y-27762500I0J-237500D01*
G01*
G37*
G36*
G01*
X8075000Y-25262500D02*
X8075000Y-25737500D01*
G75*
G02*
X7837500Y-25975000I-237500J0D01*
G01*
X7337500Y-25975000D01*
G75*
G02*
X7100000Y-25737500I0J237500D01*
G01*
X7100000Y-25262500D01*
G75*
G02*
X7337500Y-25025000I237500J0D01*
G01*
X7837500Y-25025000D01*
G75*
G02*
X8075000Y-25262500I0J-237500D01*
G01*
G37*
G36*
G01*
X9900000Y-25262500D02*
X9900000Y-25737500D01*
G75*
G02*
X9662500Y-25975000I-237500J0D01*
G01*
X9162500Y-25975000D01*
G75*
G02*
X8925000Y-25737500I0J237500D01*
G01*
X8925000Y-25262500D01*
G75*
G02*
X9162500Y-25025000I237500J0D01*
G01*
X9662500Y-25025000D01*
G75*
G02*
X9900000Y-25262500I0J-237500D01*
G01*
G37*
G36*
G01*
X27925000Y-51237500D02*
X27925000Y-50762500D01*
G75*
G02*
X28162500Y-50525000I237500J0D01*
G01*
X28662500Y-50525000D01*
G75*
G02*
X28900000Y-50762500I0J-237500D01*
G01*
X28900000Y-51237500D01*
G75*
G02*
X28662500Y-51475000I-237500J0D01*
G01*
X28162500Y-51475000D01*
G75*
G02*
X27925000Y-51237500I0J237500D01*
G01*
G37*
G36*
G01*
X26100000Y-51237500D02*
X26100000Y-50762500D01*
G75*
G02*
X26337500Y-50525000I237500J0D01*
G01*
X26837500Y-50525000D01*
G75*
G02*
X27075000Y-50762500I0J-237500D01*
G01*
X27075000Y-51237500D01*
G75*
G02*
X26837500Y-51475000I-237500J0D01*
G01*
X26337500Y-51475000D01*
G75*
G02*
X26100000Y-51237500I0J237500D01*
G01*
G37*
G36*
G01*
X27925000Y-48237500D02*
X27925000Y-47762500D01*
G75*
G02*
X28162500Y-47525000I237500J0D01*
G01*
X28662500Y-47525000D01*
G75*
G02*
X28900000Y-47762500I0J-237500D01*
G01*
X28900000Y-48237500D01*
G75*
G02*
X28662500Y-48475000I-237500J0D01*
G01*
X28162500Y-48475000D01*
G75*
G02*
X27925000Y-48237500I0J237500D01*
G01*
G37*
G36*
G01*
X26100000Y-48237500D02*
X26100000Y-47762500D01*
G75*
G02*
X26337500Y-47525000I237500J0D01*
G01*
X26837500Y-47525000D01*
G75*
G02*
X27075000Y-47762500I0J-237500D01*
G01*
X27075000Y-48237500D01*
G75*
G02*
X26837500Y-48475000I-237500J0D01*
G01*
X26337500Y-48475000D01*
G75*
G02*
X26100000Y-48237500I0J237500D01*
G01*
G37*
G36*
G01*
X37075000Y-8762500D02*
X37075000Y-9237500D01*
G75*
G02*
X36837500Y-9475000I-237500J0D01*
G01*
X36337500Y-9475000D01*
G75*
G02*
X36100000Y-9237500I0J237500D01*
G01*
X36100000Y-8762500D01*
G75*
G02*
X36337500Y-8525000I237500J0D01*
G01*
X36837500Y-8525000D01*
G75*
G02*
X37075000Y-8762500I0J-237500D01*
G01*
G37*
G36*
G01*
X38900000Y-8762500D02*
X38900000Y-9237500D01*
G75*
G02*
X38662500Y-9475000I-237500J0D01*
G01*
X38162500Y-9475000D01*
G75*
G02*
X37925000Y-9237500I0J237500D01*
G01*
X37925000Y-8762500D01*
G75*
G02*
X38162500Y-8525000I237500J0D01*
G01*
X38662500Y-8525000D01*
G75*
G02*
X38900000Y-8762500I0J-237500D01*
G01*
G37*
G36*
G01*
X30575000Y-8762500D02*
X30575000Y-9237500D01*
G75*
G02*
X30337500Y-9475000I-237500J0D01*
G01*
X29837500Y-9475000D01*
G75*
G02*
X29600000Y-9237500I0J237500D01*
G01*
X29600000Y-8762500D01*
G75*
G02*
X29837500Y-8525000I237500J0D01*
G01*
X30337500Y-8525000D01*
G75*
G02*
X30575000Y-8762500I0J-237500D01*
G01*
G37*
G36*
G01*
X32400000Y-8762500D02*
X32400000Y-9237500D01*
G75*
G02*
X32162500Y-9475000I-237500J0D01*
G01*
X31662500Y-9475000D01*
G75*
G02*
X31425000Y-9237500I0J237500D01*
G01*
X31425000Y-8762500D01*
G75*
G02*
X31662500Y-8525000I237500J0D01*
G01*
X32162500Y-8525000D01*
G75*
G02*
X32400000Y-8762500I0J-237500D01*
G01*
G37*
G36*
G01*
X23575000Y-8762500D02*
X23575000Y-9237500D01*
G75*
G02*
X23337500Y-9475000I-237500J0D01*
G01*
X22837500Y-9475000D01*
G75*
G02*
X22600000Y-9237500I0J237500D01*
G01*
X22600000Y-8762500D01*
G75*
G02*
X22837500Y-8525000I237500J0D01*
G01*
X23337500Y-8525000D01*
G75*
G02*
X23575000Y-8762500I0J-237500D01*
G01*
G37*
G36*
G01*
X25400000Y-8762500D02*
X25400000Y-9237500D01*
G75*
G02*
X25162500Y-9475000I-237500J0D01*
G01*
X24662500Y-9475000D01*
G75*
G02*
X24425000Y-9237500I0J237500D01*
G01*
X24425000Y-8762500D01*
G75*
G02*
X24662500Y-8525000I237500J0D01*
G01*
X25162500Y-8525000D01*
G75*
G02*
X25400000Y-8762500I0J-237500D01*
G01*
G37*
G36*
G01*
X17075000Y-8762500D02*
X17075000Y-9237500D01*
G75*
G02*
X16837500Y-9475000I-237500J0D01*
G01*
X16337500Y-9475000D01*
G75*
G02*
X16100000Y-9237500I0J237500D01*
G01*
X16100000Y-8762500D01*
G75*
G02*
X16337500Y-8525000I237500J0D01*
G01*
X16837500Y-8525000D01*
G75*
G02*
X17075000Y-8762500I0J-237500D01*
G01*
G37*
G36*
G01*
X18900000Y-8762500D02*
X18900000Y-9237500D01*
G75*
G02*
X18662500Y-9475000I-237500J0D01*
G01*
X18162500Y-9475000D01*
G75*
G02*
X17925000Y-9237500I0J237500D01*
G01*
X17925000Y-8762500D01*
G75*
G02*
X18162500Y-8525000I237500J0D01*
G01*
X18662500Y-8525000D01*
G75*
G02*
X18900000Y-8762500I0J-237500D01*
G01*
G37*
G36*
G01*
X27075000Y-67262500D02*
X27075000Y-67737500D01*
G75*
G02*
X26837500Y-67975000I-237500J0D01*
G01*
X26337500Y-67975000D01*
G75*
G02*
X26100000Y-67737500I0J237500D01*
G01*
X26100000Y-67262500D01*
G75*
G02*
X26337500Y-67025000I237500J0D01*
G01*
X26837500Y-67025000D01*
G75*
G02*
X27075000Y-67262500I0J-237500D01*
G01*
G37*
G36*
G01*
X28900000Y-67262500D02*
X28900000Y-67737500D01*
G75*
G02*
X28662500Y-67975000I-237500J0D01*
G01*
X28162500Y-67975000D01*
G75*
G02*
X27925000Y-67737500I0J237500D01*
G01*
X27925000Y-67262500D01*
G75*
G02*
X28162500Y-67025000I237500J0D01*
G01*
X28662500Y-67025000D01*
G75*
G02*
X28900000Y-67262500I0J-237500D01*
G01*
G37*
G36*
G01*
X22075000Y-67262500D02*
X22075000Y-67737500D01*
G75*
G02*
X21837500Y-67975000I-237500J0D01*
G01*
X21337500Y-67975000D01*
G75*
G02*
X21100000Y-67737500I0J237500D01*
G01*
X21100000Y-67262500D01*
G75*
G02*
X21337500Y-67025000I237500J0D01*
G01*
X21837500Y-67025000D01*
G75*
G02*
X22075000Y-67262500I0J-237500D01*
G01*
G37*
G36*
G01*
X23900000Y-67262500D02*
X23900000Y-67737500D01*
G75*
G02*
X23662500Y-67975000I-237500J0D01*
G01*
X23162500Y-67975000D01*
G75*
G02*
X22925000Y-67737500I0J237500D01*
G01*
X22925000Y-67262500D01*
G75*
G02*
X23162500Y-67025000I237500J0D01*
G01*
X23662500Y-67025000D01*
G75*
G02*
X23900000Y-67262500I0J-237500D01*
G01*
G37*
G36*
G01*
X32075000Y-67262500D02*
X32075000Y-67737500D01*
G75*
G02*
X31837500Y-67975000I-237500J0D01*
G01*
X31337500Y-67975000D01*
G75*
G02*
X31100000Y-67737500I0J237500D01*
G01*
X31100000Y-67262500D01*
G75*
G02*
X31337500Y-67025000I237500J0D01*
G01*
X31837500Y-67025000D01*
G75*
G02*
X32075000Y-67262500I0J-237500D01*
G01*
G37*
G36*
G01*
X33900000Y-67262500D02*
X33900000Y-67737500D01*
G75*
G02*
X33662500Y-67975000I-237500J0D01*
G01*
X33162500Y-67975000D01*
G75*
G02*
X32925000Y-67737500I0J237500D01*
G01*
X32925000Y-67262500D01*
G75*
G02*
X33162500Y-67025000I237500J0D01*
G01*
X33662500Y-67025000D01*
G75*
G02*
X33900000Y-67262500I0J-237500D01*
G01*
G37*
G36*
G01*
X41075000Y-52262500D02*
X41075000Y-52737500D01*
G75*
G02*
X40837500Y-52975000I-237500J0D01*
G01*
X40337500Y-52975000D01*
G75*
G02*
X40100000Y-52737500I0J237500D01*
G01*
X40100000Y-52262500D01*
G75*
G02*
X40337500Y-52025000I237500J0D01*
G01*
X40837500Y-52025000D01*
G75*
G02*
X41075000Y-52262500I0J-237500D01*
G01*
G37*
G36*
G01*
X42900000Y-52262500D02*
X42900000Y-52737500D01*
G75*
G02*
X42662500Y-52975000I-237500J0D01*
G01*
X42162500Y-52975000D01*
G75*
G02*
X41925000Y-52737500I0J237500D01*
G01*
X41925000Y-52262500D01*
G75*
G02*
X42162500Y-52025000I237500J0D01*
G01*
X42662500Y-52025000D01*
G75*
G02*
X42900000Y-52262500I0J-237500D01*
G01*
G37*
D21*
X2500000Y-15000000D03*
X2500000Y-17000000D03*
X2500000Y-19000000D03*
X2500000Y-21000000D03*
X2500000Y-23000000D03*
G36*
G01*
X3125001Y-25600000D02*
X1874999Y-25600000D01*
G75*
G02*
X1625000Y-25350001I0J249999D01*
G01*
X1625000Y-24649999D01*
G75*
G02*
X1874999Y-24400000I249999J0D01*
G01*
X3125001Y-24400000D01*
G75*
G02*
X3375000Y-24649999I0J-249999D01*
G01*
X3375000Y-25350001D01*
G75*
G02*
X3125001Y-25600000I-249999J0D01*
G01*
G37*
D22*
X51220000Y-56320000D03*
X51220000Y-51680000D03*
D23*
X53450000Y-50425000D03*
X53450000Y-57575000D03*
D24*
X53450000Y-55125000D03*
D25*
X50800000Y-54000000D03*
X50800000Y-53350000D03*
X50800000Y-52700000D03*
X50800000Y-55300000D03*
X50800000Y-54650000D03*
D24*
X53450000Y-52875000D03*
G36*
G01*
X7249999Y-50125000D02*
X9750001Y-50125000D01*
G75*
G02*
X10000000Y-50374999I0J-249999D01*
G01*
X10000000Y-51975001D01*
G75*
G02*
X9750001Y-52225000I-249999J0D01*
G01*
X7249999Y-52225000D01*
G75*
G02*
X7000000Y-51975001I0J249999D01*
G01*
X7000000Y-50374999D01*
G75*
G02*
X7249999Y-50125000I249999J0D01*
G01*
G37*
G36*
G01*
X7249999Y-43775000D02*
X9750001Y-43775000D01*
G75*
G02*
X10000000Y-44024999I0J-249999D01*
G01*
X10000000Y-45625001D01*
G75*
G02*
X9750001Y-45875000I-249999J0D01*
G01*
X7249999Y-45875000D01*
G75*
G02*
X7000000Y-45625001I0J249999D01*
G01*
X7000000Y-44024999D01*
G75*
G02*
X7249999Y-43775000I249999J0D01*
G01*
G37*
G36*
G01*
X10800000Y-48225000D02*
X12000000Y-48225000D01*
G75*
G02*
X12200000Y-48425000I0J-200000D01*
G01*
X12200000Y-48825000D01*
G75*
G02*
X12000000Y-49025000I-200000J0D01*
G01*
X10800000Y-49025000D01*
G75*
G02*
X10600000Y-48825000I0J200000D01*
G01*
X10600000Y-48425000D01*
G75*
G02*
X10800000Y-48225000I200000J0D01*
G01*
G37*
G36*
G01*
X10800000Y-46975000D02*
X12000000Y-46975000D01*
G75*
G02*
X12200000Y-47175000I0J-200000D01*
G01*
X12200000Y-47575000D01*
G75*
G02*
X12000000Y-47775000I-200000J0D01*
G01*
X10800000Y-47775000D01*
G75*
G02*
X10600000Y-47575000I0J200000D01*
G01*
X10600000Y-47175000D01*
G75*
G02*
X10800000Y-46975000I200000J0D01*
G01*
G37*
G36*
G01*
X32050000Y-64549999D02*
X32050000Y-65450001D01*
G75*
G02*
X31800001Y-65700000I-249999J0D01*
G01*
X31149999Y-65700000D01*
G75*
G02*
X30900000Y-65450001I0J249999D01*
G01*
X30900000Y-64549999D01*
G75*
G02*
X31149999Y-64300000I249999J0D01*
G01*
X31800001Y-64300000D01*
G75*
G02*
X32050000Y-64549999I0J-249999D01*
G01*
G37*
G36*
G01*
X34100000Y-64549999D02*
X34100000Y-65450001D01*
G75*
G02*
X33850001Y-65700000I-249999J0D01*
G01*
X33199999Y-65700000D01*
G75*
G02*
X32950000Y-65450001I0J249999D01*
G01*
X32950000Y-64549999D01*
G75*
G02*
X33199999Y-64300000I249999J0D01*
G01*
X33850001Y-64300000D01*
G75*
G02*
X34100000Y-64549999I0J-249999D01*
G01*
G37*
G36*
G01*
X37050000Y-11049999D02*
X37050000Y-11950001D01*
G75*
G02*
X36800001Y-12200000I-249999J0D01*
G01*
X36149999Y-12200000D01*
G75*
G02*
X35900000Y-11950001I0J249999D01*
G01*
X35900000Y-11049999D01*
G75*
G02*
X36149999Y-10800000I249999J0D01*
G01*
X36800001Y-10800000D01*
G75*
G02*
X37050000Y-11049999I0J-249999D01*
G01*
G37*
G36*
G01*
X39100000Y-11049999D02*
X39100000Y-11950001D01*
G75*
G02*
X38850001Y-12200000I-249999J0D01*
G01*
X38199999Y-12200000D01*
G75*
G02*
X37950000Y-11950001I0J249999D01*
G01*
X37950000Y-11049999D01*
G75*
G02*
X38199999Y-10800000I249999J0D01*
G01*
X38850001Y-10800000D01*
G75*
G02*
X39100000Y-11049999I0J-249999D01*
G01*
G37*
G36*
G01*
X30380000Y-11049999D02*
X30380000Y-11950001D01*
G75*
G02*
X30130001Y-12200000I-249999J0D01*
G01*
X29479999Y-12200000D01*
G75*
G02*
X29230000Y-11950001I0J249999D01*
G01*
X29230000Y-11049999D01*
G75*
G02*
X29479999Y-10800000I249999J0D01*
G01*
X30130001Y-10800000D01*
G75*
G02*
X30380000Y-11049999I0J-249999D01*
G01*
G37*
G36*
G01*
X32430000Y-11049999D02*
X32430000Y-11950001D01*
G75*
G02*
X32180001Y-12200000I-249999J0D01*
G01*
X31529999Y-12200000D01*
G75*
G02*
X31280000Y-11950001I0J249999D01*
G01*
X31280000Y-11049999D01*
G75*
G02*
X31529999Y-10800000I249999J0D01*
G01*
X32180001Y-10800000D01*
G75*
G02*
X32430000Y-11049999I0J-249999D01*
G01*
G37*
G36*
G01*
X23720000Y-11049999D02*
X23720000Y-11950001D01*
G75*
G02*
X23470001Y-12200000I-249999J0D01*
G01*
X22819999Y-12200000D01*
G75*
G02*
X22570000Y-11950001I0J249999D01*
G01*
X22570000Y-11049999D01*
G75*
G02*
X22819999Y-10800000I249999J0D01*
G01*
X23470001Y-10800000D01*
G75*
G02*
X23720000Y-11049999I0J-249999D01*
G01*
G37*
G36*
G01*
X25770000Y-11049999D02*
X25770000Y-11950001D01*
G75*
G02*
X25520001Y-12200000I-249999J0D01*
G01*
X24869999Y-12200000D01*
G75*
G02*
X24620000Y-11950001I0J249999D01*
G01*
X24620000Y-11049999D01*
G75*
G02*
X24869999Y-10800000I249999J0D01*
G01*
X25520001Y-10800000D01*
G75*
G02*
X25770000Y-11049999I0J-249999D01*
G01*
G37*
G36*
G01*
X17050000Y-11049999D02*
X17050000Y-11950001D01*
G75*
G02*
X16800001Y-12200000I-249999J0D01*
G01*
X16149999Y-12200000D01*
G75*
G02*
X15900000Y-11950001I0J249999D01*
G01*
X15900000Y-11049999D01*
G75*
G02*
X16149999Y-10800000I249999J0D01*
G01*
X16800001Y-10800000D01*
G75*
G02*
X17050000Y-11049999I0J-249999D01*
G01*
G37*
G36*
G01*
X19100000Y-11049999D02*
X19100000Y-11950001D01*
G75*
G02*
X18850001Y-12200000I-249999J0D01*
G01*
X18199999Y-12200000D01*
G75*
G02*
X17950000Y-11950001I0J249999D01*
G01*
X17950000Y-11049999D01*
G75*
G02*
X18199999Y-10800000I249999J0D01*
G01*
X18850001Y-10800000D01*
G75*
G02*
X19100000Y-11049999I0J-249999D01*
G01*
G37*
G36*
G01*
X27050000Y-64549999D02*
X27050000Y-65450001D01*
G75*
G02*
X26800001Y-65700000I-249999J0D01*
G01*
X26149999Y-65700000D01*
G75*
G02*
X25900000Y-65450001I0J249999D01*
G01*
X25900000Y-64549999D01*
G75*
G02*
X26149999Y-64300000I249999J0D01*
G01*
X26800001Y-64300000D01*
G75*
G02*
X27050000Y-64549999I0J-249999D01*
G01*
G37*
G36*
G01*
X29100000Y-64549999D02*
X29100000Y-65450001D01*
G75*
G02*
X28850001Y-65700000I-249999J0D01*
G01*
X28199999Y-65700000D01*
G75*
G02*
X27950000Y-65450001I0J249999D01*
G01*
X27950000Y-64549999D01*
G75*
G02*
X28199999Y-64300000I249999J0D01*
G01*
X28850001Y-64300000D01*
G75*
G02*
X29100000Y-64549999I0J-249999D01*
G01*
G37*
G36*
G01*
X22050000Y-64524999D02*
X22050000Y-65425001D01*
G75*
G02*
X21800001Y-65675000I-249999J0D01*
G01*
X21149999Y-65675000D01*
G75*
G02*
X20900000Y-65425001I0J249999D01*
G01*
X20900000Y-64524999D01*
G75*
G02*
X21149999Y-64275000I249999J0D01*
G01*
X21800001Y-64275000D01*
G75*
G02*
X22050000Y-64524999I0J-249999D01*
G01*
G37*
G36*
G01*
X24100000Y-64524999D02*
X24100000Y-65425001D01*
G75*
G02*
X23850001Y-65675000I-249999J0D01*
G01*
X23199999Y-65675000D01*
G75*
G02*
X22950000Y-65425001I0J249999D01*
G01*
X22950000Y-64524999D01*
G75*
G02*
X23199999Y-64275000I249999J0D01*
G01*
X23850001Y-64275000D01*
G75*
G02*
X24100000Y-64524999I0J-249999D01*
G01*
G37*
G36*
G01*
X12825000Y-42237500D02*
X12825000Y-41762500D01*
G75*
G02*
X13062500Y-41525000I237500J0D01*
G01*
X13662500Y-41525000D01*
G75*
G02*
X13900000Y-41762500I0J-237500D01*
G01*
X13900000Y-42237500D01*
G75*
G02*
X13662500Y-42475000I-237500J0D01*
G01*
X13062500Y-42475000D01*
G75*
G02*
X12825000Y-42237500I0J237500D01*
G01*
G37*
G36*
G01*
X11100000Y-42237500D02*
X11100000Y-41762500D01*
G75*
G02*
X11337500Y-41525000I237500J0D01*
G01*
X11937500Y-41525000D01*
G75*
G02*
X12175000Y-41762500I0J-237500D01*
G01*
X12175000Y-42237500D01*
G75*
G02*
X11937500Y-42475000I-237500J0D01*
G01*
X11337500Y-42475000D01*
G75*
G02*
X11100000Y-42237500I0J237500D01*
G01*
G37*
G36*
G01*
X12825000Y-71237500D02*
X12825000Y-70762500D01*
G75*
G02*
X13062500Y-70525000I237500J0D01*
G01*
X13662500Y-70525000D01*
G75*
G02*
X13900000Y-70762500I0J-237500D01*
G01*
X13900000Y-71237500D01*
G75*
G02*
X13662500Y-71475000I-237500J0D01*
G01*
X13062500Y-71475000D01*
G75*
G02*
X12825000Y-71237500I0J237500D01*
G01*
G37*
G36*
G01*
X11100000Y-71237500D02*
X11100000Y-70762500D01*
G75*
G02*
X11337500Y-70525000I237500J0D01*
G01*
X11937500Y-70525000D01*
G75*
G02*
X12175000Y-70762500I0J-237500D01*
G01*
X12175000Y-71237500D01*
G75*
G02*
X11937500Y-71475000I-237500J0D01*
G01*
X11337500Y-71475000D01*
G75*
G02*
X11100000Y-71237500I0J237500D01*
G01*
G37*
G36*
G01*
X42825000Y-71237500D02*
X42825000Y-70762500D01*
G75*
G02*
X43062500Y-70525000I237500J0D01*
G01*
X43662500Y-70525000D01*
G75*
G02*
X43900000Y-70762500I0J-237500D01*
G01*
X43900000Y-71237500D01*
G75*
G02*
X43662500Y-71475000I-237500J0D01*
G01*
X43062500Y-71475000D01*
G75*
G02*
X42825000Y-71237500I0J237500D01*
G01*
G37*
G36*
G01*
X41100000Y-71237500D02*
X41100000Y-70762500D01*
G75*
G02*
X41337500Y-70525000I237500J0D01*
G01*
X41937500Y-70525000D01*
G75*
G02*
X42175000Y-70762500I0J-237500D01*
G01*
X42175000Y-71237500D01*
G75*
G02*
X41937500Y-71475000I-237500J0D01*
G01*
X41337500Y-71475000D01*
G75*
G02*
X41100000Y-71237500I0J237500D01*
G01*
G37*
G36*
G01*
X38325000Y-46737500D02*
X38325000Y-46262500D01*
G75*
G02*
X38562500Y-46025000I237500J0D01*
G01*
X39162500Y-46025000D01*
G75*
G02*
X39400000Y-46262500I0J-237500D01*
G01*
X39400000Y-46737500D01*
G75*
G02*
X39162500Y-46975000I-237500J0D01*
G01*
X38562500Y-46975000D01*
G75*
G02*
X38325000Y-46737500I0J237500D01*
G01*
G37*
G36*
G01*
X36600000Y-46737500D02*
X36600000Y-46262500D01*
G75*
G02*
X36837500Y-46025000I237500J0D01*
G01*
X37437500Y-46025000D01*
G75*
G02*
X37675000Y-46262500I0J-237500D01*
G01*
X37675000Y-46737500D01*
G75*
G02*
X37437500Y-46975000I-237500J0D01*
G01*
X36837500Y-46975000D01*
G75*
G02*
X36600000Y-46737500I0J237500D01*
G01*
G37*
G36*
G01*
X22312500Y-50762500D02*
X22312500Y-51237500D01*
G75*
G02*
X22075000Y-51475000I-237500J0D01*
G01*
X21475000Y-51475000D01*
G75*
G02*
X21237500Y-51237500I0J237500D01*
G01*
X21237500Y-50762500D01*
G75*
G02*
X21475000Y-50525000I237500J0D01*
G01*
X22075000Y-50525000D01*
G75*
G02*
X22312500Y-50762500I0J-237500D01*
G01*
G37*
G36*
G01*
X24037500Y-50762500D02*
X24037500Y-51237500D01*
G75*
G02*
X23800000Y-51475000I-237500J0D01*
G01*
X23200000Y-51475000D01*
G75*
G02*
X22962500Y-51237500I0J237500D01*
G01*
X22962500Y-50762500D01*
G75*
G02*
X23200000Y-50525000I237500J0D01*
G01*
X23800000Y-50525000D01*
G75*
G02*
X24037500Y-50762500I0J-237500D01*
G01*
G37*
G36*
G01*
X22675000Y-57762500D02*
X22675000Y-58237500D01*
G75*
G02*
X22437500Y-58475000I-237500J0D01*
G01*
X21837500Y-58475000D01*
G75*
G02*
X21600000Y-58237500I0J237500D01*
G01*
X21600000Y-57762500D01*
G75*
G02*
X21837500Y-57525000I237500J0D01*
G01*
X22437500Y-57525000D01*
G75*
G02*
X22675000Y-57762500I0J-237500D01*
G01*
G37*
G36*
G01*
X24400000Y-57762500D02*
X24400000Y-58237500D01*
G75*
G02*
X24162500Y-58475000I-237500J0D01*
G01*
X23562500Y-58475000D01*
G75*
G02*
X23325000Y-58237500I0J237500D01*
G01*
X23325000Y-57762500D01*
G75*
G02*
X23562500Y-57525000I237500J0D01*
G01*
X24162500Y-57525000D01*
G75*
G02*
X24400000Y-57762500I0J-237500D01*
G01*
G37*
G36*
G01*
X22675000Y-55762500D02*
X22675000Y-56237500D01*
G75*
G02*
X22437500Y-56475000I-237500J0D01*
G01*
X21837500Y-56475000D01*
G75*
G02*
X21600000Y-56237500I0J237500D01*
G01*
X21600000Y-55762500D01*
G75*
G02*
X21837500Y-55525000I237500J0D01*
G01*
X22437500Y-55525000D01*
G75*
G02*
X22675000Y-55762500I0J-237500D01*
G01*
G37*
G36*
G01*
X24400000Y-55762500D02*
X24400000Y-56237500D01*
G75*
G02*
X24162500Y-56475000I-237500J0D01*
G01*
X23562500Y-56475000D01*
G75*
G02*
X23325000Y-56237500I0J237500D01*
G01*
X23325000Y-55762500D01*
G75*
G02*
X23562500Y-55525000I237500J0D01*
G01*
X24162500Y-55525000D01*
G75*
G02*
X24400000Y-55762500I0J-237500D01*
G01*
G37*
G36*
G01*
X46175000Y-36262500D02*
X46175000Y-36737500D01*
G75*
G02*
X45937500Y-36975000I-237500J0D01*
G01*
X45337500Y-36975000D01*
G75*
G02*
X45100000Y-36737500I0J237500D01*
G01*
X45100000Y-36262500D01*
G75*
G02*
X45337500Y-36025000I237500J0D01*
G01*
X45937500Y-36025000D01*
G75*
G02*
X46175000Y-36262500I0J-237500D01*
G01*
G37*
G36*
G01*
X47900000Y-36262500D02*
X47900000Y-36737500D01*
G75*
G02*
X47662500Y-36975000I-237500J0D01*
G01*
X47062500Y-36975000D01*
G75*
G02*
X46825000Y-36737500I0J237500D01*
G01*
X46825000Y-36262500D01*
G75*
G02*
X47062500Y-36025000I237500J0D01*
G01*
X47662500Y-36025000D01*
G75*
G02*
X47900000Y-36262500I0J-237500D01*
G01*
G37*
G36*
G01*
X36574999Y-57150000D02*
X37425001Y-57150000D01*
G75*
G02*
X37675000Y-57399999I0J-249999D01*
G01*
X37675000Y-58300001D01*
G75*
G02*
X37425001Y-58550000I-249999J0D01*
G01*
X36574999Y-58550000D01*
G75*
G02*
X36325000Y-58300001I0J249999D01*
G01*
X36325000Y-57399999D01*
G75*
G02*
X36574999Y-57150000I249999J0D01*
G01*
G37*
G36*
G01*
X36574999Y-54450000D02*
X37425001Y-54450000D01*
G75*
G02*
X37675000Y-54699999I0J-249999D01*
G01*
X37675000Y-55600001D01*
G75*
G02*
X37425001Y-55850000I-249999J0D01*
G01*
X36574999Y-55850000D01*
G75*
G02*
X36325000Y-55600001I0J249999D01*
G01*
X36325000Y-54699999D01*
G75*
G02*
X36574999Y-54450000I249999J0D01*
G01*
G37*
G36*
G01*
X45574999Y-57150000D02*
X46425001Y-57150000D01*
G75*
G02*
X46675000Y-57399999I0J-249999D01*
G01*
X46675000Y-58300001D01*
G75*
G02*
X46425001Y-58550000I-249999J0D01*
G01*
X45574999Y-58550000D01*
G75*
G02*
X45325000Y-58300001I0J249999D01*
G01*
X45325000Y-57399999D01*
G75*
G02*
X45574999Y-57150000I249999J0D01*
G01*
G37*
G36*
G01*
X45574999Y-54450000D02*
X46425001Y-54450000D01*
G75*
G02*
X46675000Y-54699999I0J-249999D01*
G01*
X46675000Y-55600001D01*
G75*
G02*
X46425001Y-55850000I-249999J0D01*
G01*
X45574999Y-55850000D01*
G75*
G02*
X45325000Y-55600001I0J249999D01*
G01*
X45325000Y-54699999D01*
G75*
G02*
X45574999Y-54450000I249999J0D01*
G01*
G37*
M02*
