G04 #@! TF.GenerationSoftware,KiCad,Pcbnew,(5.1.10)-1*
G04 #@! TF.CreationDate,2021-09-06T12:39:18+09:00*
G04 #@! TF.ProjectId,controller,636f6e74-726f-46c6-9c65-722e6b696361,rev?*
G04 #@! TF.SameCoordinates,Original*
G04 #@! TF.FileFunction,Copper,L2,Bot*
G04 #@! TF.FilePolarity,Positive*
%FSLAX46Y46*%
G04 Gerber Fmt 4.6, Leading zero omitted, Abs format (unit mm)*
G04 Created by KiCad (PCBNEW (5.1.10)-1) date 2021-09-06 12:39:18*
%MOMM*%
%LPD*%
G01*
G04 APERTURE LIST*
G04 #@! TA.AperFunction,ComponentPad*
%ADD10O,2.000000X2.000000*%
G04 #@! TD*
G04 #@! TA.AperFunction,ComponentPad*
%ADD11R,2.000000X2.000000*%
G04 #@! TD*
G04 #@! TA.AperFunction,ComponentPad*
%ADD12R,1.905000X1.905000*%
G04 #@! TD*
G04 #@! TA.AperFunction,ComponentPad*
%ADD13C,1.905000*%
G04 #@! TD*
G04 #@! TA.AperFunction,ComponentPad*
%ADD14O,1.700000X1.700000*%
G04 #@! TD*
G04 #@! TA.AperFunction,ComponentPad*
%ADD15R,1.700000X1.700000*%
G04 #@! TD*
G04 #@! TA.AperFunction,ComponentPad*
%ADD16O,1.750000X1.200000*%
G04 #@! TD*
G04 #@! TA.AperFunction,ComponentPad*
%ADD17O,1.900000X1.050000*%
G04 #@! TD*
G04 #@! TA.AperFunction,ComponentPad*
%ADD18C,2.540000*%
G04 #@! TD*
G04 #@! TA.AperFunction,SMDPad,CuDef*
%ADD19R,2.000000X0.900000*%
G04 #@! TD*
G04 #@! TA.AperFunction,SMDPad,CuDef*
%ADD20R,0.900000X2.000000*%
G04 #@! TD*
G04 #@! TA.AperFunction,SMDPad,CuDef*
%ADD21R,1.330000X1.330000*%
G04 #@! TD*
G04 #@! TA.AperFunction,ViaPad*
%ADD22C,0.800000*%
G04 #@! TD*
G04 #@! TA.AperFunction,Conductor*
%ADD23C,0.500000*%
G04 #@! TD*
G04 #@! TA.AperFunction,Conductor*
%ADD24C,0.250000*%
G04 #@! TD*
G04 #@! TA.AperFunction,Conductor*
%ADD25C,0.100000*%
G04 #@! TD*
G04 APERTURE END LIST*
D10*
X48000000Y-22920000D03*
D11*
X48000000Y-28000000D03*
D12*
X14659000Y-61317000D03*
D13*
X10341000Y-61317000D03*
X10341000Y-68683000D03*
X14659000Y-68683000D03*
D12*
X44659000Y-61317000D03*
D13*
X40341000Y-61317000D03*
X40341000Y-68683000D03*
X44659000Y-68683000D03*
D14*
X52000000Y-33920000D03*
X52000000Y-36460000D03*
D15*
X52000000Y-39000000D03*
D16*
X2500000Y-15000000D03*
X2500000Y-17000000D03*
X2500000Y-19000000D03*
X2500000Y-21000000D03*
X2500000Y-23000000D03*
G04 #@! TA.AperFunction,ComponentPad*
G36*
G01*
X3125001Y-25600000D02*
X1874999Y-25600000D01*
G75*
G02*
X1625000Y-25350001I0J249999D01*
G01*
X1625000Y-24649999D01*
G75*
G02*
X1874999Y-24400000I249999J0D01*
G01*
X3125001Y-24400000D01*
G75*
G02*
X3375000Y-24649999I0J-249999D01*
G01*
X3375000Y-25350001D01*
G75*
G02*
X3125001Y-25600000I-249999J0D01*
G01*
G37*
G04 #@! TD.AperFunction*
D17*
X53450000Y-50425000D03*
X53450000Y-57575000D03*
D13*
X25000000Y-29000000D03*
X27500000Y-29000000D03*
X30000000Y-29000000D03*
X17750000Y-36250000D03*
X17750000Y-38750000D03*
X17750000Y-41250000D03*
D18*
X35750000Y-34900000D03*
X40250000Y-34900000D03*
X40250000Y-42600000D03*
X35750000Y-42600000D03*
X20850000Y-31000000D03*
X34150000Y-31000000D03*
X34150000Y-46500000D03*
X20850000Y-46500000D03*
D19*
X36000000Y-7740000D03*
X36000000Y-9010000D03*
X36000000Y-10280000D03*
X36000000Y-11550000D03*
X36000000Y-12820000D03*
X36000000Y-14090000D03*
X36000000Y-15360000D03*
X36000000Y-16630000D03*
X36000000Y-17900000D03*
X36000000Y-19170000D03*
X36000000Y-20440000D03*
X36000000Y-21710000D03*
X36000000Y-22980000D03*
X36000000Y-24250000D03*
D20*
X33215000Y-25250000D03*
X31945000Y-25250000D03*
X30675000Y-25250000D03*
X29405000Y-25250000D03*
X28135000Y-25250000D03*
X26865000Y-25250000D03*
X25595000Y-25250000D03*
X24325000Y-25250000D03*
X23055000Y-25250000D03*
X21785000Y-25250000D03*
D19*
X19000000Y-24250000D03*
X19000000Y-22980000D03*
X19000000Y-21710000D03*
X19000000Y-20440000D03*
X19000000Y-19170000D03*
X19000000Y-17900000D03*
X19000000Y-16630000D03*
X19000000Y-15360000D03*
X19000000Y-14090000D03*
X19000000Y-12820000D03*
X19000000Y-11550000D03*
X19000000Y-10280000D03*
X19000000Y-9010000D03*
X19000000Y-7740000D03*
D21*
X30335000Y-13405000D03*
X28500000Y-13405000D03*
X26665000Y-13405000D03*
X30335000Y-15240000D03*
X28500000Y-15240000D03*
X26665000Y-15240000D03*
X30335000Y-17075000D03*
X28500000Y-17075000D03*
X26665000Y-17075000D03*
D22*
X32500000Y-53500000D03*
X14375000Y-47375000D03*
X39000000Y-58000000D03*
X39000000Y-55500000D03*
X31000000Y-57000000D03*
X22137500Y-54862500D03*
X40500000Y-49500000D03*
X16587500Y-7912500D03*
X25500000Y-21000000D03*
X27500000Y-23000000D03*
X40500000Y-9000000D03*
X28000000Y-11500000D03*
X37500000Y-66000000D03*
X7500000Y-42500000D03*
X23862500Y-60137500D03*
X25000000Y-13500000D03*
X24500000Y-52500000D03*
X26500000Y-60000000D03*
X25500000Y-55000000D03*
X34000000Y-8000000D03*
X27500000Y-19000000D03*
X21500000Y-9000000D03*
X12000000Y-20000000D03*
X21500000Y-14000000D03*
X23000000Y-15000000D03*
X33025000Y-23000000D03*
X16500000Y-24000000D03*
X26500000Y-11500000D03*
X24000000Y-13000000D03*
X22420000Y-13000000D03*
X4725000Y-20987347D03*
X22987347Y-19512653D03*
X32200000Y-15200000D03*
X33900000Y-13500000D03*
X35000000Y-51000000D03*
X38000000Y-18500000D03*
X15500000Y-46500000D03*
X13500000Y-50500000D03*
X32000000Y-27500000D03*
X39000000Y-19500000D03*
X30500000Y-19500000D03*
X29000000Y-19500000D03*
X32500000Y-56000000D03*
X23500000Y-34000000D03*
X26000000Y-34000000D03*
X23500000Y-46000000D03*
X28500000Y-52500000D03*
X31000000Y-52500000D03*
D23*
X32500000Y-53500000D02*
X20500000Y-53500000D01*
X20500000Y-53500000D02*
X14375000Y-47375000D01*
D24*
X39000000Y-58000000D02*
X39000000Y-55500000D01*
X39000000Y-58000000D02*
X43000000Y-58000000D01*
X44659000Y-59659000D02*
X44659000Y-61317000D01*
X43000000Y-58000000D02*
X44659000Y-59659000D01*
X26665000Y-13405000D02*
X30335000Y-13405000D01*
X30335000Y-13405000D02*
X30335000Y-17075000D01*
X30335000Y-17075000D02*
X26665000Y-17075000D01*
X26665000Y-17075000D02*
X26665000Y-13405000D01*
X28500000Y-13405000D02*
X28500000Y-17075000D01*
X26665000Y-15240000D02*
X30335000Y-15240000D01*
X31000000Y-57000000D02*
X34000000Y-57000000D01*
X35000000Y-58000000D02*
X39000000Y-58000000D01*
X34000000Y-57000000D02*
X35000000Y-58000000D01*
X31000000Y-57000000D02*
X31000000Y-55000000D01*
X22725001Y-54274999D02*
X22137500Y-54862500D01*
X30274999Y-54274999D02*
X22725001Y-54274999D01*
X31000000Y-55000000D02*
X30274999Y-54274999D01*
X39000000Y-51000000D02*
X40500000Y-49500000D01*
X39000000Y-55500000D02*
X39000000Y-51000000D01*
X16760000Y-7740000D02*
X16587500Y-7912500D01*
X19000000Y-7740000D02*
X16760000Y-7740000D01*
X26665000Y-17075000D02*
X26665000Y-18165000D01*
X26665000Y-18165000D02*
X27500000Y-19000000D01*
X23500000Y-19000000D02*
X25500000Y-21000000D01*
X27500000Y-23000000D02*
X25500000Y-21000000D01*
X36000000Y-7740000D02*
X39240000Y-7740000D01*
X39240000Y-7740000D02*
X40500000Y-9000000D01*
X28000000Y-12905000D02*
X28500000Y-13405000D01*
X28000000Y-11500000D02*
X28000000Y-12905000D01*
D23*
X23862500Y-58862500D02*
X23862500Y-60137500D01*
X7500000Y-42500000D02*
X23862500Y-58862500D01*
X36000000Y-9010000D02*
X27490000Y-9010000D01*
X25000000Y-11500000D02*
X25000000Y-13500000D01*
X27490000Y-9010000D02*
X25000000Y-11500000D01*
D24*
X26500000Y-57500000D02*
X26500000Y-60000000D01*
X26000000Y-57000000D02*
X26500000Y-57500000D01*
X25500000Y-56500000D02*
X26000000Y-57000000D01*
X25500000Y-55000000D02*
X25500000Y-56500000D01*
X2500000Y-19000000D02*
X3000000Y-19000000D01*
X14087500Y-7912500D02*
X16587500Y-7912500D01*
X3000000Y-19000000D02*
X14087500Y-7912500D01*
X23500000Y-19000000D02*
X21000000Y-16500000D01*
X20774999Y-16274999D02*
X20774999Y-9725001D01*
X21000000Y-16500000D02*
X20774999Y-16274999D01*
X20774999Y-9725001D02*
X21500000Y-9000000D01*
X33215000Y-30065000D02*
X34150000Y-31000000D01*
X33215000Y-25250000D02*
X33215000Y-30065000D01*
X41976000Y-66000000D02*
X37500000Y-66000000D01*
X44659000Y-68683000D02*
X41976000Y-66000000D01*
X34260000Y-7740000D02*
X34000000Y-8000000D01*
X36000000Y-7740000D02*
X34260000Y-7740000D01*
X27440000Y-20440000D02*
X36000000Y-20440000D01*
X25000000Y-15000000D02*
X25000000Y-18000000D01*
X24000000Y-14000000D02*
X25000000Y-15000000D01*
X25000000Y-18000000D02*
X27440000Y-20440000D01*
X21500000Y-14000000D02*
X24000000Y-14000000D01*
X28073590Y-21710000D02*
X36000000Y-21710000D01*
X23000000Y-16636410D02*
X28073590Y-21710000D01*
X23000000Y-15000000D02*
X23000000Y-16636410D01*
X35980000Y-23000000D02*
X36000000Y-22980000D01*
X33400000Y-23000000D02*
X33025000Y-23000000D01*
X33400000Y-23000000D02*
X35980000Y-23000000D01*
X16750000Y-24250000D02*
X16500000Y-24000000D01*
X19000000Y-24250000D02*
X16750000Y-24250000D01*
X27720000Y-10280000D02*
X26500000Y-11500000D01*
X36000000Y-10280000D02*
X27720000Y-10280000D01*
X24000000Y-13000000D02*
X22420000Y-13000000D01*
X2500000Y-23000000D02*
X4000000Y-21500000D01*
X4000000Y-21500000D02*
X4000000Y-18636410D01*
X11086410Y-11550000D02*
X19000000Y-11550000D01*
X4000000Y-18636410D02*
X11086410Y-11550000D01*
X4725000Y-20987347D02*
X4725000Y-18547820D01*
X10452820Y-12820000D02*
X19000000Y-12820000D01*
X4725000Y-18547820D02*
X10452820Y-12820000D01*
X22644694Y-19170000D02*
X22987347Y-19512653D01*
X19000000Y-19170000D02*
X22644694Y-19170000D01*
X32200000Y-15200000D02*
X33900000Y-13500000D01*
X37250000Y-19170000D02*
X43000000Y-24920000D01*
X36000000Y-19170000D02*
X37250000Y-19170000D01*
X43000000Y-24920000D02*
X43000000Y-42210602D01*
X43000000Y-42210602D02*
X43000000Y-43000000D01*
X43000000Y-43000000D02*
X35000000Y-51000000D01*
X37400000Y-17900000D02*
X38000000Y-18500000D01*
X36000000Y-17900000D02*
X37400000Y-17900000D01*
X15560000Y-20440000D02*
X19000000Y-20440000D01*
X14000000Y-22000000D02*
X15560000Y-20440000D01*
X14000000Y-35500000D02*
X14000000Y-22000000D01*
X13073002Y-36426998D02*
X14000000Y-35500000D01*
X11573002Y-36426998D02*
X13073002Y-36426998D01*
X5500000Y-42500000D02*
X11573002Y-36426998D01*
X7817000Y-61317000D02*
X5500000Y-59000000D01*
X5500000Y-59000000D02*
X5500000Y-42500000D01*
X10341000Y-61317000D02*
X7817000Y-61317000D01*
X19000000Y-21710000D02*
X16290000Y-21710000D01*
X16290000Y-21710000D02*
X15000000Y-23000000D01*
X15000000Y-23000000D02*
X15000000Y-34500000D01*
X15000000Y-46000000D02*
X15500000Y-46500000D01*
X15000000Y-34500000D02*
X15000000Y-46000000D01*
X23751315Y-61317000D02*
X40341000Y-61317000D01*
X13500000Y-51065685D02*
X23751315Y-61317000D01*
X13500000Y-50500000D02*
X13500000Y-51065685D01*
X24500000Y-32500000D02*
X24500000Y-52500000D01*
X23000000Y-31000000D02*
X24500000Y-32500000D01*
X23000000Y-29000000D02*
X23000000Y-31000000D01*
X20500000Y-26500000D02*
X23000000Y-29000000D01*
X20500000Y-23230000D02*
X20500000Y-26500000D01*
X20250000Y-22980000D02*
X20500000Y-23230000D01*
X19000000Y-22980000D02*
X20250000Y-22980000D01*
X31945000Y-27445000D02*
X32000000Y-27500000D01*
X31945000Y-25250000D02*
X31945000Y-27445000D01*
X39000000Y-18380000D02*
X39000000Y-19500000D01*
X37250000Y-16630000D02*
X39000000Y-18380000D01*
X36000000Y-16630000D02*
X37250000Y-16630000D01*
X34750000Y-15360000D02*
X33500000Y-16610000D01*
X36000000Y-15360000D02*
X34750000Y-15360000D01*
X33500000Y-16610000D02*
X33500000Y-18000000D01*
X32000000Y-19500000D02*
X30500000Y-19500000D01*
X33500000Y-18000000D02*
X32000000Y-19500000D01*
X36000000Y-14090000D02*
X34750000Y-14090000D01*
X32500000Y-16340000D02*
X32500000Y-17500000D01*
X32500000Y-17500000D02*
X31500000Y-18500000D01*
X30000000Y-18500000D02*
X29000000Y-19500000D01*
X31500000Y-18500000D02*
X30000000Y-18500000D01*
X34750000Y-14090000D02*
X32500000Y-16340000D01*
X32500000Y-55960000D02*
X32500000Y-56000000D01*
D23*
X52000000Y-36460000D02*
X32500000Y-55960000D01*
D24*
X21250000Y-36250000D02*
X23500000Y-34000000D01*
X17750000Y-36250000D02*
X21250000Y-36250000D01*
X26000000Y-34000000D02*
X27500000Y-34000000D01*
X30000000Y-31500000D02*
X30000000Y-29000000D01*
X27500000Y-34000000D02*
X30000000Y-31500000D01*
X23500000Y-46000000D02*
X23500000Y-34000000D01*
X28500000Y-52500000D02*
X31000000Y-52500000D01*
X53367566Y-7197740D02*
X53890852Y-8442589D01*
X54272117Y-9738016D01*
X54506604Y-11067856D01*
X54592059Y-12426131D01*
X54592322Y-12501412D01*
X54594998Y-12546436D01*
X54596001Y-12552243D01*
X54596000Y-49885554D01*
X54515638Y-49787189D01*
X54378898Y-49674462D01*
X54222793Y-49590578D01*
X54053323Y-49538760D01*
X53877000Y-49521000D01*
X53452000Y-49521000D01*
X53452000Y-50423000D01*
X53472000Y-50423000D01*
X53472000Y-50427000D01*
X53452000Y-50427000D01*
X53452000Y-51329000D01*
X53877000Y-51329000D01*
X54053323Y-51311240D01*
X54222793Y-51259422D01*
X54378898Y-51175538D01*
X54515638Y-51062811D01*
X54596000Y-50964446D01*
X54596000Y-57035554D01*
X54515638Y-56937189D01*
X54378898Y-56824462D01*
X54222793Y-56740578D01*
X54053323Y-56688760D01*
X53877000Y-56671000D01*
X53452000Y-56671000D01*
X53452000Y-57573000D01*
X53472000Y-57573000D01*
X53472000Y-57577000D01*
X53452000Y-57577000D01*
X53452000Y-58479000D01*
X53877000Y-58479000D01*
X54053323Y-58461240D01*
X54222793Y-58409422D01*
X54378898Y-58325538D01*
X54515638Y-58212811D01*
X54596000Y-58114446D01*
X54596000Y-64950477D01*
X54593304Y-64971818D01*
X54592950Y-64977448D01*
X54516310Y-66348261D01*
X54291113Y-67679704D01*
X53918902Y-68977760D01*
X53404318Y-70226236D01*
X52753775Y-71409567D01*
X51975384Y-72513008D01*
X51078836Y-73522815D01*
X50075325Y-74426380D01*
X48977339Y-75212460D01*
X47798587Y-75871243D01*
X46553731Y-76394532D01*
X45258304Y-76775797D01*
X43928464Y-77010284D01*
X42570189Y-77095739D01*
X42495480Y-77096000D01*
X12507604Y-77096000D01*
X11148059Y-77019990D01*
X9816616Y-76794793D01*
X8518560Y-76422582D01*
X7270084Y-75907998D01*
X6086753Y-75257455D01*
X4983312Y-74479064D01*
X3973505Y-73582516D01*
X3069940Y-72579005D01*
X2283860Y-71481019D01*
X1625077Y-70302267D01*
X1101788Y-69057411D01*
X952996Y-68551859D01*
X9009500Y-68551859D01*
X9009500Y-68814141D01*
X9060668Y-69071384D01*
X9161040Y-69313702D01*
X9306756Y-69531782D01*
X9492218Y-69717244D01*
X9710298Y-69862960D01*
X9952616Y-69963332D01*
X10209859Y-70014500D01*
X10472141Y-70014500D01*
X10729384Y-69963332D01*
X10971702Y-69862960D01*
X11189782Y-69717244D01*
X11343543Y-69563483D01*
X13781345Y-69563483D01*
X13874196Y-69766594D01*
X14100674Y-69898880D01*
X14348608Y-69984441D01*
X14608472Y-70019989D01*
X14870276Y-70004157D01*
X15123962Y-69937554D01*
X15359779Y-69822738D01*
X15443804Y-69766594D01*
X15536655Y-69563483D01*
X14659000Y-68685828D01*
X13781345Y-69563483D01*
X11343543Y-69563483D01*
X11375244Y-69531782D01*
X11520960Y-69313702D01*
X11621332Y-69071384D01*
X11672500Y-68814141D01*
X11672500Y-68632472D01*
X13322011Y-68632472D01*
X13337843Y-68894276D01*
X13404446Y-69147962D01*
X13519262Y-69383779D01*
X13575406Y-69467804D01*
X13778517Y-69560655D01*
X14656172Y-68683000D01*
X14661828Y-68683000D01*
X15539483Y-69560655D01*
X15742594Y-69467804D01*
X15874880Y-69241326D01*
X15960441Y-68993392D01*
X15995989Y-68733528D01*
X15985003Y-68551859D01*
X39009500Y-68551859D01*
X39009500Y-68814141D01*
X39060668Y-69071384D01*
X39161040Y-69313702D01*
X39306756Y-69531782D01*
X39492218Y-69717244D01*
X39710298Y-69862960D01*
X39952616Y-69963332D01*
X40209859Y-70014500D01*
X40472141Y-70014500D01*
X40729384Y-69963332D01*
X40971702Y-69862960D01*
X41189782Y-69717244D01*
X41343543Y-69563483D01*
X43781345Y-69563483D01*
X43874196Y-69766594D01*
X44100674Y-69898880D01*
X44348608Y-69984441D01*
X44608472Y-70019989D01*
X44870276Y-70004157D01*
X45123962Y-69937554D01*
X45359779Y-69822738D01*
X45443804Y-69766594D01*
X45536655Y-69563483D01*
X44659000Y-68685828D01*
X43781345Y-69563483D01*
X41343543Y-69563483D01*
X41375244Y-69531782D01*
X41520960Y-69313702D01*
X41621332Y-69071384D01*
X41672500Y-68814141D01*
X41672500Y-68632472D01*
X43322011Y-68632472D01*
X43337843Y-68894276D01*
X43404446Y-69147962D01*
X43519262Y-69383779D01*
X43575406Y-69467804D01*
X43778517Y-69560655D01*
X44656172Y-68683000D01*
X44661828Y-68683000D01*
X45539483Y-69560655D01*
X45742594Y-69467804D01*
X45874880Y-69241326D01*
X45960441Y-68993392D01*
X45995989Y-68733528D01*
X45980157Y-68471724D01*
X45913554Y-68218038D01*
X45798738Y-67982221D01*
X45742594Y-67898196D01*
X45539483Y-67805345D01*
X44661828Y-68683000D01*
X44656172Y-68683000D01*
X43778517Y-67805345D01*
X43575406Y-67898196D01*
X43443120Y-68124674D01*
X43357559Y-68372608D01*
X43322011Y-68632472D01*
X41672500Y-68632472D01*
X41672500Y-68551859D01*
X41621332Y-68294616D01*
X41520960Y-68052298D01*
X41375244Y-67834218D01*
X41343543Y-67802517D01*
X43781345Y-67802517D01*
X44659000Y-68680172D01*
X45536655Y-67802517D01*
X45443804Y-67599406D01*
X45217326Y-67467120D01*
X44969392Y-67381559D01*
X44709528Y-67346011D01*
X44447724Y-67361843D01*
X44194038Y-67428446D01*
X43958221Y-67543262D01*
X43874196Y-67599406D01*
X43781345Y-67802517D01*
X41343543Y-67802517D01*
X41189782Y-67648756D01*
X40971702Y-67503040D01*
X40729384Y-67402668D01*
X40472141Y-67351500D01*
X40209859Y-67351500D01*
X39952616Y-67402668D01*
X39710298Y-67503040D01*
X39492218Y-67648756D01*
X39306756Y-67834218D01*
X39161040Y-68052298D01*
X39060668Y-68294616D01*
X39009500Y-68551859D01*
X15985003Y-68551859D01*
X15980157Y-68471724D01*
X15913554Y-68218038D01*
X15798738Y-67982221D01*
X15742594Y-67898196D01*
X15539483Y-67805345D01*
X14661828Y-68683000D01*
X14656172Y-68683000D01*
X13778517Y-67805345D01*
X13575406Y-67898196D01*
X13443120Y-68124674D01*
X13357559Y-68372608D01*
X13322011Y-68632472D01*
X11672500Y-68632472D01*
X11672500Y-68551859D01*
X11621332Y-68294616D01*
X11520960Y-68052298D01*
X11375244Y-67834218D01*
X11343543Y-67802517D01*
X13781345Y-67802517D01*
X14659000Y-68680172D01*
X15536655Y-67802517D01*
X15443804Y-67599406D01*
X15217326Y-67467120D01*
X14969392Y-67381559D01*
X14709528Y-67346011D01*
X14447724Y-67361843D01*
X14194038Y-67428446D01*
X13958221Y-67543262D01*
X13874196Y-67599406D01*
X13781345Y-67802517D01*
X11343543Y-67802517D01*
X11189782Y-67648756D01*
X10971702Y-67503040D01*
X10729384Y-67402668D01*
X10472141Y-67351500D01*
X10209859Y-67351500D01*
X9952616Y-67402668D01*
X9710298Y-67503040D01*
X9492218Y-67648756D01*
X9306756Y-67834218D01*
X9161040Y-68052298D01*
X9060668Y-68294616D01*
X9009500Y-68551859D01*
X952996Y-68551859D01*
X720523Y-67761984D01*
X486036Y-66432144D01*
X400581Y-65073869D01*
X400320Y-64999018D01*
X403894Y-51404000D01*
X3980160Y-51404000D01*
X4000000Y-51405954D01*
X4019840Y-51404000D01*
X4079198Y-51398154D01*
X4155352Y-51375053D01*
X4225536Y-51337538D01*
X4287053Y-51287053D01*
X4337538Y-51225536D01*
X4375053Y-51155352D01*
X4398154Y-51079198D01*
X4405954Y-51000000D01*
X4404000Y-50980160D01*
X4404000Y-45019840D01*
X4405954Y-45000000D01*
X4398154Y-44920802D01*
X4375053Y-44844648D01*
X4337538Y-44774464D01*
X4287053Y-44712947D01*
X4225536Y-44662462D01*
X4155352Y-44624947D01*
X4079198Y-44601846D01*
X4019840Y-44596000D01*
X4000000Y-44594046D01*
X3980160Y-44596000D01*
X403954Y-44596000D01*
X401697Y-24649999D01*
X1244167Y-24649999D01*
X1244167Y-25350001D01*
X1256288Y-25473070D01*
X1292186Y-25591410D01*
X1350481Y-25700472D01*
X1428933Y-25796067D01*
X1524528Y-25874519D01*
X1633590Y-25932814D01*
X1751930Y-25968712D01*
X1874999Y-25980833D01*
X3125001Y-25980833D01*
X3248070Y-25968712D01*
X3366410Y-25932814D01*
X3475472Y-25874519D01*
X3571067Y-25796067D01*
X3649519Y-25700472D01*
X3707814Y-25591410D01*
X3743712Y-25473070D01*
X3755833Y-25350001D01*
X3755833Y-24649999D01*
X3743712Y-24526930D01*
X3707814Y-24408590D01*
X3649519Y-24299528D01*
X3571067Y-24203933D01*
X3475472Y-24125481D01*
X3366410Y-24067186D01*
X3248070Y-24031288D01*
X3125001Y-24019167D01*
X1874999Y-24019167D01*
X1751930Y-24031288D01*
X1633590Y-24067186D01*
X1524528Y-24125481D01*
X1428933Y-24203933D01*
X1350481Y-24299528D01*
X1292186Y-24408590D01*
X1256288Y-24526930D01*
X1244167Y-24649999D01*
X401697Y-24649999D01*
X401283Y-21000000D01*
X1241264Y-21000000D01*
X1260166Y-21191917D01*
X1316146Y-21376459D01*
X1407053Y-21546534D01*
X1529394Y-21695606D01*
X1678466Y-21817947D01*
X1848541Y-21908854D01*
X2033083Y-21964834D01*
X2176914Y-21979000D01*
X2808237Y-21979000D01*
X2766237Y-22021000D01*
X2176914Y-22021000D01*
X2033083Y-22035166D01*
X1848541Y-22091146D01*
X1678466Y-22182053D01*
X1529394Y-22304394D01*
X1407053Y-22453466D01*
X1316146Y-22623541D01*
X1260166Y-22808083D01*
X1241264Y-23000000D01*
X1260166Y-23191917D01*
X1316146Y-23376459D01*
X1407053Y-23546534D01*
X1529394Y-23695606D01*
X1678466Y-23817947D01*
X1848541Y-23908854D01*
X2033083Y-23964834D01*
X2176914Y-23979000D01*
X2823086Y-23979000D01*
X2966917Y-23964834D01*
X3151459Y-23908854D01*
X3321534Y-23817947D01*
X3470606Y-23695606D01*
X3592947Y-23546534D01*
X3683854Y-23376459D01*
X3739834Y-23191917D01*
X3758736Y-23000000D01*
X3739834Y-22808083D01*
X3683854Y-22623541D01*
X3650891Y-22561872D01*
X4338878Y-21873886D01*
X4358106Y-21858106D01*
X4421088Y-21781362D01*
X4454661Y-21718552D01*
X4497774Y-21736410D01*
X4648275Y-21766347D01*
X4801725Y-21766347D01*
X4952226Y-21736410D01*
X5093995Y-21677688D01*
X5221583Y-21592436D01*
X5330089Y-21483930D01*
X5415341Y-21356342D01*
X5474063Y-21214573D01*
X5504000Y-21064072D01*
X5504000Y-20910622D01*
X5474063Y-20760121D01*
X5415341Y-20618352D01*
X5330089Y-20490764D01*
X5229000Y-20389675D01*
X5229000Y-18756583D01*
X10661583Y-13324000D01*
X17624486Y-13324000D01*
X17626485Y-13344297D01*
X17648156Y-13415738D01*
X17669142Y-13455000D01*
X17648156Y-13494262D01*
X17626485Y-13565703D01*
X17619167Y-13640000D01*
X17619167Y-14540000D01*
X17626485Y-14614297D01*
X17648156Y-14685738D01*
X17669142Y-14725000D01*
X17648156Y-14764262D01*
X17626485Y-14835703D01*
X17619167Y-14910000D01*
X17619167Y-15810000D01*
X17626485Y-15884297D01*
X17648156Y-15955738D01*
X17669142Y-15995000D01*
X17648156Y-16034262D01*
X17626485Y-16105703D01*
X17619167Y-16180000D01*
X17619167Y-17080000D01*
X17626485Y-17154297D01*
X17648156Y-17225738D01*
X17669142Y-17265000D01*
X17648156Y-17304262D01*
X17626485Y-17375703D01*
X17619167Y-17450000D01*
X17619167Y-18350000D01*
X17626485Y-18424297D01*
X17648156Y-18495738D01*
X17669142Y-18535000D01*
X17648156Y-18574262D01*
X17626485Y-18645703D01*
X17619167Y-18720000D01*
X17619167Y-19620000D01*
X17626485Y-19694297D01*
X17648156Y-19765738D01*
X17669142Y-19805000D01*
X17648156Y-19844262D01*
X17626485Y-19915703D01*
X17624486Y-19936000D01*
X15584753Y-19936000D01*
X15559999Y-19933562D01*
X15461198Y-19943293D01*
X15419830Y-19955842D01*
X15366195Y-19972112D01*
X15278638Y-20018912D01*
X15201894Y-20081894D01*
X15186115Y-20101121D01*
X13661123Y-21626114D01*
X13641895Y-21641894D01*
X13626115Y-21661122D01*
X13578913Y-21718638D01*
X13532113Y-21806195D01*
X13503293Y-21901199D01*
X13493562Y-22000000D01*
X13496001Y-22024764D01*
X13496000Y-35291236D01*
X12864239Y-35922998D01*
X11597756Y-35922998D01*
X11573002Y-35920560D01*
X11474200Y-35930291D01*
X11445381Y-35939033D01*
X11379197Y-35959110D01*
X11291640Y-36005910D01*
X11214896Y-36068892D01*
X11199112Y-36088125D01*
X5161123Y-42126114D01*
X5141895Y-42141894D01*
X5126115Y-42161122D01*
X5078913Y-42218638D01*
X5032113Y-42306195D01*
X5003293Y-42401199D01*
X4993562Y-42500000D01*
X4996001Y-42524764D01*
X4996000Y-58975246D01*
X4993562Y-59000000D01*
X4996000Y-59024753D01*
X5003293Y-59098800D01*
X5032112Y-59193804D01*
X5078912Y-59281362D01*
X5141894Y-59358106D01*
X5161127Y-59373890D01*
X7443110Y-61655873D01*
X7458894Y-61675106D01*
X7535638Y-61738088D01*
X7623195Y-61784888D01*
X7689379Y-61804965D01*
X7718198Y-61813707D01*
X7817000Y-61823438D01*
X7841754Y-61821000D01*
X9108558Y-61821000D01*
X9161040Y-61947702D01*
X9306756Y-62165782D01*
X9492218Y-62351244D01*
X9710298Y-62496960D01*
X9952616Y-62597332D01*
X10209859Y-62648500D01*
X10472141Y-62648500D01*
X10729384Y-62597332D01*
X10971702Y-62496960D01*
X11189782Y-62351244D01*
X11271526Y-62269500D01*
X13325666Y-62269500D01*
X13332984Y-62343797D01*
X13354655Y-62415239D01*
X13389848Y-62481080D01*
X13437210Y-62538790D01*
X13494920Y-62586152D01*
X13560761Y-62621345D01*
X13632203Y-62643016D01*
X13706500Y-62650334D01*
X14562250Y-62648500D01*
X14657000Y-62553750D01*
X14657000Y-61319000D01*
X14661000Y-61319000D01*
X14661000Y-62553750D01*
X14755750Y-62648500D01*
X15611500Y-62650334D01*
X15685797Y-62643016D01*
X15757239Y-62621345D01*
X15823080Y-62586152D01*
X15880790Y-62538790D01*
X15928152Y-62481080D01*
X15963345Y-62415239D01*
X15985016Y-62343797D01*
X15992334Y-62269500D01*
X15990500Y-61413750D01*
X15895750Y-61319000D01*
X14661000Y-61319000D01*
X14657000Y-61319000D01*
X13422250Y-61319000D01*
X13327500Y-61413750D01*
X13325666Y-62269500D01*
X11271526Y-62269500D01*
X11375244Y-62165782D01*
X11520960Y-61947702D01*
X11621332Y-61705384D01*
X11672500Y-61448141D01*
X11672500Y-61185859D01*
X11621332Y-60928616D01*
X11520960Y-60686298D01*
X11375244Y-60468218D01*
X11271526Y-60364500D01*
X13325666Y-60364500D01*
X13327500Y-61220250D01*
X13422250Y-61315000D01*
X14657000Y-61315000D01*
X14657000Y-60080250D01*
X14661000Y-60080250D01*
X14661000Y-61315000D01*
X15895750Y-61315000D01*
X15990500Y-61220250D01*
X15992334Y-60364500D01*
X15985016Y-60290203D01*
X15963345Y-60218761D01*
X15928152Y-60152920D01*
X15880790Y-60095210D01*
X15823080Y-60047848D01*
X15757239Y-60012655D01*
X15685797Y-59990984D01*
X15611500Y-59983666D01*
X14755750Y-59985500D01*
X14661000Y-60080250D01*
X14657000Y-60080250D01*
X14562250Y-59985500D01*
X13706500Y-59983666D01*
X13632203Y-59990984D01*
X13560761Y-60012655D01*
X13494920Y-60047848D01*
X13437210Y-60095210D01*
X13389848Y-60152920D01*
X13354655Y-60218761D01*
X13332984Y-60290203D01*
X13325666Y-60364500D01*
X11271526Y-60364500D01*
X11189782Y-60282756D01*
X10971702Y-60137040D01*
X10729384Y-60036668D01*
X10472141Y-59985500D01*
X10209859Y-59985500D01*
X9952616Y-60036668D01*
X9710298Y-60137040D01*
X9492218Y-60282756D01*
X9306756Y-60468218D01*
X9161040Y-60686298D01*
X9108558Y-60813000D01*
X8025763Y-60813000D01*
X6004000Y-58791237D01*
X6004000Y-42708763D01*
X6289488Y-42423275D01*
X6721000Y-42423275D01*
X6721000Y-42576725D01*
X6750937Y-42727226D01*
X6809659Y-42868995D01*
X6894911Y-42996583D01*
X7003417Y-43105089D01*
X7131005Y-43190341D01*
X7272774Y-43249063D01*
X7381063Y-43270603D01*
X23233500Y-59123040D01*
X23233501Y-59676701D01*
X23172159Y-59768505D01*
X23113437Y-59910274D01*
X23104132Y-59957054D01*
X14120539Y-50973461D01*
X14190341Y-50868995D01*
X14249063Y-50727226D01*
X14279000Y-50576725D01*
X14279000Y-50423275D01*
X14249063Y-50272774D01*
X14190341Y-50131005D01*
X14105089Y-50003417D01*
X13996583Y-49894911D01*
X13868995Y-49809659D01*
X13727226Y-49750937D01*
X13576725Y-49721000D01*
X13423275Y-49721000D01*
X13272774Y-49750937D01*
X13131005Y-49809659D01*
X13003417Y-49894911D01*
X12894911Y-50003417D01*
X12809659Y-50131005D01*
X12750937Y-50272774D01*
X12721000Y-50423275D01*
X12721000Y-50576725D01*
X12750937Y-50727226D01*
X12809659Y-50868995D01*
X12894911Y-50996583D01*
X12996790Y-51098462D01*
X13003293Y-51164486D01*
X13021813Y-51225536D01*
X13032113Y-51259490D01*
X13078913Y-51347047D01*
X13141895Y-51423791D01*
X13161123Y-51439571D01*
X23377425Y-61655873D01*
X23393209Y-61675106D01*
X23469953Y-61738088D01*
X23557510Y-61784888D01*
X23652514Y-61813707D01*
X23751315Y-61823438D01*
X23776069Y-61821000D01*
X39108558Y-61821000D01*
X39161040Y-61947702D01*
X39306756Y-62165782D01*
X39492218Y-62351244D01*
X39710298Y-62496960D01*
X39952616Y-62597332D01*
X40209859Y-62648500D01*
X40472141Y-62648500D01*
X40729384Y-62597332D01*
X40971702Y-62496960D01*
X41189782Y-62351244D01*
X41271526Y-62269500D01*
X43325666Y-62269500D01*
X43332984Y-62343797D01*
X43354655Y-62415239D01*
X43389848Y-62481080D01*
X43437210Y-62538790D01*
X43494920Y-62586152D01*
X43560761Y-62621345D01*
X43632203Y-62643016D01*
X43706500Y-62650334D01*
X44562250Y-62648500D01*
X44657000Y-62553750D01*
X44657000Y-61319000D01*
X44661000Y-61319000D01*
X44661000Y-62553750D01*
X44755750Y-62648500D01*
X45611500Y-62650334D01*
X45685797Y-62643016D01*
X45757239Y-62621345D01*
X45823080Y-62586152D01*
X45880790Y-62538790D01*
X45928152Y-62481080D01*
X45963345Y-62415239D01*
X45985016Y-62343797D01*
X45992334Y-62269500D01*
X45990500Y-61413750D01*
X45895750Y-61319000D01*
X44661000Y-61319000D01*
X44657000Y-61319000D01*
X43422250Y-61319000D01*
X43327500Y-61413750D01*
X43325666Y-62269500D01*
X41271526Y-62269500D01*
X41375244Y-62165782D01*
X41520960Y-61947702D01*
X41621332Y-61705384D01*
X41672500Y-61448141D01*
X41672500Y-61185859D01*
X41621332Y-60928616D01*
X41520960Y-60686298D01*
X41375244Y-60468218D01*
X41271526Y-60364500D01*
X43325666Y-60364500D01*
X43327500Y-61220250D01*
X43422250Y-61315000D01*
X44657000Y-61315000D01*
X44657000Y-60080250D01*
X44661000Y-60080250D01*
X44661000Y-61315000D01*
X45895750Y-61315000D01*
X45990500Y-61220250D01*
X45992334Y-60364500D01*
X45985016Y-60290203D01*
X45963345Y-60218761D01*
X45928152Y-60152920D01*
X45880790Y-60095210D01*
X45823080Y-60047848D01*
X45757239Y-60012655D01*
X45685797Y-59990984D01*
X45611500Y-59983666D01*
X44755750Y-59985500D01*
X44661000Y-60080250D01*
X44657000Y-60080250D01*
X44562250Y-59985500D01*
X43706500Y-59983666D01*
X43632203Y-59990984D01*
X43560761Y-60012655D01*
X43494920Y-60047848D01*
X43437210Y-60095210D01*
X43389848Y-60152920D01*
X43354655Y-60218761D01*
X43332984Y-60290203D01*
X43325666Y-60364500D01*
X41271526Y-60364500D01*
X41189782Y-60282756D01*
X40971702Y-60137040D01*
X40729384Y-60036668D01*
X40472141Y-59985500D01*
X40209859Y-59985500D01*
X39952616Y-60036668D01*
X39710298Y-60137040D01*
X39492218Y-60282756D01*
X39306756Y-60468218D01*
X39161040Y-60686298D01*
X39108558Y-60813000D01*
X24253706Y-60813000D01*
X24359083Y-60742589D01*
X24467589Y-60634083D01*
X24552841Y-60506495D01*
X24611563Y-60364726D01*
X24641500Y-60214225D01*
X24641500Y-60060775D01*
X24611563Y-59910274D01*
X24552841Y-59768505D01*
X24491500Y-59676702D01*
X24491500Y-58893386D01*
X24494542Y-58862499D01*
X24491500Y-58831612D01*
X24491500Y-58831605D01*
X24482398Y-58739195D01*
X24482398Y-58739193D01*
X24446431Y-58620626D01*
X24443804Y-58615711D01*
X24388025Y-58511356D01*
X24309422Y-58415578D01*
X24285421Y-58395881D01*
X20812815Y-54923275D01*
X24721000Y-54923275D01*
X24721000Y-55076725D01*
X24750937Y-55227226D01*
X24809659Y-55368995D01*
X24894911Y-55496583D01*
X24996000Y-55597672D01*
X24996001Y-56475237D01*
X24993562Y-56500000D01*
X25003293Y-56598801D01*
X25025195Y-56671000D01*
X25032113Y-56693805D01*
X25078913Y-56781362D01*
X25141895Y-56858106D01*
X25161123Y-56873886D01*
X25996000Y-57708763D01*
X25996001Y-59402327D01*
X25894911Y-59503417D01*
X25809659Y-59631005D01*
X25750937Y-59772774D01*
X25721000Y-59923275D01*
X25721000Y-60076725D01*
X25750937Y-60227226D01*
X25809659Y-60368995D01*
X25894911Y-60496583D01*
X26003417Y-60605089D01*
X26131005Y-60690341D01*
X26272774Y-60749063D01*
X26423275Y-60779000D01*
X26576725Y-60779000D01*
X26727226Y-60749063D01*
X26868995Y-60690341D01*
X26996583Y-60605089D01*
X27105089Y-60496583D01*
X27190341Y-60368995D01*
X27249063Y-60227226D01*
X27279000Y-60076725D01*
X27279000Y-59923275D01*
X27249063Y-59772774D01*
X27190341Y-59631005D01*
X27105089Y-59503417D01*
X27004000Y-59402328D01*
X27004000Y-57718392D01*
X52132445Y-57718392D01*
X52137980Y-57749401D01*
X52189048Y-57919099D01*
X52272241Y-58075573D01*
X52384362Y-58212811D01*
X52521102Y-58325538D01*
X52677207Y-58409422D01*
X52846677Y-58461240D01*
X53023000Y-58479000D01*
X53448000Y-58479000D01*
X53448000Y-57577000D01*
X52215752Y-57577000D01*
X52132445Y-57718392D01*
X27004000Y-57718392D01*
X27004000Y-57524754D01*
X27006438Y-57500000D01*
X26999703Y-57431608D01*
X52132445Y-57431608D01*
X52215752Y-57573000D01*
X53448000Y-57573000D01*
X53448000Y-56671000D01*
X53023000Y-56671000D01*
X52846677Y-56688760D01*
X52677207Y-56740578D01*
X52521102Y-56824462D01*
X52384362Y-56937189D01*
X52272241Y-57074427D01*
X52189048Y-57230901D01*
X52137980Y-57400599D01*
X52132445Y-57431608D01*
X26999703Y-57431608D01*
X26996707Y-57401198D01*
X26987965Y-57372379D01*
X26967888Y-57306195D01*
X26921088Y-57218638D01*
X26858106Y-57141894D01*
X26838873Y-57126110D01*
X26004000Y-56291237D01*
X26004000Y-55923275D01*
X31721000Y-55923275D01*
X31721000Y-56076725D01*
X31750937Y-56227226D01*
X31809659Y-56368995D01*
X31894911Y-56496583D01*
X32003417Y-56605089D01*
X32131005Y-56690341D01*
X32272774Y-56749063D01*
X32423275Y-56779000D01*
X32576725Y-56779000D01*
X32727226Y-56749063D01*
X32868995Y-56690341D01*
X32996583Y-56605089D01*
X33105089Y-56496583D01*
X33190341Y-56368995D01*
X33249063Y-56227226D01*
X33279000Y-56076725D01*
X33279000Y-56070540D01*
X38781148Y-50568392D01*
X52132445Y-50568392D01*
X52137980Y-50599401D01*
X52189048Y-50769099D01*
X52272241Y-50925573D01*
X52384362Y-51062811D01*
X52521102Y-51175538D01*
X52677207Y-51259422D01*
X52846677Y-51311240D01*
X53023000Y-51329000D01*
X53448000Y-51329000D01*
X53448000Y-50427000D01*
X52215752Y-50427000D01*
X52132445Y-50568392D01*
X38781148Y-50568392D01*
X39067932Y-50281608D01*
X52132445Y-50281608D01*
X52215752Y-50423000D01*
X53448000Y-50423000D01*
X53448000Y-49521000D01*
X53023000Y-49521000D01*
X52846677Y-49538760D01*
X52677207Y-49590578D01*
X52521102Y-49674462D01*
X52384362Y-49787189D01*
X52272241Y-49924427D01*
X52189048Y-50080901D01*
X52137980Y-50250599D01*
X52132445Y-50281608D01*
X39067932Y-50281608D01*
X50769167Y-38580373D01*
X50769167Y-39850000D01*
X50776485Y-39924297D01*
X50798156Y-39995738D01*
X50833349Y-40061579D01*
X50880710Y-40119290D01*
X50938421Y-40166651D01*
X51004262Y-40201844D01*
X51075703Y-40223515D01*
X51150000Y-40230833D01*
X52850000Y-40230833D01*
X52924297Y-40223515D01*
X52995738Y-40201844D01*
X53061579Y-40166651D01*
X53119290Y-40119290D01*
X53166651Y-40061579D01*
X53201844Y-39995738D01*
X53223515Y-39924297D01*
X53230833Y-39850000D01*
X53230833Y-38150000D01*
X53223515Y-38075703D01*
X53201844Y-38004262D01*
X53166651Y-37938421D01*
X53119290Y-37880710D01*
X53061579Y-37833349D01*
X52995738Y-37798156D01*
X52924297Y-37776485D01*
X52850000Y-37769167D01*
X51580373Y-37769167D01*
X51696777Y-37652763D01*
X51878954Y-37689000D01*
X52121046Y-37689000D01*
X52358486Y-37641771D01*
X52582150Y-37549126D01*
X52783442Y-37414627D01*
X52954627Y-37243442D01*
X53089126Y-37042150D01*
X53181771Y-36818486D01*
X53229000Y-36581046D01*
X53229000Y-36338954D01*
X53181771Y-36101514D01*
X53089126Y-35877850D01*
X52954627Y-35676558D01*
X52783442Y-35505373D01*
X52582150Y-35370874D01*
X52358486Y-35278229D01*
X52121046Y-35231000D01*
X51878954Y-35231000D01*
X51641514Y-35278229D01*
X51417850Y-35370874D01*
X51216558Y-35505373D01*
X51045373Y-35676558D01*
X50910874Y-35877850D01*
X50818229Y-36101514D01*
X50771000Y-36338954D01*
X50771000Y-36581046D01*
X50807237Y-36763223D01*
X32331131Y-55239329D01*
X32272774Y-55250937D01*
X32131005Y-55309659D01*
X32003417Y-55394911D01*
X31894911Y-55503417D01*
X31809659Y-55631005D01*
X31750937Y-55772774D01*
X31721000Y-55923275D01*
X26004000Y-55923275D01*
X26004000Y-55597672D01*
X26105089Y-55496583D01*
X26190341Y-55368995D01*
X26249063Y-55227226D01*
X26279000Y-55076725D01*
X26279000Y-54923275D01*
X26249063Y-54772774D01*
X26190341Y-54631005D01*
X26105089Y-54503417D01*
X25996583Y-54394911D01*
X25868995Y-54309659D01*
X25727226Y-54250937D01*
X25576725Y-54221000D01*
X25423275Y-54221000D01*
X25272774Y-54250937D01*
X25131005Y-54309659D01*
X25003417Y-54394911D01*
X24894911Y-54503417D01*
X24809659Y-54631005D01*
X24750937Y-54772774D01*
X24721000Y-54923275D01*
X20812815Y-54923275D01*
X8270603Y-42381063D01*
X8249063Y-42272774D01*
X8190341Y-42131005D01*
X8105089Y-42003417D01*
X7996583Y-41894911D01*
X7868995Y-41809659D01*
X7727226Y-41750937D01*
X7576725Y-41721000D01*
X7423275Y-41721000D01*
X7272774Y-41750937D01*
X7131005Y-41809659D01*
X7003417Y-41894911D01*
X6894911Y-42003417D01*
X6809659Y-42131005D01*
X6750937Y-42272774D01*
X6721000Y-42423275D01*
X6289488Y-42423275D01*
X11781765Y-36930998D01*
X13048248Y-36930998D01*
X13073002Y-36933436D01*
X13171803Y-36923705D01*
X13266807Y-36894886D01*
X13354364Y-36848086D01*
X13431108Y-36785104D01*
X13446892Y-36765871D01*
X14338878Y-35873886D01*
X14358106Y-35858106D01*
X14421088Y-35781362D01*
X14467888Y-35693805D01*
X14496000Y-35601131D01*
X14496001Y-45975236D01*
X14493562Y-46000000D01*
X14503293Y-46098801D01*
X14532113Y-46193804D01*
X14532113Y-46193805D01*
X14578913Y-46281362D01*
X14641895Y-46358106D01*
X14661123Y-46373886D01*
X14721000Y-46433763D01*
X14721000Y-46576725D01*
X14742333Y-46683971D01*
X14602226Y-46625937D01*
X14451725Y-46596000D01*
X14298275Y-46596000D01*
X14147774Y-46625937D01*
X14006005Y-46684659D01*
X13878417Y-46769911D01*
X13769911Y-46878417D01*
X13684659Y-47006005D01*
X13625937Y-47147774D01*
X13596000Y-47298275D01*
X13596000Y-47451725D01*
X13625937Y-47602226D01*
X13684659Y-47743995D01*
X13769911Y-47871583D01*
X13878417Y-47980089D01*
X14006005Y-48065341D01*
X14147774Y-48124063D01*
X14256063Y-48145603D01*
X20033385Y-53922926D01*
X20053078Y-53946922D01*
X20148856Y-54025525D01*
X20258128Y-54083932D01*
X20321503Y-54103156D01*
X20376693Y-54119898D01*
X20499999Y-54132043D01*
X20530894Y-54129000D01*
X32039202Y-54129000D01*
X32131005Y-54190341D01*
X32272774Y-54249063D01*
X32423275Y-54279000D01*
X32576725Y-54279000D01*
X32727226Y-54249063D01*
X32868995Y-54190341D01*
X32996583Y-54105089D01*
X33105089Y-53996583D01*
X33190341Y-53868995D01*
X33249063Y-53727226D01*
X33279000Y-53576725D01*
X33279000Y-53423275D01*
X33249063Y-53272774D01*
X33190341Y-53131005D01*
X33105089Y-53003417D01*
X32996583Y-52894911D01*
X32868995Y-52809659D01*
X32727226Y-52750937D01*
X32576725Y-52721000D01*
X32423275Y-52721000D01*
X32272774Y-52750937D01*
X32131005Y-52809659D01*
X32039202Y-52871000D01*
X31689001Y-52871000D01*
X31690341Y-52868995D01*
X31749063Y-52727226D01*
X31779000Y-52576725D01*
X31779000Y-52423275D01*
X31749063Y-52272774D01*
X31690341Y-52131005D01*
X31605089Y-52003417D01*
X31496583Y-51894911D01*
X31368995Y-51809659D01*
X31227226Y-51750937D01*
X31076725Y-51721000D01*
X30923275Y-51721000D01*
X30772774Y-51750937D01*
X30631005Y-51809659D01*
X30503417Y-51894911D01*
X30402328Y-51996000D01*
X29097672Y-51996000D01*
X28996583Y-51894911D01*
X28868995Y-51809659D01*
X28727226Y-51750937D01*
X28576725Y-51721000D01*
X28423275Y-51721000D01*
X28272774Y-51750937D01*
X28131005Y-51809659D01*
X28003417Y-51894911D01*
X27894911Y-52003417D01*
X27809659Y-52131005D01*
X27750937Y-52272774D01*
X27721000Y-52423275D01*
X27721000Y-52576725D01*
X27750937Y-52727226D01*
X27809659Y-52868995D01*
X27810999Y-52871000D01*
X25189001Y-52871000D01*
X25190341Y-52868995D01*
X25249063Y-52727226D01*
X25279000Y-52576725D01*
X25279000Y-52423275D01*
X25249063Y-52272774D01*
X25190341Y-52131005D01*
X25105089Y-52003417D01*
X25004000Y-51902328D01*
X25004000Y-47606076D01*
X33046752Y-47606076D01*
X33177671Y-47841699D01*
X33458107Y-48005611D01*
X33765131Y-48111663D01*
X34086946Y-48155780D01*
X34411184Y-48136265D01*
X34725386Y-48053870D01*
X35017475Y-47911761D01*
X35122329Y-47841699D01*
X35253248Y-47606076D01*
X34150000Y-46502828D01*
X33046752Y-47606076D01*
X25004000Y-47606076D01*
X25004000Y-46436946D01*
X32494220Y-46436946D01*
X32513735Y-46761184D01*
X32596130Y-47075386D01*
X32738239Y-47367475D01*
X32808301Y-47472329D01*
X33043924Y-47603248D01*
X34147172Y-46500000D01*
X34152828Y-46500000D01*
X35256076Y-47603248D01*
X35491699Y-47472329D01*
X35655611Y-47191893D01*
X35761663Y-46884869D01*
X35805780Y-46563054D01*
X35786265Y-46238816D01*
X35703870Y-45924614D01*
X35561761Y-45632525D01*
X35491699Y-45527671D01*
X35256076Y-45396752D01*
X34152828Y-46500000D01*
X34147172Y-46500000D01*
X33043924Y-45396752D01*
X32808301Y-45527671D01*
X32644389Y-45808107D01*
X32538337Y-46115131D01*
X32494220Y-46436946D01*
X25004000Y-46436946D01*
X25004000Y-45393924D01*
X33046752Y-45393924D01*
X34150000Y-46497172D01*
X35253248Y-45393924D01*
X35122329Y-45158301D01*
X34841893Y-44994389D01*
X34534869Y-44888337D01*
X34213054Y-44844220D01*
X33888816Y-44863735D01*
X33574614Y-44946130D01*
X33282525Y-45088239D01*
X33177671Y-45158301D01*
X33046752Y-45393924D01*
X25004000Y-45393924D01*
X25004000Y-42437588D01*
X34101000Y-42437588D01*
X34101000Y-42762412D01*
X34164370Y-43080996D01*
X34288675Y-43381094D01*
X34469138Y-43651176D01*
X34698824Y-43880862D01*
X34968906Y-44061325D01*
X35269004Y-44185630D01*
X35587588Y-44249000D01*
X35912412Y-44249000D01*
X36230996Y-44185630D01*
X36531094Y-44061325D01*
X36801176Y-43880862D01*
X36975962Y-43706076D01*
X39146752Y-43706076D01*
X39277671Y-43941699D01*
X39558107Y-44105611D01*
X39865131Y-44211663D01*
X40186946Y-44255780D01*
X40511184Y-44236265D01*
X40825386Y-44153870D01*
X41117475Y-44011761D01*
X41222329Y-43941699D01*
X41353248Y-43706076D01*
X40250000Y-42602828D01*
X39146752Y-43706076D01*
X36975962Y-43706076D01*
X37030862Y-43651176D01*
X37211325Y-43381094D01*
X37335630Y-43080996D01*
X37399000Y-42762412D01*
X37399000Y-42536946D01*
X38594220Y-42536946D01*
X38613735Y-42861184D01*
X38696130Y-43175386D01*
X38838239Y-43467475D01*
X38908301Y-43572329D01*
X39143924Y-43703248D01*
X40247172Y-42600000D01*
X40252828Y-42600000D01*
X41356076Y-43703248D01*
X41591699Y-43572329D01*
X41755611Y-43291893D01*
X41861663Y-42984869D01*
X41905780Y-42663054D01*
X41886265Y-42338816D01*
X41803870Y-42024614D01*
X41661761Y-41732525D01*
X41591699Y-41627671D01*
X41356076Y-41496752D01*
X40252828Y-42600000D01*
X40247172Y-42600000D01*
X39143924Y-41496752D01*
X38908301Y-41627671D01*
X38744389Y-41908107D01*
X38638337Y-42215131D01*
X38594220Y-42536946D01*
X37399000Y-42536946D01*
X37399000Y-42437588D01*
X37335630Y-42119004D01*
X37211325Y-41818906D01*
X37030862Y-41548824D01*
X36975962Y-41493924D01*
X39146752Y-41493924D01*
X40250000Y-42597172D01*
X41353248Y-41493924D01*
X41222329Y-41258301D01*
X40941893Y-41094389D01*
X40634869Y-40988337D01*
X40313054Y-40944220D01*
X39988816Y-40963735D01*
X39674614Y-41046130D01*
X39382525Y-41188239D01*
X39277671Y-41258301D01*
X39146752Y-41493924D01*
X36975962Y-41493924D01*
X36801176Y-41319138D01*
X36531094Y-41138675D01*
X36230996Y-41014370D01*
X35912412Y-40951000D01*
X35587588Y-40951000D01*
X35269004Y-41014370D01*
X34968906Y-41138675D01*
X34698824Y-41319138D01*
X34469138Y-41548824D01*
X34288675Y-41818906D01*
X34164370Y-42119004D01*
X34101000Y-42437588D01*
X25004000Y-42437588D01*
X25004000Y-32524750D01*
X25006438Y-32499999D01*
X25004000Y-32475246D01*
X24996707Y-32401199D01*
X24967888Y-32306195D01*
X24921088Y-32218638D01*
X24858106Y-32141894D01*
X24838878Y-32126114D01*
X23504000Y-30791237D01*
X23504000Y-29880483D01*
X24122345Y-29880483D01*
X24215196Y-30083594D01*
X24441674Y-30215880D01*
X24689608Y-30301441D01*
X24949472Y-30336989D01*
X25211276Y-30321157D01*
X25464962Y-30254554D01*
X25700779Y-30139738D01*
X25784804Y-30083594D01*
X25877655Y-29880483D01*
X25000000Y-29002828D01*
X24122345Y-29880483D01*
X23504000Y-29880483D01*
X23504000Y-29024754D01*
X23506438Y-29000000D01*
X23501462Y-28949472D01*
X23663011Y-28949472D01*
X23678843Y-29211276D01*
X23745446Y-29464962D01*
X23860262Y-29700779D01*
X23916406Y-29784804D01*
X24119517Y-29877655D01*
X24997172Y-29000000D01*
X25002828Y-29000000D01*
X25880483Y-29877655D01*
X26083594Y-29784804D01*
X26215880Y-29558326D01*
X26249594Y-29460631D01*
X26320040Y-29630702D01*
X26465756Y-29848782D01*
X26651218Y-30034244D01*
X26869298Y-30179960D01*
X27111616Y-30280332D01*
X27368859Y-30331500D01*
X27631141Y-30331500D01*
X27888384Y-30280332D01*
X28130702Y-30179960D01*
X28348782Y-30034244D01*
X28534244Y-29848782D01*
X28679960Y-29630702D01*
X28750000Y-29461611D01*
X28820040Y-29630702D01*
X28965756Y-29848782D01*
X29151218Y-30034244D01*
X29369298Y-30179960D01*
X29496001Y-30232442D01*
X29496000Y-31291236D01*
X27291237Y-33496000D01*
X26597672Y-33496000D01*
X26496583Y-33394911D01*
X26368995Y-33309659D01*
X26227226Y-33250937D01*
X26076725Y-33221000D01*
X25923275Y-33221000D01*
X25772774Y-33250937D01*
X25631005Y-33309659D01*
X25503417Y-33394911D01*
X25394911Y-33503417D01*
X25309659Y-33631005D01*
X25250937Y-33772774D01*
X25221000Y-33923275D01*
X25221000Y-34076725D01*
X25250937Y-34227226D01*
X25309659Y-34368995D01*
X25394911Y-34496583D01*
X25503417Y-34605089D01*
X25631005Y-34690341D01*
X25772774Y-34749063D01*
X25923275Y-34779000D01*
X26076725Y-34779000D01*
X26227226Y-34749063D01*
X26254929Y-34737588D01*
X34101000Y-34737588D01*
X34101000Y-35062412D01*
X34164370Y-35380996D01*
X34288675Y-35681094D01*
X34469138Y-35951176D01*
X34698824Y-36180862D01*
X34968906Y-36361325D01*
X35269004Y-36485630D01*
X35587588Y-36549000D01*
X35912412Y-36549000D01*
X36230996Y-36485630D01*
X36531094Y-36361325D01*
X36801176Y-36180862D01*
X36975962Y-36006076D01*
X39146752Y-36006076D01*
X39277671Y-36241699D01*
X39558107Y-36405611D01*
X39865131Y-36511663D01*
X40186946Y-36555780D01*
X40511184Y-36536265D01*
X40825386Y-36453870D01*
X41117475Y-36311761D01*
X41222329Y-36241699D01*
X41353248Y-36006076D01*
X40250000Y-34902828D01*
X39146752Y-36006076D01*
X36975962Y-36006076D01*
X37030862Y-35951176D01*
X37211325Y-35681094D01*
X37335630Y-35380996D01*
X37399000Y-35062412D01*
X37399000Y-34836946D01*
X38594220Y-34836946D01*
X38613735Y-35161184D01*
X38696130Y-35475386D01*
X38838239Y-35767475D01*
X38908301Y-35872329D01*
X39143924Y-36003248D01*
X40247172Y-34900000D01*
X40252828Y-34900000D01*
X41356076Y-36003248D01*
X41591699Y-35872329D01*
X41755611Y-35591893D01*
X41861663Y-35284869D01*
X41905780Y-34963054D01*
X41886265Y-34638816D01*
X41803870Y-34324614D01*
X41661761Y-34032525D01*
X41591699Y-33927671D01*
X41356076Y-33796752D01*
X40252828Y-34900000D01*
X40247172Y-34900000D01*
X39143924Y-33796752D01*
X38908301Y-33927671D01*
X38744389Y-34208107D01*
X38638337Y-34515131D01*
X38594220Y-34836946D01*
X37399000Y-34836946D01*
X37399000Y-34737588D01*
X37335630Y-34419004D01*
X37211325Y-34118906D01*
X37030862Y-33848824D01*
X36975962Y-33793924D01*
X39146752Y-33793924D01*
X40250000Y-34897172D01*
X41353248Y-33793924D01*
X41222329Y-33558301D01*
X40941893Y-33394389D01*
X40634869Y-33288337D01*
X40313054Y-33244220D01*
X39988816Y-33263735D01*
X39674614Y-33346130D01*
X39382525Y-33488239D01*
X39277671Y-33558301D01*
X39146752Y-33793924D01*
X36975962Y-33793924D01*
X36801176Y-33619138D01*
X36531094Y-33438675D01*
X36230996Y-33314370D01*
X35912412Y-33251000D01*
X35587588Y-33251000D01*
X35269004Y-33314370D01*
X34968906Y-33438675D01*
X34698824Y-33619138D01*
X34469138Y-33848824D01*
X34288675Y-34118906D01*
X34164370Y-34419004D01*
X34101000Y-34737588D01*
X26254929Y-34737588D01*
X26368995Y-34690341D01*
X26496583Y-34605089D01*
X26597672Y-34504000D01*
X27475246Y-34504000D01*
X27500000Y-34506438D01*
X27598801Y-34496707D01*
X27599210Y-34496583D01*
X27693805Y-34467888D01*
X27781362Y-34421088D01*
X27858106Y-34358106D01*
X27873890Y-34338873D01*
X30106687Y-32106076D01*
X33046752Y-32106076D01*
X33177671Y-32341699D01*
X33458107Y-32505611D01*
X33765131Y-32611663D01*
X34086946Y-32655780D01*
X34411184Y-32636265D01*
X34725386Y-32553870D01*
X35017475Y-32411761D01*
X35122329Y-32341699D01*
X35253248Y-32106076D01*
X34150000Y-31002828D01*
X33046752Y-32106076D01*
X30106687Y-32106076D01*
X30338878Y-31873886D01*
X30358106Y-31858106D01*
X30421088Y-31781362D01*
X30467888Y-31693805D01*
X30496707Y-31598801D01*
X30504000Y-31524754D01*
X30504000Y-31524753D01*
X30506438Y-31500000D01*
X30504000Y-31475246D01*
X30504000Y-30936946D01*
X32494220Y-30936946D01*
X32513735Y-31261184D01*
X32596130Y-31575386D01*
X32738239Y-31867475D01*
X32808301Y-31972329D01*
X33043924Y-32103248D01*
X34147172Y-31000000D01*
X34152828Y-31000000D01*
X35256076Y-32103248D01*
X35491699Y-31972329D01*
X35655611Y-31691893D01*
X35761663Y-31384869D01*
X35805780Y-31063054D01*
X35786265Y-30738816D01*
X35703870Y-30424614D01*
X35561761Y-30132525D01*
X35491699Y-30027671D01*
X35256076Y-29896752D01*
X34152828Y-31000000D01*
X34147172Y-31000000D01*
X33043924Y-29896752D01*
X32808301Y-30027671D01*
X32644389Y-30308107D01*
X32538337Y-30615131D01*
X32494220Y-30936946D01*
X30504000Y-30936946D01*
X30504000Y-30232442D01*
X30630702Y-30179960D01*
X30848782Y-30034244D01*
X30989102Y-29893924D01*
X33046752Y-29893924D01*
X34150000Y-30997172D01*
X35253248Y-29893924D01*
X35122329Y-29658301D01*
X34841893Y-29494389D01*
X34534869Y-29388337D01*
X34213054Y-29344220D01*
X33888816Y-29363735D01*
X33574614Y-29446130D01*
X33282525Y-29588239D01*
X33177671Y-29658301D01*
X33046752Y-29893924D01*
X30989102Y-29893924D01*
X31034244Y-29848782D01*
X31179960Y-29630702D01*
X31280332Y-29388384D01*
X31331500Y-29131141D01*
X31331500Y-28868859D01*
X31280332Y-28611616D01*
X31179960Y-28369298D01*
X31034244Y-28151218D01*
X30848782Y-27965756D01*
X30630702Y-27820040D01*
X30388384Y-27719668D01*
X30131141Y-27668500D01*
X29868859Y-27668500D01*
X29611616Y-27719668D01*
X29369298Y-27820040D01*
X29151218Y-27965756D01*
X28965756Y-28151218D01*
X28820040Y-28369298D01*
X28750000Y-28538389D01*
X28679960Y-28369298D01*
X28534244Y-28151218D01*
X28348782Y-27965756D01*
X28130702Y-27820040D01*
X27888384Y-27719668D01*
X27631141Y-27668500D01*
X27368859Y-27668500D01*
X27111616Y-27719668D01*
X26869298Y-27820040D01*
X26651218Y-27965756D01*
X26465756Y-28151218D01*
X26320040Y-28369298D01*
X26252843Y-28531524D01*
X26139738Y-28299221D01*
X26083594Y-28215196D01*
X25880483Y-28122345D01*
X25002828Y-29000000D01*
X24997172Y-29000000D01*
X24119517Y-28122345D01*
X23916406Y-28215196D01*
X23784120Y-28441674D01*
X23698559Y-28689608D01*
X23663011Y-28949472D01*
X23501462Y-28949472D01*
X23496707Y-28901198D01*
X23467888Y-28806196D01*
X23467888Y-28806195D01*
X23421088Y-28718638D01*
X23358106Y-28641894D01*
X23338878Y-28626114D01*
X22832281Y-28119517D01*
X24122345Y-28119517D01*
X25000000Y-28997172D01*
X25877655Y-28119517D01*
X25784804Y-27916406D01*
X25558326Y-27784120D01*
X25310392Y-27698559D01*
X25050528Y-27663011D01*
X24788724Y-27678843D01*
X24535038Y-27745446D01*
X24299221Y-27860262D01*
X24215196Y-27916406D01*
X24122345Y-28119517D01*
X22832281Y-28119517D01*
X21343596Y-26630833D01*
X22235000Y-26630833D01*
X22309297Y-26623515D01*
X22380738Y-26601844D01*
X22420000Y-26580858D01*
X22459262Y-26601844D01*
X22530703Y-26623515D01*
X22605000Y-26630833D01*
X23505000Y-26630833D01*
X23579297Y-26623515D01*
X23650738Y-26601844D01*
X23690000Y-26580858D01*
X23729262Y-26601844D01*
X23800703Y-26623515D01*
X23875000Y-26630833D01*
X24775000Y-26630833D01*
X24849297Y-26623515D01*
X24920738Y-26601844D01*
X24960000Y-26580858D01*
X24999262Y-26601844D01*
X25070703Y-26623515D01*
X25145000Y-26630833D01*
X26045000Y-26630833D01*
X26119297Y-26623515D01*
X26190738Y-26601844D01*
X26230000Y-26580858D01*
X26269262Y-26601844D01*
X26340703Y-26623515D01*
X26415000Y-26630833D01*
X27315000Y-26630833D01*
X27389297Y-26623515D01*
X27460738Y-26601844D01*
X27500000Y-26580858D01*
X27539262Y-26601844D01*
X27610703Y-26623515D01*
X27685000Y-26630833D01*
X28585000Y-26630833D01*
X28659297Y-26623515D01*
X28730738Y-26601844D01*
X28770000Y-26580858D01*
X28809262Y-26601844D01*
X28880703Y-26623515D01*
X28955000Y-26630833D01*
X29855000Y-26630833D01*
X29929297Y-26623515D01*
X30000738Y-26601844D01*
X30040000Y-26580858D01*
X30079262Y-26601844D01*
X30150703Y-26623515D01*
X30225000Y-26630833D01*
X31125000Y-26630833D01*
X31199297Y-26623515D01*
X31270738Y-26601844D01*
X31310000Y-26580858D01*
X31349262Y-26601844D01*
X31420703Y-26623515D01*
X31441001Y-26625514D01*
X31441001Y-26957327D01*
X31394911Y-27003417D01*
X31309659Y-27131005D01*
X31250937Y-27272774D01*
X31221000Y-27423275D01*
X31221000Y-27576725D01*
X31250937Y-27727226D01*
X31309659Y-27868995D01*
X31394911Y-27996583D01*
X31503417Y-28105089D01*
X31631005Y-28190341D01*
X31772774Y-28249063D01*
X31923275Y-28279000D01*
X32076725Y-28279000D01*
X32227226Y-28249063D01*
X32368995Y-28190341D01*
X32496583Y-28105089D01*
X32605089Y-27996583D01*
X32690341Y-27868995D01*
X32749063Y-27727226D01*
X32779000Y-27576725D01*
X32779000Y-27423275D01*
X32749063Y-27272774D01*
X32690341Y-27131005D01*
X32605089Y-27003417D01*
X32496583Y-26894911D01*
X32449000Y-26863117D01*
X32449000Y-26625514D01*
X32469297Y-26623515D01*
X32540738Y-26601844D01*
X32579999Y-26580859D01*
X32619261Y-26601845D01*
X32690703Y-26623516D01*
X32765000Y-26630834D01*
X33118250Y-26629000D01*
X33213000Y-26534250D01*
X33213000Y-25252000D01*
X33217000Y-25252000D01*
X33217000Y-26534250D01*
X33311750Y-26629000D01*
X33665000Y-26630834D01*
X33739297Y-26623516D01*
X33810739Y-26601845D01*
X33876580Y-26566652D01*
X33934290Y-26519290D01*
X33981652Y-26461580D01*
X34016845Y-26395739D01*
X34038516Y-26324297D01*
X34045834Y-26250000D01*
X34044000Y-25346750D01*
X33949250Y-25252000D01*
X33217000Y-25252000D01*
X33213000Y-25252000D01*
X33193000Y-25252000D01*
X33193000Y-25248000D01*
X33213000Y-25248000D01*
X33213000Y-23965750D01*
X33217000Y-23965750D01*
X33217000Y-25248000D01*
X33949250Y-25248000D01*
X34044000Y-25153250D01*
X34045834Y-24250000D01*
X34038516Y-24175703D01*
X34016845Y-24104261D01*
X33981652Y-24038420D01*
X33934290Y-23980710D01*
X33876580Y-23933348D01*
X33810739Y-23898155D01*
X33739297Y-23876484D01*
X33665000Y-23869166D01*
X33311750Y-23871000D01*
X33217000Y-23965750D01*
X33213000Y-23965750D01*
X33118250Y-23871000D01*
X32765000Y-23869166D01*
X32690703Y-23876484D01*
X32619261Y-23898155D01*
X32579999Y-23919141D01*
X32540738Y-23898156D01*
X32469297Y-23876485D01*
X32395000Y-23869167D01*
X31495000Y-23869167D01*
X31420703Y-23876485D01*
X31349262Y-23898156D01*
X31310000Y-23919142D01*
X31270738Y-23898156D01*
X31199297Y-23876485D01*
X31125000Y-23869167D01*
X30225000Y-23869167D01*
X30150703Y-23876485D01*
X30079262Y-23898156D01*
X30040000Y-23919142D01*
X30000738Y-23898156D01*
X29929297Y-23876485D01*
X29855000Y-23869167D01*
X28955000Y-23869167D01*
X28880703Y-23876485D01*
X28809262Y-23898156D01*
X28770000Y-23919142D01*
X28730738Y-23898156D01*
X28659297Y-23876485D01*
X28585000Y-23869167D01*
X27685000Y-23869167D01*
X27610703Y-23876485D01*
X27539262Y-23898156D01*
X27500000Y-23919142D01*
X27460738Y-23898156D01*
X27389297Y-23876485D01*
X27315000Y-23869167D01*
X26415000Y-23869167D01*
X26340703Y-23876485D01*
X26269262Y-23898156D01*
X26230000Y-23919142D01*
X26190738Y-23898156D01*
X26119297Y-23876485D01*
X26045000Y-23869167D01*
X25145000Y-23869167D01*
X25070703Y-23876485D01*
X24999262Y-23898156D01*
X24960000Y-23919142D01*
X24920738Y-23898156D01*
X24849297Y-23876485D01*
X24775000Y-23869167D01*
X23875000Y-23869167D01*
X23800703Y-23876485D01*
X23729262Y-23898156D01*
X23690000Y-23919142D01*
X23650738Y-23898156D01*
X23579297Y-23876485D01*
X23505000Y-23869167D01*
X22605000Y-23869167D01*
X22530703Y-23876485D01*
X22459262Y-23898156D01*
X22420000Y-23919142D01*
X22380738Y-23898156D01*
X22309297Y-23876485D01*
X22235000Y-23869167D01*
X21335000Y-23869167D01*
X21260703Y-23876485D01*
X21189262Y-23898156D01*
X21123421Y-23933349D01*
X21065710Y-23980710D01*
X21018349Y-24038421D01*
X21004000Y-24065266D01*
X21004000Y-23254750D01*
X21006438Y-23229999D01*
X21000903Y-23173805D01*
X20996707Y-23131199D01*
X20967888Y-23036195D01*
X20921088Y-22948638D01*
X20858106Y-22871894D01*
X20838873Y-22856110D01*
X20623890Y-22641127D01*
X20608106Y-22621894D01*
X20531362Y-22558912D01*
X20443805Y-22512112D01*
X20377077Y-22491871D01*
X20373515Y-22455703D01*
X20351844Y-22384262D01*
X20330858Y-22345000D01*
X20351844Y-22305738D01*
X20373515Y-22234297D01*
X20380833Y-22160000D01*
X20380833Y-21260000D01*
X20373515Y-21185703D01*
X20351844Y-21114262D01*
X20330858Y-21075000D01*
X20351844Y-21035738D01*
X20373515Y-20964297D01*
X20380833Y-20890000D01*
X20380833Y-19990000D01*
X20373515Y-19915703D01*
X20351844Y-19844262D01*
X20330858Y-19805000D01*
X20351844Y-19765738D01*
X20373515Y-19694297D01*
X20375514Y-19674000D01*
X22225180Y-19674000D01*
X22238284Y-19739879D01*
X22297006Y-19881648D01*
X22382258Y-20009236D01*
X22490764Y-20117742D01*
X22618352Y-20202994D01*
X22760121Y-20261716D01*
X22910622Y-20291653D01*
X23064072Y-20291653D01*
X23214573Y-20261716D01*
X23356342Y-20202994D01*
X23483930Y-20117742D01*
X23592436Y-20009236D01*
X23677688Y-19881648D01*
X23736410Y-19739879D01*
X23766347Y-19589378D01*
X23766347Y-19435928D01*
X23736410Y-19285427D01*
X23677688Y-19143658D01*
X23592436Y-19016070D01*
X23483930Y-18907564D01*
X23356342Y-18822312D01*
X23214573Y-18763590D01*
X23064072Y-18733653D01*
X22910622Y-18733653D01*
X22901065Y-18735554D01*
X22838499Y-18702112D01*
X22743495Y-18673293D01*
X22669448Y-18666000D01*
X22644694Y-18663562D01*
X22619940Y-18666000D01*
X20375514Y-18666000D01*
X20373515Y-18645703D01*
X20351844Y-18574262D01*
X20330858Y-18535000D01*
X20351844Y-18495738D01*
X20373515Y-18424297D01*
X20380833Y-18350000D01*
X20380833Y-17450000D01*
X20373515Y-17375703D01*
X20351844Y-17304262D01*
X20330858Y-17265000D01*
X20351844Y-17225738D01*
X20373515Y-17154297D01*
X20380833Y-17080000D01*
X20380833Y-16180000D01*
X20373515Y-16105703D01*
X20351844Y-16034262D01*
X20330858Y-15995000D01*
X20351844Y-15955738D01*
X20373515Y-15884297D01*
X20380833Y-15810000D01*
X20380833Y-14910000D01*
X20373515Y-14835703D01*
X20351844Y-14764262D01*
X20330858Y-14725000D01*
X20351844Y-14685738D01*
X20373515Y-14614297D01*
X20380833Y-14540000D01*
X20380833Y-13923275D01*
X20721000Y-13923275D01*
X20721000Y-14076725D01*
X20750937Y-14227226D01*
X20809659Y-14368995D01*
X20894911Y-14496583D01*
X21003417Y-14605089D01*
X21131005Y-14690341D01*
X21272774Y-14749063D01*
X21423275Y-14779000D01*
X21576725Y-14779000D01*
X21727226Y-14749063D01*
X21868995Y-14690341D01*
X21996583Y-14605089D01*
X22097672Y-14504000D01*
X22394521Y-14504000D01*
X22309659Y-14631005D01*
X22250937Y-14772774D01*
X22221000Y-14923275D01*
X22221000Y-15076725D01*
X22250937Y-15227226D01*
X22309659Y-15368995D01*
X22394911Y-15496583D01*
X22496000Y-15597672D01*
X22496001Y-16611647D01*
X22493562Y-16636410D01*
X22503293Y-16735211D01*
X22532113Y-16830215D01*
X22578913Y-16917772D01*
X22641895Y-16994516D01*
X22661123Y-17010296D01*
X27699700Y-22048873D01*
X27715484Y-22068106D01*
X27792228Y-22131088D01*
X27879785Y-22177888D01*
X27932257Y-22193805D01*
X27974788Y-22206707D01*
X28073590Y-22216438D01*
X28098344Y-22214000D01*
X34624486Y-22214000D01*
X34626485Y-22234297D01*
X34648156Y-22305738D01*
X34669142Y-22345000D01*
X34648156Y-22384262D01*
X34626485Y-22455703D01*
X34622516Y-22496000D01*
X33622672Y-22496000D01*
X33521583Y-22394911D01*
X33393995Y-22309659D01*
X33252226Y-22250937D01*
X33101725Y-22221000D01*
X32948275Y-22221000D01*
X32797774Y-22250937D01*
X32656005Y-22309659D01*
X32528417Y-22394911D01*
X32419911Y-22503417D01*
X32334659Y-22631005D01*
X32275937Y-22772774D01*
X32246000Y-22923275D01*
X32246000Y-23076725D01*
X32275937Y-23227226D01*
X32334659Y-23368995D01*
X32419911Y-23496583D01*
X32528417Y-23605089D01*
X32656005Y-23690341D01*
X32797774Y-23749063D01*
X32948275Y-23779000D01*
X33101725Y-23779000D01*
X33252226Y-23749063D01*
X33393995Y-23690341D01*
X33521583Y-23605089D01*
X33622672Y-23504000D01*
X34626456Y-23504000D01*
X34626485Y-23504297D01*
X34648156Y-23575738D01*
X34669142Y-23615000D01*
X34648156Y-23654262D01*
X34626485Y-23725703D01*
X34619167Y-23800000D01*
X34619167Y-24700000D01*
X34626485Y-24774297D01*
X34648156Y-24845738D01*
X34683349Y-24911579D01*
X34730710Y-24969290D01*
X34788421Y-25016651D01*
X34854262Y-25051844D01*
X34925703Y-25073515D01*
X35000000Y-25080833D01*
X37000000Y-25080833D01*
X37074297Y-25073515D01*
X37145738Y-25051844D01*
X37211579Y-25016651D01*
X37269290Y-24969290D01*
X37316651Y-24911579D01*
X37351844Y-24845738D01*
X37373515Y-24774297D01*
X37380833Y-24700000D01*
X37380833Y-23800000D01*
X37373515Y-23725703D01*
X37351844Y-23654262D01*
X37330858Y-23615000D01*
X37351844Y-23575738D01*
X37373515Y-23504297D01*
X37380833Y-23430000D01*
X37380833Y-22530000D01*
X37373515Y-22455703D01*
X37351844Y-22384262D01*
X37330858Y-22345000D01*
X37351844Y-22305738D01*
X37373515Y-22234297D01*
X37380833Y-22160000D01*
X37380833Y-21260000D01*
X37373515Y-21185703D01*
X37351844Y-21114262D01*
X37330858Y-21075000D01*
X37351844Y-21035738D01*
X37373515Y-20964297D01*
X37380833Y-20890000D01*
X37380833Y-20013596D01*
X42496000Y-25128764D01*
X42496001Y-42185839D01*
X42496000Y-42185849D01*
X42496001Y-42791235D01*
X35066237Y-50221000D01*
X34923275Y-50221000D01*
X34772774Y-50250937D01*
X34631005Y-50309659D01*
X34503417Y-50394911D01*
X34394911Y-50503417D01*
X34309659Y-50631005D01*
X34250937Y-50772774D01*
X34221000Y-50923275D01*
X34221000Y-51076725D01*
X34250937Y-51227226D01*
X34309659Y-51368995D01*
X34394911Y-51496583D01*
X34503417Y-51605089D01*
X34631005Y-51690341D01*
X34772774Y-51749063D01*
X34923275Y-51779000D01*
X35076725Y-51779000D01*
X35227226Y-51749063D01*
X35368995Y-51690341D01*
X35496583Y-51605089D01*
X35605089Y-51496583D01*
X35690341Y-51368995D01*
X35749063Y-51227226D01*
X35779000Y-51076725D01*
X35779000Y-50933763D01*
X43338878Y-43373886D01*
X43358106Y-43358106D01*
X43421088Y-43281362D01*
X43467888Y-43193805D01*
X43496707Y-43098801D01*
X43504000Y-43024754D01*
X43504000Y-43024752D01*
X43506438Y-43000001D01*
X43504000Y-42975250D01*
X43504000Y-33798954D01*
X50771000Y-33798954D01*
X50771000Y-34041046D01*
X50818229Y-34278486D01*
X50910874Y-34502150D01*
X51045373Y-34703442D01*
X51216558Y-34874627D01*
X51417850Y-35009126D01*
X51641514Y-35101771D01*
X51878954Y-35149000D01*
X52121046Y-35149000D01*
X52358486Y-35101771D01*
X52582150Y-35009126D01*
X52783442Y-34874627D01*
X52954627Y-34703442D01*
X53089126Y-34502150D01*
X53181771Y-34278486D01*
X53229000Y-34041046D01*
X53229000Y-33798954D01*
X53181771Y-33561514D01*
X53089126Y-33337850D01*
X52954627Y-33136558D01*
X52783442Y-32965373D01*
X52582150Y-32830874D01*
X52358486Y-32738229D01*
X52121046Y-32691000D01*
X51878954Y-32691000D01*
X51641514Y-32738229D01*
X51417850Y-32830874D01*
X51216558Y-32965373D01*
X51045373Y-33136558D01*
X50910874Y-33337850D01*
X50818229Y-33561514D01*
X50771000Y-33798954D01*
X43504000Y-33798954D01*
X43504000Y-27000000D01*
X46619167Y-27000000D01*
X46619167Y-29000000D01*
X46626485Y-29074297D01*
X46648156Y-29145738D01*
X46683349Y-29211579D01*
X46730710Y-29269290D01*
X46788421Y-29316651D01*
X46854262Y-29351844D01*
X46925703Y-29373515D01*
X47000000Y-29380833D01*
X49000000Y-29380833D01*
X49074297Y-29373515D01*
X49145738Y-29351844D01*
X49211579Y-29316651D01*
X49269290Y-29269290D01*
X49316651Y-29211579D01*
X49351844Y-29145738D01*
X49373515Y-29074297D01*
X49380833Y-29000000D01*
X49380833Y-27000000D01*
X49373515Y-26925703D01*
X49351844Y-26854262D01*
X49316651Y-26788421D01*
X49269290Y-26730710D01*
X49211579Y-26683349D01*
X49145738Y-26648156D01*
X49074297Y-26626485D01*
X49000000Y-26619167D01*
X47000000Y-26619167D01*
X46925703Y-26626485D01*
X46854262Y-26648156D01*
X46788421Y-26683349D01*
X46730710Y-26730710D01*
X46683349Y-26788421D01*
X46648156Y-26854262D01*
X46626485Y-26925703D01*
X46619167Y-27000000D01*
X43504000Y-27000000D01*
X43504000Y-24944754D01*
X43506438Y-24920000D01*
X43496707Y-24821198D01*
X43483906Y-24779000D01*
X43467888Y-24726195D01*
X43421088Y-24638638D01*
X43358106Y-24561894D01*
X43338878Y-24546114D01*
X41576944Y-22784180D01*
X46621000Y-22784180D01*
X46621000Y-23055820D01*
X46673995Y-23322239D01*
X46777946Y-23573201D01*
X46928861Y-23799061D01*
X47120939Y-23991139D01*
X47346799Y-24142054D01*
X47597761Y-24246005D01*
X47864180Y-24299000D01*
X48135820Y-24299000D01*
X48402239Y-24246005D01*
X48653201Y-24142054D01*
X48879061Y-23991139D01*
X49071139Y-23799061D01*
X49222054Y-23573201D01*
X49326005Y-23322239D01*
X49379000Y-23055820D01*
X49379000Y-22784180D01*
X49326005Y-22517761D01*
X49222054Y-22266799D01*
X49071139Y-22040939D01*
X48879061Y-21848861D01*
X48653201Y-21697946D01*
X48402239Y-21593995D01*
X48135820Y-21541000D01*
X47864180Y-21541000D01*
X47597761Y-21593995D01*
X47346799Y-21697946D01*
X47120939Y-21848861D01*
X46928861Y-22040939D01*
X46777946Y-22266799D01*
X46673995Y-22517761D01*
X46621000Y-22784180D01*
X41576944Y-22784180D01*
X39071763Y-20279000D01*
X39076725Y-20279000D01*
X39227226Y-20249063D01*
X39368995Y-20190341D01*
X39496583Y-20105089D01*
X39605089Y-19996583D01*
X39690341Y-19868995D01*
X39749063Y-19727226D01*
X39779000Y-19576725D01*
X39779000Y-19423275D01*
X39749063Y-19272774D01*
X39690341Y-19131005D01*
X39605089Y-19003417D01*
X39504000Y-18902328D01*
X39504000Y-18404754D01*
X39506438Y-18380000D01*
X39496707Y-18281198D01*
X39477729Y-18218637D01*
X39467888Y-18186195D01*
X39421088Y-18098638D01*
X39358106Y-18021894D01*
X39338873Y-18006110D01*
X37623890Y-16291127D01*
X37608106Y-16271894D01*
X37531362Y-16208912D01*
X37443805Y-16162112D01*
X37377077Y-16141871D01*
X37373515Y-16105703D01*
X37351844Y-16034262D01*
X37330858Y-15995000D01*
X37351844Y-15955738D01*
X37373515Y-15884297D01*
X37380833Y-15810000D01*
X37380833Y-14910000D01*
X37373515Y-14835703D01*
X37351844Y-14764262D01*
X37330858Y-14725000D01*
X37351844Y-14685738D01*
X37373515Y-14614297D01*
X37380833Y-14540000D01*
X37380833Y-13640000D01*
X37373515Y-13565703D01*
X37351844Y-13494262D01*
X37330858Y-13455000D01*
X37351844Y-13415738D01*
X37373515Y-13344297D01*
X37380833Y-13270000D01*
X37380833Y-12370000D01*
X37373515Y-12295703D01*
X37351844Y-12224262D01*
X37330858Y-12185000D01*
X37351844Y-12145738D01*
X37373515Y-12074297D01*
X37380833Y-12000000D01*
X37380833Y-11100000D01*
X37373515Y-11025703D01*
X37351844Y-10954262D01*
X37330858Y-10915000D01*
X37351844Y-10875738D01*
X37373515Y-10804297D01*
X37380833Y-10730000D01*
X37380833Y-9830000D01*
X37373515Y-9755703D01*
X37351844Y-9684262D01*
X37330858Y-9645000D01*
X37351844Y-9605738D01*
X37373515Y-9534297D01*
X37380833Y-9460000D01*
X37380833Y-8560000D01*
X37373515Y-8485703D01*
X37351844Y-8414262D01*
X37330859Y-8375001D01*
X37351845Y-8335739D01*
X37373516Y-8264297D01*
X37380834Y-8190000D01*
X37379000Y-7836750D01*
X37284250Y-7742000D01*
X36002000Y-7742000D01*
X36002000Y-7762000D01*
X35998000Y-7762000D01*
X35998000Y-7742000D01*
X34715750Y-7742000D01*
X34621000Y-7836750D01*
X34619166Y-8190000D01*
X34626484Y-8264297D01*
X34648155Y-8335739D01*
X34669141Y-8375001D01*
X34665935Y-8381000D01*
X27520895Y-8381000D01*
X27490000Y-8377957D01*
X27366694Y-8390102D01*
X27330728Y-8401012D01*
X27248128Y-8426068D01*
X27138856Y-8484475D01*
X27043078Y-8563078D01*
X27023380Y-8587080D01*
X24577080Y-11033380D01*
X24553078Y-11053078D01*
X24474475Y-11148857D01*
X24416068Y-11258129D01*
X24401488Y-11306195D01*
X24380102Y-11376695D01*
X24367957Y-11500000D01*
X24371000Y-11530895D01*
X24371000Y-12310999D01*
X24368995Y-12309659D01*
X24227226Y-12250937D01*
X24076725Y-12221000D01*
X23923275Y-12221000D01*
X23772774Y-12250937D01*
X23631005Y-12309659D01*
X23503417Y-12394911D01*
X23402328Y-12496000D01*
X23017672Y-12496000D01*
X22916583Y-12394911D01*
X22788995Y-12309659D01*
X22647226Y-12250937D01*
X22496725Y-12221000D01*
X22343275Y-12221000D01*
X22192774Y-12250937D01*
X22051005Y-12309659D01*
X21923417Y-12394911D01*
X21814911Y-12503417D01*
X21729659Y-12631005D01*
X21670937Y-12772774D01*
X21641000Y-12923275D01*
X21641000Y-13076725D01*
X21670937Y-13227226D01*
X21676586Y-13240864D01*
X21576725Y-13221000D01*
X21423275Y-13221000D01*
X21272774Y-13250937D01*
X21131005Y-13309659D01*
X21003417Y-13394911D01*
X20894911Y-13503417D01*
X20809659Y-13631005D01*
X20750937Y-13772774D01*
X20721000Y-13923275D01*
X20380833Y-13923275D01*
X20380833Y-13640000D01*
X20373515Y-13565703D01*
X20351844Y-13494262D01*
X20330858Y-13455000D01*
X20351844Y-13415738D01*
X20373515Y-13344297D01*
X20380833Y-13270000D01*
X20380833Y-12370000D01*
X20373515Y-12295703D01*
X20351844Y-12224262D01*
X20330858Y-12185000D01*
X20351844Y-12145738D01*
X20373515Y-12074297D01*
X20380833Y-12000000D01*
X20380833Y-11100000D01*
X20373515Y-11025703D01*
X20351844Y-10954262D01*
X20330858Y-10915000D01*
X20351844Y-10875738D01*
X20373515Y-10804297D01*
X20380833Y-10730000D01*
X20380833Y-9830000D01*
X20373515Y-9755703D01*
X20351844Y-9684262D01*
X20330858Y-9645000D01*
X20351844Y-9605738D01*
X20373515Y-9534297D01*
X20380833Y-9460000D01*
X20380833Y-8560000D01*
X20373515Y-8485703D01*
X20351844Y-8414262D01*
X20330859Y-8375001D01*
X20351845Y-8335739D01*
X20373516Y-8264297D01*
X20380834Y-8190000D01*
X20379000Y-7836750D01*
X20284250Y-7742000D01*
X19002000Y-7742000D01*
X19002000Y-7762000D01*
X18998000Y-7762000D01*
X18998000Y-7742000D01*
X17715750Y-7742000D01*
X17621000Y-7836750D01*
X17619166Y-8190000D01*
X17626484Y-8264297D01*
X17648155Y-8335739D01*
X17669141Y-8375001D01*
X17648156Y-8414262D01*
X17626485Y-8485703D01*
X17619167Y-8560000D01*
X17619167Y-9460000D01*
X17626485Y-9534297D01*
X17648156Y-9605738D01*
X17669142Y-9645000D01*
X17648156Y-9684262D01*
X17626485Y-9755703D01*
X17619167Y-9830000D01*
X17619167Y-10730000D01*
X17626485Y-10804297D01*
X17648156Y-10875738D01*
X17669142Y-10915000D01*
X17648156Y-10954262D01*
X17626485Y-11025703D01*
X17624486Y-11046000D01*
X11111163Y-11046000D01*
X11086409Y-11043562D01*
X10987608Y-11053293D01*
X10946240Y-11065842D01*
X10892605Y-11082112D01*
X10805048Y-11128912D01*
X10728304Y-11191894D01*
X10712524Y-11211122D01*
X3661123Y-18262524D01*
X3641895Y-18278304D01*
X3626115Y-18297532D01*
X3578913Y-18355048D01*
X3550153Y-18408855D01*
X3468672Y-18309156D01*
X3320566Y-18187102D01*
X3151495Y-18096287D01*
X2967955Y-18040201D01*
X2777000Y-18021000D01*
X2502000Y-18021000D01*
X2502000Y-18998000D01*
X2522000Y-18998000D01*
X2522000Y-19002000D01*
X2502000Y-19002000D01*
X2502000Y-19979000D01*
X2777000Y-19979000D01*
X2967955Y-19959799D01*
X3151495Y-19903713D01*
X3320566Y-19812898D01*
X3468672Y-19690844D01*
X3496001Y-19657405D01*
X3496000Y-20335337D01*
X3470606Y-20304394D01*
X3321534Y-20182053D01*
X3151459Y-20091146D01*
X2966917Y-20035166D01*
X2823086Y-20021000D01*
X2176914Y-20021000D01*
X2033083Y-20035166D01*
X1848541Y-20091146D01*
X1678466Y-20182053D01*
X1529394Y-20304394D01*
X1407053Y-20453466D01*
X1316146Y-20623541D01*
X1260166Y-20808083D01*
X1241264Y-21000000D01*
X401283Y-21000000D01*
X401075Y-19155124D01*
X1258368Y-19155124D01*
X1264420Y-19189032D01*
X1319756Y-19372800D01*
X1409880Y-19542241D01*
X1531328Y-19690844D01*
X1679434Y-19812898D01*
X1848505Y-19903713D01*
X2032045Y-19959799D01*
X2223000Y-19979000D01*
X2498000Y-19979000D01*
X2498000Y-19002000D01*
X1340752Y-19002000D01*
X1258368Y-19155124D01*
X401075Y-19155124D01*
X401040Y-18844876D01*
X1258368Y-18844876D01*
X1340752Y-18998000D01*
X2498000Y-18998000D01*
X2498000Y-18021000D01*
X2223000Y-18021000D01*
X2032045Y-18040201D01*
X1848505Y-18096287D01*
X1679434Y-18187102D01*
X1531328Y-18309156D01*
X1409880Y-18457759D01*
X1319756Y-18627200D01*
X1264420Y-18810968D01*
X1258368Y-18844876D01*
X401040Y-18844876D01*
X400830Y-17000000D01*
X1241264Y-17000000D01*
X1260166Y-17191917D01*
X1316146Y-17376459D01*
X1407053Y-17546534D01*
X1529394Y-17695606D01*
X1678466Y-17817947D01*
X1848541Y-17908854D01*
X2033083Y-17964834D01*
X2176914Y-17979000D01*
X2823086Y-17979000D01*
X2966917Y-17964834D01*
X3151459Y-17908854D01*
X3321534Y-17817947D01*
X3470606Y-17695606D01*
X3592947Y-17546534D01*
X3683854Y-17376459D01*
X3739834Y-17191917D01*
X3758736Y-17000000D01*
X3739834Y-16808083D01*
X3683854Y-16623541D01*
X3592947Y-16453466D01*
X3470606Y-16304394D01*
X3321534Y-16182053D01*
X3151459Y-16091146D01*
X2966917Y-16035166D01*
X2823086Y-16021000D01*
X2176914Y-16021000D01*
X2033083Y-16035166D01*
X1848541Y-16091146D01*
X1678466Y-16182053D01*
X1529394Y-16304394D01*
X1407053Y-16453466D01*
X1316146Y-16623541D01*
X1260166Y-16808083D01*
X1241264Y-17000000D01*
X400830Y-17000000D01*
X400604Y-15000000D01*
X1241264Y-15000000D01*
X1260166Y-15191917D01*
X1316146Y-15376459D01*
X1407053Y-15546534D01*
X1529394Y-15695606D01*
X1678466Y-15817947D01*
X1848541Y-15908854D01*
X2033083Y-15964834D01*
X2176914Y-15979000D01*
X2823086Y-15979000D01*
X2966917Y-15964834D01*
X3151459Y-15908854D01*
X3321534Y-15817947D01*
X3470606Y-15695606D01*
X3592947Y-15546534D01*
X3683854Y-15376459D01*
X3739834Y-15191917D01*
X3758736Y-15000000D01*
X3739834Y-14808083D01*
X3683854Y-14623541D01*
X3592947Y-14453466D01*
X3470606Y-14304394D01*
X3321534Y-14182053D01*
X3151459Y-14091146D01*
X2966917Y-14035166D01*
X2823086Y-14021000D01*
X2176914Y-14021000D01*
X2033083Y-14035166D01*
X1848541Y-14091146D01*
X1678466Y-14182053D01*
X1529394Y-14304394D01*
X1407053Y-14453466D01*
X1316146Y-14623541D01*
X1260166Y-14808083D01*
X1241264Y-15000000D01*
X400604Y-15000000D01*
X400321Y-12511274D01*
X476330Y-11151739D01*
X701528Y-9820293D01*
X1073739Y-8522237D01*
X1581630Y-7290000D01*
X17619166Y-7290000D01*
X17621000Y-7643250D01*
X17715750Y-7738000D01*
X18998000Y-7738000D01*
X18998000Y-7005750D01*
X19002000Y-7005750D01*
X19002000Y-7738000D01*
X20284250Y-7738000D01*
X20379000Y-7643250D01*
X20380834Y-7290000D01*
X34619166Y-7290000D01*
X34621000Y-7643250D01*
X34715750Y-7738000D01*
X35998000Y-7738000D01*
X35998000Y-7005750D01*
X36002000Y-7005750D01*
X36002000Y-7738000D01*
X37284250Y-7738000D01*
X37379000Y-7643250D01*
X37380834Y-7290000D01*
X37373516Y-7215703D01*
X37351845Y-7144261D01*
X37316652Y-7078420D01*
X37269290Y-7020710D01*
X37211580Y-6973348D01*
X37145739Y-6938155D01*
X37074297Y-6916484D01*
X37000000Y-6909166D01*
X36096750Y-6911000D01*
X36002000Y-7005750D01*
X35998000Y-7005750D01*
X35903250Y-6911000D01*
X35000000Y-6909166D01*
X34925703Y-6916484D01*
X34854261Y-6938155D01*
X34788420Y-6973348D01*
X34730710Y-7020710D01*
X34683348Y-7078420D01*
X34648155Y-7144261D01*
X34626484Y-7215703D01*
X34619166Y-7290000D01*
X20380834Y-7290000D01*
X20373516Y-7215703D01*
X20351845Y-7144261D01*
X20316652Y-7078420D01*
X20269290Y-7020710D01*
X20211580Y-6973348D01*
X20145739Y-6938155D01*
X20074297Y-6916484D01*
X20000000Y-6909166D01*
X19096750Y-6911000D01*
X19002000Y-7005750D01*
X18998000Y-7005750D01*
X18903250Y-6911000D01*
X18000000Y-6909166D01*
X17925703Y-6916484D01*
X17854261Y-6938155D01*
X17788420Y-6973348D01*
X17730710Y-7020710D01*
X17683348Y-7078420D01*
X17648155Y-7144261D01*
X17626484Y-7215703D01*
X17619166Y-7290000D01*
X1581630Y-7290000D01*
X1588322Y-7273764D01*
X1944984Y-6625000D01*
X53047473Y-6625000D01*
X53367566Y-7197740D01*
G04 #@! TA.AperFunction,Conductor*
D25*
G36*
X53367566Y-7197740D02*
G01*
X53890852Y-8442589D01*
X54272117Y-9738016D01*
X54506604Y-11067856D01*
X54592059Y-12426131D01*
X54592322Y-12501412D01*
X54594998Y-12546436D01*
X54596001Y-12552243D01*
X54596000Y-49885554D01*
X54515638Y-49787189D01*
X54378898Y-49674462D01*
X54222793Y-49590578D01*
X54053323Y-49538760D01*
X53877000Y-49521000D01*
X53452000Y-49521000D01*
X53452000Y-50423000D01*
X53472000Y-50423000D01*
X53472000Y-50427000D01*
X53452000Y-50427000D01*
X53452000Y-51329000D01*
X53877000Y-51329000D01*
X54053323Y-51311240D01*
X54222793Y-51259422D01*
X54378898Y-51175538D01*
X54515638Y-51062811D01*
X54596000Y-50964446D01*
X54596000Y-57035554D01*
X54515638Y-56937189D01*
X54378898Y-56824462D01*
X54222793Y-56740578D01*
X54053323Y-56688760D01*
X53877000Y-56671000D01*
X53452000Y-56671000D01*
X53452000Y-57573000D01*
X53472000Y-57573000D01*
X53472000Y-57577000D01*
X53452000Y-57577000D01*
X53452000Y-58479000D01*
X53877000Y-58479000D01*
X54053323Y-58461240D01*
X54222793Y-58409422D01*
X54378898Y-58325538D01*
X54515638Y-58212811D01*
X54596000Y-58114446D01*
X54596000Y-64950477D01*
X54593304Y-64971818D01*
X54592950Y-64977448D01*
X54516310Y-66348261D01*
X54291113Y-67679704D01*
X53918902Y-68977760D01*
X53404318Y-70226236D01*
X52753775Y-71409567D01*
X51975384Y-72513008D01*
X51078836Y-73522815D01*
X50075325Y-74426380D01*
X48977339Y-75212460D01*
X47798587Y-75871243D01*
X46553731Y-76394532D01*
X45258304Y-76775797D01*
X43928464Y-77010284D01*
X42570189Y-77095739D01*
X42495480Y-77096000D01*
X12507604Y-77096000D01*
X11148059Y-77019990D01*
X9816616Y-76794793D01*
X8518560Y-76422582D01*
X7270084Y-75907998D01*
X6086753Y-75257455D01*
X4983312Y-74479064D01*
X3973505Y-73582516D01*
X3069940Y-72579005D01*
X2283860Y-71481019D01*
X1625077Y-70302267D01*
X1101788Y-69057411D01*
X952996Y-68551859D01*
X9009500Y-68551859D01*
X9009500Y-68814141D01*
X9060668Y-69071384D01*
X9161040Y-69313702D01*
X9306756Y-69531782D01*
X9492218Y-69717244D01*
X9710298Y-69862960D01*
X9952616Y-69963332D01*
X10209859Y-70014500D01*
X10472141Y-70014500D01*
X10729384Y-69963332D01*
X10971702Y-69862960D01*
X11189782Y-69717244D01*
X11343543Y-69563483D01*
X13781345Y-69563483D01*
X13874196Y-69766594D01*
X14100674Y-69898880D01*
X14348608Y-69984441D01*
X14608472Y-70019989D01*
X14870276Y-70004157D01*
X15123962Y-69937554D01*
X15359779Y-69822738D01*
X15443804Y-69766594D01*
X15536655Y-69563483D01*
X14659000Y-68685828D01*
X13781345Y-69563483D01*
X11343543Y-69563483D01*
X11375244Y-69531782D01*
X11520960Y-69313702D01*
X11621332Y-69071384D01*
X11672500Y-68814141D01*
X11672500Y-68632472D01*
X13322011Y-68632472D01*
X13337843Y-68894276D01*
X13404446Y-69147962D01*
X13519262Y-69383779D01*
X13575406Y-69467804D01*
X13778517Y-69560655D01*
X14656172Y-68683000D01*
X14661828Y-68683000D01*
X15539483Y-69560655D01*
X15742594Y-69467804D01*
X15874880Y-69241326D01*
X15960441Y-68993392D01*
X15995989Y-68733528D01*
X15985003Y-68551859D01*
X39009500Y-68551859D01*
X39009500Y-68814141D01*
X39060668Y-69071384D01*
X39161040Y-69313702D01*
X39306756Y-69531782D01*
X39492218Y-69717244D01*
X39710298Y-69862960D01*
X39952616Y-69963332D01*
X40209859Y-70014500D01*
X40472141Y-70014500D01*
X40729384Y-69963332D01*
X40971702Y-69862960D01*
X41189782Y-69717244D01*
X41343543Y-69563483D01*
X43781345Y-69563483D01*
X43874196Y-69766594D01*
X44100674Y-69898880D01*
X44348608Y-69984441D01*
X44608472Y-70019989D01*
X44870276Y-70004157D01*
X45123962Y-69937554D01*
X45359779Y-69822738D01*
X45443804Y-69766594D01*
X45536655Y-69563483D01*
X44659000Y-68685828D01*
X43781345Y-69563483D01*
X41343543Y-69563483D01*
X41375244Y-69531782D01*
X41520960Y-69313702D01*
X41621332Y-69071384D01*
X41672500Y-68814141D01*
X41672500Y-68632472D01*
X43322011Y-68632472D01*
X43337843Y-68894276D01*
X43404446Y-69147962D01*
X43519262Y-69383779D01*
X43575406Y-69467804D01*
X43778517Y-69560655D01*
X44656172Y-68683000D01*
X44661828Y-68683000D01*
X45539483Y-69560655D01*
X45742594Y-69467804D01*
X45874880Y-69241326D01*
X45960441Y-68993392D01*
X45995989Y-68733528D01*
X45980157Y-68471724D01*
X45913554Y-68218038D01*
X45798738Y-67982221D01*
X45742594Y-67898196D01*
X45539483Y-67805345D01*
X44661828Y-68683000D01*
X44656172Y-68683000D01*
X43778517Y-67805345D01*
X43575406Y-67898196D01*
X43443120Y-68124674D01*
X43357559Y-68372608D01*
X43322011Y-68632472D01*
X41672500Y-68632472D01*
X41672500Y-68551859D01*
X41621332Y-68294616D01*
X41520960Y-68052298D01*
X41375244Y-67834218D01*
X41343543Y-67802517D01*
X43781345Y-67802517D01*
X44659000Y-68680172D01*
X45536655Y-67802517D01*
X45443804Y-67599406D01*
X45217326Y-67467120D01*
X44969392Y-67381559D01*
X44709528Y-67346011D01*
X44447724Y-67361843D01*
X44194038Y-67428446D01*
X43958221Y-67543262D01*
X43874196Y-67599406D01*
X43781345Y-67802517D01*
X41343543Y-67802517D01*
X41189782Y-67648756D01*
X40971702Y-67503040D01*
X40729384Y-67402668D01*
X40472141Y-67351500D01*
X40209859Y-67351500D01*
X39952616Y-67402668D01*
X39710298Y-67503040D01*
X39492218Y-67648756D01*
X39306756Y-67834218D01*
X39161040Y-68052298D01*
X39060668Y-68294616D01*
X39009500Y-68551859D01*
X15985003Y-68551859D01*
X15980157Y-68471724D01*
X15913554Y-68218038D01*
X15798738Y-67982221D01*
X15742594Y-67898196D01*
X15539483Y-67805345D01*
X14661828Y-68683000D01*
X14656172Y-68683000D01*
X13778517Y-67805345D01*
X13575406Y-67898196D01*
X13443120Y-68124674D01*
X13357559Y-68372608D01*
X13322011Y-68632472D01*
X11672500Y-68632472D01*
X11672500Y-68551859D01*
X11621332Y-68294616D01*
X11520960Y-68052298D01*
X11375244Y-67834218D01*
X11343543Y-67802517D01*
X13781345Y-67802517D01*
X14659000Y-68680172D01*
X15536655Y-67802517D01*
X15443804Y-67599406D01*
X15217326Y-67467120D01*
X14969392Y-67381559D01*
X14709528Y-67346011D01*
X14447724Y-67361843D01*
X14194038Y-67428446D01*
X13958221Y-67543262D01*
X13874196Y-67599406D01*
X13781345Y-67802517D01*
X11343543Y-67802517D01*
X11189782Y-67648756D01*
X10971702Y-67503040D01*
X10729384Y-67402668D01*
X10472141Y-67351500D01*
X10209859Y-67351500D01*
X9952616Y-67402668D01*
X9710298Y-67503040D01*
X9492218Y-67648756D01*
X9306756Y-67834218D01*
X9161040Y-68052298D01*
X9060668Y-68294616D01*
X9009500Y-68551859D01*
X952996Y-68551859D01*
X720523Y-67761984D01*
X486036Y-66432144D01*
X400581Y-65073869D01*
X400320Y-64999018D01*
X403894Y-51404000D01*
X3980160Y-51404000D01*
X4000000Y-51405954D01*
X4019840Y-51404000D01*
X4079198Y-51398154D01*
X4155352Y-51375053D01*
X4225536Y-51337538D01*
X4287053Y-51287053D01*
X4337538Y-51225536D01*
X4375053Y-51155352D01*
X4398154Y-51079198D01*
X4405954Y-51000000D01*
X4404000Y-50980160D01*
X4404000Y-45019840D01*
X4405954Y-45000000D01*
X4398154Y-44920802D01*
X4375053Y-44844648D01*
X4337538Y-44774464D01*
X4287053Y-44712947D01*
X4225536Y-44662462D01*
X4155352Y-44624947D01*
X4079198Y-44601846D01*
X4019840Y-44596000D01*
X4000000Y-44594046D01*
X3980160Y-44596000D01*
X403954Y-44596000D01*
X401697Y-24649999D01*
X1244167Y-24649999D01*
X1244167Y-25350001D01*
X1256288Y-25473070D01*
X1292186Y-25591410D01*
X1350481Y-25700472D01*
X1428933Y-25796067D01*
X1524528Y-25874519D01*
X1633590Y-25932814D01*
X1751930Y-25968712D01*
X1874999Y-25980833D01*
X3125001Y-25980833D01*
X3248070Y-25968712D01*
X3366410Y-25932814D01*
X3475472Y-25874519D01*
X3571067Y-25796067D01*
X3649519Y-25700472D01*
X3707814Y-25591410D01*
X3743712Y-25473070D01*
X3755833Y-25350001D01*
X3755833Y-24649999D01*
X3743712Y-24526930D01*
X3707814Y-24408590D01*
X3649519Y-24299528D01*
X3571067Y-24203933D01*
X3475472Y-24125481D01*
X3366410Y-24067186D01*
X3248070Y-24031288D01*
X3125001Y-24019167D01*
X1874999Y-24019167D01*
X1751930Y-24031288D01*
X1633590Y-24067186D01*
X1524528Y-24125481D01*
X1428933Y-24203933D01*
X1350481Y-24299528D01*
X1292186Y-24408590D01*
X1256288Y-24526930D01*
X1244167Y-24649999D01*
X401697Y-24649999D01*
X401283Y-21000000D01*
X1241264Y-21000000D01*
X1260166Y-21191917D01*
X1316146Y-21376459D01*
X1407053Y-21546534D01*
X1529394Y-21695606D01*
X1678466Y-21817947D01*
X1848541Y-21908854D01*
X2033083Y-21964834D01*
X2176914Y-21979000D01*
X2808237Y-21979000D01*
X2766237Y-22021000D01*
X2176914Y-22021000D01*
X2033083Y-22035166D01*
X1848541Y-22091146D01*
X1678466Y-22182053D01*
X1529394Y-22304394D01*
X1407053Y-22453466D01*
X1316146Y-22623541D01*
X1260166Y-22808083D01*
X1241264Y-23000000D01*
X1260166Y-23191917D01*
X1316146Y-23376459D01*
X1407053Y-23546534D01*
X1529394Y-23695606D01*
X1678466Y-23817947D01*
X1848541Y-23908854D01*
X2033083Y-23964834D01*
X2176914Y-23979000D01*
X2823086Y-23979000D01*
X2966917Y-23964834D01*
X3151459Y-23908854D01*
X3321534Y-23817947D01*
X3470606Y-23695606D01*
X3592947Y-23546534D01*
X3683854Y-23376459D01*
X3739834Y-23191917D01*
X3758736Y-23000000D01*
X3739834Y-22808083D01*
X3683854Y-22623541D01*
X3650891Y-22561872D01*
X4338878Y-21873886D01*
X4358106Y-21858106D01*
X4421088Y-21781362D01*
X4454661Y-21718552D01*
X4497774Y-21736410D01*
X4648275Y-21766347D01*
X4801725Y-21766347D01*
X4952226Y-21736410D01*
X5093995Y-21677688D01*
X5221583Y-21592436D01*
X5330089Y-21483930D01*
X5415341Y-21356342D01*
X5474063Y-21214573D01*
X5504000Y-21064072D01*
X5504000Y-20910622D01*
X5474063Y-20760121D01*
X5415341Y-20618352D01*
X5330089Y-20490764D01*
X5229000Y-20389675D01*
X5229000Y-18756583D01*
X10661583Y-13324000D01*
X17624486Y-13324000D01*
X17626485Y-13344297D01*
X17648156Y-13415738D01*
X17669142Y-13455000D01*
X17648156Y-13494262D01*
X17626485Y-13565703D01*
X17619167Y-13640000D01*
X17619167Y-14540000D01*
X17626485Y-14614297D01*
X17648156Y-14685738D01*
X17669142Y-14725000D01*
X17648156Y-14764262D01*
X17626485Y-14835703D01*
X17619167Y-14910000D01*
X17619167Y-15810000D01*
X17626485Y-15884297D01*
X17648156Y-15955738D01*
X17669142Y-15995000D01*
X17648156Y-16034262D01*
X17626485Y-16105703D01*
X17619167Y-16180000D01*
X17619167Y-17080000D01*
X17626485Y-17154297D01*
X17648156Y-17225738D01*
X17669142Y-17265000D01*
X17648156Y-17304262D01*
X17626485Y-17375703D01*
X17619167Y-17450000D01*
X17619167Y-18350000D01*
X17626485Y-18424297D01*
X17648156Y-18495738D01*
X17669142Y-18535000D01*
X17648156Y-18574262D01*
X17626485Y-18645703D01*
X17619167Y-18720000D01*
X17619167Y-19620000D01*
X17626485Y-19694297D01*
X17648156Y-19765738D01*
X17669142Y-19805000D01*
X17648156Y-19844262D01*
X17626485Y-19915703D01*
X17624486Y-19936000D01*
X15584753Y-19936000D01*
X15559999Y-19933562D01*
X15461198Y-19943293D01*
X15419830Y-19955842D01*
X15366195Y-19972112D01*
X15278638Y-20018912D01*
X15201894Y-20081894D01*
X15186115Y-20101121D01*
X13661123Y-21626114D01*
X13641895Y-21641894D01*
X13626115Y-21661122D01*
X13578913Y-21718638D01*
X13532113Y-21806195D01*
X13503293Y-21901199D01*
X13493562Y-22000000D01*
X13496001Y-22024764D01*
X13496000Y-35291236D01*
X12864239Y-35922998D01*
X11597756Y-35922998D01*
X11573002Y-35920560D01*
X11474200Y-35930291D01*
X11445381Y-35939033D01*
X11379197Y-35959110D01*
X11291640Y-36005910D01*
X11214896Y-36068892D01*
X11199112Y-36088125D01*
X5161123Y-42126114D01*
X5141895Y-42141894D01*
X5126115Y-42161122D01*
X5078913Y-42218638D01*
X5032113Y-42306195D01*
X5003293Y-42401199D01*
X4993562Y-42500000D01*
X4996001Y-42524764D01*
X4996000Y-58975246D01*
X4993562Y-59000000D01*
X4996000Y-59024753D01*
X5003293Y-59098800D01*
X5032112Y-59193804D01*
X5078912Y-59281362D01*
X5141894Y-59358106D01*
X5161127Y-59373890D01*
X7443110Y-61655873D01*
X7458894Y-61675106D01*
X7535638Y-61738088D01*
X7623195Y-61784888D01*
X7689379Y-61804965D01*
X7718198Y-61813707D01*
X7817000Y-61823438D01*
X7841754Y-61821000D01*
X9108558Y-61821000D01*
X9161040Y-61947702D01*
X9306756Y-62165782D01*
X9492218Y-62351244D01*
X9710298Y-62496960D01*
X9952616Y-62597332D01*
X10209859Y-62648500D01*
X10472141Y-62648500D01*
X10729384Y-62597332D01*
X10971702Y-62496960D01*
X11189782Y-62351244D01*
X11271526Y-62269500D01*
X13325666Y-62269500D01*
X13332984Y-62343797D01*
X13354655Y-62415239D01*
X13389848Y-62481080D01*
X13437210Y-62538790D01*
X13494920Y-62586152D01*
X13560761Y-62621345D01*
X13632203Y-62643016D01*
X13706500Y-62650334D01*
X14562250Y-62648500D01*
X14657000Y-62553750D01*
X14657000Y-61319000D01*
X14661000Y-61319000D01*
X14661000Y-62553750D01*
X14755750Y-62648500D01*
X15611500Y-62650334D01*
X15685797Y-62643016D01*
X15757239Y-62621345D01*
X15823080Y-62586152D01*
X15880790Y-62538790D01*
X15928152Y-62481080D01*
X15963345Y-62415239D01*
X15985016Y-62343797D01*
X15992334Y-62269500D01*
X15990500Y-61413750D01*
X15895750Y-61319000D01*
X14661000Y-61319000D01*
X14657000Y-61319000D01*
X13422250Y-61319000D01*
X13327500Y-61413750D01*
X13325666Y-62269500D01*
X11271526Y-62269500D01*
X11375244Y-62165782D01*
X11520960Y-61947702D01*
X11621332Y-61705384D01*
X11672500Y-61448141D01*
X11672500Y-61185859D01*
X11621332Y-60928616D01*
X11520960Y-60686298D01*
X11375244Y-60468218D01*
X11271526Y-60364500D01*
X13325666Y-60364500D01*
X13327500Y-61220250D01*
X13422250Y-61315000D01*
X14657000Y-61315000D01*
X14657000Y-60080250D01*
X14661000Y-60080250D01*
X14661000Y-61315000D01*
X15895750Y-61315000D01*
X15990500Y-61220250D01*
X15992334Y-60364500D01*
X15985016Y-60290203D01*
X15963345Y-60218761D01*
X15928152Y-60152920D01*
X15880790Y-60095210D01*
X15823080Y-60047848D01*
X15757239Y-60012655D01*
X15685797Y-59990984D01*
X15611500Y-59983666D01*
X14755750Y-59985500D01*
X14661000Y-60080250D01*
X14657000Y-60080250D01*
X14562250Y-59985500D01*
X13706500Y-59983666D01*
X13632203Y-59990984D01*
X13560761Y-60012655D01*
X13494920Y-60047848D01*
X13437210Y-60095210D01*
X13389848Y-60152920D01*
X13354655Y-60218761D01*
X13332984Y-60290203D01*
X13325666Y-60364500D01*
X11271526Y-60364500D01*
X11189782Y-60282756D01*
X10971702Y-60137040D01*
X10729384Y-60036668D01*
X10472141Y-59985500D01*
X10209859Y-59985500D01*
X9952616Y-60036668D01*
X9710298Y-60137040D01*
X9492218Y-60282756D01*
X9306756Y-60468218D01*
X9161040Y-60686298D01*
X9108558Y-60813000D01*
X8025763Y-60813000D01*
X6004000Y-58791237D01*
X6004000Y-42708763D01*
X6289488Y-42423275D01*
X6721000Y-42423275D01*
X6721000Y-42576725D01*
X6750937Y-42727226D01*
X6809659Y-42868995D01*
X6894911Y-42996583D01*
X7003417Y-43105089D01*
X7131005Y-43190341D01*
X7272774Y-43249063D01*
X7381063Y-43270603D01*
X23233500Y-59123040D01*
X23233501Y-59676701D01*
X23172159Y-59768505D01*
X23113437Y-59910274D01*
X23104132Y-59957054D01*
X14120539Y-50973461D01*
X14190341Y-50868995D01*
X14249063Y-50727226D01*
X14279000Y-50576725D01*
X14279000Y-50423275D01*
X14249063Y-50272774D01*
X14190341Y-50131005D01*
X14105089Y-50003417D01*
X13996583Y-49894911D01*
X13868995Y-49809659D01*
X13727226Y-49750937D01*
X13576725Y-49721000D01*
X13423275Y-49721000D01*
X13272774Y-49750937D01*
X13131005Y-49809659D01*
X13003417Y-49894911D01*
X12894911Y-50003417D01*
X12809659Y-50131005D01*
X12750937Y-50272774D01*
X12721000Y-50423275D01*
X12721000Y-50576725D01*
X12750937Y-50727226D01*
X12809659Y-50868995D01*
X12894911Y-50996583D01*
X12996790Y-51098462D01*
X13003293Y-51164486D01*
X13021813Y-51225536D01*
X13032113Y-51259490D01*
X13078913Y-51347047D01*
X13141895Y-51423791D01*
X13161123Y-51439571D01*
X23377425Y-61655873D01*
X23393209Y-61675106D01*
X23469953Y-61738088D01*
X23557510Y-61784888D01*
X23652514Y-61813707D01*
X23751315Y-61823438D01*
X23776069Y-61821000D01*
X39108558Y-61821000D01*
X39161040Y-61947702D01*
X39306756Y-62165782D01*
X39492218Y-62351244D01*
X39710298Y-62496960D01*
X39952616Y-62597332D01*
X40209859Y-62648500D01*
X40472141Y-62648500D01*
X40729384Y-62597332D01*
X40971702Y-62496960D01*
X41189782Y-62351244D01*
X41271526Y-62269500D01*
X43325666Y-62269500D01*
X43332984Y-62343797D01*
X43354655Y-62415239D01*
X43389848Y-62481080D01*
X43437210Y-62538790D01*
X43494920Y-62586152D01*
X43560761Y-62621345D01*
X43632203Y-62643016D01*
X43706500Y-62650334D01*
X44562250Y-62648500D01*
X44657000Y-62553750D01*
X44657000Y-61319000D01*
X44661000Y-61319000D01*
X44661000Y-62553750D01*
X44755750Y-62648500D01*
X45611500Y-62650334D01*
X45685797Y-62643016D01*
X45757239Y-62621345D01*
X45823080Y-62586152D01*
X45880790Y-62538790D01*
X45928152Y-62481080D01*
X45963345Y-62415239D01*
X45985016Y-62343797D01*
X45992334Y-62269500D01*
X45990500Y-61413750D01*
X45895750Y-61319000D01*
X44661000Y-61319000D01*
X44657000Y-61319000D01*
X43422250Y-61319000D01*
X43327500Y-61413750D01*
X43325666Y-62269500D01*
X41271526Y-62269500D01*
X41375244Y-62165782D01*
X41520960Y-61947702D01*
X41621332Y-61705384D01*
X41672500Y-61448141D01*
X41672500Y-61185859D01*
X41621332Y-60928616D01*
X41520960Y-60686298D01*
X41375244Y-60468218D01*
X41271526Y-60364500D01*
X43325666Y-60364500D01*
X43327500Y-61220250D01*
X43422250Y-61315000D01*
X44657000Y-61315000D01*
X44657000Y-60080250D01*
X44661000Y-60080250D01*
X44661000Y-61315000D01*
X45895750Y-61315000D01*
X45990500Y-61220250D01*
X45992334Y-60364500D01*
X45985016Y-60290203D01*
X45963345Y-60218761D01*
X45928152Y-60152920D01*
X45880790Y-60095210D01*
X45823080Y-60047848D01*
X45757239Y-60012655D01*
X45685797Y-59990984D01*
X45611500Y-59983666D01*
X44755750Y-59985500D01*
X44661000Y-60080250D01*
X44657000Y-60080250D01*
X44562250Y-59985500D01*
X43706500Y-59983666D01*
X43632203Y-59990984D01*
X43560761Y-60012655D01*
X43494920Y-60047848D01*
X43437210Y-60095210D01*
X43389848Y-60152920D01*
X43354655Y-60218761D01*
X43332984Y-60290203D01*
X43325666Y-60364500D01*
X41271526Y-60364500D01*
X41189782Y-60282756D01*
X40971702Y-60137040D01*
X40729384Y-60036668D01*
X40472141Y-59985500D01*
X40209859Y-59985500D01*
X39952616Y-60036668D01*
X39710298Y-60137040D01*
X39492218Y-60282756D01*
X39306756Y-60468218D01*
X39161040Y-60686298D01*
X39108558Y-60813000D01*
X24253706Y-60813000D01*
X24359083Y-60742589D01*
X24467589Y-60634083D01*
X24552841Y-60506495D01*
X24611563Y-60364726D01*
X24641500Y-60214225D01*
X24641500Y-60060775D01*
X24611563Y-59910274D01*
X24552841Y-59768505D01*
X24491500Y-59676702D01*
X24491500Y-58893386D01*
X24494542Y-58862499D01*
X24491500Y-58831612D01*
X24491500Y-58831605D01*
X24482398Y-58739195D01*
X24482398Y-58739193D01*
X24446431Y-58620626D01*
X24443804Y-58615711D01*
X24388025Y-58511356D01*
X24309422Y-58415578D01*
X24285421Y-58395881D01*
X20812815Y-54923275D01*
X24721000Y-54923275D01*
X24721000Y-55076725D01*
X24750937Y-55227226D01*
X24809659Y-55368995D01*
X24894911Y-55496583D01*
X24996000Y-55597672D01*
X24996001Y-56475237D01*
X24993562Y-56500000D01*
X25003293Y-56598801D01*
X25025195Y-56671000D01*
X25032113Y-56693805D01*
X25078913Y-56781362D01*
X25141895Y-56858106D01*
X25161123Y-56873886D01*
X25996000Y-57708763D01*
X25996001Y-59402327D01*
X25894911Y-59503417D01*
X25809659Y-59631005D01*
X25750937Y-59772774D01*
X25721000Y-59923275D01*
X25721000Y-60076725D01*
X25750937Y-60227226D01*
X25809659Y-60368995D01*
X25894911Y-60496583D01*
X26003417Y-60605089D01*
X26131005Y-60690341D01*
X26272774Y-60749063D01*
X26423275Y-60779000D01*
X26576725Y-60779000D01*
X26727226Y-60749063D01*
X26868995Y-60690341D01*
X26996583Y-60605089D01*
X27105089Y-60496583D01*
X27190341Y-60368995D01*
X27249063Y-60227226D01*
X27279000Y-60076725D01*
X27279000Y-59923275D01*
X27249063Y-59772774D01*
X27190341Y-59631005D01*
X27105089Y-59503417D01*
X27004000Y-59402328D01*
X27004000Y-57718392D01*
X52132445Y-57718392D01*
X52137980Y-57749401D01*
X52189048Y-57919099D01*
X52272241Y-58075573D01*
X52384362Y-58212811D01*
X52521102Y-58325538D01*
X52677207Y-58409422D01*
X52846677Y-58461240D01*
X53023000Y-58479000D01*
X53448000Y-58479000D01*
X53448000Y-57577000D01*
X52215752Y-57577000D01*
X52132445Y-57718392D01*
X27004000Y-57718392D01*
X27004000Y-57524754D01*
X27006438Y-57500000D01*
X26999703Y-57431608D01*
X52132445Y-57431608D01*
X52215752Y-57573000D01*
X53448000Y-57573000D01*
X53448000Y-56671000D01*
X53023000Y-56671000D01*
X52846677Y-56688760D01*
X52677207Y-56740578D01*
X52521102Y-56824462D01*
X52384362Y-56937189D01*
X52272241Y-57074427D01*
X52189048Y-57230901D01*
X52137980Y-57400599D01*
X52132445Y-57431608D01*
X26999703Y-57431608D01*
X26996707Y-57401198D01*
X26987965Y-57372379D01*
X26967888Y-57306195D01*
X26921088Y-57218638D01*
X26858106Y-57141894D01*
X26838873Y-57126110D01*
X26004000Y-56291237D01*
X26004000Y-55923275D01*
X31721000Y-55923275D01*
X31721000Y-56076725D01*
X31750937Y-56227226D01*
X31809659Y-56368995D01*
X31894911Y-56496583D01*
X32003417Y-56605089D01*
X32131005Y-56690341D01*
X32272774Y-56749063D01*
X32423275Y-56779000D01*
X32576725Y-56779000D01*
X32727226Y-56749063D01*
X32868995Y-56690341D01*
X32996583Y-56605089D01*
X33105089Y-56496583D01*
X33190341Y-56368995D01*
X33249063Y-56227226D01*
X33279000Y-56076725D01*
X33279000Y-56070540D01*
X38781148Y-50568392D01*
X52132445Y-50568392D01*
X52137980Y-50599401D01*
X52189048Y-50769099D01*
X52272241Y-50925573D01*
X52384362Y-51062811D01*
X52521102Y-51175538D01*
X52677207Y-51259422D01*
X52846677Y-51311240D01*
X53023000Y-51329000D01*
X53448000Y-51329000D01*
X53448000Y-50427000D01*
X52215752Y-50427000D01*
X52132445Y-50568392D01*
X38781148Y-50568392D01*
X39067932Y-50281608D01*
X52132445Y-50281608D01*
X52215752Y-50423000D01*
X53448000Y-50423000D01*
X53448000Y-49521000D01*
X53023000Y-49521000D01*
X52846677Y-49538760D01*
X52677207Y-49590578D01*
X52521102Y-49674462D01*
X52384362Y-49787189D01*
X52272241Y-49924427D01*
X52189048Y-50080901D01*
X52137980Y-50250599D01*
X52132445Y-50281608D01*
X39067932Y-50281608D01*
X50769167Y-38580373D01*
X50769167Y-39850000D01*
X50776485Y-39924297D01*
X50798156Y-39995738D01*
X50833349Y-40061579D01*
X50880710Y-40119290D01*
X50938421Y-40166651D01*
X51004262Y-40201844D01*
X51075703Y-40223515D01*
X51150000Y-40230833D01*
X52850000Y-40230833D01*
X52924297Y-40223515D01*
X52995738Y-40201844D01*
X53061579Y-40166651D01*
X53119290Y-40119290D01*
X53166651Y-40061579D01*
X53201844Y-39995738D01*
X53223515Y-39924297D01*
X53230833Y-39850000D01*
X53230833Y-38150000D01*
X53223515Y-38075703D01*
X53201844Y-38004262D01*
X53166651Y-37938421D01*
X53119290Y-37880710D01*
X53061579Y-37833349D01*
X52995738Y-37798156D01*
X52924297Y-37776485D01*
X52850000Y-37769167D01*
X51580373Y-37769167D01*
X51696777Y-37652763D01*
X51878954Y-37689000D01*
X52121046Y-37689000D01*
X52358486Y-37641771D01*
X52582150Y-37549126D01*
X52783442Y-37414627D01*
X52954627Y-37243442D01*
X53089126Y-37042150D01*
X53181771Y-36818486D01*
X53229000Y-36581046D01*
X53229000Y-36338954D01*
X53181771Y-36101514D01*
X53089126Y-35877850D01*
X52954627Y-35676558D01*
X52783442Y-35505373D01*
X52582150Y-35370874D01*
X52358486Y-35278229D01*
X52121046Y-35231000D01*
X51878954Y-35231000D01*
X51641514Y-35278229D01*
X51417850Y-35370874D01*
X51216558Y-35505373D01*
X51045373Y-35676558D01*
X50910874Y-35877850D01*
X50818229Y-36101514D01*
X50771000Y-36338954D01*
X50771000Y-36581046D01*
X50807237Y-36763223D01*
X32331131Y-55239329D01*
X32272774Y-55250937D01*
X32131005Y-55309659D01*
X32003417Y-55394911D01*
X31894911Y-55503417D01*
X31809659Y-55631005D01*
X31750937Y-55772774D01*
X31721000Y-55923275D01*
X26004000Y-55923275D01*
X26004000Y-55597672D01*
X26105089Y-55496583D01*
X26190341Y-55368995D01*
X26249063Y-55227226D01*
X26279000Y-55076725D01*
X26279000Y-54923275D01*
X26249063Y-54772774D01*
X26190341Y-54631005D01*
X26105089Y-54503417D01*
X25996583Y-54394911D01*
X25868995Y-54309659D01*
X25727226Y-54250937D01*
X25576725Y-54221000D01*
X25423275Y-54221000D01*
X25272774Y-54250937D01*
X25131005Y-54309659D01*
X25003417Y-54394911D01*
X24894911Y-54503417D01*
X24809659Y-54631005D01*
X24750937Y-54772774D01*
X24721000Y-54923275D01*
X20812815Y-54923275D01*
X8270603Y-42381063D01*
X8249063Y-42272774D01*
X8190341Y-42131005D01*
X8105089Y-42003417D01*
X7996583Y-41894911D01*
X7868995Y-41809659D01*
X7727226Y-41750937D01*
X7576725Y-41721000D01*
X7423275Y-41721000D01*
X7272774Y-41750937D01*
X7131005Y-41809659D01*
X7003417Y-41894911D01*
X6894911Y-42003417D01*
X6809659Y-42131005D01*
X6750937Y-42272774D01*
X6721000Y-42423275D01*
X6289488Y-42423275D01*
X11781765Y-36930998D01*
X13048248Y-36930998D01*
X13073002Y-36933436D01*
X13171803Y-36923705D01*
X13266807Y-36894886D01*
X13354364Y-36848086D01*
X13431108Y-36785104D01*
X13446892Y-36765871D01*
X14338878Y-35873886D01*
X14358106Y-35858106D01*
X14421088Y-35781362D01*
X14467888Y-35693805D01*
X14496000Y-35601131D01*
X14496001Y-45975236D01*
X14493562Y-46000000D01*
X14503293Y-46098801D01*
X14532113Y-46193804D01*
X14532113Y-46193805D01*
X14578913Y-46281362D01*
X14641895Y-46358106D01*
X14661123Y-46373886D01*
X14721000Y-46433763D01*
X14721000Y-46576725D01*
X14742333Y-46683971D01*
X14602226Y-46625937D01*
X14451725Y-46596000D01*
X14298275Y-46596000D01*
X14147774Y-46625937D01*
X14006005Y-46684659D01*
X13878417Y-46769911D01*
X13769911Y-46878417D01*
X13684659Y-47006005D01*
X13625937Y-47147774D01*
X13596000Y-47298275D01*
X13596000Y-47451725D01*
X13625937Y-47602226D01*
X13684659Y-47743995D01*
X13769911Y-47871583D01*
X13878417Y-47980089D01*
X14006005Y-48065341D01*
X14147774Y-48124063D01*
X14256063Y-48145603D01*
X20033385Y-53922926D01*
X20053078Y-53946922D01*
X20148856Y-54025525D01*
X20258128Y-54083932D01*
X20321503Y-54103156D01*
X20376693Y-54119898D01*
X20499999Y-54132043D01*
X20530894Y-54129000D01*
X32039202Y-54129000D01*
X32131005Y-54190341D01*
X32272774Y-54249063D01*
X32423275Y-54279000D01*
X32576725Y-54279000D01*
X32727226Y-54249063D01*
X32868995Y-54190341D01*
X32996583Y-54105089D01*
X33105089Y-53996583D01*
X33190341Y-53868995D01*
X33249063Y-53727226D01*
X33279000Y-53576725D01*
X33279000Y-53423275D01*
X33249063Y-53272774D01*
X33190341Y-53131005D01*
X33105089Y-53003417D01*
X32996583Y-52894911D01*
X32868995Y-52809659D01*
X32727226Y-52750937D01*
X32576725Y-52721000D01*
X32423275Y-52721000D01*
X32272774Y-52750937D01*
X32131005Y-52809659D01*
X32039202Y-52871000D01*
X31689001Y-52871000D01*
X31690341Y-52868995D01*
X31749063Y-52727226D01*
X31779000Y-52576725D01*
X31779000Y-52423275D01*
X31749063Y-52272774D01*
X31690341Y-52131005D01*
X31605089Y-52003417D01*
X31496583Y-51894911D01*
X31368995Y-51809659D01*
X31227226Y-51750937D01*
X31076725Y-51721000D01*
X30923275Y-51721000D01*
X30772774Y-51750937D01*
X30631005Y-51809659D01*
X30503417Y-51894911D01*
X30402328Y-51996000D01*
X29097672Y-51996000D01*
X28996583Y-51894911D01*
X28868995Y-51809659D01*
X28727226Y-51750937D01*
X28576725Y-51721000D01*
X28423275Y-51721000D01*
X28272774Y-51750937D01*
X28131005Y-51809659D01*
X28003417Y-51894911D01*
X27894911Y-52003417D01*
X27809659Y-52131005D01*
X27750937Y-52272774D01*
X27721000Y-52423275D01*
X27721000Y-52576725D01*
X27750937Y-52727226D01*
X27809659Y-52868995D01*
X27810999Y-52871000D01*
X25189001Y-52871000D01*
X25190341Y-52868995D01*
X25249063Y-52727226D01*
X25279000Y-52576725D01*
X25279000Y-52423275D01*
X25249063Y-52272774D01*
X25190341Y-52131005D01*
X25105089Y-52003417D01*
X25004000Y-51902328D01*
X25004000Y-47606076D01*
X33046752Y-47606076D01*
X33177671Y-47841699D01*
X33458107Y-48005611D01*
X33765131Y-48111663D01*
X34086946Y-48155780D01*
X34411184Y-48136265D01*
X34725386Y-48053870D01*
X35017475Y-47911761D01*
X35122329Y-47841699D01*
X35253248Y-47606076D01*
X34150000Y-46502828D01*
X33046752Y-47606076D01*
X25004000Y-47606076D01*
X25004000Y-46436946D01*
X32494220Y-46436946D01*
X32513735Y-46761184D01*
X32596130Y-47075386D01*
X32738239Y-47367475D01*
X32808301Y-47472329D01*
X33043924Y-47603248D01*
X34147172Y-46500000D01*
X34152828Y-46500000D01*
X35256076Y-47603248D01*
X35491699Y-47472329D01*
X35655611Y-47191893D01*
X35761663Y-46884869D01*
X35805780Y-46563054D01*
X35786265Y-46238816D01*
X35703870Y-45924614D01*
X35561761Y-45632525D01*
X35491699Y-45527671D01*
X35256076Y-45396752D01*
X34152828Y-46500000D01*
X34147172Y-46500000D01*
X33043924Y-45396752D01*
X32808301Y-45527671D01*
X32644389Y-45808107D01*
X32538337Y-46115131D01*
X32494220Y-46436946D01*
X25004000Y-46436946D01*
X25004000Y-45393924D01*
X33046752Y-45393924D01*
X34150000Y-46497172D01*
X35253248Y-45393924D01*
X35122329Y-45158301D01*
X34841893Y-44994389D01*
X34534869Y-44888337D01*
X34213054Y-44844220D01*
X33888816Y-44863735D01*
X33574614Y-44946130D01*
X33282525Y-45088239D01*
X33177671Y-45158301D01*
X33046752Y-45393924D01*
X25004000Y-45393924D01*
X25004000Y-42437588D01*
X34101000Y-42437588D01*
X34101000Y-42762412D01*
X34164370Y-43080996D01*
X34288675Y-43381094D01*
X34469138Y-43651176D01*
X34698824Y-43880862D01*
X34968906Y-44061325D01*
X35269004Y-44185630D01*
X35587588Y-44249000D01*
X35912412Y-44249000D01*
X36230996Y-44185630D01*
X36531094Y-44061325D01*
X36801176Y-43880862D01*
X36975962Y-43706076D01*
X39146752Y-43706076D01*
X39277671Y-43941699D01*
X39558107Y-44105611D01*
X39865131Y-44211663D01*
X40186946Y-44255780D01*
X40511184Y-44236265D01*
X40825386Y-44153870D01*
X41117475Y-44011761D01*
X41222329Y-43941699D01*
X41353248Y-43706076D01*
X40250000Y-42602828D01*
X39146752Y-43706076D01*
X36975962Y-43706076D01*
X37030862Y-43651176D01*
X37211325Y-43381094D01*
X37335630Y-43080996D01*
X37399000Y-42762412D01*
X37399000Y-42536946D01*
X38594220Y-42536946D01*
X38613735Y-42861184D01*
X38696130Y-43175386D01*
X38838239Y-43467475D01*
X38908301Y-43572329D01*
X39143924Y-43703248D01*
X40247172Y-42600000D01*
X40252828Y-42600000D01*
X41356076Y-43703248D01*
X41591699Y-43572329D01*
X41755611Y-43291893D01*
X41861663Y-42984869D01*
X41905780Y-42663054D01*
X41886265Y-42338816D01*
X41803870Y-42024614D01*
X41661761Y-41732525D01*
X41591699Y-41627671D01*
X41356076Y-41496752D01*
X40252828Y-42600000D01*
X40247172Y-42600000D01*
X39143924Y-41496752D01*
X38908301Y-41627671D01*
X38744389Y-41908107D01*
X38638337Y-42215131D01*
X38594220Y-42536946D01*
X37399000Y-42536946D01*
X37399000Y-42437588D01*
X37335630Y-42119004D01*
X37211325Y-41818906D01*
X37030862Y-41548824D01*
X36975962Y-41493924D01*
X39146752Y-41493924D01*
X40250000Y-42597172D01*
X41353248Y-41493924D01*
X41222329Y-41258301D01*
X40941893Y-41094389D01*
X40634869Y-40988337D01*
X40313054Y-40944220D01*
X39988816Y-40963735D01*
X39674614Y-41046130D01*
X39382525Y-41188239D01*
X39277671Y-41258301D01*
X39146752Y-41493924D01*
X36975962Y-41493924D01*
X36801176Y-41319138D01*
X36531094Y-41138675D01*
X36230996Y-41014370D01*
X35912412Y-40951000D01*
X35587588Y-40951000D01*
X35269004Y-41014370D01*
X34968906Y-41138675D01*
X34698824Y-41319138D01*
X34469138Y-41548824D01*
X34288675Y-41818906D01*
X34164370Y-42119004D01*
X34101000Y-42437588D01*
X25004000Y-42437588D01*
X25004000Y-32524750D01*
X25006438Y-32499999D01*
X25004000Y-32475246D01*
X24996707Y-32401199D01*
X24967888Y-32306195D01*
X24921088Y-32218638D01*
X24858106Y-32141894D01*
X24838878Y-32126114D01*
X23504000Y-30791237D01*
X23504000Y-29880483D01*
X24122345Y-29880483D01*
X24215196Y-30083594D01*
X24441674Y-30215880D01*
X24689608Y-30301441D01*
X24949472Y-30336989D01*
X25211276Y-30321157D01*
X25464962Y-30254554D01*
X25700779Y-30139738D01*
X25784804Y-30083594D01*
X25877655Y-29880483D01*
X25000000Y-29002828D01*
X24122345Y-29880483D01*
X23504000Y-29880483D01*
X23504000Y-29024754D01*
X23506438Y-29000000D01*
X23501462Y-28949472D01*
X23663011Y-28949472D01*
X23678843Y-29211276D01*
X23745446Y-29464962D01*
X23860262Y-29700779D01*
X23916406Y-29784804D01*
X24119517Y-29877655D01*
X24997172Y-29000000D01*
X25002828Y-29000000D01*
X25880483Y-29877655D01*
X26083594Y-29784804D01*
X26215880Y-29558326D01*
X26249594Y-29460631D01*
X26320040Y-29630702D01*
X26465756Y-29848782D01*
X26651218Y-30034244D01*
X26869298Y-30179960D01*
X27111616Y-30280332D01*
X27368859Y-30331500D01*
X27631141Y-30331500D01*
X27888384Y-30280332D01*
X28130702Y-30179960D01*
X28348782Y-30034244D01*
X28534244Y-29848782D01*
X28679960Y-29630702D01*
X28750000Y-29461611D01*
X28820040Y-29630702D01*
X28965756Y-29848782D01*
X29151218Y-30034244D01*
X29369298Y-30179960D01*
X29496001Y-30232442D01*
X29496000Y-31291236D01*
X27291237Y-33496000D01*
X26597672Y-33496000D01*
X26496583Y-33394911D01*
X26368995Y-33309659D01*
X26227226Y-33250937D01*
X26076725Y-33221000D01*
X25923275Y-33221000D01*
X25772774Y-33250937D01*
X25631005Y-33309659D01*
X25503417Y-33394911D01*
X25394911Y-33503417D01*
X25309659Y-33631005D01*
X25250937Y-33772774D01*
X25221000Y-33923275D01*
X25221000Y-34076725D01*
X25250937Y-34227226D01*
X25309659Y-34368995D01*
X25394911Y-34496583D01*
X25503417Y-34605089D01*
X25631005Y-34690341D01*
X25772774Y-34749063D01*
X25923275Y-34779000D01*
X26076725Y-34779000D01*
X26227226Y-34749063D01*
X26254929Y-34737588D01*
X34101000Y-34737588D01*
X34101000Y-35062412D01*
X34164370Y-35380996D01*
X34288675Y-35681094D01*
X34469138Y-35951176D01*
X34698824Y-36180862D01*
X34968906Y-36361325D01*
X35269004Y-36485630D01*
X35587588Y-36549000D01*
X35912412Y-36549000D01*
X36230996Y-36485630D01*
X36531094Y-36361325D01*
X36801176Y-36180862D01*
X36975962Y-36006076D01*
X39146752Y-36006076D01*
X39277671Y-36241699D01*
X39558107Y-36405611D01*
X39865131Y-36511663D01*
X40186946Y-36555780D01*
X40511184Y-36536265D01*
X40825386Y-36453870D01*
X41117475Y-36311761D01*
X41222329Y-36241699D01*
X41353248Y-36006076D01*
X40250000Y-34902828D01*
X39146752Y-36006076D01*
X36975962Y-36006076D01*
X37030862Y-35951176D01*
X37211325Y-35681094D01*
X37335630Y-35380996D01*
X37399000Y-35062412D01*
X37399000Y-34836946D01*
X38594220Y-34836946D01*
X38613735Y-35161184D01*
X38696130Y-35475386D01*
X38838239Y-35767475D01*
X38908301Y-35872329D01*
X39143924Y-36003248D01*
X40247172Y-34900000D01*
X40252828Y-34900000D01*
X41356076Y-36003248D01*
X41591699Y-35872329D01*
X41755611Y-35591893D01*
X41861663Y-35284869D01*
X41905780Y-34963054D01*
X41886265Y-34638816D01*
X41803870Y-34324614D01*
X41661761Y-34032525D01*
X41591699Y-33927671D01*
X41356076Y-33796752D01*
X40252828Y-34900000D01*
X40247172Y-34900000D01*
X39143924Y-33796752D01*
X38908301Y-33927671D01*
X38744389Y-34208107D01*
X38638337Y-34515131D01*
X38594220Y-34836946D01*
X37399000Y-34836946D01*
X37399000Y-34737588D01*
X37335630Y-34419004D01*
X37211325Y-34118906D01*
X37030862Y-33848824D01*
X36975962Y-33793924D01*
X39146752Y-33793924D01*
X40250000Y-34897172D01*
X41353248Y-33793924D01*
X41222329Y-33558301D01*
X40941893Y-33394389D01*
X40634869Y-33288337D01*
X40313054Y-33244220D01*
X39988816Y-33263735D01*
X39674614Y-33346130D01*
X39382525Y-33488239D01*
X39277671Y-33558301D01*
X39146752Y-33793924D01*
X36975962Y-33793924D01*
X36801176Y-33619138D01*
X36531094Y-33438675D01*
X36230996Y-33314370D01*
X35912412Y-33251000D01*
X35587588Y-33251000D01*
X35269004Y-33314370D01*
X34968906Y-33438675D01*
X34698824Y-33619138D01*
X34469138Y-33848824D01*
X34288675Y-34118906D01*
X34164370Y-34419004D01*
X34101000Y-34737588D01*
X26254929Y-34737588D01*
X26368995Y-34690341D01*
X26496583Y-34605089D01*
X26597672Y-34504000D01*
X27475246Y-34504000D01*
X27500000Y-34506438D01*
X27598801Y-34496707D01*
X27599210Y-34496583D01*
X27693805Y-34467888D01*
X27781362Y-34421088D01*
X27858106Y-34358106D01*
X27873890Y-34338873D01*
X30106687Y-32106076D01*
X33046752Y-32106076D01*
X33177671Y-32341699D01*
X33458107Y-32505611D01*
X33765131Y-32611663D01*
X34086946Y-32655780D01*
X34411184Y-32636265D01*
X34725386Y-32553870D01*
X35017475Y-32411761D01*
X35122329Y-32341699D01*
X35253248Y-32106076D01*
X34150000Y-31002828D01*
X33046752Y-32106076D01*
X30106687Y-32106076D01*
X30338878Y-31873886D01*
X30358106Y-31858106D01*
X30421088Y-31781362D01*
X30467888Y-31693805D01*
X30496707Y-31598801D01*
X30504000Y-31524754D01*
X30504000Y-31524753D01*
X30506438Y-31500000D01*
X30504000Y-31475246D01*
X30504000Y-30936946D01*
X32494220Y-30936946D01*
X32513735Y-31261184D01*
X32596130Y-31575386D01*
X32738239Y-31867475D01*
X32808301Y-31972329D01*
X33043924Y-32103248D01*
X34147172Y-31000000D01*
X34152828Y-31000000D01*
X35256076Y-32103248D01*
X35491699Y-31972329D01*
X35655611Y-31691893D01*
X35761663Y-31384869D01*
X35805780Y-31063054D01*
X35786265Y-30738816D01*
X35703870Y-30424614D01*
X35561761Y-30132525D01*
X35491699Y-30027671D01*
X35256076Y-29896752D01*
X34152828Y-31000000D01*
X34147172Y-31000000D01*
X33043924Y-29896752D01*
X32808301Y-30027671D01*
X32644389Y-30308107D01*
X32538337Y-30615131D01*
X32494220Y-30936946D01*
X30504000Y-30936946D01*
X30504000Y-30232442D01*
X30630702Y-30179960D01*
X30848782Y-30034244D01*
X30989102Y-29893924D01*
X33046752Y-29893924D01*
X34150000Y-30997172D01*
X35253248Y-29893924D01*
X35122329Y-29658301D01*
X34841893Y-29494389D01*
X34534869Y-29388337D01*
X34213054Y-29344220D01*
X33888816Y-29363735D01*
X33574614Y-29446130D01*
X33282525Y-29588239D01*
X33177671Y-29658301D01*
X33046752Y-29893924D01*
X30989102Y-29893924D01*
X31034244Y-29848782D01*
X31179960Y-29630702D01*
X31280332Y-29388384D01*
X31331500Y-29131141D01*
X31331500Y-28868859D01*
X31280332Y-28611616D01*
X31179960Y-28369298D01*
X31034244Y-28151218D01*
X30848782Y-27965756D01*
X30630702Y-27820040D01*
X30388384Y-27719668D01*
X30131141Y-27668500D01*
X29868859Y-27668500D01*
X29611616Y-27719668D01*
X29369298Y-27820040D01*
X29151218Y-27965756D01*
X28965756Y-28151218D01*
X28820040Y-28369298D01*
X28750000Y-28538389D01*
X28679960Y-28369298D01*
X28534244Y-28151218D01*
X28348782Y-27965756D01*
X28130702Y-27820040D01*
X27888384Y-27719668D01*
X27631141Y-27668500D01*
X27368859Y-27668500D01*
X27111616Y-27719668D01*
X26869298Y-27820040D01*
X26651218Y-27965756D01*
X26465756Y-28151218D01*
X26320040Y-28369298D01*
X26252843Y-28531524D01*
X26139738Y-28299221D01*
X26083594Y-28215196D01*
X25880483Y-28122345D01*
X25002828Y-29000000D01*
X24997172Y-29000000D01*
X24119517Y-28122345D01*
X23916406Y-28215196D01*
X23784120Y-28441674D01*
X23698559Y-28689608D01*
X23663011Y-28949472D01*
X23501462Y-28949472D01*
X23496707Y-28901198D01*
X23467888Y-28806196D01*
X23467888Y-28806195D01*
X23421088Y-28718638D01*
X23358106Y-28641894D01*
X23338878Y-28626114D01*
X22832281Y-28119517D01*
X24122345Y-28119517D01*
X25000000Y-28997172D01*
X25877655Y-28119517D01*
X25784804Y-27916406D01*
X25558326Y-27784120D01*
X25310392Y-27698559D01*
X25050528Y-27663011D01*
X24788724Y-27678843D01*
X24535038Y-27745446D01*
X24299221Y-27860262D01*
X24215196Y-27916406D01*
X24122345Y-28119517D01*
X22832281Y-28119517D01*
X21343596Y-26630833D01*
X22235000Y-26630833D01*
X22309297Y-26623515D01*
X22380738Y-26601844D01*
X22420000Y-26580858D01*
X22459262Y-26601844D01*
X22530703Y-26623515D01*
X22605000Y-26630833D01*
X23505000Y-26630833D01*
X23579297Y-26623515D01*
X23650738Y-26601844D01*
X23690000Y-26580858D01*
X23729262Y-26601844D01*
X23800703Y-26623515D01*
X23875000Y-26630833D01*
X24775000Y-26630833D01*
X24849297Y-26623515D01*
X24920738Y-26601844D01*
X24960000Y-26580858D01*
X24999262Y-26601844D01*
X25070703Y-26623515D01*
X25145000Y-26630833D01*
X26045000Y-26630833D01*
X26119297Y-26623515D01*
X26190738Y-26601844D01*
X26230000Y-26580858D01*
X26269262Y-26601844D01*
X26340703Y-26623515D01*
X26415000Y-26630833D01*
X27315000Y-26630833D01*
X27389297Y-26623515D01*
X27460738Y-26601844D01*
X27500000Y-26580858D01*
X27539262Y-26601844D01*
X27610703Y-26623515D01*
X27685000Y-26630833D01*
X28585000Y-26630833D01*
X28659297Y-26623515D01*
X28730738Y-26601844D01*
X28770000Y-26580858D01*
X28809262Y-26601844D01*
X28880703Y-26623515D01*
X28955000Y-26630833D01*
X29855000Y-26630833D01*
X29929297Y-26623515D01*
X30000738Y-26601844D01*
X30040000Y-26580858D01*
X30079262Y-26601844D01*
X30150703Y-26623515D01*
X30225000Y-26630833D01*
X31125000Y-26630833D01*
X31199297Y-26623515D01*
X31270738Y-26601844D01*
X31310000Y-26580858D01*
X31349262Y-26601844D01*
X31420703Y-26623515D01*
X31441001Y-26625514D01*
X31441001Y-26957327D01*
X31394911Y-27003417D01*
X31309659Y-27131005D01*
X31250937Y-27272774D01*
X31221000Y-27423275D01*
X31221000Y-27576725D01*
X31250937Y-27727226D01*
X31309659Y-27868995D01*
X31394911Y-27996583D01*
X31503417Y-28105089D01*
X31631005Y-28190341D01*
X31772774Y-28249063D01*
X31923275Y-28279000D01*
X32076725Y-28279000D01*
X32227226Y-28249063D01*
X32368995Y-28190341D01*
X32496583Y-28105089D01*
X32605089Y-27996583D01*
X32690341Y-27868995D01*
X32749063Y-27727226D01*
X32779000Y-27576725D01*
X32779000Y-27423275D01*
X32749063Y-27272774D01*
X32690341Y-27131005D01*
X32605089Y-27003417D01*
X32496583Y-26894911D01*
X32449000Y-26863117D01*
X32449000Y-26625514D01*
X32469297Y-26623515D01*
X32540738Y-26601844D01*
X32579999Y-26580859D01*
X32619261Y-26601845D01*
X32690703Y-26623516D01*
X32765000Y-26630834D01*
X33118250Y-26629000D01*
X33213000Y-26534250D01*
X33213000Y-25252000D01*
X33217000Y-25252000D01*
X33217000Y-26534250D01*
X33311750Y-26629000D01*
X33665000Y-26630834D01*
X33739297Y-26623516D01*
X33810739Y-26601845D01*
X33876580Y-26566652D01*
X33934290Y-26519290D01*
X33981652Y-26461580D01*
X34016845Y-26395739D01*
X34038516Y-26324297D01*
X34045834Y-26250000D01*
X34044000Y-25346750D01*
X33949250Y-25252000D01*
X33217000Y-25252000D01*
X33213000Y-25252000D01*
X33193000Y-25252000D01*
X33193000Y-25248000D01*
X33213000Y-25248000D01*
X33213000Y-23965750D01*
X33217000Y-23965750D01*
X33217000Y-25248000D01*
X33949250Y-25248000D01*
X34044000Y-25153250D01*
X34045834Y-24250000D01*
X34038516Y-24175703D01*
X34016845Y-24104261D01*
X33981652Y-24038420D01*
X33934290Y-23980710D01*
X33876580Y-23933348D01*
X33810739Y-23898155D01*
X33739297Y-23876484D01*
X33665000Y-23869166D01*
X33311750Y-23871000D01*
X33217000Y-23965750D01*
X33213000Y-23965750D01*
X33118250Y-23871000D01*
X32765000Y-23869166D01*
X32690703Y-23876484D01*
X32619261Y-23898155D01*
X32579999Y-23919141D01*
X32540738Y-23898156D01*
X32469297Y-23876485D01*
X32395000Y-23869167D01*
X31495000Y-23869167D01*
X31420703Y-23876485D01*
X31349262Y-23898156D01*
X31310000Y-23919142D01*
X31270738Y-23898156D01*
X31199297Y-23876485D01*
X31125000Y-23869167D01*
X30225000Y-23869167D01*
X30150703Y-23876485D01*
X30079262Y-23898156D01*
X30040000Y-23919142D01*
X30000738Y-23898156D01*
X29929297Y-23876485D01*
X29855000Y-23869167D01*
X28955000Y-23869167D01*
X28880703Y-23876485D01*
X28809262Y-23898156D01*
X28770000Y-23919142D01*
X28730738Y-23898156D01*
X28659297Y-23876485D01*
X28585000Y-23869167D01*
X27685000Y-23869167D01*
X27610703Y-23876485D01*
X27539262Y-23898156D01*
X27500000Y-23919142D01*
X27460738Y-23898156D01*
X27389297Y-23876485D01*
X27315000Y-23869167D01*
X26415000Y-23869167D01*
X26340703Y-23876485D01*
X26269262Y-23898156D01*
X26230000Y-23919142D01*
X26190738Y-23898156D01*
X26119297Y-23876485D01*
X26045000Y-23869167D01*
X25145000Y-23869167D01*
X25070703Y-23876485D01*
X24999262Y-23898156D01*
X24960000Y-23919142D01*
X24920738Y-23898156D01*
X24849297Y-23876485D01*
X24775000Y-23869167D01*
X23875000Y-23869167D01*
X23800703Y-23876485D01*
X23729262Y-23898156D01*
X23690000Y-23919142D01*
X23650738Y-23898156D01*
X23579297Y-23876485D01*
X23505000Y-23869167D01*
X22605000Y-23869167D01*
X22530703Y-23876485D01*
X22459262Y-23898156D01*
X22420000Y-23919142D01*
X22380738Y-23898156D01*
X22309297Y-23876485D01*
X22235000Y-23869167D01*
X21335000Y-23869167D01*
X21260703Y-23876485D01*
X21189262Y-23898156D01*
X21123421Y-23933349D01*
X21065710Y-23980710D01*
X21018349Y-24038421D01*
X21004000Y-24065266D01*
X21004000Y-23254750D01*
X21006438Y-23229999D01*
X21000903Y-23173805D01*
X20996707Y-23131199D01*
X20967888Y-23036195D01*
X20921088Y-22948638D01*
X20858106Y-22871894D01*
X20838873Y-22856110D01*
X20623890Y-22641127D01*
X20608106Y-22621894D01*
X20531362Y-22558912D01*
X20443805Y-22512112D01*
X20377077Y-22491871D01*
X20373515Y-22455703D01*
X20351844Y-22384262D01*
X20330858Y-22345000D01*
X20351844Y-22305738D01*
X20373515Y-22234297D01*
X20380833Y-22160000D01*
X20380833Y-21260000D01*
X20373515Y-21185703D01*
X20351844Y-21114262D01*
X20330858Y-21075000D01*
X20351844Y-21035738D01*
X20373515Y-20964297D01*
X20380833Y-20890000D01*
X20380833Y-19990000D01*
X20373515Y-19915703D01*
X20351844Y-19844262D01*
X20330858Y-19805000D01*
X20351844Y-19765738D01*
X20373515Y-19694297D01*
X20375514Y-19674000D01*
X22225180Y-19674000D01*
X22238284Y-19739879D01*
X22297006Y-19881648D01*
X22382258Y-20009236D01*
X22490764Y-20117742D01*
X22618352Y-20202994D01*
X22760121Y-20261716D01*
X22910622Y-20291653D01*
X23064072Y-20291653D01*
X23214573Y-20261716D01*
X23356342Y-20202994D01*
X23483930Y-20117742D01*
X23592436Y-20009236D01*
X23677688Y-19881648D01*
X23736410Y-19739879D01*
X23766347Y-19589378D01*
X23766347Y-19435928D01*
X23736410Y-19285427D01*
X23677688Y-19143658D01*
X23592436Y-19016070D01*
X23483930Y-18907564D01*
X23356342Y-18822312D01*
X23214573Y-18763590D01*
X23064072Y-18733653D01*
X22910622Y-18733653D01*
X22901065Y-18735554D01*
X22838499Y-18702112D01*
X22743495Y-18673293D01*
X22669448Y-18666000D01*
X22644694Y-18663562D01*
X22619940Y-18666000D01*
X20375514Y-18666000D01*
X20373515Y-18645703D01*
X20351844Y-18574262D01*
X20330858Y-18535000D01*
X20351844Y-18495738D01*
X20373515Y-18424297D01*
X20380833Y-18350000D01*
X20380833Y-17450000D01*
X20373515Y-17375703D01*
X20351844Y-17304262D01*
X20330858Y-17265000D01*
X20351844Y-17225738D01*
X20373515Y-17154297D01*
X20380833Y-17080000D01*
X20380833Y-16180000D01*
X20373515Y-16105703D01*
X20351844Y-16034262D01*
X20330858Y-15995000D01*
X20351844Y-15955738D01*
X20373515Y-15884297D01*
X20380833Y-15810000D01*
X20380833Y-14910000D01*
X20373515Y-14835703D01*
X20351844Y-14764262D01*
X20330858Y-14725000D01*
X20351844Y-14685738D01*
X20373515Y-14614297D01*
X20380833Y-14540000D01*
X20380833Y-13923275D01*
X20721000Y-13923275D01*
X20721000Y-14076725D01*
X20750937Y-14227226D01*
X20809659Y-14368995D01*
X20894911Y-14496583D01*
X21003417Y-14605089D01*
X21131005Y-14690341D01*
X21272774Y-14749063D01*
X21423275Y-14779000D01*
X21576725Y-14779000D01*
X21727226Y-14749063D01*
X21868995Y-14690341D01*
X21996583Y-14605089D01*
X22097672Y-14504000D01*
X22394521Y-14504000D01*
X22309659Y-14631005D01*
X22250937Y-14772774D01*
X22221000Y-14923275D01*
X22221000Y-15076725D01*
X22250937Y-15227226D01*
X22309659Y-15368995D01*
X22394911Y-15496583D01*
X22496000Y-15597672D01*
X22496001Y-16611647D01*
X22493562Y-16636410D01*
X22503293Y-16735211D01*
X22532113Y-16830215D01*
X22578913Y-16917772D01*
X22641895Y-16994516D01*
X22661123Y-17010296D01*
X27699700Y-22048873D01*
X27715484Y-22068106D01*
X27792228Y-22131088D01*
X27879785Y-22177888D01*
X27932257Y-22193805D01*
X27974788Y-22206707D01*
X28073590Y-22216438D01*
X28098344Y-22214000D01*
X34624486Y-22214000D01*
X34626485Y-22234297D01*
X34648156Y-22305738D01*
X34669142Y-22345000D01*
X34648156Y-22384262D01*
X34626485Y-22455703D01*
X34622516Y-22496000D01*
X33622672Y-22496000D01*
X33521583Y-22394911D01*
X33393995Y-22309659D01*
X33252226Y-22250937D01*
X33101725Y-22221000D01*
X32948275Y-22221000D01*
X32797774Y-22250937D01*
X32656005Y-22309659D01*
X32528417Y-22394911D01*
X32419911Y-22503417D01*
X32334659Y-22631005D01*
X32275937Y-22772774D01*
X32246000Y-22923275D01*
X32246000Y-23076725D01*
X32275937Y-23227226D01*
X32334659Y-23368995D01*
X32419911Y-23496583D01*
X32528417Y-23605089D01*
X32656005Y-23690341D01*
X32797774Y-23749063D01*
X32948275Y-23779000D01*
X33101725Y-23779000D01*
X33252226Y-23749063D01*
X33393995Y-23690341D01*
X33521583Y-23605089D01*
X33622672Y-23504000D01*
X34626456Y-23504000D01*
X34626485Y-23504297D01*
X34648156Y-23575738D01*
X34669142Y-23615000D01*
X34648156Y-23654262D01*
X34626485Y-23725703D01*
X34619167Y-23800000D01*
X34619167Y-24700000D01*
X34626485Y-24774297D01*
X34648156Y-24845738D01*
X34683349Y-24911579D01*
X34730710Y-24969290D01*
X34788421Y-25016651D01*
X34854262Y-25051844D01*
X34925703Y-25073515D01*
X35000000Y-25080833D01*
X37000000Y-25080833D01*
X37074297Y-25073515D01*
X37145738Y-25051844D01*
X37211579Y-25016651D01*
X37269290Y-24969290D01*
X37316651Y-24911579D01*
X37351844Y-24845738D01*
X37373515Y-24774297D01*
X37380833Y-24700000D01*
X37380833Y-23800000D01*
X37373515Y-23725703D01*
X37351844Y-23654262D01*
X37330858Y-23615000D01*
X37351844Y-23575738D01*
X37373515Y-23504297D01*
X37380833Y-23430000D01*
X37380833Y-22530000D01*
X37373515Y-22455703D01*
X37351844Y-22384262D01*
X37330858Y-22345000D01*
X37351844Y-22305738D01*
X37373515Y-22234297D01*
X37380833Y-22160000D01*
X37380833Y-21260000D01*
X37373515Y-21185703D01*
X37351844Y-21114262D01*
X37330858Y-21075000D01*
X37351844Y-21035738D01*
X37373515Y-20964297D01*
X37380833Y-20890000D01*
X37380833Y-20013596D01*
X42496000Y-25128764D01*
X42496001Y-42185839D01*
X42496000Y-42185849D01*
X42496001Y-42791235D01*
X35066237Y-50221000D01*
X34923275Y-50221000D01*
X34772774Y-50250937D01*
X34631005Y-50309659D01*
X34503417Y-50394911D01*
X34394911Y-50503417D01*
X34309659Y-50631005D01*
X34250937Y-50772774D01*
X34221000Y-50923275D01*
X34221000Y-51076725D01*
X34250937Y-51227226D01*
X34309659Y-51368995D01*
X34394911Y-51496583D01*
X34503417Y-51605089D01*
X34631005Y-51690341D01*
X34772774Y-51749063D01*
X34923275Y-51779000D01*
X35076725Y-51779000D01*
X35227226Y-51749063D01*
X35368995Y-51690341D01*
X35496583Y-51605089D01*
X35605089Y-51496583D01*
X35690341Y-51368995D01*
X35749063Y-51227226D01*
X35779000Y-51076725D01*
X35779000Y-50933763D01*
X43338878Y-43373886D01*
X43358106Y-43358106D01*
X43421088Y-43281362D01*
X43467888Y-43193805D01*
X43496707Y-43098801D01*
X43504000Y-43024754D01*
X43504000Y-43024752D01*
X43506438Y-43000001D01*
X43504000Y-42975250D01*
X43504000Y-33798954D01*
X50771000Y-33798954D01*
X50771000Y-34041046D01*
X50818229Y-34278486D01*
X50910874Y-34502150D01*
X51045373Y-34703442D01*
X51216558Y-34874627D01*
X51417850Y-35009126D01*
X51641514Y-35101771D01*
X51878954Y-35149000D01*
X52121046Y-35149000D01*
X52358486Y-35101771D01*
X52582150Y-35009126D01*
X52783442Y-34874627D01*
X52954627Y-34703442D01*
X53089126Y-34502150D01*
X53181771Y-34278486D01*
X53229000Y-34041046D01*
X53229000Y-33798954D01*
X53181771Y-33561514D01*
X53089126Y-33337850D01*
X52954627Y-33136558D01*
X52783442Y-32965373D01*
X52582150Y-32830874D01*
X52358486Y-32738229D01*
X52121046Y-32691000D01*
X51878954Y-32691000D01*
X51641514Y-32738229D01*
X51417850Y-32830874D01*
X51216558Y-32965373D01*
X51045373Y-33136558D01*
X50910874Y-33337850D01*
X50818229Y-33561514D01*
X50771000Y-33798954D01*
X43504000Y-33798954D01*
X43504000Y-27000000D01*
X46619167Y-27000000D01*
X46619167Y-29000000D01*
X46626485Y-29074297D01*
X46648156Y-29145738D01*
X46683349Y-29211579D01*
X46730710Y-29269290D01*
X46788421Y-29316651D01*
X46854262Y-29351844D01*
X46925703Y-29373515D01*
X47000000Y-29380833D01*
X49000000Y-29380833D01*
X49074297Y-29373515D01*
X49145738Y-29351844D01*
X49211579Y-29316651D01*
X49269290Y-29269290D01*
X49316651Y-29211579D01*
X49351844Y-29145738D01*
X49373515Y-29074297D01*
X49380833Y-29000000D01*
X49380833Y-27000000D01*
X49373515Y-26925703D01*
X49351844Y-26854262D01*
X49316651Y-26788421D01*
X49269290Y-26730710D01*
X49211579Y-26683349D01*
X49145738Y-26648156D01*
X49074297Y-26626485D01*
X49000000Y-26619167D01*
X47000000Y-26619167D01*
X46925703Y-26626485D01*
X46854262Y-26648156D01*
X46788421Y-26683349D01*
X46730710Y-26730710D01*
X46683349Y-26788421D01*
X46648156Y-26854262D01*
X46626485Y-26925703D01*
X46619167Y-27000000D01*
X43504000Y-27000000D01*
X43504000Y-24944754D01*
X43506438Y-24920000D01*
X43496707Y-24821198D01*
X43483906Y-24779000D01*
X43467888Y-24726195D01*
X43421088Y-24638638D01*
X43358106Y-24561894D01*
X43338878Y-24546114D01*
X41576944Y-22784180D01*
X46621000Y-22784180D01*
X46621000Y-23055820D01*
X46673995Y-23322239D01*
X46777946Y-23573201D01*
X46928861Y-23799061D01*
X47120939Y-23991139D01*
X47346799Y-24142054D01*
X47597761Y-24246005D01*
X47864180Y-24299000D01*
X48135820Y-24299000D01*
X48402239Y-24246005D01*
X48653201Y-24142054D01*
X48879061Y-23991139D01*
X49071139Y-23799061D01*
X49222054Y-23573201D01*
X49326005Y-23322239D01*
X49379000Y-23055820D01*
X49379000Y-22784180D01*
X49326005Y-22517761D01*
X49222054Y-22266799D01*
X49071139Y-22040939D01*
X48879061Y-21848861D01*
X48653201Y-21697946D01*
X48402239Y-21593995D01*
X48135820Y-21541000D01*
X47864180Y-21541000D01*
X47597761Y-21593995D01*
X47346799Y-21697946D01*
X47120939Y-21848861D01*
X46928861Y-22040939D01*
X46777946Y-22266799D01*
X46673995Y-22517761D01*
X46621000Y-22784180D01*
X41576944Y-22784180D01*
X39071763Y-20279000D01*
X39076725Y-20279000D01*
X39227226Y-20249063D01*
X39368995Y-20190341D01*
X39496583Y-20105089D01*
X39605089Y-19996583D01*
X39690341Y-19868995D01*
X39749063Y-19727226D01*
X39779000Y-19576725D01*
X39779000Y-19423275D01*
X39749063Y-19272774D01*
X39690341Y-19131005D01*
X39605089Y-19003417D01*
X39504000Y-18902328D01*
X39504000Y-18404754D01*
X39506438Y-18380000D01*
X39496707Y-18281198D01*
X39477729Y-18218637D01*
X39467888Y-18186195D01*
X39421088Y-18098638D01*
X39358106Y-18021894D01*
X39338873Y-18006110D01*
X37623890Y-16291127D01*
X37608106Y-16271894D01*
X37531362Y-16208912D01*
X37443805Y-16162112D01*
X37377077Y-16141871D01*
X37373515Y-16105703D01*
X37351844Y-16034262D01*
X37330858Y-15995000D01*
X37351844Y-15955738D01*
X37373515Y-15884297D01*
X37380833Y-15810000D01*
X37380833Y-14910000D01*
X37373515Y-14835703D01*
X37351844Y-14764262D01*
X37330858Y-14725000D01*
X37351844Y-14685738D01*
X37373515Y-14614297D01*
X37380833Y-14540000D01*
X37380833Y-13640000D01*
X37373515Y-13565703D01*
X37351844Y-13494262D01*
X37330858Y-13455000D01*
X37351844Y-13415738D01*
X37373515Y-13344297D01*
X37380833Y-13270000D01*
X37380833Y-12370000D01*
X37373515Y-12295703D01*
X37351844Y-12224262D01*
X37330858Y-12185000D01*
X37351844Y-12145738D01*
X37373515Y-12074297D01*
X37380833Y-12000000D01*
X37380833Y-11100000D01*
X37373515Y-11025703D01*
X37351844Y-10954262D01*
X37330858Y-10915000D01*
X37351844Y-10875738D01*
X37373515Y-10804297D01*
X37380833Y-10730000D01*
X37380833Y-9830000D01*
X37373515Y-9755703D01*
X37351844Y-9684262D01*
X37330858Y-9645000D01*
X37351844Y-9605738D01*
X37373515Y-9534297D01*
X37380833Y-9460000D01*
X37380833Y-8560000D01*
X37373515Y-8485703D01*
X37351844Y-8414262D01*
X37330859Y-8375001D01*
X37351845Y-8335739D01*
X37373516Y-8264297D01*
X37380834Y-8190000D01*
X37379000Y-7836750D01*
X37284250Y-7742000D01*
X36002000Y-7742000D01*
X36002000Y-7762000D01*
X35998000Y-7762000D01*
X35998000Y-7742000D01*
X34715750Y-7742000D01*
X34621000Y-7836750D01*
X34619166Y-8190000D01*
X34626484Y-8264297D01*
X34648155Y-8335739D01*
X34669141Y-8375001D01*
X34665935Y-8381000D01*
X27520895Y-8381000D01*
X27490000Y-8377957D01*
X27366694Y-8390102D01*
X27330728Y-8401012D01*
X27248128Y-8426068D01*
X27138856Y-8484475D01*
X27043078Y-8563078D01*
X27023380Y-8587080D01*
X24577080Y-11033380D01*
X24553078Y-11053078D01*
X24474475Y-11148857D01*
X24416068Y-11258129D01*
X24401488Y-11306195D01*
X24380102Y-11376695D01*
X24367957Y-11500000D01*
X24371000Y-11530895D01*
X24371000Y-12310999D01*
X24368995Y-12309659D01*
X24227226Y-12250937D01*
X24076725Y-12221000D01*
X23923275Y-12221000D01*
X23772774Y-12250937D01*
X23631005Y-12309659D01*
X23503417Y-12394911D01*
X23402328Y-12496000D01*
X23017672Y-12496000D01*
X22916583Y-12394911D01*
X22788995Y-12309659D01*
X22647226Y-12250937D01*
X22496725Y-12221000D01*
X22343275Y-12221000D01*
X22192774Y-12250937D01*
X22051005Y-12309659D01*
X21923417Y-12394911D01*
X21814911Y-12503417D01*
X21729659Y-12631005D01*
X21670937Y-12772774D01*
X21641000Y-12923275D01*
X21641000Y-13076725D01*
X21670937Y-13227226D01*
X21676586Y-13240864D01*
X21576725Y-13221000D01*
X21423275Y-13221000D01*
X21272774Y-13250937D01*
X21131005Y-13309659D01*
X21003417Y-13394911D01*
X20894911Y-13503417D01*
X20809659Y-13631005D01*
X20750937Y-13772774D01*
X20721000Y-13923275D01*
X20380833Y-13923275D01*
X20380833Y-13640000D01*
X20373515Y-13565703D01*
X20351844Y-13494262D01*
X20330858Y-13455000D01*
X20351844Y-13415738D01*
X20373515Y-13344297D01*
X20380833Y-13270000D01*
X20380833Y-12370000D01*
X20373515Y-12295703D01*
X20351844Y-12224262D01*
X20330858Y-12185000D01*
X20351844Y-12145738D01*
X20373515Y-12074297D01*
X20380833Y-12000000D01*
X20380833Y-11100000D01*
X20373515Y-11025703D01*
X20351844Y-10954262D01*
X20330858Y-10915000D01*
X20351844Y-10875738D01*
X20373515Y-10804297D01*
X20380833Y-10730000D01*
X20380833Y-9830000D01*
X20373515Y-9755703D01*
X20351844Y-9684262D01*
X20330858Y-9645000D01*
X20351844Y-9605738D01*
X20373515Y-9534297D01*
X20380833Y-9460000D01*
X20380833Y-8560000D01*
X20373515Y-8485703D01*
X20351844Y-8414262D01*
X20330859Y-8375001D01*
X20351845Y-8335739D01*
X20373516Y-8264297D01*
X20380834Y-8190000D01*
X20379000Y-7836750D01*
X20284250Y-7742000D01*
X19002000Y-7742000D01*
X19002000Y-7762000D01*
X18998000Y-7762000D01*
X18998000Y-7742000D01*
X17715750Y-7742000D01*
X17621000Y-7836750D01*
X17619166Y-8190000D01*
X17626484Y-8264297D01*
X17648155Y-8335739D01*
X17669141Y-8375001D01*
X17648156Y-8414262D01*
X17626485Y-8485703D01*
X17619167Y-8560000D01*
X17619167Y-9460000D01*
X17626485Y-9534297D01*
X17648156Y-9605738D01*
X17669142Y-9645000D01*
X17648156Y-9684262D01*
X17626485Y-9755703D01*
X17619167Y-9830000D01*
X17619167Y-10730000D01*
X17626485Y-10804297D01*
X17648156Y-10875738D01*
X17669142Y-10915000D01*
X17648156Y-10954262D01*
X17626485Y-11025703D01*
X17624486Y-11046000D01*
X11111163Y-11046000D01*
X11086409Y-11043562D01*
X10987608Y-11053293D01*
X10946240Y-11065842D01*
X10892605Y-11082112D01*
X10805048Y-11128912D01*
X10728304Y-11191894D01*
X10712524Y-11211122D01*
X3661123Y-18262524D01*
X3641895Y-18278304D01*
X3626115Y-18297532D01*
X3578913Y-18355048D01*
X3550153Y-18408855D01*
X3468672Y-18309156D01*
X3320566Y-18187102D01*
X3151495Y-18096287D01*
X2967955Y-18040201D01*
X2777000Y-18021000D01*
X2502000Y-18021000D01*
X2502000Y-18998000D01*
X2522000Y-18998000D01*
X2522000Y-19002000D01*
X2502000Y-19002000D01*
X2502000Y-19979000D01*
X2777000Y-19979000D01*
X2967955Y-19959799D01*
X3151495Y-19903713D01*
X3320566Y-19812898D01*
X3468672Y-19690844D01*
X3496001Y-19657405D01*
X3496000Y-20335337D01*
X3470606Y-20304394D01*
X3321534Y-20182053D01*
X3151459Y-20091146D01*
X2966917Y-20035166D01*
X2823086Y-20021000D01*
X2176914Y-20021000D01*
X2033083Y-20035166D01*
X1848541Y-20091146D01*
X1678466Y-20182053D01*
X1529394Y-20304394D01*
X1407053Y-20453466D01*
X1316146Y-20623541D01*
X1260166Y-20808083D01*
X1241264Y-21000000D01*
X401283Y-21000000D01*
X401075Y-19155124D01*
X1258368Y-19155124D01*
X1264420Y-19189032D01*
X1319756Y-19372800D01*
X1409880Y-19542241D01*
X1531328Y-19690844D01*
X1679434Y-19812898D01*
X1848505Y-19903713D01*
X2032045Y-19959799D01*
X2223000Y-19979000D01*
X2498000Y-19979000D01*
X2498000Y-19002000D01*
X1340752Y-19002000D01*
X1258368Y-19155124D01*
X401075Y-19155124D01*
X401040Y-18844876D01*
X1258368Y-18844876D01*
X1340752Y-18998000D01*
X2498000Y-18998000D01*
X2498000Y-18021000D01*
X2223000Y-18021000D01*
X2032045Y-18040201D01*
X1848505Y-18096287D01*
X1679434Y-18187102D01*
X1531328Y-18309156D01*
X1409880Y-18457759D01*
X1319756Y-18627200D01*
X1264420Y-18810968D01*
X1258368Y-18844876D01*
X401040Y-18844876D01*
X400830Y-17000000D01*
X1241264Y-17000000D01*
X1260166Y-17191917D01*
X1316146Y-17376459D01*
X1407053Y-17546534D01*
X1529394Y-17695606D01*
X1678466Y-17817947D01*
X1848541Y-17908854D01*
X2033083Y-17964834D01*
X2176914Y-17979000D01*
X2823086Y-17979000D01*
X2966917Y-17964834D01*
X3151459Y-17908854D01*
X3321534Y-17817947D01*
X3470606Y-17695606D01*
X3592947Y-17546534D01*
X3683854Y-17376459D01*
X3739834Y-17191917D01*
X3758736Y-17000000D01*
X3739834Y-16808083D01*
X3683854Y-16623541D01*
X3592947Y-16453466D01*
X3470606Y-16304394D01*
X3321534Y-16182053D01*
X3151459Y-16091146D01*
X2966917Y-16035166D01*
X2823086Y-16021000D01*
X2176914Y-16021000D01*
X2033083Y-16035166D01*
X1848541Y-16091146D01*
X1678466Y-16182053D01*
X1529394Y-16304394D01*
X1407053Y-16453466D01*
X1316146Y-16623541D01*
X1260166Y-16808083D01*
X1241264Y-17000000D01*
X400830Y-17000000D01*
X400604Y-15000000D01*
X1241264Y-15000000D01*
X1260166Y-15191917D01*
X1316146Y-15376459D01*
X1407053Y-15546534D01*
X1529394Y-15695606D01*
X1678466Y-15817947D01*
X1848541Y-15908854D01*
X2033083Y-15964834D01*
X2176914Y-15979000D01*
X2823086Y-15979000D01*
X2966917Y-15964834D01*
X3151459Y-15908854D01*
X3321534Y-15817947D01*
X3470606Y-15695606D01*
X3592947Y-15546534D01*
X3683854Y-15376459D01*
X3739834Y-15191917D01*
X3758736Y-15000000D01*
X3739834Y-14808083D01*
X3683854Y-14623541D01*
X3592947Y-14453466D01*
X3470606Y-14304394D01*
X3321534Y-14182053D01*
X3151459Y-14091146D01*
X2966917Y-14035166D01*
X2823086Y-14021000D01*
X2176914Y-14021000D01*
X2033083Y-14035166D01*
X1848541Y-14091146D01*
X1678466Y-14182053D01*
X1529394Y-14304394D01*
X1407053Y-14453466D01*
X1316146Y-14623541D01*
X1260166Y-14808083D01*
X1241264Y-15000000D01*
X400604Y-15000000D01*
X400321Y-12511274D01*
X476330Y-11151739D01*
X701528Y-9820293D01*
X1073739Y-8522237D01*
X1581630Y-7290000D01*
X17619166Y-7290000D01*
X17621000Y-7643250D01*
X17715750Y-7738000D01*
X18998000Y-7738000D01*
X18998000Y-7005750D01*
X19002000Y-7005750D01*
X19002000Y-7738000D01*
X20284250Y-7738000D01*
X20379000Y-7643250D01*
X20380834Y-7290000D01*
X34619166Y-7290000D01*
X34621000Y-7643250D01*
X34715750Y-7738000D01*
X35998000Y-7738000D01*
X35998000Y-7005750D01*
X36002000Y-7005750D01*
X36002000Y-7738000D01*
X37284250Y-7738000D01*
X37379000Y-7643250D01*
X37380834Y-7290000D01*
X37373516Y-7215703D01*
X37351845Y-7144261D01*
X37316652Y-7078420D01*
X37269290Y-7020710D01*
X37211580Y-6973348D01*
X37145739Y-6938155D01*
X37074297Y-6916484D01*
X37000000Y-6909166D01*
X36096750Y-6911000D01*
X36002000Y-7005750D01*
X35998000Y-7005750D01*
X35903250Y-6911000D01*
X35000000Y-6909166D01*
X34925703Y-6916484D01*
X34854261Y-6938155D01*
X34788420Y-6973348D01*
X34730710Y-7020710D01*
X34683348Y-7078420D01*
X34648155Y-7144261D01*
X34626484Y-7215703D01*
X34619166Y-7290000D01*
X20380834Y-7290000D01*
X20373516Y-7215703D01*
X20351845Y-7144261D01*
X20316652Y-7078420D01*
X20269290Y-7020710D01*
X20211580Y-6973348D01*
X20145739Y-6938155D01*
X20074297Y-6916484D01*
X20000000Y-6909166D01*
X19096750Y-6911000D01*
X19002000Y-7005750D01*
X18998000Y-7005750D01*
X18903250Y-6911000D01*
X18000000Y-6909166D01*
X17925703Y-6916484D01*
X17854261Y-6938155D01*
X17788420Y-6973348D01*
X17730710Y-7020710D01*
X17683348Y-7078420D01*
X17648155Y-7144261D01*
X17626484Y-7215703D01*
X17619166Y-7290000D01*
X1581630Y-7290000D01*
X1588322Y-7273764D01*
X1944984Y-6625000D01*
X53047473Y-6625000D01*
X53367566Y-7197740D01*
G37*
G04 #@! TD.AperFunction*
D24*
X17626485Y-22234297D02*
X17648156Y-22305738D01*
X17669142Y-22345000D01*
X17648156Y-22384262D01*
X17626485Y-22455703D01*
X17619167Y-22530000D01*
X17619167Y-23430000D01*
X17626485Y-23504297D01*
X17648156Y-23575738D01*
X17669142Y-23615000D01*
X17648156Y-23654262D01*
X17626485Y-23725703D01*
X17624486Y-23746000D01*
X17237973Y-23746000D01*
X17190341Y-23631005D01*
X17105089Y-23503417D01*
X16996583Y-23394911D01*
X16868995Y-23309659D01*
X16727226Y-23250937D01*
X16576725Y-23221000D01*
X16423275Y-23221000D01*
X16272774Y-23250937D01*
X16131005Y-23309659D01*
X16003417Y-23394911D01*
X15894911Y-23503417D01*
X15809659Y-23631005D01*
X15750937Y-23772774D01*
X15721000Y-23923275D01*
X15721000Y-24076725D01*
X15750937Y-24227226D01*
X15809659Y-24368995D01*
X15894911Y-24496583D01*
X16003417Y-24605089D01*
X16131005Y-24690341D01*
X16272774Y-24749063D01*
X16423275Y-24779000D01*
X16576725Y-24779000D01*
X16709970Y-24752495D01*
X16725246Y-24754000D01*
X16725248Y-24754000D01*
X16749999Y-24756438D01*
X16774750Y-24754000D01*
X17624486Y-24754000D01*
X17626485Y-24774297D01*
X17648156Y-24845738D01*
X17683349Y-24911579D01*
X17730710Y-24969290D01*
X17788421Y-25016651D01*
X17854262Y-25051844D01*
X17925703Y-25073515D01*
X18000000Y-25080833D01*
X19996001Y-25080833D01*
X19996001Y-26475236D01*
X19993562Y-26500000D01*
X20003293Y-26598801D01*
X20028941Y-26683349D01*
X20032113Y-26693805D01*
X20078913Y-26781362D01*
X20141895Y-26858106D01*
X20161123Y-26873886D01*
X22496000Y-29208764D01*
X22496001Y-30900577D01*
X22486265Y-30738816D01*
X22403870Y-30424614D01*
X22261761Y-30132525D01*
X22191699Y-30027671D01*
X21956076Y-29896752D01*
X20852828Y-31000000D01*
X21956076Y-32103248D01*
X22191699Y-31972329D01*
X22355611Y-31691893D01*
X22461663Y-31384869D01*
X22502284Y-31088556D01*
X22503293Y-31098801D01*
X22516366Y-31141895D01*
X22532113Y-31193805D01*
X22578913Y-31281362D01*
X22641895Y-31358106D01*
X22661123Y-31373886D01*
X23996000Y-32708764D01*
X23996000Y-33394521D01*
X23868995Y-33309659D01*
X23727226Y-33250937D01*
X23576725Y-33221000D01*
X23423275Y-33221000D01*
X23272774Y-33250937D01*
X23131005Y-33309659D01*
X23003417Y-33394911D01*
X22894911Y-33503417D01*
X22809659Y-33631005D01*
X22750937Y-33772774D01*
X22721000Y-33923275D01*
X22721000Y-34066237D01*
X21041237Y-35746000D01*
X18982442Y-35746000D01*
X18929960Y-35619298D01*
X18784244Y-35401218D01*
X18598782Y-35215756D01*
X18380702Y-35070040D01*
X18138384Y-34969668D01*
X17881141Y-34918500D01*
X17618859Y-34918500D01*
X17361616Y-34969668D01*
X17119298Y-35070040D01*
X16901218Y-35215756D01*
X16715756Y-35401218D01*
X16570040Y-35619298D01*
X16469668Y-35861616D01*
X16418500Y-36118859D01*
X16418500Y-36381141D01*
X16469668Y-36638384D01*
X16570040Y-36880702D01*
X16715756Y-37098782D01*
X16901218Y-37284244D01*
X17119298Y-37429960D01*
X17288389Y-37500000D01*
X17119298Y-37570040D01*
X16901218Y-37715756D01*
X16715756Y-37901218D01*
X16570040Y-38119298D01*
X16469668Y-38361616D01*
X16418500Y-38618859D01*
X16418500Y-38881141D01*
X16469668Y-39138384D01*
X16570040Y-39380702D01*
X16715756Y-39598782D01*
X16901218Y-39784244D01*
X17119298Y-39929960D01*
X17281524Y-39997157D01*
X17049221Y-40110262D01*
X16965196Y-40166406D01*
X16872345Y-40369517D01*
X17750000Y-41247172D01*
X18627655Y-40369517D01*
X18534804Y-40166406D01*
X18308326Y-40034120D01*
X18210631Y-40000406D01*
X18380702Y-39929960D01*
X18598782Y-39784244D01*
X18784244Y-39598782D01*
X18929960Y-39380702D01*
X19030332Y-39138384D01*
X19081500Y-38881141D01*
X19081500Y-38618859D01*
X19030332Y-38361616D01*
X18929960Y-38119298D01*
X18784244Y-37901218D01*
X18598782Y-37715756D01*
X18380702Y-37570040D01*
X18211611Y-37500000D01*
X18380702Y-37429960D01*
X18598782Y-37284244D01*
X18784244Y-37098782D01*
X18929960Y-36880702D01*
X18982442Y-36754000D01*
X21225246Y-36754000D01*
X21250000Y-36756438D01*
X21348801Y-36746707D01*
X21443805Y-36717888D01*
X21531362Y-36671088D01*
X21608106Y-36608106D01*
X21623890Y-36588873D01*
X22996001Y-35216762D01*
X22996000Y-45402328D01*
X22894911Y-45503417D01*
X22809659Y-45631005D01*
X22750937Y-45772774D01*
X22721000Y-45923275D01*
X22721000Y-46076725D01*
X22750937Y-46227226D01*
X22809659Y-46368995D01*
X22894911Y-46496583D01*
X23003417Y-46605089D01*
X23131005Y-46690341D01*
X23272774Y-46749063D01*
X23423275Y-46779000D01*
X23576725Y-46779000D01*
X23727226Y-46749063D01*
X23868995Y-46690341D01*
X23996001Y-46605478D01*
X23996001Y-51902327D01*
X23894911Y-52003417D01*
X23809659Y-52131005D01*
X23750937Y-52272774D01*
X23721000Y-52423275D01*
X23721000Y-52576725D01*
X23750937Y-52727226D01*
X23809659Y-52868995D01*
X23810999Y-52871000D01*
X20760541Y-52871000D01*
X15495617Y-47606076D01*
X19746752Y-47606076D01*
X19877671Y-47841699D01*
X20158107Y-48005611D01*
X20465131Y-48111663D01*
X20786946Y-48155780D01*
X21111184Y-48136265D01*
X21425386Y-48053870D01*
X21717475Y-47911761D01*
X21822329Y-47841699D01*
X21953248Y-47606076D01*
X20850000Y-46502828D01*
X19746752Y-47606076D01*
X15495617Y-47606076D01*
X15145603Y-47256063D01*
X15132667Y-47191029D01*
X15272774Y-47249063D01*
X15423275Y-47279000D01*
X15576725Y-47279000D01*
X15727226Y-47249063D01*
X15868995Y-47190341D01*
X15996583Y-47105089D01*
X16105089Y-46996583D01*
X16190341Y-46868995D01*
X16249063Y-46727226D01*
X16279000Y-46576725D01*
X16279000Y-46436946D01*
X19194220Y-46436946D01*
X19213735Y-46761184D01*
X19296130Y-47075386D01*
X19438239Y-47367475D01*
X19508301Y-47472329D01*
X19743924Y-47603248D01*
X20847172Y-46500000D01*
X20852828Y-46500000D01*
X21956076Y-47603248D01*
X22191699Y-47472329D01*
X22355611Y-47191893D01*
X22461663Y-46884869D01*
X22505780Y-46563054D01*
X22486265Y-46238816D01*
X22403870Y-45924614D01*
X22261761Y-45632525D01*
X22191699Y-45527671D01*
X21956076Y-45396752D01*
X20852828Y-46500000D01*
X20847172Y-46500000D01*
X19743924Y-45396752D01*
X19508301Y-45527671D01*
X19344389Y-45808107D01*
X19238337Y-46115131D01*
X19194220Y-46436946D01*
X16279000Y-46436946D01*
X16279000Y-46423275D01*
X16249063Y-46272774D01*
X16190341Y-46131005D01*
X16105089Y-46003417D01*
X15996583Y-45894911D01*
X15868995Y-45809659D01*
X15727226Y-45750937D01*
X15576725Y-45721000D01*
X15504000Y-45721000D01*
X15504000Y-45393924D01*
X19746752Y-45393924D01*
X20850000Y-46497172D01*
X21953248Y-45393924D01*
X21822329Y-45158301D01*
X21541893Y-44994389D01*
X21234869Y-44888337D01*
X20913054Y-44844220D01*
X20588816Y-44863735D01*
X20274614Y-44946130D01*
X19982525Y-45088239D01*
X19877671Y-45158301D01*
X19746752Y-45393924D01*
X15504000Y-45393924D01*
X15504000Y-42130483D01*
X16872345Y-42130483D01*
X16965196Y-42333594D01*
X17191674Y-42465880D01*
X17439608Y-42551441D01*
X17699472Y-42586989D01*
X17961276Y-42571157D01*
X18214962Y-42504554D01*
X18450779Y-42389738D01*
X18534804Y-42333594D01*
X18627655Y-42130483D01*
X17750000Y-41252828D01*
X16872345Y-42130483D01*
X15504000Y-42130483D01*
X15504000Y-41199472D01*
X16413011Y-41199472D01*
X16428843Y-41461276D01*
X16495446Y-41714962D01*
X16610262Y-41950779D01*
X16666406Y-42034804D01*
X16869517Y-42127655D01*
X17747172Y-41250000D01*
X17752828Y-41250000D01*
X18630483Y-42127655D01*
X18833594Y-42034804D01*
X18965880Y-41808326D01*
X19051441Y-41560392D01*
X19086989Y-41300528D01*
X19071157Y-41038724D01*
X19004554Y-40785038D01*
X18889738Y-40549221D01*
X18833594Y-40465196D01*
X18630483Y-40372345D01*
X17752828Y-41250000D01*
X17747172Y-41250000D01*
X16869517Y-40372345D01*
X16666406Y-40465196D01*
X16534120Y-40691674D01*
X16448559Y-40939608D01*
X16413011Y-41199472D01*
X15504000Y-41199472D01*
X15504000Y-32106076D01*
X19746752Y-32106076D01*
X19877671Y-32341699D01*
X20158107Y-32505611D01*
X20465131Y-32611663D01*
X20786946Y-32655780D01*
X21111184Y-32636265D01*
X21425386Y-32553870D01*
X21717475Y-32411761D01*
X21822329Y-32341699D01*
X21953248Y-32106076D01*
X20850000Y-31002828D01*
X19746752Y-32106076D01*
X15504000Y-32106076D01*
X15504000Y-30936946D01*
X19194220Y-30936946D01*
X19213735Y-31261184D01*
X19296130Y-31575386D01*
X19438239Y-31867475D01*
X19508301Y-31972329D01*
X19743924Y-32103248D01*
X20847172Y-31000000D01*
X19743924Y-29896752D01*
X19508301Y-30027671D01*
X19344389Y-30308107D01*
X19238337Y-30615131D01*
X19194220Y-30936946D01*
X15504000Y-30936946D01*
X15504000Y-29893924D01*
X19746752Y-29893924D01*
X20850000Y-30997172D01*
X21953248Y-29893924D01*
X21822329Y-29658301D01*
X21541893Y-29494389D01*
X21234869Y-29388337D01*
X20913054Y-29344220D01*
X20588816Y-29363735D01*
X20274614Y-29446130D01*
X19982525Y-29588239D01*
X19877671Y-29658301D01*
X19746752Y-29893924D01*
X15504000Y-29893924D01*
X15504000Y-23208763D01*
X16498764Y-22214000D01*
X17624486Y-22214000D01*
X17626485Y-22234297D01*
G04 #@! TA.AperFunction,Conductor*
D25*
G36*
X17626485Y-22234297D02*
G01*
X17648156Y-22305738D01*
X17669142Y-22345000D01*
X17648156Y-22384262D01*
X17626485Y-22455703D01*
X17619167Y-22530000D01*
X17619167Y-23430000D01*
X17626485Y-23504297D01*
X17648156Y-23575738D01*
X17669142Y-23615000D01*
X17648156Y-23654262D01*
X17626485Y-23725703D01*
X17624486Y-23746000D01*
X17237973Y-23746000D01*
X17190341Y-23631005D01*
X17105089Y-23503417D01*
X16996583Y-23394911D01*
X16868995Y-23309659D01*
X16727226Y-23250937D01*
X16576725Y-23221000D01*
X16423275Y-23221000D01*
X16272774Y-23250937D01*
X16131005Y-23309659D01*
X16003417Y-23394911D01*
X15894911Y-23503417D01*
X15809659Y-23631005D01*
X15750937Y-23772774D01*
X15721000Y-23923275D01*
X15721000Y-24076725D01*
X15750937Y-24227226D01*
X15809659Y-24368995D01*
X15894911Y-24496583D01*
X16003417Y-24605089D01*
X16131005Y-24690341D01*
X16272774Y-24749063D01*
X16423275Y-24779000D01*
X16576725Y-24779000D01*
X16709970Y-24752495D01*
X16725246Y-24754000D01*
X16725248Y-24754000D01*
X16749999Y-24756438D01*
X16774750Y-24754000D01*
X17624486Y-24754000D01*
X17626485Y-24774297D01*
X17648156Y-24845738D01*
X17683349Y-24911579D01*
X17730710Y-24969290D01*
X17788421Y-25016651D01*
X17854262Y-25051844D01*
X17925703Y-25073515D01*
X18000000Y-25080833D01*
X19996001Y-25080833D01*
X19996001Y-26475236D01*
X19993562Y-26500000D01*
X20003293Y-26598801D01*
X20028941Y-26683349D01*
X20032113Y-26693805D01*
X20078913Y-26781362D01*
X20141895Y-26858106D01*
X20161123Y-26873886D01*
X22496000Y-29208764D01*
X22496001Y-30900577D01*
X22486265Y-30738816D01*
X22403870Y-30424614D01*
X22261761Y-30132525D01*
X22191699Y-30027671D01*
X21956076Y-29896752D01*
X20852828Y-31000000D01*
X21956076Y-32103248D01*
X22191699Y-31972329D01*
X22355611Y-31691893D01*
X22461663Y-31384869D01*
X22502284Y-31088556D01*
X22503293Y-31098801D01*
X22516366Y-31141895D01*
X22532113Y-31193805D01*
X22578913Y-31281362D01*
X22641895Y-31358106D01*
X22661123Y-31373886D01*
X23996000Y-32708764D01*
X23996000Y-33394521D01*
X23868995Y-33309659D01*
X23727226Y-33250937D01*
X23576725Y-33221000D01*
X23423275Y-33221000D01*
X23272774Y-33250937D01*
X23131005Y-33309659D01*
X23003417Y-33394911D01*
X22894911Y-33503417D01*
X22809659Y-33631005D01*
X22750937Y-33772774D01*
X22721000Y-33923275D01*
X22721000Y-34066237D01*
X21041237Y-35746000D01*
X18982442Y-35746000D01*
X18929960Y-35619298D01*
X18784244Y-35401218D01*
X18598782Y-35215756D01*
X18380702Y-35070040D01*
X18138384Y-34969668D01*
X17881141Y-34918500D01*
X17618859Y-34918500D01*
X17361616Y-34969668D01*
X17119298Y-35070040D01*
X16901218Y-35215756D01*
X16715756Y-35401218D01*
X16570040Y-35619298D01*
X16469668Y-35861616D01*
X16418500Y-36118859D01*
X16418500Y-36381141D01*
X16469668Y-36638384D01*
X16570040Y-36880702D01*
X16715756Y-37098782D01*
X16901218Y-37284244D01*
X17119298Y-37429960D01*
X17288389Y-37500000D01*
X17119298Y-37570040D01*
X16901218Y-37715756D01*
X16715756Y-37901218D01*
X16570040Y-38119298D01*
X16469668Y-38361616D01*
X16418500Y-38618859D01*
X16418500Y-38881141D01*
X16469668Y-39138384D01*
X16570040Y-39380702D01*
X16715756Y-39598782D01*
X16901218Y-39784244D01*
X17119298Y-39929960D01*
X17281524Y-39997157D01*
X17049221Y-40110262D01*
X16965196Y-40166406D01*
X16872345Y-40369517D01*
X17750000Y-41247172D01*
X18627655Y-40369517D01*
X18534804Y-40166406D01*
X18308326Y-40034120D01*
X18210631Y-40000406D01*
X18380702Y-39929960D01*
X18598782Y-39784244D01*
X18784244Y-39598782D01*
X18929960Y-39380702D01*
X19030332Y-39138384D01*
X19081500Y-38881141D01*
X19081500Y-38618859D01*
X19030332Y-38361616D01*
X18929960Y-38119298D01*
X18784244Y-37901218D01*
X18598782Y-37715756D01*
X18380702Y-37570040D01*
X18211611Y-37500000D01*
X18380702Y-37429960D01*
X18598782Y-37284244D01*
X18784244Y-37098782D01*
X18929960Y-36880702D01*
X18982442Y-36754000D01*
X21225246Y-36754000D01*
X21250000Y-36756438D01*
X21348801Y-36746707D01*
X21443805Y-36717888D01*
X21531362Y-36671088D01*
X21608106Y-36608106D01*
X21623890Y-36588873D01*
X22996001Y-35216762D01*
X22996000Y-45402328D01*
X22894911Y-45503417D01*
X22809659Y-45631005D01*
X22750937Y-45772774D01*
X22721000Y-45923275D01*
X22721000Y-46076725D01*
X22750937Y-46227226D01*
X22809659Y-46368995D01*
X22894911Y-46496583D01*
X23003417Y-46605089D01*
X23131005Y-46690341D01*
X23272774Y-46749063D01*
X23423275Y-46779000D01*
X23576725Y-46779000D01*
X23727226Y-46749063D01*
X23868995Y-46690341D01*
X23996001Y-46605478D01*
X23996001Y-51902327D01*
X23894911Y-52003417D01*
X23809659Y-52131005D01*
X23750937Y-52272774D01*
X23721000Y-52423275D01*
X23721000Y-52576725D01*
X23750937Y-52727226D01*
X23809659Y-52868995D01*
X23810999Y-52871000D01*
X20760541Y-52871000D01*
X15495617Y-47606076D01*
X19746752Y-47606076D01*
X19877671Y-47841699D01*
X20158107Y-48005611D01*
X20465131Y-48111663D01*
X20786946Y-48155780D01*
X21111184Y-48136265D01*
X21425386Y-48053870D01*
X21717475Y-47911761D01*
X21822329Y-47841699D01*
X21953248Y-47606076D01*
X20850000Y-46502828D01*
X19746752Y-47606076D01*
X15495617Y-47606076D01*
X15145603Y-47256063D01*
X15132667Y-47191029D01*
X15272774Y-47249063D01*
X15423275Y-47279000D01*
X15576725Y-47279000D01*
X15727226Y-47249063D01*
X15868995Y-47190341D01*
X15996583Y-47105089D01*
X16105089Y-46996583D01*
X16190341Y-46868995D01*
X16249063Y-46727226D01*
X16279000Y-46576725D01*
X16279000Y-46436946D01*
X19194220Y-46436946D01*
X19213735Y-46761184D01*
X19296130Y-47075386D01*
X19438239Y-47367475D01*
X19508301Y-47472329D01*
X19743924Y-47603248D01*
X20847172Y-46500000D01*
X20852828Y-46500000D01*
X21956076Y-47603248D01*
X22191699Y-47472329D01*
X22355611Y-47191893D01*
X22461663Y-46884869D01*
X22505780Y-46563054D01*
X22486265Y-46238816D01*
X22403870Y-45924614D01*
X22261761Y-45632525D01*
X22191699Y-45527671D01*
X21956076Y-45396752D01*
X20852828Y-46500000D01*
X20847172Y-46500000D01*
X19743924Y-45396752D01*
X19508301Y-45527671D01*
X19344389Y-45808107D01*
X19238337Y-46115131D01*
X19194220Y-46436946D01*
X16279000Y-46436946D01*
X16279000Y-46423275D01*
X16249063Y-46272774D01*
X16190341Y-46131005D01*
X16105089Y-46003417D01*
X15996583Y-45894911D01*
X15868995Y-45809659D01*
X15727226Y-45750937D01*
X15576725Y-45721000D01*
X15504000Y-45721000D01*
X15504000Y-45393924D01*
X19746752Y-45393924D01*
X20850000Y-46497172D01*
X21953248Y-45393924D01*
X21822329Y-45158301D01*
X21541893Y-44994389D01*
X21234869Y-44888337D01*
X20913054Y-44844220D01*
X20588816Y-44863735D01*
X20274614Y-44946130D01*
X19982525Y-45088239D01*
X19877671Y-45158301D01*
X19746752Y-45393924D01*
X15504000Y-45393924D01*
X15504000Y-42130483D01*
X16872345Y-42130483D01*
X16965196Y-42333594D01*
X17191674Y-42465880D01*
X17439608Y-42551441D01*
X17699472Y-42586989D01*
X17961276Y-42571157D01*
X18214962Y-42504554D01*
X18450779Y-42389738D01*
X18534804Y-42333594D01*
X18627655Y-42130483D01*
X17750000Y-41252828D01*
X16872345Y-42130483D01*
X15504000Y-42130483D01*
X15504000Y-41199472D01*
X16413011Y-41199472D01*
X16428843Y-41461276D01*
X16495446Y-41714962D01*
X16610262Y-41950779D01*
X16666406Y-42034804D01*
X16869517Y-42127655D01*
X17747172Y-41250000D01*
X17752828Y-41250000D01*
X18630483Y-42127655D01*
X18833594Y-42034804D01*
X18965880Y-41808326D01*
X19051441Y-41560392D01*
X19086989Y-41300528D01*
X19071157Y-41038724D01*
X19004554Y-40785038D01*
X18889738Y-40549221D01*
X18833594Y-40465196D01*
X18630483Y-40372345D01*
X17752828Y-41250000D01*
X17747172Y-41250000D01*
X16869517Y-40372345D01*
X16666406Y-40465196D01*
X16534120Y-40691674D01*
X16448559Y-40939608D01*
X16413011Y-41199472D01*
X15504000Y-41199472D01*
X15504000Y-32106076D01*
X19746752Y-32106076D01*
X19877671Y-32341699D01*
X20158107Y-32505611D01*
X20465131Y-32611663D01*
X20786946Y-32655780D01*
X21111184Y-32636265D01*
X21425386Y-32553870D01*
X21717475Y-32411761D01*
X21822329Y-32341699D01*
X21953248Y-32106076D01*
X20850000Y-31002828D01*
X19746752Y-32106076D01*
X15504000Y-32106076D01*
X15504000Y-30936946D01*
X19194220Y-30936946D01*
X19213735Y-31261184D01*
X19296130Y-31575386D01*
X19438239Y-31867475D01*
X19508301Y-31972329D01*
X19743924Y-32103248D01*
X20847172Y-31000000D01*
X19743924Y-29896752D01*
X19508301Y-30027671D01*
X19344389Y-30308107D01*
X19238337Y-30615131D01*
X19194220Y-30936946D01*
X15504000Y-30936946D01*
X15504000Y-29893924D01*
X19746752Y-29893924D01*
X20850000Y-30997172D01*
X21953248Y-29893924D01*
X21822329Y-29658301D01*
X21541893Y-29494389D01*
X21234869Y-29388337D01*
X20913054Y-29344220D01*
X20588816Y-29363735D01*
X20274614Y-29446130D01*
X19982525Y-29588239D01*
X19877671Y-29658301D01*
X19746752Y-29893924D01*
X15504000Y-29893924D01*
X15504000Y-23208763D01*
X16498764Y-22214000D01*
X17624486Y-22214000D01*
X17626485Y-22234297D01*
G37*
G04 #@! TD.AperFunction*
D24*
X34626485Y-10804297D02*
X34648156Y-10875738D01*
X34669142Y-10915000D01*
X34648156Y-10954262D01*
X34626485Y-11025703D01*
X34619167Y-11100000D01*
X34619167Y-12000000D01*
X34626485Y-12074297D01*
X34648156Y-12145738D01*
X34669142Y-12185000D01*
X34648156Y-12224262D01*
X34626485Y-12295703D01*
X34619167Y-12370000D01*
X34619167Y-13200598D01*
X34590341Y-13131005D01*
X34505089Y-13003417D01*
X34396583Y-12894911D01*
X34268995Y-12809659D01*
X34127226Y-12750937D01*
X33976725Y-12721000D01*
X33823275Y-12721000D01*
X33672774Y-12750937D01*
X33531005Y-12809659D01*
X33403417Y-12894911D01*
X33294911Y-13003417D01*
X33209659Y-13131005D01*
X33150937Y-13272774D01*
X33121000Y-13423275D01*
X33121000Y-13566236D01*
X32266237Y-14421000D01*
X32123275Y-14421000D01*
X31972774Y-14450937D01*
X31831005Y-14509659D01*
X31703417Y-14594911D01*
X31594911Y-14703417D01*
X31509659Y-14831005D01*
X31450937Y-14972774D01*
X31421000Y-15123275D01*
X31421000Y-15276725D01*
X31450937Y-15427226D01*
X31509659Y-15568995D01*
X31594911Y-15696583D01*
X31703417Y-15805089D01*
X31831005Y-15890341D01*
X31972774Y-15949063D01*
X32123275Y-15979000D01*
X32145420Y-15979000D01*
X32141894Y-15981894D01*
X32078912Y-16058638D01*
X32032112Y-16146196D01*
X32019052Y-16189250D01*
X32003293Y-16241199D01*
X31993562Y-16340000D01*
X31996000Y-16364754D01*
X31996001Y-17291236D01*
X31291237Y-17996000D01*
X31280197Y-17996000D01*
X31316652Y-17951580D01*
X31351845Y-17885739D01*
X31373516Y-17814297D01*
X31380834Y-17740000D01*
X31379000Y-17171750D01*
X31284250Y-17077000D01*
X30337000Y-17077000D01*
X30337000Y-17097000D01*
X30333000Y-17097000D01*
X30333000Y-17077000D01*
X28502000Y-17077000D01*
X28502000Y-18024250D01*
X28596750Y-18119000D01*
X29165000Y-18120834D01*
X29239297Y-18113516D01*
X29310739Y-18091845D01*
X29376580Y-18056652D01*
X29417500Y-18023069D01*
X29458420Y-18056652D01*
X29524261Y-18091845D01*
X29595703Y-18113516D01*
X29667818Y-18120619D01*
X29641894Y-18141894D01*
X29626110Y-18161127D01*
X29066237Y-18721000D01*
X28923275Y-18721000D01*
X28772774Y-18750937D01*
X28631005Y-18809659D01*
X28503417Y-18894911D01*
X28394911Y-19003417D01*
X28309659Y-19131005D01*
X28250937Y-19272774D01*
X28221000Y-19423275D01*
X28221000Y-19576725D01*
X28250937Y-19727226D01*
X28309659Y-19868995D01*
X28354431Y-19936000D01*
X27648764Y-19936000D01*
X25504000Y-17791237D01*
X25504000Y-17740000D01*
X25619166Y-17740000D01*
X25626484Y-17814297D01*
X25648155Y-17885739D01*
X25683348Y-17951580D01*
X25730710Y-18009290D01*
X25788420Y-18056652D01*
X25854261Y-18091845D01*
X25925703Y-18113516D01*
X26000000Y-18120834D01*
X26568250Y-18119000D01*
X26663000Y-18024250D01*
X26663000Y-17077000D01*
X26667000Y-17077000D01*
X26667000Y-18024250D01*
X26761750Y-18119000D01*
X27330000Y-18120834D01*
X27404297Y-18113516D01*
X27475739Y-18091845D01*
X27541580Y-18056652D01*
X27582500Y-18023069D01*
X27623420Y-18056652D01*
X27689261Y-18091845D01*
X27760703Y-18113516D01*
X27835000Y-18120834D01*
X28403250Y-18119000D01*
X28498000Y-18024250D01*
X28498000Y-17077000D01*
X26667000Y-17077000D01*
X26663000Y-17077000D01*
X25715750Y-17077000D01*
X25621000Y-17171750D01*
X25619166Y-17740000D01*
X25504000Y-17740000D01*
X25504000Y-15905000D01*
X25619166Y-15905000D01*
X25626484Y-15979297D01*
X25648155Y-16050739D01*
X25683348Y-16116580D01*
X25716931Y-16157500D01*
X25683348Y-16198420D01*
X25648155Y-16264261D01*
X25626484Y-16335703D01*
X25619166Y-16410000D01*
X25621000Y-16978250D01*
X25715750Y-17073000D01*
X26663000Y-17073000D01*
X26663000Y-15242000D01*
X26667000Y-15242000D01*
X26667000Y-17073000D01*
X28498000Y-17073000D01*
X28498000Y-15242000D01*
X28502000Y-15242000D01*
X28502000Y-17073000D01*
X30333000Y-17073000D01*
X30333000Y-15242000D01*
X30337000Y-15242000D01*
X30337000Y-17073000D01*
X31284250Y-17073000D01*
X31379000Y-16978250D01*
X31380834Y-16410000D01*
X31373516Y-16335703D01*
X31351845Y-16264261D01*
X31316652Y-16198420D01*
X31283069Y-16157500D01*
X31316652Y-16116580D01*
X31351845Y-16050739D01*
X31373516Y-15979297D01*
X31380834Y-15905000D01*
X31379000Y-15336750D01*
X31284250Y-15242000D01*
X30337000Y-15242000D01*
X30333000Y-15242000D01*
X28502000Y-15242000D01*
X28498000Y-15242000D01*
X26667000Y-15242000D01*
X26663000Y-15242000D01*
X25715750Y-15242000D01*
X25621000Y-15336750D01*
X25619166Y-15905000D01*
X25504000Y-15905000D01*
X25504000Y-15024754D01*
X25506438Y-15000000D01*
X25503757Y-14972774D01*
X25496707Y-14901199D01*
X25467888Y-14806195D01*
X25421088Y-14718638D01*
X25358106Y-14641894D01*
X25338873Y-14626110D01*
X24991763Y-14279000D01*
X25076725Y-14279000D01*
X25227226Y-14249063D01*
X25368995Y-14190341D01*
X25496583Y-14105089D01*
X25605089Y-13996583D01*
X25619472Y-13975057D01*
X25619166Y-14070000D01*
X25626484Y-14144297D01*
X25648155Y-14215739D01*
X25683348Y-14281580D01*
X25716931Y-14322500D01*
X25683348Y-14363420D01*
X25648155Y-14429261D01*
X25626484Y-14500703D01*
X25619166Y-14575000D01*
X25621000Y-15143250D01*
X25715750Y-15238000D01*
X26663000Y-15238000D01*
X26663000Y-13407000D01*
X26667000Y-13407000D01*
X26667000Y-15238000D01*
X28498000Y-15238000D01*
X28498000Y-13407000D01*
X28502000Y-13407000D01*
X28502000Y-15238000D01*
X30333000Y-15238000D01*
X30333000Y-13407000D01*
X30337000Y-13407000D01*
X30337000Y-15238000D01*
X31284250Y-15238000D01*
X31379000Y-15143250D01*
X31380834Y-14575000D01*
X31373516Y-14500703D01*
X31351845Y-14429261D01*
X31316652Y-14363420D01*
X31283069Y-14322500D01*
X31316652Y-14281580D01*
X31351845Y-14215739D01*
X31373516Y-14144297D01*
X31380834Y-14070000D01*
X31379000Y-13501750D01*
X31284250Y-13407000D01*
X30337000Y-13407000D01*
X30333000Y-13407000D01*
X28502000Y-13407000D01*
X28498000Y-13407000D01*
X26667000Y-13407000D01*
X26663000Y-13407000D01*
X26643000Y-13407000D01*
X26643000Y-13403000D01*
X26663000Y-13403000D01*
X26663000Y-12455750D01*
X26667000Y-12455750D01*
X26667000Y-13403000D01*
X28498000Y-13403000D01*
X28498000Y-12455750D01*
X28502000Y-12455750D01*
X28502000Y-13403000D01*
X30333000Y-13403000D01*
X30333000Y-12455750D01*
X30337000Y-12455750D01*
X30337000Y-13403000D01*
X31284250Y-13403000D01*
X31379000Y-13308250D01*
X31380834Y-12740000D01*
X31373516Y-12665703D01*
X31351845Y-12594261D01*
X31316652Y-12528420D01*
X31269290Y-12470710D01*
X31211580Y-12423348D01*
X31145739Y-12388155D01*
X31074297Y-12366484D01*
X31000000Y-12359166D01*
X30431750Y-12361000D01*
X30337000Y-12455750D01*
X30333000Y-12455750D01*
X30238250Y-12361000D01*
X29670000Y-12359166D01*
X29595703Y-12366484D01*
X29524261Y-12388155D01*
X29458420Y-12423348D01*
X29417500Y-12456931D01*
X29376580Y-12423348D01*
X29310739Y-12388155D01*
X29239297Y-12366484D01*
X29165000Y-12359166D01*
X28596750Y-12361000D01*
X28502000Y-12455750D01*
X28498000Y-12455750D01*
X28403250Y-12361000D01*
X27835000Y-12359166D01*
X27760703Y-12366484D01*
X27689261Y-12388155D01*
X27623420Y-12423348D01*
X27582500Y-12456931D01*
X27541580Y-12423348D01*
X27475739Y-12388155D01*
X27404297Y-12366484D01*
X27330000Y-12359166D01*
X26761750Y-12361000D01*
X26667000Y-12455750D01*
X26663000Y-12455750D01*
X26568250Y-12361000D01*
X26000000Y-12359166D01*
X25925703Y-12366484D01*
X25854261Y-12388155D01*
X25788420Y-12423348D01*
X25730710Y-12470710D01*
X25683348Y-12528420D01*
X25648155Y-12594261D01*
X25629000Y-12657409D01*
X25629000Y-11760540D01*
X25736233Y-11653307D01*
X25750937Y-11727226D01*
X25809659Y-11868995D01*
X25894911Y-11996583D01*
X26003417Y-12105089D01*
X26131005Y-12190341D01*
X26272774Y-12249063D01*
X26423275Y-12279000D01*
X26576725Y-12279000D01*
X26727226Y-12249063D01*
X26868995Y-12190341D01*
X26996583Y-12105089D01*
X27105089Y-11996583D01*
X27190341Y-11868995D01*
X27249063Y-11727226D01*
X27279000Y-11576725D01*
X27279000Y-11433763D01*
X27928763Y-10784000D01*
X34624486Y-10784000D01*
X34626485Y-10804297D01*
G04 #@! TA.AperFunction,Conductor*
D25*
G36*
X34626485Y-10804297D02*
G01*
X34648156Y-10875738D01*
X34669142Y-10915000D01*
X34648156Y-10954262D01*
X34626485Y-11025703D01*
X34619167Y-11100000D01*
X34619167Y-12000000D01*
X34626485Y-12074297D01*
X34648156Y-12145738D01*
X34669142Y-12185000D01*
X34648156Y-12224262D01*
X34626485Y-12295703D01*
X34619167Y-12370000D01*
X34619167Y-13200598D01*
X34590341Y-13131005D01*
X34505089Y-13003417D01*
X34396583Y-12894911D01*
X34268995Y-12809659D01*
X34127226Y-12750937D01*
X33976725Y-12721000D01*
X33823275Y-12721000D01*
X33672774Y-12750937D01*
X33531005Y-12809659D01*
X33403417Y-12894911D01*
X33294911Y-13003417D01*
X33209659Y-13131005D01*
X33150937Y-13272774D01*
X33121000Y-13423275D01*
X33121000Y-13566236D01*
X32266237Y-14421000D01*
X32123275Y-14421000D01*
X31972774Y-14450937D01*
X31831005Y-14509659D01*
X31703417Y-14594911D01*
X31594911Y-14703417D01*
X31509659Y-14831005D01*
X31450937Y-14972774D01*
X31421000Y-15123275D01*
X31421000Y-15276725D01*
X31450937Y-15427226D01*
X31509659Y-15568995D01*
X31594911Y-15696583D01*
X31703417Y-15805089D01*
X31831005Y-15890341D01*
X31972774Y-15949063D01*
X32123275Y-15979000D01*
X32145420Y-15979000D01*
X32141894Y-15981894D01*
X32078912Y-16058638D01*
X32032112Y-16146196D01*
X32019052Y-16189250D01*
X32003293Y-16241199D01*
X31993562Y-16340000D01*
X31996000Y-16364754D01*
X31996001Y-17291236D01*
X31291237Y-17996000D01*
X31280197Y-17996000D01*
X31316652Y-17951580D01*
X31351845Y-17885739D01*
X31373516Y-17814297D01*
X31380834Y-17740000D01*
X31379000Y-17171750D01*
X31284250Y-17077000D01*
X30337000Y-17077000D01*
X30337000Y-17097000D01*
X30333000Y-17097000D01*
X30333000Y-17077000D01*
X28502000Y-17077000D01*
X28502000Y-18024250D01*
X28596750Y-18119000D01*
X29165000Y-18120834D01*
X29239297Y-18113516D01*
X29310739Y-18091845D01*
X29376580Y-18056652D01*
X29417500Y-18023069D01*
X29458420Y-18056652D01*
X29524261Y-18091845D01*
X29595703Y-18113516D01*
X29667818Y-18120619D01*
X29641894Y-18141894D01*
X29626110Y-18161127D01*
X29066237Y-18721000D01*
X28923275Y-18721000D01*
X28772774Y-18750937D01*
X28631005Y-18809659D01*
X28503417Y-18894911D01*
X28394911Y-19003417D01*
X28309659Y-19131005D01*
X28250937Y-19272774D01*
X28221000Y-19423275D01*
X28221000Y-19576725D01*
X28250937Y-19727226D01*
X28309659Y-19868995D01*
X28354431Y-19936000D01*
X27648764Y-19936000D01*
X25504000Y-17791237D01*
X25504000Y-17740000D01*
X25619166Y-17740000D01*
X25626484Y-17814297D01*
X25648155Y-17885739D01*
X25683348Y-17951580D01*
X25730710Y-18009290D01*
X25788420Y-18056652D01*
X25854261Y-18091845D01*
X25925703Y-18113516D01*
X26000000Y-18120834D01*
X26568250Y-18119000D01*
X26663000Y-18024250D01*
X26663000Y-17077000D01*
X26667000Y-17077000D01*
X26667000Y-18024250D01*
X26761750Y-18119000D01*
X27330000Y-18120834D01*
X27404297Y-18113516D01*
X27475739Y-18091845D01*
X27541580Y-18056652D01*
X27582500Y-18023069D01*
X27623420Y-18056652D01*
X27689261Y-18091845D01*
X27760703Y-18113516D01*
X27835000Y-18120834D01*
X28403250Y-18119000D01*
X28498000Y-18024250D01*
X28498000Y-17077000D01*
X26667000Y-17077000D01*
X26663000Y-17077000D01*
X25715750Y-17077000D01*
X25621000Y-17171750D01*
X25619166Y-17740000D01*
X25504000Y-17740000D01*
X25504000Y-15905000D01*
X25619166Y-15905000D01*
X25626484Y-15979297D01*
X25648155Y-16050739D01*
X25683348Y-16116580D01*
X25716931Y-16157500D01*
X25683348Y-16198420D01*
X25648155Y-16264261D01*
X25626484Y-16335703D01*
X25619166Y-16410000D01*
X25621000Y-16978250D01*
X25715750Y-17073000D01*
X26663000Y-17073000D01*
X26663000Y-15242000D01*
X26667000Y-15242000D01*
X26667000Y-17073000D01*
X28498000Y-17073000D01*
X28498000Y-15242000D01*
X28502000Y-15242000D01*
X28502000Y-17073000D01*
X30333000Y-17073000D01*
X30333000Y-15242000D01*
X30337000Y-15242000D01*
X30337000Y-17073000D01*
X31284250Y-17073000D01*
X31379000Y-16978250D01*
X31380834Y-16410000D01*
X31373516Y-16335703D01*
X31351845Y-16264261D01*
X31316652Y-16198420D01*
X31283069Y-16157500D01*
X31316652Y-16116580D01*
X31351845Y-16050739D01*
X31373516Y-15979297D01*
X31380834Y-15905000D01*
X31379000Y-15336750D01*
X31284250Y-15242000D01*
X30337000Y-15242000D01*
X30333000Y-15242000D01*
X28502000Y-15242000D01*
X28498000Y-15242000D01*
X26667000Y-15242000D01*
X26663000Y-15242000D01*
X25715750Y-15242000D01*
X25621000Y-15336750D01*
X25619166Y-15905000D01*
X25504000Y-15905000D01*
X25504000Y-15024754D01*
X25506438Y-15000000D01*
X25503757Y-14972774D01*
X25496707Y-14901199D01*
X25467888Y-14806195D01*
X25421088Y-14718638D01*
X25358106Y-14641894D01*
X25338873Y-14626110D01*
X24991763Y-14279000D01*
X25076725Y-14279000D01*
X25227226Y-14249063D01*
X25368995Y-14190341D01*
X25496583Y-14105089D01*
X25605089Y-13996583D01*
X25619472Y-13975057D01*
X25619166Y-14070000D01*
X25626484Y-14144297D01*
X25648155Y-14215739D01*
X25683348Y-14281580D01*
X25716931Y-14322500D01*
X25683348Y-14363420D01*
X25648155Y-14429261D01*
X25626484Y-14500703D01*
X25619166Y-14575000D01*
X25621000Y-15143250D01*
X25715750Y-15238000D01*
X26663000Y-15238000D01*
X26663000Y-13407000D01*
X26667000Y-13407000D01*
X26667000Y-15238000D01*
X28498000Y-15238000D01*
X28498000Y-13407000D01*
X28502000Y-13407000D01*
X28502000Y-15238000D01*
X30333000Y-15238000D01*
X30333000Y-13407000D01*
X30337000Y-13407000D01*
X30337000Y-15238000D01*
X31284250Y-15238000D01*
X31379000Y-15143250D01*
X31380834Y-14575000D01*
X31373516Y-14500703D01*
X31351845Y-14429261D01*
X31316652Y-14363420D01*
X31283069Y-14322500D01*
X31316652Y-14281580D01*
X31351845Y-14215739D01*
X31373516Y-14144297D01*
X31380834Y-14070000D01*
X31379000Y-13501750D01*
X31284250Y-13407000D01*
X30337000Y-13407000D01*
X30333000Y-13407000D01*
X28502000Y-13407000D01*
X28498000Y-13407000D01*
X26667000Y-13407000D01*
X26663000Y-13407000D01*
X26643000Y-13407000D01*
X26643000Y-13403000D01*
X26663000Y-13403000D01*
X26663000Y-12455750D01*
X26667000Y-12455750D01*
X26667000Y-13403000D01*
X28498000Y-13403000D01*
X28498000Y-12455750D01*
X28502000Y-12455750D01*
X28502000Y-13403000D01*
X30333000Y-13403000D01*
X30333000Y-12455750D01*
X30337000Y-12455750D01*
X30337000Y-13403000D01*
X31284250Y-13403000D01*
X31379000Y-13308250D01*
X31380834Y-12740000D01*
X31373516Y-12665703D01*
X31351845Y-12594261D01*
X31316652Y-12528420D01*
X31269290Y-12470710D01*
X31211580Y-12423348D01*
X31145739Y-12388155D01*
X31074297Y-12366484D01*
X31000000Y-12359166D01*
X30431750Y-12361000D01*
X30337000Y-12455750D01*
X30333000Y-12455750D01*
X30238250Y-12361000D01*
X29670000Y-12359166D01*
X29595703Y-12366484D01*
X29524261Y-12388155D01*
X29458420Y-12423348D01*
X29417500Y-12456931D01*
X29376580Y-12423348D01*
X29310739Y-12388155D01*
X29239297Y-12366484D01*
X29165000Y-12359166D01*
X28596750Y-12361000D01*
X28502000Y-12455750D01*
X28498000Y-12455750D01*
X28403250Y-12361000D01*
X27835000Y-12359166D01*
X27760703Y-12366484D01*
X27689261Y-12388155D01*
X27623420Y-12423348D01*
X27582500Y-12456931D01*
X27541580Y-12423348D01*
X27475739Y-12388155D01*
X27404297Y-12366484D01*
X27330000Y-12359166D01*
X26761750Y-12361000D01*
X26667000Y-12455750D01*
X26663000Y-12455750D01*
X26568250Y-12361000D01*
X26000000Y-12359166D01*
X25925703Y-12366484D01*
X25854261Y-12388155D01*
X25788420Y-12423348D01*
X25730710Y-12470710D01*
X25683348Y-12528420D01*
X25648155Y-12594261D01*
X25629000Y-12657409D01*
X25629000Y-11760540D01*
X25736233Y-11653307D01*
X25750937Y-11727226D01*
X25809659Y-11868995D01*
X25894911Y-11996583D01*
X26003417Y-12105089D01*
X26131005Y-12190341D01*
X26272774Y-12249063D01*
X26423275Y-12279000D01*
X26576725Y-12279000D01*
X26727226Y-12249063D01*
X26868995Y-12190341D01*
X26996583Y-12105089D01*
X27105089Y-11996583D01*
X27190341Y-11868995D01*
X27249063Y-11727226D01*
X27279000Y-11576725D01*
X27279000Y-11433763D01*
X27928763Y-10784000D01*
X34624486Y-10784000D01*
X34626485Y-10804297D01*
G37*
G04 #@! TD.AperFunction*
M02*
