G04 #@! TF.GenerationSoftware,KiCad,Pcbnew,(5.1.10)-1*
G04 #@! TF.CreationDate,2021-07-12T13:00:40+09:00*
G04 #@! TF.ProjectId,controller,636f6e74-726f-46c6-9c65-722e6b696361,rev?*
G04 #@! TF.SameCoordinates,Original*
G04 #@! TF.FileFunction,Soldermask,Bot*
G04 #@! TF.FilePolarity,Negative*
%FSLAX46Y46*%
G04 Gerber Fmt 4.6, Leading zero omitted, Abs format (unit mm)*
G04 Created by KiCad (PCBNEW (5.1.10)-1) date 2021-07-12 13:00:40*
%MOMM*%
%LPD*%
G01*
G04 APERTURE LIST*
%ADD10C,3.200000*%
%ADD11C,0.300000*%
%ADD12R,1.330000X1.330000*%
%ADD13R,2.000000X0.900000*%
%ADD14R,0.900000X2.000000*%
%ADD15C,2.540000*%
%ADD16C,1.905000*%
%ADD17R,1.905000X1.905000*%
%ADD18O,1.700000X1.700000*%
%ADD19R,1.700000X1.700000*%
%ADD20O,1.750000X1.200000*%
%ADD21O,1.900000X1.050000*%
G04 APERTURE END LIST*
D10*
X20500000Y-73500000D03*
X50000000Y-67500000D03*
X7500000Y-9000000D03*
D11*
X27582500Y-17075000D03*
X29417500Y-17075000D03*
X26665000Y-16157500D03*
X28500000Y-16157500D03*
X30335000Y-16157500D03*
X27582500Y-15240000D03*
X29417500Y-15240000D03*
X26665000Y-14322500D03*
X28500000Y-14322500D03*
X30335000Y-14322500D03*
X27582500Y-13405000D03*
X29417500Y-13405000D03*
D12*
X26665000Y-17075000D03*
X28500000Y-17075000D03*
X30335000Y-17075000D03*
X26665000Y-15240000D03*
X28500000Y-15240000D03*
X30335000Y-15240000D03*
X26665000Y-13405000D03*
X28500000Y-13405000D03*
X30335000Y-13405000D03*
D13*
X19000000Y-7740000D03*
X19000000Y-9010000D03*
X19000000Y-10280000D03*
X19000000Y-11550000D03*
X19000000Y-12820000D03*
X19000000Y-14090000D03*
X19000000Y-15360000D03*
X19000000Y-16630000D03*
X19000000Y-17900000D03*
X19000000Y-19170000D03*
X19000000Y-20440000D03*
X19000000Y-21710000D03*
X19000000Y-22980000D03*
X19000000Y-24250000D03*
D14*
X21785000Y-25250000D03*
X23055000Y-25250000D03*
X24325000Y-25250000D03*
X25595000Y-25250000D03*
X26865000Y-25250000D03*
X28135000Y-25250000D03*
X29405000Y-25250000D03*
X30675000Y-25250000D03*
X31945000Y-25250000D03*
X33215000Y-25250000D03*
D13*
X36000000Y-24250000D03*
X36000000Y-22980000D03*
X36000000Y-21710000D03*
X36000000Y-20440000D03*
X36000000Y-19170000D03*
X36000000Y-17900000D03*
X36000000Y-16630000D03*
X36000000Y-15360000D03*
X36000000Y-14090000D03*
X36000000Y-12820000D03*
X36000000Y-11550000D03*
X36000000Y-10280000D03*
X36000000Y-9010000D03*
X36000000Y-7740000D03*
D10*
X50000000Y-16500000D03*
X9500000Y-57000000D03*
D15*
X20850000Y-46500000D03*
X34150000Y-46500000D03*
X34150000Y-31000000D03*
X20850000Y-31000000D03*
X35750000Y-42600000D03*
X40250000Y-42600000D03*
X40250000Y-34900000D03*
X35750000Y-34900000D03*
D16*
X17750000Y-41250000D03*
X17750000Y-38750000D03*
X17750000Y-36250000D03*
X30000000Y-29000000D03*
X27500000Y-29000000D03*
X25000000Y-29000000D03*
D17*
X14659000Y-61317000D03*
D16*
X10341000Y-61317000D03*
X10341000Y-68683000D03*
X14659000Y-68683000D03*
D17*
X44659000Y-61317000D03*
D16*
X40341000Y-61317000D03*
X40341000Y-68683000D03*
X44659000Y-68683000D03*
D18*
X52000000Y-33920000D03*
X52000000Y-36460000D03*
D19*
X52000000Y-39000000D03*
D20*
X2500000Y-15000000D03*
X2500000Y-17000000D03*
X2500000Y-19000000D03*
X2500000Y-21000000D03*
X2500000Y-23000000D03*
G36*
G01*
X3125001Y-25600000D02*
X1874999Y-25600000D01*
G75*
G02*
X1625000Y-25350001I0J249999D01*
G01*
X1625000Y-24649999D01*
G75*
G02*
X1874999Y-24400000I249999J0D01*
G01*
X3125001Y-24400000D01*
G75*
G02*
X3375000Y-24649999I0J-249999D01*
G01*
X3375000Y-25350001D01*
G75*
G02*
X3125001Y-25600000I-249999J0D01*
G01*
G37*
D21*
X53450000Y-50425000D03*
X53450000Y-57575000D03*
M02*
