M48
; DRILL file {KiCad (5.1.10)-1} date 07/12/21 13:00:43
; FORMAT={-:-/ absolute / metric / decimal}
; #@! TF.CreationDate,2021-07-12T13:00:43+09:00
; #@! TF.GenerationSoftware,Kicad,Pcbnew,(5.1.10)-1
; #@! TF.FileFunction,Plated,1,2,PTH
FMAT,2
METRIC
T1C0.200
T2C0.400
T3C0.450
T4C0.500
T5C0.750
T6C1.000
T7C1.143
T8C1.350
T9C1.500
%
G90
G05
T1
X26.665Y-14.322
X26.665Y-16.157
X27.582Y-13.405
X27.582Y-15.24
X27.582Y-17.075
X28.5Y-14.322
X28.5Y-16.157
X29.418Y-13.405
X29.418Y-15.24
X29.418Y-17.075
X30.335Y-14.322
X30.335Y-16.157
T2
X9.0Y-14.5
X9.0Y-37.5
X10.0Y-43.0
X10.456Y-34.044
X10.5Y-23.0
X11.0Y-14.5
X11.0Y-31.5
X11.225Y-21.0
X12.0Y-35.5
X12.25Y-33.75
X13.5Y-43.5
X13.5Y-50.5
X13.513Y-15.513
X15.5Y-46.5
X16.5Y-24.0
X16.587Y-7.912
X21.5Y-14.0
X22.137Y-54.862
X23.0Y-15.0
X23.5Y-19.0
X23.5Y-34.0
X23.5Y-46.0
X24.5Y-52.5
X25.5Y-21.0
X25.5Y-55.0
X26.0Y-7.188
X26.0Y-34.0
X26.399Y-8.899
X26.5Y-60.0
X27.5Y-10.5
X27.5Y-19.0
X27.5Y-23.0
X28.0Y-11.5
X28.5Y-52.5
X29.0Y-19.5
X30.5Y-19.5
X31.0Y-52.5
X31.0Y-57.0
X31.5Y-23.0
X32.5Y-56.0
X34.5Y-24.5
X35.0Y-51.0
X37.5Y-66.0
X39.0Y-19.5
X39.0Y-55.5
X39.0Y-58.0
X40.5Y-9.0
X40.5Y-49.5
T4
X7.5Y-42.5
X14.375Y-47.375
X23.862Y-60.137
X25.0Y-13.5
X32.5Y-53.5
T5
X2.5Y-15.0
X2.5Y-17.0
X2.5Y-19.0
X2.5Y-21.0
X2.5Y-23.0
X2.5Y-25.0
T6
X17.75Y-36.25
X17.75Y-38.75
X17.75Y-41.25
X25.0Y-29.0
X27.5Y-29.0
X30.0Y-29.0
X52.0Y-33.92
X52.0Y-36.46
X52.0Y-39.0
T7
X10.341Y-61.317
X10.341Y-68.683
X14.659Y-61.317
X14.659Y-68.683
X40.341Y-61.317
X40.341Y-68.683
X44.659Y-61.317
X44.659Y-68.683
T8
X35.75Y-34.9
X35.75Y-42.6
X40.25Y-34.9
X40.25Y-42.6
T9
X20.85Y-31.0
X20.85Y-46.5
X34.15Y-31.0
X34.15Y-46.5
T3
G00X53.05Y-50.425
M15
G01X53.85Y-50.425
M16
G05
G00X53.85Y-57.575
M15
G01X53.05Y-57.575
M16
G05
T0
M30
